<?xml version="1.0" encoding="UTF-8" standalone="no"?>
<svg
   xmlns:ns="&amp;#38;#38;ns_sfw;"
   xmlns:dc="http://purl.org/dc/elements/1.1/"
   xmlns:cc="http://creativecommons.org/ns#"
   xmlns:rdf="http://www.w3.org/1999/02/22-rdf-syntax-ns#"
   xmlns:svg="http://www.w3.org/2000/svg"
   xmlns="http://www.w3.org/2000/svg"
   xmlns:sodipodi="http://sodipodi.sourceforge.net/DTD/sodipodi-0.dtd"
   xmlns:inkscape="http://www.inkscape.org/namespaces/inkscape"
   version="1.1"
   x="0px"
   y="0px"
   width="299.711"
   height="567.17664"
   viewBox="0 0 299.711 567.17664"
   enable-background="new 0 0 1000 700"
   xml:space="preserve"
   id="svg523"
   sodipodi:docname="11_ns.svg"
   inkscape:version="1.0.1 (3bc2e813f5, 2020-09-07)"><defs
   id="defs527">
	
	
	
	
	
	

	
	
	
	
	
	
	
	
	
	
	
	
	
	
	
	
	
	
	
	
	
	
	
	
	
	
	
	
	
	
	
	
	
	
	
	
	
	
	
	
	
	
	
	
	
	
	
	
	
	

	
	
	
	
	
	
	
	
	
	
	
	
	
	
	
	
	
	
	
	
	
	
	
	
	
	
	
	
	
	
	
	
	
	
	
	
	
	
	





		
			
	
		
			
	
		
			
	
		
			
	
		
			
	
		
			
	
		
			
	
		
			
	
		
			
	
		
			
	
		
			
	
		
			
	
		
			
	
		
			
	
		
			
	
		
			
	
		
			
	
		
			
	
		
			
	
		
			
	
		
			
	
		
			
	
		
			
	
		
			
	
		
			
	
		
			
	
		
			
	
		
			
	
		
			
	
		
			
	
		
			
	
		
			
	
		
			
	
		
			
	
		
			
	
		
			
	
		
			
	
		
			
	
		
			
	
		
			
	
		
			
	
		
			
	
		
			
	
		
			
	
		
			
	
		
			
	
		
			
	
		
			
	
		
			
	
		
			
	
		
			
	
		
			
	
		
			
	
		
			
	
		
			
	
		
			
	
		
			
	
		
			
	
		
	
		
	
		
			
	
		
			
	
		
			
	
		
			
	
		
			
	
		
	
		
	
		
	
		
			
	
		
			
	
		
			
	
		
			
	
		
			
	
		
	
		
	
		
			
	
		
			
	
		
			
	
		
			
	
		
			
	
		
			
	
		
			
	
		
			
	
		
	
		
	
		
	
		
	
		
			
	
		
			
	
		
			
	
		
			
	
		
			
	
		
			
	
		
			
	
		
			
	</defs><sodipodi:namedview
   pagecolor="#ffffff"
   bordercolor="#666666"
   borderopacity="1"
   objecttolerance="10"
   gridtolerance="10"
   guidetolerance="10"
   inkscape:pageopacity="0"
   inkscape:pageshadow="2"
   inkscape:window-width="1920"
   inkscape:window-height="1001"
   id="namedview525"
   showgrid="false"
   inkscape:zoom="1.19"
   inkscape:cx="62.82198"
   inkscape:cy="296.67789"
   inkscape:window-x="-9"
   inkscape:window-y="-9"
   inkscape:window-maximized="1"
   inkscape:current-layer="svg523"
   inkscape:document-rotation="0"
   fit-margin-left="10"
   fit-margin-top="10"
   fit-margin-bottom="10"
   fit-margin-right="10"
   lock-margins="true" />
<metadata
   id="metadata2">
	<ns:sfw>
		<ns:slices />
		<ns:sliceSourceBounds
   bottomLeftOrigin="true"
   height="6346.65"
   width="6061.483"
   x="-1952.96"
   y="2781.216" />
	</ns:sfw>
<rdf:RDF><cc:Work
     rdf:about=""><dc:format>image/svg+xml</dc:format><dc:type
       rdf:resource="http://purl.org/dc/dcmitype/StillImage" /><dc:title></dc:title></cc:Work></rdf:RDF></metadata>

<g
   id="N-DIMENSIONS"
   display="none"
   transform="translate(-37.042,-59.037524)">
	<g
   display="inline"
   id="g229">
		<g
   id="g40">
			<g
   id="MTEXT_00000084526512436760227510000009544241997654054280_">
				<g
   id="g25">
					<g
   id="g23">
						<path
   fill="#00b9d2"
   d="m 195.918,310.691 c -0.78,-0.433 -1.374,-1.017 -1.78,-1.75 -0.406,-0.733 -0.609,-1.533 -0.609,-2.399 0,-1.146 0.46,-2.373 1.38,-3.681 l 3.819,-5.319 c 0.014,-0.014 0.051,-0.061 0.11,-0.141 0.059,-0.08 0.137,-0.143 0.229,-0.189 0.094,-0.047 0.2,-0.07 0.32,-0.07 h 0.98 c 0.12,0 0.216,0.043 0.29,0.13 0.073,0.087 0.109,0.19 0.109,0.311 0,0.066 -0.033,0.153 -0.1,0.26 l -2.92,4.08 c 0.347,-0.08 0.733,-0.12 1.16,-0.12 0.973,0 1.83,0.217 2.569,0.649 0.74,0.434 1.313,1.007 1.721,1.721 0.406,0.713 0.609,1.497 0.609,2.35 0,0.854 -0.203,1.65 -0.609,2.39 -0.407,0.74 -0.997,1.33 -1.771,1.771 -0.774,0.441 -1.687,0.66 -2.74,0.66 -1.063,-0.002 -1.986,-0.219 -2.767,-0.653 z m 4.371,-1.37 c 0.493,-0.239 0.887,-0.597 1.18,-1.069 0.293,-0.474 0.44,-1.044 0.44,-1.71 0,-0.653 -0.15,-1.217 -0.45,-1.69 -0.3,-0.473 -0.697,-0.833 -1.19,-1.08 -0.493,-0.246 -1.026,-0.37 -1.6,-0.37 -0.574,0 -1.107,0.124 -1.601,0.37 -0.493,0.247 -0.887,0.607 -1.18,1.08 -0.293,0.474 -0.439,1.037 -0.439,1.69 0,0.666 0.146,1.236 0.439,1.71 0.293,0.473 0.687,0.83 1.18,1.069 0.493,0.24 1.027,0.36 1.601,0.36 0.586,0.001 1.125,-0.119 1.62,-0.36 z"
   id="path5" />
						<path
   fill="#00b9d2"
   d="m 206.039,311.012 c -0.087,-0.087 -0.13,-0.196 -0.13,-0.33 v -1.38 c 0,-0.133 0.043,-0.247 0.13,-0.34 0.086,-0.094 0.196,-0.141 0.33,-0.141 h 1.38 c 0.133,0 0.243,0.047 0.33,0.141 0.086,0.093 0.13,0.207 0.13,0.34 v 1.38 c 0,0.134 -0.044,0.243 -0.13,0.33 -0.087,0.087 -0.197,0.13 -0.33,0.13 h -1.38 c -0.134,0 -0.244,-0.043 -0.33,-0.13 z"
   id="path7" />
						<path
   fill="#00b9d2"
   d="m 213.409,311.012 c -0.08,-0.087 -0.12,-0.196 -0.12,-0.33 v -11.28 l -3.36,2.58 c -0.093,0.08 -0.193,0.12 -0.3,0.12 -0.12,0 -0.233,-0.066 -0.34,-0.2 l -0.48,-0.62 c -0.066,-0.093 -0.1,-0.187 -0.1,-0.279 0,-0.146 0.066,-0.267 0.2,-0.36 l 4.34,-3.36 c 0.146,-0.093 0.32,-0.14 0.52,-0.14 h 0.94 c 0.133,0 0.243,0.043 0.33,0.13 0.087,0.087 0.13,0.197 0.13,0.33 v 13.08 c 0,0.134 -0.043,0.243 -0.13,0.33 -0.087,0.087 -0.197,0.13 -0.33,0.13 h -0.98 c -0.134,-10e-4 -0.24,-0.044 -0.32,-0.131 z"
   id="path9" />
						<path
   fill="#00b9d2"
   d="m 217.918,300.622 c -0.06,-0.08 -0.077,-0.181 -0.05,-0.301 l 0.439,-2.8 c 0.054,-0.387 0.24,-0.58 0.561,-0.58 h 1.28 c 0.093,0 0.17,0.033 0.229,0.101 0.061,0.066 0.09,0.146 0.09,0.239 0,0.134 -0.02,0.24 -0.06,0.32 l -1.04,2.7 c -0.067,0.146 -0.141,0.257 -0.22,0.33 -0.08,0.073 -0.2,0.109 -0.36,0.109 h -0.62 c -0.105,10e-4 -0.189,-0.039 -0.249,-0.118 z m 3.14,0 c -0.06,-0.08 -0.076,-0.181 -0.05,-0.301 l 0.44,-2.8 c 0.053,-0.387 0.24,-0.58 0.56,-0.58 h 1.28 c 0.093,0 0.17,0.033 0.229,0.101 0.061,0.066 0.091,0.146 0.091,0.239 0,0.134 -0.021,0.24 -0.061,0.32 l -1.04,2.7 c -0.066,0.146 -0.14,0.257 -0.22,0.33 -0.08,0.073 -0.2,0.109 -0.36,0.109 h -0.62 c -0.105,10e-4 -0.188,-0.039 -0.249,-0.118 z"
   id="path11" />
						<path
   fill="#00b9d2"
   d="m 156.45,331.012 c -0.08,-0.087 -0.12,-0.196 -0.12,-0.33 v -11.28 l -3.36,2.58 c -0.093,0.08 -0.193,0.12 -0.3,0.12 -0.12,0 -0.233,-0.066 -0.34,-0.2 l -0.48,-0.62 c -0.066,-0.093 -0.1,-0.187 -0.1,-0.279 0,-0.146 0.066,-0.267 0.2,-0.36 l 4.34,-3.36 c 0.146,-0.093 0.32,-0.14 0.52,-0.14 h 0.94 c 0.133,0 0.243,0.043 0.33,0.13 0.087,0.087 0.13,0.197 0.13,0.33 v 13.08 c 0,0.134 -0.043,0.243 -0.13,0.33 -0.087,0.087 -0.197,0.13 -0.33,0.13 h -0.98 c -0.134,-10e-4 -0.24,-0.044 -0.32,-0.131 z"
   id="path13" />
						<path
   fill="#00b9d2"
   d="m 162.969,330.802 c -0.733,-0.36 -1.293,-0.83 -1.68,-1.41 -0.387,-0.58 -0.594,-1.203 -0.62,-1.87 v -0.04 c 0,-0.106 0.04,-0.193 0.12,-0.26 0.08,-0.067 0.173,-0.1 0.28,-0.1 h 0.979 c 0.28,0 0.46,0.146 0.54,0.439 0.2,0.72 0.57,1.257 1.11,1.61 0.54,0.353 1.163,0.529 1.87,0.529 0.906,0 1.66,-0.276 2.26,-0.829 0.6,-0.554 0.9,-1.317 0.9,-2.29 0,-0.894 -0.301,-1.604 -0.9,-2.131 -0.6,-0.526 -1.354,-0.79 -2.26,-0.79 -0.48,0 -0.867,0.061 -1.16,0.181 -0.294,0.12 -0.594,0.293 -0.9,0.52 -0.173,0.134 -0.316,0.23 -0.43,0.29 -0.113,0.061 -0.237,0.09 -0.37,0.09 h -0.96 c -0.12,0 -0.227,-0.043 -0.32,-0.13 -0.093,-0.086 -0.133,-0.189 -0.12,-0.31 l 0.62,-6.66 c 0.04,-0.333 0.207,-0.5 0.5,-0.5 h 6.92 c 0.146,0 0.261,0.04 0.341,0.12 0.079,0.08 0.119,0.193 0.119,0.34 v 0.74 c 0,0.133 -0.043,0.24 -0.13,0.319 -0.087,0.08 -0.196,0.12 -0.33,0.12 h -5.76 l -0.359,4.021 c 0.64,-0.453 1.5,-0.68 2.579,-0.68 0.894,0 1.707,0.177 2.44,0.529 0.733,0.354 1.316,0.87 1.75,1.55 0.434,0.681 0.65,1.487 0.65,2.421 0,0.986 -0.217,1.836 -0.65,2.55 -0.434,0.713 -1.033,1.253 -1.8,1.62 -0.767,0.366 -1.644,0.55 -2.63,0.55 -0.998,10e-4 -1.865,-0.18 -2.599,-0.539 z"
   id="path15" />
						<path
   fill="#00b9d2"
   d="m 179.299,331.012 c -0.087,-0.087 -0.13,-0.196 -0.13,-0.33 v -2.92 h -6.5 c -0.134,0 -0.243,-0.043 -0.33,-0.13 -0.087,-0.087 -0.13,-0.197 -0.13,-0.33 v -0.74 c 0,-0.187 0.073,-0.387 0.22,-0.6 l 6.021,-8.48 c 0.066,-0.106 0.166,-0.189 0.3,-0.25 0.133,-0.06 0.28,-0.09 0.439,-0.09 h 1.36 c 0.146,0 0.26,0.04 0.34,0.12 0.08,0.08 0.12,0.193 0.12,0.34 v 8.48 h 1.82 c 0.133,0 0.243,0.043 0.33,0.13 0.086,0.087 0.13,0.196 0.13,0.33 v 0.76 c 0,0.133 -0.044,0.243 -0.13,0.33 -0.087,0.087 -0.197,0.13 -0.33,0.13 h -1.82 v 2.92 c 0,0.134 -0.043,0.243 -0.13,0.33 -0.087,0.087 -0.197,0.13 -0.33,0.13 h -0.92 c -0.133,0 -0.243,-0.043 -0.33,-0.13 z m -5.009,-4.89 h 4.899 v -6.961 z"
   id="path17" />
						<path
   fill="#00b9d2"
   d="m 190.499,331.012 c -0.087,-0.087 -0.13,-0.196 -0.13,-0.33 v -9.48 c 0,-0.133 0.043,-0.243 0.13,-0.329 0.087,-0.087 0.196,-0.131 0.33,-0.131 h 0.84 c 0.134,0 0.24,0.044 0.32,0.131 0.08,0.086 0.12,0.196 0.12,0.329 v 0.681 c 0.72,-0.894 1.693,-1.34 2.92,-1.34 1.467,0 2.507,0.613 3.12,1.84 0.319,-0.561 0.776,-1.007 1.37,-1.34 0.593,-0.334 1.256,-0.5 1.989,-0.5 1.094,0 1.987,0.373 2.681,1.119 0.692,0.747 1.04,1.827 1.04,3.24 v 5.78 c 0,0.134 -0.044,0.243 -0.13,0.33 -0.087,0.087 -0.197,0.13 -0.33,0.13 h -0.86 c -0.134,0 -0.243,-0.043 -0.33,-0.13 -0.087,-0.087 -0.13,-0.196 -0.13,-0.33 v -5.6 c 0,-1.067 -0.22,-1.83 -0.66,-2.29 -0.439,-0.46 -1.02,-0.69 -1.74,-0.69 -0.64,0 -1.189,0.237 -1.649,0.71 -0.46,0.474 -0.69,1.23 -0.69,2.271 v 5.6 c 0,0.134 -0.043,0.243 -0.13,0.33 -0.087,0.087 -0.197,0.13 -0.33,0.13 h -0.88 c -0.134,0 -0.243,-0.043 -0.33,-0.13 -0.087,-0.087 -0.13,-0.196 -0.13,-0.33 v -5.6 c 0,-1.054 -0.23,-1.813 -0.69,-2.28 -0.46,-0.467 -1.029,-0.7 -1.71,-0.7 -0.64,0 -1.189,0.233 -1.649,0.7 -0.46,0.467 -0.69,1.22 -0.69,2.26 v 5.62 c 0,0.134 -0.043,0.243 -0.13,0.33 -0.087,0.087 -0.197,0.13 -0.33,0.13 h -0.88 c -0.136,-10e-4 -0.246,-0.044 -0.332,-0.131 z"
   id="path19" />
						<path
   fill="#00b9d2"
   d="m 208.258,331.012 c -0.087,-0.087 -0.13,-0.196 -0.13,-0.33 v -9.48 c 0,-0.133 0.043,-0.243 0.13,-0.329 0.087,-0.087 0.196,-0.131 0.33,-0.131 h 0.84 c 0.134,0 0.24,0.044 0.32,0.131 0.08,0.086 0.12,0.196 0.12,0.329 v 0.681 c 0.72,-0.894 1.693,-1.34 2.92,-1.34 1.467,0 2.507,0.613 3.12,1.84 0.319,-0.561 0.776,-1.007 1.37,-1.34 0.593,-0.334 1.256,-0.5 1.989,-0.5 1.094,0 1.987,0.373 2.681,1.119 0.692,0.747 1.04,1.827 1.04,3.24 v 5.78 c 0,0.134 -0.044,0.243 -0.13,0.33 -0.087,0.087 -0.197,0.13 -0.33,0.13 h -0.86 c -0.134,0 -0.243,-0.043 -0.33,-0.13 -0.087,-0.087 -0.13,-0.196 -0.13,-0.33 v -5.6 c 0,-1.067 -0.22,-1.83 -0.66,-2.29 -0.439,-0.46 -1.02,-0.69 -1.74,-0.69 -0.64,0 -1.189,0.237 -1.649,0.71 -0.46,0.474 -0.69,1.23 -0.69,2.271 v 5.6 c 0,0.134 -0.043,0.243 -0.13,0.33 -0.087,0.087 -0.197,0.13 -0.33,0.13 h -0.88 c -0.134,0 -0.243,-0.043 -0.33,-0.13 -0.087,-0.087 -0.13,-0.196 -0.13,-0.33 v -5.6 c 0,-1.054 -0.23,-1.813 -0.69,-2.28 -0.46,-0.467 -1.029,-0.7 -1.71,-0.7 -0.64,0 -1.189,0.233 -1.649,0.7 -0.46,0.467 -0.69,1.22 -0.69,2.26 v 5.62 c 0,0.134 -0.043,0.243 -0.13,0.33 -0.087,0.087 -0.197,0.13 -0.33,0.13 h -0.88 c -0.135,-10e-4 -0.245,-0.044 -0.332,-0.131 z"
   id="path21" />
					</g>
				</g>
			</g>
			<g
   id="POLYLINE_00000019666197767301490290000000067651651128630443_">
				
					<line
   fill="none"
   stroke="#00b9d2"
   stroke-width="2"
   stroke-linecap="round"
   stroke-linejoin="round"
   stroke-miterlimit="10"
   x1="86.745003"
   y1="578.05298"
   x2="191.89301"
   y2="344.57999"
   id="line28" />
			</g>
			<g
   id="POLYLINE_00000069372851059529056690000010163365667531923858_">
				
					<line
   fill="none"
   stroke="#00b9d2"
   stroke-width="2"
   stroke-linecap="round"
   stroke-linejoin="round"
   stroke-miterlimit="10"
   x1="216.218"
   y1="286.91299"
   x2="289.16501"
   y2="105.528"
   id="line31" />
			</g>
			<g
   id="POLYLINE_00000175303371292428686770000006874228277919381685_">
				
					<polyline
   fill="none"
   stroke="#00b9d2"
   stroke-width="2"
   stroke-linecap="round"
   stroke-linejoin="round"
   stroke-miterlimit="10"
   points="      83.923,570.461 86.745,578.053 94.337,575.231     "
   id="polyline34" />
			</g>
			<g
   id="POLYLINE_00000139291645265612729100000007279205387645330578_">
				
					<polyline
   fill="none"
   stroke="#00b9d2"
   stroke-width="2"
   stroke-linecap="round"
   stroke-linejoin="round"
   stroke-miterlimit="10"
   points="      291.987,113.12 289.165,105.528 281.573,108.35     "
   id="polyline37" />
			</g>
		</g>
		<g
   id="MTEXT_00000145772510088091985580000001636086510041175474_">
			<g
   id="g54">
				<path
   fill="#00b9d2"
   d="m 95.467,141.548 c -0.76,-0.341 -1.337,-0.783 -1.729,-1.33 -0.394,-0.547 -0.604,-1.113 -0.63,-1.7 0,-0.12 0.04,-0.217 0.12,-0.29 0.079,-0.073 0.18,-0.11 0.3,-0.11 h 0.899 c 0.146,0 0.267,0.03 0.36,0.09 0.093,0.061 0.167,0.178 0.22,0.351 0.174,0.68 0.55,1.16 1.13,1.439 0.58,0.28 1.264,0.42 2.051,0.42 0.96,0 1.723,-0.229 2.29,-0.689 0.566,-0.46 0.85,-1.116 0.85,-1.97 0,-1.627 -0.993,-2.44 -2.98,-2.44 h -1.88 c -0.133,0 -0.243,-0.043 -0.33,-0.13 -0.087,-0.087 -0.13,-0.196 -0.13,-0.33 v -0.52 c 0,-0.2 0.073,-0.374 0.221,-0.521 l 3.899,-4.32 h -5.92 c -0.134,0 -0.243,-0.04 -0.33,-0.12 -0.087,-0.079 -0.13,-0.187 -0.13,-0.319 v -0.72 c 0,-0.147 0.043,-0.264 0.13,-0.351 0.087,-0.087 0.196,-0.13 0.33,-0.13 h 7.92 c 0.146,0 0.264,0.043 0.351,0.13 0.086,0.087 0.13,0.203 0.13,0.351 v 0.659 c 0,0.147 -0.067,0.301 -0.2,0.46 l -3.9,4.381 h 0.32 c 1.36,0.039 2.437,0.393 3.229,1.06 0.794,0.667 1.19,1.64 1.19,2.92 0,0.88 -0.217,1.637 -0.65,2.271 -0.433,0.633 -1.036,1.119 -1.81,1.46 -0.773,0.34 -1.646,0.51 -2.62,0.51 -1.041,-0.002 -1.94,-0.172 -2.701,-0.512 z"
   id="path42" />
				<path
   fill="#00b9d2"
   d="m 105.318,141.728 c -0.087,-0.087 -0.13,-0.196 -0.13,-0.33 v -0.6 c 0,-0.307 0.166,-0.601 0.5,-0.881 l 4.359,-4.34 c 0.986,-0.84 1.667,-1.526 2.04,-2.06 0.373,-0.534 0.561,-1.101 0.561,-1.7 0,-0.786 -0.221,-1.403 -0.66,-1.85 -0.44,-0.447 -1.08,-0.67 -1.92,-0.67 -0.801,0 -1.434,0.233 -1.9,0.699 -0.467,0.467 -0.753,1.094 -0.86,1.88 -0.026,0.147 -0.093,0.261 -0.199,0.341 -0.107,0.08 -0.214,0.12 -0.32,0.12 h -0.96 c -0.12,0 -0.22,-0.04 -0.3,-0.12 -0.08,-0.08 -0.12,-0.174 -0.12,-0.28 0.026,-0.707 0.217,-1.39 0.569,-2.05 0.354,-0.66 0.877,-1.2 1.57,-1.62 0.693,-0.42 1.533,-0.63 2.521,-0.63 1.493,0 2.616,0.39 3.37,1.17 0.753,0.78 1.13,1.77 1.13,2.97 0,0.84 -0.204,1.597 -0.61,2.271 -0.407,0.673 -1.043,1.383 -1.91,2.13 l -3.939,4 h 6.3 c 0.146,0 0.26,0.04 0.34,0.12 0.08,0.079 0.12,0.193 0.12,0.34 v 0.76 c 0,0.134 -0.044,0.243 -0.13,0.33 -0.087,0.087 -0.197,0.13 -0.33,0.13 h -8.76 c -0.136,-0.001 -0.246,-0.044 -0.332,-0.13 z"
   id="path44" />
				<path
   fill="#00b9d2"
   d="m 119.257,141.407 c -0.78,-0.433 -1.374,-1.017 -1.78,-1.75 -0.406,-0.733 -0.609,-1.533 -0.609,-2.399 0,-1.146 0.46,-2.373 1.38,-3.681 l 3.819,-5.319 c 0.014,-0.014 0.051,-0.061 0.11,-0.141 0.059,-0.08 0.137,-0.143 0.229,-0.189 0.094,-0.047 0.2,-0.07 0.32,-0.07 h 0.98 c 0.12,0 0.216,0.043 0.29,0.13 0.073,0.087 0.109,0.19 0.109,0.311 0,0.066 -0.033,0.153 -0.1,0.26 l -2.92,4.08 c 0.347,-0.08 0.733,-0.12 1.16,-0.12 0.973,0 1.83,0.217 2.569,0.649 0.74,0.434 1.313,1.007 1.721,1.721 0.406,0.713 0.609,1.497 0.609,2.35 0,0.854 -0.203,1.65 -0.609,2.39 -0.407,0.74 -0.997,1.33 -1.771,1.771 -0.774,0.441 -1.687,0.66 -2.74,0.66 -1.064,-0.002 -1.986,-0.219 -2.767,-0.653 z m 4.37,-1.37 c 0.493,-0.239 0.887,-0.597 1.18,-1.069 0.293,-0.474 0.44,-1.044 0.44,-1.71 0,-0.653 -0.15,-1.217 -0.45,-1.69 -0.3,-0.473 -0.697,-0.833 -1.19,-1.08 -0.493,-0.246 -1.026,-0.37 -1.6,-0.37 -0.574,0 -1.107,0.124 -1.601,0.37 -0.493,0.247 -0.887,0.607 -1.18,1.08 -0.293,0.474 -0.439,1.037 -0.439,1.69 0,0.666 0.146,1.236 0.439,1.71 0.293,0.473 0.687,0.83 1.18,1.069 0.493,0.24 1.027,0.36 1.601,0.36 0.587,0 1.126,-0.12 1.62,-0.36 z"
   id="path46" />
				<path
   fill="#00b9d2"
   d="m 134.458,145.537 c -0.087,-0.08 -0.131,-0.193 -0.131,-0.34 v -13.28 c 0,-0.146 0.044,-0.26 0.131,-0.34 0.086,-0.08 0.196,-0.12 0.33,-0.12 h 0.84 c 0.146,0 0.26,0.04 0.34,0.12 0.08,0.08 0.12,0.193 0.12,0.34 v 0.881 c 0.772,-1.027 1.873,-1.54 3.3,-1.54 1.4,0 2.45,0.443 3.15,1.33 0.699,0.887 1.069,2.017 1.109,3.39 0.014,0.146 0.021,0.373 0.021,0.68 0,0.307 -0.007,0.533 -0.021,0.681 -0.04,1.359 -0.41,2.486 -1.109,3.38 -0.7,0.894 -1.75,1.34 -3.15,1.34 -1.427,0 -2.507,-0.507 -3.24,-1.521 v 4.66 c 0,0.133 -0.043,0.243 -0.13,0.33 -0.087,0.087 -0.197,0.13 -0.33,0.13 h -0.899 c -0.135,-10e-4 -0.246,-0.041 -0.331,-0.121 z m 6.649,-5.939 c 0.44,-0.601 0.681,-1.387 0.72,-2.36 0.014,-0.133 0.021,-0.326 0.021,-0.58 0,-2.56 -0.947,-3.84 -2.84,-3.84 -0.934,0 -1.637,0.31 -2.11,0.93 -0.473,0.62 -0.724,1.351 -0.75,2.19 -0.014,0.146 -0.02,0.407 -0.02,0.78 0,0.373 0.006,0.633 0.02,0.779 0.026,0.813 0.283,1.518 0.771,2.11 0.486,0.594 1.183,0.89 2.09,0.89 0.958,0 1.658,-0.3 2.098,-0.899 z"
   id="path48" />
				<path
   fill="#00b9d2"
   d="m 146.337,145.537 c -0.087,-0.08 -0.131,-0.193 -0.131,-0.34 v -13.28 c 0,-0.146 0.044,-0.26 0.131,-0.34 0.086,-0.08 0.196,-0.12 0.33,-0.12 h 0.84 c 0.146,0 0.26,0.04 0.34,0.12 0.08,0.08 0.12,0.193 0.12,0.34 v 0.881 c 0.772,-1.027 1.873,-1.54 3.3,-1.54 1.4,0 2.45,0.443 3.15,1.33 0.699,0.887 1.069,2.017 1.109,3.39 0.014,0.146 0.021,0.373 0.021,0.68 0,0.307 -0.007,0.533 -0.021,0.681 -0.04,1.359 -0.41,2.486 -1.109,3.38 -0.7,0.894 -1.75,1.34 -3.15,1.34 -1.427,0 -2.507,-0.507 -3.24,-1.521 v 4.66 c 0,0.133 -0.043,0.243 -0.13,0.33 -0.087,0.087 -0.197,0.13 -0.33,0.13 h -0.899 c -0.134,-10e-4 -0.245,-0.041 -0.331,-0.121 z m 6.65,-5.939 c 0.44,-0.601 0.681,-1.387 0.72,-2.36 0.014,-0.133 0.021,-0.326 0.021,-0.58 0,-2.56 -0.947,-3.84 -2.84,-3.84 -0.934,0 -1.637,0.31 -2.11,0.93 -0.473,0.62 -0.724,1.351 -0.75,2.19 -0.014,0.146 -0.02,0.407 -0.02,0.78 0,0.373 0.006,0.633 0.02,0.779 0.026,0.813 0.283,1.518 0.771,2.11 0.486,0.594 1.183,0.89 2.09,0.89 0.958,0 1.658,-0.3 2.098,-0.899 z"
   id="path50" />
				<path
   fill="#00b9d2"
   d="m 158.037,129.367 c -0.087,-0.086 -0.13,-0.196 -0.13,-0.33 v -1.04 c 0,-0.133 0.043,-0.246 0.13,-0.34 0.087,-0.093 0.197,-0.14 0.33,-0.14 h 1.181 c 0.133,0 0.246,0.047 0.34,0.14 0.093,0.094 0.14,0.207 0.14,0.34 v 1.04 c 0,0.134 -0.047,0.244 -0.14,0.33 -0.094,0.087 -0.207,0.13 -0.34,0.13 h -1.181 c -0.133,0 -0.243,-0.043 -0.33,-0.13 z m 0.16,12.361 c -0.087,-0.087 -0.13,-0.196 -0.13,-0.33 v -9.48 c 0,-0.133 0.043,-0.243 0.13,-0.329 0.087,-0.087 0.196,-0.131 0.33,-0.131 h 0.88 c 0.133,0 0.243,0.044 0.33,0.131 0.087,0.086 0.13,0.196 0.13,0.329 v 9.48 c 0,0.134 -0.043,0.243 -0.13,0.33 -0.087,0.087 -0.197,0.13 -0.33,0.13 h -0.88 c -0.134,-0.001 -0.243,-0.044 -0.33,-0.13 z"
   id="path52" />
			</g>
		</g>
		<g
   id="g96">
			<g
   id="POLYLINE_00000142149887999040766010000015636131033493794210_">
				
					<polyline
   fill="none"
   stroke="#00b9d2"
   stroke-width="2"
   stroke-linecap="round"
   stroke-linejoin="round"
   stroke-miterlimit="10"
   points="      395.411,635.359 389.684,641.086 395.411,646.813     "
   id="polyline57" />
			</g>
			<g
   id="POLYLINE_00000103263234610087789610000017875899230943409038_">
				
					<line
   fill="none"
   stroke="#00b9d2"
   stroke-width="2"
   stroke-linecap="round"
   stroke-linejoin="round"
   stroke-miterlimit="10"
   x1="389.68399"
   y1="641.086"
   x2="452.65601"
   y2="641.086"
   id="line60" />
			</g>
			<g
   id="POLYLINE_00000109741643849773038390000018174328817660686231_">
				
					<line
   fill="none"
   stroke="#00b9d2"
   stroke-width="2"
   stroke-linecap="round"
   stroke-linejoin="round"
   stroke-miterlimit="10"
   x1="603.19702"
   y1="641.086"
   x2="664.05798"
   y2="641.086"
   id="line63" />
			</g>
			<g
   id="POLYLINE_00000114753150210938935990000008964599802183864497_">
				
					<polyline
   fill="none"
   stroke="#00b9d2"
   stroke-width="2"
   stroke-linecap="round"
   stroke-linejoin="round"
   stroke-miterlimit="10"
   points="      658.319,635.37 664.047,641.097 658.319,646.823     "
   id="polyline66" />
			</g>
			<g
   id="MTEXT_00000075876812921148994620000004205279601968156800_">
				<g
   id="g93">
					<path
   fill="#00b9d2"
   d="m 457.581,648.234 c -0.087,-0.087 -0.13,-0.196 -0.13,-0.33 v -0.6 c 0,-0.307 0.166,-0.601 0.5,-0.881 l 4.359,-4.34 c 0.986,-0.84 1.667,-1.526 2.04,-2.06 0.373,-0.534 0.561,-1.101 0.561,-1.7 0,-0.786 -0.221,-1.403 -0.66,-1.85 -0.44,-0.447 -1.08,-0.67 -1.92,-0.67 -0.801,0 -1.434,0.233 -1.9,0.699 -0.467,0.467 -0.753,1.094 -0.86,1.88 -0.026,0.147 -0.093,0.261 -0.199,0.341 -0.107,0.08 -0.214,0.12 -0.32,0.12 h -0.96 c -0.12,0 -0.22,-0.04 -0.3,-0.12 -0.08,-0.08 -0.12,-0.174 -0.12,-0.28 0.026,-0.707 0.217,-1.39 0.569,-2.05 0.354,-0.66 0.877,-1.2 1.57,-1.62 0.693,-0.42 1.533,-0.63 2.521,-0.63 1.493,0 2.616,0.39 3.37,1.17 0.753,0.78 1.13,1.77 1.13,2.97 0,0.84 -0.204,1.597 -0.61,2.271 -0.407,0.673 -1.043,1.383 -1.91,2.13 l -3.939,4 h 6.3 c 0.146,0 0.26,0.04 0.34,0.12 0.08,0.079 0.12,0.193 0.12,0.34 v 0.76 c 0,0.134 -0.044,0.243 -0.13,0.33 -0.087,0.087 -0.197,0.13 -0.33,0.13 h -8.76 c -0.136,0 -0.246,-0.043 -0.332,-0.13 z"
   id="path69" />
					<path
   fill="#00b9d2"
   d="m 469.64,648.234 c -0.087,-0.087 -0.13,-0.196 -0.13,-0.33 v -1.38 c 0,-0.133 0.043,-0.247 0.13,-0.34 0.086,-0.094 0.196,-0.141 0.33,-0.141 h 1.38 c 0.133,0 0.243,0.047 0.33,0.141 0.086,0.093 0.13,0.207 0.13,0.34 v 1.38 c 0,0.134 -0.044,0.243 -0.13,0.33 -0.087,0.087 -0.197,0.13 -0.33,0.13 h -1.38 c -0.134,0 -0.244,-0.043 -0.33,-0.13 z"
   id="path71" />
					<path
   fill="#00b9d2"
   d="m 475.84,648.234 c -0.073,-0.087 -0.109,-0.19 -0.109,-0.311 0,-0.093 0.026,-0.18 0.079,-0.26 l 3.08,-4.28 c -0.319,0.08 -0.693,0.12 -1.12,0.12 -0.96,-0.013 -1.8,-0.236 -2.52,-0.67 -0.72,-0.433 -1.27,-1 -1.65,-1.7 -0.38,-0.699 -0.569,-1.449 -0.569,-2.25 0,-0.8 0.189,-1.56 0.569,-2.279 0.381,-0.721 0.947,-1.307 1.7,-1.76 0.753,-0.453 1.663,-0.681 2.73,-0.681 1.066,0 1.979,0.22 2.739,0.66 0.761,0.44 1.334,1.017 1.721,1.73 0.387,0.713 0.58,1.477 0.58,2.29 0,0.733 -0.13,1.38 -0.391,1.939 -0.26,0.561 -0.604,1.14 -1.029,1.74 l -3.881,5.439 c -0.093,0.12 -0.183,0.217 -0.27,0.29 -0.087,0.074 -0.21,0.11 -0.37,0.11 h -1 c -0.119,0.003 -0.215,-0.04 -0.289,-0.127 z m 3.771,-6.69 c 0.479,-0.253 0.859,-0.609 1.14,-1.069 0.281,-0.46 0.42,-0.99 0.42,-1.591 0,-0.612 -0.14,-1.152 -0.42,-1.619 -0.28,-0.467 -0.66,-0.827 -1.14,-1.08 -0.48,-0.254 -1.007,-0.38 -1.58,-0.38 -0.561,0 -1.077,0.126 -1.55,0.38 -0.474,0.253 -0.851,0.613 -1.131,1.08 -0.279,0.467 -0.42,1.007 -0.42,1.619 0,0.601 0.141,1.131 0.42,1.591 0.28,0.46 0.653,0.816 1.12,1.069 0.467,0.254 0.987,0.38 1.561,0.38 0.574,0 1.099,-0.126 1.58,-0.38 z"
   id="path73" />
					<path
   fill="#00b9d2"
   d="m 487.7,648.055 c -0.793,-0.341 -1.41,-0.83 -1.85,-1.471 -0.44,-0.64 -0.66,-1.387 -0.66,-2.239 0,-0.787 0.196,-1.477 0.59,-2.07 0.394,-0.593 0.923,-1.05 1.59,-1.37 -0.533,-0.307 -0.946,-0.71 -1.24,-1.21 -0.293,-0.5 -0.439,-1.09 -0.439,-1.771 0,-1.159 0.433,-2.076 1.3,-2.75 0.866,-0.673 2.007,-1.01 3.42,-1.01 1.413,0 2.55,0.334 3.41,1 0.86,0.667 1.29,1.587 1.29,2.76 0,0.667 -0.146,1.25 -0.44,1.75 -0.293,0.5 -0.699,0.91 -1.22,1.23 0.667,0.32 1.196,0.776 1.59,1.37 0.394,0.594 0.59,1.29 0.59,2.09 0,0.854 -0.22,1.597 -0.659,2.23 -0.44,0.633 -1.058,1.119 -1.851,1.46 -0.793,0.34 -1.696,0.51 -2.71,0.51 -1.014,0 -1.918,-0.169 -2.711,-0.509 z m 5.08,-1.771 c 0.633,-0.479 0.95,-1.12 0.95,-1.92 0,-0.8 -0.317,-1.44 -0.95,-1.92 -0.634,-0.48 -1.424,-0.72 -2.37,-0.72 -0.96,0 -1.757,0.239 -2.39,0.72 -0.634,0.479 -0.95,1.12 -0.95,1.92 0,0.8 0.316,1.44 0.95,1.92 0.633,0.48 1.43,0.72 2.39,0.72 0.946,0 1.736,-0.239 2.37,-0.72 z m -0.31,-6.72 c 0.56,-0.4 0.84,-0.934 0.84,-1.601 0,-0.68 -0.277,-1.223 -0.83,-1.63 -0.554,-0.406 -1.243,-0.609 -2.07,-0.609 -0.84,0 -1.533,0.203 -2.08,0.609 -0.547,0.407 -0.819,0.95 -0.819,1.63 0,0.681 0.272,1.224 0.819,1.631 0.547,0.406 1.24,0.609 2.08,0.609 0.813,-0.025 1.5,-0.239 2.06,-0.639 z"
   id="path75" />
					<path
   fill="#00b9d2"
   d="m 497.959,637.845 c -0.06,-0.08 -0.077,-0.181 -0.05,-0.301 l 0.439,-2.8 c 0.054,-0.387 0.24,-0.58 0.561,-0.58 h 1.28 c 0.093,0 0.17,0.033 0.229,0.101 0.061,0.066 0.09,0.146 0.09,0.239 0,0.134 -0.02,0.24 -0.06,0.32 l -1.04,2.7 c -0.067,0.146 -0.141,0.257 -0.22,0.33 -0.08,0.073 -0.2,0.109 -0.36,0.109 h -0.62 c -0.105,0.001 -0.189,-0.039 -0.249,-0.118 z m 3.14,0 c -0.06,-0.08 -0.076,-0.181 -0.05,-0.301 l 0.44,-2.8 c 0.053,-0.387 0.24,-0.58 0.56,-0.58 h 1.28 c 0.093,0 0.17,0.033 0.229,0.101 0.061,0.066 0.091,0.146 0.091,0.239 0,0.134 -0.021,0.24 -0.061,0.32 l -1.04,2.7 c -0.066,0.146 -0.14,0.257 -0.22,0.33 -0.08,0.073 -0.2,0.109 -0.36,0.109 h -0.62 c -0.105,0.001 -0.188,-0.039 -0.249,-0.118 z"
   id="path77" />
					<path
   fill="#00b9d2"
   d="m 510.969,652.395 c -0.08,-0.087 -0.12,-0.197 -0.12,-0.33 v -21.16 c 0,-0.133 0.04,-0.243 0.12,-0.33 0.08,-0.087 0.187,-0.13 0.32,-0.13 h 0.739 c 0.134,0 0.243,0.043 0.33,0.13 0.087,0.087 0.13,0.197 0.13,0.33 v 21.16 c 0,0.133 -0.043,0.243 -0.13,0.33 -0.087,0.086 -0.196,0.13 -0.33,0.13 h -0.739 c -0.133,-10e-4 -0.24,-0.045 -0.32,-0.13 z"
   id="path79" />
					<path
   fill="#00b9d2"
   d="m 521.599,648.234 c -0.073,-0.087 -0.11,-0.19 -0.11,-0.311 l 0.04,-0.18 5,-11.7 h -6.6 c -0.134,0 -0.243,-0.043 -0.33,-0.13 -0.087,-0.086 -0.13,-0.196 -0.13,-0.33 v -0.739 c 0,-0.147 0.04,-0.264 0.12,-0.351 0.08,-0.087 0.193,-0.13 0.34,-0.13 h 8.16 c 0.146,0 0.26,0.043 0.34,0.13 0.08,0.087 0.12,0.203 0.12,0.351 v 0.68 c 0,0.24 -0.054,0.5 -0.16,0.78 l -4.94,11.56 c -0.066,0.146 -0.14,0.267 -0.22,0.36 -0.08,0.093 -0.193,0.14 -0.34,0.14 h -1 c -0.12,0 -0.217,-0.043 -0.29,-0.13 z"
   id="path81" />
					<path
   fill="#00b9d2"
   d="m 532.308,648.024 c -0.733,-0.36 -1.293,-0.83 -1.68,-1.41 -0.387,-0.58 -0.594,-1.203 -0.62,-1.87 v -0.04 c 0,-0.106 0.04,-0.193 0.12,-0.26 0.08,-0.067 0.173,-0.1 0.28,-0.1 h 0.979 c 0.28,0 0.46,0.146 0.54,0.439 0.2,0.72 0.57,1.257 1.11,1.61 0.54,0.353 1.163,0.529 1.87,0.529 0.906,0 1.66,-0.276 2.26,-0.829 0.6,-0.554 0.9,-1.317 0.9,-2.29 0,-0.894 -0.301,-1.604 -0.9,-2.131 -0.6,-0.526 -1.354,-0.79 -2.26,-0.79 -0.48,0 -0.867,0.061 -1.16,0.181 -0.294,0.12 -0.594,0.293 -0.9,0.52 -0.173,0.134 -0.316,0.23 -0.43,0.29 -0.113,0.061 -0.237,0.09 -0.37,0.09 h -0.96 c -0.12,0 -0.227,-0.043 -0.32,-0.13 -0.093,-0.086 -0.133,-0.189 -0.12,-0.31 l 0.62,-6.66 c 0.04,-0.333 0.207,-0.5 0.5,-0.5 h 6.92 c 0.146,0 0.261,0.04 0.341,0.12 0.079,0.08 0.119,0.193 0.119,0.34 v 0.74 c 0,0.133 -0.043,0.24 -0.13,0.319 -0.087,0.08 -0.196,0.12 -0.33,0.12 h -5.76 l -0.359,4.021 c 0.64,-0.453 1.5,-0.68 2.579,-0.68 0.894,0 1.707,0.177 2.44,0.529 0.733,0.354 1.316,0.87 1.75,1.55 0.434,0.681 0.65,1.487 0.65,2.421 0,0.986 -0.217,1.836 -0.65,2.55 -0.434,0.713 -1.033,1.253 -1.8,1.62 -0.767,0.366 -1.644,0.55 -2.63,0.55 -0.998,10e-4 -1.865,-0.179 -2.599,-0.539 z"
   id="path83" />
					<path
   fill="#00b9d2"
   d="m 542.239,648.234 c -0.087,-0.087 -0.13,-0.196 -0.13,-0.33 v -1.38 c 0,-0.133 0.043,-0.247 0.13,-0.34 0.086,-0.094 0.196,-0.141 0.33,-0.141 h 1.38 c 0.133,0 0.243,0.047 0.33,0.141 0.086,0.093 0.13,0.207 0.13,0.34 v 1.38 c 0,0.134 -0.044,0.243 -0.13,0.33 -0.087,0.087 -0.197,0.13 -0.33,0.13 h -1.38 c -0.134,0 -0.244,-0.043 -0.33,-0.13 z"
   id="path85" />
					<path
   fill="#00b9d2"
   d="m 547.859,648.234 c -0.073,-0.087 -0.11,-0.19 -0.11,-0.311 l 0.04,-0.18 5,-11.7 h -6.6 c -0.134,0 -0.243,-0.043 -0.33,-0.13 -0.087,-0.086 -0.13,-0.196 -0.13,-0.33 v -0.739 c 0,-0.147 0.04,-0.264 0.12,-0.351 0.08,-0.087 0.193,-0.13 0.34,-0.13 h 8.16 c 0.146,0 0.26,0.043 0.34,0.13 0.08,0.087 0.12,0.203 0.12,0.351 v 0.68 c 0,0.24 -0.054,0.5 -0.16,0.78 l -4.94,11.56 c -0.066,0.146 -0.14,0.267 -0.22,0.36 -0.08,0.093 -0.193,0.14 -0.34,0.14 h -1 c -0.12,0 -0.217,-0.043 -0.29,-0.13 z"
   id="path87" />
					<path
   fill="#00b9d2"
   d="m 561.898,648.234 c -0.087,-0.087 -0.13,-0.196 -0.13,-0.33 v -9.48 c 0,-0.133 0.043,-0.243 0.13,-0.329 0.087,-0.087 0.196,-0.131 0.33,-0.131 h 0.84 c 0.134,0 0.24,0.044 0.32,0.131 0.08,0.086 0.12,0.196 0.12,0.329 v 0.681 c 0.72,-0.894 1.693,-1.34 2.92,-1.34 1.467,0 2.507,0.613 3.12,1.84 0.319,-0.561 0.776,-1.007 1.37,-1.34 0.593,-0.334 1.256,-0.5 1.989,-0.5 1.094,0 1.987,0.373 2.681,1.119 0.692,0.747 1.04,1.827 1.04,3.24 v 5.78 c 0,0.134 -0.044,0.243 -0.13,0.33 -0.087,0.087 -0.197,0.13 -0.33,0.13 h -0.86 c -0.134,0 -0.243,-0.043 -0.33,-0.13 -0.087,-0.087 -0.13,-0.196 -0.13,-0.33 v -5.6 c 0,-1.067 -0.22,-1.83 -0.66,-2.29 -0.439,-0.46 -1.02,-0.69 -1.74,-0.69 -0.64,0 -1.189,0.237 -1.649,0.71 -0.46,0.474 -0.69,1.23 -0.69,2.271 v 5.6 c 0,0.134 -0.043,0.243 -0.13,0.33 -0.087,0.087 -0.197,0.13 -0.33,0.13 h -0.88 c -0.134,0 -0.243,-0.043 -0.33,-0.13 -0.087,-0.087 -0.13,-0.196 -0.13,-0.33 v -5.6 c 0,-1.054 -0.23,-1.813 -0.69,-2.28 -0.46,-0.467 -1.029,-0.7 -1.71,-0.7 -0.64,0 -1.189,0.233 -1.649,0.7 -0.46,0.467 -0.69,1.22 -0.69,2.26 v 5.62 c 0,0.134 -0.043,0.243 -0.13,0.33 -0.087,0.087 -0.197,0.13 -0.33,0.13 h -0.88 c -0.136,-10e-4 -0.245,-0.044 -0.332,-0.131 z"
   id="path89" />
					<path
   fill="#00b9d2"
   d="m 579.658,648.234 c -0.087,-0.087 -0.13,-0.196 -0.13,-0.33 v -9.48 c 0,-0.133 0.043,-0.243 0.13,-0.329 0.087,-0.087 0.196,-0.131 0.33,-0.131 h 0.84 c 0.134,0 0.24,0.044 0.32,0.131 0.08,0.086 0.12,0.196 0.12,0.329 v 0.681 c 0.72,-0.894 1.693,-1.34 2.92,-1.34 1.467,0 2.507,0.613 3.12,1.84 0.319,-0.561 0.776,-1.007 1.37,-1.34 0.593,-0.334 1.256,-0.5 1.989,-0.5 1.094,0 1.987,0.373 2.681,1.119 0.692,0.747 1.04,1.827 1.04,3.24 v 5.78 c 0,0.134 -0.044,0.243 -0.13,0.33 -0.087,0.087 -0.197,0.13 -0.33,0.13 h -0.86 c -0.134,0 -0.243,-0.043 -0.33,-0.13 -0.087,-0.087 -0.13,-0.196 -0.13,-0.33 v -5.6 c 0,-1.067 -0.22,-1.83 -0.66,-2.29 -0.439,-0.46 -1.02,-0.69 -1.74,-0.69 -0.64,0 -1.189,0.237 -1.649,0.71 -0.46,0.474 -0.69,1.23 -0.69,2.271 v 5.6 c 0,0.134 -0.043,0.243 -0.13,0.33 -0.087,0.087 -0.197,0.13 -0.33,0.13 h -0.88 c -0.134,0 -0.243,-0.043 -0.33,-0.13 -0.087,-0.087 -0.13,-0.196 -0.13,-0.33 v -5.6 c 0,-1.054 -0.23,-1.813 -0.69,-2.28 -0.46,-0.467 -1.029,-0.7 -1.71,-0.7 -0.64,0 -1.189,0.233 -1.649,0.7 -0.46,0.467 -0.69,1.22 -0.69,2.26 v 5.62 c 0,0.134 -0.043,0.243 -0.13,0.33 -0.087,0.087 -0.197,0.13 -0.33,0.13 h -0.88 c -0.136,-10e-4 -0.245,-0.044 -0.332,-0.131 z"
   id="path91" />
				</g>
			</g>
		</g>
		<g
   id="g123">
			<g
   id="POLYLINE_00000147941824991014407940000012307540251792909993_">
				
					<polyline
   fill="none"
   stroke="#00b9d2"
   stroke-width="2"
   stroke-linecap="round"
   stroke-linejoin="round"
   stroke-miterlimit="10"
   points="      87.034,540.302 81.307,546.029 87.034,551.756     "
   id="polyline98" />
			</g>
			<g
   id="POLYLINE_00000056390955305637457070000015975269258998310023_">
				
					<line
   fill="none"
   stroke="#00b9d2"
   stroke-width="2"
   stroke-linecap="round"
   stroke-linejoin="round"
   stroke-miterlimit="10"
   x1="81.306999"
   y1="546.02899"
   x2="155.228"
   y2="546.02899"
   id="line101" />
			</g>
			<g
   id="POLYLINE_00000028287401514751725800000005181889663666655369_">
				
					<line
   fill="none"
   stroke="#00b9d2"
   stroke-width="2"
   stroke-linecap="round"
   stroke-linejoin="round"
   stroke-miterlimit="10"
   x1="233.42799"
   y1="546.02899"
   x2="294.28699"
   y2="546.02899"
   id="line104" />
			</g>
			<g
   id="POLYLINE_00000144334317919360088920000001658190681012312736_">
				
					<polyline
   fill="none"
   stroke="#00b9d2"
   stroke-width="2"
   stroke-linecap="round"
   stroke-linejoin="round"
   stroke-miterlimit="10"
   points="      288.548,540.312 294.276,546.039 288.548,551.766     "
   id="polyline107" />
			</g>
			<g
   id="MTEXT_00000016780401473320708810000017591934586281999507_">
				<g
   id="g120">
					<path
   fill="#00b9d2"
   d="m 165.477,551.998 c -0.793,-0.341 -1.41,-0.83 -1.85,-1.471 -0.44,-0.64 -0.66,-1.387 -0.66,-2.239 0,-0.787 0.196,-1.477 0.59,-2.07 0.394,-0.593 0.923,-1.05 1.59,-1.37 -0.533,-0.307 -0.946,-0.71 -1.24,-1.21 -0.293,-0.5 -0.439,-1.09 -0.439,-1.771 0,-1.159 0.433,-2.076 1.3,-2.75 0.866,-0.673 2.007,-1.01 3.42,-1.01 1.413,0 2.55,0.334 3.41,1 0.86,0.667 1.29,1.587 1.29,2.76 0,0.667 -0.146,1.25 -0.44,1.75 -0.293,0.5 -0.699,0.91 -1.22,1.23 0.667,0.32 1.196,0.776 1.59,1.37 0.394,0.594 0.59,1.29 0.59,2.09 0,0.854 -0.22,1.597 -0.659,2.23 -0.44,0.633 -1.058,1.119 -1.851,1.46 -0.793,0.34 -1.696,0.51 -2.71,0.51 -1.014,0 -1.918,-0.169 -2.711,-0.509 z m 5.08,-1.77 c 0.633,-0.479 0.95,-1.12 0.95,-1.92 0,-0.8 -0.317,-1.44 -0.95,-1.92 -0.634,-0.48 -1.424,-0.72 -2.37,-0.72 -0.96,0 -1.757,0.239 -2.39,0.72 -0.634,0.479 -0.95,1.12 -0.95,1.92 0,0.8 0.316,1.44 0.95,1.92 0.633,0.48 1.43,0.72 2.39,0.72 0.946,-10e-4 1.736,-0.24 2.37,-0.72 z m -0.309,-6.72 c 0.56,-0.4 0.84,-0.934 0.84,-1.601 0,-0.68 -0.277,-1.223 -0.83,-1.63 -0.554,-0.406 -1.243,-0.609 -2.07,-0.609 -0.84,0 -1.533,0.203 -2.08,0.609 -0.547,0.407 -0.819,0.95 -0.819,1.63 0,0.681 0.272,1.224 0.819,1.631 0.547,0.406 1.24,0.609 2.08,0.609 0.812,-0.026 1.499,-0.24 2.06,-0.639 z"
   id="path110" />
					<path
   fill="#00b9d2"
   d="m 175.637,552.178 c -0.087,-0.087 -0.13,-0.196 -0.13,-0.33 v -0.6 c 0,-0.307 0.166,-0.601 0.5,-0.881 l 4.359,-4.34 c 0.986,-0.84 1.667,-1.526 2.04,-2.06 0.373,-0.534 0.561,-1.101 0.561,-1.7 0,-0.786 -0.221,-1.403 -0.66,-1.85 -0.44,-0.447 -1.08,-0.67 -1.92,-0.67 -0.801,0 -1.434,0.233 -1.9,0.699 -0.467,0.467 -0.753,1.094 -0.86,1.88 -0.026,0.147 -0.093,0.261 -0.199,0.341 -0.107,0.08 -0.214,0.12 -0.32,0.12 h -0.96 c -0.12,0 -0.22,-0.04 -0.3,-0.12 -0.08,-0.08 -0.12,-0.174 -0.12,-0.28 0.026,-0.707 0.217,-1.39 0.569,-2.05 0.354,-0.66 0.877,-1.2 1.57,-1.62 0.693,-0.42 1.533,-0.63 2.521,-0.63 1.493,0 2.616,0.39 3.37,1.17 0.753,0.78 1.13,1.77 1.13,2.97 0,0.84 -0.204,1.597 -0.61,2.271 -0.407,0.673 -1.043,1.383 -1.91,2.13 l -3.939,4 h 6.3 c 0.146,0 0.26,0.04 0.34,0.12 0.08,0.079 0.12,0.193 0.12,0.34 v 0.76 c 0,0.134 -0.044,0.243 -0.13,0.33 -0.087,0.087 -0.197,0.13 -0.33,0.13 h -8.76 c -0.136,0 -0.246,-0.043 -0.332,-0.13 z"
   id="path112" />
					<path
   fill="#00b9d2"
   d="m 189.836,551.998 c -0.793,-0.341 -1.41,-0.83 -1.85,-1.471 -0.44,-0.64 -0.66,-1.387 -0.66,-2.239 0,-0.787 0.196,-1.477 0.59,-2.07 0.394,-0.593 0.923,-1.05 1.59,-1.37 -0.533,-0.307 -0.946,-0.71 -1.24,-1.21 -0.293,-0.5 -0.439,-1.09 -0.439,-1.771 0,-1.159 0.433,-2.076 1.3,-2.75 0.866,-0.673 2.007,-1.01 3.42,-1.01 1.413,0 2.55,0.334 3.41,1 0.86,0.667 1.29,1.587 1.29,2.76 0,0.667 -0.146,1.25 -0.44,1.75 -0.293,0.5 -0.699,0.91 -1.22,1.23 0.667,0.32 1.196,0.776 1.59,1.37 0.394,0.594 0.59,1.29 0.59,2.09 0,0.854 -0.22,1.597 -0.659,2.23 -0.44,0.633 -1.058,1.119 -1.851,1.46 -0.793,0.34 -1.696,0.51 -2.71,0.51 -1.014,0 -1.918,-0.169 -2.711,-0.509 z m 5.081,-1.77 c 0.633,-0.479 0.95,-1.12 0.95,-1.92 0,-0.8 -0.317,-1.44 -0.95,-1.92 -0.634,-0.48 -1.424,-0.72 -2.37,-0.72 -0.96,0 -1.757,0.239 -2.39,0.72 -0.634,0.479 -0.95,1.12 -0.95,1.92 0,0.8 0.316,1.44 0.95,1.92 0.633,0.48 1.43,0.72 2.39,0.72 0.946,-10e-4 1.736,-0.24 2.37,-0.72 z m -0.31,-6.72 c 0.56,-0.4 0.84,-0.934 0.84,-1.601 0,-0.68 -0.277,-1.223 -0.83,-1.63 -0.554,-0.406 -1.243,-0.609 -2.07,-0.609 -0.84,0 -1.533,0.203 -2.08,0.609 -0.547,0.407 -0.819,0.95 -0.819,1.63 0,0.681 0.272,1.224 0.819,1.631 0.547,0.406 1.24,0.609 2.08,0.609 0.813,-0.026 1.499,-0.24 2.06,-0.639 z"
   id="path114" />
					<path
   fill="#00b9d2"
   d="m 205.457,555.987 c -0.087,-0.08 -0.131,-0.193 -0.131,-0.34 v -13.28 c 0,-0.146 0.044,-0.26 0.131,-0.34 0.086,-0.08 0.196,-0.12 0.33,-0.12 h 0.84 c 0.146,0 0.26,0.04 0.34,0.12 0.08,0.08 0.12,0.193 0.12,0.34 v 0.881 c 0.772,-1.027 1.873,-1.54 3.3,-1.54 1.4,0 2.45,0.443 3.15,1.33 0.699,0.887 1.069,2.017 1.109,3.39 0.014,0.146 0.021,0.373 0.021,0.68 0,0.307 -0.007,0.533 -0.021,0.681 -0.04,1.359 -0.41,2.486 -1.109,3.38 -0.7,0.894 -1.75,1.34 -3.15,1.34 -1.427,0 -2.507,-0.507 -3.24,-1.521 v 4.66 c 0,0.133 -0.043,0.243 -0.13,0.33 -0.087,0.087 -0.197,0.13 -0.33,0.13 h -0.899 c -0.135,-10e-4 -0.246,-0.041 -0.331,-0.121 z m 6.649,-5.939 c 0.44,-0.601 0.681,-1.387 0.72,-2.36 0.014,-0.133 0.021,-0.326 0.021,-0.58 0,-2.56 -0.947,-3.84 -2.84,-3.84 -0.934,0 -1.637,0.31 -2.11,0.93 -0.473,0.62 -0.724,1.351 -0.75,2.19 -0.014,0.146 -0.02,0.407 -0.02,0.78 0,0.373 0.006,0.633 0.02,0.779 0.026,0.813 0.283,1.518 0.771,2.11 0.486,0.594 1.183,0.89 2.09,0.89 0.958,0 1.659,-0.3 2.098,-0.899 z"
   id="path116" />
					<path
   fill="#00b9d2"
   d="m 216.126,552.188 c -0.08,-0.08 -0.12,-0.18 -0.12,-0.3 0,-0.12 0.047,-0.247 0.141,-0.38 l 3.479,-4.521 -3.26,-4.3 c -0.106,-0.146 -0.16,-0.267 -0.16,-0.36 0,-0.119 0.043,-0.22 0.13,-0.3 0.087,-0.08 0.184,-0.12 0.29,-0.12 h 0.96 c 0.2,0 0.373,0.107 0.521,0.32 l 2.7,3.5 2.699,-3.5 c 0.08,-0.106 0.157,-0.187 0.23,-0.24 0.073,-0.053 0.17,-0.08 0.29,-0.08 h 0.92 c 0.106,0 0.2,0.04 0.28,0.12 0.08,0.08 0.12,0.174 0.12,0.28 0,0.134 -0.047,0.26 -0.141,0.38 l -3.3,4.34 3.48,4.48 c 0.093,0.133 0.14,0.26 0.14,0.38 0,0.12 -0.04,0.22 -0.12,0.3 -0.08,0.08 -0.18,0.12 -0.3,0.12 h -0.98 c -0.2,0 -0.373,-0.1 -0.52,-0.3 l -2.86,-3.7 -2.859,3.7 c -0.08,0.093 -0.157,0.167 -0.23,0.22 -0.073,0.054 -0.17,0.08 -0.29,0.08 h -0.94 c -0.119,10e-4 -0.219,-0.039 -0.3,-0.119 z"
   id="path118" />
				</g>
			</g>
		</g>
		<g
   id="g152">
			<g
   id="POLYLINE_00000018950627386977097520000016876853100927512721_">
				
					<polyline
   fill="none"
   stroke="#00b9d2"
   stroke-width="2"
   stroke-linecap="round"
   stroke-linejoin="round"
   stroke-miterlimit="10"
   points="      269.689,106.351 263.962,100.624 258.235,106.351     "
   id="polyline125" />
			</g>
			<g
   id="POLYLINE_00000057841975260919734120000009496688700056161471_">
				
					<line
   fill="none"
   stroke="#00b9d2"
   stroke-width="2"
   stroke-linecap="round"
   stroke-linejoin="round"
   stroke-miterlimit="10"
   x1="263.96201"
   y1="100.624"
   x2="263.96201"
   y2="454.79599"
   id="line128" />
			</g>
			<g
   id="POLYLINE_00000172425918167610223420000012984546116426861210_">
				
					<line
   fill="none"
   stroke="#00b9d2"
   stroke-width="2"
   stroke-linecap="round"
   stroke-linejoin="round"
   stroke-miterlimit="10"
   x1="263.96201"
   y1="484.496"
   x2="263.96201"
   y2="582.67902"
   id="line131" />
			</g>
			<g
   id="POLYLINE_00000029740194589171615990000016475441726256997007_">
				
					<polyline
   fill="none"
   stroke="#00b9d2"
   stroke-width="2"
   stroke-linecap="round"
   stroke-linejoin="round"
   stroke-miterlimit="10"
   points="      269.678,576.94 263.951,582.668 258.224,576.94     "
   id="polyline134" />
			</g>
			<g
   id="MTEXT_00000140713448784306863770000004460981515445960602_">
				<g
   id="g149">
					<path
   fill="#00b9d2"
   d="m 210.78,475.316 c -0.08,-0.087 -0.12,-0.196 -0.12,-0.33 v -11.28 l -3.36,2.58 c -0.093,0.08 -0.193,0.12 -0.3,0.12 -0.12,0 -0.233,-0.066 -0.34,-0.2 l -0.48,-0.62 c -0.066,-0.093 -0.1,-0.187 -0.1,-0.279 0,-0.146 0.066,-0.267 0.2,-0.36 l 4.34,-3.36 c 0.146,-0.093 0.32,-0.14 0.52,-0.14 h 0.94 c 0.133,0 0.243,0.043 0.33,0.13 0.087,0.087 0.13,0.197 0.13,0.33 v 13.08 c 0,0.134 -0.043,0.243 -0.13,0.33 -0.087,0.087 -0.197,0.13 -0.33,0.13 h -0.98 c -0.134,-10e-4 -0.24,-0.044 -0.32,-0.131 z"
   id="path137" />
					<path
   fill="#00b9d2"
   d="m 216.79,475.316 c -0.073,-0.087 -0.11,-0.19 -0.11,-0.311 l 0.04,-0.18 5,-11.7 h -6.6 c -0.134,0 -0.243,-0.043 -0.33,-0.13 -0.087,-0.086 -0.13,-0.196 -0.13,-0.33 v -0.739 c 0,-0.147 0.04,-0.264 0.12,-0.351 0.08,-0.087 0.193,-0.13 0.34,-0.13 h 8.16 c 0.146,0 0.26,0.043 0.34,0.13 0.08,0.087 0.12,0.203 0.12,0.351 v 0.68 c 0,0.24 -0.054,0.5 -0.16,0.78 l -4.94,11.56 c -0.066,0.146 -0.14,0.267 -0.22,0.36 -0.08,0.093 -0.193,0.14 -0.34,0.14 h -1 c -0.121,0 -0.217,-0.043 -0.29,-0.13 z"
   id="path139" />
					<path
   fill="#00b9d2"
   d="m 227.869,475.316 c -0.073,-0.087 -0.109,-0.19 -0.109,-0.311 0,-0.093 0.026,-0.18 0.079,-0.26 l 3.08,-4.28 c -0.319,0.08 -0.693,0.12 -1.12,0.12 -0.96,-0.013 -1.8,-0.236 -2.52,-0.67 -0.72,-0.433 -1.27,-1 -1.65,-1.7 -0.38,-0.699 -0.569,-1.449 -0.569,-2.25 0,-0.8 0.189,-1.56 0.569,-2.279 0.381,-0.721 0.947,-1.307 1.7,-1.76 0.753,-0.453 1.663,-0.681 2.73,-0.681 1.066,0 1.979,0.22 2.739,0.66 0.761,0.44 1.334,1.017 1.721,1.73 0.387,0.713 0.58,1.477 0.58,2.29 0,0.733 -0.13,1.38 -0.391,1.939 -0.26,0.561 -0.604,1.14 -1.029,1.74 l -3.881,5.439 c -0.093,0.12 -0.183,0.217 -0.27,0.29 -0.087,0.074 -0.21,0.11 -0.37,0.11 h -1 c -0.119,0.003 -0.216,-0.04 -0.289,-0.127 z m 3.77,-6.69 c 0.479,-0.253 0.859,-0.609 1.14,-1.069 0.281,-0.46 0.42,-0.99 0.42,-1.591 0,-0.612 -0.14,-1.152 -0.42,-1.619 -0.28,-0.467 -0.66,-0.827 -1.14,-1.08 -0.48,-0.254 -1.007,-0.38 -1.58,-0.38 -0.561,0 -1.077,0.126 -1.55,0.38 -0.474,0.253 -0.851,0.613 -1.131,1.08 -0.279,0.467 -0.42,1.007 -0.42,1.619 0,0.601 0.141,1.131 0.42,1.591 0.28,0.46 0.653,0.816 1.12,1.069 0.467,0.254 0.987,0.38 1.561,0.38 0.574,0 1.1,-0.126 1.58,-0.38 z"
   id="path141" />
					<path
   fill="#00b9d2"
   d="m 237.209,475.316 c -0.087,-0.087 -0.13,-0.196 -0.13,-0.33 v -0.6 c 0,-0.307 0.166,-0.601 0.5,-0.881 l 4.359,-4.34 c 0.986,-0.84 1.667,-1.526 2.04,-2.06 0.373,-0.534 0.561,-1.101 0.561,-1.7 0,-0.786 -0.221,-1.403 -0.66,-1.85 -0.44,-0.447 -1.08,-0.67 -1.92,-0.67 -0.801,0 -1.434,0.233 -1.9,0.699 -0.467,0.467 -0.753,1.094 -0.86,1.88 -0.026,0.147 -0.093,0.261 -0.199,0.341 -0.107,0.08 -0.214,0.12 -0.32,0.12 h -0.96 c -0.12,0 -0.22,-0.04 -0.3,-0.12 -0.08,-0.08 -0.12,-0.174 -0.12,-0.28 0.026,-0.707 0.217,-1.39 0.569,-2.05 0.354,-0.66 0.877,-1.2 1.57,-1.62 0.693,-0.42 1.533,-0.63 2.521,-0.63 1.493,0 2.616,0.39 3.37,1.17 0.753,0.78 1.13,1.77 1.13,2.97 0,0.84 -0.204,1.597 -0.61,2.271 -0.407,0.673 -1.043,1.383 -1.91,2.13 l -3.939,4 h 6.3 c 0.146,0 0.26,0.04 0.34,0.12 0.08,0.079 0.12,0.193 0.12,0.34 v 0.76 c 0,0.134 -0.044,0.243 -0.13,0.33 -0.087,0.087 -0.197,0.13 -0.33,0.13 h -8.76 c -0.135,0 -0.246,-0.043 -0.332,-0.13 z"
   id="path143" />
					<path
   fill="#00b9d2"
   d="m 254.349,479.126 c -0.087,-0.08 -0.131,-0.193 -0.131,-0.34 v -13.28 c 0,-0.146 0.044,-0.26 0.131,-0.34 0.086,-0.08 0.196,-0.12 0.33,-0.12 h 0.84 c 0.146,0 0.26,0.04 0.34,0.12 0.08,0.08 0.12,0.193 0.12,0.34 v 0.881 c 0.772,-1.027 1.873,-1.54 3.3,-1.54 1.4,0 2.45,0.443 3.15,1.33 0.699,0.887 1.069,2.017 1.109,3.39 0.014,0.146 0.021,0.373 0.021,0.68 0,0.307 -0.007,0.533 -0.021,0.681 -0.04,1.359 -0.41,2.486 -1.109,3.38 -0.7,0.894 -1.75,1.34 -3.15,1.34 -1.427,0 -2.507,-0.507 -3.24,-1.521 v 4.66 c 0,0.133 -0.043,0.243 -0.13,0.33 -0.087,0.087 -0.197,0.13 -0.33,0.13 h -0.899 c -0.135,-0.001 -0.245,-0.041 -0.331,-0.121 z m 6.65,-5.939 c 0.44,-0.601 0.681,-1.387 0.72,-2.36 0.014,-0.133 0.021,-0.326 0.021,-0.58 0,-2.56 -0.947,-3.84 -2.84,-3.84 -0.934,0 -1.637,0.31 -2.11,0.93 -0.473,0.62 -0.724,1.351 -0.75,2.19 -0.014,0.146 -0.02,0.407 -0.02,0.78 0,0.373 0.006,0.633 0.02,0.779 0.026,0.813 0.283,1.518 0.771,2.11 0.486,0.594 1.183,0.89 2.09,0.89 0.958,0 1.658,-0.3 2.098,-0.899 z"
   id="path145" />
					<path
   fill="#00b9d2"
   d="m 265.018,475.326 c -0.08,-0.08 -0.12,-0.18 -0.12,-0.3 0,-0.12 0.047,-0.247 0.141,-0.38 l 3.479,-4.521 -3.26,-4.3 c -0.106,-0.146 -0.16,-0.267 -0.16,-0.36 0,-0.119 0.043,-0.22 0.13,-0.3 0.087,-0.08 0.184,-0.12 0.29,-0.12 h 0.96 c 0.2,0 0.373,0.107 0.521,0.32 l 2.7,3.5 2.699,-3.5 c 0.08,-0.106 0.157,-0.187 0.23,-0.24 0.073,-0.053 0.17,-0.08 0.29,-0.08 h 0.92 c 0.106,0 0.2,0.04 0.28,0.12 0.08,0.08 0.12,0.174 0.12,0.28 0,0.134 -0.047,0.26 -0.141,0.38 l -3.3,4.34 3.48,4.48 c 0.093,0.133 0.14,0.26 0.14,0.38 0,0.12 -0.04,0.22 -0.12,0.3 -0.08,0.08 -0.18,0.12 -0.3,0.12 h -0.98 c -0.2,0 -0.373,-0.1 -0.52,-0.3 l -2.86,-3.7 -2.859,3.7 c -0.08,0.093 -0.157,0.167 -0.23,0.22 -0.073,0.054 -0.17,0.08 -0.29,0.08 h -0.94 c -0.119,0.001 -0.22,-0.039 -0.3,-0.119 z"
   id="path147" />
				</g>
			</g>
		</g>
		<g
   id="g195">
			<g
   id="POLYLINE_00000129196203298985353740000018166141742401153467_">
				
					<polyline
   fill="none"
   stroke="#00b9d2"
   stroke-width="2"
   stroke-linecap="round"
   stroke-linejoin="round"
   stroke-miterlimit="10"
   points="      692.354,77.347 686.628,71.62 680.901,77.347     "
   id="polyline154" />
			</g>
			<g
   id="POLYLINE_00000115483214694733719220000017833099233117258172_">
				
					<line
   fill="none"
   stroke="#00b9d2"
   stroke-width="2"
   stroke-linecap="round"
   stroke-linejoin="round"
   stroke-miterlimit="10"
   x1="686.62799"
   y1="71.620003"
   x2="686.62799"
   y2="242.263"
   id="line157" />
			</g>
			<g
   id="POLYLINE_00000008864520783796662060000014438702108135659170_">
				
					<line
   fill="none"
   stroke="#00b9d2"
   stroke-width="2"
   stroke-linecap="round"
   stroke-linejoin="round"
   stroke-miterlimit="10"
   x1="686.62799"
   y1="242.60699"
   x2="686.62799"
   y2="613.22601"
   id="line160" />
			</g>
			<g
   id="POLYLINE_00000082351852148304835010000008441423475882893953_">
				
					<polyline
   fill="none"
   stroke="#00b9d2"
   stroke-width="2"
   stroke-linecap="round"
   stroke-linejoin="round"
   stroke-miterlimit="10"
   points="      692.344,607.487 686.617,613.214 680.89,607.487     "
   id="polyline163" />
			</g>
			<g
   id="MTEXT_00000066486433114384473290000017044845606031187360_"
   opacity="0.98">
				<g
   id="g192">
					<path
   fill="#00b9d2"
   d="m 544.751,55.742 c -0.733,-0.36 -1.293,-0.83 -1.68,-1.41 -0.387,-0.58 -0.594,-1.203 -0.62,-1.87 v -0.04 c 0,-0.106 0.04,-0.193 0.12,-0.26 0.08,-0.067 0.173,-0.1 0.28,-0.1 h 0.979 c 0.28,0 0.46,0.146 0.54,0.439 0.2,0.72 0.57,1.257 1.11,1.61 0.54,0.353 1.163,0.529 1.87,0.529 0.906,0 1.66,-0.276 2.26,-0.829 0.6,-0.554 0.9,-1.317 0.9,-2.29 0,-0.894 -0.301,-1.604 -0.9,-2.131 -0.6,-0.526 -1.354,-0.79 -2.26,-0.79 -0.48,0 -0.867,0.061 -1.16,0.181 -0.294,0.12 -0.594,0.293 -0.9,0.52 -0.173,0.134 -0.316,0.23 -0.43,0.29 -0.113,0.061 -0.237,0.09 -0.37,0.09 h -0.96 c -0.12,0 -0.227,-0.043 -0.32,-0.13 -0.093,-0.086 -0.133,-0.189 -0.12,-0.31 l 0.62,-6.66 c 0.04,-0.333 0.207,-0.5 0.5,-0.5 h 6.92 c 0.146,0 0.261,0.04 0.341,0.12 0.079,0.08 0.119,0.193 0.119,0.34 v 0.74 c 0,0.133 -0.043,0.24 -0.13,0.319 -0.087,0.08 -0.196,0.12 -0.33,0.12 h -5.76 l -0.359,4.021 c 0.64,-0.453 1.5,-0.68 2.579,-0.68 0.894,0 1.707,0.177 2.44,0.529 0.733,0.354 1.316,0.87 1.75,1.55 0.434,0.681 0.65,1.487 0.65,2.421 0,0.986 -0.217,1.836 -0.65,2.55 -0.434,0.713 -1.033,1.253 -1.8,1.62 -0.767,0.366 -1.644,0.55 -2.63,0.55 -0.998,10e-4 -1.865,-0.179 -2.599,-0.539 z"
   id="path166" />
					<path
   fill="#00b9d2"
   d="m 554.682,55.952 c -0.087,-0.087 -0.13,-0.196 -0.13,-0.33 v -1.38 c 0,-0.133 0.043,-0.247 0.13,-0.34 0.086,-0.094 0.196,-0.141 0.33,-0.141 h 1.38 c 0.133,0 0.243,0.047 0.33,0.141 0.086,0.093 0.13,0.207 0.13,0.34 v 1.38 c 0,0.134 -0.044,0.243 -0.13,0.33 -0.087,0.087 -0.197,0.13 -0.33,0.13 h -1.38 c -0.134,0 -0.244,-0.043 -0.33,-0.13 z"
   id="path168" />
					<path
   fill="#00b9d2"
   d="m 560.881,55.952 c -0.073,-0.087 -0.109,-0.19 -0.109,-0.311 0,-0.093 0.026,-0.18 0.079,-0.26 l 3.08,-4.28 c -0.319,0.08 -0.693,0.12 -1.12,0.12 -0.96,-0.013 -1.8,-0.236 -2.52,-0.67 -0.72,-0.433 -1.27,-1 -1.65,-1.7 -0.38,-0.699 -0.569,-1.449 -0.569,-2.25 0,-0.8 0.189,-1.56 0.569,-2.279 0.381,-0.721 0.947,-1.307 1.7,-1.76 0.753,-0.453 1.663,-0.681 2.73,-0.681 1.066,0 1.979,0.22 2.739,0.66 0.761,0.44 1.334,1.017 1.721,1.73 0.387,0.713 0.58,1.477 0.58,2.29 0,0.733 -0.13,1.38 -0.391,1.939 -0.26,0.561 -0.604,1.14 -1.029,1.74 l -3.881,5.439 c -0.093,0.12 -0.183,0.217 -0.27,0.29 -0.087,0.074 -0.21,0.11 -0.37,0.11 h -1 c -0.119,0.003 -0.215,-0.04 -0.289,-0.127 z m 3.771,-6.69 c 0.479,-0.253 0.859,-0.609 1.14,-1.069 0.281,-0.46 0.42,-0.99 0.42,-1.591 0,-0.612 -0.14,-1.152 -0.42,-1.619 -0.28,-0.467 -0.66,-0.827 -1.14,-1.08 -0.48,-0.254 -1.007,-0.38 -1.58,-0.38 -0.561,0 -1.077,0.126 -1.55,0.38 -0.474,0.253 -0.851,0.613 -1.131,1.08 -0.279,0.467 -0.42,1.007 -0.42,1.619 0,0.601 0.141,1.131 0.42,1.591 0.28,0.46 0.653,0.816 1.12,1.069 0.467,0.254 0.987,0.38 1.561,0.38 0.574,0 1.099,-0.126 1.58,-0.38 z"
   id="path170" />
					<path
   fill="#00b9d2"
   d="m 576.522,55.952 c -0.087,-0.087 -0.13,-0.196 -0.13,-0.33 v -2.92 h -6.5 c -0.134,0 -0.243,-0.043 -0.33,-0.13 -0.087,-0.087 -0.13,-0.197 -0.13,-0.33 v -0.74 c 0,-0.187 0.073,-0.387 0.22,-0.6 l 6.021,-8.48 c 0.066,-0.106 0.166,-0.189 0.3,-0.25 0.133,-0.06 0.28,-0.09 0.439,-0.09 h 1.36 c 0.146,0 0.26,0.04 0.34,0.12 0.08,0.08 0.12,0.193 0.12,0.34 v 8.48 h 1.82 c 0.133,0 0.243,0.043 0.33,0.13 0.086,0.087 0.13,0.196 0.13,0.33 v 0.76 c 0,0.133 -0.044,0.243 -0.13,0.33 -0.087,0.087 -0.197,0.13 -0.33,0.13 h -1.82 v 2.92 c 0,0.134 -0.043,0.243 -0.13,0.33 -0.087,0.087 -0.197,0.13 -0.33,0.13 h -0.92 c -0.134,0 -0.243,-0.043 -0.33,-0.13 z m -5.01,-4.89 h 4.899 v -6.961 z"
   id="path172" />
					<path
   fill="#00b9d2"
   d="m 582.381,45.562 c -0.06,-0.08 -0.077,-0.181 -0.05,-0.301 l 0.439,-2.8 c 0.054,-0.387 0.24,-0.58 0.561,-0.58 h 1.28 c 0.093,0 0.17,0.033 0.229,0.101 0.061,0.066 0.09,0.146 0.09,0.239 0,0.134 -0.02,0.24 -0.06,0.32 l -1.04,2.7 c -0.067,0.146 -0.141,0.257 -0.22,0.33 -0.08,0.073 -0.2,0.109 -0.36,0.109 h -0.62 c -0.105,0.002 -0.189,-0.038 -0.249,-0.118 z m 3.14,0 c -0.06,-0.08 -0.076,-0.181 -0.05,-0.301 l 0.44,-2.8 c 0.053,-0.387 0.24,-0.58 0.56,-0.58 h 1.28 c 0.093,0 0.17,0.033 0.229,0.101 0.061,0.066 0.091,0.146 0.091,0.239 0,0.134 -0.021,0.24 -0.061,0.32 l -1.04,2.7 c -0.066,0.146 -0.14,0.257 -0.22,0.33 -0.08,0.073 -0.2,0.109 -0.36,0.109 h -0.62 c -0.105,0.002 -0.188,-0.038 -0.249,-0.118 z"
   id="path174" />
					<path
   fill="#00b9d2"
   d="m 595.391,60.112 c -0.08,-0.087 -0.12,-0.197 -0.12,-0.33 v -21.16 c 0,-0.133 0.04,-0.243 0.12,-0.33 0.08,-0.087 0.187,-0.13 0.32,-0.13 h 0.739 c 0.134,0 0.243,0.043 0.33,0.13 0.087,0.087 0.13,0.197 0.13,0.33 v 21.16 c 0,0.133 -0.043,0.243 -0.13,0.33 -0.087,0.086 -0.196,0.13 -0.33,0.13 h -0.739 c -0.133,0 -0.24,-0.044 -0.32,-0.13 z"
   id="path176" />
					<path
   fill="#00b9d2"
   d="m 608.511,55.952 c -0.08,-0.087 -0.12,-0.196 -0.12,-0.33 v -11.28 l -3.36,2.58 c -0.093,0.08 -0.193,0.12 -0.3,0.12 -0.12,0 -0.233,-0.066 -0.34,-0.2 l -0.48,-0.62 c -0.066,-0.093 -0.1,-0.187 -0.1,-0.279 0,-0.146 0.066,-0.267 0.2,-0.36 l 4.34,-3.36 c 0.146,-0.093 0.32,-0.14 0.52,-0.14 h 0.94 c 0.133,0 0.243,0.043 0.33,0.13 0.087,0.087 0.13,0.197 0.13,0.33 v 13.08 c 0,0.134 -0.043,0.243 -0.13,0.33 -0.087,0.087 -0.197,0.13 -0.33,0.13 h -0.98 c -0.133,-10e-4 -0.24,-0.044 -0.32,-0.131 z"
   id="path178" />
					<path
   fill="#00b9d2"
   d="m 615.03,55.742 c -0.733,-0.36 -1.293,-0.83 -1.68,-1.41 -0.387,-0.58 -0.594,-1.203 -0.62,-1.87 v -0.04 c 0,-0.106 0.04,-0.193 0.12,-0.26 0.08,-0.067 0.173,-0.1 0.28,-0.1 h 0.979 c 0.28,0 0.46,0.146 0.54,0.439 0.2,0.72 0.57,1.257 1.11,1.61 0.54,0.353 1.163,0.529 1.87,0.529 0.906,0 1.66,-0.276 2.26,-0.829 0.6,-0.554 0.9,-1.317 0.9,-2.29 0,-0.894 -0.301,-1.604 -0.9,-2.131 -0.6,-0.526 -1.354,-0.79 -2.26,-0.79 -0.48,0 -0.867,0.061 -1.16,0.181 -0.294,0.12 -0.594,0.293 -0.9,0.52 -0.173,0.134 -0.316,0.23 -0.43,0.29 -0.113,0.061 -0.237,0.09 -0.37,0.09 h -0.96 c -0.12,0 -0.227,-0.043 -0.32,-0.13 -0.093,-0.086 -0.133,-0.189 -0.12,-0.31 l 0.62,-6.66 c 0.04,-0.333 0.207,-0.5 0.5,-0.5 h 6.92 c 0.146,0 0.261,0.04 0.341,0.12 0.079,0.08 0.119,0.193 0.119,0.34 v 0.74 c 0,0.133 -0.043,0.24 -0.13,0.319 -0.087,0.08 -0.196,0.12 -0.33,0.12 h -5.76 l -0.359,4.021 c 0.64,-0.453 1.5,-0.68 2.579,-0.68 0.894,0 1.707,0.177 2.44,0.529 0.733,0.354 1.316,0.87 1.75,1.55 0.434,0.681 0.65,1.487 0.65,2.421 0,0.986 -0.217,1.836 -0.65,2.55 -0.434,0.713 -1.033,1.253 -1.8,1.62 -0.767,0.366 -1.644,0.55 -2.63,0.55 -0.999,10e-4 -1.866,-0.179 -2.599,-0.539 z"
   id="path180" />
					<path
   fill="#00b9d2"
   d="m 626.2,54.772 c -0.793,-1.007 -1.217,-2.323 -1.27,-3.95 l -0.021,-1.721 0.021,-1.779 c 0.04,-1.613 0.463,-2.924 1.27,-3.931 0.807,-1.006 2.063,-1.51 3.771,-1.51 1.72,0 2.982,0.504 3.79,1.51 0.807,1.007 1.229,2.317 1.27,3.931 0.014,0.373 0.021,0.967 0.021,1.779 0,0.787 -0.007,1.36 -0.021,1.721 -0.054,1.627 -0.477,2.943 -1.27,3.95 -0.794,1.007 -2.058,1.51 -3.79,1.51 -1.721,0 -2.978,-0.503 -3.771,-1.51 z m 6.09,-1.17 c 0.521,-0.68 0.794,-1.64 0.82,-2.88 0.013,-0.386 0.021,-0.939 0.021,-1.659 0,-0.733 -0.008,-1.28 -0.021,-1.641 -0.026,-1.227 -0.304,-2.183 -0.83,-2.87 -0.526,-0.687 -1.297,-1.029 -2.31,-1.029 -1.014,0 -1.78,0.343 -2.301,1.029 -0.52,0.688 -0.793,1.644 -0.819,2.87 l -0.021,1.641 0.021,1.659 c 0.026,1.24 0.3,2.2 0.819,2.88 0.521,0.681 1.287,1.021 2.301,1.021 1.027,-10e-4 1.8,-0.341 2.32,-1.021 z"
   id="path182" />
					<path
   fill="#00b9d2"
   d="m 637.481,55.952 c -0.087,-0.087 -0.13,-0.196 -0.13,-0.33 v -1.38 c 0,-0.133 0.043,-0.247 0.13,-0.34 0.086,-0.094 0.196,-0.141 0.33,-0.141 h 1.38 c 0.133,0 0.243,0.047 0.33,0.141 0.086,0.093 0.13,0.207 0.13,0.34 v 1.38 c 0,0.134 -0.044,0.243 -0.13,0.33 -0.087,0.087 -0.197,0.13 -0.33,0.13 h -1.38 c -0.134,0 -0.244,-0.043 -0.33,-0.13 z"
   id="path184" />
					<path
   fill="#00b9d2"
   d="m 643.68,55.952 c -0.073,-0.087 -0.109,-0.19 -0.109,-0.311 0,-0.093 0.026,-0.18 0.079,-0.26 l 3.08,-4.28 c -0.319,0.08 -0.693,0.12 -1.12,0.12 -0.96,-0.013 -1.8,-0.236 -2.52,-0.67 -0.72,-0.433 -1.27,-1 -1.65,-1.7 -0.38,-0.699 -0.569,-1.449 -0.569,-2.25 0,-0.8 0.189,-1.56 0.569,-2.279 0.381,-0.721 0.947,-1.307 1.7,-1.76 0.753,-0.453 1.663,-0.681 2.73,-0.681 1.066,0 1.979,0.22 2.739,0.66 0.761,0.44 1.334,1.017 1.721,1.73 0.387,0.713 0.58,1.477 0.58,2.29 0,0.733 -0.13,1.38 -0.391,1.939 -0.26,0.561 -0.604,1.14 -1.029,1.74 l -3.881,5.439 c -0.093,0.12 -0.183,0.217 -0.27,0.29 -0.087,0.074 -0.21,0.11 -0.37,0.11 h -1 c -0.119,0.003 -0.216,-0.04 -0.289,-0.127 z m 3.771,-6.69 c 0.479,-0.253 0.859,-0.609 1.14,-1.069 0.281,-0.46 0.42,-0.99 0.42,-1.591 0,-0.612 -0.14,-1.152 -0.42,-1.619 -0.28,-0.467 -0.66,-0.827 -1.14,-1.08 -0.48,-0.254 -1.007,-0.38 -1.58,-0.38 -0.561,0 -1.077,0.126 -1.55,0.38 -0.474,0.253 -0.851,0.613 -1.131,1.08 -0.279,0.467 -0.42,1.007 -0.42,1.619 0,0.601 0.141,1.131 0.42,1.591 0.28,0.46 0.653,0.816 1.12,1.069 0.467,0.254 0.987,0.38 1.561,0.38 0.574,0 1.099,-0.126 1.58,-0.38 z"
   id="path186" />
					<path
   fill="#00b9d2"
   d="m 658.459,55.952 c -0.087,-0.087 -0.13,-0.196 -0.13,-0.33 v -9.48 c 0,-0.133 0.043,-0.243 0.13,-0.329 0.087,-0.087 0.196,-0.131 0.33,-0.131 h 0.84 c 0.134,0 0.24,0.044 0.32,0.131 0.08,0.086 0.12,0.196 0.12,0.329 v 0.681 c 0.72,-0.894 1.693,-1.34 2.92,-1.34 1.467,0 2.507,0.613 3.12,1.84 0.319,-0.561 0.776,-1.007 1.37,-1.34 0.593,-0.334 1.256,-0.5 1.989,-0.5 1.094,0 1.987,0.373 2.681,1.119 0.692,0.747 1.04,1.827 1.04,3.24 v 5.78 c 0,0.134 -0.044,0.243 -0.13,0.33 -0.087,0.087 -0.197,0.13 -0.33,0.13 h -0.86 c -0.134,0 -0.243,-0.043 -0.33,-0.13 -0.087,-0.087 -0.13,-0.196 -0.13,-0.33 v -5.6 c 0,-1.067 -0.22,-1.83 -0.66,-2.29 -0.439,-0.46 -1.02,-0.69 -1.74,-0.69 -0.64,0 -1.189,0.237 -1.649,0.71 -0.46,0.474 -0.69,1.23 -0.69,2.271 v 5.6 c 0,0.134 -0.043,0.243 -0.13,0.33 -0.087,0.087 -0.197,0.13 -0.33,0.13 h -0.88 c -0.134,0 -0.243,-0.043 -0.33,-0.13 -0.087,-0.087 -0.13,-0.196 -0.13,-0.33 v -5.6 c 0,-1.054 -0.23,-1.813 -0.69,-2.28 -0.46,-0.467 -1.029,-0.7 -1.71,-0.7 -0.64,0 -1.189,0.233 -1.649,0.7 -0.46,0.467 -0.69,1.22 -0.69,2.26 v 5.62 c 0,0.134 -0.043,0.243 -0.13,0.33 -0.087,0.087 -0.197,0.13 -0.33,0.13 h -0.88 c -0.135,-10e-4 -0.245,-0.044 -0.332,-0.131 z"
   id="path188" />
					<path
   fill="#00b9d2"
   d="m 676.219,55.952 c -0.087,-0.087 -0.13,-0.196 -0.13,-0.33 v -9.48 c 0,-0.133 0.043,-0.243 0.13,-0.329 0.087,-0.087 0.196,-0.131 0.33,-0.131 h 0.84 c 0.134,0 0.24,0.044 0.32,0.131 0.08,0.086 0.12,0.196 0.12,0.329 v 0.681 c 0.72,-0.894 1.693,-1.34 2.92,-1.34 1.467,0 2.507,0.613 3.12,1.84 0.319,-0.561 0.776,-1.007 1.37,-1.34 0.593,-0.334 1.256,-0.5 1.989,-0.5 1.094,0 1.987,0.373 2.681,1.119 0.692,0.747 1.04,1.827 1.04,3.24 v 5.78 c 0,0.134 -0.044,0.243 -0.13,0.33 -0.087,0.087 -0.197,0.13 -0.33,0.13 h -0.86 c -0.134,0 -0.243,-0.043 -0.33,-0.13 -0.087,-0.087 -0.13,-0.196 -0.13,-0.33 v -5.6 c 0,-1.067 -0.22,-1.83 -0.66,-2.29 -0.439,-0.46 -1.02,-0.69 -1.74,-0.69 -0.64,0 -1.189,0.237 -1.649,0.71 -0.46,0.474 -0.69,1.23 -0.69,2.271 v 5.6 c 0,0.134 -0.043,0.243 -0.13,0.33 -0.087,0.087 -0.197,0.13 -0.33,0.13 h -0.88 c -0.134,0 -0.243,-0.043 -0.33,-0.13 -0.087,-0.087 -0.13,-0.196 -0.13,-0.33 v -5.6 c 0,-1.054 -0.23,-1.813 -0.69,-2.28 -0.46,-0.467 -1.029,-0.7 -1.71,-0.7 -0.64,0 -1.189,0.233 -1.649,0.7 -0.46,0.467 -0.69,1.22 -0.69,2.26 v 5.62 c 0,0.134 -0.043,0.243 -0.13,0.33 -0.087,0.087 -0.197,0.13 -0.33,0.13 h -0.88 c -0.135,-10e-4 -0.245,-0.044 -0.332,-0.131 z"
   id="path190" />
				</g>
			</g>
		</g>
		<g
   id="g227">
			<g
   id="POLYLINE_00000067195763424629936100000000417728045171432106_">
				
					<polyline
   fill="none"
   stroke="#00b9d2"
   stroke-width="2"
   stroke-linecap="round"
   stroke-linejoin="round"
   stroke-miterlimit="10"
   points="      776.198,646.655 781.925,640.928 776.198,635.201     "
   id="polyline197" />
			</g>
			<g
   id="POLYLINE_00000083074775311789553980000000842314095239911810_">
				
					<line
   fill="none"
   stroke="#00b9d2"
   stroke-width="2"
   stroke-linecap="round"
   stroke-linejoin="round"
   stroke-miterlimit="10"
   x1="781.00897"
   y1="640.92798"
   x2="746.31897"
   y2="640.92798"
   id="line200" />
			</g>
			<g
   id="POLYLINE_00000163755765143576604400000015623423514568491392_">
				
					<polyline
   fill="none"
   stroke="#00b9d2"
   stroke-width="2"
   stroke-linecap="round"
   stroke-linejoin="round"
   stroke-miterlimit="10"
   points="      752.058,646.644 746.331,640.917 752.058,635.191     "
   id="polyline203" />
			</g>
			<g
   id="MTEXT_00000070101695760739158310000013996503995809832637_"
   opacity="0.98">
				<g
   id="g224">
					<path
   fill="#00b9d2"
   d="m 792.839,647.951 c -0.087,-0.087 -0.13,-0.196 -0.13,-0.33 v -1.38 c 0,-0.133 0.043,-0.247 0.13,-0.34 0.086,-0.094 0.196,-0.141 0.33,-0.141 h 1.38 c 0.133,0 0.243,0.047 0.33,0.141 0.086,0.093 0.13,0.207 0.13,0.34 v 1.38 c 0,0.134 -0.044,0.243 -0.13,0.33 -0.087,0.087 -0.197,0.13 -0.33,0.13 h -1.38 c -0.133,0 -0.244,-0.043 -0.33,-0.13 z"
   id="path206" />
					<path
   fill="#00b9d2"
   d="m 799.569,647.771 c -0.76,-0.341 -1.337,-0.783 -1.729,-1.33 -0.394,-0.547 -0.604,-1.113 -0.63,-1.7 0,-0.12 0.04,-0.217 0.12,-0.29 0.079,-0.073 0.18,-0.11 0.3,-0.11 h 0.899 c 0.146,0 0.267,0.03 0.36,0.09 0.093,0.061 0.167,0.178 0.22,0.351 0.174,0.68 0.55,1.16 1.13,1.439 0.58,0.28 1.264,0.42 2.051,0.42 0.96,0 1.723,-0.229 2.29,-0.689 0.566,-0.46 0.85,-1.116 0.85,-1.97 0,-1.627 -0.993,-2.44 -2.98,-2.44 h -1.88 c -0.133,0 -0.243,-0.043 -0.33,-0.13 -0.087,-0.087 -0.13,-0.196 -0.13,-0.33 v -0.52 c 0,-0.2 0.073,-0.374 0.221,-0.521 l 3.899,-4.32 h -5.92 c -0.134,0 -0.243,-0.04 -0.33,-0.12 -0.087,-0.079 -0.13,-0.187 -0.13,-0.319 v -0.72 c 0,-0.147 0.043,-0.264 0.13,-0.351 0.087,-0.087 0.196,-0.13 0.33,-0.13 h 7.92 c 0.146,0 0.264,0.043 0.351,0.13 0.086,0.087 0.13,0.203 0.13,0.351 v 0.659 c 0,0.147 -0.067,0.301 -0.2,0.46 l -3.9,4.381 h 0.32 c 1.36,0.039 2.437,0.393 3.229,1.06 0.794,0.667 1.19,1.64 1.19,2.92 0,0.88 -0.217,1.637 -0.65,2.271 -0.433,0.633 -1.036,1.119 -1.81,1.46 -0.773,0.34 -1.646,0.51 -2.62,0.51 -1.041,-0.002 -1.94,-0.172 -2.701,-0.512 z"
   id="path208" />
					<path
   fill="#00b9d2"
   d="m 811.529,647.771 c -0.76,-0.341 -1.337,-0.783 -1.729,-1.33 -0.394,-0.547 -0.604,-1.113 -0.63,-1.7 0,-0.12 0.04,-0.217 0.12,-0.29 0.079,-0.073 0.18,-0.11 0.3,-0.11 h 0.899 c 0.146,0 0.267,0.03 0.36,0.09 0.093,0.061 0.167,0.178 0.22,0.351 0.174,0.68 0.55,1.16 1.13,1.439 0.58,0.28 1.264,0.42 2.051,0.42 0.96,0 1.723,-0.229 2.29,-0.689 0.566,-0.46 0.85,-1.116 0.85,-1.97 0,-1.627 -0.993,-2.44 -2.98,-2.44 h -1.88 c -0.133,0 -0.243,-0.043 -0.33,-0.13 -0.087,-0.087 -0.13,-0.196 -0.13,-0.33 v -0.52 c 0,-0.2 0.073,-0.374 0.221,-0.521 l 3.899,-4.32 h -5.92 c -0.134,0 -0.243,-0.04 -0.33,-0.12 -0.087,-0.079 -0.13,-0.187 -0.13,-0.319 v -0.72 c 0,-0.147 0.043,-0.264 0.13,-0.351 0.087,-0.087 0.196,-0.13 0.33,-0.13 h 7.92 c 0.146,0 0.264,0.043 0.351,0.13 0.086,0.087 0.13,0.203 0.13,0.351 v 0.659 c 0,0.147 -0.067,0.301 -0.2,0.46 l -3.9,4.381 h 0.32 c 1.36,0.039 2.437,0.393 3.229,1.06 0.794,0.667 1.19,1.64 1.19,2.92 0,0.88 -0.217,1.637 -0.65,2.271 -0.433,0.633 -1.036,1.119 -1.81,1.46 -0.773,0.34 -1.646,0.51 -2.62,0.51 -1.041,-0.002 -1.94,-0.172 -2.701,-0.512 z"
   id="path210" />
					<path
   fill="#00b9d2"
   d="m 821.75,637.821 -0.341,-3.48 v -0.08 c 0,-0.12 0.037,-0.213 0.11,-0.279 0.073,-0.067 0.17,-0.101 0.29,-0.101 h 1.26 c 0.134,0 0.236,0.044 0.311,0.13 0.073,0.087 0.103,0.197 0.09,0.33 l -0.34,3.48 c -0.027,0.293 -0.16,0.439 -0.4,0.439 h -0.58 c -0.241,10e-4 -0.374,-0.146 -0.4,-0.439 z m 3.059,0 -0.34,-3.48 v -0.04 c 0,-0.133 0.036,-0.236 0.109,-0.31 0.073,-0.074 0.171,-0.11 0.29,-0.11 h 1.261 c 0.133,0 0.236,0.044 0.31,0.13 0.073,0.087 0.104,0.197 0.09,0.33 l -0.34,3.48 c -0.026,0.293 -0.16,0.439 -0.4,0.439 h -0.579 c -0.241,10e-4 -0.375,-0.146 -0.401,-0.439 z"
   id="path212" />
					<path
   fill="#00b9d2"
   d="m 794.979,669.571 c -0.793,-0.341 -1.41,-0.83 -1.85,-1.471 -0.44,-0.64 -0.66,-1.387 -0.66,-2.239 0,-0.787 0.196,-1.477 0.59,-2.07 0.394,-0.593 0.923,-1.05 1.59,-1.37 -0.533,-0.307 -0.946,-0.71 -1.24,-1.21 -0.293,-0.5 -0.439,-1.09 -0.439,-1.771 0,-1.159 0.433,-2.076 1.3,-2.75 0.866,-0.673 2.007,-1.01 3.42,-1.01 1.413,0 2.55,0.334 3.41,1 0.86,0.667 1.29,1.587 1.29,2.76 0,0.667 -0.146,1.25 -0.44,1.75 -0.293,0.5 -0.699,0.91 -1.22,1.23 0.667,0.32 1.196,0.776 1.59,1.37 0.394,0.594 0.59,1.29 0.59,2.09 0,0.854 -0.22,1.597 -0.659,2.23 -0.44,0.633 -1.058,1.119 -1.851,1.46 -0.793,0.34 -1.696,0.51 -2.71,0.51 -1.014,0 -1.918,-0.169 -2.711,-0.509 z m 5.08,-1.77 c 0.633,-0.479 0.95,-1.12 0.95,-1.92 0,-0.8 -0.317,-1.44 -0.95,-1.92 -0.634,-0.48 -1.424,-0.72 -2.37,-0.72 -0.96,0 -1.757,0.239 -2.39,0.72 -0.634,0.479 -0.95,1.12 -0.95,1.92 0,0.8 0.316,1.44 0.95,1.92 0.633,0.48 1.43,0.72 2.39,0.72 0.946,0 1.736,-0.24 2.37,-0.72 z m -0.309,-6.72 c 0.56,-0.4 0.84,-0.934 0.84,-1.601 0,-0.68 -0.277,-1.223 -0.83,-1.63 -0.554,-0.406 -1.243,-0.609 -2.07,-0.609 -0.84,0 -1.533,0.203 -2.08,0.609 -0.547,0.407 -0.819,0.95 -0.819,1.63 0,0.681 0.272,1.224 0.819,1.631 0.547,0.406 1.24,0.609 2.08,0.609 0.812,-0.026 1.499,-0.24 2.06,-0.639 z"
   id="path214" />
					<path
   fill="#00b9d2"
   d="m 805.319,669.751 c -0.087,-0.087 -0.13,-0.196 -0.13,-0.33 v -1.38 c 0,-0.133 0.043,-0.247 0.13,-0.34 0.086,-0.094 0.196,-0.141 0.33,-0.141 h 1.38 c 0.133,0 0.243,0.047 0.33,0.141 0.086,0.093 0.13,0.207 0.13,0.34 v 1.38 c 0,0.134 -0.044,0.243 -0.13,0.33 -0.087,0.087 -0.197,0.13 -0.33,0.13 h -1.38 c -0.134,0 -0.244,-0.043 -0.33,-0.13 z"
   id="path216" />
					<path
   fill="#00b9d2"
   d="m 812.048,669.571 c -0.76,-0.341 -1.337,-0.783 -1.729,-1.33 -0.394,-0.547 -0.604,-1.113 -0.63,-1.7 0,-0.12 0.04,-0.217 0.12,-0.29 0.079,-0.073 0.18,-0.11 0.3,-0.11 h 0.899 c 0.146,0 0.267,0.03 0.36,0.09 0.093,0.061 0.167,0.178 0.22,0.351 0.174,0.68 0.55,1.16 1.13,1.439 0.58,0.28 1.264,0.42 2.051,0.42 0.96,0 1.723,-0.229 2.29,-0.689 0.566,-0.46 0.85,-1.116 0.85,-1.97 0,-1.627 -0.993,-2.44 -2.98,-2.44 h -1.88 c -0.133,0 -0.243,-0.043 -0.33,-0.13 -0.087,-0.087 -0.13,-0.196 -0.13,-0.33 v -0.52 c 0,-0.2 0.073,-0.374 0.221,-0.521 l 3.899,-4.32 h -5.92 c -0.134,0 -0.243,-0.04 -0.33,-0.12 -0.087,-0.079 -0.13,-0.187 -0.13,-0.319 v -0.72 c 0,-0.147 0.043,-0.264 0.13,-0.351 0.087,-0.087 0.196,-0.13 0.33,-0.13 h 7.92 c 0.146,0 0.264,0.043 0.351,0.13 0.086,0.087 0.13,0.203 0.13,0.351 v 0.659 c 0,0.147 -0.067,0.301 -0.2,0.46 l -3.9,4.381 h 0.32 c 1.36,0.039 2.437,0.393 3.229,1.06 0.794,0.667 1.19,1.64 1.19,2.92 0,0.88 -0.217,1.637 -0.65,2.271 -0.433,0.633 -1.036,1.119 -1.81,1.46 -0.773,0.34 -1.646,0.51 -2.62,0.51 -1.041,-0.002 -1.94,-0.172 -2.701,-0.512 z"
   id="path218" />
					<path
   fill="#00b9d2"
   d="m 827.338,669.751 c -0.087,-0.087 -0.13,-0.196 -0.13,-0.33 v -9.48 c 0,-0.133 0.043,-0.243 0.13,-0.329 0.087,-0.087 0.196,-0.131 0.33,-0.131 h 0.84 c 0.134,0 0.24,0.044 0.32,0.131 0.08,0.086 0.12,0.196 0.12,0.329 v 0.681 c 0.72,-0.894 1.693,-1.34 2.92,-1.34 1.467,0 2.507,0.613 3.12,1.84 0.319,-0.561 0.776,-1.007 1.37,-1.34 0.593,-0.334 1.256,-0.5 1.989,-0.5 1.094,0 1.987,0.373 2.681,1.119 0.692,0.747 1.04,1.827 1.04,3.24 v 5.78 c 0,0.134 -0.044,0.243 -0.13,0.33 -0.087,0.087 -0.197,0.13 -0.33,0.13 h -0.86 c -0.134,0 -0.243,-0.043 -0.33,-0.13 -0.087,-0.087 -0.13,-0.196 -0.13,-0.33 v -5.6 c 0,-1.067 -0.22,-1.83 -0.66,-2.29 -0.439,-0.46 -1.02,-0.69 -1.74,-0.69 -0.64,0 -1.189,0.237 -1.649,0.71 -0.46,0.474 -0.69,1.23 -0.69,2.271 v 5.6 c 0,0.134 -0.043,0.243 -0.13,0.33 -0.087,0.087 -0.197,0.13 -0.33,0.13 h -0.88 c -0.134,0 -0.243,-0.043 -0.33,-0.13 -0.087,-0.087 -0.13,-0.196 -0.13,-0.33 v -5.6 c 0,-1.054 -0.23,-1.813 -0.69,-2.28 -0.46,-0.467 -1.029,-0.7 -1.71,-0.7 -0.64,0 -1.189,0.233 -1.649,0.7 -0.46,0.467 -0.69,1.22 -0.69,2.26 v 5.62 c 0,0.134 -0.043,0.243 -0.13,0.33 -0.087,0.087 -0.197,0.13 -0.33,0.13 h -0.88 c -0.135,-10e-4 -0.245,-0.044 -0.332,-0.131 z"
   id="path220" />
					<path
   fill="#00b9d2"
   d="m 845.098,669.751 c -0.087,-0.087 -0.13,-0.196 -0.13,-0.33 v -9.48 c 0,-0.133 0.043,-0.243 0.13,-0.329 0.087,-0.087 0.196,-0.131 0.33,-0.131 h 0.84 c 0.134,0 0.24,0.044 0.32,0.131 0.08,0.086 0.12,0.196 0.12,0.329 v 0.681 c 0.72,-0.894 1.693,-1.34 2.92,-1.34 1.467,0 2.507,0.613 3.12,1.84 0.319,-0.561 0.776,-1.007 1.37,-1.34 0.593,-0.334 1.256,-0.5 1.989,-0.5 1.094,0 1.987,0.373 2.681,1.119 0.692,0.747 1.04,1.827 1.04,3.24 v 5.78 c 0,0.134 -0.044,0.243 -0.13,0.33 -0.087,0.087 -0.197,0.13 -0.33,0.13 h -0.86 c -0.134,0 -0.243,-0.043 -0.33,-0.13 -0.087,-0.087 -0.13,-0.196 -0.13,-0.33 v -5.6 c 0,-1.067 -0.22,-1.83 -0.66,-2.29 -0.439,-0.46 -1.02,-0.69 -1.74,-0.69 -0.64,0 -1.189,0.237 -1.649,0.71 -0.46,0.474 -0.69,1.23 -0.69,2.271 v 5.6 c 0,0.134 -0.043,0.243 -0.13,0.33 -0.087,0.087 -0.197,0.13 -0.33,0.13 h -0.88 c -0.134,0 -0.243,-0.043 -0.33,-0.13 -0.087,-0.087 -0.13,-0.196 -0.13,-0.33 v -5.6 c 0,-1.054 -0.23,-1.813 -0.69,-2.28 -0.46,-0.467 -1.029,-0.7 -1.71,-0.7 -0.64,0 -1.189,0.233 -1.649,0.7 -0.46,0.467 -0.69,1.22 -0.69,2.26 v 5.62 c 0,0.134 -0.043,0.243 -0.13,0.33 -0.087,0.087 -0.197,0.13 -0.33,0.13 h -0.88 c -0.136,-10e-4 -0.245,-0.044 -0.332,-0.131 z"
   id="path222" />
				</g>
			</g>
		</g>
	</g>
</g>



<path
   fill="none"
   stroke="#00b9d2"
   stroke-width="2"
   stroke-linecap="round"
   stroke-linejoin="round"
   stroke-miterlimit="10"
   d="m 243.031,550.67848 c 12.018,0.023 23.523,-5.727 30.716,-15.363 2.325,-3.102 4.185,-6.572 5.476,-10.228 1.112,-3.148 1.816,-6.456 2.077,-9.785 0.072,-0.993 0.122,-2.02 0.118,-3.013 -0.009,-0.856 0.018,-457.474004 -0.009,-458.259004 0,-0.002 -0.012,-0.431 -0.012,-0.431 l -0.017,-0.431 c 0,0 -0.022,-0.432 -0.022,-0.432 0,0 -0.027,-0.434 -0.027,-0.434 -0.101,-1.461 -0.286,-2.967 -0.554,-4.408 -0.625,-3.378 -1.713,-6.69 -3.214,-9.78 -3.92,-8.126 -10.809,-14.765 -19.079,-18.374 -2.98,-1.309 -6.145,-2.246 -9.359,-2.761 -1.296,-0.201 -2.642,-0.359 -3.952,-0.427 -0.383,-0.028 -0.908,-0.037 -1.291,-0.05 0,0 -0.427,-0.007 -0.427,-0.007 0,0 -0.425,-0.002 -0.425,-0.002 0,0 -186.352,0 -186.352,0 0,0 -0.425,0.002 -0.425,0.002 0,0 -0.427,0.007 -0.427,0.007 -2.504,0.057 -5.027,0.36 -7.472,0.904 -11.041,2.428 -20.604,9.787 -25.775,19.843 -2.343,4.528 -3.773,9.536 -4.17,14.619 -0.058,0.851 -0.112,1.737 -0.116,2.588 -0.01,0.705 -10e-4,457.552004 0,458.259004 0.017,1.284 0.095,2.625 0.242,3.902 0.559,4.949 2.1,9.798 4.501,14.162 4.017,7.345 10.516,13.297 18.188,16.65 2.426,1.064 4.984,1.889 7.577,2.431 1.594,0.329 3.242,0.574 4.865,0.699 0.547,0.034 1.185,0.085 1.732,0.097 0.379,0.023 0.901,0.014 1.281,0.021 0,0.001 186.352,0.001 186.352,0.001 z"
   id="path259"
   style="fill:none;stroke:#000000;stroke-opacity:1" /><path
   fill="none"
   stroke="#00b9d2"
   stroke-width="2"
   stroke-linecap="round"
   stroke-linejoin="round"
   stroke-miterlimit="10"
   d="m 163.629,34.769476 c 0.001,-0.522 -0.154,-1.043 -0.441,-1.479 -0.284,-0.436 -0.698,-0.787 -1.174,-0.995 -0.229,-0.101 -0.473,-0.17 -0.721,-0.204 -0.101,-0.014 -0.205,-0.022 -0.307,-0.024 -0.13,-0.004 -22.127,0 -22.26,0 -0.112,0.003 -0.227,0.012 -0.338,0.029 -0.339,0.05 -0.668,0.166 -0.964,0.339 -0.859,0.494 -1.389,1.466 -1.339,2.456 0.035,0.927 0.582,1.807 1.399,2.249 0.289,0.159 0.608,0.265 0.935,0.309 0.101,0.014 0.205,0.022 0.307,0.024 0.148,0 22.145,0.003 22.29,-10e-4 0.102,-0.003 0.207,-0.013 0.308,-0.028 0.248,-0.037 0.493,-0.109 0.721,-0.213 0.474,-0.215 0.884,-0.571 1.162,-1.011 0.274,-0.432 0.422,-0.941 0.422,-1.451 z"
   id="path262"
   style="fill:none;stroke:#000000;stroke-opacity:1" /><path
   fill="none"
   stroke="#00b9d2"
   stroke-width="2"
   stroke-linecap="round"
   stroke-linejoin="round"
   stroke-miterlimit="10"
   d="m 180.235,34.769476 c 0.005,-2.183 -1.68,-4.027 -3.855,-4.218 -2.475,-0.224 -4.617,1.733 -4.616,4.218 -0.001,2.466 2.11,4.417 4.568,4.222 2.196,-0.168 3.908,-2.021 3.903,-4.222 z"
   id="path265"
   style="fill:none;stroke:#000000;stroke-opacity:1" />
<path
   fill="none"
   stroke="#00b9d2"
   stroke-width="2.5"
   stroke-linecap="round"
   stroke-linejoin="round"
   stroke-miterlimit="10"
   d="m 243.031,555.54448 c 13.347,0.026 26.148,-6.27 34.272,-16.866 2.451,-3.185 4.467,-6.729 5.945,-10.466 1.336,-3.379 2.252,-6.945 2.702,-10.55 0.177,-1.453 0.294,-2.949 0.324,-4.412 0.457,-0.271 -0.307,-457.851004 0.012,-458.368004 -10e-4,-10e-4 -0.004,-0.479 -0.004,-0.479 0,0 -0.008,-0.481 -0.008,-0.481 0,0 -0.013,-0.483 -0.013,-0.483 -0.052,-1.459 -0.176,-2.979 -0.376,-4.426 -0.422,-3.077 -1.183,-6.136 -2.255,-9.052 -3.801,-10.422 -11.712,-19.17 -21.708,-23.99 -3.329,-1.615 -6.887,-2.81 -10.518,-3.525 -1.631,-0.315 -3.322,-0.559 -4.979,-0.685 -0.781,-0.068 -1.652,-0.1 -2.434,-0.123 0,0 -0.481,-0.008 -0.481,-0.008 0,0 -0.479,-0.003 -0.479,-0.003 0,0 -186.352,0 -186.352,0 -2.799,10e-4 -5.626,0.275 -8.373,0.818 -10.963,2.136 -20.884,8.64 -27.211,17.846 -3.163,4.575 -5.437,9.779 -6.64,15.21 -0.54,2.442 -0.876,4.954 -0.986,7.451 -0.037,0.596 -0.036,1.33 -0.043,1.928 0,0 0,457.409004 0,457.409004 0,0 0.003,0.479 0.003,0.479 0,0 0.008,0.481 0.008,0.481 0,0 0.013,0.483 0.013,0.483 0.038,0.945 0.097,1.994 0.198,2.937 0.241,2.357 0.681,4.731 1.306,7.017 3.037,11.22 10.686,20.933 20.892,26.509 3.127,1.716 6.488,3.057 9.94,3.954 2.126,0.549 4.327,0.952 6.512,1.172 0.956,0.081 1.978,0.177 2.937,0.198 0.436,-0.003 1.009,0.036 1.443,0.024 0.001,10e-4 186.353,10e-4 186.353,10e-4 z"
   id="path353"
   style="fill:none;stroke:#000000;stroke-opacity:1" /><path
   fill="none"
   stroke="#00b9d2"
   stroke-width="2.5"
   stroke-linecap="round"
   stroke-linejoin="round"
   stroke-miterlimit="10"
   d="m 197.983,49.655476 c -25.207,-0.081 -73.379,0.158 -98.563,-0.087 -1.253,-0.1 -2.518,-0.286 -3.737,-0.595 -1.56,-0.394 -3.083,-0.996 -4.447,-1.855 -1.834,-1.143 -3.351,-2.777 -4.391,-4.669 -1.2,-2.163 -1.825,-4.607 -2.116,-7.051 -0.069,-0.493 -0.183,-0.999 -0.357,-1.467 -0.223,-0.6 -0.565,-1.166 -1.062,-1.577 -0.47,-0.391 -1.068,-0.618 -1.674,-0.688 -0.152,-0.016 -0.312,-0.031 -0.466,-0.032 -0.089,-0.003 -24.393,0 -24.49,-10e-4 -0.594,0.006 -1.231,0.021 -1.824,0.072 -2.11,0.166 -4.209,0.625 -6.196,1.355 -5.875,2.138 -10.764,6.729 -13.262,12.462 -0.756,1.722 -1.308,3.546 -1.627,5.399 -0.133,0.789 -0.236,1.602 -0.287,2.4 -0.035,0.412 -0.041,0.889 -0.051,1.303 -0.096,0.329 0.065,457.561004 0,457.924004 0.016,1.325 0.145,2.67 0.387,3.973 0.221,1.186 0.538,2.382 0.942,3.52 1.281,3.633 3.488,6.941 6.352,9.518 3.7,3.348 8.506,5.45 13.478,5.887 0.597,0.06 1.232,0.082 1.832,0.093 1.392,0.015 185.971,0.008 187.384,-0.011 1.152,-0.041 2.322,-0.164 3.455,-0.375 4.197,-0.772 8.171,-2.731 11.336,-5.593 2.864,-2.578 5.072,-5.883 6.352,-9.518 0.432,-1.23 0.769,-2.505 0.99,-3.79 0.209,-1.221 0.326,-2.466 0.338,-3.703 0.096,-0.203 -0.065,-457.651004 0,-457.923004 -0.012,-0.409 -0.018,-0.894 -0.051,-1.304 -0.056,-0.792 -0.15,-1.617 -0.287,-2.4 -0.321,-1.852 -0.87,-3.678 -1.627,-5.399 -1.277,-2.906 -3.161,-5.551 -5.493,-7.706 -2.311,-2.14 -5.068,-3.806 -8.039,-4.854 -1.906,-0.673 -3.91,-1.101 -5.926,-1.258 -0.425,-0.022 -0.884,-0.065 -1.309,-0.066 0,0 -0.259,-0.004 -0.259,-0.004 0,0 -0.257,-0.001 -0.257,-0.001 0,0 -24.393,0 -24.393,0 -0.218,0.002 -0.437,0.012 -0.652,0.045 -0.588,0.082 -1.163,0.312 -1.615,0.702 -0.875,0.748 -1.229,1.915 -1.388,3.018 -1.166,9.931 -7.307,14.267 -17,14.256 z"
   id="path356"
   style="fill:none;stroke:#000000;stroke-opacity:1" /><rect
   x="286.285"
   y="135.41948"
   fill="none"
   stroke="#00b9d2"
   stroke-width="2.5"
   stroke-linecap="round"
   stroke-linejoin="round"
   stroke-miterlimit="10"
   width="1.802"
   height="59.473999"
   id="rect359"
   style="fill:none;stroke:#000000;stroke-opacity:1" /><rect
   x="11.623001"
   y="169.90347"
   fill="none"
   stroke="#00b9d2"
   stroke-width="2.5"
   stroke-linecap="round"
   stroke-linejoin="round"
   stroke-miterlimit="10"
   width="1.802"
   height="37.306"
   id="rect362"
   style="fill:none;stroke:#000000;stroke-opacity:1" /><rect
   x="11.623001"
   y="123.04547"
   fill="none"
   stroke="#00b9d2"
   stroke-width="2.5"
   stroke-linecap="round"
   stroke-linejoin="round"
   stroke-miterlimit="10"
   width="1.802"
   height="37.306"
   id="rect365"
   style="fill:none;stroke:#000000;stroke-opacity:1" /><rect
   x="11.623001"
   y="85.492477"
   fill="none"
   stroke="#00b9d2"
   stroke-width="2.5"
   stroke-linecap="round"
   stroke-linejoin="round"
   stroke-miterlimit="10"
   width="1.802"
   height="19.825001"
   id="rect368"
   style="fill:none;stroke:#000000;stroke-opacity:1" />
<path
   fill="none"
   stroke="#00b9d2"
   stroke-width="3.25"
   stroke-linecap="round"
   stroke-linejoin="round"
   stroke-miterlimit="10"
   d="m 13.426,85.492476 v -30.611 c 0,0 0.003,-0.479 0.003,-0.479 0.018,-0.433 0.012,-1.017 0.04,-1.449 0,0 0.024,-0.487 0.024,-0.487 0.122,-2.159 0.409,-4.344 0.853,-6.461 1.7,-8.17 5.838,-15.817 11.748,-21.709 6.253,-6.275 14.484,-10.543 23.216,-12.036 1.625,-0.28 3.307,-0.473 4.954,-0.565 0.781,-0.042 1.635,-0.068 2.415,-0.067 1.742,0.01 185.626,-0.02 187.311,0.011 0.948,0.022 1.983,0.079 2.927,0.164 4.652,0.419 9.251,1.604 13.527,3.485 6.092,2.674 11.557,6.786 15.812,11.9 3.502,4.198 6.203,9.082 7.896,14.28 0.744,2.286 1.308,4.668 1.661,7.046 0.213,1.454 0.365,2.972 0.428,4.44 0.05,7.312 0.055,73.528004 0.043,82.466004 h 1.802 v 59.474 h -1.802 c -0.003,0.481 0.005,317.433 -0.003,317.875 -0.017,0.434 -0.013,1.019 -0.04,1.451 -0.082,1.81 -0.28,3.656 -0.589,5.441 -0.998,5.791 -3.2,11.383 -6.418,16.3 -4.644,7.128 -11.451,12.824 -19.286,16.139 -3.981,1.692 -8.234,2.786 -12.537,3.223 -1.28,0.129 -2.615,0.206 -3.901,0.22 -1.032,0.021 -186.254,-0.006 -187.309,0 -0.772,-0.01 -1.653,-0.042 -2.425,-0.095 -4.272,-0.287 -8.518,-1.218 -12.518,-2.745 -8.458,-3.209 -15.846,-9.161 -20.781,-16.742 -2.747,-4.2 -4.761,-8.898 -5.906,-13.785 -0.458,-1.96 -0.79,-3.992 -0.969,-5.997 -0.347,-2.86 -0.104,-11.393 -0.175,-14.35 0,0 0,-294.617 0,-294.617 h -1.802 v -37.306 h 1.802 v -9.552 h -1.802 v -37.306 h 1.802 v -17.728 H 11.625 V 85.492476 c -0.002,0 1.801,0 1.801,0 z"
   id="path504"
   style="fill:none;stroke:#000000;stroke-opacity:1" />
</svg>
