<?xml version="1.0" encoding="UTF-8" standalone="no"?>
<svg
   xmlns:ns="&amp;#38;#38;ns_sfw;"
   xmlns:dc="http://purl.org/dc/elements/1.1/"
   xmlns:cc="http://creativecommons.org/ns#"
   xmlns:rdf="http://www.w3.org/1999/02/22-rdf-syntax-ns#"
   xmlns:svg="http://www.w3.org/2000/svg"
   xmlns="http://www.w3.org/2000/svg"
   xmlns:sodipodi="http://sodipodi.sourceforge.net/DTD/sodipodi-0.dtd"
   xmlns:inkscape="http://www.inkscape.org/namespaces/inkscape"
   version="1.1"
   x="0px"
   y="0px"
   width="273.689"
   height="544.8963"
   viewBox="0 0 273.689 544.8963"
   enable-background="new 0 0 1000 700"
   xml:space="preserve"
   id="svg568"
   sodipodi:docname="11_pro_max_ns.svg"
   inkscape:version="1.0.1 (3bc2e813f5, 2020-09-07)"><defs
   id="defs572">
	
	
	
	
	
	

	
	
	
	
	
	
	
	
	
	
	
	
	
	
	
	
	
	
	
	
	
	
	
	
	
	
	
	
	
	
	
	
	
	
	
	
	
	
	
	

	
	
	
	
	
	
	
	
	
	
	
	
	
	
	
	
	
	
	
	
	
	
	
	
	
	
	
	
	
	
	
	
	
	
	
	
	
	
	
	
	
	
	
	
	
	
	
	
	
	
	
	
	
	
	
	
	
	
	
	
	
	
	
	





		
			
	
		
			
	
		
			
	
		
			
	
		
			
	
		
			
	
		
			
	
		
			
	
		
			
	
		
			
	
		
			
	
		
			
	
		
			
	
		
			
	
		
			
	
		
			
	
		
			
	
		
			
	
		
			
	
		
			
	
		
			
	
		
			
	
		
			
	
		
			
	
		
			
	
		
			
	
		
			
	
		
			
	
		
			
	
		
			
	
		
			
	
		
			
	
		
			
	
		
			
	
		
			
	
		
			
	
		
			
	
		
			
	
		
			
	
		
			
	
		
			
	
		
			
	
		
			
	
		
			
	
		
			
	
		
			
	
		
	
		
	
		
	
		
	
		
	
		
	
		
	
		
	
		
	
		
	
		
	
		
	
		
	
		
			
	
		
			
	
		
			
	
		
			
	
		
			
	
		
			
	
		
	
		
	
		
			
	
		
			
	
		
			
	
		
			
	
		
			
	
		
			
	
		
			
	
		
			
	
		
			
	
		
			
	
		
	
		
	
		
	
		
	
		
			
	
		
			
	
		
			
	
		
			
	
		
			
	
		
			
	
		
			
	
		
			
	
		
			
	
		
			
	
		
			
	
		
			
	
		
			
	
		
			
	
		
			
	
		
			
	
		
			
	
		
			
	
		
			
	
		
			
	
		
			
	
		
			
	
		
			
	
		
			
	
		
	
		
	
		
	
		
	
		
	</defs><sodipodi:namedview
   pagecolor="#ffffff"
   bordercolor="#666666"
   borderopacity="1"
   objecttolerance="10"
   gridtolerance="10"
   guidetolerance="10"
   inkscape:pageopacity="0"
   inkscape:pageshadow="2"
   inkscape:window-width="1920"
   inkscape:window-height="1001"
   id="namedview570"
   showgrid="false"
   inkscape:zoom="1.6829141"
   inkscape:cx="139.81232"
   inkscape:cy="323.12768"
   inkscape:window-x="-9"
   inkscape:window-y="-9"
   inkscape:window-maximized="1"
   inkscape:current-layer="svg568"
   inkscape:document-rotation="0" />
<metadata
   id="metadata2">
	<ns:sfw>
		<ns:slices />
		<ns:sliceSourceBounds
   bottomLeftOrigin="true"
   height="6346.65"
   width="6061.483"
   x="-1952.96"
   y="2781.216" />
	</ns:sfw>
<rdf:RDF><cc:Work
     rdf:about=""><dc:format>image/svg+xml</dc:format><dc:type
       rdf:resource="http://purl.org/dc/dcmitype/StillImage" /><dc:title></dc:title></cc:Work></rdf:RDF></metadata>

<g
   id="N-DIMENSIONS"
   display="none"
   transform="translate(-58.446,-66.475669)">
	<g
   display="inline"
   id="g229">
		<g
   id="g40">
			<g
   id="MTEXT_00000133505063558493864440000000947186268820934800_">
				<g
   id="g25">
					<g
   id="g23">
						<path
   fill="#00b9d2"
   d="m 196.239,314.691 c -0.78,-0.433 -1.374,-1.017 -1.78,-1.75 -0.406,-0.733 -0.609,-1.533 -0.609,-2.399 0,-1.146 0.46,-2.373 1.38,-3.681 l 3.819,-5.319 c 0.014,-0.014 0.051,-0.061 0.11,-0.141 0.059,-0.08 0.137,-0.143 0.229,-0.189 0.094,-0.047 0.2,-0.07 0.32,-0.07 h 0.98 c 0.12,0 0.216,0.043 0.29,0.13 0.073,0.087 0.109,0.19 0.109,0.311 0,0.066 -0.033,0.153 -0.1,0.26 l -2.92,4.08 c 0.347,-0.08 0.733,-0.12 1.16,-0.12 0.973,0 1.83,0.217 2.569,0.649 0.74,0.434 1.313,1.007 1.721,1.721 0.406,0.713 0.609,1.497 0.609,2.35 0,0.854 -0.203,1.65 -0.609,2.39 -0.407,0.74 -0.997,1.33 -1.771,1.771 -0.774,0.441 -1.687,0.66 -2.74,0.66 -1.064,-0.002 -1.987,-0.219 -2.767,-0.653 z m 4.37,-1.37 c 0.493,-0.239 0.887,-0.597 1.18,-1.069 0.293,-0.474 0.44,-1.044 0.44,-1.71 0,-0.653 -0.15,-1.217 -0.45,-1.69 -0.3,-0.473 -0.697,-0.833 -1.19,-1.08 -0.493,-0.246 -1.026,-0.37 -1.6,-0.37 -0.574,0 -1.107,0.124 -1.601,0.37 -0.493,0.247 -0.887,0.607 -1.18,1.08 -0.293,0.474 -0.439,1.037 -0.439,1.69 0,0.666 0.146,1.236 0.439,1.71 0.293,0.473 0.687,0.83 1.18,1.069 0.493,0.24 1.027,0.36 1.601,0.36 0.587,0.001 1.126,-0.119 1.62,-0.36 z"
   id="path5" />
						<path
   fill="#00b9d2"
   d="m 206.359,315.012 c -0.087,-0.087 -0.13,-0.196 -0.13,-0.33 v -1.38 c 0,-0.133 0.043,-0.247 0.13,-0.34 0.086,-0.094 0.196,-0.141 0.33,-0.141 h 1.38 c 0.133,0 0.243,0.047 0.33,0.141 0.086,0.093 0.13,0.207 0.13,0.34 v 1.38 c 0,0.134 -0.044,0.243 -0.13,0.33 -0.087,0.087 -0.197,0.13 -0.33,0.13 h -1.38 c -0.134,0 -0.244,-0.043 -0.33,-0.13 z"
   id="path7" />
						<path
   fill="#00b9d2"
   d="m 213.088,314.802 c -0.733,-0.36 -1.293,-0.83 -1.68,-1.41 -0.387,-0.58 -0.594,-1.203 -0.62,-1.87 v -0.04 c 0,-0.106 0.04,-0.193 0.12,-0.26 0.08,-0.067 0.173,-0.1 0.28,-0.1 h 0.979 c 0.28,0 0.46,0.146 0.54,0.439 0.2,0.72 0.57,1.257 1.11,1.61 0.54,0.353 1.163,0.529 1.87,0.529 0.906,0 1.66,-0.276 2.26,-0.829 0.6,-0.554 0.9,-1.317 0.9,-2.29 0,-0.894 -0.301,-1.604 -0.9,-2.131 -0.6,-0.526 -1.354,-0.79 -2.26,-0.79 -0.48,0 -0.867,0.061 -1.16,0.181 -0.294,0.12 -0.594,0.293 -0.9,0.52 -0.173,0.134 -0.316,0.23 -0.43,0.29 -0.113,0.061 -0.237,0.09 -0.37,0.09 h -0.96 c -0.12,0 -0.227,-0.043 -0.32,-0.13 -0.093,-0.086 -0.133,-0.189 -0.12,-0.31 l 0.62,-6.66 c 0.04,-0.333 0.207,-0.5 0.5,-0.5 h 6.92 c 0.146,0 0.261,0.04 0.341,0.12 0.079,0.08 0.119,0.193 0.119,0.34 v 0.74 c 0,0.133 -0.043,0.24 -0.13,0.319 -0.087,0.08 -0.196,0.12 -0.33,0.12 h -5.76 l -0.359,4.021 c 0.64,-0.453 1.5,-0.68 2.579,-0.68 0.894,0 1.707,0.177 2.44,0.529 0.733,0.354 1.316,0.87 1.75,1.55 0.434,0.681 0.65,1.487 0.65,2.421 0,0.986 -0.217,1.836 -0.65,2.55 -0.434,0.713 -1.033,1.253 -1.8,1.62 -0.767,0.366 -1.644,0.55 -2.63,0.55 -0.998,10e-4 -1.865,-0.18 -2.599,-0.539 z"
   id="path9" />
						<path
   fill="#00b9d2"
   d="m 222.918,304.622 c -0.06,-0.08 -0.077,-0.181 -0.05,-0.301 l 0.439,-2.8 c 0.054,-0.387 0.24,-0.58 0.561,-0.58 h 1.28 c 0.093,0 0.17,0.033 0.229,0.101 0.061,0.066 0.09,0.146 0.09,0.239 0,0.134 -0.02,0.24 -0.06,0.32 l -1.04,2.7 c -0.067,0.146 -0.141,0.257 -0.22,0.33 -0.08,0.073 -0.2,0.109 -0.36,0.109 h -0.62 c -0.105,10e-4 -0.189,-0.039 -0.249,-0.118 z m 3.14,0 c -0.06,-0.08 -0.076,-0.181 -0.05,-0.301 l 0.44,-2.8 c 0.053,-0.387 0.24,-0.58 0.56,-0.58 h 1.28 c 0.093,0 0.17,0.033 0.229,0.101 0.061,0.066 0.091,0.146 0.091,0.239 0,0.134 -0.021,0.24 -0.061,0.32 l -1.04,2.7 c -0.066,0.146 -0.14,0.257 -0.22,0.33 -0.08,0.073 -0.2,0.109 -0.36,0.109 h -0.62 c -0.105,10e-4 -0.188,-0.039 -0.249,-0.118 z"
   id="path11" />
						<path
   fill="#00b9d2"
   d="m 161.29,335.012 c -0.08,-0.087 -0.12,-0.196 -0.12,-0.33 v -11.28 l -3.36,2.58 c -0.093,0.08 -0.193,0.12 -0.3,0.12 -0.12,0 -0.233,-0.066 -0.34,-0.2 l -0.48,-0.62 c -0.066,-0.093 -0.1,-0.187 -0.1,-0.279 0,-0.146 0.066,-0.267 0.2,-0.36 l 4.34,-3.36 c 0.146,-0.093 0.32,-0.14 0.52,-0.14 h 0.94 c 0.133,0 0.243,0.043 0.33,0.13 0.087,0.087 0.13,0.197 0.13,0.33 v 13.08 c 0,0.134 -0.043,0.243 -0.13,0.33 -0.087,0.087 -0.197,0.13 -0.33,0.13 h -0.98 c -0.134,-10e-4 -0.24,-0.044 -0.32,-0.131 z"
   id="path13" />
						<path
   fill="#00b9d2"
   d="m 167.959,334.691 c -0.78,-0.433 -1.374,-1.017 -1.78,-1.75 -0.406,-0.733 -0.609,-1.533 -0.609,-2.399 0,-1.146 0.46,-2.373 1.38,-3.681 l 3.819,-5.319 c 0.014,-0.014 0.051,-0.061 0.11,-0.141 0.059,-0.08 0.137,-0.143 0.229,-0.189 0.094,-0.047 0.2,-0.07 0.32,-0.07 h 0.98 c 0.12,0 0.216,0.043 0.29,0.13 0.073,0.087 0.109,0.19 0.109,0.311 0,0.066 -0.033,0.153 -0.1,0.26 l -2.92,4.08 c 0.347,-0.08 0.733,-0.12 1.16,-0.12 0.973,0 1.83,0.217 2.569,0.649 0.74,0.434 1.313,1.007 1.721,1.721 0.406,0.713 0.609,1.497 0.609,2.35 0,0.854 -0.203,1.65 -0.609,2.39 -0.407,0.74 -0.997,1.33 -1.771,1.771 -0.774,0.441 -1.687,0.66 -2.74,0.66 -1.063,-0.002 -1.986,-0.219 -2.767,-0.653 z m 4.371,-1.37 c 0.493,-0.239 0.887,-0.597 1.18,-1.069 0.293,-0.474 0.44,-1.044 0.44,-1.71 0,-0.653 -0.15,-1.217 -0.45,-1.69 -0.3,-0.473 -0.697,-0.833 -1.19,-1.08 -0.493,-0.246 -1.026,-0.37 -1.6,-0.37 -0.574,0 -1.107,0.124 -1.601,0.37 -0.493,0.247 -0.887,0.607 -1.18,1.08 -0.293,0.474 -0.439,1.037 -0.439,1.69 0,0.666 0.146,1.236 0.439,1.71 0.293,0.473 0.687,0.83 1.18,1.069 0.493,0.24 1.027,0.36 1.601,0.36 0.586,0.001 1.125,-0.119 1.62,-0.36 z"
   id="path15" />
						<path
   fill="#00b9d2"
   d="m 184.299,335.012 c -0.087,-0.087 -0.13,-0.196 -0.13,-0.33 v -2.92 h -6.5 c -0.134,0 -0.243,-0.043 -0.33,-0.13 -0.087,-0.087 -0.13,-0.197 -0.13,-0.33 v -0.74 c 0,-0.187 0.073,-0.387 0.22,-0.6 l 6.021,-8.48 c 0.066,-0.106 0.166,-0.189 0.3,-0.25 0.133,-0.06 0.28,-0.09 0.439,-0.09 h 1.36 c 0.146,0 0.26,0.04 0.34,0.12 0.08,0.08 0.12,0.193 0.12,0.34 v 8.48 h 1.82 c 0.133,0 0.243,0.043 0.33,0.13 0.086,0.087 0.13,0.196 0.13,0.33 v 0.76 c 0,0.133 -0.044,0.243 -0.13,0.33 -0.087,0.087 -0.197,0.13 -0.33,0.13 h -1.82 v 2.92 c 0,0.134 -0.043,0.243 -0.13,0.33 -0.087,0.087 -0.197,0.13 -0.33,0.13 h -0.92 c -0.133,0 -0.243,-0.043 -0.33,-0.13 z m -5.009,-4.89 h 4.899 v -6.961 z"
   id="path17" />
						<path
   fill="#00b9d2"
   d="m 195.499,335.012 c -0.087,-0.087 -0.13,-0.196 -0.13,-0.33 v -9.48 c 0,-0.133 0.043,-0.243 0.13,-0.329 0.087,-0.087 0.196,-0.131 0.33,-0.131 h 0.84 c 0.134,0 0.24,0.044 0.32,0.131 0.08,0.086 0.12,0.196 0.12,0.329 v 0.681 c 0.72,-0.894 1.693,-1.34 2.92,-1.34 1.467,0 2.507,0.613 3.12,1.84 0.319,-0.561 0.776,-1.007 1.37,-1.34 0.593,-0.334 1.256,-0.5 1.989,-0.5 1.094,0 1.987,0.373 2.681,1.119 0.692,0.747 1.04,1.827 1.04,3.24 v 5.78 c 0,0.134 -0.044,0.243 -0.13,0.33 -0.087,0.087 -0.197,0.13 -0.33,0.13 h -0.86 c -0.134,0 -0.243,-0.043 -0.33,-0.13 -0.087,-0.087 -0.13,-0.196 -0.13,-0.33 v -5.6 c 0,-1.067 -0.22,-1.83 -0.66,-2.29 -0.439,-0.46 -1.02,-0.69 -1.74,-0.69 -0.64,0 -1.189,0.237 -1.649,0.71 -0.46,0.474 -0.69,1.23 -0.69,2.271 v 5.6 c 0,0.134 -0.043,0.243 -0.13,0.33 -0.087,0.087 -0.197,0.13 -0.33,0.13 h -0.88 c -0.134,0 -0.243,-0.043 -0.33,-0.13 -0.087,-0.087 -0.13,-0.196 -0.13,-0.33 v -5.6 c 0,-1.054 -0.23,-1.813 -0.69,-2.28 -0.46,-0.467 -1.029,-0.7 -1.71,-0.7 -0.64,0 -1.189,0.233 -1.649,0.7 -0.46,0.467 -0.69,1.22 -0.69,2.26 v 5.62 c 0,0.134 -0.043,0.243 -0.13,0.33 -0.087,0.087 -0.197,0.13 -0.33,0.13 h -0.88 c -0.136,-10e-4 -0.246,-0.044 -0.332,-0.131 z"
   id="path19" />
						<path
   fill="#00b9d2"
   d="m 213.258,335.012 c -0.087,-0.087 -0.13,-0.196 -0.13,-0.33 v -9.48 c 0,-0.133 0.043,-0.243 0.13,-0.329 0.087,-0.087 0.196,-0.131 0.33,-0.131 h 0.84 c 0.134,0 0.24,0.044 0.32,0.131 0.08,0.086 0.12,0.196 0.12,0.329 v 0.681 c 0.72,-0.894 1.693,-1.34 2.92,-1.34 1.467,0 2.507,0.613 3.12,1.84 0.319,-0.561 0.776,-1.007 1.37,-1.34 0.593,-0.334 1.256,-0.5 1.989,-0.5 1.094,0 1.987,0.373 2.681,1.119 0.692,0.747 1.04,1.827 1.04,3.24 v 5.78 c 0,0.134 -0.044,0.243 -0.13,0.33 -0.087,0.087 -0.197,0.13 -0.33,0.13 h -0.86 c -0.134,0 -0.243,-0.043 -0.33,-0.13 -0.087,-0.087 -0.13,-0.196 -0.13,-0.33 v -5.6 c 0,-1.067 -0.22,-1.83 -0.66,-2.29 -0.439,-0.46 -1.02,-0.69 -1.74,-0.69 -0.64,0 -1.189,0.237 -1.649,0.71 -0.46,0.474 -0.69,1.23 -0.69,2.271 v 5.6 c 0,0.134 -0.043,0.243 -0.13,0.33 -0.087,0.087 -0.197,0.13 -0.33,0.13 h -0.88 c -0.134,0 -0.243,-0.043 -0.33,-0.13 -0.087,-0.087 -0.13,-0.196 -0.13,-0.33 v -5.6 c 0,-1.054 -0.23,-1.813 -0.69,-2.28 -0.46,-0.467 -1.029,-0.7 -1.71,-0.7 -0.64,0 -1.189,0.233 -1.649,0.7 -0.46,0.467 -0.69,1.22 -0.69,2.26 v 5.62 c 0,0.134 -0.043,0.243 -0.13,0.33 -0.087,0.087 -0.197,0.13 -0.33,0.13 h -0.88 c -0.135,-10e-4 -0.245,-0.044 -0.332,-0.131 z"
   id="path21" />
					</g>
				</g>
			</g>
			<g
   id="POLYLINE_00000152261297451994231460000016965781350474040225_">
				
					<line
   fill="none"
   stroke="#00b9d2"
   stroke-width="2"
   stroke-linecap="round"
   stroke-linejoin="round"
   stroke-miterlimit="10"
   x1="91.745003"
   y1="582.05298"
   x2="196.89301"
   y2="348.57999"
   id="line28" />
			</g>
			<g
   id="POLYLINE_00000023243914243913097070000004659340422389091497_">
				
					<line
   fill="none"
   stroke="#00b9d2"
   stroke-width="2"
   stroke-linecap="round"
   stroke-linejoin="round"
   stroke-miterlimit="10"
   x1="221.218"
   y1="290.91299"
   x2="299.16501"
   y2="97.528"
   id="line31" />
			</g>
			<g
   id="POLYLINE_00000072248440880701486560000004745877981217307791_">
				
					<polyline
   fill="none"
   stroke="#00b9d2"
   stroke-width="2"
   stroke-linecap="round"
   stroke-linejoin="round"
   stroke-miterlimit="10"
   points="      88.923,574.461 91.745,582.053 99.337,579.231     "
   id="polyline34" />
			</g>
			<g
   id="POLYLINE_00000056426672749354630520000008160371087531129987_">
				
					<polyline
   fill="none"
   stroke="#00b9d2"
   stroke-width="2"
   stroke-linecap="round"
   stroke-linejoin="round"
   stroke-miterlimit="10"
   points="      301.987,105.12 299.165,97.528 291.573,100.35     "
   id="polyline37" />
			</g>
		</g>
		<g
   id="MTEXT_00000038413367837111197850000005736479229884807051_">
			<g
   id="g54">
				<path
   fill="#00b9d2"
   d="m 106.958,132.728 c -0.087,-0.087 -0.13,-0.196 -0.13,-0.33 v -2.92 h -6.5 c -0.134,0 -0.243,-0.043 -0.33,-0.13 -0.087,-0.087 -0.13,-0.197 -0.13,-0.33 v -0.74 c 0,-0.187 0.073,-0.387 0.22,-0.6 l 6.021,-8.48 c 0.066,-0.106 0.166,-0.189 0.3,-0.25 0.133,-0.06 0.28,-0.09 0.439,-0.09 h 1.36 c 0.146,0 0.26,0.04 0.34,0.12 0.08,0.08 0.12,0.193 0.12,0.34 v 8.48 h 1.82 c 0.133,0 0.243,0.043 0.33,0.13 0.086,0.087 0.13,0.196 0.13,0.33 v 0.76 c 0,0.133 -0.044,0.243 -0.13,0.33 -0.087,0.087 -0.197,0.13 -0.33,0.13 h -1.82 v 2.92 c 0,0.134 -0.043,0.243 -0.13,0.33 -0.087,0.087 -0.197,0.13 -0.33,0.13 h -0.92 c -0.134,-0.001 -0.244,-0.044 -0.33,-0.13 z m -5.01,-4.89 h 4.899 v -6.961 z"
   id="path42" />
				<path
   fill="#00b9d2"
   d="m 114.828,132.518 c -0.733,-0.36 -1.293,-0.83 -1.68,-1.41 -0.387,-0.58 -0.594,-1.203 -0.62,-1.87 v -0.04 c 0,-0.106 0.04,-0.193 0.12,-0.26 0.08,-0.067 0.173,-0.1 0.28,-0.1 h 0.979 c 0.28,0 0.46,0.146 0.54,0.439 0.2,0.72 0.57,1.257 1.11,1.61 0.54,0.353 1.163,0.529 1.87,0.529 0.906,0 1.66,-0.276 2.26,-0.829 0.6,-0.554 0.9,-1.317 0.9,-2.29 0,-0.894 -0.301,-1.604 -0.9,-2.131 -0.6,-0.526 -1.354,-0.79 -2.26,-0.79 -0.48,0 -0.867,0.061 -1.16,0.181 -0.294,0.12 -0.594,0.293 -0.9,0.52 -0.173,0.134 -0.316,0.23 -0.43,0.29 -0.113,0.061 -0.237,0.09 -0.37,0.09 h -0.96 c -0.12,0 -0.227,-0.043 -0.32,-0.13 -0.093,-0.086 -0.133,-0.189 -0.12,-0.31 l 0.62,-6.66 c 0.04,-0.333 0.207,-0.5 0.5,-0.5 h 6.92 c 0.146,0 0.261,0.04 0.341,0.12 0.079,0.08 0.119,0.193 0.119,0.34 v 0.74 c 0,0.133 -0.043,0.24 -0.13,0.319 -0.087,0.08 -0.196,0.12 -0.33,0.12 h -5.76 l -0.359,4.021 c 0.64,-0.453 1.5,-0.68 2.579,-0.68 0.894,0 1.707,0.177 2.44,0.529 0.733,0.354 1.316,0.87 1.75,1.55 0.434,0.681 0.65,1.487 0.65,2.421 0,0.986 -0.217,1.836 -0.65,2.55 -0.434,0.713 -1.033,1.253 -1.8,1.62 -0.767,0.366 -1.644,0.55 -2.63,0.55 -0.999,0.001 -1.866,-0.18 -2.599,-0.539 z"
   id="path44" />
				<path
   fill="#00b9d2"
   d="m 127.078,132.548 c -0.793,-0.341 -1.41,-0.83 -1.85,-1.471 -0.44,-0.64 -0.66,-1.387 -0.66,-2.239 0,-0.787 0.196,-1.477 0.59,-2.07 0.394,-0.593 0.923,-1.05 1.59,-1.37 -0.533,-0.307 -0.946,-0.71 -1.24,-1.21 -0.293,-0.5 -0.439,-1.09 -0.439,-1.771 0,-1.159 0.433,-2.076 1.3,-2.75 0.866,-0.673 2.007,-1.01 3.42,-1.01 1.413,0 2.55,0.334 3.41,1 0.86,0.667 1.29,1.587 1.29,2.76 0,0.667 -0.146,1.25 -0.44,1.75 -0.293,0.5 -0.699,0.91 -1.22,1.23 0.667,0.32 1.196,0.776 1.59,1.37 0.394,0.594 0.59,1.29 0.59,2.09 0,0.854 -0.22,1.597 -0.659,2.23 -0.44,0.633 -1.058,1.119 -1.851,1.46 -0.793,0.34 -1.696,0.51 -2.71,0.51 -1.014,0 -1.918,-0.169 -2.711,-0.509 z m 5.08,-1.771 c 0.633,-0.479 0.95,-1.12 0.95,-1.92 0,-0.8 -0.317,-1.44 -0.95,-1.92 -0.634,-0.48 -1.424,-0.72 -2.37,-0.72 -0.96,0 -1.757,0.239 -2.39,0.72 -0.634,0.479 -0.95,1.12 -0.95,1.92 0,0.8 0.316,1.44 0.95,1.92 0.633,0.48 1.43,0.72 2.39,0.72 0.946,0 1.736,-0.239 2.37,-0.72 z m -0.31,-6.719 c 0.56,-0.4 0.84,-0.934 0.84,-1.601 0,-0.68 -0.277,-1.223 -0.83,-1.63 -0.554,-0.406 -1.243,-0.609 -2.07,-0.609 -0.84,0 -1.533,0.203 -2.08,0.609 -0.547,0.407 -0.819,0.95 -0.819,1.63 0,0.681 0.272,1.224 0.819,1.631 0.547,0.406 1.24,0.609 2.08,0.609 0.813,-0.026 1.5,-0.24 2.06,-0.639 z"
   id="path46" />
				<path
   fill="#00b9d2"
   d="m 142.697,136.537 c -0.087,-0.08 -0.131,-0.193 -0.131,-0.34 v -13.28 c 0,-0.146 0.044,-0.26 0.131,-0.34 0.086,-0.08 0.196,-0.12 0.33,-0.12 h 0.84 c 0.146,0 0.26,0.04 0.34,0.12 0.08,0.08 0.12,0.193 0.12,0.34 v 0.881 c 0.772,-1.027 1.873,-1.54 3.3,-1.54 1.4,0 2.45,0.443 3.15,1.33 0.699,0.887 1.069,2.017 1.109,3.39 0.014,0.146 0.021,0.373 0.021,0.68 0,0.307 -0.007,0.533 -0.021,0.681 -0.04,1.359 -0.41,2.486 -1.109,3.38 -0.7,0.894 -1.75,1.34 -3.15,1.34 -1.427,0 -2.507,-0.507 -3.24,-1.521 v 4.66 c 0,0.133 -0.043,0.243 -0.13,0.33 -0.087,0.087 -0.197,0.13 -0.33,0.13 h -0.899 c -0.135,-10e-4 -0.245,-0.041 -0.331,-0.121 z m 6.649,-5.939 c 0.44,-0.601 0.681,-1.387 0.72,-2.36 0.014,-0.133 0.021,-0.326 0.021,-0.58 0,-2.56 -0.947,-3.84 -2.84,-3.84 -0.934,0 -1.637,0.31 -2.11,0.93 -0.473,0.62 -0.724,1.351 -0.75,2.19 -0.014,0.146 -0.02,0.407 -0.02,0.78 0,0.373 0.006,0.633 0.02,0.779 0.026,0.813 0.283,1.518 0.771,2.11 0.486,0.594 1.183,0.89 2.09,0.89 0.959,0 1.659,-0.3 2.098,-0.899 z"
   id="path48" />
				<path
   fill="#00b9d2"
   d="m 154.578,136.537 c -0.087,-0.08 -0.131,-0.193 -0.131,-0.34 v -13.28 c 0,-0.146 0.044,-0.26 0.131,-0.34 0.086,-0.08 0.196,-0.12 0.33,-0.12 h 0.84 c 0.146,0 0.26,0.04 0.34,0.12 0.08,0.08 0.12,0.193 0.12,0.34 v 0.881 c 0.772,-1.027 1.873,-1.54 3.3,-1.54 1.4,0 2.45,0.443 3.15,1.33 0.699,0.887 1.069,2.017 1.109,3.39 0.014,0.146 0.021,0.373 0.021,0.68 0,0.307 -0.007,0.533 -0.021,0.681 -0.04,1.359 -0.41,2.486 -1.109,3.38 -0.7,0.894 -1.75,1.34 -3.15,1.34 -1.427,0 -2.507,-0.507 -3.24,-1.521 v 4.66 c 0,0.133 -0.043,0.243 -0.13,0.33 -0.087,0.087 -0.197,0.13 -0.33,0.13 h -0.899 c -0.135,-10e-4 -0.245,-0.041 -0.331,-0.121 z m 6.649,-5.939 c 0.44,-0.601 0.681,-1.387 0.72,-2.36 0.014,-0.133 0.021,-0.326 0.021,-0.58 0,-2.56 -0.947,-3.84 -2.84,-3.84 -0.934,0 -1.637,0.31 -2.11,0.93 -0.473,0.62 -0.724,1.351 -0.75,2.19 -0.014,0.146 -0.02,0.407 -0.02,0.78 0,0.373 0.006,0.633 0.02,0.779 0.026,0.813 0.283,1.518 0.771,2.11 0.486,0.594 1.183,0.89 2.09,0.89 0.958,0 1.659,-0.3 2.098,-0.899 z"
   id="path50" />
				<path
   fill="#00b9d2"
   d="m 166.276,120.367 c -0.087,-0.086 -0.13,-0.196 -0.13,-0.33 v -1.04 c 0,-0.133 0.043,-0.246 0.13,-0.34 0.087,-0.093 0.197,-0.14 0.33,-0.14 h 1.181 c 0.133,0 0.246,0.047 0.34,0.14 0.093,0.094 0.14,0.207 0.14,0.34 v 1.04 c 0,0.134 -0.047,0.244 -0.14,0.33 -0.094,0.087 -0.207,0.13 -0.34,0.13 h -1.181 c -0.133,0 -0.243,-0.043 -0.33,-0.13 z m 0.16,12.361 c -0.087,-0.087 -0.13,-0.196 -0.13,-0.33 v -9.48 c 0,-0.133 0.043,-0.243 0.13,-0.329 0.087,-0.087 0.196,-0.131 0.33,-0.131 h 0.88 c 0.133,0 0.243,0.044 0.33,0.131 0.087,0.086 0.13,0.196 0.13,0.329 v 9.48 c 0,0.134 -0.043,0.243 -0.13,0.33 -0.087,0.087 -0.197,0.13 -0.33,0.13 h -0.88 c -0.134,-0.001 -0.243,-0.044 -0.33,-0.13 z"
   id="path52" />
			</g>
		</g>
		<g
   id="g96">
			<g
   id="POLYLINE_00000026132450397669006820000003590244675410913416_">
				
					<polyline
   fill="none"
   stroke="#00b9d2"
   stroke-width="2"
   stroke-linecap="round"
   stroke-linejoin="round"
   stroke-miterlimit="10"
   points="      412.411,636.359 406.684,642.086 412.411,647.813     "
   id="polyline57" />
			</g>
			<g
   id="POLYLINE_00000018222323326097938480000015702275015188753833_">
				
					<line
   fill="none"
   stroke="#00b9d2"
   stroke-width="2"
   stroke-linecap="round"
   stroke-linejoin="round"
   stroke-miterlimit="10"
   x1="406.68399"
   y1="642.086"
   x2="466.65601"
   y2="642.086"
   id="line60" />
			</g>
			<g
   id="POLYLINE_00000128472590176483616220000017641545552767639698_">
				
					<line
   fill="none"
   stroke="#00b9d2"
   stroke-width="2"
   stroke-linecap="round"
   stroke-linejoin="round"
   stroke-miterlimit="10"
   x1="617.19702"
   y1="642.086"
   x2="675.05798"
   y2="642.086"
   id="line63" />
			</g>
			<g
   id="POLYLINE_00000020387804070642877500000002700590190219251895_">
				
					<polyline
   fill="none"
   stroke="#00b9d2"
   stroke-width="2"
   stroke-linecap="round"
   stroke-linejoin="round"
   stroke-miterlimit="10"
   points="      669.319,636.37 675.047,642.097 669.319,647.823     "
   id="polyline66" />
			</g>
			<g
   id="MTEXT_00000049922791119493651160000016057531303531439286_">
				<g
   id="g93">
					<path
   fill="#00b9d2"
   d="m 472.57,649.055 c -0.76,-0.341 -1.337,-0.783 -1.729,-1.33 -0.394,-0.547 -0.604,-1.113 -0.63,-1.7 0,-0.12 0.04,-0.217 0.12,-0.29 0.079,-0.073 0.18,-0.11 0.3,-0.11 h 0.899 c 0.146,0 0.267,0.03 0.36,0.09 0.093,0.061 0.167,0.178 0.22,0.351 0.174,0.68 0.55,1.16 1.13,1.439 0.58,0.28 1.264,0.42 2.051,0.42 0.96,0 1.723,-0.229 2.29,-0.689 0.566,-0.46 0.85,-1.116 0.85,-1.97 0,-1.627 -0.993,-2.44 -2.98,-2.44 h -1.88 c -0.133,0 -0.243,-0.043 -0.33,-0.13 -0.087,-0.087 -0.13,-0.196 -0.13,-0.33 v -0.52 c 0,-0.2 0.073,-0.374 0.221,-0.521 l 3.899,-4.32 h -5.92 c -0.134,0 -0.243,-0.04 -0.33,-0.12 -0.087,-0.079 -0.13,-0.187 -0.13,-0.319 v -0.72 c 0,-0.147 0.043,-0.264 0.13,-0.351 0.087,-0.087 0.196,-0.13 0.33,-0.13 h 7.92 c 0.146,0 0.264,0.043 0.351,0.13 0.086,0.087 0.13,0.203 0.13,0.351 v 0.659 c 0,0.147 -0.067,0.301 -0.2,0.46 l -3.9,4.381 h 0.32 c 1.36,0.039 2.437,0.393 3.229,1.06 0.794,0.667 1.19,1.64 1.19,2.92 0,0.88 -0.217,1.637 -0.65,2.271 -0.433,0.633 -1.036,1.119 -1.81,1.46 -0.773,0.34 -1.646,0.51 -2.62,0.51 -1.041,-0.003 -1.94,-0.172 -2.701,-0.512 z"
   id="path69" />
					<path
   fill="#00b9d2"
   d="m 482.8,649.234 c -0.087,-0.087 -0.13,-0.196 -0.13,-0.33 v -1.38 c 0,-0.133 0.043,-0.247 0.13,-0.34 0.086,-0.094 0.196,-0.141 0.33,-0.141 h 1.38 c 0.133,0 0.243,0.047 0.33,0.141 0.086,0.093 0.13,0.207 0.13,0.34 v 1.38 c 0,0.134 -0.044,0.243 -0.13,0.33 -0.087,0.087 -0.197,0.13 -0.33,0.13 h -1.38 c -0.133,0 -0.244,-0.043 -0.33,-0.13 z"
   id="path71" />
					<path
   fill="#00b9d2"
   d="m 488.54,648.055 c -0.793,-1.007 -1.217,-2.323 -1.27,-3.95 l -0.021,-1.721 0.021,-1.779 c 0.04,-1.613 0.463,-2.924 1.27,-3.931 0.807,-1.006 2.063,-1.51 3.771,-1.51 1.72,0 2.982,0.504 3.79,1.51 0.807,1.007 1.229,2.317 1.27,3.931 0.014,0.373 0.021,0.967 0.021,1.779 0,0.787 -0.007,1.36 -0.021,1.721 -0.054,1.627 -0.477,2.943 -1.27,3.95 -0.794,1.007 -2.058,1.51 -3.79,1.51 -1.722,-0.001 -2.978,-0.503 -3.771,-1.51 z m 6.089,-1.171 c 0.521,-0.68 0.794,-1.64 0.82,-2.88 0.013,-0.386 0.021,-0.939 0.021,-1.659 0,-0.733 -0.008,-1.28 -0.021,-1.641 -0.026,-1.227 -0.304,-2.183 -0.83,-2.87 -0.526,-0.687 -1.297,-1.029 -2.31,-1.029 -1.014,0 -1.78,0.343 -2.301,1.029 -0.52,0.688 -0.793,1.644 -0.819,2.87 l -0.021,1.641 0.021,1.659 c 0.026,1.24 0.3,2.2 0.819,2.88 0.521,0.681 1.287,1.021 2.301,1.021 1.027,-10e-4 1.801,-0.341 2.32,-1.021 z"
   id="path73" />
					<path
   fill="#00b9d2"
   d="m 502.02,648.914 c -0.78,-0.433 -1.374,-1.017 -1.78,-1.75 -0.406,-0.733 -0.609,-1.533 -0.609,-2.399 0,-1.146 0.46,-2.373 1.38,-3.681 l 3.819,-5.319 c 0.014,-0.014 0.051,-0.061 0.11,-0.141 0.059,-0.08 0.137,-0.143 0.229,-0.189 0.094,-0.047 0.2,-0.07 0.32,-0.07 h 0.98 c 0.12,0 0.216,0.043 0.29,0.13 0.073,0.087 0.109,0.19 0.109,0.311 0,0.066 -0.033,0.153 -0.1,0.26 l -2.92,4.08 c 0.347,-0.08 0.733,-0.12 1.16,-0.12 0.973,0 1.83,0.217 2.569,0.649 0.74,0.434 1.313,1.007 1.721,1.721 0.406,0.713 0.609,1.497 0.609,2.35 0,0.854 -0.203,1.65 -0.609,2.39 -0.407,0.74 -0.997,1.33 -1.771,1.771 -0.774,0.441 -1.687,0.66 -2.74,0.66 -1.064,-0.003 -1.987,-0.219 -2.767,-0.653 z m 4.37,-1.37 c 0.493,-0.239 0.887,-0.597 1.18,-1.069 0.293,-0.474 0.44,-1.044 0.44,-1.71 0,-0.653 -0.15,-1.217 -0.45,-1.69 -0.3,-0.473 -0.697,-0.833 -1.19,-1.08 -0.493,-0.246 -1.026,-0.37 -1.6,-0.37 -0.574,0 -1.107,0.124 -1.601,0.37 -0.493,0.247 -0.887,0.607 -1.18,1.08 -0.293,0.474 -0.439,1.037 -0.439,1.69 0,0.666 0.146,1.236 0.439,1.71 0.293,0.473 0.687,0.83 1.18,1.069 0.493,0.24 1.027,0.36 1.601,0.36 0.587,0 1.126,-0.12 1.62,-0.36 z"
   id="path75" />
					<path
   fill="#00b9d2"
   d="m 511.86,638.845 c -0.06,-0.08 -0.077,-0.181 -0.05,-0.301 l 0.439,-2.8 c 0.054,-0.387 0.24,-0.58 0.561,-0.58 h 1.28 c 0.093,0 0.17,0.033 0.229,0.101 0.061,0.066 0.09,0.146 0.09,0.239 0,0.134 -0.02,0.24 -0.06,0.32 l -1.04,2.7 c -0.067,0.146 -0.141,0.257 -0.22,0.33 -0.08,0.073 -0.2,0.109 -0.36,0.109 h -0.62 c -0.106,0.001 -0.19,-0.039 -0.249,-0.118 z m 3.14,0 c -0.06,-0.08 -0.076,-0.181 -0.05,-0.301 l 0.44,-2.8 c 0.053,-0.387 0.24,-0.58 0.56,-0.58 h 1.28 c 0.093,0 0.17,0.033 0.229,0.101 0.061,0.066 0.091,0.146 0.091,0.239 0,0.134 -0.021,0.24 -0.061,0.32 l -1.04,2.7 c -0.066,0.146 -0.14,0.257 -0.22,0.33 -0.08,0.073 -0.2,0.109 -0.36,0.109 h -0.62 c -0.106,0.001 -0.189,-0.039 -0.249,-0.118 z"
   id="path77" />
					<path
   fill="#00b9d2"
   d="m 524.87,653.395 c -0.08,-0.087 -0.12,-0.197 -0.12,-0.33 v -21.16 c 0,-0.133 0.04,-0.243 0.12,-0.33 0.08,-0.087 0.187,-0.13 0.32,-0.13 h 0.739 c 0.134,0 0.243,0.043 0.33,0.13 0.087,0.087 0.13,0.197 0.13,0.33 v 21.16 c 0,0.133 -0.043,0.243 -0.13,0.33 -0.087,0.086 -0.196,0.13 -0.33,0.13 h -0.739 c -0.134,-10e-4 -0.24,-0.045 -0.32,-0.13 z"
   id="path79" />
					<path
   fill="#00b9d2"
   d="m 535.499,649.234 c -0.073,-0.087 -0.11,-0.19 -0.11,-0.311 l 0.04,-0.18 5,-11.7 h -6.6 c -0.134,0 -0.243,-0.043 -0.33,-0.13 -0.087,-0.086 -0.13,-0.196 -0.13,-0.33 v -0.739 c 0,-0.147 0.04,-0.264 0.12,-0.351 0.08,-0.087 0.193,-0.13 0.34,-0.13 h 8.16 c 0.146,0 0.26,0.043 0.34,0.13 0.08,0.087 0.12,0.203 0.12,0.351 v 0.68 c 0,0.24 -0.054,0.5 -0.16,0.78 l -4.94,11.56 c -0.066,0.146 -0.14,0.267 -0.22,0.36 -0.08,0.093 -0.193,0.14 -0.34,0.14 h -1 c -0.121,0 -0.217,-0.043 -0.29,-0.13 z"
   id="path81" />
					<path
   fill="#00b9d2"
   d="m 545.699,649.234 c -0.073,-0.087 -0.11,-0.19 -0.11,-0.311 l 0.04,-0.18 5,-11.7 h -6.6 c -0.134,0 -0.243,-0.043 -0.33,-0.13 -0.087,-0.086 -0.13,-0.196 -0.13,-0.33 v -0.739 c 0,-0.147 0.04,-0.264 0.12,-0.351 0.08,-0.087 0.193,-0.13 0.34,-0.13 h 8.16 c 0.146,0 0.26,0.043 0.34,0.13 0.08,0.087 0.12,0.203 0.12,0.351 v 0.68 c 0,0.24 -0.054,0.5 -0.16,0.78 l -4.94,11.56 c -0.066,0.146 -0.14,0.267 -0.22,0.36 -0.08,0.093 -0.193,0.14 -0.34,0.14 h -1 c -0.12,0 -0.217,-0.043 -0.29,-0.13 z"
   id="path83" />
					<path
   fill="#00b9d2"
   d="m 553.359,649.234 c -0.087,-0.087 -0.13,-0.196 -0.13,-0.33 v -1.38 c 0,-0.133 0.043,-0.247 0.13,-0.34 0.086,-0.094 0.196,-0.141 0.33,-0.141 h 1.38 c 0.133,0 0.243,0.047 0.33,0.141 0.086,0.093 0.13,0.207 0.13,0.34 v 1.38 c 0,0.134 -0.044,0.243 -0.13,0.33 -0.087,0.087 -0.197,0.13 -0.33,0.13 h -1.38 c -0.134,0 -0.244,-0.043 -0.33,-0.13 z"
   id="path85" />
					<path
   fill="#00b9d2"
   d="m 560.298,649.055 c -0.793,-0.341 -1.41,-0.83 -1.85,-1.471 -0.44,-0.64 -0.66,-1.387 -0.66,-2.239 0,-0.787 0.196,-1.477 0.59,-2.07 0.394,-0.593 0.923,-1.05 1.59,-1.37 -0.533,-0.307 -0.946,-0.71 -1.24,-1.21 -0.293,-0.5 -0.439,-1.09 -0.439,-1.771 0,-1.159 0.433,-2.076 1.3,-2.75 0.866,-0.673 2.007,-1.01 3.42,-1.01 1.413,0 2.55,0.334 3.41,1 0.86,0.667 1.29,1.587 1.29,2.76 0,0.667 -0.146,1.25 -0.44,1.75 -0.293,0.5 -0.699,0.91 -1.22,1.23 0.667,0.32 1.196,0.776 1.59,1.37 0.394,0.594 0.59,1.29 0.59,2.09 0,0.854 -0.22,1.597 -0.659,2.23 -0.44,0.633 -1.058,1.119 -1.851,1.46 -0.793,0.34 -1.696,0.51 -2.71,0.51 -1.014,0 -1.918,-0.169 -2.711,-0.509 z m 5.08,-1.771 c 0.633,-0.479 0.95,-1.12 0.95,-1.92 0,-0.8 -0.317,-1.44 -0.95,-1.92 -0.634,-0.48 -1.424,-0.72 -2.37,-0.72 -0.96,0 -1.757,0.239 -2.39,0.72 -0.634,0.479 -0.95,1.12 -0.95,1.92 0,0.8 0.316,1.44 0.95,1.92 0.633,0.48 1.43,0.72 2.39,0.72 0.947,0 1.737,-0.239 2.37,-0.72 z m -0.309,-6.72 c 0.56,-0.4 0.84,-0.934 0.84,-1.601 0,-0.68 -0.277,-1.223 -0.83,-1.63 -0.554,-0.406 -1.243,-0.609 -2.07,-0.609 -0.84,0 -1.533,0.203 -2.08,0.609 -0.547,0.407 -0.819,0.95 -0.819,1.63 0,0.681 0.272,1.224 0.819,1.631 0.547,0.406 1.24,0.609 2.08,0.609 0.813,-0.025 1.499,-0.239 2.06,-0.639 z"
   id="path87" />
					<path
   fill="#00b9d2"
   d="m 575.898,649.234 c -0.087,-0.087 -0.13,-0.196 -0.13,-0.33 v -9.48 c 0,-0.133 0.043,-0.243 0.13,-0.329 0.087,-0.087 0.196,-0.131 0.33,-0.131 h 0.84 c 0.134,0 0.24,0.044 0.32,0.131 0.08,0.086 0.12,0.196 0.12,0.329 v 0.681 c 0.72,-0.894 1.693,-1.34 2.92,-1.34 1.467,0 2.507,0.613 3.12,1.84 0.319,-0.561 0.776,-1.007 1.37,-1.34 0.593,-0.334 1.256,-0.5 1.989,-0.5 1.094,0 1.987,0.373 2.681,1.119 0.692,0.747 1.04,1.827 1.04,3.24 v 5.78 c 0,0.134 -0.044,0.243 -0.13,0.33 -0.087,0.087 -0.197,0.13 -0.33,0.13 h -0.86 c -0.134,0 -0.243,-0.043 -0.33,-0.13 -0.087,-0.087 -0.13,-0.196 -0.13,-0.33 v -5.6 c 0,-1.067 -0.22,-1.83 -0.66,-2.29 -0.439,-0.46 -1.02,-0.69 -1.74,-0.69 -0.64,0 -1.189,0.237 -1.649,0.71 -0.46,0.474 -0.69,1.23 -0.69,2.271 v 5.6 c 0,0.134 -0.043,0.243 -0.13,0.33 -0.087,0.087 -0.197,0.13 -0.33,0.13 h -0.88 c -0.134,0 -0.243,-0.043 -0.33,-0.13 -0.087,-0.087 -0.13,-0.196 -0.13,-0.33 v -5.6 c 0,-1.054 -0.23,-1.813 -0.69,-2.28 -0.46,-0.467 -1.029,-0.7 -1.71,-0.7 -0.64,0 -1.189,0.233 -1.649,0.7 -0.46,0.467 -0.69,1.22 -0.69,2.26 v 5.62 c 0,0.134 -0.043,0.243 -0.13,0.33 -0.087,0.087 -0.197,0.13 -0.33,0.13 h -0.88 c -0.136,-10e-4 -0.245,-0.044 -0.332,-0.131 z"
   id="path89" />
					<path
   fill="#00b9d2"
   d="m 593.658,649.234 c -0.087,-0.087 -0.13,-0.196 -0.13,-0.33 v -9.48 c 0,-0.133 0.043,-0.243 0.13,-0.329 0.087,-0.087 0.196,-0.131 0.33,-0.131 h 0.84 c 0.134,0 0.24,0.044 0.32,0.131 0.08,0.086 0.12,0.196 0.12,0.329 v 0.681 c 0.72,-0.894 1.693,-1.34 2.92,-1.34 1.467,0 2.507,0.613 3.12,1.84 0.319,-0.561 0.776,-1.007 1.37,-1.34 0.593,-0.334 1.256,-0.5 1.989,-0.5 1.094,0 1.987,0.373 2.681,1.119 0.692,0.747 1.04,1.827 1.04,3.24 v 5.78 c 0,0.134 -0.044,0.243 -0.13,0.33 -0.087,0.087 -0.197,0.13 -0.33,0.13 h -0.86 c -0.134,0 -0.243,-0.043 -0.33,-0.13 -0.087,-0.087 -0.13,-0.196 -0.13,-0.33 v -5.6 c 0,-1.067 -0.22,-1.83 -0.66,-2.29 -0.439,-0.46 -1.02,-0.69 -1.74,-0.69 -0.64,0 -1.189,0.237 -1.649,0.71 -0.46,0.474 -0.69,1.23 -0.69,2.271 v 5.6 c 0,0.134 -0.043,0.243 -0.13,0.33 -0.087,0.087 -0.197,0.13 -0.33,0.13 h -0.88 c -0.134,0 -0.243,-0.043 -0.33,-0.13 -0.087,-0.087 -0.13,-0.196 -0.13,-0.33 v -5.6 c 0,-1.054 -0.23,-1.813 -0.69,-2.28 -0.46,-0.467 -1.029,-0.7 -1.71,-0.7 -0.64,0 -1.189,0.233 -1.649,0.7 -0.46,0.467 -0.69,1.22 -0.69,2.26 v 5.62 c 0,0.134 -0.043,0.243 -0.13,0.33 -0.087,0.087 -0.197,0.13 -0.33,0.13 h -0.88 c -0.136,-10e-4 -0.245,-0.044 -0.332,-0.131 z"
   id="path91" />
				</g>
			</g>
		</g>
		<g
   id="g125">
			<g
   id="POLYLINE_00000059300132381725241420000008062378983354121655_">
				
					<polyline
   fill="none"
   stroke="#00b9d2"
   stroke-width="2"
   stroke-linecap="round"
   stroke-linejoin="round"
   stroke-miterlimit="10"
   points="      93.034,544.302 87.307,550.029 93.034,555.756     "
   id="polyline98" />
			</g>
			<g
   id="POLYLINE_00000144309717459257211980000004355592450528852149_">
				
					<line
   fill="none"
   stroke="#00b9d2"
   stroke-width="2"
   stroke-linecap="round"
   stroke-linejoin="round"
   stroke-miterlimit="10"
   x1="87.306999"
   y1="550.02899"
   x2="166.228"
   y2="550.02899"
   id="line101" />
			</g>
			<g
   id="POLYLINE_00000114075034518500807720000006416373672863049388_">
				
					<line
   fill="none"
   stroke="#00b9d2"
   stroke-width="2"
   stroke-linecap="round"
   stroke-linejoin="round"
   stroke-miterlimit="10"
   x1="251.42799"
   y1="550.02899"
   x2="305.28699"
   y2="550.02899"
   id="line104" />
			</g>
			<g
   id="POLYLINE_00000055708930912899841230000016219339690571576222_">
				
					<polyline
   fill="none"
   stroke="#00b9d2"
   stroke-width="2"
   stroke-linecap="round"
   stroke-linejoin="round"
   stroke-miterlimit="10"
   points="      299.548,544.312 305.276,550.039 299.548,555.766     "
   id="polyline107" />
			</g>
			<g
   id="MTEXT_00000068666190819009017640000013684424775081307275_">
				<g
   id="g122">
					<path
   fill="#00b9d2"
   d="m 178.047,556.178 c -0.08,-0.087 -0.12,-0.196 -0.12,-0.33 v -11.28 l -3.36,2.58 c -0.093,0.08 -0.193,0.12 -0.3,0.12 -0.12,0 -0.233,-0.066 -0.34,-0.2 l -0.48,-0.62 c -0.066,-0.093 -0.1,-0.187 -0.1,-0.279 0,-0.146 0.066,-0.267 0.2,-0.36 l 4.34,-3.36 c 0.146,-0.093 0.32,-0.14 0.52,-0.14 h 0.94 c 0.133,0 0.243,0.043 0.33,0.13 0.087,0.087 0.13,0.197 0.13,0.33 v 13.08 c 0,0.134 -0.043,0.243 -0.13,0.33 -0.087,0.087 -0.197,0.13 -0.33,0.13 h -0.98 c -0.133,-10e-4 -0.24,-0.044 -0.32,-0.131 z"
   id="path110" />
					<path
   fill="#00b9d2"
   d="m 182.458,556.178 c -0.087,-0.087 -0.13,-0.196 -0.13,-0.33 v -0.6 c 0,-0.307 0.166,-0.601 0.5,-0.881 l 4.359,-4.34 c 0.986,-0.84 1.667,-1.526 2.04,-2.06 0.373,-0.534 0.561,-1.101 0.561,-1.7 0,-0.786 -0.221,-1.403 -0.66,-1.85 -0.44,-0.447 -1.08,-0.67 -1.92,-0.67 -0.801,0 -1.434,0.233 -1.9,0.699 -0.467,0.467 -0.753,1.094 -0.86,1.88 -0.026,0.147 -0.093,0.261 -0.199,0.341 -0.107,0.08 -0.214,0.12 -0.32,0.12 h -0.96 c -0.12,0 -0.22,-0.04 -0.3,-0.12 -0.08,-0.08 -0.12,-0.174 -0.12,-0.28 0.026,-0.707 0.217,-1.39 0.569,-2.05 0.354,-0.66 0.877,-1.2 1.57,-1.62 0.693,-0.42 1.533,-0.63 2.521,-0.63 1.493,0 2.616,0.39 3.37,1.17 0.753,0.78 1.13,1.77 1.13,2.97 0,0.84 -0.204,1.597 -0.61,2.271 -0.407,0.673 -1.043,1.383 -1.91,2.13 l -3.939,4 h 6.3 c 0.146,0 0.26,0.04 0.34,0.12 0.08,0.079 0.12,0.193 0.12,0.34 v 0.76 c 0,0.134 -0.044,0.243 -0.13,0.33 -0.087,0.087 -0.197,0.13 -0.33,0.13 h -8.76 c -0.136,0 -0.247,-0.043 -0.332,-0.13 z"
   id="path112" />
					<path
   fill="#00b9d2"
   d="m 200.537,556.178 c -0.087,-0.087 -0.13,-0.196 -0.13,-0.33 v -2.92 h -6.5 c -0.134,0 -0.243,-0.043 -0.33,-0.13 -0.087,-0.087 -0.13,-0.197 -0.13,-0.33 v -0.74 c 0,-0.187 0.073,-0.387 0.22,-0.6 l 6.021,-8.48 c 0.066,-0.106 0.166,-0.189 0.3,-0.25 0.133,-0.06 0.28,-0.09 0.439,-0.09 h 1.36 c 0.146,0 0.26,0.04 0.34,0.12 0.08,0.08 0.12,0.193 0.12,0.34 v 8.48 h 1.82 c 0.133,0 0.243,0.043 0.33,0.13 0.086,0.087 0.13,0.196 0.13,0.33 v 0.76 c 0,0.133 -0.044,0.243 -0.13,0.33 -0.087,0.087 -0.197,0.13 -0.33,0.13 h -1.82 v 2.92 c 0,0.134 -0.043,0.243 -0.13,0.33 -0.087,0.087 -0.197,0.13 -0.33,0.13 h -0.92 c -0.134,0 -0.243,-0.043 -0.33,-0.13 z m -5.01,-4.89 h 4.899 v -6.961 z"
   id="path114" />
					<path
   fill="#00b9d2"
   d="m 206.297,556.178 c -0.087,-0.087 -0.13,-0.196 -0.13,-0.33 v -0.6 c 0,-0.307 0.166,-0.601 0.5,-0.881 l 4.359,-4.34 c 0.986,-0.84 1.667,-1.526 2.04,-2.06 0.373,-0.534 0.561,-1.101 0.561,-1.7 0,-0.786 -0.221,-1.403 -0.66,-1.85 -0.44,-0.447 -1.08,-0.67 -1.92,-0.67 -0.801,0 -1.434,0.233 -1.9,0.699 -0.467,0.467 -0.753,1.094 -0.86,1.88 -0.026,0.147 -0.093,0.261 -0.199,0.341 -0.107,0.08 -0.214,0.12 -0.32,0.12 h -0.96 c -0.12,0 -0.22,-0.04 -0.3,-0.12 -0.08,-0.08 -0.12,-0.174 -0.12,-0.28 0.026,-0.707 0.217,-1.39 0.569,-2.05 0.354,-0.66 0.877,-1.2 1.57,-1.62 0.693,-0.42 1.533,-0.63 2.521,-0.63 1.493,0 2.616,0.39 3.37,1.17 0.753,0.78 1.13,1.77 1.13,2.97 0,0.84 -0.204,1.597 -0.61,2.271 -0.407,0.673 -1.043,1.383 -1.91,2.13 l -3.939,4 h 6.3 c 0.146,0 0.26,0.04 0.34,0.12 0.08,0.079 0.12,0.193 0.12,0.34 v 0.76 c 0,0.134 -0.044,0.243 -0.13,0.33 -0.087,0.087 -0.197,0.13 -0.33,0.13 h -8.76 c -0.135,0 -0.246,-0.043 -0.332,-0.13 z"
   id="path116" />
					<path
   fill="#00b9d2"
   d="m 223.437,559.987 c -0.087,-0.08 -0.131,-0.193 -0.131,-0.34 v -13.28 c 0,-0.146 0.044,-0.26 0.131,-0.34 0.086,-0.08 0.196,-0.12 0.33,-0.12 h 0.84 c 0.146,0 0.26,0.04 0.34,0.12 0.08,0.08 0.12,0.193 0.12,0.34 v 0.881 c 0.772,-1.027 1.873,-1.54 3.3,-1.54 1.4,0 2.45,0.443 3.15,1.33 0.699,0.887 1.069,2.017 1.109,3.39 0.014,0.146 0.021,0.373 0.021,0.68 0,0.307 -0.007,0.533 -0.021,0.681 -0.04,1.359 -0.41,2.486 -1.109,3.38 -0.7,0.894 -1.75,1.34 -3.15,1.34 -1.427,0 -2.507,-0.507 -3.24,-1.521 v 4.66 c 0,0.133 -0.043,0.243 -0.13,0.33 -0.087,0.087 -0.197,0.13 -0.33,0.13 h -0.899 c -0.135,-10e-4 -0.245,-0.041 -0.331,-0.121 z m 6.649,-5.939 c 0.44,-0.601 0.681,-1.387 0.72,-2.36 0.014,-0.133 0.021,-0.326 0.021,-0.58 0,-2.56 -0.947,-3.84 -2.84,-3.84 -0.934,0 -1.637,0.31 -2.11,0.93 -0.473,0.62 -0.724,1.351 -0.75,2.19 -0.014,0.146 -0.02,0.407 -0.02,0.78 0,0.373 0.006,0.633 0.02,0.779 0.026,0.813 0.283,1.518 0.771,2.11 0.486,0.594 1.183,0.89 2.09,0.89 0.959,0 1.659,-0.3 2.098,-0.899 z"
   id="path118" />
					<path
   fill="#00b9d2"
   d="m 234.106,556.188 c -0.08,-0.08 -0.12,-0.18 -0.12,-0.3 0,-0.12 0.047,-0.247 0.141,-0.38 l 3.479,-4.521 -3.26,-4.3 c -0.106,-0.146 -0.16,-0.267 -0.16,-0.36 0,-0.119 0.043,-0.22 0.13,-0.3 0.087,-0.08 0.184,-0.12 0.29,-0.12 h 0.96 c 0.2,0 0.373,0.107 0.521,0.32 l 2.7,3.5 2.699,-3.5 c 0.08,-0.106 0.157,-0.187 0.23,-0.24 0.073,-0.053 0.17,-0.08 0.29,-0.08 h 0.92 c 0.106,0 0.2,0.04 0.28,0.12 0.08,0.08 0.12,0.174 0.12,0.28 0,0.134 -0.047,0.26 -0.141,0.38 l -3.3,4.34 3.48,4.48 c 0.093,0.133 0.14,0.26 0.14,0.38 0,0.12 -0.04,0.22 -0.12,0.3 -0.08,0.08 -0.18,0.12 -0.3,0.12 h -0.98 c -0.2,0 -0.373,-0.1 -0.52,-0.3 l -2.86,-3.7 -2.859,3.7 c -0.08,0.093 -0.157,0.167 -0.23,0.22 -0.073,0.054 -0.17,0.08 -0.29,0.08 h -0.94 c -0.119,10e-4 -0.22,-0.039 -0.3,-0.119 z"
   id="path120" />
				</g>
			</g>
		</g>
		<g
   id="g154">
			<g
   id="POLYLINE_00000001659928089340952750000007945318486230977926_">
				
					<polyline
   fill="none"
   stroke="#00b9d2"
   stroke-width="2"
   stroke-linecap="round"
   stroke-linejoin="round"
   stroke-miterlimit="10"
   points="      280.689,99.351 274.962,93.624 269.235,99.351     "
   id="polyline127" />
			</g>
			<g
   id="POLYLINE_00000098195010549462871240000008675094826837702825_">
				
					<line
   fill="none"
   stroke="#00b9d2"
   stroke-width="2"
   stroke-linecap="round"
   stroke-linejoin="round"
   stroke-miterlimit="10"
   x1="274.96201"
   y1="93.624001"
   x2="274.96201"
   y2="458.79599"
   id="line130" />
			</g>
			<g
   id="POLYLINE_00000013882423384975568270000012627413714456019629_">
				
					<line
   fill="none"
   stroke="#00b9d2"
   stroke-width="2"
   stroke-linecap="round"
   stroke-linejoin="round"
   stroke-miterlimit="10"
   x1="274.96201"
   y1="488.496"
   x2="274.96201"
   y2="586.67902"
   id="line133" />
			</g>
			<g
   id="POLYLINE_00000174580685512502927560000003167802920500252308_">
				
					<polyline
   fill="none"
   stroke="#00b9d2"
   stroke-width="2"
   stroke-linecap="round"
   stroke-linejoin="round"
   stroke-miterlimit="10"
   points="      280.678,580.94 274.951,586.668 269.224,580.94     "
   id="polyline136" />
			</g>
			<g
   id="MTEXT_00000135683838345062215560000006508239592413294476_">
				<g
   id="g151">
					<path
   fill="#00b9d2"
   d="m 217.69,479.316 c -0.087,-0.087 -0.13,-0.196 -0.13,-0.33 v -0.6 c 0,-0.307 0.166,-0.601 0.5,-0.881 l 4.359,-4.34 c 0.986,-0.84 1.667,-1.526 2.04,-2.06 0.373,-0.534 0.561,-1.101 0.561,-1.7 0,-0.786 -0.221,-1.403 -0.66,-1.85 -0.44,-0.447 -1.08,-0.67 -1.92,-0.67 -0.801,0 -1.434,0.233 -1.9,0.699 -0.467,0.467 -0.753,1.094 -0.86,1.88 -0.026,0.147 -0.093,0.261 -0.199,0.341 -0.107,0.08 -0.214,0.12 -0.32,0.12 h -0.96 c -0.12,0 -0.22,-0.04 -0.3,-0.12 -0.08,-0.08 -0.12,-0.174 -0.12,-0.28 0.026,-0.707 0.217,-1.39 0.569,-2.05 0.354,-0.66 0.877,-1.2 1.57,-1.62 0.693,-0.42 1.533,-0.63 2.521,-0.63 1.493,0 2.616,0.39 3.37,1.17 0.753,0.78 1.13,1.77 1.13,2.97 0,0.84 -0.204,1.597 -0.61,2.271 -0.407,0.673 -1.043,1.383 -1.91,2.13 l -3.939,4 h 6.3 c 0.146,0 0.26,0.04 0.34,0.12 0.08,0.079 0.12,0.193 0.12,0.34 v 0.76 c 0,0.134 -0.044,0.243 -0.13,0.33 -0.087,0.087 -0.197,0.13 -0.33,0.13 h -8.76 c -0.136,0 -0.246,-0.043 -0.332,-0.13 z"
   id="path139" />
					<path
   fill="#00b9d2"
   d="m 231.629,478.996 c -0.78,-0.433 -1.374,-1.017 -1.78,-1.75 -0.406,-0.733 -0.609,-1.533 -0.609,-2.399 0,-1.146 0.46,-2.373 1.38,-3.681 l 3.819,-5.319 c 0.014,-0.014 0.051,-0.061 0.11,-0.141 0.059,-0.08 0.137,-0.143 0.229,-0.189 0.094,-0.047 0.2,-0.07 0.32,-0.07 h 0.98 c 0.12,0 0.216,0.043 0.29,0.13 0.073,0.087 0.109,0.19 0.109,0.311 0,0.066 -0.033,0.153 -0.1,0.26 l -2.92,4.08 c 0.347,-0.08 0.733,-0.12 1.16,-0.12 0.973,0 1.83,0.217 2.569,0.649 0.74,0.434 1.313,1.007 1.721,1.721 0.406,0.713 0.609,1.497 0.609,2.35 0,0.854 -0.203,1.65 -0.609,2.39 -0.407,0.74 -0.997,1.33 -1.771,1.771 -0.774,0.441 -1.687,0.66 -2.74,0.66 -1.063,-0.003 -1.986,-0.219 -2.767,-0.653 z m 4.371,-1.37 c 0.493,-0.239 0.887,-0.597 1.18,-1.069 0.293,-0.474 0.44,-1.044 0.44,-1.71 0,-0.653 -0.15,-1.217 -0.45,-1.69 -0.3,-0.473 -0.697,-0.833 -1.19,-1.08 -0.493,-0.246 -1.026,-0.37 -1.6,-0.37 -0.574,0 -1.107,0.124 -1.601,0.37 -0.493,0.247 -0.887,0.607 -1.18,1.08 -0.293,0.474 -0.439,1.037 -0.439,1.69 0,0.666 0.146,1.236 0.439,1.71 0.293,0.473 0.687,0.83 1.18,1.069 0.493,0.24 1.027,0.36 1.601,0.36 0.586,0 1.125,-0.12 1.62,-0.36 z"
   id="path141" />
					<path
   fill="#00b9d2"
   d="m 243.889,479.137 c -0.793,-0.341 -1.41,-0.83 -1.85,-1.471 -0.44,-0.64 -0.66,-1.387 -0.66,-2.239 0,-0.787 0.196,-1.477 0.59,-2.07 0.394,-0.593 0.923,-1.05 1.59,-1.37 -0.533,-0.307 -0.946,-0.71 -1.24,-1.21 -0.293,-0.5 -0.439,-1.09 -0.439,-1.771 0,-1.159 0.433,-2.076 1.3,-2.75 0.866,-0.673 2.007,-1.01 3.42,-1.01 1.413,0 2.55,0.334 3.41,1 0.86,0.667 1.29,1.587 1.29,2.76 0,0.667 -0.146,1.25 -0.44,1.75 -0.293,0.5 -0.699,0.91 -1.22,1.23 0.667,0.32 1.196,0.776 1.59,1.37 0.394,0.594 0.59,1.29 0.59,2.09 0,0.854 -0.22,1.597 -0.659,2.23 -0.44,0.633 -1.058,1.119 -1.851,1.46 -0.793,0.34 -1.696,0.51 -2.71,0.51 -1.014,0 -1.918,-0.169 -2.711,-0.509 z m 5.08,-1.771 c 0.633,-0.479 0.95,-1.12 0.95,-1.92 0,-0.8 -0.317,-1.44 -0.95,-1.92 -0.634,-0.48 -1.424,-0.72 -2.37,-0.72 -0.96,0 -1.757,0.239 -2.39,0.72 -0.634,0.479 -0.95,1.12 -0.95,1.92 0,0.8 0.316,1.44 0.95,1.92 0.633,0.48 1.43,0.72 2.39,0.72 0.946,0 1.736,-0.239 2.37,-0.72 z m -0.309,-6.72 c 0.56,-0.4 0.84,-0.934 0.84,-1.601 0,-0.68 -0.277,-1.223 -0.83,-1.63 -0.554,-0.406 -1.243,-0.609 -2.07,-0.609 -0.84,0 -1.533,0.203 -2.08,0.609 -0.547,0.407 -0.819,0.95 -0.819,1.63 0,0.681 0.272,1.224 0.819,1.631 0.547,0.406 1.24,0.609 2.08,0.609 0.813,-0.025 1.499,-0.239 2.06,-0.639 z"
   id="path143" />
					<path
   fill="#00b9d2"
   d="m 256.569,479.137 c -0.793,-0.341 -1.41,-0.83 -1.85,-1.471 -0.44,-0.64 -0.66,-1.387 -0.66,-2.239 0,-0.787 0.196,-1.477 0.59,-2.07 0.394,-0.593 0.923,-1.05 1.59,-1.37 -0.533,-0.307 -0.946,-0.71 -1.24,-1.21 -0.293,-0.5 -0.439,-1.09 -0.439,-1.771 0,-1.159 0.433,-2.076 1.3,-2.75 0.866,-0.673 2.007,-1.01 3.42,-1.01 1.413,0 2.55,0.334 3.41,1 0.86,0.667 1.29,1.587 1.29,2.76 0,0.667 -0.146,1.25 -0.44,1.75 -0.293,0.5 -0.699,0.91 -1.22,1.23 0.667,0.32 1.196,0.776 1.59,1.37 0.394,0.594 0.59,1.29 0.59,2.09 0,0.854 -0.22,1.597 -0.659,2.23 -0.44,0.633 -1.058,1.119 -1.851,1.46 -0.793,0.34 -1.696,0.51 -2.71,0.51 -1.014,0 -1.918,-0.169 -2.711,-0.509 z m 5.08,-1.771 c 0.633,-0.479 0.95,-1.12 0.95,-1.92 0,-0.8 -0.317,-1.44 -0.95,-1.92 -0.634,-0.48 -1.424,-0.72 -2.37,-0.72 -0.96,0 -1.757,0.239 -2.39,0.72 -0.634,0.479 -0.95,1.12 -0.95,1.92 0,0.8 0.316,1.44 0.95,1.92 0.633,0.48 1.43,0.72 2.39,0.72 0.946,0 1.736,-0.239 2.37,-0.72 z m -0.31,-6.72 c 0.56,-0.4 0.84,-0.934 0.84,-1.601 0,-0.68 -0.277,-1.223 -0.83,-1.63 -0.554,-0.406 -1.243,-0.609 -2.07,-0.609 -0.84,0 -1.533,0.203 -2.08,0.609 -0.547,0.407 -0.819,0.95 -0.819,1.63 0,0.681 0.272,1.224 0.819,1.631 0.547,0.406 1.24,0.609 2.08,0.609 0.813,-0.025 1.5,-0.239 2.06,-0.639 z"
   id="path145" />
					<path
   fill="#00b9d2"
   d="m 272.189,483.126 c -0.087,-0.08 -0.131,-0.193 -0.131,-0.34 v -13.28 c 0,-0.146 0.044,-0.26 0.131,-0.34 0.086,-0.08 0.196,-0.12 0.33,-0.12 h 0.84 c 0.146,0 0.26,0.04 0.34,0.12 0.08,0.08 0.12,0.193 0.12,0.34 v 0.881 c 0.772,-1.027 1.873,-1.54 3.3,-1.54 1.4,0 2.45,0.443 3.15,1.33 0.699,0.887 1.069,2.017 1.109,3.39 0.014,0.146 0.021,0.373 0.021,0.68 0,0.307 -0.007,0.533 -0.021,0.681 -0.04,1.359 -0.41,2.486 -1.109,3.38 -0.7,0.894 -1.75,1.34 -3.15,1.34 -1.427,0 -2.507,-0.507 -3.24,-1.521 v 4.66 c 0,0.133 -0.043,0.243 -0.13,0.33 -0.087,0.087 -0.197,0.13 -0.33,0.13 h -0.899 c -0.135,-0.001 -0.245,-0.041 -0.331,-0.121 z m 6.649,-5.939 c 0.44,-0.601 0.681,-1.387 0.72,-2.36 0.014,-0.133 0.021,-0.326 0.021,-0.58 0,-2.56 -0.947,-3.84 -2.84,-3.84 -0.934,0 -1.637,0.31 -2.11,0.93 -0.473,0.62 -0.724,1.351 -0.75,2.19 -0.014,0.146 -0.02,0.407 -0.02,0.78 0,0.373 0.006,0.633 0.02,0.779 0.026,0.813 0.283,1.518 0.771,2.11 0.486,0.594 1.183,0.89 2.09,0.89 0.959,0 1.659,-0.3 2.098,-0.899 z"
   id="path147" />
					<path
   fill="#00b9d2"
   d="m 282.858,479.326 c -0.08,-0.08 -0.12,-0.18 -0.12,-0.3 0,-0.12 0.047,-0.247 0.141,-0.38 l 3.479,-4.521 -3.26,-4.3 c -0.106,-0.146 -0.16,-0.267 -0.16,-0.36 0,-0.119 0.043,-0.22 0.13,-0.3 0.087,-0.08 0.184,-0.12 0.29,-0.12 h 0.96 c 0.2,0 0.373,0.107 0.521,0.32 l 2.7,3.5 2.699,-3.5 c 0.08,-0.106 0.157,-0.187 0.23,-0.24 0.073,-0.053 0.17,-0.08 0.29,-0.08 h 0.92 c 0.106,0 0.2,0.04 0.28,0.12 0.08,0.08 0.12,0.174 0.12,0.28 0,0.134 -0.047,0.26 -0.141,0.38 l -3.3,4.34 3.48,4.48 c 0.093,0.133 0.14,0.26 0.14,0.38 0,0.12 -0.04,0.22 -0.12,0.3 -0.08,0.08 -0.18,0.12 -0.3,0.12 h -0.98 c -0.2,0 -0.373,-0.1 -0.52,-0.3 l -2.86,-3.7 -2.859,3.7 c -0.08,0.093 -0.157,0.167 -0.23,0.22 -0.073,0.054 -0.17,0.08 -0.29,0.08 h -0.94 c -0.119,0.001 -0.22,-0.039 -0.3,-0.119 z"
   id="path149" />
				</g>
			</g>
		</g>
		<g
   id="g193">
			<g
   id="POLYLINE_00000026873687545479410670000007478481747562407817_">
				
					<polyline
   fill="none"
   stroke="#00b9d2"
   stroke-width="2"
   stroke-linecap="round"
   stroke-linejoin="round"
   stroke-miterlimit="10"
   points="      699.354,73.347 693.628,67.62 687.901,73.347     "
   id="polyline156" />
			</g>
			<g
   id="POLYLINE_00000121976010511255512000000013002342343611606941_">
				
					<line
   fill="none"
   stroke="#00b9d2"
   stroke-width="2"
   stroke-linecap="round"
   stroke-linejoin="round"
   stroke-miterlimit="10"
   x1="693.62799"
   y1="67.620003"
   x2="693.62799"
   y2="240.263"
   id="line159" />
			</g>
			<g
   id="POLYLINE_00000020361567966885726460000016232740087030878896_">
				
					<line
   fill="none"
   stroke="#00b9d2"
   stroke-width="2"
   stroke-linecap="round"
   stroke-linejoin="round"
   stroke-miterlimit="10"
   x1="693.62799"
   y1="240.60699"
   x2="693.62799"
   y2="608.22601"
   id="line162" />
			</g>
			<g
   id="POLYLINE_00000004516714889740327100000013047711302863388548_">
				
					<polyline
   fill="none"
   stroke="#00b9d2"
   stroke-width="2"
   stroke-linecap="round"
   stroke-linejoin="round"
   stroke-miterlimit="10"
   points="      699.344,602.487 693.617,608.214 687.89,602.487     "
   id="polyline165" />
			</g>
			<g
   id="MTEXT_00000152251786341767103530000002729650915111981960_"
   opacity="0.98">
				<g
   id="g190">
					<path
   fill="#00b9d2"
   d="m 566.762,51.632 c -0.78,-0.433 -1.374,-1.017 -1.78,-1.75 -0.406,-0.733 -0.609,-1.533 -0.609,-2.399 0,-1.146 0.46,-2.373 1.38,-3.681 l 3.819,-5.319 c 0.014,-0.014 0.051,-0.061 0.11,-0.141 0.059,-0.08 0.137,-0.143 0.229,-0.189 0.094,-0.047 0.2,-0.07 0.32,-0.07 h 0.98 c 0.12,0 0.216,0.043 0.29,0.13 0.073,0.087 0.109,0.19 0.109,0.311 0,0.066 -0.033,0.153 -0.1,0.26 l -2.92,4.08 c 0.347,-0.08 0.733,-0.12 1.16,-0.12 0.973,0 1.83,0.217 2.569,0.649 0.74,0.434 1.313,1.007 1.721,1.721 0.406,0.713 0.609,1.497 0.609,2.35 0,0.854 -0.203,1.65 -0.609,2.39 -0.407,0.74 -0.997,1.33 -1.771,1.771 -0.774,0.441 -1.687,0.66 -2.74,0.66 -1.064,-0.003 -1.987,-0.22 -2.767,-0.653 z m 4.37,-1.37 c 0.493,-0.239 0.887,-0.597 1.18,-1.069 0.293,-0.474 0.44,-1.044 0.44,-1.71 0,-0.653 -0.15,-1.217 -0.45,-1.69 -0.3,-0.473 -0.697,-0.833 -1.19,-1.08 -0.493,-0.246 -1.026,-0.37 -1.6,-0.37 -0.574,0 -1.107,0.124 -1.601,0.37 -0.493,0.247 -0.887,0.607 -1.18,1.08 -0.293,0.474 -0.439,1.037 -0.439,1.69 0,0.666 0.146,1.236 0.439,1.71 0.293,0.473 0.687,0.83 1.18,1.069 0.493,0.24 1.027,0.36 1.601,0.36 0.587,0 1.126,-0.12 1.62,-0.36 z"
   id="path168" />
					<path
   fill="#00b9d2"
   d="m 576.882,51.952 c -0.087,-0.087 -0.13,-0.196 -0.13,-0.33 v -1.38 c 0,-0.133 0.043,-0.247 0.13,-0.34 0.086,-0.094 0.196,-0.141 0.33,-0.141 h 1.38 c 0.133,0 0.243,0.047 0.33,0.141 0.086,0.093 0.13,0.207 0.13,0.34 v 1.38 c 0,0.134 -0.044,0.243 -0.13,0.33 -0.087,0.087 -0.197,0.13 -0.33,0.13 h -1.38 c -0.133,0 -0.244,-0.043 -0.33,-0.13 z"
   id="path170" />
					<path
   fill="#00b9d2"
   d="m 581.502,51.952 c -0.087,-0.087 -0.13,-0.196 -0.13,-0.33 v -0.6 c 0,-0.307 0.166,-0.601 0.5,-0.881 l 4.359,-4.34 c 0.986,-0.84 1.667,-1.526 2.04,-2.06 0.373,-0.534 0.561,-1.101 0.561,-1.7 0,-0.786 -0.221,-1.403 -0.66,-1.85 -0.44,-0.447 -1.08,-0.67 -1.92,-0.67 -0.801,0 -1.434,0.233 -1.9,0.699 -0.467,0.467 -0.753,1.094 -0.86,1.88 -0.026,0.147 -0.093,0.261 -0.199,0.341 -0.107,0.08 -0.214,0.12 -0.32,0.12 h -0.96 c -0.12,0 -0.22,-0.04 -0.3,-0.12 -0.08,-0.08 -0.12,-0.174 -0.12,-0.28 0.026,-0.707 0.217,-1.39 0.569,-2.05 0.354,-0.66 0.877,-1.2 1.57,-1.62 0.693,-0.42 1.533,-0.63 2.521,-0.63 1.493,0 2.616,0.39 3.37,1.17 0.753,0.78 1.13,1.77 1.13,2.97 0,0.84 -0.204,1.597 -0.61,2.271 -0.407,0.673 -1.043,1.383 -1.91,2.13 l -3.939,4 h 6.3 c 0.146,0 0.26,0.04 0.34,0.12 0.08,0.079 0.12,0.193 0.12,0.34 v 0.76 c 0,0.134 -0.044,0.243 -0.13,0.33 -0.087,0.087 -0.197,0.13 -0.33,0.13 h -8.76 c -0.135,0 -0.246,-0.043 -0.332,-0.13 z"
   id="path172" />
					<path
   fill="#00b9d2"
   d="m 593.182,51.952 c -0.087,-0.087 -0.13,-0.196 -0.13,-0.33 v -0.6 c 0,-0.307 0.166,-0.601 0.5,-0.881 l 4.359,-4.34 c 0.986,-0.84 1.667,-1.526 2.04,-2.06 0.373,-0.534 0.561,-1.101 0.561,-1.7 0,-0.786 -0.221,-1.403 -0.66,-1.85 -0.44,-0.447 -1.08,-0.67 -1.92,-0.67 -0.801,0 -1.434,0.233 -1.9,0.699 -0.467,0.467 -0.753,1.094 -0.86,1.88 -0.026,0.147 -0.093,0.261 -0.199,0.341 -0.107,0.08 -0.214,0.12 -0.32,0.12 h -0.96 c -0.12,0 -0.22,-0.04 -0.3,-0.12 -0.08,-0.08 -0.12,-0.174 -0.12,-0.28 0.026,-0.707 0.217,-1.39 0.569,-2.05 0.354,-0.66 0.877,-1.2 1.57,-1.62 0.693,-0.42 1.533,-0.63 2.521,-0.63 1.493,0 2.616,0.39 3.37,1.17 0.753,0.78 1.13,1.77 1.13,2.97 0,0.84 -0.204,1.597 -0.61,2.271 -0.407,0.673 -1.043,1.383 -1.91,2.13 l -3.939,4 h 6.3 c 0.146,0 0.26,0.04 0.34,0.12 0.08,0.079 0.12,0.193 0.12,0.34 v 0.76 c 0,0.134 -0.044,0.243 -0.13,0.33 -0.087,0.087 -0.197,0.13 -0.33,0.13 h -8.76 c -0.136,0 -0.246,-0.043 -0.332,-0.13 z"
   id="path174" />
					<path
   fill="#00b9d2"
   d="m 604.961,41.562 c -0.06,-0.08 -0.077,-0.181 -0.05,-0.301 l 0.439,-2.8 c 0.054,-0.387 0.24,-0.58 0.561,-0.58 h 1.28 c 0.093,0 0.17,0.033 0.229,0.101 0.061,0.066 0.09,0.146 0.09,0.239 0,0.134 -0.02,0.24 -0.06,0.32 l -1.04,2.7 c -0.067,0.146 -0.141,0.257 -0.22,0.33 -0.08,0.073 -0.2,0.109 -0.36,0.109 h -0.62 c -0.105,0.002 -0.189,-0.038 -0.249,-0.118 z m 3.14,0 c -0.06,-0.08 -0.076,-0.181 -0.05,-0.301 l 0.44,-2.8 c 0.053,-0.387 0.24,-0.58 0.56,-0.58 h 1.28 c 0.093,0 0.17,0.033 0.229,0.101 0.061,0.066 0.091,0.146 0.091,0.239 0,0.134 -0.021,0.24 -0.061,0.32 l -1.04,2.7 c -0.066,0.146 -0.14,0.257 -0.22,0.33 -0.08,0.073 -0.2,0.109 -0.36,0.109 h -0.62 c -0.105,0.002 -0.188,-0.038 -0.249,-0.118 z"
   id="path176" />
					<path
   fill="#00b9d2"
   d="m 617.971,56.112 c -0.08,-0.087 -0.12,-0.197 -0.12,-0.33 v -21.16 c 0,-0.133 0.04,-0.243 0.12,-0.33 0.08,-0.087 0.187,-0.13 0.32,-0.13 h 0.739 c 0.134,0 0.243,0.043 0.33,0.13 0.087,0.087 0.13,0.197 0.13,0.33 v 21.16 c 0,0.133 -0.043,0.243 -0.13,0.33 -0.087,0.086 -0.196,0.13 -0.33,0.13 h -0.739 c -0.133,0 -0.24,-0.044 -0.32,-0.13 z"
   id="path178" />
					<path
   fill="#00b9d2"
   d="m 631.091,51.952 c -0.08,-0.087 -0.12,-0.196 -0.12,-0.33 v -11.28 l -3.36,2.58 c -0.093,0.08 -0.193,0.12 -0.3,0.12 -0.12,0 -0.233,-0.066 -0.34,-0.2 l -0.48,-0.62 c -0.066,-0.093 -0.1,-0.187 -0.1,-0.279 0,-0.146 0.066,-0.267 0.2,-0.36 l 4.34,-3.36 c 0.146,-0.093 0.32,-0.14 0.52,-0.14 h 0.94 c 0.133,0 0.243,0.043 0.33,0.13 0.087,0.087 0.13,0.197 0.13,0.33 v 13.08 c 0,0.134 -0.043,0.243 -0.13,0.33 -0.087,0.087 -0.197,0.13 -0.33,0.13 h -0.98 c -0.133,-10e-4 -0.24,-0.044 -0.32,-0.131 z"
   id="path180" />
					<path
   fill="#00b9d2"
   d="m 637.61,51.742 c -0.733,-0.36 -1.293,-0.83 -1.68,-1.41 -0.387,-0.58 -0.594,-1.203 -0.62,-1.87 v -0.04 c 0,-0.106 0.04,-0.193 0.12,-0.26 0.08,-0.067 0.173,-0.1 0.28,-0.1 h 0.979 c 0.28,0 0.46,0.146 0.54,0.439 0.2,0.72 0.57,1.257 1.11,1.61 0.54,0.353 1.163,0.529 1.87,0.529 0.906,0 1.66,-0.276 2.26,-0.829 0.6,-0.554 0.9,-1.317 0.9,-2.29 0,-0.894 -0.301,-1.604 -0.9,-2.131 -0.6,-0.526 -1.354,-0.79 -2.26,-0.79 -0.48,0 -0.867,0.061 -1.16,0.181 -0.294,0.12 -0.594,0.293 -0.9,0.52 -0.173,0.134 -0.316,0.23 -0.43,0.29 -0.113,0.061 -0.237,0.09 -0.37,0.09 h -0.96 c -0.12,0 -0.227,-0.043 -0.32,-0.13 -0.093,-0.086 -0.133,-0.189 -0.12,-0.31 l 0.62,-6.66 c 0.04,-0.333 0.207,-0.5 0.5,-0.5 h 6.92 c 0.146,0 0.261,0.04 0.341,0.12 0.079,0.08 0.119,0.193 0.119,0.34 v 0.74 c 0,0.133 -0.043,0.24 -0.13,0.319 -0.087,0.08 -0.196,0.12 -0.33,0.12 h -5.76 l -0.359,4.021 c 0.64,-0.453 1.5,-0.68 2.579,-0.68 0.894,0 1.707,0.177 2.44,0.529 0.733,0.354 1.316,0.87 1.75,1.55 0.434,0.681 0.65,1.487 0.65,2.421 0,0.986 -0.217,1.836 -0.65,2.55 -0.434,0.713 -1.033,1.253 -1.8,1.62 -0.767,0.366 -1.644,0.55 -2.63,0.55 -0.999,10e-4 -1.866,-0.179 -2.599,-0.539 z"
   id="path182" />
					<path
   fill="#00b9d2"
   d="m 649.861,51.772 c -0.793,-0.341 -1.41,-0.83 -1.85,-1.471 -0.44,-0.64 -0.66,-1.387 -0.66,-2.239 0,-0.787 0.196,-1.477 0.59,-2.07 0.394,-0.593 0.923,-1.05 1.59,-1.37 -0.533,-0.307 -0.946,-0.71 -1.24,-1.21 -0.293,-0.5 -0.439,-1.09 -0.439,-1.771 0,-1.159 0.433,-2.076 1.3,-2.75 0.866,-0.673 2.007,-1.01 3.42,-1.01 1.413,0 2.55,0.334 3.41,1 0.86,0.667 1.29,1.587 1.29,2.76 0,0.667 -0.146,1.25 -0.44,1.75 -0.293,0.5 -0.699,0.91 -1.22,1.23 0.667,0.32 1.196,0.776 1.59,1.37 0.394,0.594 0.59,1.29 0.59,2.09 0,0.854 -0.22,1.597 -0.659,2.23 -0.44,0.633 -1.058,1.119 -1.851,1.46 -0.793,0.34 -1.696,0.51 -2.71,0.51 -1.014,0 -1.918,-0.169 -2.711,-0.509 z m 5.08,-1.77 c 0.633,-0.479 0.95,-1.12 0.95,-1.92 0,-0.8 -0.317,-1.44 -0.95,-1.92 -0.634,-0.48 -1.424,-0.72 -2.37,-0.72 -0.96,0 -1.757,0.239 -2.39,0.72 -0.634,0.479 -0.95,1.12 -0.95,1.92 0,0.8 0.316,1.44 0.95,1.92 0.633,0.48 1.43,0.72 2.39,0.72 0.946,0 1.736,-0.24 2.37,-0.72 z m -0.31,-6.72 c 0.56,-0.4 0.84,-0.934 0.84,-1.601 0,-0.68 -0.277,-1.223 -0.83,-1.63 -0.554,-0.406 -1.243,-0.609 -2.07,-0.609 -0.84,0 -1.533,0.203 -2.08,0.609 -0.547,0.407 -0.819,0.95 -0.819,1.63 0,0.681 0.272,1.224 0.819,1.631 0.547,0.406 1.24,0.609 2.08,0.609 0.813,-0.025 1.5,-0.239 2.06,-0.639 z"
   id="path184" />
					<path
   fill="#00b9d2"
   d="m 665.459,51.952 c -0.087,-0.087 -0.13,-0.196 -0.13,-0.33 v -9.48 c 0,-0.133 0.043,-0.243 0.13,-0.329 0.087,-0.087 0.196,-0.131 0.33,-0.131 h 0.84 c 0.134,0 0.24,0.044 0.32,0.131 0.08,0.086 0.12,0.196 0.12,0.329 v 0.681 c 0.72,-0.894 1.693,-1.34 2.92,-1.34 1.467,0 2.507,0.613 3.12,1.84 0.319,-0.561 0.776,-1.007 1.37,-1.34 0.593,-0.334 1.256,-0.5 1.989,-0.5 1.094,0 1.987,0.373 2.681,1.119 0.692,0.747 1.04,1.827 1.04,3.24 v 5.78 c 0,0.134 -0.044,0.243 -0.13,0.33 -0.087,0.087 -0.197,0.13 -0.33,0.13 h -0.86 c -0.134,0 -0.243,-0.043 -0.33,-0.13 -0.087,-0.087 -0.13,-0.196 -0.13,-0.33 v -5.6 c 0,-1.067 -0.22,-1.83 -0.66,-2.29 -0.439,-0.46 -1.02,-0.69 -1.74,-0.69 -0.64,0 -1.189,0.237 -1.649,0.71 -0.46,0.474 -0.69,1.23 -0.69,2.271 v 5.6 c 0,0.134 -0.043,0.243 -0.13,0.33 -0.087,0.087 -0.197,0.13 -0.33,0.13 h -0.88 c -0.134,0 -0.243,-0.043 -0.33,-0.13 -0.087,-0.087 -0.13,-0.196 -0.13,-0.33 v -5.6 c 0,-1.054 -0.23,-1.813 -0.69,-2.28 -0.46,-0.467 -1.029,-0.7 -1.71,-0.7 -0.64,0 -1.189,0.233 -1.649,0.7 -0.46,0.467 -0.69,1.22 -0.69,2.26 v 5.62 c 0,0.134 -0.043,0.243 -0.13,0.33 -0.087,0.087 -0.197,0.13 -0.33,0.13 h -0.88 c -0.135,-10e-4 -0.245,-0.044 -0.332,-0.131 z"
   id="path186" />
					<path
   fill="#00b9d2"
   d="m 683.219,51.952 c -0.087,-0.087 -0.13,-0.196 -0.13,-0.33 v -9.48 c 0,-0.133 0.043,-0.243 0.13,-0.329 0.087,-0.087 0.196,-0.131 0.33,-0.131 h 0.84 c 0.134,0 0.24,0.044 0.32,0.131 0.08,0.086 0.12,0.196 0.12,0.329 v 0.681 c 0.72,-0.894 1.693,-1.34 2.92,-1.34 1.467,0 2.507,0.613 3.12,1.84 0.319,-0.561 0.776,-1.007 1.37,-1.34 0.593,-0.334 1.256,-0.5 1.989,-0.5 1.094,0 1.987,0.373 2.681,1.119 0.692,0.747 1.04,1.827 1.04,3.24 v 5.78 c 0,0.134 -0.044,0.243 -0.13,0.33 -0.087,0.087 -0.197,0.13 -0.33,0.13 h -0.86 c -0.134,0 -0.243,-0.043 -0.33,-0.13 -0.087,-0.087 -0.13,-0.196 -0.13,-0.33 v -5.6 c 0,-1.067 -0.22,-1.83 -0.66,-2.29 -0.439,-0.46 -1.02,-0.69 -1.74,-0.69 -0.64,0 -1.189,0.237 -1.649,0.71 -0.46,0.474 -0.69,1.23 -0.69,2.271 v 5.6 c 0,0.134 -0.043,0.243 -0.13,0.33 -0.087,0.087 -0.197,0.13 -0.33,0.13 h -0.88 c -0.134,0 -0.243,-0.043 -0.33,-0.13 -0.087,-0.087 -0.13,-0.196 -0.13,-0.33 v -5.6 c 0,-1.054 -0.23,-1.813 -0.69,-2.28 -0.46,-0.467 -1.029,-0.7 -1.71,-0.7 -0.64,0 -1.189,0.233 -1.649,0.7 -0.46,0.467 -0.69,1.22 -0.69,2.26 v 5.62 c 0,0.134 -0.043,0.243 -0.13,0.33 -0.087,0.087 -0.197,0.13 -0.33,0.13 h -0.88 c -0.135,-10e-4 -0.245,-0.044 -0.332,-0.131 z"
   id="path188" />
				</g>
			</g>
		</g>
		<g
   id="g227">
			<g
   id="POLYLINE_00000116924675253732355010000017666431096895210654_">
				
					<polyline
   fill="none"
   stroke="#00b9d2"
   stroke-width="2"
   stroke-linecap="round"
   stroke-linejoin="round"
   stroke-miterlimit="10"
   points="      778.198,647.655 783.925,641.928 778.198,636.201     "
   id="polyline195" />
			</g>
			<g
   id="POLYLINE_00000071556819910318492310000009461162786885224111_">
				
					<line
   fill="none"
   stroke="#00b9d2"
   stroke-width="2"
   stroke-linecap="round"
   stroke-linejoin="round"
   stroke-miterlimit="10"
   x1="783.00897"
   y1="641.92798"
   x2="755.31897"
   y2="641.92798"
   id="line198" />
			</g>
			<g
   id="POLYLINE_00000137846983776432314920000005321848929798188704_">
				
					<polyline
   fill="none"
   stroke="#00b9d2"
   stroke-width="2"
   stroke-linecap="round"
   stroke-linejoin="round"
   stroke-miterlimit="10"
   points="      761.058,647.644 755.331,641.917 761.058,636.191     "
   id="polyline201" />
			</g>
			<g
   id="MTEXT_00000099650860099369864560000008678034930790800265_"
   opacity="0.98">
				<g
   id="g224">
					<path
   fill="#00b9d2"
   d="m 794.839,648.951 c -0.087,-0.087 -0.13,-0.196 -0.13,-0.33 v -1.38 c 0,-0.133 0.043,-0.247 0.13,-0.34 0.086,-0.094 0.196,-0.141 0.33,-0.141 h 1.38 c 0.133,0 0.243,0.047 0.33,0.141 0.086,0.093 0.13,0.207 0.13,0.34 v 1.38 c 0,0.134 -0.044,0.243 -0.13,0.33 -0.087,0.087 -0.197,0.13 -0.33,0.13 h -1.38 c -0.133,0 -0.244,-0.043 -0.33,-0.13 z"
   id="path204" />
					<path
   fill="#00b9d2"
   d="m 801.569,648.771 c -0.76,-0.341 -1.337,-0.783 -1.729,-1.33 -0.394,-0.547 -0.604,-1.113 -0.63,-1.7 0,-0.12 0.04,-0.217 0.12,-0.29 0.079,-0.073 0.18,-0.11 0.3,-0.11 h 0.899 c 0.146,0 0.267,0.03 0.36,0.09 0.093,0.061 0.167,0.178 0.22,0.351 0.174,0.68 0.55,1.16 1.13,1.439 0.58,0.28 1.264,0.42 2.051,0.42 0.96,0 1.723,-0.229 2.29,-0.689 0.566,-0.46 0.85,-1.116 0.85,-1.97 0,-1.627 -0.993,-2.44 -2.98,-2.44 h -1.88 c -0.133,0 -0.243,-0.043 -0.33,-0.13 -0.087,-0.087 -0.13,-0.196 -0.13,-0.33 v -0.52 c 0,-0.2 0.073,-0.374 0.221,-0.521 l 3.899,-4.32 h -5.92 c -0.134,0 -0.243,-0.04 -0.33,-0.12 -0.087,-0.079 -0.13,-0.187 -0.13,-0.319 v -0.72 c 0,-0.147 0.043,-0.264 0.13,-0.351 0.087,-0.087 0.196,-0.13 0.33,-0.13 h 7.92 c 0.146,0 0.264,0.043 0.351,0.13 0.086,0.087 0.13,0.203 0.13,0.351 v 0.659 c 0,0.147 -0.067,0.301 -0.2,0.46 l -3.9,4.381 h 0.32 c 1.36,0.039 2.437,0.393 3.229,1.06 0.794,0.667 1.19,1.64 1.19,2.92 0,0.88 -0.217,1.637 -0.65,2.271 -0.433,0.633 -1.036,1.119 -1.81,1.46 -0.773,0.34 -1.646,0.51 -2.62,0.51 -1.041,-0.002 -1.94,-0.172 -2.701,-0.512 z"
   id="path206" />
					<path
   fill="#00b9d2"
   d="m 811.419,648.951 c -0.087,-0.087 -0.13,-0.196 -0.13,-0.33 v -0.6 c 0,-0.307 0.166,-0.601 0.5,-0.881 l 4.359,-4.34 c 0.986,-0.84 1.667,-1.526 2.04,-2.06 0.373,-0.534 0.561,-1.101 0.561,-1.7 0,-0.786 -0.221,-1.403 -0.66,-1.85 -0.44,-0.447 -1.08,-0.67 -1.92,-0.67 -0.801,0 -1.434,0.233 -1.9,0.699 -0.467,0.467 -0.753,1.094 -0.86,1.88 -0.026,0.147 -0.093,0.261 -0.199,0.341 -0.107,0.08 -0.214,0.12 -0.32,0.12 h -0.96 c -0.12,0 -0.22,-0.04 -0.3,-0.12 -0.08,-0.08 -0.12,-0.174 -0.12,-0.28 0.026,-0.707 0.217,-1.39 0.569,-2.05 0.354,-0.66 0.877,-1.2 1.57,-1.62 0.693,-0.42 1.533,-0.63 2.521,-0.63 1.493,0 2.616,0.39 3.37,1.17 0.753,0.78 1.13,1.77 1.13,2.97 0,0.84 -0.204,1.597 -0.61,2.271 -0.407,0.673 -1.043,1.383 -1.91,2.13 l -3.939,4 h 6.3 c 0.146,0 0.26,0.04 0.34,0.12 0.08,0.079 0.12,0.193 0.12,0.34 v 0.76 c 0,0.134 -0.044,0.243 -0.13,0.33 -0.087,0.087 -0.197,0.13 -0.33,0.13 h -8.76 c -0.135,0 -0.246,-0.043 -0.332,-0.13 z"
   id="path208" />
					<path
   fill="#00b9d2"
   d="m 823.199,638.562 c -0.06,-0.08 -0.077,-0.181 -0.05,-0.301 l 0.439,-2.8 c 0.054,-0.387 0.24,-0.58 0.561,-0.58 h 1.28 c 0.093,0 0.17,0.033 0.229,0.101 0.061,0.066 0.09,0.146 0.09,0.239 0,0.134 -0.02,0.24 -0.06,0.32 l -1.04,2.7 c -0.067,0.146 -0.141,0.257 -0.22,0.33 -0.08,0.073 -0.2,0.109 -0.36,0.109 h -0.62 c -0.106,0.001 -0.19,-0.039 -0.249,-0.118 z m 3.139,0 c -0.06,-0.08 -0.076,-0.181 -0.05,-0.301 l 0.44,-2.8 c 0.053,-0.387 0.24,-0.58 0.56,-0.58 h 1.28 c 0.093,0 0.17,0.033 0.229,0.101 0.061,0.066 0.091,0.146 0.091,0.239 0,0.134 -0.021,0.24 -0.061,0.32 l -1.04,2.7 c -0.066,0.146 -0.14,0.257 -0.22,0.33 -0.08,0.073 -0.2,0.109 -0.36,0.109 h -0.62 c -0.105,0.001 -0.188,-0.039 -0.249,-0.118 z"
   id="path210" />
					<path
   fill="#00b9d2"
   d="m 836.208,653.111 c -0.08,-0.087 -0.12,-0.197 -0.12,-0.33 v -21.16 c 0,-0.133 0.04,-0.243 0.12,-0.33 0.08,-0.087 0.187,-0.13 0.32,-0.13 h 0.739 c 0.134,0 0.243,0.043 0.33,0.13 0.087,0.087 0.13,0.197 0.13,0.33 v 21.16 c 0,0.133 -0.043,0.243 -0.13,0.33 -0.087,0.086 -0.196,0.13 -0.33,0.13 h -0.739 c -0.133,0 -0.239,-0.044 -0.32,-0.13 z"
   id="path212" />
					<path
   fill="#00b9d2"
   d="m 847.758,648.771 c -0.793,-0.341 -1.41,-0.83 -1.85,-1.471 -0.44,-0.64 -0.66,-1.387 -0.66,-2.239 0,-0.787 0.196,-1.477 0.59,-2.07 0.394,-0.593 0.923,-1.05 1.59,-1.37 -0.533,-0.307 -0.946,-0.71 -1.24,-1.21 -0.293,-0.5 -0.439,-1.09 -0.439,-1.771 0,-1.159 0.433,-2.076 1.3,-2.75 0.866,-0.673 2.007,-1.01 3.42,-1.01 1.413,0 2.55,0.334 3.41,1 0.86,0.667 1.29,1.587 1.29,2.76 0,0.667 -0.146,1.25 -0.44,1.75 -0.293,0.5 -0.699,0.91 -1.22,1.23 0.667,0.32 1.196,0.776 1.59,1.37 0.394,0.594 0.59,1.29 0.59,2.09 0,0.854 -0.22,1.597 -0.659,2.23 -0.44,0.633 -1.058,1.119 -1.851,1.46 -0.793,0.34 -1.696,0.51 -2.71,0.51 -1.014,0 -1.918,-0.169 -2.711,-0.509 z m 5.08,-1.77 c 0.633,-0.479 0.95,-1.12 0.95,-1.92 0,-0.8 -0.317,-1.44 -0.95,-1.92 -0.634,-0.48 -1.424,-0.72 -2.37,-0.72 -0.96,0 -1.757,0.239 -2.39,0.72 -0.634,0.479 -0.95,1.12 -0.95,1.92 0,0.8 0.316,1.44 0.95,1.92 0.633,0.48 1.43,0.72 2.39,0.72 0.947,0 1.737,-0.24 2.37,-0.72 z m -0.309,-6.72 c 0.56,-0.4 0.84,-0.934 0.84,-1.601 0,-0.68 -0.277,-1.223 -0.83,-1.63 -0.554,-0.406 -1.243,-0.609 -2.07,-0.609 -0.84,0 -1.533,0.203 -2.08,0.609 -0.547,0.407 -0.819,0.95 -0.819,1.63 0,0.681 0.272,1.224 0.819,1.631 0.547,0.406 1.24,0.609 2.08,0.609 0.813,-0.025 1.499,-0.239 2.06,-0.639 z"
   id="path214" />
					<path
   fill="#00b9d2"
   d="m 858.098,648.951 c -0.087,-0.087 -0.13,-0.196 -0.13,-0.33 v -1.38 c 0,-0.133 0.043,-0.247 0.13,-0.34 0.086,-0.094 0.196,-0.141 0.33,-0.141 h 1.38 c 0.133,0 0.243,0.047 0.33,0.141 0.086,0.093 0.13,0.207 0.13,0.34 v 1.38 c 0,0.134 -0.044,0.243 -0.13,0.33 -0.087,0.087 -0.197,0.13 -0.33,0.13 h -1.38 c -0.134,0 -0.244,-0.043 -0.33,-0.13 z"
   id="path216" />
					<path
   fill="#00b9d2"
   d="m 865.468,648.951 c -0.08,-0.087 -0.12,-0.196 -0.12,-0.33 v -11.28 l -3.36,2.58 c -0.093,0.08 -0.193,0.12 -0.3,0.12 -0.12,0 -0.233,-0.066 -0.34,-0.2 l -0.48,-0.62 c -0.066,-0.093 -0.1,-0.187 -0.1,-0.279 0,-0.146 0.066,-0.267 0.2,-0.36 l 4.34,-3.36 c 0.146,-0.093 0.32,-0.14 0.52,-0.14 h 0.94 c 0.133,0 0.243,0.043 0.33,0.13 0.087,0.087 0.13,0.197 0.13,0.33 v 13.08 c 0,0.134 -0.043,0.243 -0.13,0.33 -0.087,0.087 -0.197,0.13 -0.33,0.13 h -0.98 c -0.133,-10e-4 -0.24,-0.044 -0.32,-0.131 z"
   id="path218" />
					<path
   fill="#00b9d2"
   d="m 875.318,648.951 c -0.087,-0.087 -0.13,-0.196 -0.13,-0.33 v -9.48 c 0,-0.133 0.043,-0.243 0.13,-0.329 0.087,-0.087 0.196,-0.131 0.33,-0.131 h 0.84 c 0.134,0 0.24,0.044 0.32,0.131 0.08,0.086 0.12,0.196 0.12,0.329 v 0.681 c 0.72,-0.894 1.693,-1.34 2.92,-1.34 1.467,0 2.507,0.613 3.12,1.84 0.319,-0.561 0.776,-1.007 1.37,-1.34 0.593,-0.334 1.256,-0.5 1.989,-0.5 1.094,0 1.987,0.373 2.681,1.119 0.692,0.747 1.04,1.827 1.04,3.24 v 5.78 c 0,0.134 -0.044,0.243 -0.13,0.33 -0.087,0.087 -0.197,0.13 -0.33,0.13 h -0.86 c -0.134,0 -0.243,-0.043 -0.33,-0.13 -0.087,-0.087 -0.13,-0.196 -0.13,-0.33 v -5.6 c 0,-1.067 -0.22,-1.83 -0.66,-2.29 -0.439,-0.46 -1.02,-0.69 -1.74,-0.69 -0.64,0 -1.189,0.237 -1.649,0.71 -0.46,0.474 -0.69,1.23 -0.69,2.271 v 5.6 c 0,0.134 -0.043,0.243 -0.13,0.33 -0.087,0.087 -0.197,0.13 -0.33,0.13 h -0.88 c -0.134,0 -0.243,-0.043 -0.33,-0.13 -0.087,-0.087 -0.13,-0.196 -0.13,-0.33 v -5.6 c 0,-1.054 -0.23,-1.813 -0.69,-2.28 -0.46,-0.467 -1.029,-0.7 -1.71,-0.7 -0.64,0 -1.189,0.233 -1.649,0.7 -0.46,0.467 -0.69,1.22 -0.69,2.26 v 5.62 c 0,0.134 -0.043,0.243 -0.13,0.33 -0.087,0.087 -0.197,0.13 -0.33,0.13 h -0.88 c -0.136,-10e-4 -0.245,-0.044 -0.332,-0.131 z"
   id="path220" />
					<path
   fill="#00b9d2"
   d="m 893.077,648.951 c -0.087,-0.087 -0.13,-0.196 -0.13,-0.33 v -9.48 c 0,-0.133 0.043,-0.243 0.13,-0.329 0.087,-0.087 0.196,-0.131 0.33,-0.131 h 0.84 c 0.134,0 0.24,0.044 0.32,0.131 0.08,0.086 0.12,0.196 0.12,0.329 v 0.681 c 0.72,-0.894 1.693,-1.34 2.92,-1.34 1.467,0 2.507,0.613 3.12,1.84 0.319,-0.561 0.776,-1.007 1.37,-1.34 0.593,-0.334 1.256,-0.5 1.989,-0.5 1.094,0 1.987,0.373 2.681,1.119 0.692,0.747 1.04,1.827 1.04,3.24 v 5.78 c 0,0.134 -0.044,0.243 -0.13,0.33 -0.087,0.087 -0.197,0.13 -0.33,0.13 h -0.86 c -0.134,0 -0.243,-0.043 -0.33,-0.13 -0.087,-0.087 -0.13,-0.196 -0.13,-0.33 v -5.6 c 0,-1.067 -0.22,-1.83 -0.66,-2.29 -0.439,-0.46 -1.02,-0.69 -1.74,-0.69 -0.64,0 -1.189,0.237 -1.649,0.71 -0.46,0.474 -0.69,1.23 -0.69,2.271 v 5.6 c 0,0.134 -0.043,0.243 -0.13,0.33 -0.087,0.087 -0.197,0.13 -0.33,0.13 h -0.88 c -0.134,0 -0.243,-0.043 -0.33,-0.13 -0.087,-0.087 -0.13,-0.196 -0.13,-0.33 v -5.6 c 0,-1.054 -0.23,-1.813 -0.69,-2.28 -0.46,-0.467 -1.029,-0.7 -1.71,-0.7 -0.64,0 -1.189,0.233 -1.649,0.7 -0.46,0.467 -0.69,1.22 -0.69,2.26 v 5.62 c 0,0.134 -0.043,0.243 -0.13,0.33 -0.087,0.087 -0.197,0.13 -0.33,0.13 h -0.88 c -0.136,-10e-4 -0.245,-0.044 -0.332,-0.131 z"
   id="path222" />
				</g>
			</g>
		</g>
	</g>
</g>



<path
   fill="none"
   stroke="#00b9d2"
   stroke-width="2"
   stroke-linecap="round"
   stroke-linejoin="round"
   stroke-miterlimit="10"
   d="m 7.779,503.85133 c -0.021,12.593 6.832,24.377 17.824,30.576 3.979,2.254 8.412,3.724 12.95,4.289 1.178,0.14 2.398,0.242 3.584,0.263 0.199,-0.003 0.582,0.014 0.78,0.009 0.391,-0.002 187.887,0.004 188.245,-0.002 0.001,0 0.392,-0.007 0.392,-0.007 0,0 0.392,-0.011 0.392,-0.011 0,0 0.394,-0.015 0.394,-0.015 0,0 0.396,-0.02 0.396,-0.02 2.6,-0.146 5.203,-0.584 7.706,-1.302 9.535,-2.704 17.635,-9.507 21.941,-18.435 2.314,-4.76 3.533,-10.054 3.528,-15.346 -0.002,-0.391 0.004,-462.816999 -0.002,-463.174999 0,-10e-4 -0.007,-0.392 -0.007,-0.392 0,0 -0.011,-0.392 -0.011,-0.392 l -0.015,-0.394 -0.02,-0.396 c -0.107,-1.892 -0.369,-3.807 -0.781,-5.658 -1.173,-5.296 -3.6,-10.319 -7.022,-14.527 -3.956,-4.884 -9.256,-8.673 -15.158,-10.8340003 -2.112,-0.773 -4.32,-1.356 -6.542,-1.711 -1.187,-0.183 -2.418,-0.329 -3.617,-0.391 0,0 -0.396,-0.02 -0.396,-0.02 -0.346,-0.029 -0.83,-0.019 -1.177,-0.033 -0.847,-0.24 -187.765,0.166 -188.635,-10e-4 0,10e-4 -0.391,0.007 -0.391,0.007 0,0 -0.392,0.011 -0.392,0.011 0,0 -0.394,0.015 -0.394,0.015 0,0 -0.396,0.02 -0.396,0.02 -7.933,0.425 -15.677,3.65 -21.565,8.9840003 -3.678,3.313 -6.648,7.42 -8.637,11.953 -0.918,2.093 -1.643,4.294 -2.137,6.526 -0.2,0.935 -0.386,1.906 -0.511,2.852 -0.158,1.185 -0.268,2.402 -0.305,3.596 -0.498,0.385 0.316,463.288999 -0.021,463.960999 z"
   id="path235"
   style="stroke:#000000;stroke-opacity:1" /><path
   fill="none"
   stroke="#00b9d2"
   stroke-width="2"
   stroke-linecap="round"
   stroke-linejoin="round"
   stroke-miterlimit="10"
   d="m 166.734,18.421331 c 0.002,-0.756 -0.257,-1.51 -0.723,-2.106 -0.463,-0.598 -1.13,-1.034 -1.864,-1.218 -2.152,-0.544 -4.249,1.074 -4.269,3.293 -0.018,2.244 2.093,3.902 4.269,3.353 0.733,-0.184 1.401,-0.62 1.864,-1.218 0.466,-0.594 0.724,-1.348 0.723,-2.104 z"
   id="path247"
   style="stroke:#000000;stroke-opacity:1" />
<path
   fill="none"
   stroke="#00b9d2"
   stroke-width="2.5"
   stroke-linecap="round"
   stroke-linejoin="round"
   stroke-miterlimit="10"
   d="M 73.043,16.553331 H 42.917 c 0,0 -0.271,0.002 -0.271,0.002 -0.532,0.015 -1.12,0.025 -1.652,0.074 -1.724,0.137 -3.45,0.457 -5.107,0.954 -7.244,2.149 -13.194,7.672 -15.87,14.742 -0.629,1.652 -1.085,3.382 -1.344,5.13 -0.105,0.738 -0.191,1.497 -0.229,2.24 -0.022,0.443 -0.04,0.926 -0.038,1.369 0.024,1.098 -0.047,462.870999 0.024,463.876999 0.068,1.514 0.278,3.038 0.624,4.511 0.436,1.856 1.094,3.677 1.949,5.381 1.972,3.946 5.038,7.342 8.764,9.703 3.902,2.486 8.522,3.833 13.149,3.825 0,0 187.857,0 187.857,0 0,0 0.271,-0.002 0.271,-0.002 0.228,-0.014 0.589,-0.004 0.821,-0.023 0,0 0.276,-0.014 0.276,-0.014 0,0 0.277,-0.017 0.277,-0.017 0,0 0.278,-0.02 0.278,-0.02 0,0 0.279,-0.024 0.279,-0.024 0,0 0.28,-0.027 0.28,-0.027 1.336,-0.138 2.681,-0.385 3.976,-0.74 5.113,-1.386 9.74,-4.487 12.963,-8.691 2.061,-2.676 3.563,-5.787 4.372,-9.066 0.364,-1.478 0.595,-2.999 0.679,-4.518 0.437,-0.789 -0.233,-463.336999 0.038,-464.426999 -0.011,-0.627 -0.039,-1.306 -0.098,-1.932 -0.301,-3.355 -1.307,-6.652 -2.931,-9.603 -2.95,-5.407 -8.016,-9.606 -13.879,-11.497 -1.835,-0.597 -3.753,-0.983 -5.678,-1.133 -0.631,-0.04 -1.292,-0.082 -1.924,-0.076 -0.095,10e-4 -30.133,-0.002 -30.22,10e-4 -0.136,0.001 -0.277,0.013 -0.411,0.026 -0.594,0.063 -1.183,0.273 -1.65,0.652 -0.899,0.73 -1.258,1.894 -1.418,3 -0.582,4.984 -2.365,10.4 -7.211,12.708 -1.274,0.614 -2.666,0.969 -4.068,1.125 -0.51,0.057 -1.039,0.09 -1.551,0.1 -0.088,0.002 -0.27,0.003 -0.358,0.003 0,0 -47.041,0 -47.041,0 H 89.804 c 0,0 -0.18,-10e-4 -0.18,-10e-4 l -0.178,-0.003 c -0.511,-0.01 -1.043,-0.042 -1.551,-0.1 -1.402,-0.156 -2.795,-0.512 -4.068,-1.125 -4.844,-2.307 -6.629,-7.722 -7.211,-12.708 -0.291,-2.084 -1.274,-3.684 -3.573,-3.676 z"
   id="path428"
   style="stroke:#000000;stroke-opacity:1" /><path
   fill="none"
   stroke="#00b9d2"
   stroke-width="2.5"
   stroke-linecap="round"
   stroke-linejoin="round"
   stroke-miterlimit="10"
   d="m 3.494,503.85133 c -0.023,13.774 7.288,26.717 19.131,33.799 4.159,2.497 8.795,4.223 13.576,5.047 1.334,0.223 2.72,0.402 4.069,0.487 0.559,0.027 1.213,0.074 1.772,0.079 0,0 0.438,0.007 0.438,0.007 0,0 0.437,0.002 0.437,0.002 0.439,-0.002 187.891,0.005 188.293,-0.002 2.72,-0.031 5.459,-0.345 8.113,-0.936 8.942,-1.963 17.122,-7.165 22.688,-14.434 3.7,-4.8 6.272,-10.472 7.44,-16.419 0.378,-1.929 0.62,-3.91 0.707,-5.874 0.008,-0.413 0.039,-0.914 0.037,-1.321 0.008,-0.723 0.002,-462.935999 0,-463.659999 -0.06,-5.791 -1.423,-11.573 -3.956,-16.781 -6.062,-12.535 -18.471,-21.0120003 -32.37,-22.0840003 -0.866,-0.052 -1.79,-0.121 -2.657,-0.119 -0.306,-0.326 -187.926,0.23 -188.294,-0.003 -1.315,0.006 -2.682,0.067 -3.992,0.203 -1.674,0.174 -3.378,0.453 -5.016,0.84 -4.454,1.045 -8.736,2.878 -12.564,5.383 C 14.85,12.299331 9.657,18.501331 6.636,25.643331 c -1.121,2.641 -1.961,5.424 -2.482,8.245 -0.326,1.78 -0.54,3.608 -0.619,5.416 -0.008,0.413 -0.039,0.914 -0.037,1.321 -0.267,0.211 0.185,462.925999 -0.004,463.225999 z"
   id="path431"
   style="stroke:#000000;stroke-opacity:1" /><path
   fill="none"
   stroke="#00b9d2"
   stroke-width="2.5"
   stroke-linecap="round"
   stroke-linejoin="round"
   stroke-miterlimit="10"
   d="m 121.847,18.421331 c -0.006,-0.776 0.503,-1.501 1.236,-1.758 0.192,-0.069 0.396,-0.106 0.6,-0.11 0.094,0 26.265,-0.002 26.357,0.001 0.106,0.004 0.216,0.017 0.32,0.039 0.241,0.051 0.474,0.15 0.677,0.291 0.622,0.422 0.934,1.221 0.76,1.953 -0.12,0.536 -0.489,1.009 -0.982,1.253 -0.182,0.092 -0.38,0.153 -0.582,0.181 -0.074,0.01 -0.151,0.016 -0.225,0.018 -0.153,-0.006 -26.246,0.008 -26.389,-0.002 -0.182,-0.009 -0.364,-0.046 -0.536,-0.108 -0.732,-0.257 -1.242,-0.982 -1.236,-1.758 z"
   id="path437"
   style="stroke:#000000;stroke-opacity:1" /><rect
   x="1.6270019"
   y="70.237328"
   fill="none"
   stroke="#00b9d2"
   stroke-width="2.5"
   stroke-linecap="round"
   stroke-linejoin="round"
   stroke-miterlimit="10"
   width="1.868"
   height="19.377001"
   id="rect440"
   style="stroke:#000000;stroke-opacity:1" /><rect
   x="1.6270019"
   y="106.94334"
   fill="none"
   stroke="#00b9d2"
   stroke-width="2.5"
   stroke-linecap="round"
   stroke-linejoin="round"
   stroke-miterlimit="10"
   width="1.868"
   height="34.280998"
   id="rect443"
   style="stroke:#000000;stroke-opacity:1" /><rect
   x="1.6270019"
   y="150.20134"
   fill="none"
   stroke="#00b9d2"
   stroke-width="2.5"
   stroke-linecap="round"
   stroke-linejoin="round"
   stroke-miterlimit="10"
   width="1.868"
   height="34.280998"
   id="rect446"
   style="stroke:#000000;stroke-opacity:1" /><rect
   x="270.19699"
   y="114.75832"
   fill="none"
   stroke="#00b9d2"
   stroke-width="2.5"
   stroke-linecap="round"
   stroke-linejoin="round"
   stroke-miterlimit="10"
   width="1.868"
   height="58.132"
   id="rect449"
   style="stroke:#000000;stroke-opacity:1" />
<path
   fill="none"
   stroke="#00b9d2"
   stroke-width="3.25"
   stroke-linecap="round"
   stroke-linejoin="round"
   stroke-miterlimit="10"
   d="m 3.494,70.237331 v -29.174 c 0,0 0.002,-0.437 0.002,-0.437 0.02,-0.555 0.018,-1.211 0.059,-1.765 0.111,-1.968 0.372,-3.959 0.777,-5.889 1.82,-8.785 6.757,-16.878 13.736,-22.516 6.495,-5.2940003 14.718,-8.4210003 23.091,-8.7780003 11.286,-0.106 183.934,-0.017 190.49,-0.03 1.481,0.033 3.006,0.154 4.474,0.355 3.943,0.539 7.819,1.687 11.421,3.38 5.344,2.508 10.118,6.2440003 13.836,10.8300003 3.136,3.86 5.537,8.333 7.02,13.081 0.604,1.937 1.07,3.955 1.367,5.962 0.194,1.325 0.333,2.708 0.39,4.047 0.008,0.547 0.051,1.209 0.039,1.757 0,0 0,2.896 0,2.896 v 70.798999 h 1.868 v 58.132 h -1.868 c -0.01,0.879 0.019,331.027 -0.01,331.833 -0.029,1.178 -0.107,2.403 -0.242,3.571 -0.228,1.996 -0.612,4.006 -1.142,5.944 -1.08,3.955 -2.789,7.754 -5.033,11.185 -4.233,6.497 -10.436,11.689 -17.578,14.71 -3.628,1.542 -7.504,2.539 -11.427,2.938 -1.313,0.133 -2.673,0.203 -3.992,0.203 0,0 -179.908,0 -179.908,0 h -7.949 c -0.373,-0.003 -0.938,-0.007 -1.315,-0.022 -3.858,-0.128 -7.714,-0.832 -11.369,-2.074 -7.954,-2.685 -14.99,-7.999 -19.748,-14.915 -3.239,-4.682 -5.448,-10.085 -6.414,-15.695 -0.279,-1.626 -0.465,-3.31 -0.537,-4.959 -0.002,-0.384 -0.043,-0.935 -0.037,-1.321 -0.335,-0.54 0.237,-319.269 -0.002,-319.805 H 1.625 v -34.281 h 1.868 v -8.975 H 1.625 v -34.281 H 3.493 V 89.615331 H 1.625 v -19.377 h 1.869 z"
   id="path549"
   style="stroke:#000000;stroke-opacity:1" />
</svg>
