<?xml version="1.0" encoding="UTF-8" standalone="no"?>
<svg
   xmlns:ns="&amp;#38;#38;ns_sfw;"
   xmlns:dc="http://purl.org/dc/elements/1.1/"
   xmlns:cc="http://creativecommons.org/ns#"
   xmlns:rdf="http://www.w3.org/1999/02/22-rdf-syntax-ns#"
   xmlns:svg="http://www.w3.org/2000/svg"
   xmlns="http://www.w3.org/2000/svg"
   xmlns:sodipodi="http://sodipodi.sourceforge.net/DTD/sodipodi-0.dtd"
   xmlns:inkscape="http://www.inkscape.org/namespaces/inkscape"
   version="1.1"
   x="0px"
   y="0px"
   width="254.28"
   height="509.65286"
   viewBox="0 0 254.28 509.65286"
   enable-background="new 0 0 1000 653"
   xml:space="preserve"
   id="svg602"
   sodipodi:docname="13_mini_ns.svg"
   inkscape:version="1.0.1 (3bc2e813f5, 2020-09-07)"><defs
   id="defs606">



	
	
	
	
	
	

	
	
	
	
	
	
	
	
	
	
	
	
	
	
	
	
	
	
	
	
	
	
	
	
	
	
	
	
	
	
	
	
	
	
	
	
	
	
	
	
	
	
	
	
	
	
	
	
	
	
	

	
	
	
	
	
	
	
	
	
	
	
	
	
	
	
	
	
	
	
	
	
	
	
	
	
	
	
	
	
	
	
	
	
	
	
	
	
	
	
	
	
	
	
	
	
	
	
	
	
	
	
	
	
	
	
	





		
			
	
		
			
	
		
			
	
		
			
	
		
			
	
		
			
	
		
			
	
		
			
	
		
			
	
		
			
	
		
			
	
		
			
	
		
			
	
		
			
	
		
			
	
		
			
	
		
			
	
		
			
	
		
			
	
		
			
	
		
			
	
		
			
	
		
			
	
		
			
	
		
			
	
		
			
	
		
			
	
		
			
	
		
			
	
		
			
	
		
			
	
		
			
	
		
			
	
		
			
	
		
			
	
		
			
	
		
			
	
		
			
	
		
			
	
		
			
	
		
			
	
		
			
	
		
			
	
		
			
	
		
			
	
		
			
	
		
			
	
		
			
	
		
			
	
		
			
	
		
			
	
		
			
	
		
			
	
		
			
	
		
			
	
		
			
	
		
			
	
		
	
		
			
	
		
			
	
		
			
	
		
			
	
		
			
	
		
			
	
		
			
	
		
			
	
		
			
	
		
			
	
		
			
	
		
			
	
		
	
		
	
		
	
		
	
		
	
		
			
	
		
			
	
		
			
	
		
			
	
		
	
		
			
	
		
			
	
		
			
	
		
			
	
		
	
		
	
		
			
	
		
			
	
		
			
	
		
			
	
		
	
		
	
		
	
		
	
		
	
		
	
		
	
		
	
		
	
		
			
	
		
			
	
		
			
	
		
			
	
		
			
	
		
			
	
		
			
	
		
			
	
		
	
		
			
	
		
			
	
		
			
	
		
			
	
		
	</defs><sodipodi:namedview
   pagecolor="#ffffff"
   bordercolor="#666666"
   borderopacity="1"
   objecttolerance="10"
   gridtolerance="10"
   guidetolerance="10"
   inkscape:pageopacity="0"
   inkscape:pageshadow="2"
   inkscape:window-width="1920"
   inkscape:window-height="1001"
   id="namedview604"
   showgrid="false"
   inkscape:zoom="1.728169"
   inkscape:cx="170.06282"
   inkscape:cy="364.66676"
   inkscape:window-x="-9"
   inkscape:window-y="-9"
   inkscape:window-maximized="1"
   inkscape:current-layer="svg602"
   inkscape:document-rotation="0" />
<metadata
   id="metadata2">
	<ns:sfw>
		<ns:slices />
		<ns:sliceSourceBounds
   bottomLeftOrigin="true"
   height="4992.337"
   width="5667.718"
   x="-1936.163"
   y="1158.999" />
	</ns:sfw>
<rdf:RDF><cc:Work
     rdf:about=""><dc:format>image/svg+xml</dc:format><dc:type
       rdf:resource="http://purl.org/dc/dcmitype/StillImage" /><dc:title></dc:title></cc:Work></rdf:RDF></metadata>

<g
   id="N-DIMENSIONS"
   display="none"
   transform="translate(-71.723,-71.673525)">
	<g
   display="inline"
   id="g251">
		<g
   id="g58">
			<g
   id="MTEXT_12_">
				<g
   id="g43">
					<g
   id="g41">
						<path
   fill="#00b9d2"
   d="m 130.577,298.302 c -0.733,-0.36 -1.293,-0.83 -1.68,-1.41 -0.387,-0.58 -0.594,-1.203 -0.62,-1.87 v -0.04 c 0,-0.106 0.04,-0.193 0.12,-0.26 0.08,-0.067 0.173,-0.1 0.28,-0.1 h 0.979 c 0.28,0 0.46,0.146 0.54,0.439 0.2,0.72 0.57,1.257 1.11,1.61 0.54,0.353 1.163,0.529 1.87,0.529 0.906,0 1.66,-0.276 2.26,-0.829 0.6,-0.554 0.9,-1.317 0.9,-2.29 0,-0.894 -0.301,-1.604 -0.9,-2.131 -0.6,-0.526 -1.354,-0.79 -2.26,-0.79 -0.48,0 -0.867,0.061 -1.16,0.181 -0.294,0.12 -0.594,0.293 -0.9,0.52 -0.173,0.134 -0.316,0.23 -0.43,0.29 -0.113,0.061 -0.237,0.09 -0.37,0.09 h -0.96 c -0.12,0 -0.227,-0.043 -0.32,-0.13 -0.093,-0.086 -0.133,-0.189 -0.12,-0.31 l 0.62,-6.66 c 0.04,-0.333 0.207,-0.5 0.5,-0.5 h 6.92 c 0.146,0 0.261,0.04 0.341,0.12 0.079,0.08 0.119,0.193 0.119,0.34 v 0.74 c 0,0.133 -0.043,0.24 -0.13,0.319 -0.087,0.08 -0.196,0.12 -0.33,0.12 h -5.76 l -0.359,4.021 c 0.64,-0.453 1.5,-0.68 2.579,-0.68 0.894,0 1.707,0.177 2.44,0.529 0.733,0.354 1.316,0.87 1.75,1.55 0.434,0.681 0.65,1.487 0.65,2.421 0,0.986 -0.217,1.836 -0.65,2.55 -0.434,0.713 -1.033,1.253 -1.8,1.62 -0.767,0.366 -1.644,0.55 -2.63,0.55 -0.999,10e-4 -1.866,-0.18 -2.599,-0.539 z"
   id="path5" />
						<path
   fill="#00b9d2"
   d="m 140.507,298.512 c -0.087,-0.087 -0.13,-0.196 -0.13,-0.33 v -1.38 c 0,-0.133 0.043,-0.247 0.13,-0.34 0.086,-0.094 0.196,-0.141 0.33,-0.141 h 1.38 c 0.133,0 0.243,0.047 0.33,0.141 0.086,0.093 0.13,0.207 0.13,0.34 v 1.38 c 0,0.134 -0.044,0.243 -0.13,0.33 -0.087,0.087 -0.197,0.13 -0.33,0.13 h -1.38 c -0.133,0 -0.244,-0.043 -0.33,-0.13 z"
   id="path7" />
						<path
   fill="#00b9d2"
   d="m 151.407,298.512 c -0.087,-0.087 -0.13,-0.196 -0.13,-0.33 v -2.92 h -6.5 c -0.134,0 -0.243,-0.043 -0.33,-0.13 -0.087,-0.087 -0.13,-0.197 -0.13,-0.33 v -0.74 c 0,-0.187 0.073,-0.387 0.22,-0.6 l 6.021,-8.48 c 0.066,-0.106 0.166,-0.189 0.3,-0.25 0.133,-0.06 0.28,-0.09 0.439,-0.09 h 1.36 c 0.146,0 0.26,0.04 0.34,0.12 0.08,0.08 0.12,0.193 0.12,0.34 v 8.48 h 1.82 c 0.133,0 0.243,0.043 0.33,0.13 0.086,0.087 0.13,0.196 0.13,0.33 v 0.76 c 0,0.133 -0.044,0.243 -0.13,0.33 -0.087,0.087 -0.197,0.13 -0.33,0.13 h -1.82 v 2.92 c 0,0.134 -0.043,0.243 -0.13,0.33 -0.087,0.087 -0.197,0.13 -0.33,0.13 h -0.92 c -0.134,0 -0.243,-0.043 -0.33,-0.13 z m -5.01,-4.89 h 4.899 v -6.961 z"
   id="path9" />
						<path
   fill="#00b9d2"
   d="m 157.167,298.512 c -0.087,-0.087 -0.13,-0.196 -0.13,-0.33 v -0.6 c 0,-0.307 0.166,-0.601 0.5,-0.881 l 4.359,-4.34 c 0.986,-0.84 1.667,-1.526 2.04,-2.06 0.373,-0.534 0.561,-1.101 0.561,-1.7 0,-0.786 -0.221,-1.403 -0.66,-1.85 -0.44,-0.447 -1.08,-0.67 -1.92,-0.67 -0.801,0 -1.434,0.233 -1.9,0.699 -0.467,0.467 -0.753,1.094 -0.86,1.88 -0.026,0.147 -0.093,0.261 -0.199,0.341 -0.107,0.08 -0.214,0.12 -0.32,0.12 h -0.96 c -0.12,0 -0.22,-0.04 -0.3,-0.12 -0.08,-0.08 -0.12,-0.174 -0.12,-0.28 0.026,-0.707 0.217,-1.39 0.569,-2.05 0.354,-0.66 0.877,-1.2 1.57,-1.62 0.693,-0.42 1.533,-0.63 2.521,-0.63 1.493,0 2.616,0.39 3.37,1.17 0.753,0.78 1.13,1.77 1.13,2.97 0,0.84 -0.204,1.597 -0.61,2.271 -0.407,0.673 -1.043,1.383 -1.91,2.13 l -3.939,4 h 6.3 c 0.146,0 0.26,0.04 0.34,0.12 0.08,0.079 0.12,0.193 0.12,0.34 v 0.76 c 0,0.134 -0.044,0.243 -0.13,0.33 -0.087,0.087 -0.197,0.13 -0.33,0.13 h -8.76 c -0.135,0 -0.246,-0.043 -0.332,-0.13 z"
   id="path11" />
						<path
   fill="#00b9d2"
   d="m 168.947,288.122 c -0.06,-0.08 -0.077,-0.181 -0.05,-0.301 l 0.439,-2.8 c 0.054,-0.387 0.24,-0.58 0.561,-0.58 h 1.28 c 0.093,0 0.17,0.033 0.229,0.101 0.061,0.066 0.09,0.146 0.09,0.239 0,0.134 -0.02,0.24 -0.06,0.32 l -1.04,2.7 c -0.067,0.146 -0.141,0.257 -0.22,0.33 -0.08,0.073 -0.2,0.109 -0.36,0.109 h -0.62 c -0.106,10e-4 -0.19,-0.039 -0.249,-0.118 z m 3.139,0 c -0.06,-0.08 -0.076,-0.181 -0.05,-0.301 l 0.44,-2.8 c 0.053,-0.387 0.24,-0.58 0.56,-0.58 h 1.28 c 0.093,0 0.17,0.033 0.229,0.101 0.061,0.066 0.091,0.146 0.091,0.239 0,0.134 -0.021,0.24 -0.061,0.32 l -1.04,2.7 c -0.066,0.146 -0.14,0.257 -0.22,0.33 -0.08,0.073 -0.2,0.109 -0.36,0.109 h -0.62 c -0.105,10e-4 -0.188,-0.039 -0.249,-0.118 z"
   id="path13" />
						<path
   fill="#00b9d2"
   d="m 183.386,300.852 c -0.673,-0.646 -1.156,-1.65 -1.45,-3.01 -0.293,-1.36 -0.439,-3.153 -0.439,-5.38 0,-2.227 0.146,-4.017 0.439,-5.37 0.294,-1.354 0.777,-2.354 1.45,-3 0.673,-0.646 1.583,-0.97 2.73,-0.97 0.133,0 0.243,0.043 0.33,0.13 0.086,0.087 0.13,0.196 0.13,0.33 v 0.659 c 0,0.12 -0.04,0.224 -0.12,0.311 -0.08,0.087 -0.174,0.13 -0.28,0.13 -0.76,0.014 -1.354,0.27 -1.78,0.77 -0.426,0.5 -0.733,1.308 -0.92,2.421 -0.187,1.113 -0.279,2.643 -0.279,4.59 0,1.96 0.093,3.496 0.279,4.609 0.186,1.113 0.493,1.92 0.92,2.42 0.427,0.5 1.021,0.757 1.78,0.771 0.106,0 0.2,0.043 0.28,0.13 0.08,0.087 0.12,0.19 0.12,0.31 v 0.66 c 0,0.134 -0.044,0.243 -0.13,0.33 -0.087,0.087 -0.197,0.13 -0.33,0.13 -1.147,-0.002 -2.057,-0.325 -2.73,-0.971 z"
   id="path15" />
						<path
   fill="#00b9d2"
   d="m 189.997,298.302 c -0.733,-0.36 -1.293,-0.83 -1.68,-1.41 -0.387,-0.58 -0.594,-1.203 -0.62,-1.87 v -0.04 c 0,-0.106 0.04,-0.193 0.12,-0.26 0.08,-0.067 0.173,-0.1 0.28,-0.1 h 0.979 c 0.28,0 0.46,0.146 0.54,0.439 0.2,0.72 0.57,1.257 1.11,1.61 0.54,0.353 1.163,0.529 1.87,0.529 0.906,0 1.66,-0.276 2.26,-0.829 0.6,-0.554 0.9,-1.317 0.9,-2.29 0,-0.894 -0.301,-1.604 -0.9,-2.131 -0.6,-0.526 -1.354,-0.79 -2.26,-0.79 -0.48,0 -0.867,0.061 -1.16,0.181 -0.294,0.12 -0.594,0.293 -0.9,0.52 -0.173,0.134 -0.316,0.23 -0.43,0.29 -0.113,0.061 -0.237,0.09 -0.37,0.09 h -0.96 c -0.12,0 -0.227,-0.043 -0.32,-0.13 -0.093,-0.086 -0.133,-0.189 -0.12,-0.31 l 0.62,-6.66 c 0.04,-0.333 0.207,-0.5 0.5,-0.5 h 6.92 c 0.146,0 0.261,0.04 0.341,0.12 0.079,0.08 0.119,0.193 0.119,0.34 v 0.74 c 0,0.133 -0.043,0.24 -0.13,0.319 -0.087,0.08 -0.196,0.12 -0.33,0.12 h -5.76 l -0.359,4.021 c 0.64,-0.453 1.5,-0.68 2.579,-0.68 0.894,0 1.707,0.177 2.44,0.529 0.733,0.354 1.316,0.87 1.75,1.55 0.434,0.681 0.65,1.487 0.65,2.421 0,0.986 -0.217,1.836 -0.65,2.55 -0.434,0.713 -1.033,1.253 -1.8,1.62 -0.767,0.366 -1.644,0.55 -2.63,0.55 -0.999,10e-4 -1.866,-0.18 -2.599,-0.539 z"
   id="path17" />
						<path
   fill="#00b9d2"
   d="m 199.927,298.512 c -0.087,-0.087 -0.13,-0.196 -0.13,-0.33 v -1.38 c 0,-0.133 0.043,-0.247 0.13,-0.34 0.086,-0.094 0.196,-0.141 0.33,-0.141 h 1.38 c 0.133,0 0.243,0.047 0.33,0.141 0.086,0.093 0.13,0.207 0.13,0.34 v 1.38 c 0,0.134 -0.044,0.243 -0.13,0.33 -0.087,0.087 -0.197,0.13 -0.33,0.13 h -1.38 c -0.133,0 -0.244,-0.043 -0.33,-0.13 z"
   id="path19" />
						<path
   fill="#00b9d2"
   d="m 210.827,298.512 c -0.087,-0.087 -0.13,-0.196 -0.13,-0.33 v -2.92 h -6.5 c -0.134,0 -0.243,-0.043 -0.33,-0.13 -0.087,-0.087 -0.13,-0.197 -0.13,-0.33 v -0.74 c 0,-0.187 0.073,-0.387 0.22,-0.6 l 6.021,-8.48 c 0.066,-0.106 0.166,-0.189 0.3,-0.25 0.133,-0.06 0.28,-0.09 0.439,-0.09 h 1.36 c 0.146,0 0.26,0.04 0.34,0.12 0.08,0.08 0.12,0.193 0.12,0.34 v 8.48 h 1.82 c 0.133,0 0.243,0.043 0.33,0.13 0.086,0.087 0.13,0.196 0.13,0.33 v 0.76 c 0,0.133 -0.044,0.243 -0.13,0.33 -0.087,0.087 -0.197,0.13 -0.33,0.13 h -1.82 v 2.92 c 0,0.134 -0.043,0.243 -0.13,0.33 -0.087,0.087 -0.197,0.13 -0.33,0.13 h -0.92 c -0.134,0 -0.243,-0.043 -0.33,-0.13 z m -5.01,-4.89 h 4.899 v -6.961 z"
   id="path21" />
						<path
   fill="#00b9d2"
   d="m 216.687,288.122 c -0.06,-0.08 -0.077,-0.181 -0.05,-0.301 l 0.439,-2.8 c 0.054,-0.387 0.24,-0.58 0.561,-0.58 h 1.28 c 0.093,0 0.17,0.033 0.229,0.101 0.061,0.066 0.09,0.146 0.09,0.239 0,0.134 -0.02,0.24 -0.06,0.32 l -1.04,2.7 c -0.067,0.146 -0.141,0.257 -0.22,0.33 -0.08,0.073 -0.2,0.109 -0.36,0.109 h -0.62 c -0.105,10e-4 -0.189,-0.039 -0.249,-0.118 z m 3.14,0 c -0.06,-0.08 -0.076,-0.181 -0.05,-0.301 l 0.44,-2.8 c 0.053,-0.387 0.24,-0.58 0.56,-0.58 h 1.28 c 0.093,0 0.17,0.033 0.229,0.101 0.061,0.066 0.091,0.146 0.091,0.239 0,0.134 -0.021,0.24 -0.061,0.32 l -1.04,2.7 c -0.066,0.146 -0.14,0.257 -0.22,0.33 -0.08,0.073 -0.2,0.109 -0.36,0.109 h -0.62 c -0.106,10e-4 -0.189,-0.039 -0.249,-0.118 z"
   id="path23" />
						<path
   fill="#00b9d2"
   d="m 223.787,301.691 c -0.087,-0.087 -0.13,-0.196 -0.13,-0.33 v -0.66 c 0,-0.119 0.04,-0.223 0.12,-0.31 0.08,-0.087 0.173,-0.13 0.28,-0.13 0.746,-0.014 1.336,-0.271 1.77,-0.771 0.434,-0.5 0.743,-1.31 0.93,-2.43 0.187,-1.12 0.28,-2.653 0.28,-4.6 0,-1.947 -0.094,-3.477 -0.28,-4.59 -0.186,-1.113 -0.496,-1.921 -0.93,-2.421 -0.434,-0.5 -1.023,-0.756 -1.77,-0.77 -0.107,0 -0.2,-0.043 -0.28,-0.13 -0.08,-0.087 -0.12,-0.19 -0.12,-0.311 v -0.659 c 0,-0.134 0.043,-0.243 0.13,-0.33 0.087,-0.087 0.19,-0.13 0.311,-0.13 1.146,0 2.056,0.323 2.729,0.97 0.673,0.646 1.156,1.646 1.45,3 0.293,1.354 0.439,3.144 0.439,5.37 0,2.226 -0.146,4.02 -0.439,5.38 -0.294,1.359 -0.777,2.363 -1.45,3.01 -0.674,0.646 -1.583,0.97 -2.729,0.97 -0.121,0.002 -0.224,-0.041 -0.311,-0.128 z"
   id="path25" />
						<path
   fill="#00b9d2"
   d="m 150.698,318.512 c -0.08,-0.087 -0.12,-0.196 -0.12,-0.33 v -11.28 l -3.36,2.58 c -0.093,0.08 -0.193,0.12 -0.3,0.12 -0.12,0 -0.233,-0.066 -0.34,-0.2 l -0.48,-0.62 c -0.066,-0.093 -0.1,-0.187 -0.1,-0.279 0,-0.146 0.066,-0.267 0.2,-0.36 l 4.34,-3.36 c 0.146,-0.093 0.32,-0.14 0.52,-0.14 h 0.94 c 0.133,0 0.243,0.043 0.33,0.13 0.087,0.087 0.13,0.197 0.13,0.33 v 13.08 c 0,0.134 -0.043,0.243 -0.13,0.33 -0.087,0.087 -0.197,0.13 -0.33,0.13 h -0.98 c -0.134,-10e-4 -0.24,-0.044 -0.32,-0.131 z"
   id="path27" />
						<path
   fill="#00b9d2"
   d="m 157.217,318.332 c -0.76,-0.341 -1.337,-0.783 -1.729,-1.33 -0.394,-0.547 -0.604,-1.113 -0.63,-1.7 0,-0.12 0.04,-0.217 0.12,-0.29 0.079,-0.073 0.18,-0.11 0.3,-0.11 h 0.899 c 0.146,0 0.267,0.03 0.36,0.09 0.093,0.061 0.167,0.178 0.22,0.351 0.174,0.68 0.55,1.16 1.13,1.439 0.58,0.28 1.264,0.42 2.051,0.42 0.96,0 1.723,-0.229 2.29,-0.689 0.566,-0.46 0.85,-1.116 0.85,-1.97 0,-1.627 -0.993,-2.44 -2.98,-2.44 h -1.88 c -0.133,0 -0.243,-0.043 -0.33,-0.13 -0.087,-0.087 -0.13,-0.196 -0.13,-0.33 v -0.52 c 0,-0.2 0.073,-0.374 0.221,-0.521 l 3.899,-4.32 h -5.92 c -0.134,0 -0.243,-0.04 -0.33,-0.12 -0.087,-0.079 -0.13,-0.187 -0.13,-0.319 v -0.72 c 0,-0.147 0.043,-0.264 0.13,-0.351 0.087,-0.087 0.196,-0.13 0.33,-0.13 h 7.92 c 0.146,0 0.264,0.043 0.351,0.13 0.086,0.087 0.13,0.203 0.13,0.351 v 0.659 c 0,0.147 -0.067,0.301 -0.2,0.46 l -3.9,4.381 h 0.32 c 1.36,0.039 2.437,0.393 3.229,1.06 0.794,0.667 1.19,1.64 1.19,2.92 0,0.88 -0.217,1.637 -0.65,2.271 -0.433,0.633 -1.036,1.119 -1.81,1.46 -0.773,0.34 -1.646,0.51 -2.62,0.51 -1.041,-0.002 -1.94,-0.172 -2.701,-0.512 z"
   id="path29" />
						<path
   fill="#00b9d2"
   d="m 168.667,318.512 c -0.073,-0.087 -0.11,-0.19 -0.11,-0.311 l 0.04,-0.18 5,-11.7 h -6.6 c -0.134,0 -0.243,-0.043 -0.33,-0.13 -0.087,-0.086 -0.13,-0.196 -0.13,-0.33 v -0.739 c 0,-0.147 0.04,-0.264 0.12,-0.351 0.08,-0.087 0.193,-0.13 0.34,-0.13 h 8.16 c 0.146,0 0.26,0.043 0.34,0.13 0.08,0.087 0.12,0.203 0.12,0.351 v 0.68 c 0,0.24 -0.054,0.5 -0.16,0.78 l -4.94,11.56 c -0.066,0.146 -0.14,0.267 -0.22,0.36 -0.08,0.093 -0.193,0.14 -0.34,0.14 h -1 c -0.12,0 -0.216,-0.043 -0.29,-0.13 z"
   id="path31" />
						<path
   fill="#00b9d2"
   d="m 176.328,318.512 c -0.087,-0.087 -0.13,-0.196 -0.13,-0.33 v -1.38 c 0,-0.133 0.043,-0.247 0.13,-0.34 0.086,-0.094 0.196,-0.141 0.33,-0.141 h 1.38 c 0.133,0 0.243,0.047 0.33,0.141 0.086,0.093 0.13,0.207 0.13,0.34 v 1.38 c 0,0.134 -0.044,0.243 -0.13,0.33 -0.087,0.087 -0.197,0.13 -0.33,0.13 h -1.38 c -0.134,0 -0.244,-0.043 -0.33,-0.13 z"
   id="path33" />
						<path
   fill="#00b9d2"
   d="m 181.947,318.512 c -0.073,-0.087 -0.11,-0.19 -0.11,-0.311 l 0.04,-0.18 5,-11.7 h -6.6 c -0.134,0 -0.243,-0.043 -0.33,-0.13 -0.087,-0.086 -0.13,-0.196 -0.13,-0.33 v -0.739 c 0,-0.147 0.04,-0.264 0.12,-0.351 0.08,-0.087 0.193,-0.13 0.34,-0.13 h 8.16 c 0.146,0 0.26,0.043 0.34,0.13 0.08,0.087 0.12,0.203 0.12,0.351 v 0.68 c 0,0.24 -0.054,0.5 -0.16,0.78 l -4.94,11.56 c -0.066,0.146 -0.14,0.267 -0.22,0.36 -0.08,0.093 -0.193,0.14 -0.34,0.14 h -1 c -0.12,0 -0.217,-0.043 -0.29,-0.13 z"
   id="path35" />
						<path
   fill="#00b9d2"
   d="m 195.987,318.512 c -0.087,-0.087 -0.13,-0.196 -0.13,-0.33 v -9.48 c 0,-0.133 0.043,-0.243 0.13,-0.329 0.087,-0.087 0.196,-0.131 0.33,-0.131 h 0.84 c 0.134,0 0.24,0.044 0.32,0.131 0.08,0.086 0.12,0.196 0.12,0.329 v 0.681 c 0.72,-0.894 1.693,-1.34 2.92,-1.34 1.467,0 2.507,0.613 3.12,1.84 0.319,-0.561 0.776,-1.007 1.37,-1.34 0.593,-0.334 1.256,-0.5 1.989,-0.5 1.094,0 1.987,0.373 2.681,1.119 0.692,0.747 1.04,1.827 1.04,3.24 v 5.78 c 0,0.134 -0.044,0.243 -0.13,0.33 -0.087,0.087 -0.197,0.13 -0.33,0.13 h -0.86 c -0.134,0 -0.243,-0.043 -0.33,-0.13 -0.087,-0.087 -0.13,-0.196 -0.13,-0.33 v -5.6 c 0,-1.067 -0.22,-1.83 -0.66,-2.29 -0.439,-0.46 -1.02,-0.69 -1.74,-0.69 -0.64,0 -1.189,0.237 -1.649,0.71 -0.46,0.474 -0.69,1.23 -0.69,2.271 v 5.6 c 0,0.134 -0.043,0.243 -0.13,0.33 -0.087,0.087 -0.197,0.13 -0.33,0.13 h -0.88 c -0.134,0 -0.243,-0.043 -0.33,-0.13 -0.087,-0.087 -0.13,-0.196 -0.13,-0.33 v -5.6 c 0,-1.054 -0.23,-1.813 -0.69,-2.28 -0.46,-0.467 -1.029,-0.7 -1.71,-0.7 -0.64,0 -1.189,0.233 -1.649,0.7 -0.46,0.467 -0.69,1.22 -0.69,2.26 v 5.62 c 0,0.134 -0.043,0.243 -0.13,0.33 -0.087,0.087 -0.197,0.13 -0.33,0.13 h -0.88 c -0.136,-10e-4 -0.245,-0.044 -0.332,-0.131 z"
   id="path37" />
						<path
   fill="#00b9d2"
   d="m 213.747,318.512 c -0.087,-0.087 -0.13,-0.196 -0.13,-0.33 v -9.48 c 0,-0.133 0.043,-0.243 0.13,-0.329 0.087,-0.087 0.196,-0.131 0.33,-0.131 h 0.84 c 0.134,0 0.24,0.044 0.32,0.131 0.08,0.086 0.12,0.196 0.12,0.329 v 0.681 c 0.72,-0.894 1.693,-1.34 2.92,-1.34 1.467,0 2.507,0.613 3.12,1.84 0.319,-0.561 0.776,-1.007 1.37,-1.34 0.593,-0.334 1.256,-0.5 1.989,-0.5 1.094,0 1.987,0.373 2.681,1.119 0.692,0.747 1.04,1.827 1.04,3.24 v 5.78 c 0,0.134 -0.044,0.243 -0.13,0.33 -0.087,0.087 -0.197,0.13 -0.33,0.13 h -0.86 c -0.134,0 -0.243,-0.043 -0.33,-0.13 -0.087,-0.087 -0.13,-0.196 -0.13,-0.33 v -5.6 c 0,-1.067 -0.22,-1.83 -0.66,-2.29 -0.439,-0.46 -1.02,-0.69 -1.74,-0.69 -0.64,0 -1.189,0.237 -1.649,0.71 -0.46,0.474 -0.69,1.23 -0.69,2.271 v 5.6 c 0,0.134 -0.043,0.243 -0.13,0.33 -0.087,0.087 -0.197,0.13 -0.33,0.13 h -0.88 c -0.134,0 -0.243,-0.043 -0.33,-0.13 -0.087,-0.087 -0.13,-0.196 -0.13,-0.33 v -5.6 c 0,-1.054 -0.23,-1.813 -0.69,-2.28 -0.46,-0.467 -1.029,-0.7 -1.71,-0.7 -0.64,0 -1.189,0.233 -1.649,0.7 -0.46,0.467 -0.69,1.22 -0.69,2.26 v 5.62 c 0,0.134 -0.043,0.243 -0.13,0.33 -0.087,0.087 -0.197,0.13 -0.33,0.13 h -0.88 c -0.136,-10e-4 -0.246,-0.044 -0.332,-0.131 z"
   id="path39" />
					</g>
				</g>
			</g>
			<g
   id="POLYLINE_418_">
				
					<line
   fill="none"
   stroke="#00b9d2"
   stroke-width="2"
   stroke-linecap="round"
   stroke-linejoin="round"
   stroke-miterlimit="10"
   x1="104.233"
   y1="552.55298"
   x2="200.272"
   y2="330.129"
   id="line46" />
			</g>
			<g
   id="POLYLINE_417_">
				
					<line
   fill="none"
   stroke="#00b9d2"
   stroke-width="2"
   stroke-linecap="round"
   stroke-linejoin="round"
   stroke-miterlimit="10"
   x1="223.739"
   y1="272.108"
   x2="293.935"
   y2="102.125"
   id="line49" />
			</g>
			<g
   id="POLYLINE_416_">
				
					<polyline
   fill="none"
   stroke="#00b9d2"
   stroke-width="2"
   stroke-linecap="round"
   stroke-linejoin="round"
   stroke-miterlimit="10"
   points="      101.299,545.005 104.233,552.553 111.782,549.619     "
   id="polyline52" />
			</g>
			<g
   id="POLYLINE_415_">
				
					<polyline
   fill="none"
   stroke="#00b9d2"
   stroke-width="2"
   stroke-linecap="round"
   stroke-linejoin="round"
   stroke-miterlimit="10"
   points="      296.869,109.674 293.935,102.125 286.386,105.059     "
   id="polyline55" />
			</g>
		</g>
		<g
   id="MTEXT_11_">
			<g
   id="g72">
				<path
   fill="#00b9d2"
   d="m 111.446,138.228 c -0.087,-0.087 -0.13,-0.196 -0.13,-0.33 v -2.92 h -6.5 c -0.134,0 -0.243,-0.043 -0.33,-0.13 -0.087,-0.087 -0.13,-0.197 -0.13,-0.33 v -0.74 c 0,-0.187 0.073,-0.387 0.22,-0.6 l 6.021,-8.48 c 0.066,-0.106 0.166,-0.189 0.3,-0.25 0.133,-0.06 0.28,-0.09 0.439,-0.09 h 1.36 c 0.146,0 0.26,0.04 0.34,0.12 0.08,0.08 0.12,0.193 0.12,0.34 v 8.48 h 1.82 c 0.133,0 0.243,0.043 0.33,0.13 0.086,0.087 0.13,0.196 0.13,0.33 v 0.76 c 0,0.133 -0.044,0.243 -0.13,0.33 -0.087,0.087 -0.197,0.13 -0.33,0.13 h -1.82 v 2.92 c 0,0.134 -0.043,0.243 -0.13,0.33 -0.087,0.087 -0.197,0.13 -0.33,0.13 h -0.92 c -0.134,-0.001 -0.243,-0.044 -0.33,-0.13 z m -5.01,-4.89 h 4.899 v -6.961 z"
   id="path60" />
				<path
   fill="#00b9d2"
   d="m 118.446,138.228 c -0.073,-0.087 -0.11,-0.19 -0.11,-0.311 l 0.04,-0.18 5,-11.7 h -6.6 c -0.134,0 -0.243,-0.043 -0.33,-0.13 -0.087,-0.086 -0.13,-0.196 -0.13,-0.33 v -0.739 c 0,-0.147 0.04,-0.264 0.12,-0.351 0.08,-0.087 0.193,-0.13 0.34,-0.13 h 8.16 c 0.146,0 0.26,0.043 0.34,0.13 0.08,0.087 0.12,0.203 0.12,0.351 v 0.68 c 0,0.24 -0.054,0.5 -0.16,0.78 l -4.94,11.56 c -0.066,0.146 -0.14,0.267 -0.22,0.36 -0.08,0.093 -0.193,0.14 -0.34,0.14 h -1 c -0.12,-0.001 -0.217,-0.044 -0.29,-0.13 z"
   id="path62" />
				<path
   fill="#00b9d2"
   d="m 128.686,137.907 c -0.78,-0.433 -1.374,-1.017 -1.78,-1.75 -0.406,-0.733 -0.609,-1.533 -0.609,-2.399 0,-1.146 0.46,-2.373 1.38,-3.681 l 3.819,-5.319 c 0.014,-0.014 0.051,-0.061 0.11,-0.141 0.059,-0.08 0.137,-0.143 0.229,-0.189 0.094,-0.047 0.2,-0.07 0.32,-0.07 h 0.98 c 0.12,0 0.216,0.043 0.29,0.13 0.073,0.087 0.109,0.19 0.109,0.311 0,0.066 -0.033,0.153 -0.1,0.26 l -2.92,4.08 c 0.347,-0.08 0.733,-0.12 1.16,-0.12 0.973,0 1.83,0.217 2.569,0.649 0.74,0.434 1.313,1.007 1.721,1.721 0.406,0.713 0.609,1.497 0.609,2.35 0,0.854 -0.203,1.65 -0.609,2.39 -0.407,0.74 -0.997,1.33 -1.771,1.771 -0.774,0.441 -1.687,0.66 -2.74,0.66 -1.064,-0.002 -1.987,-0.219 -2.767,-0.653 z m 4.37,-1.37 c 0.493,-0.239 0.887,-0.597 1.18,-1.069 0.293,-0.474 0.44,-1.044 0.44,-1.71 0,-0.653 -0.15,-1.217 -0.45,-1.69 -0.3,-0.473 -0.697,-0.833 -1.19,-1.08 -0.493,-0.246 -1.026,-0.37 -1.6,-0.37 -0.574,0 -1.107,0.124 -1.601,0.37 -0.493,0.247 -0.887,0.607 -1.18,1.08 -0.293,0.474 -0.439,1.037 -0.439,1.69 0,0.666 0.146,1.236 0.439,1.71 0.293,0.473 0.687,0.83 1.18,1.069 0.493,0.24 1.027,0.36 1.601,0.36 0.587,0 1.126,-0.12 1.62,-0.36 z"
   id="path64" />
				<path
   fill="#00b9d2"
   d="m 143.886,142.037 c -0.087,-0.08 -0.131,-0.193 -0.131,-0.34 v -13.28 c 0,-0.146 0.044,-0.26 0.131,-0.34 0.086,-0.08 0.196,-0.12 0.33,-0.12 h 0.84 c 0.146,0 0.26,0.04 0.34,0.12 0.08,0.08 0.12,0.193 0.12,0.34 v 0.881 c 0.772,-1.027 1.873,-1.54 3.3,-1.54 1.4,0 2.45,0.443 3.15,1.33 0.699,0.887 1.069,2.017 1.109,3.39 0.014,0.146 0.021,0.373 0.021,0.68 0,0.307 -0.007,0.533 -0.021,0.681 -0.04,1.359 -0.41,2.486 -1.109,3.38 -0.7,0.894 -1.75,1.34 -3.15,1.34 -1.427,0 -2.507,-0.507 -3.24,-1.521 v 4.66 c 0,0.133 -0.043,0.243 -0.13,0.33 -0.087,0.087 -0.197,0.13 -0.33,0.13 h -0.899 c -0.134,-10e-4 -0.245,-0.041 -0.331,-0.121 z m 6.65,-5.939 c 0.44,-0.601 0.681,-1.387 0.72,-2.36 0.014,-0.133 0.021,-0.326 0.021,-0.58 0,-2.56 -0.947,-3.84 -2.84,-3.84 -0.934,0 -1.637,0.31 -2.11,0.93 -0.473,0.62 -0.724,1.351 -0.75,2.19 -0.014,0.146 -0.02,0.407 -0.02,0.78 0,0.373 0.006,0.633 0.02,0.779 0.026,0.813 0.283,1.518 0.771,2.11 0.486,0.594 1.183,0.89 2.09,0.89 0.958,0 1.658,-0.3 2.098,-0.899 z"
   id="path66" />
				<path
   fill="#00b9d2"
   d="m 155.766,142.037 c -0.087,-0.08 -0.131,-0.193 -0.131,-0.34 v -13.28 c 0,-0.146 0.044,-0.26 0.131,-0.34 0.086,-0.08 0.196,-0.12 0.33,-0.12 h 0.84 c 0.146,0 0.26,0.04 0.34,0.12 0.08,0.08 0.12,0.193 0.12,0.34 v 0.881 c 0.772,-1.027 1.873,-1.54 3.3,-1.54 1.4,0 2.45,0.443 3.15,1.33 0.699,0.887 1.069,2.017 1.109,3.39 0.014,0.146 0.021,0.373 0.021,0.68 0,0.307 -0.007,0.533 -0.021,0.681 -0.04,1.359 -0.41,2.486 -1.109,3.38 -0.7,0.894 -1.75,1.34 -3.15,1.34 -1.427,0 -2.507,-0.507 -3.24,-1.521 v 4.66 c 0,0.133 -0.043,0.243 -0.13,0.33 -0.087,0.087 -0.197,0.13 -0.33,0.13 h -0.899 c -0.135,-10e-4 -0.245,-0.041 -0.331,-0.121 z m 6.65,-5.939 c 0.44,-0.601 0.681,-1.387 0.72,-2.36 0.014,-0.133 0.021,-0.326 0.021,-0.58 0,-2.56 -0.947,-3.84 -2.84,-3.84 -0.934,0 -1.637,0.31 -2.11,0.93 -0.473,0.62 -0.724,1.351 -0.75,2.19 -0.014,0.146 -0.02,0.407 -0.02,0.78 0,0.373 0.006,0.633 0.02,0.779 0.026,0.813 0.283,1.518 0.771,2.11 0.486,0.594 1.183,0.89 2.09,0.89 0.958,0 1.658,-0.3 2.098,-0.899 z"
   id="path68" />
				<path
   fill="#00b9d2"
   d="m 167.465,125.867 c -0.087,-0.086 -0.13,-0.196 -0.13,-0.33 v -1.04 c 0,-0.133 0.043,-0.246 0.13,-0.34 0.087,-0.093 0.197,-0.14 0.33,-0.14 h 1.181 c 0.133,0 0.246,0.047 0.34,0.14 0.093,0.094 0.14,0.207 0.14,0.34 v 1.04 c 0,0.134 -0.047,0.244 -0.14,0.33 -0.094,0.087 -0.207,0.13 -0.34,0.13 h -1.181 c -0.132,0 -0.243,-0.043 -0.33,-0.13 z m 0.16,12.361 c -0.087,-0.087 -0.13,-0.196 -0.13,-0.33 v -9.48 c 0,-0.133 0.043,-0.243 0.13,-0.329 0.087,-0.087 0.196,-0.131 0.33,-0.131 h 0.88 c 0.133,0 0.243,0.044 0.33,0.131 0.087,0.086 0.13,0.196 0.13,0.329 v 9.48 c 0,0.134 -0.043,0.243 -0.13,0.33 -0.087,0.087 -0.197,0.13 -0.33,0.13 h -0.88 c -0.133,-0.001 -0.243,-0.044 -0.33,-0.13 z"
   id="path70" />
			</g>
		</g>
		<g
   id="g114">
			<g
   id="POLYLINE_414_">
				
					<polyline
   fill="none"
   stroke="#00b9d2"
   stroke-width="2"
   stroke-linecap="round"
   stroke-linejoin="round"
   stroke-miterlimit="10"
   points="      385.899,598.86 380.172,604.587 385.899,610.314     "
   id="polyline75" />
			</g>
			<g
   id="POLYLINE_413_">
				
					<line
   fill="none"
   stroke="#00b9d2"
   stroke-width="2"
   stroke-linecap="round"
   stroke-linejoin="round"
   stroke-miterlimit="10"
   x1="380.172"
   y1="604.58698"
   x2="422.04501"
   y2="604.58698"
   id="line78" />
			</g>
			<g
   id="POLYLINE_412_">
				
					<line
   fill="none"
   stroke="#00b9d2"
   stroke-width="2"
   stroke-linecap="round"
   stroke-linejoin="round"
   stroke-miterlimit="10"
   x1="576.685"
   y1="604.58698"
   x2="628.54602"
   y2="604.58698"
   id="line81" />
			</g>
			<g
   id="POLYLINE_411_">
				
					<polyline
   fill="none"
   stroke="#00b9d2"
   stroke-width="2"
   stroke-linecap="round"
   stroke-linejoin="round"
   stroke-miterlimit="10"
   points="      622.807,598.87 628.535,604.597 622.807,610.324     "
   id="polyline84" />
			</g>
			<g
   id="MTEXT_10_">
				<g
   id="g111">
					<path
   fill="#00b9d2"
   d="m 426.609,611.734 c -0.087,-0.087 -0.13,-0.196 -0.13,-0.33 v -0.6 c 0,-0.307 0.166,-0.601 0.5,-0.881 l 4.359,-4.34 c 0.986,-0.84 1.667,-1.526 2.04,-2.06 0.373,-0.534 0.561,-1.101 0.561,-1.7 0,-0.786 -0.221,-1.403 -0.66,-1.85 -0.44,-0.447 -1.08,-0.67 -1.92,-0.67 -0.801,0 -1.434,0.233 -1.9,0.699 -0.467,0.467 -0.753,1.094 -0.86,1.88 -0.026,0.147 -0.093,0.261 -0.199,0.341 -0.107,0.08 -0.214,0.12 -0.32,0.12 h -0.96 c -0.12,0 -0.22,-0.04 -0.3,-0.12 -0.08,-0.08 -0.12,-0.174 -0.12,-0.28 0.026,-0.707 0.217,-1.39 0.569,-2.05 0.354,-0.66 0.877,-1.2 1.57,-1.62 0.693,-0.42 1.533,-0.63 2.521,-0.63 1.493,0 2.616,0.39 3.37,1.17 0.753,0.78 1.13,1.77 1.13,2.97 0,0.84 -0.204,1.597 -0.61,2.271 -0.407,0.673 -1.043,1.383 -1.91,2.13 l -3.939,4 h 6.3 c 0.146,0 0.26,0.04 0.34,0.12 0.08,0.079 0.12,0.193 0.12,0.34 v 0.76 c 0,0.134 -0.044,0.243 -0.13,0.33 -0.087,0.087 -0.197,0.13 -0.33,0.13 h -8.76 c -0.136,0 -0.246,-0.043 -0.332,-0.13 z"
   id="path87" />
					<path
   fill="#00b9d2"
   d="m 438.668,611.734 c -0.087,-0.087 -0.13,-0.196 -0.13,-0.33 v -1.38 c 0,-0.133 0.043,-0.247 0.13,-0.34 0.086,-0.094 0.196,-0.141 0.33,-0.141 h 1.38 c 0.133,0 0.243,0.047 0.33,0.141 0.086,0.093 0.13,0.207 0.13,0.34 v 1.38 c 0,0.134 -0.044,0.243 -0.13,0.33 -0.087,0.087 -0.197,0.13 -0.33,0.13 h -1.38 c -0.133,0 -0.244,-0.043 -0.33,-0.13 z"
   id="path89" />
					<path
   fill="#00b9d2"
   d="m 445.398,611.524 c -0.733,-0.36 -1.293,-0.83 -1.68,-1.41 -0.387,-0.58 -0.594,-1.203 -0.62,-1.87 v -0.04 c 0,-0.106 0.04,-0.193 0.12,-0.26 0.08,-0.067 0.173,-0.1 0.28,-0.1 h 0.979 c 0.28,0 0.46,0.146 0.54,0.439 0.2,0.72 0.57,1.257 1.11,1.61 0.54,0.353 1.163,0.529 1.87,0.529 0.906,0 1.66,-0.276 2.26,-0.829 0.6,-0.554 0.9,-1.317 0.9,-2.29 0,-0.894 -0.301,-1.604 -0.9,-2.131 -0.6,-0.526 -1.354,-0.79 -2.26,-0.79 -0.48,0 -0.867,0.061 -1.16,0.181 -0.294,0.12 -0.594,0.293 -0.9,0.52 -0.173,0.134 -0.316,0.23 -0.43,0.29 -0.113,0.061 -0.237,0.09 -0.37,0.09 h -0.96 c -0.12,0 -0.227,-0.043 -0.32,-0.13 -0.093,-0.086 -0.133,-0.189 -0.12,-0.31 l 0.62,-6.66 c 0.04,-0.333 0.207,-0.5 0.5,-0.5 h 6.92 c 0.146,0 0.261,0.04 0.341,0.12 0.079,0.08 0.119,0.193 0.119,0.34 v 0.74 c 0,0.133 -0.043,0.24 -0.13,0.319 -0.087,0.08 -0.196,0.12 -0.33,0.12 h -5.76 l -0.359,4.021 c 0.64,-0.453 1.5,-0.68 2.579,-0.68 0.894,0 1.707,0.177 2.44,0.529 0.733,0.354 1.316,0.87 1.75,1.55 0.434,0.681 0.65,1.487 0.65,2.421 0,0.986 -0.217,1.836 -0.65,2.55 -0.434,0.713 -1.033,1.253 -1.8,1.62 -0.767,0.366 -1.644,0.55 -2.63,0.55 -0.998,10e-4 -1.866,-0.179 -2.599,-0.539 z"
   id="path91" />
					<path
   fill="#00b9d2"
   d="m 457.238,611.555 c -0.76,-0.341 -1.337,-0.783 -1.729,-1.33 -0.394,-0.547 -0.604,-1.113 -0.63,-1.7 0,-0.12 0.04,-0.217 0.12,-0.29 0.079,-0.073 0.18,-0.11 0.3,-0.11 h 0.899 c 0.146,0 0.267,0.03 0.36,0.09 0.093,0.061 0.167,0.178 0.22,0.351 0.174,0.68 0.55,1.16 1.13,1.439 0.58,0.28 1.264,0.42 2.051,0.42 0.96,0 1.723,-0.229 2.29,-0.689 0.566,-0.46 0.85,-1.116 0.85,-1.97 0,-1.627 -0.993,-2.44 -2.98,-2.44 h -1.88 c -0.133,0 -0.243,-0.043 -0.33,-0.13 -0.087,-0.087 -0.13,-0.196 -0.13,-0.33 v -0.52 c 0,-0.2 0.073,-0.374 0.221,-0.521 l 3.899,-4.32 h -5.92 c -0.134,0 -0.243,-0.04 -0.33,-0.12 -0.087,-0.079 -0.13,-0.187 -0.13,-0.319 v -0.72 c 0,-0.147 0.043,-0.264 0.13,-0.351 0.087,-0.087 0.196,-0.13 0.33,-0.13 h 7.92 c 0.146,0 0.264,0.043 0.351,0.13 0.086,0.087 0.13,0.203 0.13,0.351 v 0.659 c 0,0.147 -0.067,0.301 -0.2,0.46 l -3.9,4.381 h 0.32 c 1.36,0.039 2.437,0.393 3.229,1.06 0.794,0.667 1.19,1.64 1.19,2.92 0,0.88 -0.217,1.637 -0.65,2.271 -0.433,0.633 -1.036,1.119 -1.81,1.46 -0.773,0.34 -1.646,0.51 -2.62,0.51 -1.041,-0.003 -1.94,-0.172 -2.701,-0.512 z"
   id="path93" />
					<path
   fill="#00b9d2"
   d="m 467.188,601.345 c -0.06,-0.08 -0.077,-0.181 -0.05,-0.301 l 0.439,-2.8 c 0.054,-0.387 0.24,-0.58 0.561,-0.58 h 1.28 c 0.093,0 0.17,0.033 0.229,0.101 0.061,0.066 0.09,0.146 0.09,0.239 0,0.134 -0.02,0.24 -0.06,0.32 l -1.04,2.7 c -0.067,0.146 -0.141,0.257 -0.22,0.33 -0.08,0.073 -0.2,0.109 -0.36,0.109 h -0.62 c -0.105,0.001 -0.189,-0.039 -0.249,-0.118 z m 3.14,0 c -0.06,-0.08 -0.076,-0.181 -0.05,-0.301 l 0.44,-2.8 c 0.053,-0.387 0.24,-0.58 0.56,-0.58 h 1.28 c 0.093,0 0.17,0.033 0.229,0.101 0.061,0.066 0.091,0.146 0.091,0.239 0,0.134 -0.021,0.24 -0.061,0.32 l -1.04,2.7 c -0.066,0.146 -0.14,0.257 -0.22,0.33 -0.08,0.073 -0.2,0.109 -0.36,0.109 h -0.62 c -0.106,0.001 -0.189,-0.039 -0.249,-0.118 z"
   id="path95" />
					<path
   fill="#00b9d2"
   d="m 480.198,615.895 c -0.08,-0.087 -0.12,-0.197 -0.12,-0.33 v -21.16 c 0,-0.133 0.04,-0.243 0.12,-0.33 0.08,-0.087 0.187,-0.13 0.32,-0.13 h 0.739 c 0.134,0 0.243,0.043 0.33,0.13 0.087,0.087 0.13,0.197 0.13,0.33 v 21.16 c 0,0.133 -0.043,0.243 -0.13,0.33 -0.087,0.086 -0.196,0.13 -0.33,0.13 h -0.739 c -0.134,-10e-4 -0.24,-0.045 -0.32,-0.13 z"
   id="path97" />
					<path
   fill="#00b9d2"
   d="m 491.488,611.414 c -0.78,-0.433 -1.374,-1.017 -1.78,-1.75 -0.406,-0.733 -0.609,-1.533 -0.609,-2.399 0,-1.146 0.46,-2.373 1.38,-3.681 l 3.819,-5.319 c 0.014,-0.014 0.051,-0.061 0.11,-0.141 0.059,-0.08 0.137,-0.143 0.229,-0.189 0.094,-0.047 0.2,-0.07 0.32,-0.07 h 0.98 c 0.12,0 0.216,0.043 0.29,0.13 0.073,0.087 0.109,0.19 0.109,0.311 0,0.066 -0.033,0.153 -0.1,0.26 l -2.92,4.08 c 0.347,-0.08 0.733,-0.12 1.16,-0.12 0.973,0 1.83,0.217 2.569,0.649 0.74,0.434 1.313,1.007 1.721,1.721 0.406,0.713 0.609,1.497 0.609,2.35 0,0.854 -0.203,1.65 -0.609,2.39 -0.407,0.74 -0.997,1.33 -1.771,1.771 -0.774,0.441 -1.687,0.66 -2.74,0.66 -1.064,-0.003 -1.987,-0.219 -2.767,-0.653 z m 4.37,-1.37 c 0.493,-0.239 0.887,-0.597 1.18,-1.069 0.293,-0.474 0.44,-1.044 0.44,-1.71 0,-0.653 -0.15,-1.217 -0.45,-1.69 -0.3,-0.473 -0.697,-0.833 -1.19,-1.08 -0.493,-0.246 -1.026,-0.37 -1.6,-0.37 -0.574,0 -1.107,0.124 -1.601,0.37 -0.493,0.247 -0.887,0.607 -1.18,1.08 -0.293,0.474 -0.439,1.037 -0.439,1.69 0,0.666 0.146,1.236 0.439,1.71 0.293,0.473 0.687,0.83 1.18,1.069 0.493,0.24 1.027,0.36 1.601,0.36 0.587,0 1.126,-0.12 1.62,-0.36 z"
   id="path99" />
					<path
   fill="#00b9d2"
   d="m 507.827,611.734 c -0.087,-0.087 -0.13,-0.196 -0.13,-0.33 v -2.92 h -6.5 c -0.134,0 -0.243,-0.043 -0.33,-0.13 -0.087,-0.087 -0.13,-0.197 -0.13,-0.33 v -0.74 c 0,-0.187 0.073,-0.387 0.22,-0.6 l 6.021,-8.48 c 0.066,-0.106 0.166,-0.189 0.3,-0.25 0.133,-0.06 0.28,-0.09 0.439,-0.09 h 1.36 c 0.146,0 0.26,0.04 0.34,0.12 0.08,0.08 0.12,0.193 0.12,0.34 v 8.48 h 1.82 c 0.133,0 0.243,0.043 0.33,0.13 0.086,0.087 0.13,0.196 0.13,0.33 v 0.76 c 0,0.133 -0.044,0.243 -0.13,0.33 -0.087,0.087 -0.197,0.13 -0.33,0.13 h -1.82 v 2.92 c 0,0.134 -0.043,0.243 -0.13,0.33 -0.087,0.087 -0.197,0.13 -0.33,0.13 h -0.92 c -0.134,0 -0.243,-0.043 -0.33,-0.13 z m -5.01,-4.889 h 4.899 v -6.961 z"
   id="path101" />
					<path
   fill="#00b9d2"
   d="m 513.647,611.734 c -0.087,-0.087 -0.13,-0.196 -0.13,-0.33 v -1.38 c 0,-0.133 0.043,-0.247 0.13,-0.34 0.086,-0.094 0.196,-0.141 0.33,-0.141 h 1.38 c 0.133,0 0.243,0.047 0.33,0.141 0.086,0.093 0.13,0.207 0.13,0.34 v 1.38 c 0,0.134 -0.044,0.243 -0.13,0.33 -0.087,0.087 -0.197,0.13 -0.33,0.13 h -1.38 c -0.134,0 -0.244,-0.043 -0.33,-0.13 z"
   id="path103" />
					<path
   fill="#00b9d2"
   d="m 518.267,611.734 c -0.087,-0.087 -0.13,-0.196 -0.13,-0.33 v -0.6 c 0,-0.307 0.166,-0.601 0.5,-0.881 l 4.359,-4.34 c 0.986,-0.84 1.667,-1.526 2.04,-2.06 0.373,-0.534 0.561,-1.101 0.561,-1.7 0,-0.786 -0.221,-1.403 -0.66,-1.85 -0.44,-0.447 -1.08,-0.67 -1.92,-0.67 -0.801,0 -1.434,0.233 -1.9,0.699 -0.467,0.467 -0.753,1.094 -0.86,1.88 -0.026,0.147 -0.093,0.261 -0.199,0.341 -0.107,0.08 -0.214,0.12 -0.32,0.12 h -0.96 c -0.12,0 -0.22,-0.04 -0.3,-0.12 -0.08,-0.08 -0.12,-0.174 -0.12,-0.28 0.026,-0.707 0.217,-1.39 0.569,-2.05 0.354,-0.66 0.877,-1.2 1.57,-1.62 0.693,-0.42 1.533,-0.63 2.521,-0.63 1.493,0 2.616,0.39 3.37,1.17 0.753,0.78 1.13,1.77 1.13,2.97 0,0.84 -0.204,1.597 -0.61,2.271 -0.407,0.673 -1.043,1.383 -1.91,2.13 l -3.939,4 h 6.3 c 0.146,0 0.26,0.04 0.34,0.12 0.08,0.079 0.12,0.193 0.12,0.34 v 0.76 c 0,0.134 -0.044,0.243 -0.13,0.33 -0.087,0.087 -0.197,0.13 -0.33,0.13 h -8.76 c -0.136,0 -0.246,-0.043 -0.332,-0.13 z"
   id="path105" />
					<path
   fill="#00b9d2"
   d="m 535.387,611.734 c -0.087,-0.087 -0.13,-0.196 -0.13,-0.33 v -9.48 c 0,-0.133 0.043,-0.243 0.13,-0.329 0.087,-0.087 0.196,-0.131 0.33,-0.131 h 0.84 c 0.134,0 0.24,0.044 0.32,0.131 0.08,0.086 0.12,0.196 0.12,0.329 v 0.681 c 0.72,-0.894 1.693,-1.34 2.92,-1.34 1.467,0 2.507,0.613 3.12,1.84 0.319,-0.561 0.776,-1.007 1.37,-1.34 0.593,-0.334 1.256,-0.5 1.989,-0.5 1.094,0 1.987,0.373 2.681,1.119 0.692,0.747 1.04,1.827 1.04,3.24 v 5.78 c 0,0.134 -0.044,0.243 -0.13,0.33 -0.087,0.087 -0.197,0.13 -0.33,0.13 h -0.86 c -0.134,0 -0.243,-0.043 -0.33,-0.13 -0.087,-0.087 -0.13,-0.196 -0.13,-0.33 v -5.6 c 0,-1.067 -0.22,-1.83 -0.66,-2.29 -0.439,-0.46 -1.02,-0.69 -1.74,-0.69 -0.64,0 -1.189,0.237 -1.649,0.71 -0.46,0.474 -0.69,1.23 -0.69,2.271 v 5.6 c 0,0.134 -0.043,0.243 -0.13,0.33 -0.087,0.087 -0.197,0.13 -0.33,0.13 h -0.88 c -0.134,0 -0.243,-0.043 -0.33,-0.13 -0.087,-0.087 -0.13,-0.196 -0.13,-0.33 v -5.6 c 0,-1.054 -0.23,-1.813 -0.69,-2.28 -0.46,-0.467 -1.029,-0.7 -1.71,-0.7 -0.64,0 -1.189,0.233 -1.649,0.7 -0.46,0.467 -0.69,1.22 -0.69,2.26 v 5.62 c 0,0.134 -0.043,0.243 -0.13,0.33 -0.087,0.087 -0.197,0.13 -0.33,0.13 h -0.88 c -0.136,-10e-4 -0.245,-0.044 -0.332,-0.131 z"
   id="path107" />
					<path
   fill="#00b9d2"
   d="m 553.146,611.734 c -0.087,-0.087 -0.13,-0.196 -0.13,-0.33 v -9.48 c 0,-0.133 0.043,-0.243 0.13,-0.329 0.087,-0.087 0.196,-0.131 0.33,-0.131 h 0.84 c 0.134,0 0.24,0.044 0.32,0.131 0.08,0.086 0.12,0.196 0.12,0.329 v 0.681 c 0.72,-0.894 1.693,-1.34 2.92,-1.34 1.467,0 2.507,0.613 3.12,1.84 0.319,-0.561 0.776,-1.007 1.37,-1.34 0.593,-0.334 1.256,-0.5 1.989,-0.5 1.094,0 1.987,0.373 2.681,1.119 0.692,0.747 1.04,1.827 1.04,3.24 v 5.78 c 0,0.134 -0.044,0.243 -0.13,0.33 -0.087,0.087 -0.197,0.13 -0.33,0.13 h -0.86 c -0.134,0 -0.243,-0.043 -0.33,-0.13 -0.087,-0.087 -0.13,-0.196 -0.13,-0.33 v -5.6 c 0,-1.067 -0.22,-1.83 -0.66,-2.29 -0.439,-0.46 -1.02,-0.69 -1.74,-0.69 -0.64,0 -1.189,0.237 -1.649,0.71 -0.46,0.474 -0.69,1.23 -0.69,2.271 v 5.6 c 0,0.134 -0.043,0.243 -0.13,0.33 -0.087,0.087 -0.197,0.13 -0.33,0.13 h -0.88 c -0.134,0 -0.243,-0.043 -0.33,-0.13 -0.087,-0.087 -0.13,-0.196 -0.13,-0.33 v -5.6 c 0,-1.054 -0.23,-1.813 -0.69,-2.28 -0.46,-0.467 -1.029,-0.7 -1.71,-0.7 -0.64,0 -1.189,0.233 -1.649,0.7 -0.46,0.467 -0.69,1.22 -0.69,2.26 v 5.62 c 0,0.134 -0.043,0.243 -0.13,0.33 -0.087,0.087 -0.197,0.13 -0.33,0.13 h -0.88 c -0.136,-10e-4 -0.245,-0.044 -0.332,-0.131 z"
   id="path109" />
				</g>
			</g>
		</g>
		<g
   id="g143">
			<g
   id="POLYLINE_410_">
				
					<polyline
   fill="none"
   stroke="#00b9d2"
   stroke-width="2"
   stroke-linecap="round"
   stroke-linejoin="round"
   stroke-miterlimit="10"
   points="      101.522,515.803 95.795,521.529 101.522,527.256     "
   id="polyline116" />
			</g>
			<g
   id="POLYLINE_409_">
				
					<line
   fill="none"
   stroke="#00b9d2"
   stroke-width="2"
   stroke-linecap="round"
   stroke-linejoin="round"
   stroke-miterlimit="10"
   x1="95.794998"
   y1="521.52899"
   x2="173.716"
   y2="521.52899"
   id="line119" />
			</g>
			<g
   id="POLYLINE_408_">
				
					<line
   fill="none"
   stroke="#00b9d2"
   stroke-width="2"
   stroke-linecap="round"
   stroke-linejoin="round"
   stroke-miterlimit="10"
   x1="259.91599"
   y1="521.52899"
   x2="292.77499"
   y2="521.52899"
   id="line122" />
			</g>
			<g
   id="POLYLINE_407_">
				
					<polyline
   fill="none"
   stroke="#00b9d2"
   stroke-width="2"
   stroke-linecap="round"
   stroke-linejoin="round"
   stroke-miterlimit="10"
   points="      287.036,515.813 292.764,521.54 287.036,527.267     "
   id="polyline125" />
			</g>
			<g
   id="MTEXT_9_">
				<g
   id="g140">
					<path
   fill="#00b9d2"
   d="m 185.536,527.678 c -0.08,-0.087 -0.12,-0.196 -0.12,-0.33 v -11.28 l -3.36,2.58 c -0.093,0.08 -0.193,0.12 -0.3,0.12 -0.12,0 -0.233,-0.066 -0.34,-0.2 l -0.48,-0.62 c -0.066,-0.093 -0.1,-0.187 -0.1,-0.279 0,-0.146 0.066,-0.267 0.2,-0.36 l 4.34,-3.36 c 0.146,-0.093 0.32,-0.14 0.52,-0.14 h 0.94 c 0.133,0 0.243,0.043 0.33,0.13 0.087,0.087 0.13,0.197 0.13,0.33 v 13.08 c 0,0.134 -0.043,0.243 -0.13,0.33 -0.087,0.087 -0.197,0.13 -0.33,0.13 h -0.98 c -0.134,-10e-4 -0.24,-0.044 -0.32,-0.131 z"
   id="path128" />
					<path
   fill="#00b9d2"
   d="m 191.385,526.498 c -0.793,-1.007 -1.217,-2.323 -1.27,-3.95 l -0.021,-1.721 0.021,-1.779 c 0.04,-1.613 0.463,-2.924 1.27,-3.931 0.807,-1.006 2.063,-1.51 3.771,-1.51 1.72,0 2.982,0.504 3.79,1.51 0.807,1.007 1.229,2.317 1.27,3.931 0.014,0.373 0.021,0.967 0.021,1.779 0,0.787 -0.007,1.36 -0.021,1.721 -0.054,1.627 -0.477,2.943 -1.27,3.95 -0.794,1.007 -2.058,1.51 -3.79,1.51 -1.721,0 -2.978,-0.503 -3.771,-1.51 z m 6.09,-1.171 c 0.521,-0.68 0.794,-1.64 0.82,-2.88 0.013,-0.386 0.021,-0.939 0.021,-1.659 0,-0.733 -0.008,-1.28 -0.021,-1.641 -0.026,-1.227 -0.304,-2.183 -0.83,-2.87 -0.526,-0.687 -1.297,-1.029 -2.31,-1.029 -1.014,0 -1.78,0.343 -2.301,1.029 -0.52,0.688 -0.793,1.644 -0.819,2.87 l -0.021,1.641 0.021,1.659 c 0.026,1.24 0.3,2.2 0.819,2.88 0.521,0.681 1.287,1.021 2.301,1.021 1.027,0 1.801,-0.34 2.32,-1.021 z"
   id="path130" />
					<path
   fill="#00b9d2"
   d="m 205.125,527.498 c -0.793,-0.341 -1.41,-0.83 -1.85,-1.471 -0.44,-0.64 -0.66,-1.387 -0.66,-2.239 0,-0.787 0.196,-1.477 0.59,-2.07 0.394,-0.593 0.923,-1.05 1.59,-1.37 -0.533,-0.307 -0.946,-0.71 -1.24,-1.21 -0.293,-0.5 -0.439,-1.09 -0.439,-1.771 0,-1.159 0.433,-2.076 1.3,-2.75 0.866,-0.673 2.007,-1.01 3.42,-1.01 1.413,0 2.55,0.334 3.41,1 0.86,0.667 1.29,1.587 1.29,2.76 0,0.667 -0.146,1.25 -0.44,1.75 -0.293,0.5 -0.699,0.91 -1.22,1.23 0.667,0.32 1.196,0.776 1.59,1.37 0.394,0.594 0.59,1.29 0.59,2.09 0,0.854 -0.22,1.597 -0.659,2.23 -0.44,0.633 -1.058,1.119 -1.851,1.46 -0.793,0.34 -1.696,0.51 -2.71,0.51 -1.014,0 -1.918,-0.169 -2.711,-0.509 z m 5.081,-1.77 c 0.633,-0.479 0.95,-1.12 0.95,-1.92 0,-0.8 -0.317,-1.44 -0.95,-1.92 -0.634,-0.48 -1.424,-0.72 -2.37,-0.72 -0.96,0 -1.757,0.239 -2.39,0.72 -0.634,0.479 -0.95,1.12 -0.95,1.92 0,0.8 0.316,1.44 0.95,1.92 0.633,0.48 1.43,0.72 2.39,0.72 0.946,-10e-4 1.736,-0.24 2.37,-0.72 z m -0.31,-6.72 c 0.56,-0.4 0.84,-0.934 0.84,-1.601 0,-0.68 -0.277,-1.223 -0.83,-1.63 -0.554,-0.406 -1.243,-0.609 -2.07,-0.609 -0.84,0 -1.533,0.203 -2.08,0.609 -0.547,0.407 -0.819,0.95 -0.819,1.63 0,0.681 0.272,1.224 0.819,1.631 0.547,0.406 1.24,0.609 2.08,0.609 0.813,-0.026 1.499,-0.24 2.06,-0.639 z"
   id="path132" />
					<path
   fill="#00b9d2"
   d="m 216.725,526.498 c -0.793,-1.007 -1.217,-2.323 -1.27,-3.95 l -0.021,-1.721 0.021,-1.779 c 0.04,-1.613 0.463,-2.924 1.27,-3.931 0.807,-1.006 2.063,-1.51 3.771,-1.51 1.72,0 2.982,0.504 3.79,1.51 0.807,1.007 1.229,2.317 1.27,3.931 0.014,0.373 0.021,0.967 0.021,1.779 0,0.787 -0.007,1.36 -0.021,1.721 -0.054,1.627 -0.477,2.943 -1.27,3.95 -0.794,1.007 -2.058,1.51 -3.79,1.51 -1.721,0 -2.978,-0.503 -3.771,-1.51 z m 6.09,-1.171 c 0.521,-0.68 0.794,-1.64 0.82,-2.88 0.013,-0.386 0.021,-0.939 0.021,-1.659 0,-0.733 -0.008,-1.28 -0.021,-1.641 -0.026,-1.227 -0.304,-2.183 -0.83,-2.87 -0.526,-0.687 -1.297,-1.029 -2.31,-1.029 -1.014,0 -1.78,0.343 -2.301,1.029 -0.52,0.688 -0.793,1.644 -0.819,2.87 l -0.021,1.641 0.021,1.659 c 0.026,1.24 0.3,2.2 0.819,2.88 0.521,0.681 1.287,1.021 2.301,1.021 1.027,0 1.8,-0.34 2.32,-1.021 z"
   id="path134" />
					<path
   fill="#00b9d2"
   d="m 233.405,531.487 c -0.087,-0.08 -0.131,-0.193 -0.131,-0.34 v -13.28 c 0,-0.146 0.044,-0.26 0.131,-0.34 0.086,-0.08 0.196,-0.12 0.33,-0.12 h 0.84 c 0.146,0 0.26,0.04 0.34,0.12 0.08,0.08 0.12,0.193 0.12,0.34 v 0.881 c 0.772,-1.027 1.873,-1.54 3.3,-1.54 1.4,0 2.45,0.443 3.15,1.33 0.699,0.887 1.069,2.017 1.109,3.39 0.014,0.146 0.021,0.373 0.021,0.68 0,0.307 -0.007,0.533 -0.021,0.681 -0.04,1.359 -0.41,2.486 -1.109,3.38 -0.7,0.894 -1.75,1.34 -3.15,1.34 -1.427,0 -2.507,-0.507 -3.24,-1.521 v 4.66 c 0,0.133 -0.043,0.243 -0.13,0.33 -0.087,0.087 -0.197,0.13 -0.33,0.13 h -0.899 c -0.135,-10e-4 -0.245,-0.041 -0.331,-0.121 z m 6.649,-5.939 c 0.44,-0.601 0.681,-1.387 0.72,-2.36 0.014,-0.133 0.021,-0.326 0.021,-0.58 0,-2.56 -0.947,-3.84 -2.84,-3.84 -0.934,0 -1.637,0.31 -2.11,0.93 -0.473,0.62 -0.724,1.351 -0.75,2.19 -0.014,0.146 -0.02,0.407 -0.02,0.78 0,0.373 0.006,0.633 0.02,0.779 0.026,0.813 0.283,1.518 0.771,2.11 0.486,0.594 1.183,0.89 2.09,0.89 0.959,0 1.659,-0.3 2.098,-0.899 z"
   id="path136" />
					<path
   fill="#00b9d2"
   d="m 244.075,527.688 c -0.08,-0.08 -0.12,-0.18 -0.12,-0.3 0,-0.12 0.047,-0.247 0.141,-0.38 l 3.479,-4.521 -3.26,-4.3 c -0.106,-0.146 -0.16,-0.267 -0.16,-0.36 0,-0.119 0.043,-0.22 0.13,-0.3 0.087,-0.08 0.184,-0.12 0.29,-0.12 h 0.96 c 0.2,0 0.373,0.107 0.521,0.32 l 2.7,3.5 2.699,-3.5 c 0.08,-0.106 0.157,-0.187 0.23,-0.24 0.073,-0.053 0.17,-0.08 0.29,-0.08 h 0.92 c 0.106,0 0.2,0.04 0.28,0.12 0.08,0.08 0.12,0.174 0.12,0.28 0,0.134 -0.047,0.26 -0.141,0.38 l -3.3,4.34 3.48,4.48 c 0.093,0.133 0.14,0.26 0.14,0.38 0,0.12 -0.04,0.22 -0.12,0.3 -0.08,0.08 -0.18,0.12 -0.3,0.12 h -0.98 c -0.2,0 -0.373,-0.1 -0.52,-0.3 l -2.86,-3.7 -2.859,3.7 c -0.08,0.093 -0.157,0.167 -0.23,0.22 -0.073,0.054 -0.17,0.08 -0.29,0.08 h -0.94 c -0.12,10e-4 -0.22,-0.039 -0.3,-0.119 z"
   id="path138" />
				</g>
			</g>
		</g>
		<g
   id="g172">
			<g
   id="POLYLINE_406_">
				
					<polyline
   fill="none"
   stroke="#00b9d2"
   stroke-width="2"
   stroke-linecap="round"
   stroke-linejoin="round"
   stroke-miterlimit="10"
   points="      280.176,101.852 274.449,96.125 268.722,101.852     "
   id="polyline145" />
			</g>
			<g
   id="POLYLINE_405_">
				
					<line
   fill="none"
   stroke="#00b9d2"
   stroke-width="2"
   stroke-linecap="round"
   stroke-linejoin="round"
   stroke-miterlimit="10"
   x1="274.44901"
   y1="96.125"
   x2="274.44901"
   y2="430.29599"
   id="line148" />
			</g>
			<g
   id="POLYLINE_178_">
				
					<line
   fill="none"
   stroke="#00b9d2"
   stroke-width="2"
   stroke-linecap="round"
   stroke-linejoin="round"
   stroke-miterlimit="10"
   x1="274.44901"
   y1="459.996"
   x2="274.44901"
   y2="558.17999"
   id="line151" />
			</g>
			<g
   id="POLYLINE_177_">
				
					<polyline
   fill="none"
   stroke="#00b9d2"
   stroke-width="2"
   stroke-linecap="round"
   stroke-linejoin="round"
   stroke-miterlimit="10"
   points="      280.166,552.44 274.439,558.168 268.712,552.44     "
   id="polyline154" />
			</g>
			<g
   id="MTEXT_8_">
				<g
   id="g169">
					<path
   fill="#00b9d2"
   d="m 215.178,448.816 c -0.087,-0.087 -0.13,-0.196 -0.13,-0.33 v -0.6 c 0,-0.307 0.166,-0.601 0.5,-0.881 l 4.359,-4.34 c 0.986,-0.84 1.667,-1.526 2.04,-2.06 0.373,-0.534 0.561,-1.101 0.561,-1.7 0,-0.786 -0.221,-1.403 -0.66,-1.85 -0.44,-0.447 -1.08,-0.67 -1.92,-0.67 -0.801,0 -1.434,0.233 -1.9,0.699 -0.467,0.467 -0.753,1.094 -0.86,1.88 -0.026,0.147 -0.093,0.261 -0.199,0.341 -0.107,0.08 -0.214,0.12 -0.32,0.12 h -0.96 c -0.12,0 -0.22,-0.04 -0.3,-0.12 -0.08,-0.08 -0.12,-0.174 -0.12,-0.28 0.026,-0.707 0.217,-1.39 0.569,-2.05 0.354,-0.66 0.877,-1.2 1.57,-1.62 0.693,-0.42 1.533,-0.63 2.521,-0.63 1.493,0 2.616,0.39 3.37,1.17 0.753,0.78 1.13,1.77 1.13,2.97 0,0.84 -0.204,1.597 -0.61,2.271 -0.407,0.673 -1.043,1.383 -1.91,2.13 l -3.939,4 h 6.3 c 0.146,0 0.26,0.04 0.34,0.12 0.08,0.079 0.12,0.193 0.12,0.34 v 0.76 c 0,0.134 -0.044,0.243 -0.13,0.33 -0.087,0.087 -0.197,0.13 -0.33,0.13 h -8.76 c -0.135,0 -0.246,-0.043 -0.332,-0.13 z"
   id="path157" />
					<path
   fill="#00b9d2"
   d="m 228.967,448.637 c -0.76,-0.341 -1.337,-0.783 -1.729,-1.33 -0.394,-0.547 -0.604,-1.113 -0.63,-1.7 0,-0.12 0.04,-0.217 0.12,-0.29 0.079,-0.073 0.18,-0.11 0.3,-0.11 h 0.899 c 0.146,0 0.267,0.03 0.36,0.09 0.093,0.061 0.167,0.178 0.22,0.351 0.174,0.68 0.55,1.16 1.13,1.439 0.58,0.28 1.264,0.42 2.051,0.42 0.96,0 1.723,-0.229 2.29,-0.689 0.566,-0.46 0.85,-1.116 0.85,-1.97 0,-1.627 -0.993,-2.44 -2.98,-2.44 h -1.88 c -0.133,0 -0.243,-0.043 -0.33,-0.13 -0.087,-0.087 -0.13,-0.196 -0.13,-0.33 v -0.52 c 0,-0.2 0.073,-0.374 0.221,-0.521 l 3.899,-4.32 h -5.92 c -0.134,0 -0.243,-0.04 -0.33,-0.12 -0.087,-0.079 -0.13,-0.187 -0.13,-0.319 v -0.72 c 0,-0.147 0.043,-0.264 0.13,-0.351 0.087,-0.087 0.196,-0.13 0.33,-0.13 h 7.92 c 0.146,0 0.264,0.043 0.351,0.13 0.086,0.087 0.13,0.203 0.13,0.351 v 0.659 c 0,0.147 -0.067,0.301 -0.2,0.46 l -3.9,4.381 h 0.32 c 1.36,0.039 2.437,0.393 3.229,1.06 0.794,0.667 1.19,1.64 1.19,2.92 0,0.88 -0.217,1.637 -0.65,2.271 -0.433,0.633 -1.036,1.119 -1.81,1.46 -0.773,0.34 -1.646,0.51 -2.62,0.51 -1.041,-0.003 -1.94,-0.172 -2.701,-0.512 z"
   id="path159" />
					<path
   fill="#00b9d2"
   d="m 245.417,448.816 c -0.087,-0.087 -0.13,-0.196 -0.13,-0.33 v -2.92 h -6.5 c -0.134,0 -0.243,-0.043 -0.33,-0.13 -0.087,-0.087 -0.13,-0.197 -0.13,-0.33 v -0.74 c 0,-0.187 0.073,-0.387 0.22,-0.6 l 6.021,-8.48 c 0.066,-0.106 0.166,-0.189 0.3,-0.25 0.133,-0.06 0.28,-0.09 0.439,-0.09 h 1.36 c 0.146,0 0.26,0.04 0.34,0.12 0.08,0.08 0.12,0.193 0.12,0.34 v 8.48 h 1.82 c 0.133,0 0.243,0.043 0.33,0.13 0.086,0.087 0.13,0.196 0.13,0.33 v 0.76 c 0,0.133 -0.044,0.243 -0.13,0.33 -0.087,0.087 -0.197,0.13 -0.33,0.13 h -1.82 v 2.92 c 0,0.134 -0.043,0.243 -0.13,0.33 -0.087,0.087 -0.197,0.13 -0.33,0.13 h -0.92 c -0.133,0 -0.243,-0.043 -0.33,-0.13 z m -5.009,-4.889 h 4.899 v -6.961 z"
   id="path161" />
					<path
   fill="#00b9d2"
   d="m 252.618,447.637 c -0.793,-1.007 -1.217,-2.323 -1.27,-3.95 l -0.021,-1.721 0.021,-1.779 c 0.04,-1.613 0.463,-2.924 1.27,-3.931 0.807,-1.006 2.063,-1.51 3.771,-1.51 1.72,0 2.982,0.504 3.79,1.51 0.807,1.007 1.229,2.317 1.27,3.931 0.014,0.373 0.021,0.967 0.021,1.779 0,0.787 -0.007,1.36 -0.021,1.721 -0.054,1.627 -0.477,2.943 -1.27,3.95 -0.794,1.007 -2.058,1.51 -3.79,1.51 -1.722,-10e-4 -2.978,-0.503 -3.771,-1.51 z m 6.09,-1.171 c 0.521,-0.68 0.794,-1.64 0.82,-2.88 0.013,-0.386 0.021,-0.939 0.021,-1.659 0,-0.733 -0.008,-1.28 -0.021,-1.641 -0.026,-1.227 -0.304,-2.183 -0.83,-2.87 -0.526,-0.687 -1.297,-1.029 -2.31,-1.029 -1.014,0 -1.78,0.343 -2.301,1.029 -0.52,0.688 -0.793,1.644 -0.819,2.87 l -0.021,1.641 0.021,1.659 c 0.026,1.24 0.3,2.2 0.819,2.88 0.521,0.681 1.287,1.021 2.301,1.021 1.027,-0.001 1.8,-0.341 2.32,-1.021 z"
   id="path163" />
					<path
   fill="#00b9d2"
   d="m 269.297,452.626 c -0.087,-0.08 -0.131,-0.193 -0.131,-0.34 v -13.28 c 0,-0.146 0.044,-0.26 0.131,-0.34 0.086,-0.08 0.196,-0.12 0.33,-0.12 h 0.84 c 0.146,0 0.26,0.04 0.34,0.12 0.08,0.08 0.12,0.193 0.12,0.34 v 0.881 c 0.772,-1.027 1.873,-1.54 3.3,-1.54 1.4,0 2.45,0.443 3.15,1.33 0.699,0.887 1.069,2.017 1.109,3.39 0.014,0.146 0.021,0.373 0.021,0.68 0,0.307 -0.007,0.533 -0.021,0.681 -0.04,1.359 -0.41,2.486 -1.109,3.38 -0.7,0.894 -1.75,1.34 -3.15,1.34 -1.427,0 -2.507,-0.507 -3.24,-1.521 v 4.66 c 0,0.133 -0.043,0.243 -0.13,0.33 -0.087,0.087 -0.197,0.13 -0.33,0.13 h -0.899 c -0.134,-0.001 -0.245,-0.041 -0.331,-0.121 z m 6.65,-5.939 c 0.44,-0.601 0.681,-1.387 0.72,-2.36 0.014,-0.133 0.021,-0.326 0.021,-0.58 0,-2.56 -0.947,-3.84 -2.84,-3.84 -0.934,0 -1.637,0.31 -2.11,0.93 -0.473,0.62 -0.724,1.351 -0.75,2.19 -0.014,0.146 -0.02,0.407 -0.02,0.78 0,0.373 0.006,0.633 0.02,0.779 0.026,0.813 0.283,1.518 0.771,2.11 0.486,0.594 1.183,0.89 2.09,0.89 0.958,0 1.658,-0.3 2.098,-0.899 z"
   id="path165" />
					<path
   fill="#00b9d2"
   d="m 279.967,448.826 c -0.08,-0.08 -0.12,-0.18 -0.12,-0.3 0,-0.12 0.047,-0.247 0.141,-0.38 l 3.479,-4.521 -3.26,-4.3 c -0.106,-0.146 -0.16,-0.267 -0.16,-0.36 0,-0.119 0.043,-0.22 0.13,-0.3 0.087,-0.08 0.184,-0.12 0.29,-0.12 h 0.96 c 0.2,0 0.373,0.107 0.521,0.32 l 2.7,3.5 2.699,-3.5 c 0.08,-0.106 0.157,-0.187 0.23,-0.24 0.073,-0.053 0.17,-0.08 0.29,-0.08 h 0.92 c 0.106,0 0.2,0.04 0.28,0.12 0.08,0.08 0.12,0.174 0.12,0.28 0,0.134 -0.047,0.26 -0.141,0.38 l -3.3,4.34 3.48,4.48 c 0.093,0.133 0.14,0.26 0.14,0.38 0,0.12 -0.04,0.22 -0.12,0.3 -0.08,0.08 -0.18,0.12 -0.3,0.12 h -0.98 c -0.2,0 -0.373,-0.1 -0.52,-0.3 l -2.86,-3.7 -2.859,3.7 c -0.08,0.093 -0.157,0.167 -0.23,0.22 -0.073,0.054 -0.17,0.08 -0.29,0.08 h -0.94 c -0.119,0.001 -0.22,-0.039 -0.3,-0.119 z"
   id="path167" />
				</g>
			</g>
		</g>
		<g
   id="g215">
			<g
   id="POLYLINE_176_">
				
					<polyline
   fill="none"
   stroke="#00b9d2"
   stroke-width="2"
   stroke-linecap="round"
   stroke-linejoin="round"
   stroke-miterlimit="10"
   points="      650.842,77.847 645.115,72.12 639.388,77.847     "
   id="polyline174" />
			</g>
			<g
   id="POLYLINE_171_">
				
					<line
   fill="none"
   stroke="#00b9d2"
   stroke-width="2"
   stroke-linecap="round"
   stroke-linejoin="round"
   stroke-miterlimit="10"
   x1="645.11499"
   y1="72.120003"
   x2="645.11499"
   y2="127.764"
   id="line177" />
			</g>
			<g
   id="POLYLINE_141_">
				
					<line
   fill="none"
   stroke="#00b9d2"
   stroke-width="2"
   stroke-linecap="round"
   stroke-linejoin="round"
   stroke-miterlimit="10"
   x1="645.11499"
   y1="128.108"
   x2="645.11499"
   y2="584.72699"
   id="line180" />
			</g>
			<g
   id="POLYLINE_140_">
				
					<polyline
   fill="none"
   stroke="#00b9d2"
   stroke-width="2"
   stroke-linecap="round"
   stroke-linejoin="round"
   stroke-miterlimit="10"
   points="      650.832,578.987 645.105,584.715 639.378,578.987     "
   id="polyline183" />
			</g>
			<g
   id="MTEXT_7_"
   opacity="0.98">
				<g
   id="g212">
					<path
   fill="#00b9d2"
   d="m 509.54,59.242 c -0.733,-0.36 -1.293,-0.83 -1.68,-1.41 -0.387,-0.58 -0.594,-1.203 -0.62,-1.87 v -0.04 c 0,-0.106 0.04,-0.193 0.12,-0.26 0.08,-0.067 0.173,-0.1 0.28,-0.1 h 0.979 c 0.28,0 0.46,0.146 0.54,0.439 0.2,0.72 0.57,1.257 1.11,1.61 0.54,0.353 1.163,0.529 1.87,0.529 0.906,0 1.66,-0.276 2.26,-0.829 0.6,-0.554 0.9,-1.317 0.9,-2.29 0,-0.894 -0.301,-1.604 -0.9,-2.131 -0.6,-0.526 -1.354,-0.79 -2.26,-0.79 -0.48,0 -0.867,0.061 -1.16,0.181 -0.294,0.12 -0.594,0.293 -0.9,0.52 -0.173,0.134 -0.316,0.23 -0.43,0.29 -0.113,0.061 -0.237,0.09 -0.37,0.09 h -0.96 c -0.12,0 -0.227,-0.043 -0.32,-0.13 -0.093,-0.086 -0.133,-0.189 -0.12,-0.31 l 0.62,-6.66 c 0.04,-0.333 0.207,-0.5 0.5,-0.5 h 6.92 c 0.146,0 0.261,0.04 0.341,0.12 0.079,0.08 0.119,0.193 0.119,0.34 v 0.74 c 0,0.133 -0.043,0.24 -0.13,0.319 -0.087,0.08 -0.196,0.12 -0.33,0.12 h -5.76 l -0.359,4.021 c 0.64,-0.453 1.5,-0.68 2.579,-0.68 0.894,0 1.707,0.177 2.44,0.529 0.733,0.354 1.316,0.87 1.75,1.55 0.434,0.681 0.65,1.487 0.65,2.421 0,0.986 -0.217,1.836 -0.65,2.55 -0.434,0.713 -1.033,1.253 -1.8,1.62 -0.767,0.366 -1.644,0.55 -2.63,0.55 -0.999,10e-4 -1.866,-0.179 -2.599,-0.539 z"
   id="path186" />
					<path
   fill="#00b9d2"
   d="m 519.47,59.452 c -0.087,-0.087 -0.13,-0.196 -0.13,-0.33 v -1.38 c 0,-0.133 0.043,-0.247 0.13,-0.34 0.086,-0.094 0.196,-0.141 0.33,-0.141 h 1.38 c 0.133,0 0.243,0.047 0.33,0.141 0.086,0.093 0.13,0.207 0.13,0.34 v 1.38 c 0,0.134 -0.044,0.243 -0.13,0.33 -0.087,0.087 -0.197,0.13 -0.33,0.13 h -1.38 c -0.133,0 -0.244,-0.043 -0.33,-0.13 z"
   id="path188" />
					<path
   fill="#00b9d2"
   d="m 526.84,59.452 c -0.08,-0.087 -0.12,-0.196 -0.12,-0.33 v -11.28 l -3.36,2.58 c -0.093,0.08 -0.193,0.12 -0.3,0.12 -0.12,0 -0.233,-0.066 -0.34,-0.2 l -0.48,-0.62 c -0.066,-0.093 -0.1,-0.187 -0.1,-0.279 0,-0.146 0.066,-0.267 0.2,-0.36 l 4.34,-3.36 c 0.146,-0.093 0.32,-0.14 0.52,-0.14 h 0.94 c 0.133,0 0.243,0.043 0.33,0.13 0.087,0.087 0.13,0.197 0.13,0.33 v 13.08 c 0,0.134 -0.043,0.243 -0.13,0.33 -0.087,0.087 -0.197,0.13 -0.33,0.13 h -0.98 c -0.133,-10e-4 -0.24,-0.044 -0.32,-0.131 z"
   id="path190" />
					<path
   fill="#00b9d2"
   d="m 533.77,59.272 c -0.793,-0.341 -1.41,-0.83 -1.85,-1.471 -0.44,-0.64 -0.66,-1.387 -0.66,-2.239 0,-0.787 0.196,-1.477 0.59,-2.07 0.394,-0.593 0.923,-1.05 1.59,-1.37 -0.533,-0.307 -0.946,-0.71 -1.24,-1.21 -0.293,-0.5 -0.439,-1.09 -0.439,-1.771 0,-1.159 0.433,-2.076 1.3,-2.75 0.866,-0.673 2.007,-1.01 3.42,-1.01 1.413,0 2.55,0.334 3.41,1 0.86,0.667 1.29,1.587 1.29,2.76 0,0.667 -0.146,1.25 -0.44,1.75 -0.293,0.5 -0.699,0.91 -1.22,1.23 0.667,0.32 1.196,0.776 1.59,1.37 0.394,0.594 0.59,1.29 0.59,2.09 0,0.854 -0.22,1.597 -0.659,2.23 -0.44,0.633 -1.058,1.119 -1.851,1.46 -0.793,0.34 -1.696,0.51 -2.71,0.51 -1.014,0 -1.918,-0.169 -2.711,-0.509 z m 5.08,-1.77 c 0.633,-0.479 0.95,-1.12 0.95,-1.92 0,-0.8 -0.317,-1.44 -0.95,-1.92 -0.634,-0.48 -1.424,-0.72 -2.37,-0.72 -0.96,0 -1.757,0.239 -2.39,0.72 -0.634,0.479 -0.95,1.12 -0.95,1.92 0,0.8 0.316,1.44 0.95,1.92 0.633,0.48 1.43,0.72 2.39,0.72 0.946,0 1.736,-0.24 2.37,-0.72 z m -0.309,-6.72 c 0.56,-0.4 0.84,-0.934 0.84,-1.601 0,-0.68 -0.277,-1.223 -0.83,-1.63 -0.554,-0.406 -1.243,-0.609 -2.07,-0.609 -0.84,0 -1.533,0.203 -2.08,0.609 -0.547,0.407 -0.819,0.95 -0.819,1.63 0,0.681 0.272,1.224 0.819,1.631 0.547,0.406 1.24,0.609 2.08,0.609 0.812,-0.025 1.499,-0.239 2.06,-0.639 z"
   id="path192" />
					<path
   fill="#00b9d2"
   d="m 544.03,49.062 c -0.06,-0.08 -0.077,-0.181 -0.05,-0.301 l 0.439,-2.8 c 0.054,-0.387 0.24,-0.58 0.561,-0.58 h 1.28 c 0.093,0 0.17,0.033 0.229,0.101 0.061,0.066 0.09,0.146 0.09,0.239 0,0.134 -0.02,0.24 -0.06,0.32 l -1.04,2.7 c -0.067,0.146 -0.141,0.257 -0.22,0.33 -0.08,0.073 -0.2,0.109 -0.36,0.109 h -0.62 c -0.106,0.002 -0.19,-0.038 -0.249,-0.118 z m 3.139,0 c -0.06,-0.08 -0.076,-0.181 -0.05,-0.301 l 0.44,-2.8 c 0.053,-0.387 0.24,-0.58 0.56,-0.58 h 1.28 c 0.093,0 0.17,0.033 0.229,0.101 0.061,0.066 0.091,0.146 0.091,0.239 0,0.134 -0.021,0.24 -0.061,0.32 l -1.04,2.7 c -0.066,0.146 -0.14,0.257 -0.22,0.33 -0.08,0.073 -0.2,0.109 -0.36,0.109 h -0.62 c -0.105,0.002 -0.188,-0.038 -0.249,-0.118 z"
   id="path194" />
					<path
   fill="#00b9d2"
   d="m 557.04,63.612 c -0.08,-0.087 -0.12,-0.197 -0.12,-0.33 v -21.16 c 0,-0.133 0.04,-0.243 0.12,-0.33 0.08,-0.087 0.187,-0.13 0.32,-0.13 h 0.739 c 0.134,0 0.243,0.043 0.33,0.13 0.087,0.087 0.13,0.197 0.13,0.33 v 21.16 c 0,0.133 -0.043,0.243 -0.13,0.33 -0.087,0.086 -0.196,0.13 -0.33,0.13 h -0.739 c -0.134,0 -0.24,-0.044 -0.32,-0.13 z"
   id="path196" />
					<path
   fill="#00b9d2"
   d="m 570.159,59.452 c -0.08,-0.087 -0.12,-0.196 -0.12,-0.33 v -11.28 l -3.36,2.58 c -0.093,0.08 -0.193,0.12 -0.3,0.12 -0.12,0 -0.233,-0.066 -0.34,-0.2 l -0.48,-0.62 c -0.066,-0.093 -0.1,-0.187 -0.1,-0.279 0,-0.146 0.066,-0.267 0.2,-0.36 l 4.34,-3.36 c 0.146,-0.093 0.32,-0.14 0.52,-0.14 h 0.94 c 0.133,0 0.243,0.043 0.33,0.13 0.087,0.087 0.13,0.197 0.13,0.33 v 13.08 c 0,0.134 -0.043,0.243 -0.13,0.33 -0.087,0.087 -0.197,0.13 -0.33,0.13 h -0.98 c -0.134,-10e-4 -0.24,-0.044 -0.32,-0.131 z"
   id="path198" />
					<path
   fill="#00b9d2"
   d="m 576.678,59.272 c -0.76,-0.341 -1.337,-0.783 -1.729,-1.33 -0.394,-0.547 -0.604,-1.113 -0.63,-1.7 0,-0.12 0.04,-0.217 0.12,-0.29 0.079,-0.073 0.18,-0.11 0.3,-0.11 h 0.899 c 0.146,0 0.267,0.03 0.36,0.09 0.093,0.061 0.167,0.178 0.22,0.351 0.174,0.68 0.55,1.16 1.13,1.439 0.58,0.28 1.264,0.42 2.051,0.42 0.96,0 1.723,-0.229 2.29,-0.689 0.566,-0.46 0.85,-1.116 0.85,-1.97 0,-1.627 -0.993,-2.44 -2.98,-2.44 h -1.88 c -0.133,0 -0.243,-0.043 -0.33,-0.13 -0.087,-0.087 -0.13,-0.196 -0.13,-0.33 v -0.52 c 0,-0.2 0.073,-0.374 0.221,-0.521 l 3.899,-4.32 h -5.92 c -0.134,0 -0.243,-0.04 -0.33,-0.12 -0.087,-0.079 -0.13,-0.187 -0.13,-0.319 v -0.72 c 0,-0.147 0.043,-0.264 0.13,-0.351 0.087,-0.087 0.196,-0.13 0.33,-0.13 h 7.92 c 0.146,0 0.264,0.043 0.351,0.13 0.086,0.087 0.13,0.203 0.13,0.351 v 0.659 c 0,0.147 -0.067,0.301 -0.2,0.46 l -3.9,4.381 h 0.32 c 1.36,0.039 2.437,0.393 3.229,1.06 0.794,0.667 1.19,1.64 1.19,2.92 0,0.88 -0.217,1.637 -0.65,2.271 -0.433,0.633 -1.036,1.119 -1.81,1.46 -0.773,0.34 -1.646,0.51 -2.62,0.51 -1.041,-0.002 -1.94,-0.172 -2.701,-0.512 z"
   id="path200" />
					<path
   fill="#00b9d2"
   d="m 590.258,59.452 c -0.08,-0.087 -0.12,-0.196 -0.12,-0.33 v -11.28 l -3.36,2.58 c -0.093,0.08 -0.193,0.12 -0.3,0.12 -0.12,0 -0.233,-0.066 -0.34,-0.2 l -0.48,-0.62 c -0.066,-0.093 -0.1,-0.187 -0.1,-0.279 0,-0.146 0.066,-0.267 0.2,-0.36 l 4.34,-3.36 c 0.146,-0.093 0.32,-0.14 0.52,-0.14 h 0.94 c 0.133,0 0.243,0.043 0.33,0.13 0.087,0.087 0.13,0.197 0.13,0.33 v 13.08 c 0,0.134 -0.043,0.243 -0.13,0.33 -0.087,0.087 -0.197,0.13 -0.33,0.13 h -0.98 c -0.133,-10e-4 -0.24,-0.044 -0.32,-0.131 z"
   id="path202" />
					<path
   fill="#00b9d2"
   d="m 595.048,59.452 c -0.087,-0.087 -0.13,-0.196 -0.13,-0.33 v -1.38 c 0,-0.133 0.043,-0.247 0.13,-0.34 0.086,-0.094 0.196,-0.141 0.33,-0.141 h 1.38 c 0.133,0 0.243,0.047 0.33,0.141 0.086,0.093 0.13,0.207 0.13,0.34 v 1.38 c 0,0.134 -0.044,0.243 -0.13,0.33 -0.087,0.087 -0.197,0.13 -0.33,0.13 h -1.38 c -0.133,0 -0.244,-0.043 -0.33,-0.13 z"
   id="path204" />
					<path
   fill="#00b9d2"
   d="m 601.778,59.242 c -0.733,-0.36 -1.293,-0.83 -1.68,-1.41 -0.387,-0.58 -0.594,-1.203 -0.62,-1.87 v -0.04 c 0,-0.106 0.04,-0.193 0.12,-0.26 0.08,-0.067 0.173,-0.1 0.28,-0.1 h 0.979 c 0.28,0 0.46,0.146 0.54,0.439 0.2,0.72 0.57,1.257 1.11,1.61 0.54,0.353 1.163,0.529 1.87,0.529 0.906,0 1.66,-0.276 2.26,-0.829 0.6,-0.554 0.9,-1.317 0.9,-2.29 0,-0.894 -0.301,-1.604 -0.9,-2.131 -0.6,-0.526 -1.354,-0.79 -2.26,-0.79 -0.48,0 -0.867,0.061 -1.16,0.181 -0.294,0.12 -0.594,0.293 -0.9,0.52 -0.173,0.134 -0.316,0.23 -0.43,0.29 -0.113,0.061 -0.237,0.09 -0.37,0.09 h -0.96 c -0.12,0 -0.227,-0.043 -0.32,-0.13 -0.093,-0.086 -0.133,-0.189 -0.12,-0.31 l 0.62,-6.66 c 0.04,-0.333 0.207,-0.5 0.5,-0.5 h 6.92 c 0.146,0 0.261,0.04 0.341,0.12 0.079,0.08 0.119,0.193 0.119,0.34 v 0.74 c 0,0.133 -0.043,0.24 -0.13,0.319 -0.087,0.08 -0.196,0.12 -0.33,0.12 h -5.76 l -0.359,4.021 c 0.64,-0.453 1.5,-0.68 2.579,-0.68 0.894,0 1.707,0.177 2.44,0.529 0.733,0.354 1.316,0.87 1.75,1.55 0.434,0.681 0.65,1.487 0.65,2.421 0,0.986 -0.217,1.836 -0.65,2.55 -0.434,0.713 -1.033,1.253 -1.8,1.62 -0.767,0.366 -1.644,0.55 -2.63,0.55 -0.999,10e-4 -1.866,-0.179 -2.599,-0.539 z"
   id="path206" />
					<path
   fill="#00b9d2"
   d="m 616.948,59.452 c -0.087,-0.087 -0.13,-0.196 -0.13,-0.33 v -9.48 c 0,-0.133 0.043,-0.243 0.13,-0.329 0.087,-0.087 0.196,-0.131 0.33,-0.131 h 0.84 c 0.134,0 0.24,0.044 0.32,0.131 0.08,0.086 0.12,0.196 0.12,0.329 v 0.681 c 0.72,-0.894 1.693,-1.34 2.92,-1.34 1.467,0 2.507,0.613 3.12,1.84 0.319,-0.561 0.776,-1.007 1.37,-1.34 0.593,-0.334 1.256,-0.5 1.989,-0.5 1.094,0 1.987,0.373 2.681,1.119 0.692,0.747 1.04,1.827 1.04,3.24 v 5.78 c 0,0.134 -0.044,0.243 -0.13,0.33 -0.087,0.087 -0.197,0.13 -0.33,0.13 h -0.86 c -0.134,0 -0.243,-0.043 -0.33,-0.13 -0.087,-0.087 -0.13,-0.196 -0.13,-0.33 v -5.6 c 0,-1.067 -0.22,-1.83 -0.66,-2.29 -0.439,-0.46 -1.02,-0.69 -1.74,-0.69 -0.64,0 -1.189,0.237 -1.649,0.71 -0.46,0.474 -0.69,1.23 -0.69,2.271 v 5.6 c 0,0.134 -0.043,0.243 -0.13,0.33 -0.087,0.087 -0.197,0.13 -0.33,0.13 h -0.88 c -0.134,0 -0.243,-0.043 -0.33,-0.13 -0.087,-0.087 -0.13,-0.196 -0.13,-0.33 v -5.6 c 0,-1.054 -0.23,-1.813 -0.69,-2.28 -0.46,-0.467 -1.029,-0.7 -1.71,-0.7 -0.64,0 -1.189,0.233 -1.649,0.7 -0.46,0.467 -0.69,1.22 -0.69,2.26 v 5.62 c 0,0.134 -0.043,0.243 -0.13,0.33 -0.087,0.087 -0.197,0.13 -0.33,0.13 h -0.88 c -0.136,-10e-4 -0.245,-0.044 -0.332,-0.131 z"
   id="path208" />
					<path
   fill="#00b9d2"
   d="m 634.708,59.452 c -0.087,-0.087 -0.13,-0.196 -0.13,-0.33 v -9.48 c 0,-0.133 0.043,-0.243 0.13,-0.329 0.087,-0.087 0.196,-0.131 0.33,-0.131 h 0.84 c 0.134,0 0.24,0.044 0.32,0.131 0.08,0.086 0.12,0.196 0.12,0.329 v 0.681 c 0.72,-0.894 1.693,-1.34 2.92,-1.34 1.467,0 2.507,0.613 3.12,1.84 0.319,-0.561 0.776,-1.007 1.37,-1.34 0.593,-0.334 1.256,-0.5 1.989,-0.5 1.094,0 1.987,0.373 2.681,1.119 0.692,0.747 1.04,1.827 1.04,3.24 v 5.78 c 0,0.134 -0.044,0.243 -0.13,0.33 -0.087,0.087 -0.197,0.13 -0.33,0.13 h -0.86 c -0.134,0 -0.243,-0.043 -0.33,-0.13 -0.087,-0.087 -0.13,-0.196 -0.13,-0.33 v -5.6 c 0,-1.067 -0.22,-1.83 -0.66,-2.29 -0.439,-0.46 -1.02,-0.69 -1.74,-0.69 -0.64,0 -1.189,0.237 -1.649,0.71 -0.46,0.474 -0.69,1.23 -0.69,2.271 v 5.6 c 0,0.134 -0.043,0.243 -0.13,0.33 -0.087,0.087 -0.197,0.13 -0.33,0.13 h -0.88 c -0.134,0 -0.243,-0.043 -0.33,-0.13 -0.087,-0.087 -0.13,-0.196 -0.13,-0.33 v -5.6 c 0,-1.054 -0.23,-1.813 -0.69,-2.28 -0.46,-0.467 -1.029,-0.7 -1.71,-0.7 -0.64,0 -1.189,0.233 -1.649,0.7 -0.46,0.467 -0.69,1.22 -0.69,2.26 v 5.62 c 0,0.134 -0.043,0.243 -0.13,0.33 -0.087,0.087 -0.197,0.13 -0.33,0.13 h -0.88 c -0.136,-10e-4 -0.246,-0.044 -0.332,-0.131 z"
   id="path210" />
				</g>
			</g>
		</g>
		<g
   id="g249">
			<g
   id="POLYLINE_139_">
				
					<polyline
   fill="none"
   stroke="#00b9d2"
   stroke-width="2"
   stroke-linecap="round"
   stroke-linejoin="round"
   stroke-miterlimit="10"
   points="      730.686,610.156 736.413,604.429 730.686,598.702     "
   id="polyline217" />
			</g>
			<g
   id="POLYLINE_138_">
				
					<line
   fill="none"
   stroke="#00b9d2"
   stroke-width="2"
   stroke-linecap="round"
   stroke-linejoin="round"
   stroke-miterlimit="10"
   x1="735.49701"
   y1="604.42902"
   x2="708.80701"
   y2="604.42902"
   id="line220" />
			</g>
			<g
   id="POLYLINE_28_">
				
					<polyline
   fill="none"
   stroke="#00b9d2"
   stroke-width="2"
   stroke-linecap="round"
   stroke-linejoin="round"
   stroke-miterlimit="10"
   points="      714.546,610.145 708.818,604.418 714.546,598.691     "
   id="polyline223" />
			</g>
			<g
   id="MTEXT_2_"
   opacity="0.98">
				<g
   id="g246">
					<path
   fill="#00b9d2"
   d="m 746.328,611.451 c -0.087,-0.087 -0.13,-0.196 -0.13,-0.33 v -1.38 c 0,-0.133 0.043,-0.247 0.13,-0.34 0.086,-0.094 0.196,-0.141 0.33,-0.141 h 1.38 c 0.133,0 0.243,0.047 0.33,0.141 0.086,0.093 0.13,0.207 0.13,0.34 v 1.38 c 0,0.134 -0.044,0.243 -0.13,0.33 -0.087,0.087 -0.197,0.13 -0.33,0.13 h -1.38 c -0.134,0 -0.244,-0.043 -0.33,-0.13 z"
   id="path226" />
					<path
   fill="#00b9d2"
   d="m 753.057,611.271 c -0.76,-0.341 -1.337,-0.783 -1.729,-1.33 -0.394,-0.547 -0.604,-1.113 -0.63,-1.7 0,-0.12 0.04,-0.217 0.12,-0.29 0.079,-0.073 0.18,-0.11 0.3,-0.11 h 0.899 c 0.146,0 0.267,0.03 0.36,0.09 0.093,0.061 0.167,0.178 0.22,0.351 0.174,0.68 0.55,1.16 1.13,1.439 0.58,0.28 1.264,0.42 2.051,0.42 0.96,0 1.723,-0.229 2.29,-0.689 0.566,-0.46 0.85,-1.116 0.85,-1.97 0,-1.627 -0.993,-2.44 -2.98,-2.44 h -1.88 c -0.133,0 -0.243,-0.043 -0.33,-0.13 -0.087,-0.087 -0.13,-0.196 -0.13,-0.33 v -0.52 c 0,-0.2 0.073,-0.374 0.221,-0.521 l 3.899,-4.32 h -5.92 c -0.134,0 -0.243,-0.04 -0.33,-0.12 -0.087,-0.079 -0.13,-0.187 -0.13,-0.319 v -0.72 c 0,-0.147 0.043,-0.264 0.13,-0.351 0.087,-0.087 0.196,-0.13 0.33,-0.13 h 7.92 c 0.146,0 0.264,0.043 0.351,0.13 0.086,0.087 0.13,0.203 0.13,0.351 v 0.659 c 0,0.147 -0.067,0.301 -0.2,0.46 l -3.9,4.381 h 0.32 c 1.36,0.039 2.437,0.393 3.229,1.06 0.794,0.667 1.19,1.64 1.19,2.92 0,0.88 -0.217,1.637 -0.65,2.271 -0.433,0.633 -1.036,1.119 -1.81,1.46 -0.773,0.34 -1.646,0.51 -2.62,0.51 -1.041,-0.002 -1.94,-0.172 -2.701,-0.512 z"
   id="path228" />
					<path
   fill="#00b9d2"
   d="m 763.007,601.062 c -0.06,-0.08 -0.077,-0.181 -0.05,-0.301 l 0.439,-2.8 c 0.054,-0.387 0.24,-0.58 0.561,-0.58 h 1.28 c 0.093,0 0.17,0.033 0.229,0.101 0.061,0.066 0.09,0.146 0.09,0.239 0,0.134 -0.02,0.24 -0.06,0.32 l -1.04,2.7 c -0.067,0.146 -0.141,0.257 -0.22,0.33 -0.08,0.073 -0.2,0.109 -0.36,0.109 h -0.62 c -0.105,0.001 -0.189,-0.039 -0.249,-0.118 z m 3.14,0 c -0.06,-0.08 -0.076,-0.181 -0.05,-0.301 l 0.44,-2.8 c 0.053,-0.387 0.24,-0.58 0.56,-0.58 h 1.28 c 0.093,0 0.17,0.033 0.229,0.101 0.061,0.066 0.091,0.146 0.091,0.239 0,0.134 -0.021,0.24 -0.061,0.32 l -1.04,2.7 c -0.066,0.146 -0.14,0.257 -0.22,0.33 -0.08,0.073 -0.2,0.109 -0.36,0.109 h -0.62 c -0.105,0.001 -0.188,-0.039 -0.249,-0.118 z"
   id="path230" />
					<path
   fill="#00b9d2"
   d="m 776.017,615.611 c -0.08,-0.087 -0.12,-0.197 -0.12,-0.33 v -21.16 c 0,-0.133 0.04,-0.243 0.12,-0.33 0.08,-0.087 0.187,-0.13 0.32,-0.13 h 0.739 c 0.134,0 0.243,0.043 0.33,0.13 0.087,0.087 0.13,0.197 0.13,0.33 v 21.16 c 0,0.133 -0.043,0.243 -0.13,0.33 -0.087,0.086 -0.196,0.13 -0.33,0.13 h -0.739 c -0.133,0 -0.24,-0.044 -0.32,-0.13 z"
   id="path232" />
					<path
   fill="#00b9d2"
   d="m 786.646,611.451 c -0.073,-0.087 -0.11,-0.19 -0.11,-0.311 l 0.04,-0.18 5,-11.7 h -6.6 c -0.134,0 -0.243,-0.043 -0.33,-0.13 -0.087,-0.086 -0.13,-0.196 -0.13,-0.33 v -0.739 c 0,-0.147 0.04,-0.264 0.12,-0.351 0.08,-0.087 0.193,-0.13 0.34,-0.13 h 8.16 c 0.146,0 0.26,0.043 0.34,0.13 0.08,0.087 0.12,0.203 0.12,0.351 v 0.68 c 0,0.24 -0.054,0.5 -0.16,0.78 l -4.94,11.56 c -0.066,0.146 -0.14,0.267 -0.22,0.36 -0.08,0.093 -0.193,0.14 -0.34,0.14 h -1 c -0.12,0 -0.217,-0.043 -0.29,-0.13 z"
   id="path234" />
					<path
   fill="#00b9d2"
   d="m 794.306,611.451 c -0.087,-0.087 -0.13,-0.196 -0.13,-0.33 v -1.38 c 0,-0.133 0.043,-0.247 0.13,-0.34 0.086,-0.094 0.196,-0.141 0.33,-0.141 h 1.38 c 0.133,0 0.243,0.047 0.33,0.141 0.086,0.093 0.13,0.207 0.13,0.34 v 1.38 c 0,0.134 -0.044,0.243 -0.13,0.33 -0.087,0.087 -0.197,0.13 -0.33,0.13 h -1.38 c -0.134,0 -0.244,-0.043 -0.33,-0.13 z"
   id="path236" />
					<path
   fill="#00b9d2"
   d="m 800.947,611.131 c -0.78,-0.433 -1.374,-1.017 -1.78,-1.75 -0.406,-0.733 -0.609,-1.533 -0.609,-2.399 0,-1.146 0.46,-2.373 1.38,-3.681 l 3.819,-5.319 c 0.014,-0.014 0.051,-0.061 0.11,-0.141 0.059,-0.08 0.137,-0.143 0.229,-0.189 0.094,-0.047 0.2,-0.07 0.32,-0.07 h 0.98 c 0.12,0 0.216,0.043 0.29,0.13 0.073,0.087 0.109,0.19 0.109,0.311 0,0.066 -0.033,0.153 -0.1,0.26 l -2.92,4.08 c 0.347,-0.08 0.733,-0.12 1.16,-0.12 0.973,0 1.83,0.217 2.569,0.649 0.74,0.434 1.313,1.007 1.721,1.721 0.406,0.713 0.609,1.497 0.609,2.35 0,0.854 -0.203,1.65 -0.609,2.39 -0.407,0.74 -0.997,1.33 -1.771,1.771 -0.774,0.441 -1.687,0.66 -2.74,0.66 -1.064,-0.003 -1.987,-0.22 -2.767,-0.653 z m 4.37,-1.37 c 0.493,-0.239 0.887,-0.597 1.18,-1.069 0.293,-0.474 0.44,-1.044 0.44,-1.71 0,-0.653 -0.15,-1.217 -0.45,-1.69 -0.3,-0.473 -0.697,-0.833 -1.19,-1.08 -0.493,-0.246 -1.026,-0.37 -1.6,-0.37 -0.574,0 -1.107,0.124 -1.601,0.37 -0.493,0.247 -0.887,0.607 -1.18,1.08 -0.293,0.474 -0.439,1.037 -0.439,1.69 0,0.666 0.146,1.236 0.439,1.71 0.293,0.473 0.687,0.83 1.18,1.069 0.493,0.24 1.027,0.36 1.601,0.36 0.587,0 1.126,-0.12 1.62,-0.36 z"
   id="path238" />
					<path
   fill="#00b9d2"
   d="m 812.795,611.241 c -0.733,-0.36 -1.293,-0.83 -1.68,-1.41 -0.387,-0.58 -0.594,-1.203 -0.62,-1.87 v -0.04 c 0,-0.106 0.04,-0.193 0.12,-0.26 0.08,-0.067 0.173,-0.1 0.28,-0.1 h 0.979 c 0.28,0 0.46,0.146 0.54,0.439 0.2,0.72 0.57,1.257 1.11,1.61 0.54,0.353 1.163,0.529 1.87,0.529 0.906,0 1.66,-0.276 2.26,-0.829 0.6,-0.554 0.9,-1.317 0.9,-2.29 0,-0.894 -0.301,-1.604 -0.9,-2.131 -0.6,-0.526 -1.354,-0.79 -2.26,-0.79 -0.48,0 -0.867,0.061 -1.16,0.181 -0.294,0.12 -0.594,0.293 -0.9,0.52 -0.173,0.134 -0.316,0.23 -0.43,0.29 -0.113,0.061 -0.237,0.09 -0.37,0.09 h -0.96 c -0.12,0 -0.227,-0.043 -0.32,-0.13 -0.093,-0.086 -0.133,-0.189 -0.12,-0.31 l 0.62,-6.66 c 0.04,-0.333 0.207,-0.5 0.5,-0.5 h 6.92 c 0.146,0 0.261,0.04 0.341,0.12 0.079,0.08 0.119,0.193 0.119,0.34 v 0.74 c 0,0.133 -0.043,0.24 -0.13,0.319 -0.087,0.08 -0.196,0.12 -0.33,0.12 h -5.76 l -0.359,4.021 c 0.64,-0.453 1.5,-0.68 2.579,-0.68 0.894,0 1.707,0.177 2.44,0.529 0.733,0.354 1.316,0.87 1.75,1.55 0.434,0.681 0.65,1.487 0.65,2.421 0,0.986 -0.217,1.836 -0.65,2.55 -0.434,0.713 -1.033,1.253 -1.8,1.62 -0.767,0.366 -1.644,0.55 -2.63,0.55 -0.998,10e-4 -1.865,-0.179 -2.599,-0.539 z"
   id="path240" />
					<path
   fill="#00b9d2"
   d="m 827.965,611.451 c -0.087,-0.087 -0.13,-0.196 -0.13,-0.33 v -9.48 c 0,-0.133 0.043,-0.243 0.13,-0.329 0.087,-0.087 0.196,-0.131 0.33,-0.131 h 0.84 c 0.134,0 0.24,0.044 0.32,0.131 0.08,0.086 0.12,0.196 0.12,0.329 v 0.681 c 0.72,-0.894 1.693,-1.34 2.92,-1.34 1.467,0 2.507,0.613 3.12,1.84 0.319,-0.561 0.776,-1.007 1.37,-1.34 0.593,-0.334 1.256,-0.5 1.989,-0.5 1.094,0 1.987,0.373 2.681,1.119 0.692,0.747 1.04,1.827 1.04,3.24 v 5.78 c 0,0.134 -0.044,0.243 -0.13,0.33 -0.087,0.087 -0.197,0.13 -0.33,0.13 h -0.86 c -0.134,0 -0.243,-0.043 -0.33,-0.13 -0.087,-0.087 -0.13,-0.196 -0.13,-0.33 v -5.6 c 0,-1.067 -0.22,-1.83 -0.66,-2.29 -0.439,-0.46 -1.02,-0.69 -1.74,-0.69 -0.64,0 -1.189,0.237 -1.649,0.71 -0.46,0.474 -0.69,1.23 -0.69,2.271 v 5.6 c 0,0.134 -0.043,0.243 -0.13,0.33 -0.087,0.087 -0.197,0.13 -0.33,0.13 h -0.88 c -0.134,0 -0.243,-0.043 -0.33,-0.13 -0.087,-0.087 -0.13,-0.196 -0.13,-0.33 v -5.6 c 0,-1.054 -0.23,-1.813 -0.69,-2.28 -0.46,-0.467 -1.029,-0.7 -1.71,-0.7 -0.64,0 -1.189,0.233 -1.649,0.7 -0.46,0.467 -0.69,1.22 -0.69,2.26 v 5.62 c 0,0.134 -0.043,0.243 -0.13,0.33 -0.087,0.087 -0.197,0.13 -0.33,0.13 h -0.88 c -0.135,-10e-4 -0.245,-0.044 -0.332,-0.131 z"
   id="path242" />
					<path
   fill="#00b9d2"
   d="m 845.725,611.451 c -0.087,-0.087 -0.13,-0.196 -0.13,-0.33 v -9.48 c 0,-0.133 0.043,-0.243 0.13,-0.329 0.087,-0.087 0.196,-0.131 0.33,-0.131 h 0.84 c 0.134,0 0.24,0.044 0.32,0.131 0.08,0.086 0.12,0.196 0.12,0.329 v 0.681 c 0.72,-0.894 1.693,-1.34 2.92,-1.34 1.467,0 2.507,0.613 3.12,1.84 0.319,-0.561 0.776,-1.007 1.37,-1.34 0.593,-0.334 1.256,-0.5 1.989,-0.5 1.094,0 1.987,0.373 2.681,1.119 0.692,0.747 1.04,1.827 1.04,3.24 v 5.78 c 0,0.134 -0.044,0.243 -0.13,0.33 -0.087,0.087 -0.197,0.13 -0.33,0.13 h -0.86 c -0.134,0 -0.243,-0.043 -0.33,-0.13 -0.087,-0.087 -0.13,-0.196 -0.13,-0.33 v -5.6 c 0,-1.067 -0.22,-1.83 -0.66,-2.29 -0.439,-0.46 -1.02,-0.69 -1.74,-0.69 -0.64,0 -1.189,0.237 -1.649,0.71 -0.46,0.474 -0.69,1.23 -0.69,2.271 v 5.6 c 0,0.134 -0.043,0.243 -0.13,0.33 -0.087,0.087 -0.197,0.13 -0.33,0.13 h -0.88 c -0.134,0 -0.243,-0.043 -0.33,-0.13 -0.087,-0.087 -0.13,-0.196 -0.13,-0.33 v -5.6 c 0,-1.054 -0.23,-1.813 -0.69,-2.28 -0.46,-0.467 -1.029,-0.7 -1.71,-0.7 -0.64,0 -1.189,0.233 -1.649,0.7 -0.46,0.467 -0.69,1.22 -0.69,2.26 v 5.62 c 0,0.134 -0.043,0.243 -0.13,0.33 -0.087,0.087 -0.197,0.13 -0.33,0.13 h -0.88 c -0.136,-10e-4 -0.245,-0.044 -0.332,-0.131 z"
   id="path244" />
				</g>
			</g>
		</g>
	</g>
</g>



<path
   fill="none"
   stroke="#00b9d2"
   stroke-width="2"
   stroke-linecap="round"
   stroke-linejoin="round"
   stroke-miterlimit="10"
   d="m 107.232,5.5224753 c -0.468,-0.001 -0.934,0.176 -1.282,0.489 -0.342,0.303 -0.568,0.733 -0.626,1.186 -0.06,0.453 0.048,0.926 0.3,1.307 0.238,0.364 0.603,0.642 1.017,0.775 0.158,0.051 0.325,0.082 0.492,0.091 0.333,-0.002 39.764,0.016 40.081,-0.005 0.165,-0.014 0.332,-0.051 0.488,-0.108 0.367,-0.132 0.691,-0.379 0.916,-0.698 0.427,-0.592 0.471,-1.422 0.107,-2.056 -0.201,-0.36 -0.522,-0.651 -0.899,-0.817 -0.152,-0.067 -0.315,-0.115 -0.479,-0.141 -0.087,-0.014 -0.178,-0.022 -0.266,-0.023 -0.033,0 -39.816,0 -39.849,0 z"
   id="path272"
   style="stroke:#000000;stroke-opacity:1" /><path
   fill="none"
   stroke="#00b9d2"
   stroke-width="2"
   stroke-linecap="round"
   stroke-linejoin="round"
   stroke-miterlimit="10"
   d="m 40.125,504.12048 c -10.274,0.028 -20.172,-4.946 -26.276,-13.217 -2.015,-2.715 -3.619,-5.766 -4.706,-8.967 -1.027,-3.023 -1.616,-6.222 -1.725,-9.412 -0.194,-1.624 0.093,-433.045005 -0.015,-434.839005 0,-10e-4 0.015,-0.565 0.015,-0.565 0,0 0.024,-0.564 0.024,-0.564 0,0 0.034,-0.564 0.034,-0.564 0,0 0.044,-0.563 0.044,-0.563 0.132,-1.472 0.366,-3.019 0.699,-4.461 0.794,-3.478 2.173,-6.852 4.046,-9.889 3.743,-6.1 9.556,-10.905 16.255,-13.4279997 2.631,-0.995 5.423,-1.662 8.222,-1.951 1.099,-0.101 2.28,-0.184 3.383,-0.175 0.574,0.025 174.066,-0.024 174.591,0.005 0.001,0 0.566,0.015 0.566,0.015 0,0 0.564,0.024 0.564,0.024 0,0 0.564,0.034 0.564,0.034 0,0 0.563,0.044 0.563,0.044 0,0 0.562,0.054 0.562,0.054 0,0 0.561,0.063 0.561,0.063 1.85,0.23 3.737,0.618 5.521,1.16 7.583,2.27 14.26,7.4039997 18.393,14.1559997 2.171,3.521 3.672,7.475 4.381,11.551 0.285,1.656 0.454,3.377 0.481,5.056 0.113,1.394 -0.066,432.828005 0,434.274005 0,0.001 -0.015,0.565 -0.015,0.565 0,0 -0.024,0.564 -0.024,0.564 0,0 -0.034,0.564 -0.034,0.564 0,0 -0.044,0.563 -0.044,0.563 0,0 -0.054,0.562 -0.054,0.562 0,0 -0.063,0.561 -0.063,0.561 -0.25,2.037 -0.699,4.106 -1.328,6.061 -2.567,8.086 -8.423,15.057 -15.951,18.972 -2.325,1.217 -4.828,2.171 -7.377,2.798 -1.444,0.348 -2.97,0.627 -4.449,0.776 -0.706,0.082 -1.545,0.125 -2.254,0.156 -0.29,-0.015 -0.842,0.037 -1.13,0.019 0.004,-0.002 -174.024,-0.002 -174.024,-0.002 z"
   id="path299"
   style="stroke:#000000;stroke-opacity:1" />
<rect
   x="250.72899"
   y="134.64348"
   fill="none"
   stroke="#00b9d2"
   stroke-width="2.5"
   stroke-linecap="round"
   stroke-linejoin="round"
   stroke-miterlimit="10"
   width="1.925"
   height="69.476997"
   id="rect426"
   style="stroke:#000000;stroke-opacity:1" /><rect
   x="1.6230006"
   y="80.847473"
   fill="none"
   stroke="#00b9d2"
   stroke-width="2.5"
   stroke-linecap="round"
   stroke-linejoin="round"
   stroke-miterlimit="10"
   width="1.925"
   height="21.176001"
   id="rect429"
   style="stroke:#000000;stroke-opacity:1" /><rect
   x="1.6230006"
   y="176.21548"
   fill="none"
   stroke="#00b9d2"
   stroke-width="2.5"
   stroke-linecap="round"
   stroke-linejoin="round"
   stroke-miterlimit="10"
   width="1.925"
   height="40.426998"
   id="rect432"
   style="stroke:#000000;stroke-opacity:1" /><rect
   x="1.6230006"
   y="122.28447"
   fill="none"
   stroke="#00b9d2"
   stroke-width="2.5"
   stroke-linecap="round"
   stroke-linejoin="round"
   stroke-miterlimit="10"
   width="1.925"
   height="40.426998"
   id="rect435"
   style="stroke:#000000;stroke-opacity:1" /><path
   fill="none"
   stroke="#00b9d2"
   stroke-width="2.5"
   stroke-linecap="round"
   stroke-linejoin="round"
   stroke-miterlimit="10"
   d="m 71.579,14.232475 c 2.121,-0.004 3.856,1.736 3.85,3.85 0,0 0,3.028 0,3.028 0.002,0.158 0.002,0.358 0.009,0.514 0.015,0.404 0.043,0.821 0.09,1.222 0.145,1.281 0.454,2.551 0.914,3.755 1.438,3.81 4.455,6.981 8.189,8.607 1.841,0.811 3.847,1.255 5.858,1.299 0.192,-0.227 72.703,0.171 72.959,0.003 0,10e-4 0.17,0 0.17,0 0,0 0.171,-0.003 0.171,-0.003 0.579,-0.012 1.174,-0.061 1.748,-0.139 0.97,-0.132 1.938,-0.362 2.865,-0.676 2.162,-0.733 4.159,-1.958 5.793,-3.552 2.528,-2.451 4.166,-5.795 4.554,-9.294 0.036,-0.333 0.07,-0.712 0.083,-1.049 0,0 0.007,-0.173 0.007,-0.173 l 0.005,-0.172 c 0,0 0.003,-0.171 0.003,-0.171 0,0 0.001,-0.171 0.001,-0.171 0,0 0,-3.028 0,-3.028 0,0 10e-4,-0.066 10e-4,-0.066 0,0 0.002,-0.066 0.002,-0.066 0,0 0.003,-0.066 0.003,-0.066 0.018,-0.352 0.087,-0.707 0.2,-1.041 0.325,-0.967 1.054,-1.79 1.974,-2.229 0.378,-0.182 0.79,-0.303 1.206,-0.353 1.621,0.003 33.312,-0.275 34.412,0.004 12.099,1.25 21.414,11.39 21.617,23.568 -0.297,1.892 0.261,433.002005 -0.029,434.808005 -0.073,1.367 -0.265,2.783 -0.572,4.119 -0.462,2.018 -1.193,4.007 -2.158,5.84 -2.633,5.046 -7.119,9.095 -12.413,11.19 -2.83,1.129 -5.891,1.72 -8.939,1.718 0,0 -174.028,0 -174.028,0 0,0 -0.416,-0.004 -0.416,-0.004 0,0 -0.416,-0.011 -0.416,-0.011 -1.09,-0.049 -2.234,-0.149 -3.309,-0.344 -2.727,-0.477 -5.389,-1.43 -7.795,-2.803 -7.233,-4.096 -11.9,-11.814 -12.163,-20.12 -0.247,-0.575 0.143,-433.679005 -0.011,-434.393005 0.022,-0.512 0.033,-1.151 0.087,-1.663 0.156,-1.786 0.516,-3.586 1.065,-5.294 0.762,-2.371 1.902,-4.642 3.353,-6.666 1.612,-2.251 3.628,-4.235 5.908,-5.807 2.736,-1.89 5.881,-3.209 9.147,-3.835 1.077,-0.203 2.209,-0.347 3.303,-0.401 0.371,-0.026 0.877,-0.027 1.248,-0.032 0,0 31.454,0.097 31.454,0.097 z"
   id="path438"
   style="stroke:#000000;stroke-opacity:1" /><path
   fill="none"
   stroke="#00b9d2"
   stroke-width="2.5"
   stroke-linecap="round"
   stroke-linejoin="round"
   stroke-miterlimit="10"
   d="m 90.194,25.795475 c 0.906,0.002 1.809,-0.308 2.523,-0.866 0.716,-0.555 1.238,-1.354 1.459,-2.233 0.652,-2.578 -1.287,-5.091 -3.946,-5.115 -2.689,-0.022 -4.675,2.508 -4.017,5.115 0.22,0.879 0.743,1.678 1.459,2.233 0.713,0.558 1.616,0.868 2.522,0.866 z"
   id="path441"
   style="stroke:#000000;stroke-opacity:1" /><path
   fill="none"
   stroke="#00b9d2"
   stroke-width="2.5"
   stroke-linecap="round"
   stroke-linejoin="round"
   stroke-miterlimit="10"
   d="m 40.125,507.97048 c -11.268,0.028 -22.135,-5.316 -28.986,-14.269 -2.046,-2.661 -3.742,-5.632 -4.985,-8.75 -1.164,-2.922 -1.961,-6.027 -2.339,-9.15 -0.142,-1.232 -0.244,-2.54 -0.261,-3.778 0.169,-2.507 -0.159,-432.704005 0.017,-435.039005 0.049,-1.218 0.153,-2.562 0.326,-3.772 0.405,-2.903 1.17,-5.802 2.258,-8.524 3.333,-8.423 9.926,-15.4909997 18.101,-19.3959997 2.834,-1.362 5.878,-2.373 8.967,-2.965 1.423,-0.263 2.936,-0.477 4.38,-0.57 0.567,-0.029 1.325,-0.079 1.892,-0.082 0.378,-0.613 174.174,0.43 174.66,-0.007 2.508,0.005 5.067,0.265 7.522,0.783 9.079,1.879 17.338,7.368 22.58,15.0169997 2.386,3.457 4.181,7.351 5.255,11.413 0.476,1.815 0.831,3.718 1.023,5.584 0.095,1.023 0.179,2.126 0.191,3.15 0.333,0.131 -0.228,433.469005 0.006,433.776005 -0.003,2.507 -0.265,5.069 -0.783,7.523 -2.056,9.936 -8.393,18.794 -17.143,23.941 -2.887,1.709 -6.042,3.036 -9.287,3.894 -1.812,0.473 -3.72,0.834 -5.584,1.023 -0.784,0.107 -1.73,0.128 -2.519,0.174 -0.313,0.038 -0.949,0.002 -1.262,0.022 -0.001,0.002 -174.029,0.002 -174.029,0.002 z"
   id="path444"
   style="stroke:#000000;stroke-opacity:1" />
<path
   fill="none"
   stroke="#00b9d2"
   stroke-width="3.25"
   stroke-linecap="round"
   stroke-linejoin="round"
   stroke-miterlimit="10"
   d="m 3.548,80.847475 v -42.598 l 0.002,-0.405 c 0.019,-0.515 0.017,-1.123 0.055,-1.637 0.119,-2.118 0.426,-4.251 0.911,-6.316 1.36,-5.818 4.18,-11.294 8.127,-15.779 5.546,-6.3459997 13.35,-10.6579997 21.674,-11.9749997 1.643,-0.264 3.333,-0.418 4.996,-0.455 13.394,0.12 170.244,-0.302 178.544,0.179 3.79,0.385 7.534,1.373 11.021,2.907 5.729,2.513 10.795,6.5329997 14.542,11.5429997 2.485,3.314 4.408,7.067 5.643,11.022 0.603,1.934 1.055,3.947 1.329,5.954 0.165,1.226 0.279,2.506 0.318,3.743 -0.024,8.352 0.06,87.226005 0.02,97.615005 h 1.925 v 69.477 h -1.925 c -0.002,0.407 0.004,267.304 -0.002,267.678 -0.015,0.367 -0.01,0.862 -0.034,1.227 -0.07,1.53 -0.236,3.091 -0.498,4.601 -0.844,4.897 -2.706,9.626 -5.427,13.784 -4.01,6.156 -9.928,11.046 -16.729,13.823 -3.243,1.331 -6.694,2.196 -10.181,2.55 -14.145,0.475 -169.462,0.093 -179.363,0.152 -3.591,-0.16 -7.174,-0.857 -10.563,-2.056 -7.503,-2.635 -14.084,-7.804 -18.421,-14.469 -2.799,-4.278 -4.69,-9.159 -5.498,-14.207 -0.098,-0.67 -0.214,-1.428 -0.276,-2.104 -0.12,-1.216 -0.19,-2.482 -0.188,-3.704 0,0 0,-13.512 0,-13.512 0,0 0,-241.24 0,-241.24 H 1.625 v -40.427 H 3.55 v -13.504 H 1.625 v -40.427 H 3.55 v -20.262 H 1.625 V 80.849475 h 1.923 z"
   id="path580"
   style="stroke:#000000;stroke-opacity:1" />



</svg>
