<?xml version="1.0" encoding="UTF-8" standalone="no"?>
<svg
   xmlns:ns="&amp;#38;#38;ns_sfw;"
   xmlns:dc="http://purl.org/dc/elements/1.1/"
   xmlns:cc="http://creativecommons.org/ns#"
   xmlns:rdf="http://www.w3.org/1999/02/22-rdf-syntax-ns#"
   xmlns:svg="http://www.w3.org/2000/svg"
   xmlns="http://www.w3.org/2000/svg"
   xmlns:sodipodi="http://sodipodi.sourceforge.net/DTD/sodipodi-0.dtd"
   xmlns:inkscape="http://www.inkscape.org/namespaces/inkscape"
   version="1.1"
   x="0px"
   y="0px"
   width="255.381"
   height="515.85742"
   viewBox="0 0 255.381 515.85742"
   enable-background="new 0 0 1000 674"
   xml:space="preserve"
   id="svg653"
   sodipodi:docname="13_pro_max_ns.svg"
   inkscape:version="1.0.1 (3bc2e813f5, 2020-09-07)"><defs
   id="defs657">



	
	
	
	
	
	

	
	
	
	
	
	
	
	
	
	
	
	
	
	
	
	
	
	
	
	
	
	
	
	
	
	
	
	
	
	
	
	
	
	
	
	
	
	
	
	
	
	
	
	
	
	
	
	
	
	
	
	
	
	
	
	
	
	
	
	

	
	
	
	
	
	
	
	
	
	
	
	
	
	
	
	
	
	
	
	
	
	
	
	
	
	
	
	
	
	
	
	
	
	
	
	
	
	
	
	
	
	
	
	
	
	
	
	
	
	
	
	
	
	
	
	
	
	
	
	
	
	
	
	





		
			
	
		
			
	
		
			
	
		
			
	
		
			
	
		
			
	
		
			
	
		
			
	
		
			
	
		
			
	
		
			
	
		
			
	
		
			
	
		
			
	
		
			
	
		
			
	
		
			
	
		
			
	
		
			
	
		
			
	
		
			
	
		
			
	
		
			
	
		
			
	
		
			
	
		
			
	
		
			
	
		
			
	
		
			
	
		
			
	
		
			
	
		
			
	
		
			
	
		
			
	
		
			
	
		
			
	
		
			
	
		
			
	
		
			
	
		
			
	
		
			
	
		
			
	
		
			
	
		
			
	
		
			
	
		
			
	
		
			
	
		
			
	
		
			
	
		
			
	
		
			
	
		
			
	
		
			
	
		
			
	
		
			
	
		
			
	
		
			
	
		
			
	
		
			
	
		
			
	
		
			
	
		
			
	
		
			
	
		
			
	
		
			
	
		
			
	
		
	
		
	
		
	
		
	
		
	
		
			
	
		
			
	
		
			
	
		
			
	
		
			
	
		
			
	
		
			
	
		
			
	
		
			
	
		
			
	
		
			
	
		
			
	
		
	
		
	
		
	
		
	
		
	
		
	
		
	
		
	
		
			
	
		
			
	
		
			
	
		
			
	
		
			
	
		
			
	
		
			
	
		
			
	
		
			
	
		
			
	
		
			
	
		
			
	
		
			
	
		
			
	
		
	
		
	
		
			
	
		
			
	
		
	
		
			
	
		
			
	
		
			
	
		
			
	
		
			
	
		
			
	
		
	
		
	
		
	
		
	
		
	
		
	
		
	
		
	
		
	
		
	
		
	
		
	
		
			
	
		
			
	</defs><sodipodi:namedview
   pagecolor="#ffffff"
   bordercolor="#666666"
   borderopacity="1"
   objecttolerance="10"
   gridtolerance="10"
   guidetolerance="10"
   inkscape:pageopacity="0"
   inkscape:pageshadow="2"
   inkscape:window-width="1920"
   inkscape:window-height="1001"
   id="namedview655"
   showgrid="false"
   inkscape:zoom="2.444"
   inkscape:cx="158.87738"
   inkscape:cy="161.12571"
   inkscape:window-x="-9"
   inkscape:window-y="-9"
   inkscape:window-maximized="1"
   inkscape:current-layer="svg653"
   inkscape:document-rotation="0" />
<metadata
   id="metadata2">
	<ns:sfw>
		<ns:slices />
		<ns:sliceSourceBounds
   bottomLeftOrigin="true"
   height="4992.337"
   width="5667.718"
   x="-1936.163"
   y="1158.999" />
	</ns:sfw>
<rdf:RDF><cc:Work
     rdf:about=""><dc:format>image/svg+xml</dc:format><dc:type
       rdf:resource="http://purl.org/dc/dcmitype/StillImage" /><dc:title></dc:title></cc:Work></rdf:RDF></metadata>

<g
   id="N-DIMENSIONS"
   display="none"
   transform="translate(-64.334,-79.275607)">
	<g
   display="inline"
   id="g251">
		<g
   id="g58">
			<g
   id="MTEXT_47_">
				<g
   id="g43">
					<g
   id="g41">
						<path
   fill="#00b9d2"
   d="m 126.388,315.191 c -0.78,-0.433 -1.374,-1.017 -1.78,-1.75 -0.406,-0.733 -0.609,-1.533 -0.609,-2.399 0,-1.146 0.46,-2.373 1.38,-3.681 l 3.819,-5.319 c 0.014,-0.014 0.051,-0.061 0.11,-0.141 0.059,-0.08 0.137,-0.143 0.229,-0.189 0.094,-0.047 0.2,-0.07 0.32,-0.07 h 0.98 c 0.12,0 0.216,0.043 0.29,0.13 0.073,0.087 0.109,0.19 0.109,0.311 0,0.066 -0.033,0.153 -0.1,0.26 l -2.92,4.08 c 0.347,-0.08 0.733,-0.12 1.16,-0.12 0.973,0 1.83,0.217 2.569,0.649 0.74,0.434 1.313,1.007 1.721,1.721 0.406,0.713 0.609,1.497 0.609,2.35 0,0.854 -0.203,1.65 -0.609,2.39 -0.407,0.74 -0.997,1.33 -1.771,1.771 -0.774,0.441 -1.687,0.66 -2.74,0.66 -1.064,-0.002 -1.987,-0.219 -2.767,-0.653 z m 4.37,-1.37 c 0.493,-0.239 0.887,-0.597 1.18,-1.069 0.293,-0.474 0.44,-1.044 0.44,-1.71 0,-0.653 -0.15,-1.217 -0.45,-1.69 -0.3,-0.473 -0.697,-0.833 -1.19,-1.08 -0.493,-0.246 -1.026,-0.37 -1.6,-0.37 -0.574,0 -1.107,0.124 -1.601,0.37 -0.493,0.247 -0.887,0.607 -1.18,1.08 -0.293,0.474 -0.439,1.037 -0.439,1.69 0,0.666 0.146,1.236 0.439,1.71 0.293,0.473 0.687,0.83 1.18,1.069 0.493,0.24 1.027,0.36 1.601,0.36 0.587,0.001 1.126,-0.119 1.62,-0.36 z"
   id="path5" />
						<path
   fill="#00b9d2"
   d="m 136.508,315.512 c -0.087,-0.087 -0.13,-0.196 -0.13,-0.33 v -1.38 c 0,-0.133 0.043,-0.247 0.13,-0.34 0.086,-0.094 0.196,-0.141 0.33,-0.141 h 1.38 c 0.133,0 0.243,0.047 0.33,0.141 0.086,0.093 0.13,0.207 0.13,0.34 v 1.38 c 0,0.134 -0.044,0.243 -0.13,0.33 -0.087,0.087 -0.197,0.13 -0.33,0.13 h -1.38 c -0.133,0 -0.244,-0.043 -0.33,-0.13 z"
   id="path7" />
						<path
   fill="#00b9d2"
   d="m 143.148,315.191 c -0.78,-0.433 -1.374,-1.017 -1.78,-1.75 -0.406,-0.733 -0.609,-1.533 -0.609,-2.399 0,-1.146 0.46,-2.373 1.38,-3.681 l 3.819,-5.319 c 0.014,-0.014 0.051,-0.061 0.11,-0.141 0.059,-0.08 0.137,-0.143 0.229,-0.189 0.094,-0.047 0.2,-0.07 0.32,-0.07 h 0.98 c 0.12,0 0.216,0.043 0.29,0.13 0.073,0.087 0.109,0.19 0.109,0.311 0,0.066 -0.033,0.153 -0.1,0.26 l -2.92,4.08 c 0.347,-0.08 0.733,-0.12 1.16,-0.12 0.973,0 1.83,0.217 2.569,0.649 0.74,0.434 1.313,1.007 1.721,1.721 0.406,0.713 0.609,1.497 0.609,2.35 0,0.854 -0.203,1.65 -0.609,2.39 -0.407,0.74 -0.997,1.33 -1.771,1.771 -0.774,0.441 -1.687,0.66 -2.74,0.66 -1.064,-0.002 -1.987,-0.219 -2.767,-0.653 z m 4.37,-1.37 c 0.493,-0.239 0.887,-0.597 1.18,-1.069 0.293,-0.474 0.44,-1.044 0.44,-1.71 0,-0.653 -0.15,-1.217 -0.45,-1.69 -0.3,-0.473 -0.697,-0.833 -1.19,-1.08 -0.493,-0.246 -1.026,-0.37 -1.6,-0.37 -0.574,0 -1.107,0.124 -1.601,0.37 -0.493,0.247 -0.887,0.607 -1.18,1.08 -0.293,0.474 -0.439,1.037 -0.439,1.69 0,0.666 0.146,1.236 0.439,1.71 0.293,0.473 0.687,0.83 1.18,1.069 0.493,0.24 1.027,0.36 1.601,0.36 0.587,0.001 1.126,-0.119 1.62,-0.36 z"
   id="path9" />
						<path
   fill="#00b9d2"
   d="m 155.408,315.332 c -0.793,-0.341 -1.41,-0.83 -1.85,-1.471 -0.44,-0.64 -0.66,-1.387 -0.66,-2.239 0,-0.787 0.196,-1.477 0.59,-2.07 0.394,-0.593 0.923,-1.05 1.59,-1.37 -0.533,-0.307 -0.946,-0.71 -1.24,-1.21 -0.293,-0.5 -0.439,-1.09 -0.439,-1.771 0,-1.159 0.433,-2.076 1.3,-2.75 0.866,-0.673 2.007,-1.01 3.42,-1.01 1.413,0 2.55,0.334 3.41,1 0.86,0.667 1.29,1.587 1.29,2.76 0,0.667 -0.146,1.25 -0.44,1.75 -0.293,0.5 -0.699,0.91 -1.22,1.23 0.667,0.32 1.196,0.776 1.59,1.37 0.394,0.594 0.59,1.29 0.59,2.09 0,0.854 -0.22,1.597 -0.659,2.23 -0.44,0.633 -1.058,1.119 -1.851,1.46 -0.793,0.34 -1.696,0.51 -2.71,0.51 -1.014,0 -1.918,-0.169 -2.711,-0.509 z m 5.08,-1.77 c 0.633,-0.479 0.95,-1.12 0.95,-1.92 0,-0.8 -0.317,-1.44 -0.95,-1.92 -0.634,-0.48 -1.424,-0.72 -2.37,-0.72 -0.96,0 -1.757,0.239 -2.39,0.72 -0.634,0.479 -0.95,1.12 -0.95,1.92 0,0.8 0.316,1.44 0.95,1.92 0.633,0.48 1.43,0.72 2.39,0.72 0.946,-10e-4 1.736,-0.24 2.37,-0.72 z m -0.31,-6.72 c 0.56,-0.4 0.84,-0.934 0.84,-1.601 0,-0.68 -0.277,-1.223 -0.83,-1.63 -0.554,-0.406 -1.243,-0.609 -2.07,-0.609 -0.84,0 -1.533,0.203 -2.08,0.609 -0.547,0.407 -0.819,0.95 -0.819,1.63 0,0.681 0.272,1.224 0.819,1.631 0.547,0.406 1.24,0.609 2.08,0.609 0.813,-0.026 1.5,-0.24 2.06,-0.639 z"
   id="path11" />
						<path
   fill="#00b9d2"
   d="m 165.667,305.122 c -0.06,-0.08 -0.077,-0.181 -0.05,-0.301 l 0.439,-2.8 c 0.054,-0.387 0.24,-0.58 0.561,-0.58 h 1.28 c 0.093,0 0.17,0.033 0.229,0.101 0.061,0.066 0.09,0.146 0.09,0.239 0,0.134 -0.02,0.24 -0.06,0.32 l -1.04,2.7 c -0.067,0.146 -0.141,0.257 -0.22,0.33 -0.08,0.073 -0.2,0.109 -0.36,0.109 h -0.62 c -0.105,10e-4 -0.189,-0.039 -0.249,-0.118 z m 3.14,0 c -0.06,-0.08 -0.076,-0.181 -0.05,-0.301 l 0.44,-2.8 c 0.053,-0.387 0.24,-0.58 0.56,-0.58 h 1.28 c 0.093,0 0.17,0.033 0.229,0.101 0.061,0.066 0.091,0.146 0.091,0.239 0,0.134 -0.021,0.24 -0.061,0.32 l -1.04,2.7 c -0.066,0.146 -0.14,0.257 -0.22,0.33 -0.08,0.073 -0.2,0.109 -0.36,0.109 h -0.62 c -0.105,10e-4 -0.188,-0.039 -0.249,-0.118 z"
   id="path13" />
						<path
   fill="#00b9d2"
   d="m 180.107,317.852 c -0.673,-0.646 -1.156,-1.65 -1.45,-3.01 -0.293,-1.36 -0.439,-3.153 -0.439,-5.38 0,-2.227 0.146,-4.017 0.439,-5.37 0.294,-1.354 0.777,-2.354 1.45,-3 0.673,-0.646 1.583,-0.97 2.73,-0.97 0.133,0 0.243,0.043 0.33,0.13 0.086,0.087 0.13,0.196 0.13,0.33 v 0.659 c 0,0.12 -0.04,0.224 -0.12,0.311 -0.08,0.087 -0.174,0.13 -0.28,0.13 -0.76,0.014 -1.354,0.27 -1.78,0.77 -0.426,0.5 -0.733,1.308 -0.92,2.421 -0.187,1.113 -0.279,2.643 -0.279,4.59 0,1.96 0.093,3.496 0.279,4.609 0.186,1.113 0.493,1.92 0.92,2.42 0.427,0.5 1.021,0.757 1.78,0.771 0.106,0 0.2,0.043 0.28,0.13 0.08,0.087 0.12,0.19 0.12,0.31 v 0.66 c 0,0.134 -0.044,0.243 -0.13,0.33 -0.087,0.087 -0.197,0.13 -0.33,0.13 -1.147,-0.002 -2.057,-0.325 -2.73,-0.971 z"
   id="path15" />
						<path
   fill="#00b9d2"
   d="m 186.248,315.191 c -0.78,-0.433 -1.374,-1.017 -1.78,-1.75 -0.406,-0.733 -0.609,-1.533 -0.609,-2.399 0,-1.146 0.46,-2.373 1.38,-3.681 l 3.819,-5.319 c 0.014,-0.014 0.051,-0.061 0.11,-0.141 0.059,-0.08 0.137,-0.143 0.229,-0.189 0.094,-0.047 0.2,-0.07 0.32,-0.07 h 0.98 c 0.12,0 0.216,0.043 0.29,0.13 0.073,0.087 0.109,0.19 0.109,0.311 0,0.066 -0.033,0.153 -0.1,0.26 l -2.92,4.08 c 0.347,-0.08 0.733,-0.12 1.16,-0.12 0.973,0 1.83,0.217 2.569,0.649 0.74,0.434 1.313,1.007 1.721,1.721 0.406,0.713 0.609,1.497 0.609,2.35 0,0.854 -0.203,1.65 -0.609,2.39 -0.407,0.74 -0.997,1.33 -1.771,1.771 -0.774,0.441 -1.687,0.66 -2.74,0.66 -1.064,-0.002 -1.987,-0.219 -2.767,-0.653 z m 4.37,-1.37 c 0.493,-0.239 0.887,-0.597 1.18,-1.069 0.293,-0.474 0.44,-1.044 0.44,-1.71 0,-0.653 -0.15,-1.217 -0.45,-1.69 -0.3,-0.473 -0.697,-0.833 -1.19,-1.08 -0.493,-0.246 -1.026,-0.37 -1.6,-0.37 -0.574,0 -1.107,0.124 -1.601,0.37 -0.493,0.247 -0.887,0.607 -1.18,1.08 -0.293,0.474 -0.439,1.037 -0.439,1.69 0,0.666 0.146,1.236 0.439,1.71 0.293,0.473 0.687,0.83 1.18,1.069 0.493,0.24 1.027,0.36 1.601,0.36 0.586,0.001 1.126,-0.119 1.62,-0.36 z"
   id="path17" />
						<path
   fill="#00b9d2"
   d="m 196.367,315.512 c -0.087,-0.087 -0.13,-0.196 -0.13,-0.33 v -1.38 c 0,-0.133 0.043,-0.247 0.13,-0.34 0.086,-0.094 0.196,-0.141 0.33,-0.141 h 1.38 c 0.133,0 0.243,0.047 0.33,0.141 0.086,0.093 0.13,0.207 0.13,0.34 v 1.38 c 0,0.134 -0.044,0.243 -0.13,0.33 -0.087,0.087 -0.197,0.13 -0.33,0.13 h -1.38 c -0.134,0 -0.244,-0.043 -0.33,-0.13 z"
   id="path19" />
						<path
   fill="#00b9d2"
   d="m 201.987,315.512 c -0.073,-0.087 -0.11,-0.19 -0.11,-0.311 l 0.04,-0.18 5,-11.7 h -6.6 c -0.134,0 -0.243,-0.043 -0.33,-0.13 -0.087,-0.086 -0.13,-0.196 -0.13,-0.33 v -0.739 c 0,-0.147 0.04,-0.264 0.12,-0.351 0.08,-0.087 0.193,-0.13 0.34,-0.13 h 8.16 c 0.146,0 0.26,0.043 0.34,0.13 0.08,0.087 0.12,0.203 0.12,0.351 v 0.68 c 0,0.24 -0.054,0.5 -0.16,0.78 l -4.94,11.56 c -0.066,0.146 -0.14,0.267 -0.22,0.36 -0.08,0.093 -0.193,0.14 -0.34,0.14 h -1 c -0.12,0 -0.217,-0.043 -0.29,-0.13 z"
   id="path21" />
						<path
   fill="#00b9d2"
   d="m 210.687,305.122 c -0.06,-0.08 -0.077,-0.181 -0.05,-0.301 l 0.439,-2.8 c 0.054,-0.387 0.24,-0.58 0.561,-0.58 h 1.28 c 0.093,0 0.17,0.033 0.229,0.101 0.061,0.066 0.09,0.146 0.09,0.239 0,0.134 -0.02,0.24 -0.06,0.32 l -1.04,2.7 c -0.067,0.146 -0.141,0.257 -0.22,0.33 -0.08,0.073 -0.2,0.109 -0.36,0.109 h -0.62 c -0.105,10e-4 -0.189,-0.039 -0.249,-0.118 z m 3.14,0 c -0.06,-0.08 -0.076,-0.181 -0.05,-0.301 l 0.44,-2.8 c 0.053,-0.387 0.24,-0.58 0.56,-0.58 h 1.28 c 0.093,0 0.17,0.033 0.229,0.101 0.061,0.066 0.091,0.146 0.091,0.239 0,0.134 -0.021,0.24 -0.061,0.32 l -1.04,2.7 c -0.066,0.146 -0.14,0.257 -0.22,0.33 -0.08,0.073 -0.2,0.109 -0.36,0.109 h -0.62 c -0.106,10e-4 -0.189,-0.039 -0.249,-0.118 z"
   id="path23" />
						<path
   fill="#00b9d2"
   d="m 217.787,318.691 c -0.087,-0.087 -0.13,-0.196 -0.13,-0.33 v -0.66 c 0,-0.119 0.04,-0.223 0.12,-0.31 0.08,-0.087 0.173,-0.13 0.28,-0.13 0.746,-0.014 1.336,-0.271 1.77,-0.771 0.434,-0.5 0.743,-1.31 0.93,-2.43 0.187,-1.12 0.28,-2.653 0.28,-4.6 0,-1.947 -0.094,-3.477 -0.28,-4.59 -0.186,-1.113 -0.496,-1.921 -0.93,-2.421 -0.434,-0.5 -1.023,-0.756 -1.77,-0.77 -0.107,0 -0.2,-0.043 -0.28,-0.13 -0.08,-0.087 -0.12,-0.19 -0.12,-0.311 v -0.659 c 0,-0.134 0.043,-0.243 0.13,-0.33 0.087,-0.087 0.19,-0.13 0.311,-0.13 1.146,0 2.056,0.323 2.729,0.97 0.673,0.646 1.156,1.646 1.45,3 0.293,1.354 0.439,3.144 0.439,5.37 0,2.226 -0.146,4.02 -0.439,5.38 -0.294,1.359 -0.777,2.363 -1.45,3.01 -0.674,0.646 -1.583,0.97 -2.729,0.97 -0.121,0.002 -0.224,-0.041 -0.311,-0.128 z"
   id="path25" />
						<path
   fill="#00b9d2"
   d="m 143.018,335.512 c -0.08,-0.087 -0.12,-0.196 -0.12,-0.33 v -11.28 l -3.36,2.58 c -0.093,0.08 -0.193,0.12 -0.3,0.12 -0.12,0 -0.233,-0.066 -0.34,-0.2 l -0.48,-0.62 c -0.066,-0.093 -0.1,-0.187 -0.1,-0.279 0,-0.146 0.066,-0.267 0.2,-0.36 l 4.34,-3.36 c 0.146,-0.093 0.32,-0.14 0.52,-0.14 h 0.94 c 0.133,0 0.243,0.043 0.33,0.13 0.087,0.087 0.13,0.197 0.13,0.33 v 13.08 c 0,0.134 -0.043,0.243 -0.13,0.33 -0.087,0.087 -0.197,0.13 -0.33,0.13 h -0.98 c -0.133,-10e-4 -0.24,-0.044 -0.32,-0.131 z"
   id="path27" />
						<path
   fill="#00b9d2"
   d="m 149.688,335.191 c -0.78,-0.433 -1.374,-1.017 -1.78,-1.75 -0.406,-0.733 -0.609,-1.533 -0.609,-2.399 0,-1.146 0.46,-2.373 1.38,-3.681 l 3.819,-5.319 c 0.014,-0.014 0.051,-0.061 0.11,-0.141 0.059,-0.08 0.137,-0.143 0.229,-0.189 0.094,-0.047 0.2,-0.07 0.32,-0.07 h 0.98 c 0.12,0 0.216,0.043 0.29,0.13 0.073,0.087 0.109,0.19 0.109,0.311 0,0.066 -0.033,0.153 -0.1,0.26 l -2.92,4.08 c 0.347,-0.08 0.733,-0.12 1.16,-0.12 0.973,0 1.83,0.217 2.569,0.649 0.74,0.434 1.313,1.007 1.721,1.721 0.406,0.713 0.609,1.497 0.609,2.35 0,0.854 -0.203,1.65 -0.609,2.39 -0.407,0.74 -0.997,1.33 -1.771,1.771 -0.774,0.441 -1.687,0.66 -2.74,0.66 -1.064,-0.002 -1.987,-0.219 -2.767,-0.653 z m 4.37,-1.37 c 0.493,-0.239 0.887,-0.597 1.18,-1.069 0.293,-0.474 0.44,-1.044 0.44,-1.71 0,-0.653 -0.15,-1.217 -0.45,-1.69 -0.3,-0.473 -0.697,-0.833 -1.19,-1.08 -0.493,-0.246 -1.026,-0.37 -1.6,-0.37 -0.574,0 -1.107,0.124 -1.601,0.37 -0.493,0.247 -0.887,0.607 -1.18,1.08 -0.293,0.474 -0.439,1.037 -0.439,1.69 0,0.666 0.146,1.236 0.439,1.71 0.293,0.473 0.687,0.83 1.18,1.069 0.493,0.24 1.027,0.36 1.601,0.36 0.587,0.001 1.126,-0.119 1.62,-0.36 z"
   id="path29" />
						<path
   fill="#00b9d2"
   d="m 161.908,335.512 c -0.073,-0.087 -0.109,-0.19 -0.109,-0.311 0,-0.093 0.026,-0.18 0.079,-0.26 l 3.08,-4.28 c -0.319,0.08 -0.693,0.12 -1.12,0.12 -0.96,-0.013 -1.8,-0.236 -2.52,-0.67 -0.72,-0.433 -1.27,-1 -1.65,-1.7 -0.38,-0.699 -0.569,-1.449 -0.569,-2.25 0,-0.8 0.189,-1.56 0.569,-2.279 0.381,-0.721 0.947,-1.307 1.7,-1.76 0.753,-0.453 1.663,-0.681 2.73,-0.681 1.066,0 1.979,0.22 2.739,0.66 0.761,0.44 1.334,1.017 1.721,1.73 0.387,0.713 0.58,1.477 0.58,2.29 0,0.733 -0.13,1.38 -0.391,1.939 -0.26,0.561 -0.604,1.14 -1.029,1.74 l -3.881,5.439 c -0.093,0.12 -0.183,0.217 -0.27,0.29 -0.087,0.074 -0.21,0.11 -0.37,0.11 h -1 c -0.119,0.003 -0.216,-0.04 -0.289,-0.127 z m 3.77,-6.691 c 0.479,-0.253 0.859,-0.609 1.14,-1.069 0.281,-0.46 0.42,-0.99 0.42,-1.591 0,-0.612 -0.14,-1.152 -0.42,-1.619 -0.28,-0.467 -0.66,-0.827 -1.14,-1.08 -0.48,-0.254 -1.007,-0.38 -1.58,-0.38 -0.561,0 -1.077,0.126 -1.55,0.38 -0.474,0.253 -0.851,0.613 -1.131,1.08 -0.279,0.467 -0.42,1.007 -0.42,1.619 0,0.601 0.141,1.131 0.42,1.591 0.28,0.46 0.653,0.816 1.12,1.069 0.467,0.254 0.987,0.38 1.561,0.38 0.574,0 1.1,-0.126 1.58,-0.38 z"
   id="path31" />
						<path
   fill="#00b9d2"
   d="m 170.328,335.512 c -0.087,-0.087 -0.13,-0.196 -0.13,-0.33 v -1.38 c 0,-0.133 0.043,-0.247 0.13,-0.34 0.086,-0.094 0.196,-0.141 0.33,-0.141 h 1.38 c 0.133,0 0.243,0.047 0.33,0.141 0.086,0.093 0.13,0.207 0.13,0.34 v 1.38 c 0,0.134 -0.044,0.243 -0.13,0.33 -0.087,0.087 -0.197,0.13 -0.33,0.13 h -1.38 c -0.134,0 -0.244,-0.043 -0.33,-0.13 z"
   id="path33" />
						<path
   fill="#00b9d2"
   d="m 175.948,335.512 c -0.073,-0.087 -0.11,-0.19 -0.11,-0.311 l 0.04,-0.18 5,-11.7 h -6.6 c -0.134,0 -0.243,-0.043 -0.33,-0.13 -0.087,-0.086 -0.13,-0.196 -0.13,-0.33 v -0.739 c 0,-0.147 0.04,-0.264 0.12,-0.351 0.08,-0.087 0.193,-0.13 0.34,-0.13 h 8.16 c 0.146,0 0.26,0.043 0.34,0.13 0.08,0.087 0.12,0.203 0.12,0.351 v 0.68 c 0,0.24 -0.054,0.5 -0.16,0.78 l -4.94,11.56 c -0.066,0.146 -0.14,0.267 -0.22,0.36 -0.08,0.093 -0.193,0.14 -0.34,0.14 h -1 c -0.12,0 -0.217,-0.043 -0.29,-0.13 z"
   id="path35" />
						<path
   fill="#00b9d2"
   d="m 189.987,335.512 c -0.087,-0.087 -0.13,-0.196 -0.13,-0.33 v -9.48 c 0,-0.133 0.043,-0.243 0.13,-0.329 0.087,-0.087 0.196,-0.131 0.33,-0.131 h 0.84 c 0.134,0 0.24,0.044 0.32,0.131 0.08,0.086 0.12,0.196 0.12,0.329 v 0.681 c 0.72,-0.894 1.693,-1.34 2.92,-1.34 1.467,0 2.507,0.613 3.12,1.84 0.319,-0.561 0.776,-1.007 1.37,-1.34 0.593,-0.334 1.256,-0.5 1.989,-0.5 1.094,0 1.987,0.373 2.681,1.119 0.692,0.747 1.04,1.827 1.04,3.24 v 5.78 c 0,0.134 -0.044,0.243 -0.13,0.33 -0.087,0.087 -0.197,0.13 -0.33,0.13 h -0.86 c -0.134,0 -0.243,-0.043 -0.33,-0.13 -0.087,-0.087 -0.13,-0.196 -0.13,-0.33 v -5.6 c 0,-1.067 -0.22,-1.83 -0.66,-2.29 -0.439,-0.46 -1.02,-0.69 -1.74,-0.69 -0.64,0 -1.189,0.237 -1.649,0.71 -0.46,0.474 -0.69,1.23 -0.69,2.271 v 5.6 c 0,0.134 -0.043,0.243 -0.13,0.33 -0.087,0.087 -0.197,0.13 -0.33,0.13 h -0.88 c -0.134,0 -0.243,-0.043 -0.33,-0.13 -0.087,-0.087 -0.13,-0.196 -0.13,-0.33 v -5.6 c 0,-1.054 -0.23,-1.813 -0.69,-2.28 -0.46,-0.467 -1.029,-0.7 -1.71,-0.7 -0.64,0 -1.189,0.233 -1.649,0.7 -0.46,0.467 -0.69,1.22 -0.69,2.26 v 5.62 c 0,0.134 -0.043,0.243 -0.13,0.33 -0.087,0.087 -0.197,0.13 -0.33,0.13 h -0.88 c -0.136,-10e-4 -0.245,-0.044 -0.332,-0.131 z"
   id="path37" />
						<path
   fill="#00b9d2"
   d="m 207.747,335.512 c -0.087,-0.087 -0.13,-0.196 -0.13,-0.33 v -9.48 c 0,-0.133 0.043,-0.243 0.13,-0.329 0.087,-0.087 0.196,-0.131 0.33,-0.131 h 0.84 c 0.134,0 0.24,0.044 0.32,0.131 0.08,0.086 0.12,0.196 0.12,0.329 v 0.681 c 0.72,-0.894 1.693,-1.34 2.92,-1.34 1.467,0 2.507,0.613 3.12,1.84 0.319,-0.561 0.776,-1.007 1.37,-1.34 0.593,-0.334 1.256,-0.5 1.989,-0.5 1.094,0 1.987,0.373 2.681,1.119 0.692,0.747 1.04,1.827 1.04,3.24 v 5.78 c 0,0.134 -0.044,0.243 -0.13,0.33 -0.087,0.087 -0.197,0.13 -0.33,0.13 h -0.86 c -0.134,0 -0.243,-0.043 -0.33,-0.13 -0.087,-0.087 -0.13,-0.196 -0.13,-0.33 v -5.6 c 0,-1.067 -0.22,-1.83 -0.66,-2.29 -0.439,-0.46 -1.02,-0.69 -1.74,-0.69 -0.64,0 -1.189,0.237 -1.649,0.71 -0.46,0.474 -0.69,1.23 -0.69,2.271 v 5.6 c 0,0.134 -0.043,0.243 -0.13,0.33 -0.087,0.087 -0.197,0.13 -0.33,0.13 h -0.88 c -0.134,0 -0.243,-0.043 -0.33,-0.13 -0.087,-0.087 -0.13,-0.196 -0.13,-0.33 v -5.6 c 0,-1.054 -0.23,-1.813 -0.69,-2.28 -0.46,-0.467 -1.029,-0.7 -1.71,-0.7 -0.64,0 -1.189,0.233 -1.649,0.7 -0.46,0.467 -0.69,1.22 -0.69,2.26 v 5.62 c 0,0.134 -0.043,0.243 -0.13,0.33 -0.087,0.087 -0.197,0.13 -0.33,0.13 h -0.88 c -0.136,-10e-4 -0.246,-0.044 -0.332,-0.131 z"
   id="path39" />
					</g>
				</g>
			</g>
			<g
   id="POLYLINE_322_">
				
					<line
   fill="none"
   stroke="#00b9d2"
   stroke-width="2"
   stroke-linecap="round"
   stroke-linejoin="round"
   stroke-miterlimit="10"
   x1="94.181999"
   y1="567.80603"
   x2="194.257"
   y2="347.16901"
   id="line46" />
			</g>
			<g
   id="POLYLINE_321_">
				
					<line
   fill="none"
   stroke="#00b9d2"
   stroke-width="2"
   stroke-linecap="round"
   stroke-linejoin="round"
   stroke-miterlimit="10"
   x1="218.77699"
   y1="289.58499"
   x2="294.98599"
   y2="115.872"
   id="line49" />
			</g>
			<g
   id="POLYLINE_320_">
				
					<polyline
   fill="none"
   stroke="#00b9d2"
   stroke-width="2"
   stroke-linecap="round"
   stroke-linejoin="round"
   stroke-miterlimit="10"
   points="      91.386,560.205 94.182,567.806 101.783,565.01     "
   id="polyline52" />
			</g>
			<g
   id="POLYLINE_319_">
				
					<polyline
   fill="none"
   stroke="#00b9d2"
   stroke-width="2"
   stroke-linecap="round"
   stroke-linejoin="round"
   stroke-miterlimit="10"
   points="      297.782,123.473 294.986,115.872 287.385,118.668     "
   id="polyline55" />
			</g>
		</g>
		<g
   id="MTEXT_46_">
			<g
   id="g72">
				<path
   fill="#00b9d2"
   d="m 106.446,137.228 c -0.087,-0.087 -0.13,-0.196 -0.13,-0.33 v -2.92 h -6.5 c -0.134,0 -0.243,-0.043 -0.33,-0.13 -0.087,-0.087 -0.13,-0.197 -0.13,-0.33 v -0.74 c 0,-0.187 0.073,-0.387 0.22,-0.6 l 6.021,-8.48 c 0.066,-0.106 0.166,-0.189 0.3,-0.25 0.133,-0.06 0.28,-0.09 0.439,-0.09 h 1.36 c 0.146,0 0.26,0.04 0.34,0.12 0.08,0.08 0.12,0.193 0.12,0.34 v 8.48 h 1.82 c 0.133,0 0.243,0.043 0.33,0.13 0.086,0.087 0.13,0.196 0.13,0.33 v 0.76 c 0,0.133 -0.044,0.243 -0.13,0.33 -0.087,0.087 -0.197,0.13 -0.33,0.13 h -1.82 v 2.92 c 0,0.134 -0.043,0.243 -0.13,0.33 -0.087,0.087 -0.197,0.13 -0.33,0.13 h -0.92 c -0.134,-0.001 -0.243,-0.044 -0.33,-0.13 z m -5.01,-4.89 h 4.899 v -6.961 z"
   id="path60" />
				<path
   fill="#00b9d2"
   d="m 114.316,137.018 c -0.733,-0.36 -1.293,-0.83 -1.68,-1.41 -0.387,-0.58 -0.594,-1.203 -0.62,-1.87 v -0.04 c 0,-0.106 0.04,-0.193 0.12,-0.26 0.08,-0.067 0.173,-0.1 0.28,-0.1 h 0.979 c 0.28,0 0.46,0.146 0.54,0.439 0.2,0.72 0.57,1.257 1.11,1.61 0.54,0.353 1.163,0.529 1.87,0.529 0.906,0 1.66,-0.276 2.26,-0.829 0.6,-0.554 0.9,-1.317 0.9,-2.29 0,-0.894 -0.301,-1.604 -0.9,-2.131 -0.6,-0.526 -1.354,-0.79 -2.26,-0.79 -0.48,0 -0.867,0.061 -1.16,0.181 -0.294,0.12 -0.594,0.293 -0.9,0.52 -0.173,0.134 -0.316,0.23 -0.43,0.29 -0.113,0.061 -0.237,0.09 -0.37,0.09 h -0.96 c -0.12,0 -0.227,-0.043 -0.32,-0.13 -0.093,-0.086 -0.133,-0.189 -0.12,-0.31 l 0.62,-6.66 c 0.04,-0.333 0.207,-0.5 0.5,-0.5 h 6.92 c 0.146,0 0.261,0.04 0.341,0.12 0.079,0.08 0.119,0.193 0.119,0.34 v 0.74 c 0,0.133 -0.043,0.24 -0.13,0.319 -0.087,0.08 -0.196,0.12 -0.33,0.12 h -5.76 l -0.359,4.021 c 0.64,-0.453 1.5,-0.68 2.579,-0.68 0.894,0 1.707,0.177 2.44,0.529 0.733,0.354 1.316,0.87 1.75,1.55 0.434,0.681 0.65,1.487 0.65,2.421 0,0.986 -0.217,1.836 -0.65,2.55 -0.434,0.713 -1.033,1.253 -1.8,1.62 -0.767,0.366 -1.644,0.55 -2.63,0.55 -0.998,0.001 -1.866,-0.18 -2.599,-0.539 z"
   id="path62" />
				<path
   fill="#00b9d2"
   d="m 126.566,137.048 c -0.793,-0.341 -1.41,-0.83 -1.85,-1.471 -0.44,-0.64 -0.66,-1.387 -0.66,-2.239 0,-0.787 0.196,-1.477 0.59,-2.07 0.394,-0.593 0.923,-1.05 1.59,-1.37 -0.533,-0.307 -0.946,-0.71 -1.24,-1.21 -0.293,-0.5 -0.439,-1.09 -0.439,-1.771 0,-1.159 0.433,-2.076 1.3,-2.75 0.866,-0.673 2.007,-1.01 3.42,-1.01 1.413,0 2.55,0.334 3.41,1 0.86,0.667 1.29,1.587 1.29,2.76 0,0.667 -0.146,1.25 -0.44,1.75 -0.293,0.5 -0.699,0.91 -1.22,1.23 0.667,0.32 1.196,0.776 1.59,1.37 0.394,0.594 0.59,1.29 0.59,2.09 0,0.854 -0.22,1.597 -0.659,2.23 -0.44,0.633 -1.058,1.119 -1.851,1.46 -0.793,0.34 -1.696,0.51 -2.71,0.51 -1.014,0 -1.918,-0.169 -2.711,-0.509 z m 5.08,-1.771 c 0.633,-0.479 0.95,-1.12 0.95,-1.92 0,-0.8 -0.317,-1.44 -0.95,-1.92 -0.634,-0.48 -1.424,-0.72 -2.37,-0.72 -0.96,0 -1.757,0.239 -2.39,0.72 -0.634,0.479 -0.95,1.12 -0.95,1.92 0,0.8 0.316,1.44 0.95,1.92 0.633,0.48 1.43,0.72 2.39,0.72 0.946,0 1.736,-0.239 2.37,-0.72 z m -0.31,-6.719 c 0.56,-0.4 0.84,-0.934 0.84,-1.601 0,-0.68 -0.277,-1.223 -0.83,-1.63 -0.554,-0.406 -1.243,-0.609 -2.07,-0.609 -0.84,0 -1.533,0.203 -2.08,0.609 -0.547,0.407 -0.819,0.95 -0.819,1.63 0,0.681 0.272,1.224 0.819,1.631 0.547,0.406 1.24,0.609 2.08,0.609 0.813,-0.026 1.5,-0.24 2.06,-0.639 z"
   id="path64" />
				<path
   fill="#00b9d2"
   d="m 142.185,141.037 c -0.087,-0.08 -0.131,-0.193 -0.131,-0.34 v -13.28 c 0,-0.146 0.044,-0.26 0.131,-0.34 0.086,-0.08 0.196,-0.12 0.33,-0.12 h 0.84 c 0.146,0 0.26,0.04 0.34,0.12 0.08,0.08 0.12,0.193 0.12,0.34 v 0.881 c 0.772,-1.027 1.873,-1.54 3.3,-1.54 1.4,0 2.45,0.443 3.15,1.33 0.699,0.887 1.069,2.017 1.109,3.39 0.014,0.146 0.021,0.373 0.021,0.68 0,0.307 -0.007,0.533 -0.021,0.681 -0.04,1.359 -0.41,2.486 -1.109,3.38 -0.7,0.894 -1.75,1.34 -3.15,1.34 -1.427,0 -2.507,-0.507 -3.24,-1.521 v 4.66 c 0,0.133 -0.043,0.243 -0.13,0.33 -0.087,0.087 -0.197,0.13 -0.33,0.13 h -0.899 c -0.135,-10e-4 -0.245,-0.041 -0.331,-0.121 z m 6.649,-5.939 c 0.44,-0.601 0.681,-1.387 0.72,-2.36 0.014,-0.133 0.021,-0.326 0.021,-0.58 0,-2.56 -0.947,-3.84 -2.84,-3.84 -0.934,0 -1.637,0.31 -2.11,0.93 -0.473,0.62 -0.724,1.351 -0.75,2.19 -0.014,0.146 -0.02,0.407 -0.02,0.78 0,0.373 0.006,0.633 0.02,0.779 0.026,0.813 0.283,1.518 0.771,2.11 0.486,0.594 1.183,0.89 2.09,0.89 0.959,0 1.659,-0.3 2.098,-0.899 z"
   id="path66" />
				<path
   fill="#00b9d2"
   d="m 154.066,141.037 c -0.087,-0.08 -0.131,-0.193 -0.131,-0.34 v -13.28 c 0,-0.146 0.044,-0.26 0.131,-0.34 0.086,-0.08 0.196,-0.12 0.33,-0.12 h 0.84 c 0.146,0 0.26,0.04 0.34,0.12 0.08,0.08 0.12,0.193 0.12,0.34 v 0.881 c 0.772,-1.027 1.873,-1.54 3.3,-1.54 1.4,0 2.45,0.443 3.15,1.33 0.699,0.887 1.069,2.017 1.109,3.39 0.014,0.146 0.021,0.373 0.021,0.68 0,0.307 -0.007,0.533 -0.021,0.681 -0.04,1.359 -0.41,2.486 -1.109,3.38 -0.7,0.894 -1.75,1.34 -3.15,1.34 -1.427,0 -2.507,-0.507 -3.24,-1.521 v 4.66 c 0,0.133 -0.043,0.243 -0.13,0.33 -0.087,0.087 -0.197,0.13 -0.33,0.13 h -0.899 c -0.135,-10e-4 -0.245,-0.041 -0.331,-0.121 z m 6.649,-5.939 c 0.44,-0.601 0.681,-1.387 0.72,-2.36 0.014,-0.133 0.021,-0.326 0.021,-0.58 0,-2.56 -0.947,-3.84 -2.84,-3.84 -0.934,0 -1.637,0.31 -2.11,0.93 -0.473,0.62 -0.724,1.351 -0.75,2.19 -0.014,0.146 -0.02,0.407 -0.02,0.78 0,0.373 0.006,0.633 0.02,0.779 0.026,0.813 0.283,1.518 0.771,2.11 0.486,0.594 1.183,0.89 2.09,0.89 0.959,0 1.659,-0.3 2.098,-0.899 z"
   id="path68" />
				<path
   fill="#00b9d2"
   d="m 165.764,124.867 c -0.087,-0.086 -0.13,-0.196 -0.13,-0.33 v -1.04 c 0,-0.133 0.043,-0.246 0.13,-0.34 0.087,-0.093 0.197,-0.14 0.33,-0.14 h 1.181 c 0.133,0 0.246,0.047 0.34,0.14 0.093,0.094 0.14,0.207 0.14,0.34 v 1.04 c 0,0.134 -0.047,0.244 -0.14,0.33 -0.094,0.087 -0.207,0.13 -0.34,0.13 h -1.181 c -0.133,0 -0.243,-0.043 -0.33,-0.13 z m 0.16,12.361 c -0.087,-0.087 -0.13,-0.196 -0.13,-0.33 v -9.48 c 0,-0.133 0.043,-0.243 0.13,-0.329 0.087,-0.087 0.196,-0.131 0.33,-0.131 h 0.88 c 0.133,0 0.243,0.044 0.33,0.131 0.087,0.086 0.13,0.196 0.13,0.329 v 9.48 c 0,0.134 -0.043,0.243 -0.13,0.33 -0.087,0.087 -0.197,0.13 -0.33,0.13 h -0.88 c -0.133,-0.001 -0.243,-0.044 -0.33,-0.13 z"
   id="path70" />
			</g>
		</g>
		<g
   id="g114">
			<g
   id="POLYLINE_318_">
				
					<polyline
   fill="none"
   stroke="#00b9d2"
   stroke-width="2"
   stroke-linecap="round"
   stroke-linejoin="round"
   stroke-miterlimit="10"
   points="      374.899,612.86 369.172,618.587 374.899,624.314     "
   id="polyline75" />
			</g>
			<g
   id="POLYLINE_317_">
				
					<line
   fill="none"
   stroke="#00b9d2"
   stroke-width="2"
   stroke-linecap="round"
   stroke-linejoin="round"
   stroke-miterlimit="10"
   x1="369.172"
   y1="618.58698"
   x2="411.04501"
   y2="618.58698"
   id="line78" />
			</g>
			<g
   id="POLYLINE_316_">
				
					<line
   fill="none"
   stroke="#00b9d2"
   stroke-width="2"
   stroke-linecap="round"
   stroke-linejoin="round"
   stroke-miterlimit="10"
   x1="565.685"
   y1="618.58698"
   x2="620.54602"
   y2="618.58698"
   id="line81" />
			</g>
			<g
   id="POLYLINE_315_">
				
					<polyline
   fill="none"
   stroke="#00b9d2"
   stroke-width="2"
   stroke-linecap="round"
   stroke-linejoin="round"
   stroke-miterlimit="10"
   points="      614.807,612.87 620.535,618.597 614.807,624.324     "
   id="polyline84" />
			</g>
			<g
   id="MTEXT_45_">
				<g
   id="g111">
					<path
   fill="#00b9d2"
   d="m 424.578,625.555 c -0.76,-0.341 -1.337,-0.783 -1.729,-1.33 -0.394,-0.547 -0.604,-1.113 -0.63,-1.7 0,-0.12 0.04,-0.217 0.12,-0.29 0.079,-0.073 0.18,-0.11 0.3,-0.11 h 0.899 c 0.146,0 0.267,0.03 0.36,0.09 0.093,0.061 0.167,0.178 0.22,0.351 0.174,0.68 0.55,1.16 1.13,1.439 0.58,0.28 1.264,0.42 2.051,0.42 0.96,0 1.723,-0.229 2.29,-0.689 0.566,-0.46 0.85,-1.116 0.85,-1.97 0,-1.627 -0.993,-2.44 -2.98,-2.44 h -1.88 c -0.133,0 -0.243,-0.043 -0.33,-0.13 -0.087,-0.087 -0.13,-0.196 -0.13,-0.33 v -0.52 c 0,-0.2 0.073,-0.374 0.221,-0.521 l 3.899,-4.32 h -5.92 c -0.134,0 -0.243,-0.04 -0.33,-0.12 -0.087,-0.079 -0.13,-0.187 -0.13,-0.319 v -0.72 c 0,-0.147 0.043,-0.264 0.13,-0.351 0.087,-0.087 0.196,-0.13 0.33,-0.13 h 7.92 c 0.146,0 0.264,0.043 0.351,0.13 0.086,0.087 0.13,0.203 0.13,0.351 v 0.659 c 0,0.147 -0.067,0.301 -0.2,0.46 l -3.9,4.381 h 0.32 c 1.36,0.039 2.437,0.393 3.229,1.06 0.794,0.667 1.19,1.64 1.19,2.92 0,0.88 -0.217,1.637 -0.65,2.271 -0.433,0.633 -1.036,1.119 -1.81,1.46 -0.773,0.34 -1.646,0.51 -2.62,0.51 -1.041,-0.003 -1.941,-0.172 -2.701,-0.512 z"
   id="path87" />
					<path
   fill="#00b9d2"
   d="m 434.808,625.734 c -0.087,-0.087 -0.13,-0.196 -0.13,-0.33 v -1.38 c 0,-0.133 0.043,-0.247 0.13,-0.34 0.086,-0.094 0.196,-0.141 0.33,-0.141 h 1.38 c 0.133,0 0.243,0.047 0.33,0.141 0.086,0.093 0.13,0.207 0.13,0.34 v 1.38 c 0,0.134 -0.044,0.243 -0.13,0.33 -0.087,0.087 -0.197,0.13 -0.33,0.13 h -1.38 c -0.134,0 -0.244,-0.043 -0.33,-0.13 z"
   id="path89" />
					<path
   fill="#00b9d2"
   d="m 440.547,624.555 c -0.793,-1.007 -1.217,-2.323 -1.27,-3.95 l -0.021,-1.721 0.021,-1.779 c 0.04,-1.613 0.463,-2.924 1.27,-3.931 0.807,-1.006 2.063,-1.51 3.771,-1.51 1.72,0 2.982,0.504 3.79,1.51 0.807,1.007 1.229,2.317 1.27,3.931 0.014,0.373 0.021,0.967 0.021,1.779 0,0.787 -0.007,1.36 -0.021,1.721 -0.054,1.627 -0.477,2.943 -1.27,3.95 -0.794,1.007 -2.058,1.51 -3.79,1.51 -1.721,-0.001 -2.978,-0.503 -3.771,-1.51 z m 6.09,-1.171 c 0.521,-0.68 0.794,-1.64 0.82,-2.88 0.013,-0.386 0.021,-0.939 0.021,-1.659 0,-0.733 -0.008,-1.28 -0.021,-1.641 -0.026,-1.227 -0.304,-2.183 -0.83,-2.87 -0.526,-0.687 -1.297,-1.029 -2.31,-1.029 -1.014,0 -1.78,0.343 -2.301,1.029 -0.52,0.688 -0.793,1.644 -0.819,2.87 l -0.021,1.641 0.021,1.659 c 0.026,1.24 0.3,2.2 0.819,2.88 0.521,0.681 1.287,1.021 2.301,1.021 1.027,-10e-4 1.801,-0.341 2.32,-1.021 z"
   id="path91" />
					<path
   fill="#00b9d2"
   d="m 453.368,625.734 c -0.073,-0.087 -0.11,-0.19 -0.11,-0.311 l 0.04,-0.18 5,-11.7 h -6.6 c -0.134,0 -0.243,-0.043 -0.33,-0.13 -0.087,-0.086 -0.13,-0.196 -0.13,-0.33 v -0.739 c 0,-0.147 0.04,-0.264 0.12,-0.351 0.08,-0.087 0.193,-0.13 0.34,-0.13 h 8.16 c 0.146,0 0.26,0.043 0.34,0.13 0.08,0.087 0.12,0.203 0.12,0.351 v 0.68 c 0,0.24 -0.054,0.5 -0.16,0.78 l -4.94,11.56 c -0.066,0.146 -0.14,0.267 -0.22,0.36 -0.08,0.093 -0.193,0.14 -0.34,0.14 h -1 c -0.12,0 -0.217,-0.043 -0.29,-0.13 z"
   id="path93" />
					<path
   fill="#00b9d2"
   d="m 462.068,615.345 c -0.06,-0.08 -0.077,-0.181 -0.05,-0.301 l 0.439,-2.8 c 0.054,-0.387 0.24,-0.58 0.561,-0.58 h 1.28 c 0.093,0 0.17,0.033 0.229,0.101 0.061,0.066 0.09,0.146 0.09,0.239 0,0.134 -0.02,0.24 -0.06,0.32 l -1.04,2.7 c -0.067,0.146 -0.141,0.257 -0.22,0.33 -0.08,0.073 -0.2,0.109 -0.36,0.109 h -0.62 c -0.106,0.001 -0.19,-0.039 -0.249,-0.118 z m 3.14,0 c -0.06,-0.08 -0.076,-0.181 -0.05,-0.301 l 0.44,-2.8 c 0.053,-0.387 0.24,-0.58 0.56,-0.58 h 1.28 c 0.093,0 0.17,0.033 0.229,0.101 0.061,0.066 0.091,0.146 0.091,0.239 0,0.134 -0.021,0.24 -0.061,0.32 l -1.04,2.7 c -0.066,0.146 -0.14,0.257 -0.22,0.33 -0.08,0.073 -0.2,0.109 -0.36,0.109 h -0.62 c -0.106,0.001 -0.189,-0.039 -0.249,-0.118 z"
   id="path95" />
					<path
   fill="#00b9d2"
   d="m 475.078,629.895 c -0.08,-0.087 -0.12,-0.197 -0.12,-0.33 v -21.16 c 0,-0.133 0.04,-0.243 0.12,-0.33 0.08,-0.087 0.187,-0.13 0.32,-0.13 h 0.739 c 0.134,0 0.243,0.043 0.33,0.13 0.087,0.087 0.13,0.197 0.13,0.33 v 21.16 c 0,0.133 -0.043,0.243 -0.13,0.33 -0.087,0.086 -0.196,0.13 -0.33,0.13 h -0.739 c -0.134,-10e-4 -0.24,-0.045 -0.32,-0.13 z"
   id="path97" />
					<path
   fill="#00b9d2"
   d="m 485.707,625.734 c -0.073,-0.087 -0.11,-0.19 -0.11,-0.311 l 0.04,-0.18 5,-11.7 h -6.6 c -0.134,0 -0.243,-0.043 -0.33,-0.13 -0.087,-0.086 -0.13,-0.196 -0.13,-0.33 v -0.739 c 0,-0.147 0.04,-0.264 0.12,-0.351 0.08,-0.087 0.193,-0.13 0.34,-0.13 h 8.16 c 0.146,0 0.26,0.043 0.34,0.13 0.08,0.087 0.12,0.203 0.12,0.351 v 0.68 c 0,0.24 -0.054,0.5 -0.16,0.78 l -4.94,11.56 c -0.066,0.146 -0.14,0.267 -0.22,0.36 -0.08,0.093 -0.193,0.14 -0.34,0.14 h -1 c -0.121,0 -0.217,-0.043 -0.29,-0.13 z"
   id="path99" />
					<path
   fill="#00b9d2"
   d="m 496.827,625.555 c -0.793,-0.341 -1.41,-0.83 -1.85,-1.471 -0.44,-0.64 -0.66,-1.387 -0.66,-2.239 0,-0.787 0.196,-1.477 0.59,-2.07 0.394,-0.593 0.923,-1.05 1.59,-1.37 -0.533,-0.307 -0.946,-0.71 -1.24,-1.21 -0.293,-0.5 -0.439,-1.09 -0.439,-1.771 0,-1.159 0.433,-2.076 1.3,-2.75 0.866,-0.673 2.007,-1.01 3.42,-1.01 1.413,0 2.55,0.334 3.41,1 0.86,0.667 1.29,1.587 1.29,2.76 0,0.667 -0.146,1.25 -0.44,1.75 -0.293,0.5 -0.699,0.91 -1.22,1.23 0.667,0.32 1.196,0.776 1.59,1.37 0.394,0.594 0.59,1.29 0.59,2.09 0,0.854 -0.22,1.597 -0.659,2.23 -0.44,0.633 -1.058,1.119 -1.851,1.46 -0.793,0.34 -1.696,0.51 -2.71,0.51 -1.014,0 -1.918,-0.169 -2.711,-0.509 z m 5.08,-1.771 c 0.633,-0.479 0.95,-1.12 0.95,-1.92 0,-0.8 -0.317,-1.44 -0.95,-1.92 -0.634,-0.48 -1.424,-0.72 -2.37,-0.72 -0.96,0 -1.757,0.239 -2.39,0.72 -0.634,0.479 -0.95,1.12 -0.95,1.92 0,0.8 0.316,1.44 0.95,1.92 0.633,0.48 1.43,0.72 2.39,0.72 0.946,0 1.736,-0.239 2.37,-0.72 z m -0.31,-6.72 c 0.56,-0.4 0.84,-0.934 0.84,-1.601 0,-0.68 -0.277,-1.223 -0.83,-1.63 -0.554,-0.406 -1.243,-0.609 -2.07,-0.609 -0.84,0 -1.533,0.203 -2.08,0.609 -0.547,0.407 -0.819,0.95 -0.819,1.63 0,0.681 0.272,1.224 0.819,1.631 0.547,0.406 1.24,0.609 2.08,0.609 0.813,-0.025 1.5,-0.239 2.06,-0.639 z"
   id="path101" />
					<path
   fill="#00b9d2"
   d="m 507.167,625.734 c -0.087,-0.087 -0.13,-0.196 -0.13,-0.33 v -1.38 c 0,-0.133 0.043,-0.247 0.13,-0.34 0.086,-0.094 0.196,-0.141 0.33,-0.141 h 1.38 c 0.133,0 0.243,0.047 0.33,0.141 0.086,0.093 0.13,0.207 0.13,0.34 v 1.38 c 0,0.134 -0.044,0.243 -0.13,0.33 -0.087,0.087 -0.197,0.13 -0.33,0.13 h -1.38 c -0.134,0 -0.245,-0.043 -0.33,-0.13 z"
   id="path103" />
					<path
   fill="#00b9d2"
   d="m 514.537,625.734 c -0.08,-0.087 -0.12,-0.196 -0.12,-0.33 v -11.28 l -3.36,2.58 c -0.093,0.08 -0.193,0.12 -0.3,0.12 -0.12,0 -0.233,-0.066 -0.34,-0.2 l -0.48,-0.62 c -0.066,-0.093 -0.1,-0.187 -0.1,-0.279 0,-0.146 0.066,-0.267 0.2,-0.36 l 4.34,-3.36 c 0.146,-0.093 0.32,-0.14 0.52,-0.14 h 0.94 c 0.133,0 0.243,0.043 0.33,0.13 0.087,0.087 0.13,0.197 0.13,0.33 v 13.08 c 0,0.134 -0.043,0.243 -0.13,0.33 -0.087,0.087 -0.197,0.13 -0.33,0.13 h -0.98 c -0.134,-10e-4 -0.24,-0.044 -0.32,-0.131 z"
   id="path105" />
					<path
   fill="#00b9d2"
   d="m 524.386,625.734 c -0.087,-0.087 -0.13,-0.196 -0.13,-0.33 v -9.48 c 0,-0.133 0.043,-0.243 0.13,-0.329 0.087,-0.087 0.196,-0.131 0.33,-0.131 h 0.84 c 0.134,0 0.24,0.044 0.32,0.131 0.08,0.086 0.12,0.196 0.12,0.329 v 0.681 c 0.72,-0.894 1.693,-1.34 2.92,-1.34 1.467,0 2.507,0.613 3.12,1.84 0.319,-0.561 0.776,-1.007 1.37,-1.34 0.593,-0.334 1.256,-0.5 1.989,-0.5 1.094,0 1.987,0.373 2.681,1.119 0.692,0.747 1.04,1.827 1.04,3.24 v 5.78 c 0,0.134 -0.044,0.243 -0.13,0.33 -0.087,0.087 -0.197,0.13 -0.33,0.13 h -0.86 c -0.134,0 -0.243,-0.043 -0.33,-0.13 -0.087,-0.087 -0.13,-0.196 -0.13,-0.33 v -5.6 c 0,-1.067 -0.22,-1.83 -0.66,-2.29 -0.439,-0.46 -1.02,-0.69 -1.74,-0.69 -0.64,0 -1.189,0.237 -1.649,0.71 -0.46,0.474 -0.69,1.23 -0.69,2.271 v 5.6 c 0,0.134 -0.043,0.243 -0.13,0.33 -0.087,0.087 -0.197,0.13 -0.33,0.13 h -0.88 c -0.134,0 -0.243,-0.043 -0.33,-0.13 -0.087,-0.087 -0.13,-0.196 -0.13,-0.33 v -5.6 c 0,-1.054 -0.23,-1.813 -0.69,-2.28 -0.46,-0.467 -1.029,-0.7 -1.71,-0.7 -0.64,0 -1.189,0.233 -1.649,0.7 -0.46,0.467 -0.69,1.22 -0.69,2.26 v 5.62 c 0,0.134 -0.043,0.243 -0.13,0.33 -0.087,0.087 -0.197,0.13 -0.33,0.13 h -0.88 c -0.135,-10e-4 -0.245,-0.044 -0.332,-0.131 z"
   id="path107" />
					<path
   fill="#00b9d2"
   d="m 542.146,625.734 c -0.087,-0.087 -0.13,-0.196 -0.13,-0.33 v -9.48 c 0,-0.133 0.043,-0.243 0.13,-0.329 0.087,-0.087 0.196,-0.131 0.33,-0.131 h 0.84 c 0.134,0 0.24,0.044 0.32,0.131 0.08,0.086 0.12,0.196 0.12,0.329 v 0.681 c 0.72,-0.894 1.693,-1.34 2.92,-1.34 1.467,0 2.507,0.613 3.12,1.84 0.319,-0.561 0.776,-1.007 1.37,-1.34 0.593,-0.334 1.256,-0.5 1.989,-0.5 1.094,0 1.987,0.373 2.681,1.119 0.692,0.747 1.04,1.827 1.04,3.24 v 5.78 c 0,0.134 -0.044,0.243 -0.13,0.33 -0.087,0.087 -0.197,0.13 -0.33,0.13 h -0.86 c -0.134,0 -0.243,-0.043 -0.33,-0.13 -0.087,-0.087 -0.13,-0.196 -0.13,-0.33 v -5.6 c 0,-1.067 -0.22,-1.83 -0.66,-2.29 -0.439,-0.46 -1.02,-0.69 -1.74,-0.69 -0.64,0 -1.189,0.237 -1.649,0.71 -0.46,0.474 -0.69,1.23 -0.69,2.271 v 5.6 c 0,0.134 -0.043,0.243 -0.13,0.33 -0.087,0.087 -0.197,0.13 -0.33,0.13 h -0.88 c -0.134,0 -0.243,-0.043 -0.33,-0.13 -0.087,-0.087 -0.13,-0.196 -0.13,-0.33 v -5.6 c 0,-1.054 -0.23,-1.813 -0.69,-2.28 -0.46,-0.467 -1.029,-0.7 -1.71,-0.7 -0.64,0 -1.189,0.233 -1.649,0.7 -0.46,0.467 -0.69,1.22 -0.69,2.26 v 5.62 c 0,0.134 -0.043,0.243 -0.13,0.33 -0.087,0.087 -0.197,0.13 -0.33,0.13 h -0.88 c -0.136,-10e-4 -0.245,-0.044 -0.332,-0.131 z"
   id="path109" />
				</g>
			</g>
		</g>
		<g
   id="g143">
			<g
   id="POLYLINE_314_">
				
					<polyline
   fill="none"
   stroke="#00b9d2"
   stroke-width="2"
   stroke-linecap="round"
   stroke-linejoin="round"
   stroke-miterlimit="10"
   points="      94.522,530.803 88.795,536.529 94.522,542.256     "
   id="polyline116" />
			</g>
			<g
   id="POLYLINE_313_">
				
					<line
   fill="none"
   stroke="#00b9d2"
   stroke-width="2"
   stroke-linecap="round"
   stroke-linejoin="round"
   stroke-miterlimit="10"
   x1="88.794998"
   y1="536.52899"
   x2="173.716"
   y2="536.52899"
   id="line119" />
			</g>
			<g
   id="POLYLINE_312_">
				
					<line
   fill="none"
   stroke="#00b9d2"
   stroke-width="2"
   stroke-linecap="round"
   stroke-linejoin="round"
   stroke-miterlimit="10"
   x1="259.91599"
   y1="536.52899"
   x2="292.77499"
   y2="536.52899"
   id="line122" />
			</g>
			<g
   id="POLYLINE_311_">
				
					<polyline
   fill="none"
   stroke="#00b9d2"
   stroke-width="2"
   stroke-linecap="round"
   stroke-linejoin="round"
   stroke-miterlimit="10"
   points="      287.036,530.813 292.764,536.54 287.036,542.267     "
   id="polyline125" />
			</g>
			<g
   id="MTEXT_44_">
				<g
   id="g140">
					<path
   fill="#00b9d2"
   d="m 185.536,542.678 c -0.08,-0.087 -0.12,-0.196 -0.12,-0.33 v -11.28 l -3.36,2.58 c -0.093,0.08 -0.193,0.12 -0.3,0.12 -0.12,0 -0.233,-0.066 -0.34,-0.2 l -0.48,-0.62 c -0.066,-0.093 -0.1,-0.187 -0.1,-0.279 0,-0.146 0.066,-0.267 0.2,-0.36 l 4.34,-3.36 c 0.146,-0.093 0.32,-0.14 0.52,-0.14 h 0.94 c 0.133,0 0.243,0.043 0.33,0.13 0.087,0.087 0.13,0.197 0.13,0.33 v 13.08 c 0,0.134 -0.043,0.243 -0.13,0.33 -0.087,0.087 -0.197,0.13 -0.33,0.13 h -0.98 c -0.134,-10e-4 -0.24,-0.044 -0.32,-0.131 z"
   id="path128" />
					<path
   fill="#00b9d2"
   d="m 189.946,542.678 c -0.087,-0.087 -0.13,-0.196 -0.13,-0.33 v -0.6 c 0,-0.307 0.166,-0.601 0.5,-0.881 l 4.359,-4.34 c 0.986,-0.84 1.667,-1.526 2.04,-2.06 0.373,-0.534 0.561,-1.101 0.561,-1.7 0,-0.786 -0.221,-1.403 -0.66,-1.85 -0.44,-0.447 -1.08,-0.67 -1.92,-0.67 -0.801,0 -1.434,0.233 -1.9,0.699 -0.467,0.467 -0.753,1.094 -0.86,1.88 -0.026,0.147 -0.093,0.261 -0.199,0.341 -0.107,0.08 -0.214,0.12 -0.32,0.12 h -0.96 c -0.12,0 -0.22,-0.04 -0.3,-0.12 -0.08,-0.08 -0.12,-0.174 -0.12,-0.28 0.026,-0.707 0.217,-1.39 0.569,-2.05 0.354,-0.66 0.877,-1.2 1.57,-1.62 0.693,-0.42 1.533,-0.63 2.521,-0.63 1.493,0 2.616,0.39 3.37,1.17 0.753,0.78 1.13,1.77 1.13,2.97 0,0.84 -0.204,1.597 -0.61,2.271 -0.407,0.673 -1.043,1.383 -1.91,2.13 l -3.939,4 h 6.3 c 0.146,0 0.26,0.04 0.34,0.12 0.08,0.079 0.12,0.193 0.12,0.34 v 0.76 c 0,0.134 -0.044,0.243 -0.13,0.33 -0.087,0.087 -0.197,0.13 -0.33,0.13 h -8.76 c -0.136,0 -0.246,-0.043 -0.332,-0.13 z"
   id="path130" />
					<path
   fill="#00b9d2"
   d="m 204.145,542.498 c -0.793,-0.341 -1.41,-0.83 -1.85,-1.471 -0.44,-0.64 -0.66,-1.387 -0.66,-2.239 0,-0.787 0.196,-1.477 0.59,-2.07 0.394,-0.593 0.923,-1.05 1.59,-1.37 -0.533,-0.307 -0.946,-0.71 -1.24,-1.21 -0.293,-0.5 -0.439,-1.09 -0.439,-1.771 0,-1.159 0.433,-2.076 1.3,-2.75 0.866,-0.673 2.007,-1.01 3.42,-1.01 1.413,0 2.55,0.334 3.41,1 0.86,0.667 1.29,1.587 1.29,2.76 0,0.667 -0.146,1.25 -0.44,1.75 -0.293,0.5 -0.699,0.91 -1.22,1.23 0.667,0.32 1.196,0.776 1.59,1.37 0.394,0.594 0.59,1.29 0.59,2.09 0,0.854 -0.22,1.597 -0.659,2.23 -0.44,0.633 -1.058,1.119 -1.851,1.46 -0.793,0.34 -1.696,0.51 -2.71,0.51 -1.014,0 -1.918,-0.169 -2.711,-0.509 z m 5.08,-1.77 c 0.633,-0.479 0.95,-1.12 0.95,-1.92 0,-0.8 -0.317,-1.44 -0.95,-1.92 -0.634,-0.48 -1.424,-0.72 -2.37,-0.72 -0.96,0 -1.757,0.239 -2.39,0.72 -0.634,0.479 -0.95,1.12 -0.95,1.92 0,0.8 0.316,1.44 0.95,1.92 0.633,0.48 1.43,0.72 2.39,0.72 0.946,-10e-4 1.736,-0.24 2.37,-0.72 z m -0.309,-6.72 c 0.56,-0.4 0.84,-0.934 0.84,-1.601 0,-0.68 -0.277,-1.223 -0.83,-1.63 -0.554,-0.406 -1.243,-0.609 -2.07,-0.609 -0.84,0 -1.533,0.203 -2.08,0.609 -0.547,0.407 -0.819,0.95 -0.819,1.63 0,0.681 0.272,1.224 0.819,1.631 0.547,0.406 1.24,0.609 2.08,0.609 0.812,-0.026 1.499,-0.24 2.06,-0.639 z"
   id="path132" />
					<path
   fill="#00b9d2"
   d="m 220.905,542.678 c -0.087,-0.087 -0.13,-0.196 -0.13,-0.33 v -2.92 h -6.5 c -0.134,0 -0.243,-0.043 -0.33,-0.13 -0.087,-0.087 -0.13,-0.197 -0.13,-0.33 v -0.74 c 0,-0.187 0.073,-0.387 0.22,-0.6 l 6.021,-8.48 c 0.066,-0.106 0.166,-0.189 0.3,-0.25 0.133,-0.06 0.28,-0.09 0.439,-0.09 h 1.36 c 0.146,0 0.26,0.04 0.34,0.12 0.08,0.08 0.12,0.193 0.12,0.34 v 8.48 h 1.82 c 0.133,0 0.243,0.043 0.33,0.13 0.086,0.087 0.13,0.196 0.13,0.33 v 0.76 c 0,0.133 -0.044,0.243 -0.13,0.33 -0.087,0.087 -0.197,0.13 -0.33,0.13 h -1.82 v 2.92 c 0,0.134 -0.043,0.243 -0.13,0.33 -0.087,0.087 -0.197,0.13 -0.33,0.13 h -0.92 c -0.134,0 -0.243,-0.043 -0.33,-0.13 z m -5.01,-4.89 h 4.899 v -6.961 z"
   id="path134" />
					<path
   fill="#00b9d2"
   d="m 232.125,546.487 c -0.087,-0.08 -0.131,-0.193 -0.131,-0.34 v -13.28 c 0,-0.146 0.044,-0.26 0.131,-0.34 0.086,-0.08 0.196,-0.12 0.33,-0.12 h 0.84 c 0.146,0 0.26,0.04 0.34,0.12 0.08,0.08 0.12,0.193 0.12,0.34 v 0.881 c 0.772,-1.027 1.873,-1.54 3.3,-1.54 1.4,0 2.45,0.443 3.15,1.33 0.699,0.887 1.069,2.017 1.109,3.39 0.014,0.146 0.021,0.373 0.021,0.68 0,0.307 -0.007,0.533 -0.021,0.681 -0.04,1.359 -0.41,2.486 -1.109,3.38 -0.7,0.894 -1.75,1.34 -3.15,1.34 -1.427,0 -2.507,-0.507 -3.24,-1.521 v 4.66 c 0,0.133 -0.043,0.243 -0.13,0.33 -0.087,0.087 -0.197,0.13 -0.33,0.13 h -0.899 c -0.135,-10e-4 -0.246,-0.041 -0.331,-0.121 z m 6.649,-5.939 c 0.44,-0.601 0.681,-1.387 0.72,-2.36 0.014,-0.133 0.021,-0.326 0.021,-0.58 0,-2.56 -0.947,-3.84 -2.84,-3.84 -0.934,0 -1.637,0.31 -2.11,0.93 -0.473,0.62 -0.724,1.351 -0.75,2.19 -0.014,0.146 -0.02,0.407 -0.02,0.78 0,0.373 0.006,0.633 0.02,0.779 0.026,0.813 0.283,1.518 0.771,2.11 0.486,0.594 1.183,0.89 2.09,0.89 0.958,0 1.658,-0.3 2.098,-0.899 z"
   id="path136" />
					<path
   fill="#00b9d2"
   d="m 242.794,542.688 c -0.08,-0.08 -0.12,-0.18 -0.12,-0.3 0,-0.12 0.047,-0.247 0.141,-0.38 l 3.479,-4.521 -3.26,-4.3 c -0.106,-0.146 -0.16,-0.267 -0.16,-0.36 0,-0.119 0.043,-0.22 0.13,-0.3 0.087,-0.08 0.184,-0.12 0.29,-0.12 h 0.96 c 0.2,0 0.373,0.107 0.521,0.32 l 2.7,3.5 2.699,-3.5 c 0.08,-0.106 0.157,-0.187 0.23,-0.24 0.073,-0.053 0.17,-0.08 0.29,-0.08 h 0.92 c 0.106,0 0.2,0.04 0.28,0.12 0.08,0.08 0.12,0.174 0.12,0.28 0,0.134 -0.047,0.26 -0.141,0.38 l -3.3,4.34 3.48,4.48 c 0.093,0.133 0.14,0.26 0.14,0.38 0,0.12 -0.04,0.22 -0.12,0.3 -0.08,0.08 -0.18,0.12 -0.3,0.12 h -0.98 c -0.2,0 -0.373,-0.1 -0.52,-0.3 l -2.86,-3.7 -2.859,3.7 c -0.08,0.093 -0.157,0.167 -0.23,0.22 -0.073,0.054 -0.17,0.08 -0.29,0.08 h -0.94 c -0.119,10e-4 -0.219,-0.039 -0.3,-0.119 z"
   id="path138" />
				</g>
			</g>
		</g>
		<g
   id="g172">
			<g
   id="POLYLINE_310_">
				
					<polyline
   fill="none"
   stroke="#00b9d2"
   stroke-width="2"
   stroke-linecap="round"
   stroke-linejoin="round"
   stroke-miterlimit="10"
   points="      280.176,106.852 274.449,101.125 268.722,106.852     "
   id="polyline145" />
			</g>
			<g
   id="POLYLINE_309_">
				
					<line
   fill="none"
   stroke="#00b9d2"
   stroke-width="2"
   stroke-linecap="round"
   stroke-linejoin="round"
   stroke-miterlimit="10"
   x1="274.44901"
   y1="101.125"
   x2="274.44901"
   y2="445.29599"
   id="line148" />
			</g>
			<g
   id="POLYLINE_308_">
				
					<line
   fill="none"
   stroke="#00b9d2"
   stroke-width="2"
   stroke-linecap="round"
   stroke-linejoin="round"
   stroke-miterlimit="10"
   x1="274.44901"
   y1="474.996"
   x2="274.44901"
   y2="573.17999"
   id="line151" />
			</g>
			<g
   id="POLYLINE_307_">
				
					<polyline
   fill="none"
   stroke="#00b9d2"
   stroke-width="2"
   stroke-linecap="round"
   stroke-linejoin="round"
   stroke-miterlimit="10"
   points="      280.166,567.44 274.439,573.168 268.712,567.44     "
   id="polyline154" />
			</g>
			<g
   id="MTEXT_43_">
				<g
   id="g169">
					<path
   fill="#00b9d2"
   d="m 215.178,463.816 c -0.087,-0.087 -0.13,-0.196 -0.13,-0.33 v -0.6 c 0,-0.307 0.166,-0.601 0.5,-0.881 l 4.359,-4.34 c 0.986,-0.84 1.667,-1.526 2.04,-2.06 0.373,-0.534 0.561,-1.101 0.561,-1.7 0,-0.786 -0.221,-1.403 -0.66,-1.85 -0.44,-0.447 -1.08,-0.67 -1.92,-0.67 -0.801,0 -1.434,0.233 -1.9,0.699 -0.467,0.467 -0.753,1.094 -0.86,1.88 -0.026,0.147 -0.093,0.261 -0.199,0.341 -0.107,0.08 -0.214,0.12 -0.32,0.12 h -0.96 c -0.12,0 -0.22,-0.04 -0.3,-0.12 -0.08,-0.08 -0.12,-0.174 -0.12,-0.28 0.026,-0.707 0.217,-1.39 0.569,-2.05 0.354,-0.66 0.877,-1.2 1.57,-1.62 0.693,-0.42 1.533,-0.63 2.521,-0.63 1.493,0 2.616,0.39 3.37,1.17 0.753,0.78 1.13,1.77 1.13,2.97 0,0.84 -0.204,1.597 -0.61,2.271 -0.407,0.673 -1.043,1.383 -1.91,2.13 l -3.939,4 h 6.3 c 0.146,0 0.26,0.04 0.34,0.12 0.08,0.079 0.12,0.193 0.12,0.34 v 0.76 c 0,0.134 -0.044,0.243 -0.13,0.33 -0.087,0.087 -0.197,0.13 -0.33,0.13 h -8.76 c -0.135,0 -0.246,-0.043 -0.332,-0.13 z"
   id="path157" />
					<path
   fill="#00b9d2"
   d="m 228.458,463.816 c -0.073,-0.087 -0.11,-0.19 -0.11,-0.311 l 0.04,-0.18 5,-11.7 h -6.6 c -0.134,0 -0.243,-0.043 -0.33,-0.13 -0.087,-0.086 -0.13,-0.196 -0.13,-0.33 v -0.739 c 0,-0.147 0.04,-0.264 0.12,-0.351 0.08,-0.087 0.193,-0.13 0.34,-0.13 h 8.16 c 0.146,0 0.26,0.043 0.34,0.13 0.08,0.087 0.12,0.203 0.12,0.351 v 0.68 c 0,0.24 -0.054,0.5 -0.16,0.78 l -4.94,11.56 c -0.066,0.146 -0.14,0.267 -0.22,0.36 -0.08,0.093 -0.193,0.14 -0.34,0.14 h -1 c -0.121,0 -0.217,-0.043 -0.29,-0.13 z"
   id="path159" />
					<path
   fill="#00b9d2"
   d="m 238.658,463.816 c -0.073,-0.087 -0.11,-0.19 -0.11,-0.311 l 0.04,-0.18 5,-11.7 h -6.6 c -0.134,0 -0.243,-0.043 -0.33,-0.13 -0.087,-0.086 -0.13,-0.196 -0.13,-0.33 v -0.739 c 0,-0.147 0.04,-0.264 0.12,-0.351 0.08,-0.087 0.193,-0.13 0.34,-0.13 h 8.16 c 0.146,0 0.26,0.043 0.34,0.13 0.08,0.087 0.12,0.203 0.12,0.351 v 0.68 c 0,0.24 -0.054,0.5 -0.16,0.78 l -4.94,11.56 c -0.066,0.146 -0.14,0.267 -0.22,0.36 -0.08,0.093 -0.193,0.14 -0.34,0.14 h -1 c -0.12,0 -0.217,-0.043 -0.29,-0.13 z"
   id="path161" />
					<path
   fill="#00b9d2"
   d="m 249.778,463.637 c -0.793,-0.341 -1.41,-0.83 -1.85,-1.471 -0.44,-0.64 -0.66,-1.387 -0.66,-2.239 0,-0.787 0.196,-1.477 0.59,-2.07 0.394,-0.593 0.923,-1.05 1.59,-1.37 -0.533,-0.307 -0.946,-0.71 -1.24,-1.21 -0.293,-0.5 -0.439,-1.09 -0.439,-1.771 0,-1.159 0.433,-2.076 1.3,-2.75 0.866,-0.673 2.007,-1.01 3.42,-1.01 1.413,0 2.55,0.334 3.41,1 0.86,0.667 1.29,1.587 1.29,2.76 0,0.667 -0.146,1.25 -0.44,1.75 -0.293,0.5 -0.699,0.91 -1.22,1.23 0.667,0.32 1.196,0.776 1.59,1.37 0.394,0.594 0.59,1.29 0.59,2.09 0,0.854 -0.22,1.597 -0.659,2.23 -0.44,0.633 -1.058,1.119 -1.851,1.46 -0.793,0.34 -1.696,0.51 -2.71,0.51 -1.014,0 -1.918,-0.169 -2.711,-0.509 z m 5.08,-1.771 c 0.633,-0.479 0.95,-1.12 0.95,-1.92 0,-0.8 -0.317,-1.44 -0.95,-1.92 -0.634,-0.48 -1.424,-0.72 -2.37,-0.72 -0.96,0 -1.757,0.239 -2.39,0.72 -0.634,0.479 -0.95,1.12 -0.95,1.92 0,0.8 0.316,1.44 0.95,1.92 0.633,0.48 1.43,0.72 2.39,0.72 0.946,0 1.736,-0.239 2.37,-0.72 z m -0.31,-6.72 c 0.56,-0.4 0.84,-0.934 0.84,-1.601 0,-0.68 -0.277,-1.223 -0.83,-1.63 -0.554,-0.406 -1.243,-0.609 -2.07,-0.609 -0.84,0 -1.533,0.203 -2.08,0.609 -0.547,0.407 -0.819,0.95 -0.819,1.63 0,0.681 0.272,1.224 0.819,1.631 0.547,0.406 1.24,0.609 2.08,0.609 0.813,-0.025 1.5,-0.239 2.06,-0.639 z"
   id="path163" />
					<path
   fill="#00b9d2"
   d="m 265.398,467.626 c -0.087,-0.08 -0.131,-0.193 -0.131,-0.34 v -13.28 c 0,-0.146 0.044,-0.26 0.131,-0.34 0.086,-0.08 0.196,-0.12 0.33,-0.12 h 0.84 c 0.146,0 0.26,0.04 0.34,0.12 0.08,0.08 0.12,0.193 0.12,0.34 v 0.881 c 0.772,-1.027 1.873,-1.54 3.3,-1.54 1.4,0 2.45,0.443 3.15,1.33 0.699,0.887 1.069,2.017 1.109,3.39 0.014,0.146 0.021,0.373 0.021,0.68 0,0.307 -0.007,0.533 -0.021,0.681 -0.04,1.359 -0.41,2.486 -1.109,3.38 -0.7,0.894 -1.75,1.34 -3.15,1.34 -1.427,0 -2.507,-0.507 -3.24,-1.521 v 4.66 c 0,0.133 -0.043,0.243 -0.13,0.33 -0.087,0.087 -0.197,0.13 -0.33,0.13 h -0.899 c -0.135,-0.001 -0.245,-0.041 -0.331,-0.121 z m 6.649,-5.939 c 0.44,-0.601 0.681,-1.387 0.72,-2.36 0.014,-0.133 0.021,-0.326 0.021,-0.58 0,-2.56 -0.947,-3.84 -2.84,-3.84 -0.934,0 -1.637,0.31 -2.11,0.93 -0.473,0.62 -0.724,1.351 -0.75,2.19 -0.014,0.146 -0.02,0.407 -0.02,0.78 0,0.373 0.006,0.633 0.02,0.779 0.026,0.813 0.283,1.518 0.771,2.11 0.486,0.594 1.183,0.89 2.09,0.89 0.959,0 1.659,-0.3 2.098,-0.899 z"
   id="path165" />
					<path
   fill="#00b9d2"
   d="m 276.067,463.826 c -0.08,-0.08 -0.12,-0.18 -0.12,-0.3 0,-0.12 0.047,-0.247 0.141,-0.38 l 3.479,-4.521 -3.26,-4.3 c -0.106,-0.146 -0.16,-0.267 -0.16,-0.36 0,-0.119 0.043,-0.22 0.13,-0.3 0.087,-0.08 0.184,-0.12 0.29,-0.12 h 0.96 c 0.2,0 0.373,0.107 0.521,0.32 l 2.7,3.5 2.699,-3.5 c 0.08,-0.106 0.157,-0.187 0.23,-0.24 0.073,-0.053 0.17,-0.08 0.29,-0.08 h 0.92 c 0.106,0 0.2,0.04 0.28,0.12 0.08,0.08 0.12,0.174 0.12,0.28 0,0.134 -0.047,0.26 -0.141,0.38 l -3.3,4.34 3.48,4.48 c 0.093,0.133 0.14,0.26 0.14,0.38 0,0.12 -0.04,0.22 -0.12,0.3 -0.08,0.08 -0.18,0.12 -0.3,0.12 h -0.98 c -0.2,0 -0.373,-0.1 -0.52,-0.3 l -2.86,-3.7 -2.859,3.7 c -0.08,0.093 -0.157,0.167 -0.23,0.22 -0.073,0.054 -0.17,0.08 -0.29,0.08 h -0.94 c -0.119,0.001 -0.22,-0.039 -0.3,-0.119 z"
   id="path167" />
				</g>
			</g>
		</g>
		<g
   id="g215">
			<g
   id="POLYLINE_306_">
				
					<polyline
   fill="none"
   stroke="#00b9d2"
   stroke-width="2"
   stroke-linecap="round"
   stroke-linejoin="round"
   stroke-miterlimit="10"
   points="      647.842,85.847 642.115,80.12 636.388,85.847     "
   id="polyline174" />
			</g>
			<g
   id="POLYLINE_305_">
				
					<line
   fill="none"
   stroke="#00b9d2"
   stroke-width="2"
   stroke-linecap="round"
   stroke-linejoin="round"
   stroke-miterlimit="10"
   x1="642.11499"
   y1="80.120003"
   x2="642.11499"
   y2="148.76401"
   id="line177" />
			</g>
			<g
   id="POLYLINE_304_">
				
					<line
   fill="none"
   stroke="#00b9d2"
   stroke-width="2"
   stroke-linecap="round"
   stroke-linejoin="round"
   stroke-miterlimit="10"
   x1="642.11499"
   y1="149.108"
   x2="642.11499"
   y2="592.72699"
   id="line180" />
			</g>
			<g
   id="POLYLINE_303_">
				
					<polyline
   fill="none"
   stroke="#00b9d2"
   stroke-width="2"
   stroke-linecap="round"
   stroke-linejoin="round"
   stroke-miterlimit="10"
   points="      647.832,586.987 642.105,592.715 636.378,586.987     "
   id="polyline183" />
			</g>
			<g
   id="MTEXT_42_"
   opacity="0.98">
				<g
   id="g212">
					<path
   fill="#00b9d2"
   d="m 497.39,67.132 c -0.78,-0.433 -1.374,-1.017 -1.78,-1.75 -0.406,-0.733 -0.61,-1.533 -0.61,-2.4 0,-1.146 0.46,-2.373 1.38,-3.681 l 3.819,-5.319 c 0.014,-0.014 0.051,-0.061 0.11,-0.141 0.059,-0.08 0.137,-0.143 0.229,-0.189 0.094,-0.047 0.2,-0.07 0.32,-0.07 h 0.98 c 0.12,0 0.216,0.043 0.29,0.13 0.073,0.087 0.109,0.19 0.109,0.311 0,0.066 -0.033,0.153 -0.1,0.26 l -2.92,4.08 c 0.347,-0.08 0.733,-0.12 1.16,-0.12 0.973,0 1.83,0.217 2.569,0.649 0.74,0.434 1.313,1.007 1.721,1.721 0.406,0.713 0.609,1.497 0.609,2.35 0,0.854 -0.203,1.65 -0.609,2.39 -0.407,0.74 -0.997,1.33 -1.771,1.771 -0.774,0.441 -1.687,0.66 -2.74,0.66 -1.063,-0.002 -1.986,-0.219 -2.766,-0.652 z m 4.37,-1.37 c 0.493,-0.239 0.887,-0.597 1.18,-1.069 0.293,-0.474 0.44,-1.044 0.44,-1.71 0,-0.653 -0.15,-1.217 -0.45,-1.69 -0.3,-0.473 -0.697,-0.833 -1.19,-1.08 -0.493,-0.246 -1.026,-0.37 -1.6,-0.37 -0.574,0 -1.107,0.124 -1.601,0.37 -0.493,0.247 -0.887,0.607 -1.18,1.08 -0.293,0.474 -0.439,1.037 -0.439,1.69 0,0.666 0.146,1.236 0.439,1.71 0.293,0.473 0.687,0.83 1.18,1.069 0.493,0.24 1.027,0.36 1.601,0.36 0.587,0 1.126,-0.12 1.62,-0.36 z"
   id="path186" />
					<path
   fill="#00b9d2"
   d="m 507.51,67.452 c -0.087,-0.087 -0.13,-0.196 -0.13,-0.33 v -1.38 c 0,-0.133 0.043,-0.247 0.13,-0.34 0.086,-0.094 0.196,-0.141 0.33,-0.141 h 1.38 c 0.133,0 0.243,0.047 0.33,0.141 0.086,0.093 0.13,0.207 0.13,0.34 v 1.38 c 0,0.134 -0.044,0.243 -0.13,0.33 -0.087,0.087 -0.197,0.13 -0.33,0.13 h -1.38 c -0.133,0 -0.244,-0.043 -0.33,-0.13 z"
   id="path188" />
					<path
   fill="#00b9d2"
   d="m 514.24,67.272 c -0.76,-0.341 -1.337,-0.783 -1.729,-1.33 -0.394,-0.547 -0.604,-1.113 -0.63,-1.7 0,-0.12 0.04,-0.217 0.12,-0.29 0.079,-0.073 0.18,-0.11 0.3,-0.11 h 0.899 c 0.146,0 0.267,0.03 0.36,0.09 0.093,0.061 0.167,0.178 0.22,0.351 0.174,0.68 0.55,1.16 1.13,1.439 0.58,0.28 1.264,0.42 2.051,0.42 0.96,0 1.723,-0.229 2.29,-0.689 0.566,-0.46 0.85,-1.116 0.85,-1.97 0,-1.627 -0.993,-2.44 -2.98,-2.44 h -1.88 c -0.133,0 -0.243,-0.043 -0.33,-0.13 -0.087,-0.087 -0.13,-0.196 -0.13,-0.33 v -0.52 c 0,-0.2 0.073,-0.374 0.221,-0.521 l 3.899,-4.32 h -5.92 c -0.134,0 -0.243,-0.04 -0.33,-0.12 -0.087,-0.079 -0.13,-0.187 -0.13,-0.319 v -0.72 c 0,-0.147 0.043,-0.264 0.13,-0.351 0.087,-0.087 0.196,-0.13 0.33,-0.13 h 7.92 c 0.146,0 0.264,0.043 0.351,0.13 0.086,0.087 0.13,0.203 0.13,0.351 v 0.659 c 0,0.147 -0.067,0.301 -0.2,0.46 l -3.9,4.381 h 0.32 c 1.36,0.039 2.437,0.393 3.229,1.06 0.794,0.667 1.19,1.64 1.19,2.92 0,0.88 -0.217,1.637 -0.65,2.271 -0.433,0.633 -1.036,1.119 -1.81,1.46 -0.773,0.34 -1.646,0.51 -2.62,0.51 C 515.9,67.782 515,67.612 514.24,67.272 Z"
   id="path190" />
					<path
   fill="#00b9d2"
   d="m 526.2,67.272 c -0.76,-0.341 -1.337,-0.783 -1.729,-1.33 -0.394,-0.547 -0.604,-1.113 -0.63,-1.7 0,-0.12 0.04,-0.217 0.12,-0.29 0.079,-0.073 0.18,-0.11 0.3,-0.11 h 0.899 c 0.146,0 0.267,0.03 0.36,0.09 0.093,0.061 0.167,0.178 0.22,0.351 0.174,0.68 0.55,1.16 1.13,1.439 0.58,0.28 1.264,0.42 2.051,0.42 0.96,0 1.723,-0.229 2.29,-0.689 0.566,-0.46 0.85,-1.116 0.85,-1.97 0,-1.627 -0.993,-2.44 -2.98,-2.44 h -1.88 c -0.133,0 -0.243,-0.043 -0.33,-0.13 -0.087,-0.087 -0.13,-0.196 -0.13,-0.33 v -0.52 c 0,-0.2 0.073,-0.374 0.221,-0.521 l 3.899,-4.32 h -5.92 c -0.134,0 -0.243,-0.04 -0.33,-0.12 -0.087,-0.079 -0.13,-0.187 -0.13,-0.319 v -0.72 c 0,-0.147 0.043,-0.264 0.13,-0.351 0.087,-0.087 0.196,-0.13 0.33,-0.13 h 7.92 c 0.146,0 0.264,0.043 0.351,0.13 0.086,0.087 0.13,0.203 0.13,0.351 v 0.659 c 0,0.147 -0.067,0.301 -0.2,0.46 l -3.9,4.381 h 0.32 c 1.36,0.039 2.437,0.393 3.229,1.06 0.794,0.667 1.19,1.64 1.19,2.92 0,0.88 -0.217,1.637 -0.65,2.271 -0.433,0.633 -1.036,1.119 -1.81,1.46 -0.773,0.34 -1.646,0.51 -2.62,0.51 -1.041,-0.002 -1.941,-0.172 -2.701,-0.512 z"
   id="path192" />
					<path
   fill="#00b9d2"
   d="m 536.15,57.062 c -0.06,-0.08 -0.077,-0.181 -0.05,-0.301 l 0.439,-2.8 c 0.054,-0.387 0.24,-0.58 0.561,-0.58 h 1.28 c 0.093,0 0.17,0.033 0.229,0.101 0.061,0.066 0.09,0.146 0.09,0.239 0,0.134 -0.02,0.24 -0.06,0.32 l -1.04,2.7 c -0.067,0.146 -0.141,0.257 -0.22,0.33 -0.08,0.073 -0.2,0.109 -0.36,0.109 h -0.62 c -0.106,0.002 -0.19,-0.038 -0.249,-0.118 z m 3.14,0 c -0.06,-0.08 -0.076,-0.181 -0.05,-0.301 l 0.44,-2.8 c 0.053,-0.387 0.24,-0.58 0.56,-0.58 h 1.28 c 0.093,0 0.17,0.033 0.229,0.101 0.061,0.066 0.091,0.146 0.091,0.239 0,0.134 -0.021,0.24 -0.061,0.32 l -1.04,2.7 c -0.066,0.146 -0.14,0.257 -0.22,0.33 -0.08,0.073 -0.2,0.109 -0.36,0.109 h -0.62 c -0.106,0.002 -0.189,-0.038 -0.249,-0.118 z"
   id="path194" />
					<path
   fill="#00b9d2"
   d="m 549.159,71.612 c -0.08,-0.087 -0.12,-0.197 -0.12,-0.33 v -21.16 c 0,-0.133 0.04,-0.243 0.12,-0.33 0.08,-0.087 0.187,-0.13 0.32,-0.13 h 0.739 c 0.134,0 0.243,0.043 0.33,0.13 0.087,0.087 0.13,0.197 0.13,0.33 v 21.16 c 0,0.133 -0.043,0.243 -0.13,0.33 -0.087,0.086 -0.196,0.13 -0.33,0.13 h -0.739 c -0.134,0 -0.24,-0.044 -0.32,-0.13 z"
   id="path196" />
					<path
   fill="#00b9d2"
   d="m 562.279,67.452 c -0.08,-0.087 -0.12,-0.196 -0.12,-0.33 v -11.28 l -3.36,2.58 c -0.093,0.08 -0.193,0.12 -0.3,0.12 -0.12,0 -0.233,-0.066 -0.34,-0.2 l -0.48,-0.62 c -0.066,-0.093 -0.1,-0.187 -0.1,-0.279 0,-0.146 0.066,-0.267 0.2,-0.36 l 4.34,-3.36 c 0.146,-0.093 0.32,-0.14 0.52,-0.14 h 0.94 c 0.133,0 0.243,0.043 0.33,0.13 0.087,0.087 0.13,0.197 0.13,0.33 v 13.08 c 0,0.134 -0.043,0.243 -0.13,0.33 -0.087,0.087 -0.197,0.13 -0.33,0.13 h -0.98 c -0.134,-0.001 -0.24,-0.044 -0.32,-0.131 z"
   id="path198" />
					<path
   fill="#00b9d2"
   d="m 568.949,67.132 c -0.78,-0.433 -1.374,-1.017 -1.78,-1.75 -0.406,-0.733 -0.609,-1.533 -0.609,-2.399 0,-1.146 0.46,-2.373 1.38,-3.681 l 3.819,-5.319 c 0.014,-0.014 0.051,-0.061 0.11,-0.141 0.059,-0.08 0.137,-0.143 0.229,-0.189 0.094,-0.047 0.2,-0.07 0.32,-0.07 h 0.98 c 0.12,0 0.216,0.043 0.29,0.13 0.073,0.087 0.109,0.19 0.109,0.311 0,0.066 -0.033,0.153 -0.1,0.26 l -2.92,4.08 c 0.347,-0.08 0.733,-0.12 1.16,-0.12 0.973,0 1.83,0.217 2.569,0.649 0.74,0.434 1.313,1.007 1.721,1.721 0.406,0.713 0.609,1.497 0.609,2.35 0,0.854 -0.203,1.65 -0.609,2.39 -0.407,0.74 -0.997,1.33 -1.771,1.771 -0.774,0.441 -1.687,0.66 -2.74,0.66 -1.064,-0.003 -1.987,-0.22 -2.767,-0.653 z m 4.37,-1.37 c 0.493,-0.239 0.887,-0.597 1.18,-1.069 0.293,-0.474 0.44,-1.044 0.44,-1.71 0,-0.653 -0.15,-1.217 -0.45,-1.69 -0.3,-0.473 -0.697,-0.833 -1.19,-1.08 -0.493,-0.246 -1.026,-0.37 -1.6,-0.37 -0.574,0 -1.107,0.124 -1.601,0.37 -0.493,0.247 -0.887,0.607 -1.18,1.08 -0.293,0.474 -0.439,1.037 -0.439,1.69 0,0.666 0.146,1.236 0.439,1.71 0.293,0.473 0.687,0.83 1.18,1.069 0.493,0.24 1.027,0.36 1.601,0.36 0.587,0 1.126,-0.12 1.62,-0.36 z"
   id="path200" />
					<path
   fill="#00b9d2"
   d="m 580.127,66.272 c -0.793,-1.007 -1.217,-2.323 -1.27,-3.95 l -0.021,-1.721 0.021,-1.779 c 0.04,-1.613 0.463,-2.924 1.27,-3.931 0.807,-1.006 2.063,-1.51 3.771,-1.51 1.72,0 2.982,0.504 3.79,1.51 0.807,1.007 1.229,2.317 1.27,3.931 0.014,0.373 0.021,0.967 0.021,1.779 0,0.787 -0.007,1.36 -0.021,1.721 -0.054,1.627 -0.477,2.943 -1.27,3.95 -0.794,1.007 -2.058,1.51 -3.79,1.51 -1.721,0 -2.978,-0.503 -3.771,-1.51 z m 6.09,-1.17 c 0.521,-0.68 0.794,-1.64 0.82,-2.88 0.013,-0.386 0.021,-0.939 0.021,-1.659 0,-0.733 -0.008,-1.28 -0.021,-1.641 -0.026,-1.227 -0.304,-2.183 -0.83,-2.87 -0.526,-0.687 -1.297,-1.029 -2.31,-1.029 -1.014,0 -1.78,0.343 -2.301,1.029 -0.52,0.688 -0.793,1.644 -0.819,2.87 l -0.021,1.641 0.021,1.659 c 0.026,1.24 0.3,2.2 0.819,2.88 0.521,0.681 1.287,1.021 2.301,1.021 1.027,-0.001 1.801,-0.341 2.32,-1.021 z"
   id="path202" />
					<path
   fill="#00b9d2"
   d="m 591.409,67.452 c -0.087,-0.087 -0.13,-0.196 -0.13,-0.33 v -1.38 c 0,-0.133 0.043,-0.247 0.13,-0.34 0.086,-0.094 0.196,-0.141 0.33,-0.141 h 1.38 c 0.133,0 0.243,0.047 0.33,0.141 0.086,0.093 0.13,0.207 0.13,0.34 v 1.38 c 0,0.134 -0.044,0.243 -0.13,0.33 -0.087,0.087 -0.197,0.13 -0.33,0.13 h -1.38 c -0.134,0 -0.244,-0.043 -0.33,-0.13 z"
   id="path204" />
					<path
   fill="#00b9d2"
   d="m 598.348,67.272 c -0.793,-0.341 -1.41,-0.83 -1.85,-1.471 -0.44,-0.64 -0.66,-1.387 -0.66,-2.239 0,-0.787 0.196,-1.477 0.59,-2.07 0.394,-0.593 0.923,-1.05 1.59,-1.37 -0.533,-0.307 -0.946,-0.71 -1.24,-1.21 -0.293,-0.5 -0.439,-1.09 -0.439,-1.771 0,-1.159 0.433,-2.076 1.3,-2.75 0.866,-0.673 2.007,-1.01 3.42,-1.01 1.413,0 2.55,0.334 3.41,1 0.86,0.667 1.29,1.587 1.29,2.76 0,0.667 -0.146,1.25 -0.44,1.75 -0.293,0.5 -0.699,0.91 -1.22,1.23 0.667,0.32 1.196,0.776 1.59,1.37 0.394,0.594 0.59,1.29 0.59,2.09 0,0.854 -0.22,1.597 -0.659,2.23 -0.44,0.633 -1.058,1.119 -1.851,1.46 -0.793,0.34 -1.696,0.51 -2.71,0.51 -1.014,0 -1.918,-0.169 -2.711,-0.509 z m 5.08,-1.77 c 0.633,-0.479 0.95,-1.12 0.95,-1.92 0,-0.8 -0.317,-1.44 -0.95,-1.92 -0.634,-0.48 -1.424,-0.72 -2.37,-0.72 -0.96,0 -1.757,0.239 -2.39,0.72 -0.634,0.479 -0.95,1.12 -0.95,1.92 0,0.8 0.316,1.44 0.95,1.92 0.633,0.48 1.43,0.72 2.39,0.72 0.946,0 1.736,-0.24 2.37,-0.72 z m -0.309,-6.72 c 0.56,-0.4 0.84,-0.934 0.84,-1.601 0,-0.68 -0.277,-1.223 -0.83,-1.63 -0.554,-0.406 -1.243,-0.609 -2.07,-0.609 -0.84,0 -1.533,0.203 -2.08,0.609 -0.547,0.407 -0.819,0.95 -0.819,1.63 0,0.681 0.272,1.224 0.819,1.631 0.547,0.406 1.24,0.609 2.08,0.609 0.813,-0.025 1.499,-0.239 2.06,-0.639 z"
   id="path206" />
					<path
   fill="#00b9d2"
   d="m 613.948,67.452 c -0.087,-0.087 -0.13,-0.196 -0.13,-0.33 v -9.48 c 0,-0.133 0.043,-0.243 0.13,-0.329 0.087,-0.087 0.196,-0.131 0.33,-0.131 h 0.84 c 0.134,0 0.24,0.044 0.32,0.131 0.08,0.086 0.12,0.196 0.12,0.329 v 0.681 c 0.72,-0.894 1.693,-1.34 2.92,-1.34 1.467,0 2.507,0.613 3.12,1.84 0.319,-0.561 0.776,-1.007 1.37,-1.34 0.593,-0.334 1.256,-0.5 1.989,-0.5 1.094,0 1.987,0.373 2.681,1.119 0.692,0.747 1.04,1.827 1.04,3.24 v 5.78 c 0,0.134 -0.044,0.243 -0.13,0.33 -0.087,0.087 -0.197,0.13 -0.33,0.13 h -0.86 c -0.134,0 -0.243,-0.043 -0.33,-0.13 -0.087,-0.087 -0.13,-0.196 -0.13,-0.33 v -5.6 c 0,-1.067 -0.22,-1.83 -0.66,-2.29 -0.439,-0.46 -1.02,-0.69 -1.74,-0.69 -0.64,0 -1.189,0.237 -1.649,0.71 -0.46,0.474 -0.69,1.23 -0.69,2.271 v 5.6 c 0,0.134 -0.043,0.243 -0.13,0.33 -0.087,0.087 -0.197,0.13 -0.33,0.13 h -0.88 c -0.134,0 -0.243,-0.043 -0.33,-0.13 -0.087,-0.087 -0.13,-0.196 -0.13,-0.33 v -5.6 c 0,-1.054 -0.23,-1.813 -0.69,-2.28 -0.46,-0.467 -1.029,-0.7 -1.71,-0.7 -0.64,0 -1.189,0.233 -1.649,0.7 -0.46,0.467 -0.69,1.22 -0.69,2.26 v 5.62 c 0,0.134 -0.043,0.243 -0.13,0.33 -0.087,0.087 -0.197,0.13 -0.33,0.13 h -0.88 c -0.136,-0.001 -0.245,-0.044 -0.332,-0.131 z"
   id="path208" />
					<path
   fill="#00b9d2"
   d="m 631.708,67.452 c -0.087,-0.087 -0.13,-0.196 -0.13,-0.33 v -9.48 c 0,-0.133 0.043,-0.243 0.13,-0.329 0.087,-0.087 0.196,-0.131 0.33,-0.131 h 0.84 c 0.134,0 0.24,0.044 0.32,0.131 0.08,0.086 0.12,0.196 0.12,0.329 v 0.681 c 0.72,-0.894 1.693,-1.34 2.92,-1.34 1.467,0 2.507,0.613 3.12,1.84 0.319,-0.561 0.776,-1.007 1.37,-1.34 0.593,-0.334 1.256,-0.5 1.989,-0.5 1.094,0 1.987,0.373 2.681,1.119 0.692,0.747 1.04,1.827 1.04,3.24 v 5.78 c 0,0.134 -0.044,0.243 -0.13,0.33 -0.087,0.087 -0.197,0.13 -0.33,0.13 h -0.86 c -0.134,0 -0.243,-0.043 -0.33,-0.13 -0.087,-0.087 -0.13,-0.196 -0.13,-0.33 v -5.6 c 0,-1.067 -0.22,-1.83 -0.66,-2.29 -0.439,-0.46 -1.02,-0.69 -1.74,-0.69 -0.64,0 -1.189,0.237 -1.649,0.71 -0.46,0.474 -0.69,1.23 -0.69,2.271 v 5.6 c 0,0.134 -0.043,0.243 -0.13,0.33 -0.087,0.087 -0.197,0.13 -0.33,0.13 h -0.88 c -0.134,0 -0.243,-0.043 -0.33,-0.13 -0.087,-0.087 -0.13,-0.196 -0.13,-0.33 v -5.6 c 0,-1.054 -0.23,-1.813 -0.69,-2.28 -0.46,-0.467 -1.029,-0.7 -1.71,-0.7 -0.64,0 -1.189,0.233 -1.649,0.7 -0.46,0.467 -0.69,1.22 -0.69,2.26 v 5.62 c 0,0.134 -0.043,0.243 -0.13,0.33 -0.087,0.087 -0.197,0.13 -0.33,0.13 h -0.88 c -0.136,-0.001 -0.246,-0.044 -0.332,-0.131 z"
   id="path210" />
				</g>
			</g>
		</g>
		<g
   id="g249">
			<g
   id="POLYLINE_288_">
				
					<polyline
   fill="none"
   stroke="#00b9d2"
   stroke-width="2"
   stroke-linecap="round"
   stroke-linejoin="round"
   stroke-miterlimit="10"
   points="      725.686,625.156 731.413,619.429 725.686,613.702     "
   id="polyline217" />
			</g>
			<g
   id="POLYLINE_287_">
				
					<line
   fill="none"
   stroke="#00b9d2"
   stroke-width="2"
   stroke-linecap="round"
   stroke-linejoin="round"
   stroke-miterlimit="10"
   x1="730.49701"
   y1="619.42902"
   x2="703.80701"
   y2="619.42902"
   id="line220" />
			</g>
			<g
   id="POLYLINE_286_">
				
					<polyline
   fill="none"
   stroke="#00b9d2"
   stroke-width="2"
   stroke-linecap="round"
   stroke-linejoin="round"
   stroke-miterlimit="10"
   points="      709.546,625.145 703.818,619.418 709.546,613.691     "
   id="polyline223" />
			</g>
			<g
   id="MTEXT_40_"
   opacity="0.98">
				<g
   id="g246">
					<path
   fill="#00b9d2"
   d="m 745.328,627.451 c -0.087,-0.087 -0.13,-0.196 -0.13,-0.33 v -1.38 c 0,-0.133 0.043,-0.247 0.13,-0.34 0.086,-0.094 0.196,-0.141 0.33,-0.141 h 1.38 c 0.133,0 0.243,0.047 0.33,0.141 0.086,0.093 0.13,0.207 0.13,0.34 v 1.38 c 0,0.134 -0.044,0.243 -0.13,0.33 -0.087,0.087 -0.197,0.13 -0.33,0.13 h -1.38 c -0.134,0 -0.244,-0.043 -0.33,-0.13 z"
   id="path226" />
					<path
   fill="#00b9d2"
   d="m 752.057,627.271 c -0.76,-0.341 -1.337,-0.783 -1.729,-1.33 -0.394,-0.547 -0.604,-1.113 -0.63,-1.7 0,-0.12 0.04,-0.217 0.12,-0.29 0.079,-0.073 0.18,-0.11 0.3,-0.11 h 0.899 c 0.146,0 0.267,0.03 0.36,0.09 0.093,0.061 0.167,0.178 0.22,0.351 0.174,0.68 0.55,1.16 1.13,1.439 0.58,0.28 1.264,0.42 2.051,0.42 0.96,0 1.723,-0.229 2.29,-0.689 0.566,-0.46 0.85,-1.116 0.85,-1.97 0,-1.627 -0.993,-2.44 -2.98,-2.44 h -1.88 c -0.133,0 -0.243,-0.043 -0.33,-0.13 -0.087,-0.087 -0.13,-0.196 -0.13,-0.33 v -0.52 c 0,-0.2 0.073,-0.374 0.221,-0.521 l 3.899,-4.32 h -5.92 c -0.134,0 -0.243,-0.04 -0.33,-0.12 -0.087,-0.079 -0.13,-0.187 -0.13,-0.319 v -0.72 c 0,-0.147 0.043,-0.264 0.13,-0.351 0.087,-0.087 0.196,-0.13 0.33,-0.13 h 7.92 c 0.146,0 0.264,0.043 0.351,0.13 0.086,0.087 0.13,0.203 0.13,0.351 v 0.659 c 0,0.147 -0.067,0.301 -0.2,0.46 l -3.9,4.381 h 0.32 c 1.36,0.039 2.437,0.393 3.229,1.06 0.794,0.667 1.19,1.64 1.19,2.92 0,0.88 -0.217,1.637 -0.65,2.271 -0.433,0.633 -1.036,1.119 -1.81,1.46 -0.773,0.34 -1.646,0.51 -2.62,0.51 -1.041,-0.002 -1.94,-0.172 -2.701,-0.512 z"
   id="path228" />
					<path
   fill="#00b9d2"
   d="m 762.007,617.062 c -0.06,-0.08 -0.077,-0.181 -0.05,-0.301 l 0.439,-2.8 c 0.054,-0.387 0.24,-0.58 0.561,-0.58 h 1.28 c 0.093,0 0.17,0.033 0.229,0.101 0.061,0.066 0.09,0.146 0.09,0.239 0,0.134 -0.02,0.24 -0.06,0.32 l -1.04,2.7 c -0.067,0.146 -0.141,0.257 -0.22,0.33 -0.08,0.073 -0.2,0.109 -0.36,0.109 h -0.62 c -0.105,0.001 -0.189,-0.039 -0.249,-0.118 z m 3.14,0 c -0.06,-0.08 -0.076,-0.181 -0.05,-0.301 l 0.44,-2.8 c 0.053,-0.387 0.24,-0.58 0.56,-0.58 h 1.28 c 0.093,0 0.17,0.033 0.229,0.101 0.061,0.066 0.091,0.146 0.091,0.239 0,0.134 -0.021,0.24 -0.061,0.32 l -1.04,2.7 c -0.066,0.146 -0.14,0.257 -0.22,0.33 -0.08,0.073 -0.2,0.109 -0.36,0.109 h -0.62 c -0.105,0.001 -0.188,-0.039 -0.249,-0.118 z"
   id="path230" />
					<path
   fill="#00b9d2"
   d="m 775.017,631.611 c -0.08,-0.087 -0.12,-0.197 -0.12,-0.33 v -21.16 c 0,-0.133 0.04,-0.243 0.12,-0.33 0.08,-0.087 0.187,-0.13 0.32,-0.13 h 0.739 c 0.134,0 0.243,0.043 0.33,0.13 0.087,0.087 0.13,0.197 0.13,0.33 v 21.16 c 0,0.133 -0.043,0.243 -0.13,0.33 -0.087,0.086 -0.196,0.13 -0.33,0.13 h -0.739 c -0.133,0 -0.24,-0.044 -0.32,-0.13 z"
   id="path232" />
					<path
   fill="#00b9d2"
   d="m 785.646,627.451 c -0.073,-0.087 -0.11,-0.19 -0.11,-0.311 l 0.04,-0.18 5,-11.7 h -6.6 c -0.134,0 -0.243,-0.043 -0.33,-0.13 -0.087,-0.086 -0.13,-0.196 -0.13,-0.33 v -0.739 c 0,-0.147 0.04,-0.264 0.12,-0.351 0.08,-0.087 0.193,-0.13 0.34,-0.13 h 8.16 c 0.146,0 0.26,0.043 0.34,0.13 0.08,0.087 0.12,0.203 0.12,0.351 v 0.68 c 0,0.24 -0.054,0.5 -0.16,0.78 l -4.94,11.56 c -0.066,0.146 -0.14,0.267 -0.22,0.36 -0.08,0.093 -0.193,0.14 -0.34,0.14 h -1 c -0.12,0 -0.217,-0.043 -0.29,-0.13 z"
   id="path234" />
					<path
   fill="#00b9d2"
   d="m 793.306,627.451 c -0.087,-0.087 -0.13,-0.196 -0.13,-0.33 v -1.38 c 0,-0.133 0.043,-0.247 0.13,-0.34 0.086,-0.094 0.196,-0.141 0.33,-0.141 h 1.38 c 0.133,0 0.243,0.047 0.33,0.141 0.086,0.093 0.13,0.207 0.13,0.34 v 1.38 c 0,0.134 -0.044,0.243 -0.13,0.33 -0.087,0.087 -0.197,0.13 -0.33,0.13 h -1.38 c -0.134,0 -0.244,-0.043 -0.33,-0.13 z"
   id="path236" />
					<path
   fill="#00b9d2"
   d="m 799.947,627.131 c -0.78,-0.433 -1.374,-1.017 -1.78,-1.75 -0.406,-0.733 -0.609,-1.533 -0.609,-2.399 0,-1.146 0.46,-2.373 1.38,-3.681 l 3.819,-5.319 c 0.014,-0.014 0.051,-0.061 0.11,-0.141 0.059,-0.08 0.137,-0.143 0.229,-0.189 0.094,-0.047 0.2,-0.07 0.32,-0.07 h 0.98 c 0.12,0 0.216,0.043 0.29,0.13 0.073,0.087 0.109,0.19 0.109,0.311 0,0.066 -0.033,0.153 -0.1,0.26 l -2.92,4.08 c 0.347,-0.08 0.733,-0.12 1.16,-0.12 0.973,0 1.83,0.217 2.569,0.649 0.74,0.434 1.313,1.007 1.721,1.721 0.406,0.713 0.609,1.497 0.609,2.35 0,0.854 -0.203,1.65 -0.609,2.39 -0.407,0.74 -0.997,1.33 -1.771,1.771 -0.774,0.441 -1.687,0.66 -2.74,0.66 -1.064,-0.003 -1.987,-0.22 -2.767,-0.653 z m 4.37,-1.37 c 0.493,-0.239 0.887,-0.597 1.18,-1.069 0.293,-0.474 0.44,-1.044 0.44,-1.71 0,-0.653 -0.15,-1.217 -0.45,-1.69 -0.3,-0.473 -0.697,-0.833 -1.19,-1.08 -0.493,-0.246 -1.026,-0.37 -1.6,-0.37 -0.574,0 -1.107,0.124 -1.601,0.37 -0.493,0.247 -0.887,0.607 -1.18,1.08 -0.293,0.474 -0.439,1.037 -0.439,1.69 0,0.666 0.146,1.236 0.439,1.71 0.293,0.473 0.687,0.83 1.18,1.069 0.493,0.24 1.027,0.36 1.601,0.36 0.587,0 1.126,-0.12 1.62,-0.36 z"
   id="path238" />
					<path
   fill="#00b9d2"
   d="m 811.795,627.241 c -0.733,-0.36 -1.293,-0.83 -1.68,-1.41 -0.387,-0.58 -0.594,-1.203 -0.62,-1.87 v -0.04 c 0,-0.106 0.04,-0.193 0.12,-0.26 0.08,-0.067 0.173,-0.1 0.28,-0.1 h 0.979 c 0.28,0 0.46,0.146 0.54,0.439 0.2,0.72 0.57,1.257 1.11,1.61 0.54,0.353 1.163,0.529 1.87,0.529 0.906,0 1.66,-0.276 2.26,-0.829 0.6,-0.554 0.9,-1.317 0.9,-2.29 0,-0.894 -0.301,-1.604 -0.9,-2.131 -0.6,-0.526 -1.354,-0.79 -2.26,-0.79 -0.48,0 -0.867,0.061 -1.16,0.181 -0.294,0.12 -0.594,0.293 -0.9,0.52 -0.173,0.134 -0.316,0.23 -0.43,0.29 -0.113,0.061 -0.237,0.09 -0.37,0.09 h -0.96 c -0.12,0 -0.227,-0.043 -0.32,-0.13 -0.093,-0.086 -0.133,-0.189 -0.12,-0.31 l 0.62,-6.66 c 0.04,-0.333 0.207,-0.5 0.5,-0.5 h 6.92 c 0.146,0 0.261,0.04 0.341,0.12 0.079,0.08 0.119,0.193 0.119,0.34 v 0.74 c 0,0.133 -0.043,0.24 -0.13,0.319 -0.087,0.08 -0.196,0.12 -0.33,0.12 h -5.76 l -0.359,4.021 c 0.64,-0.453 1.5,-0.68 2.579,-0.68 0.894,0 1.707,0.177 2.44,0.529 0.733,0.354 1.316,0.87 1.75,1.55 0.434,0.681 0.65,1.487 0.65,2.421 0,0.986 -0.217,1.836 -0.65,2.55 -0.434,0.713 -1.033,1.253 -1.8,1.62 -0.767,0.366 -1.644,0.55 -2.63,0.55 -0.998,10e-4 -1.865,-0.179 -2.599,-0.539 z"
   id="path240" />
					<path
   fill="#00b9d2"
   d="m 826.965,627.451 c -0.087,-0.087 -0.13,-0.196 -0.13,-0.33 v -9.48 c 0,-0.133 0.043,-0.243 0.13,-0.329 0.087,-0.087 0.196,-0.131 0.33,-0.131 h 0.84 c 0.134,0 0.24,0.044 0.32,0.131 0.08,0.086 0.12,0.196 0.12,0.329 v 0.681 c 0.72,-0.894 1.693,-1.34 2.92,-1.34 1.467,0 2.507,0.613 3.12,1.84 0.319,-0.561 0.776,-1.007 1.37,-1.34 0.593,-0.334 1.256,-0.5 1.989,-0.5 1.094,0 1.987,0.373 2.681,1.119 0.692,0.747 1.04,1.827 1.04,3.24 v 5.78 c 0,0.134 -0.044,0.243 -0.13,0.33 -0.087,0.087 -0.197,0.13 -0.33,0.13 h -0.86 c -0.134,0 -0.243,-0.043 -0.33,-0.13 -0.087,-0.087 -0.13,-0.196 -0.13,-0.33 v -5.6 c 0,-1.067 -0.22,-1.83 -0.66,-2.29 -0.439,-0.46 -1.02,-0.69 -1.74,-0.69 -0.64,0 -1.189,0.237 -1.649,0.71 -0.46,0.474 -0.69,1.23 -0.69,2.271 v 5.6 c 0,0.134 -0.043,0.243 -0.13,0.33 -0.087,0.087 -0.197,0.13 -0.33,0.13 h -0.88 c -0.134,0 -0.243,-0.043 -0.33,-0.13 -0.087,-0.087 -0.13,-0.196 -0.13,-0.33 v -5.6 c 0,-1.054 -0.23,-1.813 -0.69,-2.28 -0.46,-0.467 -1.029,-0.7 -1.71,-0.7 -0.64,0 -1.189,0.233 -1.649,0.7 -0.46,0.467 -0.69,1.22 -0.69,2.26 v 5.62 c 0,0.134 -0.043,0.243 -0.13,0.33 -0.087,0.087 -0.197,0.13 -0.33,0.13 h -0.88 c -0.135,-10e-4 -0.245,-0.044 -0.332,-0.131 z"
   id="path242" />
					<path
   fill="#00b9d2"
   d="m 844.725,627.451 c -0.087,-0.087 -0.13,-0.196 -0.13,-0.33 v -9.48 c 0,-0.133 0.043,-0.243 0.13,-0.329 0.087,-0.087 0.196,-0.131 0.33,-0.131 h 0.84 c 0.134,0 0.24,0.044 0.32,0.131 0.08,0.086 0.12,0.196 0.12,0.329 v 0.681 c 0.72,-0.894 1.693,-1.34 2.92,-1.34 1.467,0 2.507,0.613 3.12,1.84 0.319,-0.561 0.776,-1.007 1.37,-1.34 0.593,-0.334 1.256,-0.5 1.989,-0.5 1.094,0 1.987,0.373 2.681,1.119 0.692,0.747 1.04,1.827 1.04,3.24 v 5.78 c 0,0.134 -0.044,0.243 -0.13,0.33 -0.087,0.087 -0.197,0.13 -0.33,0.13 h -0.86 c -0.134,0 -0.243,-0.043 -0.33,-0.13 -0.087,-0.087 -0.13,-0.196 -0.13,-0.33 v -5.6 c 0,-1.067 -0.22,-1.83 -0.66,-2.29 -0.439,-0.46 -1.02,-0.69 -1.74,-0.69 -0.64,0 -1.189,0.237 -1.649,0.71 -0.46,0.474 -0.69,1.23 -0.69,2.271 v 5.6 c 0,0.134 -0.043,0.243 -0.13,0.33 -0.087,0.087 -0.197,0.13 -0.33,0.13 h -0.88 c -0.134,0 -0.243,-0.043 -0.33,-0.13 -0.087,-0.087 -0.13,-0.196 -0.13,-0.33 v -5.6 c 0,-1.054 -0.23,-1.813 -0.69,-2.28 -0.46,-0.467 -1.029,-0.7 -1.71,-0.7 -0.64,0 -1.189,0.233 -1.649,0.7 -0.46,0.467 -0.69,1.22 -0.69,2.26 v 5.62 c 0,0.134 -0.043,0.243 -0.13,0.33 -0.087,0.087 -0.197,0.13 -0.33,0.13 h -0.88 c -0.136,-10e-4 -0.245,-0.044 -0.332,-0.131 z"
   id="path244" />
				</g>
			</g>
		</g>
	</g>
</g>



<path
   fill="none"
   stroke="#00b9d2"
   stroke-width="2"
   stroke-linecap="round"
   stroke-linejoin="round"
   stroke-miterlimit="10"
   d="m 213.913,511.04339 c 11.441,0.029 22.379,-5.706 28.856,-15.145 2.057,-2.982 3.661,-6.308 4.708,-9.776 0.576,-1.918 1.004,-3.928 1.243,-5.916 0.108,-0.979 0.207,-2.035 0.235,-3.016 0.491,-0.419 -0.31,-436.544997 0.022,-437.254997 -0.007,-19.088 -15.311,-34.718 -34.458,-35.057 -0.44,-0.369 -172.526,0.255 -173.048,-0.006 0.001,0.001 -0.604,0.006 -0.604,0.006 0,0 -0.605,0.016 -0.605,0.016 -1.173,0.054 -2.452,0.142 -3.616,0.313 -1.978,0.28 -3.991,0.731 -5.893,1.345 -5.182,1.661 -9.98,4.559 -13.858,8.378 -6.211,6.07 -10.015,14.516 -10.437,23.191 0,0 -0.026,0.605 -0.026,0.605 -0.003,0.327 -0.026,0.891 -0.021,1.21 0,0 0,436.045997 0,436.045997 0,0 0.005,0.605 0.005,0.605 0,0 0.016,0.605 0.016,0.605 0,0 0.026,0.605 0.026,0.605 0.059,0.953 0.147,2.062 0.287,3.012 0.333,2.38 0.92,4.778 1.735,7.039 1.431,3.978 3.601,7.717 6.352,10.929 2.88,3.367 6.423,6.195 10.348,8.252 3.565,1.87 7.479,3.13 11.468,3.682 1.172,0.149 2.435,0.281 3.616,0.313 0.311,-0.013 0.901,0.037 1.21,0.021 -0.003,-0.002 172.439,-0.002 172.439,-0.002 z"
   id="path434"
   style="stroke:#000000;stroke-opacity:1" /><path
   fill="none"
   stroke="#00b9d2"
   stroke-width="2"
   stroke-linecap="round"
   stroke-linejoin="round"
   stroke-miterlimit="10"
   d="m 164.017,18.331393 c 0.01,-2.717 -1.873,-5.136 -4.509,-5.794 -3.754,-0.947 -7.406,1.87 -7.443,5.742 -0.029,3.915 3.647,6.802 7.443,5.846 2.636,-0.658 4.518,-3.077 4.509,-5.794 z"
   id="path437"
   style="stroke:#000000;stroke-opacity:1" /><path
   fill="none"
   stroke="#00b9d2"
   stroke-width="2"
   stroke-linecap="round"
   stroke-linejoin="round"
   stroke-miterlimit="10"
   d="m 143.795,19.526393 c 0.002,-1.054 -0.359,-2.106 -1.008,-2.937 -0.646,-0.834 -1.577,-1.442 -2.599,-1.698 -3.001,-0.758 -5.926,1.498 -5.955,4.593 -0.025,3.13 2.92,5.443 5.955,4.676 1.023,-0.257 1.953,-0.865 2.599,-1.698 0.649,-0.83 1.01,-1.881 1.008,-2.936 z"
   id="path440"
   style="stroke:#000000;stroke-opacity:1" /><path
   fill="none"
   stroke="#00b9d2"
   stroke-width="2"
   stroke-linecap="round"
   stroke-linejoin="round"
   stroke-miterlimit="10"
   d="m 125.511,19.526393 c 0.002,-1.054 -0.359,-2.106 -1.008,-2.937 -0.646,-0.834 -1.577,-1.442 -2.599,-1.698 -3.001,-0.758 -5.926,1.498 -5.955,4.593 -0.025,3.13 2.92,5.443 5.955,4.676 1.023,-0.257 1.953,-0.865 2.599,-1.698 0.65,-0.83 1.011,-1.881 1.008,-2.936 z"
   id="path443"
   style="stroke:#000000;stroke-opacity:1" /><path
   fill="none"
   stroke="#00b9d2"
   stroke-width="2"
   stroke-linecap="round"
   stroke-linejoin="round"
   stroke-miterlimit="10"
   d="m 111.212,4.873393 c -0.388,-0.001 -0.773,0.146 -1.062,0.405 -0.283,0.251 -0.471,0.607 -0.519,0.982 -0.05,0.375 0.04,0.767 0.248,1.082 0.202,0.309 0.515,0.543 0.868,0.65 0.132,0.04 0.27,0.063 0.408,0.068 0.228,-0.005 32.941,0.013 33.154,-0.005 0.128,-0.011 0.257,-0.038 0.378,-0.08 0.314,-0.107 0.593,-0.316 0.785,-0.587 0.359,-0.497 0.39,-1.2 0.075,-1.726 -0.163,-0.279 -0.412,-0.506 -0.706,-0.641 -0.142,-0.066 -0.295,-0.111 -0.449,-0.132 -0.072,-0.01 -0.148,-0.015 -0.221,-0.015 0.001,-0.001 -32.959,-0.001 -32.959,-0.001 z"
   id="path446"
   style="stroke:#000000;stroke-opacity:1" />
<path
   fill="none"
   stroke="#00b9d2"
   stroke-width="2.5"
   stroke-linecap="round"
   stroke-linejoin="round"
   stroke-miterlimit="10"
   d="m 81.696,12.685393 c 0.615,-10e-4 1.23,0.182 1.744,0.52 0.514,0.335 0.927,0.822 1.174,1.385 0.163,0.371 0.255,0.772 0.268,1.177 0.013,1.129 -0.046,2.516 0.1,3.596 0.199,1.593 0.704,3.151 1.478,4.558 1.129,2.062 2.844,3.798 4.891,4.954 1.401,0.794 2.957,1.319 4.552,1.537 0.476,0.067 0.967,0.103 1.447,0.115 0.199,-0.127 60.161,0.098 60.401,0.003 2.516,0.005 5.027,-0.762 7.113,-2.168 2.606,-1.74 4.521,-4.476 5.264,-7.519 0.452,-1.764 0.369,-3.219 0.373,-4.968 0,-0.387 0.071,-0.775 0.21,-1.136 0.333,-0.887 1.086,-1.605 1.99,-1.894 0.261,-0.085 0.536,-0.137 0.811,-0.152 0.172,-0.035 40.218,0.015 40.403,-0.005 0,0 0.47,0.004 0.47,0.004 1.868,0.034 3.772,0.262 5.593,0.679 7.69,1.728 14.427,6.909 18.065,13.903 2.041,3.883 3.125,8.277 3.121,12.664 -0.947,2.085 0.726,435.647997 -0.038,437.455997 -0.066,1.224 -0.216,2.527 -0.451,3.733 -0.825,4.307 -2.717,8.421 -5.455,11.847 -4.892,6.174 -12.482,10.003 -20.365,10.244 0,0 -0.47,0.012 -0.47,0.012 0,0 -0.47,0.004 -0.47,0.004 -0.472,-0.004 -172.478,0.008 -172.911,-0.004 -0.913,-0.036 -1.909,-0.07 -2.816,-0.195 -3.106,-0.379 -6.166,-1.299 -8.961,-2.708 -3.076,-1.548 -5.869,-3.694 -8.152,-6.274 -2.284,-2.579 -4.082,-5.606 -5.245,-8.849 -0.685,-1.912 -1.166,-3.922 -1.409,-5.937 -0.104,-0.928 -0.183,-1.885 -0.195,-2.814 0.038,-1.413 -0.055,-436.076997 0.012,-437.454997 0.046,-1.234 0.174,-2.525 0.389,-3.741 1.676,-9.755 8.683,-17.951 18.068,-21.118 2.069,-0.703 4.251,-1.163 6.429,-1.351 0.597,-0.039 1.282,-0.096 1.879,-0.097 0,0 0.47,-0.004 0.47,-0.004 0,0 40.223,-0.002 40.223,-0.002 z"
   id="path609"
   style="stroke:#000000;stroke-opacity:1" /><rect
   x="252.16301"
   y="140.1904"
   fill="none"
   stroke="#00b9d2"
   stroke-width="2.5"
   stroke-linecap="round"
   stroke-linejoin="round"
   stroke-miterlimit="10"
   width="1.594"
   height="57.518002"
   id="rect612"
   style="stroke:#000000;stroke-opacity:1" /><rect
   x="1.627998"
   y="95.653397"
   fill="none"
   stroke="#00b9d2"
   stroke-width="2.5"
   stroke-linecap="round"
   stroke-linejoin="round"
   stroke-miterlimit="10"
   width="1.594"
   height="17.531"
   id="rect615"
   style="stroke:#000000;stroke-opacity:1" /><rect
   x="1.627998"
   y="174.6064"
   fill="none"
   stroke="#00b9d2"
   stroke-width="2.5"
   stroke-linecap="round"
   stroke-linejoin="round"
   stroke-miterlimit="10"
   width="1.594"
   height="33.467999"
   id="rect618"
   style="stroke:#000000;stroke-opacity:1" /><rect
   x="1.627998"
   y="129.95839"
   fill="none"
   stroke="#00b9d2"
   stroke-width="2.5"
   stroke-linecap="round"
   stroke-linejoin="round"
   stroke-miterlimit="10"
   width="1.594"
   height="33.467999"
   id="rect621"
   style="stroke:#000000;stroke-opacity:1" /><path
   fill="none"
   stroke="#00b9d2"
   stroke-width="2.5"
   stroke-linecap="round"
   stroke-linejoin="round"
   stroke-miterlimit="10"
   d="m 213.913,514.23039 c 14.627,0.025 28.135,-8.455 34.462,-21.654 2.483,-5.149 3.792,-10.879 3.788,-16.596 -0.006,-0.664 0.011,-436.095997 -0.006,-436.703997 0,-0.002 -0.017,-0.662 -0.017,-0.662 0,0 -0.028,-0.66 -0.028,-0.66 0,0 -0.04,-0.659 -0.04,-0.659 -0.109,-1.499 -0.308,-3.102 -0.596,-4.58 -0.622,-3.227 -1.673,-6.416 -3.1,-9.377 -6.221,-12.972 -19.399,-21.425 -33.802,-21.648 -1.721,-0.096 -172.02,0.05 -173.762,0 -1.281,0.036 -2.677,0.109 -3.951,0.273 -1.72,0.217 -3.508,0.547 -5.183,0.996 -4.886,1.293 -9.531,3.577 -13.535,6.663 -6.112,4.689 -10.747,11.279 -13.09,18.618 -1.004,3.133 -1.611,6.429 -1.78,9.714 -0.043,0.579 -0.042,1.398 -0.051,1.98 0,0 0,436.045997 0,436.045997 0,0 0.006,0.66 0.006,0.66 0,0 0.017,0.66 0.017,0.66 0,0 0.028,0.66 0.028,0.66 0.171,3.282 0.774,6.585 1.78,9.714 2.343,7.337 6.977,13.931 13.09,18.618 4.005,3.083 8.648,5.372 13.535,6.663 1.68,0.436 3.459,0.792 5.183,0.996 1.057,0.109 2.228,0.233 3.29,0.256 0,0 0.66,0.017 0.66,0.017 0,0 0.66,0.006 0.66,0.006 0,0 172.442,0 172.442,0 z"
   id="path624"
   style="stroke:#000000;stroke-opacity:1" /><path
   fill="none"
   stroke="#00b9d2"
   stroke-width="2.5"
   stroke-linecap="round"
   stroke-linejoin="round"
   stroke-miterlimit="10"
   d="m 97.107,21.657393 c 0.75,0.002 1.498,-0.255 2.088,-0.717 0.593,-0.459 1.025,-1.121 1.208,-1.849 0.545,-2.158 -1.1,-4.253 -3.326,-4.235 -2.201,0.02 -3.806,2.1 -3.267,4.235 0.183,0.727 0.615,1.389 1.208,1.849 0.591,0.462 1.339,0.719 2.089,0.717 z"
   id="path627"
   style="stroke:#000000;stroke-opacity:1" />




<path
   fill="none"
   stroke="#00b9d2"
   stroke-width="3.25"
   stroke-linecap="round"
   stroke-linejoin="round"
   stroke-miterlimit="10"
   d="m 3.221,95.653393 c 0,0 0,-55.718 0,-55.718 0,0 0.002,-0.424 0.002,-0.424 0.016,-0.383 0.011,-0.9 0.036,-1.282 0.067,-1.45 0.216,-2.936 0.447,-4.368 0.365,-2.262 0.939,-4.518 1.703,-6.678 1.725,-4.886 4.464,-9.423 7.986,-13.225 5.948,-6.46 14.183,-10.75 22.886,-11.92 1.71,-0.234 3.465,-0.354 5.19,-0.354 12.447,0.18 169.684,-0.378 176.753,0.243 3.972,0.45 7.886,1.533 11.524,3.189 5.962,2.704 11.209,6.979 15.063,12.271 2.549,3.492 4.506,7.434 5.744,11.576 0.604,2.023 1.05,4.126 1.311,6.22 0.138,1.135 0.239,2.33 0.275,3.474 0.018,5.96 0.032,92.931997 0.021,101.530997 h 1.594 v 57.518 h -1.594 c -0.002,0.426 0.004,278.305 -0.002,278.695 0.017,0.382 -0.034,0.902 -0.036,1.283 -0.073,1.6 -0.247,3.233 -0.521,4.811 -0.883,5.121 -2.83,10.066 -5.676,14.414 -4.107,6.303 -10.126,11.341 -17.055,14.272 -3.52,1.496 -7.281,2.464 -11.087,2.85 -1.132,0.114 -2.313,0.182 -3.45,0.194 -0.917,0.018 -172.351,-0.005 -173.289,0 -0.683,-0.009 -1.462,-0.037 -2.145,-0.084 -3.778,-0.254 -7.533,-1.077 -11.07,-2.427 -7.479,-2.838 -14.012,-8.101 -18.377,-14.805 -2.928,-4.473 -4.904,-9.578 -5.75,-14.857 -0.297,-1.857 -0.463,-3.769 -0.483,-5.65 0,0 -0.002,-0.424 -0.002,-0.424 v -11.975 c 0,0 0,-255.931 0,-255.931 H 1.625 v -33.468 h 1.594 v -11.18 H 1.625 v -33.468 h 1.594 v -16.772 H 1.625 V 95.653393 Z"
   id="path646"
   style="stroke:#000000;stroke-opacity:1" /></svg>
