<?xml version="1.0" encoding="UTF-8" standalone="no"?>
<svg
   xmlns:ns="&amp;#38;#38;ns_sfw;"
   xmlns:dc="http://purl.org/dc/elements/1.1/"
   xmlns:cc="http://creativecommons.org/ns#"
   xmlns:rdf="http://www.w3.org/1999/02/22-rdf-syntax-ns#"
   xmlns:svg="http://www.w3.org/2000/svg"
   xmlns="http://www.w3.org/2000/svg"
   xmlns:sodipodi="http://sodipodi.sourceforge.net/DTD/sodipodi-0.dtd"
   xmlns:inkscape="http://www.inkscape.org/namespaces/inkscape"
   version="1.1"
   x="0px"
   y="0px"
   width="273.375"
   height="544.31451"
   viewBox="0 0 273.375 544.31451"
   enable-background="new 0 0 1000 675"
   xml:space="preserve"
   id="svg524"
   sodipodi:docname="xs_ns.svg"
   inkscape:version="1.0.1 (3bc2e813f5, 2020-09-07)"><defs
   id="defs528">
	
	
	
	
	
	

	
	
	
	
	
	
	
	
	
	
	
	
	
	
	
	
	
	
	
	
	
	
	
	
	
	
	
	
	
	

	
	
	
	
	
	
	
	
	
	
	
	
	
	
	
	
	
	
	
	
	
	
	
	
	
	
	
	
	
	
	
	
	
	
	
	
	
	
	
	
	
	
	
	
	
	
	
	
	
	
	
	
	
	
	
	
	
	
</defs><sodipodi:namedview
   pagecolor="#ffffff"
   bordercolor="#666666"
   borderopacity="1"
   objecttolerance="10"
   gridtolerance="10"
   guidetolerance="10"
   inkscape:pageopacity="0"
   inkscape:pageshadow="2"
   inkscape:window-width="1733"
   inkscape:window-height="991"
   id="namedview526"
   showgrid="false"
   inkscape:zoom="1.728169"
   inkscape:cx="188.26295"
   inkscape:cy="364.01479"
   inkscape:window-x="0"
   inkscape:window-y="0"
   inkscape:window-maximized="0"
   inkscape:current-layer="svg524"
   inkscape:document-rotation="0" />
<metadata
   id="metadata2">
	<ns:sfw>
		<ns:slices />
		<ns:sliceSourceBounds
   bottomLeftOrigin="true"
   height="6346.65"
   width="6061.483"
   x="-1952.96"
   y="2781.216" />
	</ns:sfw>
<rdf:RDF><cc:Work
     rdf:about=""><dc:format>image/svg+xml</dc:format><dc:type
       rdf:resource="http://purl.org/dc/dcmitype/StillImage" /><dc:title></dc:title></cc:Work></rdf:RDF></metadata>
<g
   id="FILL-BACKGROUND"
   transform="translate(-58.145,-63.192277)"
   style="stroke:#000000;stroke-opacity:1">
</g>
<g
   id="N-DIMENSIONS"
   display="none"
   transform="translate(-58.145,-63.192277)">
	<g
   display="inline"
   id="g233">
		<g
   id="g42">
			<g
   id="MTEXT_00000065038803959295782650000000275226316027991742_">
				<g
   id="g27">
					<g
   id="g25">
						<path
   fill="#00b9d2"
   d="m 187.948,306.802 c -0.733,-0.36 -1.293,-0.83 -1.68,-1.41 -0.387,-0.58 -0.594,-1.203 -0.62,-1.87 v -0.04 c 0,-0.106 0.04,-0.193 0.12,-0.26 0.08,-0.067 0.173,-0.1 0.28,-0.1 h 0.979 c 0.28,0 0.46,0.146 0.54,0.439 0.2,0.72 0.57,1.257 1.11,1.61 0.54,0.353 1.163,0.529 1.87,0.529 0.906,0 1.66,-0.276 2.26,-0.829 0.6,-0.554 0.9,-1.317 0.9,-2.29 0,-0.894 -0.301,-1.604 -0.9,-2.131 -0.6,-0.526 -1.354,-0.79 -2.26,-0.79 -0.48,0 -0.867,0.061 -1.16,0.181 -0.294,0.12 -0.594,0.293 -0.9,0.52 -0.173,0.134 -0.316,0.23 -0.43,0.29 -0.113,0.061 -0.237,0.09 -0.37,0.09 h -0.96 c -0.12,0 -0.227,-0.043 -0.32,-0.13 -0.093,-0.086 -0.133,-0.189 -0.12,-0.31 l 0.62,-6.66 c 0.04,-0.333 0.207,-0.5 0.5,-0.5 h 6.92 c 0.146,0 0.261,0.04 0.341,0.12 0.079,0.08 0.119,0.193 0.119,0.34 v 0.74 c 0,0.133 -0.043,0.24 -0.13,0.319 -0.087,0.08 -0.196,0.12 -0.33,0.12 h -5.76 l -0.359,4.021 c 0.64,-0.453 1.5,-0.68 2.579,-0.68 0.894,0 1.707,0.177 2.44,0.529 0.733,0.354 1.316,0.87 1.75,1.55 0.434,0.681 0.65,1.487 0.65,2.421 0,0.986 -0.217,1.836 -0.65,2.55 -0.434,0.713 -1.033,1.253 -1.8,1.62 -0.767,0.366 -1.644,0.55 -2.63,0.55 -0.999,10e-4 -1.866,-0.18 -2.599,-0.539 z"
   id="path5" />
						<path
   fill="#00b9d2"
   d="m 197.878,307.012 c -0.087,-0.087 -0.13,-0.196 -0.13,-0.33 v -1.38 c 0,-0.133 0.043,-0.247 0.13,-0.34 0.086,-0.094 0.196,-0.141 0.33,-0.141 h 1.38 c 0.133,0 0.243,0.047 0.33,0.141 0.086,0.093 0.13,0.207 0.13,0.34 v 1.38 c 0,0.134 -0.044,0.243 -0.13,0.33 -0.087,0.087 -0.197,0.13 -0.33,0.13 h -1.38 c -0.133,0 -0.244,-0.043 -0.33,-0.13 z"
   id="path7" />
						<path
   fill="#00b9d2"
   d="m 204.818,306.832 c -0.793,-0.341 -1.41,-0.83 -1.85,-1.471 -0.44,-0.64 -0.66,-1.387 -0.66,-2.239 0,-0.787 0.196,-1.477 0.59,-2.07 0.394,-0.593 0.923,-1.05 1.59,-1.37 -0.533,-0.307 -0.946,-0.71 -1.24,-1.21 -0.293,-0.5 -0.439,-1.09 -0.439,-1.771 0,-1.159 0.433,-2.076 1.3,-2.75 0.866,-0.673 2.007,-1.01 3.42,-1.01 1.413,0 2.55,0.334 3.41,1 0.86,0.667 1.29,1.587 1.29,2.76 0,0.667 -0.146,1.25 -0.44,1.75 -0.293,0.5 -0.699,0.91 -1.22,1.23 0.667,0.32 1.196,0.776 1.59,1.37 0.394,0.594 0.59,1.29 0.59,2.09 0,0.854 -0.22,1.597 -0.659,2.23 -0.44,0.633 -1.058,1.119 -1.851,1.46 -0.793,0.34 -1.696,0.51 -2.71,0.51 -1.014,0 -1.918,-0.169 -2.711,-0.509 z m 5.08,-1.77 c 0.633,-0.479 0.95,-1.12 0.95,-1.92 0,-0.8 -0.317,-1.44 -0.95,-1.92 -0.634,-0.48 -1.424,-0.72 -2.37,-0.72 -0.96,0 -1.757,0.239 -2.39,0.72 -0.634,0.479 -0.95,1.12 -0.95,1.92 0,0.8 0.316,1.44 0.95,1.92 0.633,0.48 1.43,0.72 2.39,0.72 0.946,-10e-4 1.736,-0.24 2.37,-0.72 z m -0.31,-6.72 c 0.56,-0.4 0.84,-0.934 0.84,-1.601 0,-0.68 -0.277,-1.223 -0.83,-1.63 -0.554,-0.406 -1.243,-0.609 -2.07,-0.609 -0.84,0 -1.533,0.203 -2.08,0.609 -0.547,0.407 -0.819,0.95 -0.819,1.63 0,0.681 0.272,1.224 0.819,1.631 0.547,0.406 1.24,0.609 2.08,0.609 0.813,-0.026 1.5,-0.24 2.06,-0.639 z"
   id="path9" />
						<path
   fill="#00b9d2"
   d="m 217.087,306.802 c -0.733,-0.36 -1.293,-0.83 -1.68,-1.41 -0.387,-0.58 -0.594,-1.203 -0.62,-1.87 v -0.04 c 0,-0.106 0.04,-0.193 0.12,-0.26 0.08,-0.067 0.173,-0.1 0.28,-0.1 h 0.979 c 0.28,0 0.46,0.146 0.54,0.439 0.2,0.72 0.57,1.257 1.11,1.61 0.54,0.353 1.163,0.529 1.87,0.529 0.906,0 1.66,-0.276 2.26,-0.829 0.6,-0.554 0.9,-1.317 0.9,-2.29 0,-0.894 -0.301,-1.604 -0.9,-2.131 -0.6,-0.526 -1.354,-0.79 -2.26,-0.79 -0.48,0 -0.867,0.061 -1.16,0.181 -0.294,0.12 -0.594,0.293 -0.9,0.52 -0.173,0.134 -0.316,0.23 -0.43,0.29 -0.113,0.061 -0.237,0.09 -0.37,0.09 h -0.96 c -0.12,0 -0.227,-0.043 -0.32,-0.13 -0.093,-0.086 -0.133,-0.189 -0.12,-0.31 l 0.62,-6.66 c 0.04,-0.333 0.207,-0.5 0.5,-0.5 h 6.92 c 0.146,0 0.261,0.04 0.341,0.12 0.079,0.08 0.119,0.193 0.119,0.34 v 0.74 c 0,0.133 -0.043,0.24 -0.13,0.319 -0.087,0.08 -0.196,0.12 -0.33,0.12 h -5.76 l -0.359,4.021 c 0.64,-0.453 1.5,-0.68 2.579,-0.68 0.894,0 1.707,0.177 2.44,0.529 0.733,0.354 1.316,0.87 1.75,1.55 0.434,0.681 0.65,1.487 0.65,2.421 0,0.986 -0.217,1.836 -0.65,2.55 -0.434,0.713 -1.033,1.253 -1.8,1.62 -0.767,0.366 -1.644,0.55 -2.63,0.55 -0.998,10e-4 -1.865,-0.18 -2.599,-0.539 z"
   id="path11" />
						<path
   fill="#00b9d2"
   d="m 226.917,296.622 c -0.06,-0.08 -0.077,-0.181 -0.05,-0.301 l 0.439,-2.8 c 0.054,-0.387 0.24,-0.58 0.561,-0.58 h 1.28 c 0.093,0 0.17,0.033 0.229,0.101 0.061,0.066 0.09,0.146 0.09,0.239 0,0.134 -0.02,0.24 -0.06,0.32 l -1.04,2.7 c -0.067,0.146 -0.141,0.257 -0.22,0.33 -0.08,0.073 -0.2,0.109 -0.36,0.109 h -0.62 c -0.105,10e-4 -0.189,-0.039 -0.249,-0.118 z m 3.14,0 c -0.06,-0.08 -0.076,-0.181 -0.05,-0.301 l 0.44,-2.8 c 0.053,-0.387 0.24,-0.58 0.56,-0.58 h 1.28 c 0.093,0 0.17,0.033 0.229,0.101 0.061,0.066 0.091,0.146 0.091,0.239 0,0.134 -0.021,0.24 -0.061,0.32 l -1.04,2.7 c -0.066,0.146 -0.14,0.257 -0.22,0.33 -0.08,0.073 -0.2,0.109 -0.36,0.109 h -0.62 c -0.105,10e-4 -0.188,-0.039 -0.249,-0.118 z"
   id="path13" />
						<path
   fill="#00b9d2"
   d="m 165.629,327.012 c -0.08,-0.087 -0.12,-0.196 -0.12,-0.33 v -11.28 l -3.36,2.58 c -0.093,0.08 -0.193,0.12 -0.3,0.12 -0.12,0 -0.233,-0.066 -0.34,-0.2 l -0.48,-0.62 c -0.066,-0.093 -0.1,-0.187 -0.1,-0.279 0,-0.146 0.066,-0.267 0.2,-0.36 l 4.34,-3.36 c 0.146,-0.093 0.32,-0.14 0.52,-0.14 h 0.94 c 0.133,0 0.243,0.043 0.33,0.13 0.087,0.087 0.13,0.197 0.13,0.33 v 13.08 c 0,0.134 -0.043,0.243 -0.13,0.33 -0.087,0.087 -0.197,0.13 -0.33,0.13 h -0.98 c -0.133,-10e-4 -0.24,-0.044 -0.32,-0.131 z"
   id="path15" />
						<path
   fill="#00b9d2"
   d="m 176.639,327.012 c -0.087,-0.087 -0.13,-0.196 -0.13,-0.33 v -2.92 h -6.5 c -0.134,0 -0.243,-0.043 -0.33,-0.13 -0.087,-0.087 -0.13,-0.197 -0.13,-0.33 v -0.74 c 0,-0.187 0.073,-0.387 0.22,-0.6 l 6.021,-8.48 c 0.066,-0.106 0.166,-0.189 0.3,-0.25 0.133,-0.06 0.28,-0.09 0.439,-0.09 h 1.36 c 0.146,0 0.26,0.04 0.34,0.12 0.08,0.08 0.12,0.193 0.12,0.34 v 8.48 h 1.82 c 0.133,0 0.243,0.043 0.33,0.13 0.086,0.087 0.13,0.196 0.13,0.33 v 0.76 c 0,0.133 -0.044,0.243 -0.13,0.33 -0.087,0.087 -0.197,0.13 -0.33,0.13 h -1.82 v 2.92 c 0,0.134 -0.043,0.243 -0.13,0.33 -0.087,0.087 -0.197,0.13 -0.33,0.13 h -0.92 c -0.134,0 -0.243,-0.043 -0.33,-0.13 z m -5.01,-4.89 h 4.899 v -6.961 z"
   id="path17" />
						<path
   fill="#00b9d2"
   d="m 184.719,327.012 c -0.073,-0.087 -0.109,-0.19 -0.109,-0.311 0,-0.093 0.026,-0.18 0.079,-0.26 l 3.08,-4.28 c -0.319,0.08 -0.693,0.12 -1.12,0.12 -0.96,-0.013 -1.8,-0.236 -2.52,-0.67 -0.72,-0.433 -1.27,-1 -1.65,-1.7 -0.38,-0.699 -0.569,-1.449 -0.569,-2.25 0,-0.8 0.189,-1.56 0.569,-2.279 0.381,-0.721 0.947,-1.307 1.7,-1.76 0.753,-0.453 1.663,-0.681 2.73,-0.681 1.066,0 1.979,0.22 2.739,0.66 0.761,0.44 1.334,1.017 1.721,1.73 0.387,0.713 0.58,1.477 0.58,2.29 0,0.733 -0.13,1.38 -0.391,1.939 -0.26,0.561 -0.604,1.14 -1.029,1.74 l -3.881,5.439 c -0.093,0.12 -0.183,0.217 -0.27,0.29 -0.087,0.074 -0.21,0.11 -0.37,0.11 h -1 c -0.119,0.003 -0.216,-0.04 -0.289,-0.127 z m 3.771,-6.691 c 0.479,-0.253 0.859,-0.609 1.14,-1.069 0.281,-0.46 0.42,-0.99 0.42,-1.591 0,-0.612 -0.14,-1.152 -0.42,-1.619 -0.28,-0.467 -0.66,-0.827 -1.14,-1.08 -0.48,-0.254 -1.007,-0.38 -1.58,-0.38 -0.561,0 -1.077,0.126 -1.55,0.38 -0.474,0.253 -0.851,0.613 -1.131,1.08 -0.279,0.467 -0.42,1.007 -0.42,1.619 0,0.601 0.141,1.131 0.42,1.591 0.28,0.46 0.653,0.816 1.12,1.069 0.467,0.254 0.987,0.38 1.561,0.38 0.574,0 1.099,-0.126 1.58,-0.38 z"
   id="path19" />
						<path
   fill="#00b9d2"
   d="m 199.499,327.012 c -0.087,-0.087 -0.13,-0.196 -0.13,-0.33 v -9.48 c 0,-0.133 0.043,-0.243 0.13,-0.329 0.087,-0.087 0.196,-0.131 0.33,-0.131 h 0.84 c 0.134,0 0.24,0.044 0.32,0.131 0.08,0.086 0.12,0.196 0.12,0.329 v 0.681 c 0.72,-0.894 1.693,-1.34 2.92,-1.34 1.467,0 2.507,0.613 3.12,1.84 0.319,-0.561 0.776,-1.007 1.37,-1.34 0.593,-0.334 1.256,-0.5 1.989,-0.5 1.094,0 1.987,0.373 2.681,1.119 0.692,0.747 1.04,1.827 1.04,3.24 v 5.78 c 0,0.134 -0.044,0.243 -0.13,0.33 -0.087,0.087 -0.197,0.13 -0.33,0.13 h -0.86 c -0.134,0 -0.243,-0.043 -0.33,-0.13 -0.087,-0.087 -0.13,-0.196 -0.13,-0.33 v -5.6 c 0,-1.067 -0.22,-1.83 -0.66,-2.29 -0.439,-0.46 -1.02,-0.69 -1.74,-0.69 -0.64,0 -1.189,0.237 -1.649,0.71 -0.46,0.474 -0.69,1.23 -0.69,2.271 v 5.6 c 0,0.134 -0.043,0.243 -0.13,0.33 -0.087,0.087 -0.197,0.13 -0.33,0.13 h -0.88 c -0.134,0 -0.243,-0.043 -0.33,-0.13 -0.087,-0.087 -0.13,-0.196 -0.13,-0.33 v -5.6 c 0,-1.054 -0.23,-1.813 -0.69,-2.28 -0.46,-0.467 -1.029,-0.7 -1.71,-0.7 -0.64,0 -1.189,0.233 -1.649,0.7 -0.46,0.467 -0.69,1.22 -0.69,2.26 v 5.62 c 0,0.134 -0.043,0.243 -0.13,0.33 -0.087,0.087 -0.197,0.13 -0.33,0.13 h -0.88 c -0.136,-10e-4 -0.246,-0.044 -0.332,-0.131 z"
   id="path21" />
						<path
   fill="#00b9d2"
   d="m 217.258,327.012 c -0.087,-0.087 -0.13,-0.196 -0.13,-0.33 v -9.48 c 0,-0.133 0.043,-0.243 0.13,-0.329 0.087,-0.087 0.196,-0.131 0.33,-0.131 h 0.84 c 0.134,0 0.24,0.044 0.32,0.131 0.08,0.086 0.12,0.196 0.12,0.329 v 0.681 c 0.72,-0.894 1.693,-1.34 2.92,-1.34 1.467,0 2.507,0.613 3.12,1.84 0.319,-0.561 0.776,-1.007 1.37,-1.34 0.593,-0.334 1.256,-0.5 1.989,-0.5 1.094,0 1.987,0.373 2.681,1.119 0.692,0.747 1.04,1.827 1.04,3.24 v 5.78 c 0,0.134 -0.044,0.243 -0.13,0.33 -0.087,0.087 -0.197,0.13 -0.33,0.13 h -0.86 c -0.134,0 -0.243,-0.043 -0.33,-0.13 -0.087,-0.087 -0.13,-0.196 -0.13,-0.33 v -5.6 c 0,-1.067 -0.22,-1.83 -0.66,-2.29 -0.439,-0.46 -1.02,-0.69 -1.74,-0.69 -0.64,0 -1.189,0.237 -1.649,0.71 -0.46,0.474 -0.69,1.23 -0.69,2.271 v 5.6 c 0,0.134 -0.043,0.243 -0.13,0.33 -0.087,0.087 -0.197,0.13 -0.33,0.13 h -0.88 c -0.134,0 -0.243,-0.043 -0.33,-0.13 -0.087,-0.087 -0.13,-0.196 -0.13,-0.33 v -5.6 c 0,-1.054 -0.23,-1.813 -0.69,-2.28 -0.46,-0.467 -1.029,-0.7 -1.71,-0.7 -0.64,0 -1.189,0.233 -1.649,0.7 -0.46,0.467 -0.69,1.22 -0.69,2.26 v 5.62 c 0,0.134 -0.043,0.243 -0.13,0.33 -0.087,0.087 -0.197,0.13 -0.33,0.13 h -0.88 c -0.135,-10e-4 -0.245,-0.044 -0.332,-0.131 z"
   id="path23" />
					</g>
				</g>
			</g>
			<g
   id="POLYLINE_00000040537981927484140360000015762100766419188380_">
				
					<line
   fill="none"
   stroke="#00b9d2"
   stroke-width="2"
   stroke-linecap="round"
   stroke-linejoin="round"
   stroke-miterlimit="10"
   x1="92.745003"
   y1="579.05298"
   x2="200.89301"
   y2="340.57999"
   id="line30" />
			</g>
			<g
   id="POLYLINE_00000178926245841977362320000008458621603091276443_">
				
					<line
   fill="none"
   stroke="#00b9d2"
   stroke-width="2"
   stroke-linecap="round"
   stroke-linejoin="round"
   stroke-miterlimit="10"
   x1="225.218"
   y1="282.91299"
   x2="298.16501"
   y2="94.528"
   id="line33" />
			</g>
			<g
   id="POLYLINE_00000096052977885757406490000017430749688678196392_">
				
					<polyline
   fill="none"
   stroke="#00b9d2"
   stroke-width="2"
   stroke-linecap="round"
   stroke-linejoin="round"
   stroke-miterlimit="10"
   points="      89.923,571.461 92.745,579.053 100.337,576.231     "
   id="polyline36" />
			</g>
			<g
   id="POLYLINE_00000096024217183918825260000010775348252648828812_">
				
					<polyline
   fill="none"
   stroke="#00b9d2"
   stroke-width="2"
   stroke-linecap="round"
   stroke-linejoin="round"
   stroke-miterlimit="10"
   points="      300.987,102.12 298.165,94.528 290.573,97.35     "
   id="polyline39" />
			</g>
		</g>
		<g
   id="MTEXT_00000067940568670488603570000006910932184500466564_">
			<g
   id="g56">
				<path
   fill="#00b9d2"
   d="m 98.958,126.728 c -0.087,-0.087 -0.13,-0.196 -0.13,-0.33 v -2.92 h -6.5 c -0.134,0 -0.243,-0.043 -0.33,-0.13 -0.087,-0.087 -0.13,-0.197 -0.13,-0.33 v -0.74 c 0,-0.187 0.073,-0.387 0.22,-0.6 l 6.021,-8.48 c 0.066,-0.106 0.166,-0.189 0.3,-0.25 0.133,-0.06 0.28,-0.09 0.439,-0.09 h 1.36 c 0.146,0 0.26,0.04 0.34,0.12 0.08,0.08 0.12,0.193 0.12,0.34 v 8.48 h 1.82 c 0.133,0 0.243,0.043 0.33,0.13 0.086,0.087 0.13,0.196 0.13,0.33 v 0.76 c 0,0.133 -0.044,0.243 -0.13,0.33 -0.087,0.087 -0.197,0.13 -0.33,0.13 h -1.82 v 2.92 c 0,0.134 -0.043,0.243 -0.13,0.33 -0.087,0.087 -0.197,0.13 -0.33,0.13 h -0.92 c -0.134,-0.001 -0.244,-0.044 -0.33,-0.13 z m -5.01,-4.89 h 4.899 v -6.961 z"
   id="path44" />
				<path
   fill="#00b9d2"
   d="m 106.828,126.518 c -0.733,-0.36 -1.293,-0.83 -1.68,-1.41 -0.387,-0.58 -0.594,-1.203 -0.62,-1.87 v -0.04 c 0,-0.106 0.04,-0.193 0.12,-0.26 0.08,-0.067 0.173,-0.1 0.28,-0.1 h 0.979 c 0.28,0 0.46,0.146 0.54,0.439 0.2,0.72 0.57,1.257 1.11,1.61 0.54,0.353 1.163,0.529 1.87,0.529 0.906,0 1.66,-0.276 2.26,-0.829 0.6,-0.554 0.9,-1.317 0.9,-2.29 0,-0.894 -0.301,-1.604 -0.9,-2.131 -0.6,-0.526 -1.354,-0.79 -2.26,-0.79 -0.48,0 -0.867,0.061 -1.16,0.181 -0.294,0.12 -0.594,0.293 -0.9,0.52 -0.173,0.134 -0.316,0.23 -0.43,0.29 -0.113,0.061 -0.237,0.09 -0.37,0.09 h -0.96 c -0.12,0 -0.227,-0.043 -0.32,-0.13 -0.093,-0.086 -0.133,-0.189 -0.12,-0.31 l 0.62,-6.66 c 0.04,-0.333 0.207,-0.5 0.5,-0.5 h 6.92 c 0.146,0 0.261,0.04 0.341,0.12 0.079,0.08 0.119,0.193 0.119,0.34 v 0.74 c 0,0.133 -0.043,0.24 -0.13,0.319 -0.087,0.08 -0.196,0.12 -0.33,0.12 h -5.76 l -0.359,4.021 c 0.64,-0.453 1.5,-0.68 2.579,-0.68 0.894,0 1.707,0.177 2.44,0.529 0.733,0.354 1.316,0.87 1.75,1.55 0.434,0.681 0.65,1.487 0.65,2.421 0,0.986 -0.217,1.836 -0.65,2.55 -0.434,0.713 -1.033,1.253 -1.8,1.62 -0.767,0.366 -1.644,0.55 -2.63,0.55 -0.999,0.001 -1.866,-0.18 -2.599,-0.539 z"
   id="path46" />
				<path
   fill="#00b9d2"
   d="m 119.078,126.548 c -0.793,-0.341 -1.41,-0.83 -1.85,-1.471 -0.44,-0.64 -0.66,-1.387 -0.66,-2.239 0,-0.787 0.196,-1.477 0.59,-2.07 0.394,-0.593 0.923,-1.05 1.59,-1.37 -0.533,-0.307 -0.946,-0.71 -1.24,-1.21 -0.293,-0.5 -0.439,-1.09 -0.439,-1.771 0,-1.159 0.433,-2.076 1.3,-2.75 0.866,-0.673 2.007,-1.01 3.42,-1.01 1.413,0 2.55,0.334 3.41,1 0.86,0.667 1.29,1.587 1.29,2.76 0,0.667 -0.146,1.25 -0.44,1.75 -0.293,0.5 -0.699,0.91 -1.22,1.23 0.667,0.32 1.196,0.776 1.59,1.37 0.394,0.594 0.59,1.29 0.59,2.09 0,0.854 -0.22,1.597 -0.659,2.23 -0.44,0.633 -1.058,1.119 -1.851,1.46 -0.793,0.34 -1.696,0.51 -2.71,0.51 -1.014,0 -1.918,-0.169 -2.711,-0.509 z m 5.08,-1.771 c 0.633,-0.479 0.95,-1.12 0.95,-1.92 0,-0.8 -0.317,-1.44 -0.95,-1.92 -0.634,-0.48 -1.424,-0.72 -2.37,-0.72 -0.96,0 -1.757,0.239 -2.39,0.72 -0.634,0.479 -0.95,1.12 -0.95,1.92 0,0.8 0.316,1.44 0.95,1.92 0.633,0.48 1.43,0.72 2.39,0.72 0.946,0 1.736,-0.239 2.37,-0.72 z m -0.31,-6.719 c 0.56,-0.4 0.84,-0.934 0.84,-1.601 0,-0.68 -0.277,-1.223 -0.83,-1.63 -0.554,-0.406 -1.243,-0.609 -2.07,-0.609 -0.84,0 -1.533,0.203 -2.08,0.609 -0.547,0.407 -0.819,0.95 -0.819,1.63 0,0.681 0.272,1.224 0.819,1.631 0.547,0.406 1.24,0.609 2.08,0.609 0.813,-0.026 1.5,-0.24 2.06,-0.639 z"
   id="path48" />
				<path
   fill="#00b9d2"
   d="m 134.697,130.537 c -0.087,-0.08 -0.131,-0.193 -0.131,-0.34 v -13.28 c 0,-0.146 0.044,-0.26 0.131,-0.34 0.086,-0.08 0.196,-0.12 0.33,-0.12 h 0.84 c 0.146,0 0.26,0.04 0.34,0.12 0.08,0.08 0.12,0.193 0.12,0.34 v 0.881 c 0.772,-1.027 1.873,-1.54 3.3,-1.54 1.4,0 2.45,0.443 3.15,1.33 0.699,0.887 1.069,2.017 1.109,3.39 0.014,0.146 0.021,0.373 0.021,0.68 0,0.307 -0.007,0.533 -0.021,0.681 -0.04,1.359 -0.41,2.486 -1.109,3.38 -0.7,0.894 -1.75,1.34 -3.15,1.34 -1.427,0 -2.507,-0.507 -3.24,-1.521 v 4.66 c 0,0.133 -0.043,0.243 -0.13,0.33 -0.087,0.087 -0.197,0.13 -0.33,0.13 h -0.899 c -0.135,-10e-4 -0.245,-0.041 -0.331,-0.121 z m 6.649,-5.939 c 0.44,-0.601 0.681,-1.387 0.72,-2.36 0.014,-0.133 0.021,-0.326 0.021,-0.58 0,-2.56 -0.947,-3.84 -2.84,-3.84 -0.934,0 -1.637,0.31 -2.11,0.93 -0.473,0.62 -0.724,1.351 -0.75,2.19 -0.014,0.146 -0.02,0.407 -0.02,0.78 0,0.373 0.006,0.633 0.02,0.779 0.026,0.813 0.283,1.518 0.771,2.11 0.486,0.594 1.183,0.89 2.09,0.89 0.959,0 1.659,-0.3 2.098,-0.899 z"
   id="path50" />
				<path
   fill="#00b9d2"
   d="m 146.578,130.537 c -0.087,-0.08 -0.131,-0.193 -0.131,-0.34 v -13.28 c 0,-0.146 0.044,-0.26 0.131,-0.34 0.086,-0.08 0.196,-0.12 0.33,-0.12 h 0.84 c 0.146,0 0.26,0.04 0.34,0.12 0.08,0.08 0.12,0.193 0.12,0.34 v 0.881 c 0.772,-1.027 1.873,-1.54 3.3,-1.54 1.4,0 2.45,0.443 3.15,1.33 0.699,0.887 1.069,2.017 1.109,3.39 0.014,0.146 0.021,0.373 0.021,0.68 0,0.307 -0.007,0.533 -0.021,0.681 -0.04,1.359 -0.41,2.486 -1.109,3.38 -0.7,0.894 -1.75,1.34 -3.15,1.34 -1.427,0 -2.507,-0.507 -3.24,-1.521 v 4.66 c 0,0.133 -0.043,0.243 -0.13,0.33 -0.087,0.087 -0.197,0.13 -0.33,0.13 h -0.899 c -0.135,-10e-4 -0.245,-0.041 -0.331,-0.121 z m 6.649,-5.939 c 0.44,-0.601 0.681,-1.387 0.72,-2.36 0.014,-0.133 0.021,-0.326 0.021,-0.58 0,-2.56 -0.947,-3.84 -2.84,-3.84 -0.934,0 -1.637,0.31 -2.11,0.93 -0.473,0.62 -0.724,1.351 -0.75,2.19 -0.014,0.146 -0.02,0.407 -0.02,0.78 0,0.373 0.006,0.633 0.02,0.779 0.026,0.813 0.283,1.518 0.771,2.11 0.486,0.594 1.183,0.89 2.09,0.89 0.958,0 1.659,-0.3 2.098,-0.899 z"
   id="path52" />
				<path
   fill="#00b9d2"
   d="m 158.276,114.367 c -0.087,-0.086 -0.13,-0.196 -0.13,-0.33 v -1.04 c 0,-0.133 0.043,-0.246 0.13,-0.34 0.087,-0.093 0.197,-0.14 0.33,-0.14 h 1.181 c 0.133,0 0.246,0.047 0.34,0.14 0.093,0.094 0.14,0.207 0.14,0.34 v 1.04 c 0,0.134 -0.047,0.244 -0.14,0.33 -0.094,0.087 -0.207,0.13 -0.34,0.13 h -1.181 c -0.133,0 -0.243,-0.043 -0.33,-0.13 z m 0.16,12.361 c -0.087,-0.087 -0.13,-0.196 -0.13,-0.33 v -9.48 c 0,-0.133 0.043,-0.243 0.13,-0.329 0.087,-0.087 0.196,-0.131 0.33,-0.131 h 0.88 c 0.133,0 0.243,0.044 0.33,0.131 0.087,0.086 0.13,0.196 0.13,0.329 v 9.48 c 0,0.134 -0.043,0.243 -0.13,0.33 -0.087,0.087 -0.197,0.13 -0.33,0.13 h -0.88 c -0.134,-0.001 -0.243,-0.044 -0.33,-0.13 z"
   id="path54" />
			</g>
		</g>
		<g
   id="g98">
			<g
   id="POLYLINE_00000125604839777260636970000006217123343564732325_">
				
					<polyline
   fill="none"
   stroke="#00b9d2"
   stroke-width="2"
   stroke-linecap="round"
   stroke-linejoin="round"
   stroke-miterlimit="10"
   points="      400.411,628.359 394.684,634.086 400.411,639.813     "
   id="polyline59" />
			</g>
			<g
   id="POLYLINE_00000088821088103427030000000006336141721536567997_">
				
					<line
   fill="none"
   stroke="#00b9d2"
   stroke-width="2"
   stroke-linecap="round"
   stroke-linejoin="round"
   stroke-miterlimit="10"
   x1="394.68399"
   y1="634.086"
   x2="455.65601"
   y2="634.086"
   id="line62" />
			</g>
			<g
   id="POLYLINE_00000015328204566777128030000001842687868950670010_">
				
					<line
   fill="none"
   stroke="#00b9d2"
   stroke-width="2"
   stroke-linecap="round"
   stroke-linejoin="round"
   stroke-miterlimit="10"
   x1="606.19702"
   y1="634.086"
   x2="663.05798"
   y2="634.086"
   id="line65" />
			</g>
			<g
   id="POLYLINE_00000003809671672810921990000005424634485943350155_">
				
					<polyline
   fill="none"
   stroke="#00b9d2"
   stroke-width="2"
   stroke-linecap="round"
   stroke-linejoin="round"
   stroke-miterlimit="10"
   points="      657.319,628.37 663.047,634.097 657.319,639.823     "
   id="polyline68" />
			</g>
			<g
   id="MTEXT_00000157269913634378746550000002165993861234095027_">
				<g
   id="g95">
					<path
   fill="#00b9d2"
   d="m 462.76,641.234 c -0.087,-0.087 -0.13,-0.196 -0.13,-0.33 v -0.6 c 0,-0.307 0.166,-0.601 0.5,-0.881 l 4.359,-4.34 c 0.986,-0.84 1.667,-1.526 2.04,-2.06 0.373,-0.534 0.561,-1.101 0.561,-1.7 0,-0.786 -0.221,-1.403 -0.66,-1.85 -0.44,-0.447 -1.08,-0.67 -1.92,-0.67 -0.801,0 -1.434,0.233 -1.9,0.699 -0.467,0.467 -0.753,1.094 -0.86,1.88 -0.026,0.147 -0.093,0.261 -0.199,0.341 -0.107,0.08 -0.214,0.12 -0.32,0.12 h -0.96 c -0.12,0 -0.22,-0.04 -0.3,-0.12 -0.08,-0.08 -0.12,-0.174 -0.12,-0.28 0.026,-0.707 0.217,-1.39 0.569,-2.05 0.354,-0.66 0.877,-1.2 1.57,-1.62 0.693,-0.42 1.533,-0.63 2.521,-0.63 1.493,0 2.616,0.39 3.37,1.17 0.753,0.78 1.13,1.77 1.13,2.97 0,0.84 -0.204,1.597 -0.61,2.271 -0.407,0.673 -1.043,1.383 -1.91,2.13 l -3.939,4 h 6.3 c 0.146,0 0.26,0.04 0.34,0.12 0.08,0.079 0.12,0.193 0.12,0.34 v 0.76 c 0,0.134 -0.044,0.243 -0.13,0.33 -0.087,0.087 -0.197,0.13 -0.33,0.13 h -8.76 c -0.135,0 -0.246,-0.043 -0.332,-0.13 z"
   id="path71" />
					<path
   fill="#00b9d2"
   d="m 474.82,641.234 c -0.087,-0.087 -0.13,-0.196 -0.13,-0.33 v -1.38 c 0,-0.133 0.043,-0.247 0.13,-0.34 0.086,-0.094 0.196,-0.141 0.33,-0.141 h 1.38 c 0.133,0 0.243,0.047 0.33,0.141 0.086,0.093 0.13,0.207 0.13,0.34 v 1.38 c 0,0.134 -0.044,0.243 -0.13,0.33 -0.087,0.087 -0.197,0.13 -0.33,0.13 h -1.38 c -0.134,0 -0.244,-0.043 -0.33,-0.13 z"
   id="path73" />
					<path
   fill="#00b9d2"
   d="m 480.44,641.234 c -0.073,-0.087 -0.11,-0.19 -0.11,-0.311 l 0.04,-0.18 5,-11.7 h -6.6 c -0.134,0 -0.243,-0.043 -0.33,-0.13 -0.087,-0.086 -0.13,-0.196 -0.13,-0.33 v -0.739 c 0,-0.147 0.04,-0.264 0.12,-0.351 0.08,-0.087 0.193,-0.13 0.34,-0.13 h 8.16 c 0.146,0 0.26,0.043 0.34,0.13 0.08,0.087 0.12,0.203 0.12,0.351 v 0.68 c 0,0.24 -0.054,0.5 -0.16,0.78 l -4.94,11.56 c -0.066,0.146 -0.14,0.267 -0.22,0.36 -0.08,0.093 -0.193,0.14 -0.34,0.14 h -1 c -0.12,0 -0.217,-0.043 -0.29,-0.13 z"
   id="path75" />
					<path
   fill="#00b9d2"
   d="m 491.52,641.234 c -0.073,-0.087 -0.109,-0.19 -0.109,-0.311 0,-0.093 0.026,-0.18 0.079,-0.26 l 3.08,-4.28 c -0.319,0.08 -0.693,0.12 -1.12,0.12 -0.96,-0.013 -1.8,-0.236 -2.52,-0.67 -0.72,-0.433 -1.27,-1 -1.65,-1.7 -0.38,-0.699 -0.569,-1.449 -0.569,-2.25 0,-0.8 0.189,-1.56 0.569,-2.279 0.381,-0.721 0.947,-1.307 1.7,-1.76 0.753,-0.453 1.663,-0.681 2.73,-0.681 1.066,0 1.979,0.22 2.739,0.66 0.761,0.44 1.334,1.017 1.721,1.73 0.387,0.713 0.58,1.477 0.58,2.29 0,0.733 -0.13,1.38 -0.391,1.939 -0.26,0.561 -0.604,1.14 -1.029,1.74 l -3.881,5.439 c -0.093,0.12 -0.183,0.217 -0.27,0.29 -0.087,0.074 -0.21,0.11 -0.37,0.11 h -1 c -0.119,0.003 -0.216,-0.04 -0.289,-0.127 z m 3.771,-6.69 c 0.479,-0.253 0.859,-0.609 1.14,-1.069 0.281,-0.46 0.42,-0.99 0.42,-1.591 0,-0.612 -0.14,-1.152 -0.42,-1.619 -0.28,-0.467 -0.66,-0.827 -1.14,-1.08 -0.48,-0.254 -1.007,-0.38 -1.58,-0.38 -0.561,0 -1.077,0.126 -1.55,0.38 -0.474,0.253 -0.851,0.613 -1.131,1.08 -0.279,0.467 -0.42,1.007 -0.42,1.619 0,0.601 0.141,1.131 0.42,1.591 0.28,0.46 0.653,0.816 1.12,1.069 0.467,0.254 0.987,0.38 1.561,0.38 0.574,0 1.099,-0.126 1.58,-0.38 z"
   id="path77" />
					<path
   fill="#00b9d2"
   d="m 500.959,630.845 c -0.06,-0.08 -0.077,-0.181 -0.05,-0.301 l 0.439,-2.8 c 0.054,-0.387 0.24,-0.58 0.561,-0.58 h 1.28 c 0.093,0 0.17,0.033 0.229,0.101 0.061,0.066 0.09,0.146 0.09,0.239 0,0.134 -0.02,0.24 -0.06,0.32 l -1.04,2.7 c -0.067,0.146 -0.141,0.257 -0.22,0.33 -0.08,0.073 -0.2,0.109 -0.36,0.109 h -0.62 c -0.105,0.001 -0.189,-0.039 -0.249,-0.118 z m 3.14,0 c -0.06,-0.08 -0.076,-0.181 -0.05,-0.301 l 0.44,-2.8 c 0.053,-0.387 0.24,-0.58 0.56,-0.58 h 1.28 c 0.093,0 0.17,0.033 0.229,0.101 0.061,0.066 0.091,0.146 0.091,0.239 0,0.134 -0.021,0.24 -0.061,0.32 l -1.04,2.7 c -0.066,0.146 -0.14,0.257 -0.22,0.33 -0.08,0.073 -0.2,0.109 -0.36,0.109 h -0.62 c -0.105,0.001 -0.188,-0.039 -0.249,-0.118 z"
   id="path79" />
					<path
   fill="#00b9d2"
   d="m 513.969,645.395 c -0.08,-0.087 -0.12,-0.197 -0.12,-0.33 v -21.16 c 0,-0.133 0.04,-0.243 0.12,-0.33 0.08,-0.087 0.187,-0.13 0.32,-0.13 h 0.739 c 0.134,0 0.243,0.043 0.33,0.13 0.087,0.087 0.13,0.197 0.13,0.33 v 21.16 c 0,0.133 -0.043,0.243 -0.13,0.33 -0.087,0.086 -0.196,0.13 -0.33,0.13 h -0.739 c -0.133,-10e-4 -0.24,-0.045 -0.32,-0.13 z"
   id="path81" />
					<path
   fill="#00b9d2"
   d="m 524.598,641.234 c -0.073,-0.087 -0.11,-0.19 -0.11,-0.311 l 0.04,-0.18 5,-11.7 h -6.6 c -0.134,0 -0.243,-0.043 -0.33,-0.13 -0.087,-0.086 -0.13,-0.196 -0.13,-0.33 v -0.739 c 0,-0.147 0.04,-0.264 0.12,-0.351 0.08,-0.087 0.193,-0.13 0.34,-0.13 h 8.16 c 0.146,0 0.26,0.043 0.34,0.13 0.08,0.087 0.12,0.203 0.12,0.351 v 0.68 c 0,0.24 -0.054,0.5 -0.16,0.78 l -4.94,11.56 c -0.066,0.146 -0.14,0.267 -0.22,0.36 -0.08,0.093 -0.193,0.14 -0.34,0.14 h -1 c -0.12,0 -0.217,-0.043 -0.29,-0.13 z"
   id="path83" />
					<path
   fill="#00b9d2"
   d="m 534.638,640.055 c -0.793,-1.007 -1.217,-2.323 -1.27,-3.95 l -0.021,-1.721 0.021,-1.779 c 0.04,-1.613 0.463,-2.924 1.27,-3.931 0.807,-1.006 2.063,-1.51 3.771,-1.51 1.72,0 2.982,0.504 3.79,1.51 0.807,1.007 1.229,2.317 1.27,3.931 0.014,0.373 0.021,0.967 0.021,1.779 0,0.787 -0.007,1.36 -0.021,1.721 -0.054,1.627 -0.477,2.943 -1.27,3.95 -0.794,1.007 -2.058,1.51 -3.79,1.51 -1.721,-0.001 -2.978,-0.503 -3.771,-1.51 z m 6.09,-1.171 c 0.521,-0.68 0.794,-1.64 0.82,-2.88 0.013,-0.386 0.021,-0.939 0.021,-1.659 0,-0.733 -0.008,-1.28 -0.021,-1.641 -0.026,-1.227 -0.304,-2.183 -0.83,-2.87 -0.526,-0.687 -1.297,-1.029 -2.31,-1.029 -1.014,0 -1.78,0.343 -2.301,1.029 -0.52,0.688 -0.793,1.644 -0.819,2.87 l -0.021,1.641 0.021,1.659 c 0.026,1.24 0.3,2.2 0.819,2.88 0.521,0.681 1.287,1.021 2.301,1.021 1.027,-10e-4 1.8,-0.341 2.32,-1.021 z"
   id="path85" />
					<path
   fill="#00b9d2"
   d="m 545.918,641.234 c -0.087,-0.087 -0.13,-0.196 -0.13,-0.33 v -1.38 c 0,-0.133 0.043,-0.247 0.13,-0.34 0.086,-0.094 0.196,-0.141 0.33,-0.141 h 1.38 c 0.133,0 0.243,0.047 0.33,0.141 0.086,0.093 0.13,0.207 0.13,0.34 v 1.38 c 0,0.134 -0.044,0.243 -0.13,0.33 -0.087,0.087 -0.197,0.13 -0.33,0.13 h -1.38 c -0.133,0 -0.244,-0.043 -0.33,-0.13 z"
   id="path87" />
					<path
   fill="#00b9d2"
   d="m 552.119,641.234 c -0.073,-0.087 -0.109,-0.19 -0.109,-0.311 0,-0.093 0.026,-0.18 0.079,-0.26 l 3.08,-4.28 c -0.319,0.08 -0.693,0.12 -1.12,0.12 -0.96,-0.013 -1.8,-0.236 -2.52,-0.67 -0.72,-0.433 -1.27,-1 -1.65,-1.7 -0.38,-0.699 -0.569,-1.449 -0.569,-2.25 0,-0.8 0.189,-1.56 0.569,-2.279 0.381,-0.721 0.947,-1.307 1.7,-1.76 0.753,-0.453 1.663,-0.681 2.73,-0.681 1.066,0 1.979,0.22 2.739,0.66 0.761,0.44 1.334,1.017 1.721,1.73 0.387,0.713 0.58,1.477 0.58,2.29 0,0.733 -0.13,1.38 -0.391,1.939 -0.26,0.561 -0.604,1.14 -1.029,1.74 l -3.881,5.439 c -0.093,0.12 -0.183,0.217 -0.27,0.29 -0.087,0.074 -0.21,0.11 -0.37,0.11 h -1 c -0.119,0.003 -0.216,-0.04 -0.289,-0.127 z m 3.77,-6.69 c 0.479,-0.253 0.859,-0.609 1.14,-1.069 0.281,-0.46 0.42,-0.99 0.42,-1.591 0,-0.612 -0.14,-1.152 -0.42,-1.619 -0.28,-0.467 -0.66,-0.827 -1.14,-1.08 -0.48,-0.254 -1.007,-0.38 -1.58,-0.38 -0.561,0 -1.077,0.126 -1.55,0.38 -0.474,0.253 -0.851,0.613 -1.131,1.08 -0.279,0.467 -0.42,1.007 -0.42,1.619 0,0.601 0.141,1.131 0.42,1.591 0.28,0.46 0.653,0.816 1.12,1.069 0.467,0.254 0.987,0.38 1.561,0.38 0.574,0 1.1,-0.126 1.58,-0.38 z"
   id="path89" />
					<path
   fill="#00b9d2"
   d="m 566.898,641.234 c -0.087,-0.087 -0.13,-0.196 -0.13,-0.33 v -9.48 c 0,-0.133 0.043,-0.243 0.13,-0.329 0.087,-0.087 0.196,-0.131 0.33,-0.131 h 0.84 c 0.134,0 0.24,0.044 0.32,0.131 0.08,0.086 0.12,0.196 0.12,0.329 v 0.681 c 0.72,-0.894 1.693,-1.34 2.92,-1.34 1.467,0 2.507,0.613 3.12,1.84 0.319,-0.561 0.776,-1.007 1.37,-1.34 0.593,-0.334 1.256,-0.5 1.989,-0.5 1.094,0 1.987,0.373 2.681,1.119 0.692,0.747 1.04,1.827 1.04,3.24 v 5.78 c 0,0.134 -0.044,0.243 -0.13,0.33 -0.087,0.087 -0.197,0.13 -0.33,0.13 h -0.86 c -0.134,0 -0.243,-0.043 -0.33,-0.13 -0.087,-0.087 -0.13,-0.196 -0.13,-0.33 v -5.6 c 0,-1.067 -0.22,-1.83 -0.66,-2.29 -0.439,-0.46 -1.02,-0.69 -1.74,-0.69 -0.64,0 -1.189,0.237 -1.649,0.71 -0.46,0.474 -0.69,1.23 -0.69,2.271 v 5.6 c 0,0.134 -0.043,0.243 -0.13,0.33 -0.087,0.087 -0.197,0.13 -0.33,0.13 h -0.88 c -0.134,0 -0.243,-0.043 -0.33,-0.13 -0.087,-0.087 -0.13,-0.196 -0.13,-0.33 v -5.6 c 0,-1.054 -0.23,-1.813 -0.69,-2.28 -0.46,-0.467 -1.029,-0.7 -1.71,-0.7 -0.64,0 -1.189,0.233 -1.649,0.7 -0.46,0.467 -0.69,1.22 -0.69,2.26 v 5.62 c 0,0.134 -0.043,0.243 -0.13,0.33 -0.087,0.087 -0.197,0.13 -0.33,0.13 h -0.88 c -0.136,-10e-4 -0.245,-0.044 -0.332,-0.131 z"
   id="path91" />
					<path
   fill="#00b9d2"
   d="m 584.658,641.234 c -0.087,-0.087 -0.13,-0.196 -0.13,-0.33 v -9.48 c 0,-0.133 0.043,-0.243 0.13,-0.329 0.087,-0.087 0.196,-0.131 0.33,-0.131 h 0.84 c 0.134,0 0.24,0.044 0.32,0.131 0.08,0.086 0.12,0.196 0.12,0.329 v 0.681 c 0.72,-0.894 1.693,-1.34 2.92,-1.34 1.467,0 2.507,0.613 3.12,1.84 0.319,-0.561 0.776,-1.007 1.37,-1.34 0.593,-0.334 1.256,-0.5 1.989,-0.5 1.094,0 1.987,0.373 2.681,1.119 0.692,0.747 1.04,1.827 1.04,3.24 v 5.78 c 0,0.134 -0.044,0.243 -0.13,0.33 -0.087,0.087 -0.197,0.13 -0.33,0.13 h -0.86 c -0.134,0 -0.243,-0.043 -0.33,-0.13 -0.087,-0.087 -0.13,-0.196 -0.13,-0.33 v -5.6 c 0,-1.067 -0.22,-1.83 -0.66,-2.29 -0.439,-0.46 -1.02,-0.69 -1.74,-0.69 -0.64,0 -1.189,0.237 -1.649,0.71 -0.46,0.474 -0.69,1.23 -0.69,2.271 v 5.6 c 0,0.134 -0.043,0.243 -0.13,0.33 -0.087,0.087 -0.197,0.13 -0.33,0.13 h -0.88 c -0.134,0 -0.243,-0.043 -0.33,-0.13 -0.087,-0.087 -0.13,-0.196 -0.13,-0.33 v -5.6 c 0,-1.054 -0.23,-1.813 -0.69,-2.28 -0.46,-0.467 -1.029,-0.7 -1.71,-0.7 -0.64,0 -1.189,0.233 -1.649,0.7 -0.46,0.467 -0.69,1.22 -0.69,2.26 v 5.62 c 0,0.134 -0.043,0.243 -0.13,0.33 -0.087,0.087 -0.197,0.13 -0.33,0.13 h -0.88 c -0.136,-10e-4 -0.245,-0.044 -0.332,-0.131 z"
   id="path93" />
				</g>
			</g>
		</g>
		<g
   id="g127">
			<g
   id="POLYLINE_00000035499958518660302600000017253817526679201942_">
				
					<polyline
   fill="none"
   stroke="#00b9d2"
   stroke-width="2"
   stroke-linecap="round"
   stroke-linejoin="round"
   stroke-miterlimit="10"
   points="      93.034,536.302 87.307,542.029 93.034,547.756     "
   id="polyline100" />
			</g>
			<g
   id="POLYLINE_00000165232721206827862860000010313308952869127353_">
				
					<line
   fill="none"
   stroke="#00b9d2"
   stroke-width="2"
   stroke-linecap="round"
   stroke-linejoin="round"
   stroke-miterlimit="10"
   x1="87.306999"
   y1="542.02899"
   x2="159.228"
   y2="542.02899"
   id="line103" />
			</g>
			<g
   id="POLYLINE_00000023993545346967054530000001996816281466991295_">
				
					<line
   fill="none"
   stroke="#00b9d2"
   stroke-width="2"
   stroke-linecap="round"
   stroke-linejoin="round"
   stroke-miterlimit="10"
   x1="242.42799"
   y1="542.02899"
   x2="306.28699"
   y2="542.02899"
   id="line106" />
			</g>
			<g
   id="POLYLINE_00000052069735985333951970000006971238385403123851_">
				
					<polyline
   fill="none"
   stroke="#00b9d2"
   stroke-width="2"
   stroke-linecap="round"
   stroke-linejoin="round"
   stroke-miterlimit="10"
   points="      300.548,536.312 306.276,542.039 300.548,547.766     "
   id="polyline109" />
			</g>
			<g
   id="MTEXT_00000155142591399515758510000010319641473836234914_">
				<g
   id="g124">
					<path
   fill="#00b9d2"
   d="m 173.047,548.178 c -0.08,-0.087 -0.12,-0.196 -0.12,-0.33 v -11.28 l -3.36,2.58 c -0.093,0.08 -0.193,0.12 -0.3,0.12 -0.12,0 -0.233,-0.066 -0.34,-0.2 l -0.48,-0.62 c -0.066,-0.093 -0.1,-0.187 -0.1,-0.279 0,-0.146 0.066,-0.267 0.2,-0.36 l 4.34,-3.36 c 0.146,-0.093 0.32,-0.14 0.52,-0.14 h 0.94 c 0.133,0 0.243,0.043 0.33,0.13 0.087,0.087 0.13,0.197 0.13,0.33 v 13.08 c 0,0.134 -0.043,0.243 -0.13,0.33 -0.087,0.087 -0.197,0.13 -0.33,0.13 h -0.98 c -0.133,-10e-4 -0.24,-0.044 -0.32,-0.131 z"
   id="path112" />
					<path
   fill="#00b9d2"
   d="m 181.547,548.178 c -0.08,-0.087 -0.12,-0.196 -0.12,-0.33 v -11.28 l -3.36,2.58 c -0.093,0.08 -0.193,0.12 -0.3,0.12 -0.12,0 -0.233,-0.066 -0.34,-0.2 l -0.48,-0.62 c -0.066,-0.093 -0.1,-0.187 -0.1,-0.279 0,-0.146 0.066,-0.267 0.2,-0.36 l 4.34,-3.36 c 0.146,-0.093 0.32,-0.14 0.52,-0.14 h 0.94 c 0.133,0 0.243,0.043 0.33,0.13 0.087,0.087 0.13,0.197 0.13,0.33 v 13.08 c 0,0.134 -0.043,0.243 -0.13,0.33 -0.087,0.087 -0.197,0.13 -0.33,0.13 h -0.98 c -0.133,-10e-4 -0.24,-0.044 -0.32,-0.131 z"
   id="path114" />
					<path
   fill="#00b9d2"
   d="m 185.958,548.178 c -0.087,-0.087 -0.13,-0.196 -0.13,-0.33 v -0.6 c 0,-0.307 0.166,-0.601 0.5,-0.881 l 4.359,-4.34 c 0.986,-0.84 1.667,-1.526 2.04,-2.06 0.373,-0.534 0.561,-1.101 0.561,-1.7 0,-0.786 -0.221,-1.403 -0.66,-1.85 -0.44,-0.447 -1.08,-0.67 -1.92,-0.67 -0.801,0 -1.434,0.233 -1.9,0.699 -0.467,0.467 -0.753,1.094 -0.86,1.88 -0.026,0.147 -0.093,0.261 -0.199,0.341 -0.107,0.08 -0.214,0.12 -0.32,0.12 h -0.96 c -0.12,0 -0.22,-0.04 -0.3,-0.12 -0.08,-0.08 -0.12,-0.174 -0.12,-0.28 0.026,-0.707 0.217,-1.39 0.569,-2.05 0.354,-0.66 0.877,-1.2 1.57,-1.62 0.693,-0.42 1.533,-0.63 2.521,-0.63 1.493,0 2.616,0.39 3.37,1.17 0.753,0.78 1.13,1.77 1.13,2.97 0,0.84 -0.204,1.597 -0.61,2.271 -0.407,0.673 -1.043,1.383 -1.91,2.13 l -3.939,4 h 6.3 c 0.146,0 0.26,0.04 0.34,0.12 0.08,0.079 0.12,0.193 0.12,0.34 v 0.76 c 0,0.134 -0.044,0.243 -0.13,0.33 -0.087,0.087 -0.197,0.13 -0.33,0.13 h -8.76 c -0.136,0 -0.247,-0.043 -0.332,-0.13 z"
   id="path116" />
					<path
   fill="#00b9d2"
   d="m 199.747,547.968 c -0.733,-0.36 -1.293,-0.83 -1.68,-1.41 -0.387,-0.58 -0.594,-1.203 -0.62,-1.87 v -0.04 c 0,-0.106 0.04,-0.193 0.12,-0.26 0.08,-0.067 0.173,-0.1 0.28,-0.1 h 0.979 c 0.28,0 0.46,0.146 0.54,0.439 0.2,0.72 0.57,1.257 1.11,1.61 0.54,0.353 1.163,0.529 1.87,0.529 0.906,0 1.66,-0.276 2.26,-0.829 0.6,-0.554 0.9,-1.317 0.9,-2.29 0,-0.894 -0.301,-1.604 -0.9,-2.131 -0.6,-0.526 -1.354,-0.79 -2.26,-0.79 -0.48,0 -0.867,0.061 -1.16,0.181 -0.294,0.12 -0.594,0.293 -0.9,0.52 -0.173,0.134 -0.316,0.23 -0.43,0.29 -0.113,0.061 -0.237,0.09 -0.37,0.09 h -0.96 c -0.12,0 -0.227,-0.043 -0.32,-0.13 -0.093,-0.086 -0.133,-0.189 -0.12,-0.31 l 0.62,-6.66 c 0.04,-0.333 0.207,-0.5 0.5,-0.5 h 6.92 c 0.146,0 0.261,0.04 0.341,0.12 0.079,0.08 0.119,0.193 0.119,0.34 v 0.74 c 0,0.133 -0.043,0.24 -0.13,0.319 -0.087,0.08 -0.196,0.12 -0.33,0.12 h -5.76 l -0.359,4.021 c 0.64,-0.453 1.5,-0.68 2.579,-0.68 0.894,0 1.707,0.177 2.44,0.529 0.733,0.354 1.316,0.87 1.75,1.55 0.434,0.681 0.65,1.487 0.65,2.421 0,0.986 -0.217,1.836 -0.65,2.55 -0.434,0.713 -1.033,1.253 -1.8,1.62 -0.767,0.366 -1.644,0.55 -2.63,0.55 -0.999,0.001 -1.866,-0.18 -2.599,-0.539 z"
   id="path118" />
					<path
   fill="#00b9d2"
   d="m 214.937,551.987 c -0.087,-0.08 -0.131,-0.193 -0.131,-0.34 v -13.28 c 0,-0.146 0.044,-0.26 0.131,-0.34 0.086,-0.08 0.196,-0.12 0.33,-0.12 h 0.84 c 0.146,0 0.26,0.04 0.34,0.12 0.08,0.08 0.12,0.193 0.12,0.34 v 0.881 c 0.772,-1.027 1.873,-1.54 3.3,-1.54 1.4,0 2.45,0.443 3.15,1.33 0.699,0.887 1.069,2.017 1.109,3.39 0.014,0.146 0.021,0.373 0.021,0.68 0,0.307 -0.007,0.533 -0.021,0.681 -0.04,1.359 -0.41,2.486 -1.109,3.38 -0.7,0.894 -1.75,1.34 -3.15,1.34 -1.427,0 -2.507,-0.507 -3.24,-1.521 v 4.66 c 0,0.133 -0.043,0.243 -0.13,0.33 -0.087,0.087 -0.197,0.13 -0.33,0.13 h -0.899 c -0.135,-10e-4 -0.245,-0.041 -0.331,-0.121 z m 6.649,-5.939 c 0.44,-0.601 0.681,-1.387 0.72,-2.36 0.014,-0.133 0.021,-0.326 0.021,-0.58 0,-2.56 -0.947,-3.84 -2.84,-3.84 -0.934,0 -1.637,0.31 -2.11,0.93 -0.473,0.62 -0.724,1.351 -0.75,2.19 -0.014,0.146 -0.02,0.407 -0.02,0.78 0,0.373 0.006,0.633 0.02,0.779 0.026,0.813 0.283,1.518 0.771,2.11 0.486,0.594 1.183,0.89 2.09,0.89 0.959,0 1.659,-0.3 2.098,-0.899 z"
   id="path120" />
					<path
   fill="#00b9d2"
   d="m 225.606,548.188 c -0.08,-0.08 -0.12,-0.18 -0.12,-0.3 0,-0.12 0.047,-0.247 0.141,-0.38 l 3.479,-4.521 -3.26,-4.3 c -0.106,-0.146 -0.16,-0.267 -0.16,-0.36 0,-0.119 0.043,-0.22 0.13,-0.3 0.087,-0.08 0.184,-0.12 0.29,-0.12 h 0.96 c 0.2,0 0.373,0.107 0.521,0.32 l 2.7,3.5 2.699,-3.5 c 0.08,-0.106 0.157,-0.187 0.23,-0.24 0.073,-0.053 0.17,-0.08 0.29,-0.08 h 0.92 c 0.106,0 0.2,0.04 0.28,0.12 0.08,0.08 0.12,0.174 0.12,0.28 0,0.134 -0.047,0.26 -0.141,0.38 l -3.3,4.34 3.48,4.48 c 0.093,0.133 0.14,0.26 0.14,0.38 0,0.12 -0.04,0.22 -0.12,0.3 -0.08,0.08 -0.18,0.12 -0.3,0.12 h -0.98 c -0.2,0 -0.373,-0.1 -0.52,-0.3 l -2.86,-3.7 -2.859,3.7 c -0.08,0.093 -0.157,0.167 -0.23,0.22 -0.073,0.054 -0.17,0.08 -0.29,0.08 h -0.94 c -0.119,10e-4 -0.22,-0.039 -0.3,-0.119 z"
   id="path122" />
				</g>
			</g>
		</g>
		<g
   id="g156">
			<g
   id="POLYLINE_00000055666648165564935030000012911687215822801292_">
				
					<polyline
   fill="none"
   stroke="#00b9d2"
   stroke-width="2"
   stroke-linecap="round"
   stroke-linejoin="round"
   stroke-miterlimit="10"
   points="      278.689,97.351 272.962,91.624 267.235,97.351     "
   id="polyline129" />
			</g>
			<g
   id="POLYLINE_00000080893807337196723520000002071264705580695996_">
				
					<line
   fill="none"
   stroke="#00b9d2"
   stroke-width="2"
   stroke-linecap="round"
   stroke-linejoin="round"
   stroke-miterlimit="10"
   x1="272.96201"
   y1="91.624001"
   x2="272.96201"
   y2="450.79599"
   id="line132" />
			</g>
			<g
   id="POLYLINE_00000023269120897909117610000000604179162646942104_">
				
					<line
   fill="none"
   stroke="#00b9d2"
   stroke-width="2"
   stroke-linecap="round"
   stroke-linejoin="round"
   stroke-miterlimit="10"
   x1="272.96201"
   y1="480.496"
   x2="272.96201"
   y2="578.67902"
   id="line135" />
			</g>
			<g
   id="POLYLINE_00000180362447353304757200000004041076905141888683_">
				
					<polyline
   fill="none"
   stroke="#00b9d2"
   stroke-width="2"
   stroke-linecap="round"
   stroke-linejoin="round"
   stroke-miterlimit="10"
   points="      278.678,572.94 272.951,578.668 267.224,572.94     "
   id="polyline138" />
			</g>
			<g
   id="MTEXT_00000082336419220309970450000015368562740212528527_">
				<g
   id="g153">
					<path
   fill="#00b9d2"
   d="m 218.69,470.316 c -0.087,-0.087 -0.13,-0.196 -0.13,-0.33 v -0.6 c 0,-0.307 0.166,-0.601 0.5,-0.881 l 4.359,-4.34 c 0.986,-0.84 1.667,-1.526 2.04,-2.06 0.373,-0.534 0.561,-1.101 0.561,-1.7 0,-0.786 -0.221,-1.403 -0.66,-1.85 -0.44,-0.447 -1.08,-0.67 -1.92,-0.67 -0.801,0 -1.434,0.233 -1.9,0.699 -0.467,0.467 -0.753,1.094 -0.86,1.88 -0.026,0.147 -0.093,0.261 -0.199,0.341 -0.107,0.08 -0.214,0.12 -0.32,0.12 h -0.96 c -0.12,0 -0.22,-0.04 -0.3,-0.12 -0.08,-0.08 -0.12,-0.174 -0.12,-0.28 0.026,-0.707 0.217,-1.39 0.569,-2.05 0.354,-0.66 0.877,-1.2 1.57,-1.62 0.693,-0.42 1.533,-0.63 2.521,-0.63 1.493,0 2.616,0.39 3.37,1.17 0.753,0.78 1.13,1.77 1.13,2.97 0,0.84 -0.204,1.597 -0.61,2.271 -0.407,0.673 -1.043,1.383 -1.91,2.13 l -3.939,4 h 6.3 c 0.146,0 0.26,0.04 0.34,0.12 0.08,0.079 0.12,0.193 0.12,0.34 v 0.76 c 0,0.134 -0.044,0.243 -0.13,0.33 -0.087,0.087 -0.197,0.13 -0.33,0.13 h -8.76 c -0.136,0 -0.246,-0.043 -0.332,-0.13 z"
   id="path141" />
					<path
   fill="#00b9d2"
   d="m 236.77,470.316 c -0.087,-0.087 -0.13,-0.196 -0.13,-0.33 v -2.92 h -6.5 c -0.134,0 -0.243,-0.043 -0.33,-0.13 -0.087,-0.087 -0.13,-0.197 -0.13,-0.33 v -0.74 c 0,-0.187 0.073,-0.387 0.22,-0.6 l 6.021,-8.48 c 0.066,-0.106 0.166,-0.189 0.3,-0.25 0.133,-0.06 0.28,-0.09 0.439,-0.09 h 1.36 c 0.146,0 0.26,0.04 0.34,0.12 0.08,0.08 0.12,0.193 0.12,0.34 v 8.48 h 1.82 c 0.133,0 0.243,0.043 0.33,0.13 0.086,0.087 0.13,0.196 0.13,0.33 v 0.76 c 0,0.133 -0.044,0.243 -0.13,0.33 -0.087,0.087 -0.197,0.13 -0.33,0.13 h -1.82 v 2.92 c 0,0.134 -0.043,0.243 -0.13,0.33 -0.087,0.087 -0.197,0.13 -0.33,0.13 h -0.92 c -0.134,0 -0.243,-0.043 -0.33,-0.13 z m -5.01,-4.889 h 4.899 v -6.961 z"
   id="path143" />
					<path
   fill="#00b9d2"
   d="m 244.639,470.137 c -0.76,-0.341 -1.337,-0.783 -1.729,-1.33 -0.394,-0.547 -0.604,-1.113 -0.63,-1.7 0,-0.12 0.04,-0.217 0.12,-0.29 0.079,-0.073 0.18,-0.11 0.3,-0.11 h 0.899 c 0.146,0 0.267,0.03 0.36,0.09 0.093,0.061 0.167,0.178 0.22,0.351 0.174,0.68 0.55,1.16 1.13,1.439 0.58,0.28 1.264,0.42 2.051,0.42 0.96,0 1.723,-0.229 2.29,-0.689 0.566,-0.46 0.85,-1.116 0.85,-1.97 0,-1.627 -0.993,-2.44 -2.98,-2.44 h -1.88 c -0.133,0 -0.243,-0.043 -0.33,-0.13 -0.087,-0.087 -0.13,-0.196 -0.13,-0.33 v -0.52 c 0,-0.2 0.073,-0.374 0.221,-0.521 l 3.899,-4.32 h -5.92 c -0.134,0 -0.243,-0.04 -0.33,-0.12 -0.087,-0.079 -0.13,-0.187 -0.13,-0.319 v -0.72 c 0,-0.147 0.043,-0.264 0.13,-0.351 0.087,-0.087 0.196,-0.13 0.33,-0.13 h 7.92 c 0.146,0 0.264,0.043 0.351,0.13 0.086,0.087 0.13,0.203 0.13,0.351 v 0.659 c 0,0.147 -0.067,0.301 -0.2,0.46 l -3.9,4.381 H 248 c 1.36,0.039 2.437,0.393 3.229,1.06 0.794,0.667 1.19,1.64 1.19,2.92 0,0.88 -0.217,1.637 -0.65,2.271 -0.433,0.633 -1.036,1.119 -1.81,1.46 -0.773,0.34 -1.646,0.51 -2.62,0.51 -1.04,-0.003 -1.939,-0.172 -2.7,-0.512 z"
   id="path145" />
					<path
   fill="#00b9d2"
   d="m 256.75,469.996 c -0.78,-0.433 -1.374,-1.017 -1.78,-1.75 -0.406,-0.733 -0.609,-1.533 -0.609,-2.399 0,-1.146 0.46,-2.373 1.38,-3.681 l 3.819,-5.319 c 0.014,-0.014 0.051,-0.061 0.11,-0.141 0.059,-0.08 0.137,-0.143 0.229,-0.189 0.094,-0.047 0.2,-0.07 0.32,-0.07 h 0.98 c 0.12,0 0.216,0.043 0.29,0.13 0.073,0.087 0.109,0.19 0.109,0.311 0,0.066 -0.033,0.153 -0.1,0.26 l -2.92,4.08 c 0.347,-0.08 0.733,-0.12 1.16,-0.12 0.973,0 1.83,0.217 2.569,0.649 0.74,0.434 1.313,1.007 1.721,1.721 0.406,0.713 0.609,1.497 0.609,2.35 0,0.854 -0.203,1.65 -0.609,2.39 -0.407,0.74 -0.997,1.33 -1.771,1.771 -0.774,0.441 -1.687,0.66 -2.74,0.66 -1.064,-0.003 -1.987,-0.219 -2.767,-0.653 z m 4.37,-1.37 c 0.493,-0.239 0.887,-0.597 1.18,-1.069 0.293,-0.474 0.44,-1.044 0.44,-1.71 0,-0.653 -0.15,-1.217 -0.45,-1.69 -0.3,-0.473 -0.697,-0.833 -1.19,-1.08 -0.493,-0.246 -1.026,-0.37 -1.6,-0.37 -0.574,0 -1.107,0.124 -1.601,0.37 -0.493,0.247 -0.887,0.607 -1.18,1.08 -0.293,0.474 -0.439,1.037 -0.439,1.69 0,0.666 0.146,1.236 0.439,1.71 0.293,0.473 0.687,0.83 1.18,1.069 0.493,0.24 1.027,0.36 1.601,0.36 0.586,0 1.125,-0.12 1.62,-0.36 z"
   id="path147" />
					<path
   fill="#00b9d2"
   d="m 271.95,474.126 c -0.087,-0.08 -0.131,-0.193 -0.131,-0.34 v -13.28 c 0,-0.146 0.044,-0.26 0.131,-0.34 0.086,-0.08 0.196,-0.12 0.33,-0.12 h 0.84 c 0.146,0 0.26,0.04 0.34,0.12 0.08,0.08 0.12,0.193 0.12,0.34 v 0.881 c 0.772,-1.027 1.873,-1.54 3.3,-1.54 1.4,0 2.45,0.443 3.15,1.33 0.699,0.887 1.069,2.017 1.109,3.39 0.014,0.146 0.021,0.373 0.021,0.68 0,0.307 -0.007,0.533 -0.021,0.681 -0.04,1.359 -0.41,2.486 -1.109,3.38 -0.7,0.894 -1.75,1.34 -3.15,1.34 -1.427,0 -2.507,-0.507 -3.24,-1.521 v 4.66 c 0,0.133 -0.043,0.243 -0.13,0.33 -0.087,0.087 -0.197,0.13 -0.33,0.13 h -0.899 c -0.135,-0.001 -0.245,-0.041 -0.331,-0.121 z m 6.649,-5.939 c 0.44,-0.601 0.681,-1.387 0.72,-2.36 0.014,-0.133 0.021,-0.326 0.021,-0.58 0,-2.56 -0.947,-3.84 -2.84,-3.84 -0.934,0 -1.637,0.31 -2.11,0.93 -0.473,0.62 -0.724,1.351 -0.75,2.19 -0.014,0.146 -0.02,0.407 -0.02,0.78 0,0.373 0.006,0.633 0.02,0.779 0.026,0.813 0.283,1.518 0.771,2.11 0.486,0.594 1.183,0.89 2.09,0.89 0.958,0 1.659,-0.3 2.098,-0.899 z"
   id="path149" />
					<path
   fill="#00b9d2"
   d="m 282.619,470.326 c -0.08,-0.08 -0.12,-0.18 -0.12,-0.3 0,-0.12 0.047,-0.247 0.141,-0.38 l 3.479,-4.521 -3.26,-4.3 c -0.106,-0.146 -0.16,-0.267 -0.16,-0.36 0,-0.119 0.043,-0.22 0.13,-0.3 0.087,-0.08 0.184,-0.12 0.29,-0.12 h 0.96 c 0.2,0 0.373,0.107 0.521,0.32 l 2.7,3.5 2.699,-3.5 c 0.08,-0.106 0.157,-0.187 0.23,-0.24 0.073,-0.053 0.17,-0.08 0.29,-0.08 h 0.92 c 0.106,0 0.2,0.04 0.28,0.12 0.08,0.08 0.12,0.174 0.12,0.28 0,0.134 -0.047,0.26 -0.141,0.38 l -3.3,4.34 3.48,4.48 c 0.093,0.133 0.14,0.26 0.14,0.38 0,0.12 -0.04,0.22 -0.12,0.3 -0.08,0.08 -0.18,0.12 -0.3,0.12 h -0.98 c -0.2,0 -0.373,-0.1 -0.52,-0.3 l -2.86,-3.7 -2.859,3.7 c -0.08,0.093 -0.157,0.167 -0.23,0.22 -0.073,0.054 -0.17,0.08 -0.29,0.08 h -0.94 c -0.12,0.001 -0.22,-0.039 -0.3,-0.119 z"
   id="path151" />
				</g>
			</g>
		</g>
		<g
   id="g199">
			<g
   id="POLYLINE_00000176753933960190501510000016947031071405759417_">
				
					<polyline
   fill="none"
   stroke="#00b9d2"
   stroke-width="2"
   stroke-linecap="round"
   stroke-linejoin="round"
   stroke-miterlimit="10"
   points="      687.354,70.347 681.628,64.62 675.901,70.347     "
   id="polyline158" />
			</g>
			<g
   id="POLYLINE_00000085251321448093602000000011078018946324625084_">
				
					<line
   fill="none"
   stroke="#00b9d2"
   stroke-width="2"
   stroke-linecap="round"
   stroke-linejoin="round"
   stroke-miterlimit="10"
   x1="681.62799"
   y1="64.620003"
   x2="681.62799"
   y2="235.263"
   id="line161" />
			</g>
			<g
   id="POLYLINE_00000117653155772566604830000017720146512420901299_">
				
					<line
   fill="none"
   stroke="#00b9d2"
   stroke-width="2"
   stroke-linecap="round"
   stroke-linejoin="round"
   stroke-miterlimit="10"
   x1="681.62799"
   y1="235.60699"
   x2="681.62799"
   y2="606.22601"
   id="line164" />
			</g>
			<g
   id="POLYLINE_00000103983616154794094220000003512670463680669108_">
				
					<polyline
   fill="none"
   stroke="#00b9d2"
   stroke-width="2"
   stroke-linecap="round"
   stroke-linejoin="round"
   stroke-miterlimit="10"
   points="      687.344,600.487 681.617,606.214 675.89,600.487     "
   id="polyline167" />
			</g>
			<g
   id="MTEXT_00000008150815939105528220000005558467957055875200_"
   opacity="0.98">
				<g
   id="g196">
					<path
   fill="#00b9d2"
   d="m 538.151,48.742 c -0.733,-0.36 -1.293,-0.83 -1.68,-1.41 -0.387,-0.58 -0.594,-1.203 -0.62,-1.87 v -0.04 c 0,-0.106 0.04,-0.193 0.12,-0.26 0.08,-0.067 0.173,-0.1 0.28,-0.1 h 0.979 c 0.28,0 0.46,0.146 0.54,0.439 0.2,0.72 0.57,1.257 1.11,1.61 0.54,0.353 1.163,0.529 1.87,0.529 0.906,0 1.66,-0.276 2.26,-0.829 0.6,-0.554 0.9,-1.317 0.9,-2.29 0,-0.894 -0.301,-1.604 -0.9,-2.131 -0.6,-0.526 -1.354,-0.79 -2.26,-0.79 -0.48,0 -0.867,0.061 -1.16,0.181 -0.294,0.12 -0.594,0.293 -0.9,0.52 -0.173,0.134 -0.316,0.23 -0.43,0.29 -0.113,0.061 -0.237,0.09 -0.37,0.09 h -0.96 c -0.12,0 -0.227,-0.043 -0.32,-0.13 -0.093,-0.086 -0.133,-0.189 -0.12,-0.31 l 0.62,-6.66 c 0.04,-0.333 0.207,-0.5 0.5,-0.5 h 6.92 c 0.146,0 0.261,0.04 0.341,0.12 0.079,0.08 0.119,0.193 0.119,0.34 v 0.74 c 0,0.133 -0.043,0.24 -0.13,0.319 -0.087,0.08 -0.196,0.12 -0.33,0.12 h -5.76 l -0.359,4.021 c 0.64,-0.453 1.5,-0.68 2.579,-0.68 0.894,0 1.707,0.177 2.44,0.529 0.733,0.354 1.316,0.87 1.75,1.55 0.434,0.681 0.65,1.487 0.65,2.421 0,0.986 -0.217,1.836 -0.65,2.55 -0.434,0.713 -1.033,1.253 -1.8,1.62 -0.767,0.366 -1.644,0.55 -2.63,0.55 -0.999,10e-4 -1.866,-0.179 -2.599,-0.539 z"
   id="path170" />
					<path
   fill="#00b9d2"
   d="m 548.082,48.952 c -0.087,-0.087 -0.13,-0.196 -0.13,-0.33 v -1.38 c 0,-0.133 0.043,-0.247 0.13,-0.34 0.086,-0.094 0.196,-0.141 0.33,-0.141 h 1.38 c 0.133,0 0.243,0.047 0.33,0.141 0.086,0.093 0.13,0.207 0.13,0.34 v 1.38 c 0,0.134 -0.044,0.243 -0.13,0.33 -0.087,0.087 -0.197,0.13 -0.33,0.13 h -1.38 c -0.134,0 -0.245,-0.043 -0.33,-0.13 z"
   id="path172" />
					<path
   fill="#00b9d2"
   d="m 554.721,48.632 c -0.78,-0.433 -1.374,-1.017 -1.78,-1.75 -0.406,-0.733 -0.609,-1.533 -0.609,-2.399 0,-1.146 0.46,-2.373 1.38,-3.681 l 3.819,-5.319 c 0.014,-0.014 0.051,-0.061 0.11,-0.141 0.059,-0.08 0.137,-0.143 0.229,-0.189 0.094,-0.047 0.2,-0.07 0.32,-0.07 h 0.98 c 0.12,0 0.216,0.043 0.29,0.13 0.073,0.087 0.109,0.19 0.109,0.311 0,0.066 -0.033,0.153 -0.1,0.26 l -2.92,4.08 c 0.347,-0.08 0.733,-0.12 1.16,-0.12 0.973,0 1.83,0.217 2.569,0.649 0.74,0.434 1.313,1.007 1.721,1.721 0.406,0.713 0.609,1.497 0.609,2.35 0,0.854 -0.203,1.65 -0.609,2.39 -0.407,0.74 -0.997,1.33 -1.771,1.771 -0.774,0.441 -1.687,0.66 -2.74,0.66 -1.064,-0.003 -1.987,-0.22 -2.767,-0.653 z m 4.37,-1.37 c 0.493,-0.239 0.887,-0.597 1.18,-1.069 0.293,-0.474 0.44,-1.044 0.44,-1.71 0,-0.653 -0.15,-1.217 -0.45,-1.69 -0.3,-0.473 -0.697,-0.833 -1.19,-1.08 -0.493,-0.246 -1.026,-0.37 -1.6,-0.37 -0.574,0 -1.107,0.124 -1.601,0.37 -0.493,0.247 -0.887,0.607 -1.18,1.08 -0.293,0.474 -0.439,1.037 -0.439,1.69 0,0.666 0.146,1.236 0.439,1.71 0.293,0.473 0.687,0.83 1.18,1.069 0.493,0.24 1.027,0.36 1.601,0.36 0.587,0 1.126,-0.12 1.62,-0.36 z"
   id="path174" />
					<path
   fill="#00b9d2"
   d="m 566.571,48.742 c -0.733,-0.36 -1.293,-0.83 -1.68,-1.41 -0.387,-0.58 -0.594,-1.203 -0.62,-1.87 v -0.04 c 0,-0.106 0.04,-0.193 0.12,-0.26 0.08,-0.067 0.173,-0.1 0.28,-0.1 h 0.979 c 0.28,0 0.46,0.146 0.54,0.439 0.2,0.72 0.57,1.257 1.11,1.61 0.54,0.353 1.163,0.529 1.87,0.529 0.906,0 1.66,-0.276 2.26,-0.829 0.6,-0.554 0.9,-1.317 0.9,-2.29 0,-0.894 -0.301,-1.604 -0.9,-2.131 -0.6,-0.526 -1.354,-0.79 -2.26,-0.79 -0.48,0 -0.867,0.061 -1.16,0.181 -0.294,0.12 -0.594,0.293 -0.9,0.52 -0.173,0.134 -0.316,0.23 -0.43,0.29 -0.113,0.061 -0.237,0.09 -0.37,0.09 h -0.96 c -0.12,0 -0.227,-0.043 -0.32,-0.13 -0.093,-0.086 -0.133,-0.189 -0.12,-0.31 l 0.62,-6.66 c 0.04,-0.333 0.207,-0.5 0.5,-0.5 h 6.92 c 0.146,0 0.261,0.04 0.341,0.12 0.079,0.08 0.119,0.193 0.119,0.34 v 0.74 c 0,0.133 -0.043,0.24 -0.13,0.319 -0.087,0.08 -0.196,0.12 -0.33,0.12 h -5.76 l -0.359,4.021 c 0.64,-0.453 1.5,-0.68 2.579,-0.68 0.894,0 1.707,0.177 2.44,0.529 0.733,0.354 1.316,0.87 1.75,1.55 0.434,0.681 0.65,1.487 0.65,2.421 0,0.986 -0.217,1.836 -0.65,2.55 -0.434,0.713 -1.033,1.253 -1.8,1.62 -0.767,0.366 -1.644,0.55 -2.63,0.55 -0.999,10e-4 -1.866,-0.179 -2.599,-0.539 z"
   id="path176" />
					<path
   fill="#00b9d2"
   d="m 576.401,38.562 c -0.06,-0.08 -0.077,-0.181 -0.05,-0.301 l 0.439,-2.8 c 0.054,-0.387 0.24,-0.58 0.561,-0.58 h 1.28 c 0.093,0 0.17,0.033 0.229,0.101 0.061,0.066 0.09,0.146 0.09,0.239 0,0.134 -0.02,0.24 -0.06,0.32 l -1.04,2.7 c -0.067,0.146 -0.141,0.257 -0.22,0.33 -0.08,0.073 -0.2,0.109 -0.36,0.109 h -0.62 c -0.106,0.002 -0.19,-0.038 -0.249,-0.118 z m 3.14,0 c -0.06,-0.08 -0.076,-0.181 -0.05,-0.301 l 0.44,-2.8 c 0.053,-0.387 0.24,-0.58 0.56,-0.58 h 1.28 c 0.093,0 0.17,0.033 0.229,0.101 0.061,0.066 0.091,0.146 0.091,0.239 0,0.134 -0.021,0.24 -0.061,0.32 l -1.04,2.7 c -0.066,0.146 -0.14,0.257 -0.22,0.33 -0.08,0.073 -0.2,0.109 -0.36,0.109 h -0.62 c -0.106,0.002 -0.189,-0.038 -0.249,-0.118 z"
   id="path178" />
					<path
   fill="#00b9d2"
   d="m 589.411,53.112 c -0.08,-0.087 -0.12,-0.197 -0.12,-0.33 v -21.16 c 0,-0.133 0.04,-0.243 0.12,-0.33 0.08,-0.087 0.187,-0.13 0.32,-0.13 h 0.739 c 0.134,0 0.243,0.043 0.33,0.13 0.087,0.087 0.13,0.197 0.13,0.33 v 21.16 c 0,0.133 -0.043,0.243 -0.13,0.33 -0.087,0.086 -0.196,0.13 -0.33,0.13 h -0.739 c -0.134,0 -0.24,-0.044 -0.32,-0.13 z"
   id="path180" />
					<path
   fill="#00b9d2"
   d="m 602.531,48.952 c -0.08,-0.087 -0.12,-0.196 -0.12,-0.33 v -11.28 l -3.36,2.58 c -0.093,0.08 -0.193,0.12 -0.3,0.12 -0.12,0 -0.233,-0.066 -0.34,-0.2 l -0.48,-0.62 c -0.066,-0.093 -0.1,-0.187 -0.1,-0.279 0,-0.146 0.066,-0.267 0.2,-0.36 l 4.34,-3.36 c 0.146,-0.093 0.32,-0.14 0.52,-0.14 h 0.94 c 0.133,0 0.243,0.043 0.33,0.13 0.087,0.087 0.13,0.197 0.13,0.33 v 13.08 c 0,0.134 -0.043,0.243 -0.13,0.33 -0.087,0.087 -0.197,0.13 -0.33,0.13 h -0.98 c -0.134,-10e-4 -0.24,-0.044 -0.32,-0.131 z"
   id="path182" />
					<path
   fill="#00b9d2"
   d="m 613.54,48.952 c -0.087,-0.087 -0.13,-0.196 -0.13,-0.33 v -2.92 h -6.5 c -0.134,0 -0.243,-0.043 -0.33,-0.13 -0.087,-0.087 -0.13,-0.197 -0.13,-0.33 v -0.74 c 0,-0.187 0.073,-0.387 0.22,-0.6 l 6.021,-8.48 c 0.066,-0.106 0.166,-0.189 0.3,-0.25 0.133,-0.06 0.28,-0.09 0.439,-0.09 h 1.36 c 0.146,0 0.26,0.04 0.34,0.12 0.08,0.08 0.12,0.193 0.12,0.34 v 8.48 h 1.82 c 0.133,0 0.243,0.043 0.33,0.13 0.086,0.087 0.13,0.196 0.13,0.33 v 0.76 c 0,0.133 -0.044,0.243 -0.13,0.33 -0.087,0.087 -0.197,0.13 -0.33,0.13 h -1.82 v 2.92 c 0,0.134 -0.043,0.243 -0.13,0.33 -0.087,0.087 -0.197,0.13 -0.33,0.13 h -0.92 c -0.134,0 -0.244,-0.043 -0.33,-0.13 z m -5.01,-4.89 h 4.899 v -6.961 z"
   id="path184" />
					<path
   fill="#00b9d2"
   d="m 621.41,48.772 c -0.76,-0.341 -1.337,-0.783 -1.729,-1.33 -0.394,-0.547 -0.604,-1.113 -0.63,-1.7 0,-0.12 0.04,-0.217 0.12,-0.29 0.079,-0.073 0.18,-0.11 0.3,-0.11 h 0.899 c 0.146,0 0.267,0.03 0.36,0.09 0.093,0.061 0.167,0.178 0.22,0.351 0.174,0.68 0.55,1.16 1.13,1.439 0.58,0.28 1.264,0.42 2.051,0.42 0.96,0 1.723,-0.229 2.29,-0.689 0.566,-0.46 0.85,-1.116 0.85,-1.97 0,-1.627 -0.993,-2.44 -2.98,-2.44 h -1.88 c -0.133,0 -0.243,-0.043 -0.33,-0.13 -0.087,-0.087 -0.13,-0.196 -0.13,-0.33 v -0.52 c 0,-0.2 0.073,-0.374 0.221,-0.521 l 3.899,-4.32 h -5.92 c -0.134,0 -0.243,-0.04 -0.33,-0.12 -0.087,-0.079 -0.13,-0.187 -0.13,-0.319 v -0.72 c 0,-0.147 0.043,-0.264 0.13,-0.351 0.087,-0.087 0.196,-0.13 0.33,-0.13 h 7.92 c 0.146,0 0.264,0.043 0.351,0.13 0.086,0.087 0.13,0.203 0.13,0.351 v 0.659 c 0,0.147 -0.067,0.301 -0.2,0.46 l -3.9,4.381 h 0.32 c 1.36,0.039 2.437,0.393 3.229,1.06 0.794,0.667 1.19,1.64 1.19,2.92 0,0.88 -0.217,1.637 -0.65,2.271 -0.433,0.633 -1.036,1.119 -1.81,1.46 -0.773,0.34 -1.646,0.51 -2.62,0.51 -1.041,-0.002 -1.941,-0.172 -2.701,-0.512 z"
   id="path186" />
					<path
   fill="#00b9d2"
   d="m 631.64,48.952 c -0.087,-0.087 -0.13,-0.196 -0.13,-0.33 v -1.38 c 0,-0.133 0.043,-0.247 0.13,-0.34 0.086,-0.094 0.196,-0.141 0.33,-0.141 h 1.38 c 0.133,0 0.243,0.047 0.33,0.141 0.086,0.093 0.13,0.207 0.13,0.34 v 1.38 c 0,0.134 -0.044,0.243 -0.13,0.33 -0.087,0.087 -0.197,0.13 -0.33,0.13 h -1.38 c -0.134,0 -0.244,-0.043 -0.33,-0.13 z"
   id="path188" />
					<path
   fill="#00b9d2"
   d="m 638.28,48.632 c -0.78,-0.433 -1.374,-1.017 -1.78,-1.75 -0.406,-0.733 -0.609,-1.533 -0.609,-2.399 0,-1.146 0.46,-2.373 1.38,-3.681 l 3.819,-5.319 c 0.014,-0.014 0.051,-0.061 0.11,-0.141 0.059,-0.08 0.137,-0.143 0.229,-0.189 0.094,-0.047 0.2,-0.07 0.32,-0.07 h 0.98 c 0.12,0 0.216,0.043 0.29,0.13 0.073,0.087 0.109,0.19 0.109,0.311 0,0.066 -0.033,0.153 -0.1,0.26 l -2.92,4.08 c 0.347,-0.08 0.733,-0.12 1.16,-0.12 0.973,0 1.83,0.217 2.569,0.649 0.74,0.434 1.313,1.007 1.721,1.721 0.406,0.713 0.609,1.497 0.609,2.35 0,0.854 -0.203,1.65 -0.609,2.39 -0.407,0.74 -0.997,1.33 -1.771,1.771 -0.774,0.441 -1.687,0.66 -2.74,0.66 -1.064,-0.003 -1.987,-0.22 -2.767,-0.653 z m 4.37,-1.37 c 0.493,-0.239 0.887,-0.597 1.18,-1.069 0.293,-0.474 0.44,-1.044 0.44,-1.71 0,-0.653 -0.15,-1.217 -0.45,-1.69 -0.3,-0.473 -0.697,-0.833 -1.19,-1.08 -0.493,-0.246 -1.026,-0.37 -1.6,-0.37 -0.574,0 -1.107,0.124 -1.601,0.37 -0.493,0.247 -0.887,0.607 -1.18,1.08 -0.293,0.474 -0.439,1.037 -0.439,1.69 0,0.666 0.146,1.236 0.439,1.71 0.293,0.473 0.687,0.83 1.18,1.069 0.493,0.24 1.027,0.36 1.601,0.36 0.587,0 1.126,-0.12 1.62,-0.36 z"
   id="path190" />
					<path
   fill="#00b9d2"
   d="m 653.459,48.952 c -0.087,-0.087 -0.13,-0.196 -0.13,-0.33 v -9.48 c 0,-0.133 0.043,-0.243 0.13,-0.329 0.087,-0.087 0.196,-0.131 0.33,-0.131 h 0.84 c 0.134,0 0.24,0.044 0.32,0.131 0.08,0.086 0.12,0.196 0.12,0.329 v 0.681 c 0.72,-0.894 1.693,-1.34 2.92,-1.34 1.467,0 2.507,0.613 3.12,1.84 0.319,-0.561 0.776,-1.007 1.37,-1.34 0.593,-0.334 1.256,-0.5 1.989,-0.5 1.094,0 1.987,0.373 2.681,1.119 0.692,0.747 1.04,1.827 1.04,3.24 v 5.78 c 0,0.134 -0.044,0.243 -0.13,0.33 -0.087,0.087 -0.197,0.13 -0.33,0.13 h -0.86 c -0.134,0 -0.243,-0.043 -0.33,-0.13 -0.087,-0.087 -0.13,-0.196 -0.13,-0.33 v -5.6 c 0,-1.067 -0.22,-1.83 -0.66,-2.29 -0.439,-0.46 -1.02,-0.69 -1.74,-0.69 -0.64,0 -1.189,0.237 -1.649,0.71 -0.46,0.474 -0.69,1.23 -0.69,2.271 v 5.6 c 0,0.134 -0.043,0.243 -0.13,0.33 -0.087,0.087 -0.197,0.13 -0.33,0.13 h -0.88 c -0.134,0 -0.243,-0.043 -0.33,-0.13 -0.087,-0.087 -0.13,-0.196 -0.13,-0.33 v -5.6 c 0,-1.054 -0.23,-1.813 -0.69,-2.28 -0.46,-0.467 -1.029,-0.7 -1.71,-0.7 -0.64,0 -1.189,0.233 -1.649,0.7 -0.46,0.467 -0.69,1.22 -0.69,2.26 v 5.62 c 0,0.134 -0.043,0.243 -0.13,0.33 -0.087,0.087 -0.197,0.13 -0.33,0.13 h -0.88 c -0.135,-10e-4 -0.245,-0.044 -0.332,-0.131 z"
   id="path192" />
					<path
   fill="#00b9d2"
   d="m 671.219,48.952 c -0.087,-0.087 -0.13,-0.196 -0.13,-0.33 v -9.48 c 0,-0.133 0.043,-0.243 0.13,-0.329 0.087,-0.087 0.196,-0.131 0.33,-0.131 h 0.84 c 0.134,0 0.24,0.044 0.32,0.131 0.08,0.086 0.12,0.196 0.12,0.329 v 0.681 c 0.72,-0.894 1.693,-1.34 2.92,-1.34 1.467,0 2.507,0.613 3.12,1.84 0.319,-0.561 0.776,-1.007 1.37,-1.34 0.593,-0.334 1.256,-0.5 1.989,-0.5 1.094,0 1.987,0.373 2.681,1.119 0.692,0.747 1.04,1.827 1.04,3.24 v 5.78 c 0,0.134 -0.044,0.243 -0.13,0.33 -0.087,0.087 -0.197,0.13 -0.33,0.13 h -0.86 c -0.134,0 -0.243,-0.043 -0.33,-0.13 -0.087,-0.087 -0.13,-0.196 -0.13,-0.33 v -5.6 c 0,-1.067 -0.22,-1.83 -0.66,-2.29 -0.439,-0.46 -1.02,-0.69 -1.74,-0.69 -0.64,0 -1.189,0.237 -1.649,0.71 -0.46,0.474 -0.69,1.23 -0.69,2.271 v 5.6 c 0,0.134 -0.043,0.243 -0.13,0.33 -0.087,0.087 -0.197,0.13 -0.33,0.13 h -0.88 c -0.134,0 -0.243,-0.043 -0.33,-0.13 -0.087,-0.087 -0.13,-0.196 -0.13,-0.33 v -5.6 c 0,-1.054 -0.23,-1.813 -0.69,-2.28 -0.46,-0.467 -1.029,-0.7 -1.71,-0.7 -0.64,0 -1.189,0.233 -1.649,0.7 -0.46,0.467 -0.69,1.22 -0.69,2.26 v 5.62 c 0,0.134 -0.043,0.243 -0.13,0.33 -0.087,0.087 -0.197,0.13 -0.33,0.13 h -0.88 c -0.135,-10e-4 -0.245,-0.044 -0.332,-0.131 z"
   id="path194" />
				</g>
			</g>
		</g>
		<g
   id="g231">
			<g
   id="POLYLINE_00000050623590659650550590000002516178990430031538_">
				
					<polyline
   fill="none"
   stroke="#00b9d2"
   stroke-width="2"
   stroke-linecap="round"
   stroke-linejoin="round"
   stroke-miterlimit="10"
   points="      757.198,639.655 762.925,633.928 757.198,628.201     "
   id="polyline201" />
			</g>
			<g
   id="POLYLINE_00000093135354864867587060000005040096313885165223_">
				
					<line
   fill="none"
   stroke="#00b9d2"
   stroke-width="2"
   stroke-linecap="round"
   stroke-linejoin="round"
   stroke-miterlimit="10"
   x1="762.00897"
   y1="633.92798"
   x2="733.31897"
   y2="633.92798"
   id="line204" />
			</g>
			<g
   id="POLYLINE_00000101102444370013263330000012243020040236119433_">
				
					<polyline
   fill="none"
   stroke="#00b9d2"
   stroke-width="2"
   stroke-linecap="round"
   stroke-linejoin="round"
   stroke-miterlimit="10"
   points="      739.058,639.644 733.331,633.917 739.058,628.191     "
   id="polyline207" />
			</g>
			<g
   id="MTEXT_00000086678737128338145190000007271589785393734027_"
   opacity="0.98">
				<g
   id="g228">
					<path
   fill="#00b9d2"
   d="m 776.839,640.951 c -0.087,-0.087 -0.13,-0.196 -0.13,-0.33 v -1.38 c 0,-0.133 0.043,-0.247 0.13,-0.34 0.086,-0.094 0.196,-0.141 0.33,-0.141 h 1.38 c 0.133,0 0.243,0.047 0.33,0.141 0.086,0.093 0.13,0.207 0.13,0.34 v 1.38 c 0,0.134 -0.044,0.243 -0.13,0.33 -0.087,0.087 -0.197,0.13 -0.33,0.13 h -1.38 c -0.133,0 -0.244,-0.043 -0.33,-0.13 z"
   id="path210" />
					<path
   fill="#00b9d2"
   d="m 783.569,640.771 c -0.76,-0.341 -1.337,-0.783 -1.729,-1.33 -0.394,-0.547 -0.604,-1.113 -0.63,-1.7 0,-0.12 0.04,-0.217 0.12,-0.29 0.079,-0.073 0.18,-0.11 0.3,-0.11 h 0.899 c 0.146,0 0.267,0.03 0.36,0.09 0.093,0.061 0.167,0.178 0.22,0.351 0.174,0.68 0.55,1.16 1.13,1.439 0.58,0.28 1.264,0.42 2.051,0.42 0.96,0 1.723,-0.229 2.29,-0.689 0.566,-0.46 0.85,-1.116 0.85,-1.97 0,-1.627 -0.993,-2.44 -2.98,-2.44 h -1.88 c -0.133,0 -0.243,-0.043 -0.33,-0.13 -0.087,-0.087 -0.13,-0.196 -0.13,-0.33 v -0.52 c 0,-0.2 0.073,-0.374 0.221,-0.521 l 3.899,-4.32 h -5.92 c -0.134,0 -0.243,-0.04 -0.33,-0.12 -0.087,-0.079 -0.13,-0.187 -0.13,-0.319 v -0.72 c 0,-0.147 0.043,-0.264 0.13,-0.351 0.087,-0.087 0.196,-0.13 0.33,-0.13 h 7.92 c 0.146,0 0.264,0.043 0.351,0.13 0.086,0.087 0.13,0.203 0.13,0.351 v 0.659 c 0,0.147 -0.067,0.301 -0.2,0.46 l -3.9,4.381 h 0.32 c 1.36,0.039 2.437,0.393 3.229,1.06 0.794,0.667 1.19,1.64 1.19,2.92 0,0.88 -0.217,1.637 -0.65,2.271 -0.433,0.633 -1.036,1.119 -1.81,1.46 -0.773,0.34 -1.646,0.51 -2.62,0.51 -1.041,-0.002 -1.94,-0.172 -2.701,-0.512 z"
   id="path212" />
					<path
   fill="#00b9d2"
   d="m 793.519,630.562 c -0.06,-0.08 -0.077,-0.181 -0.05,-0.301 l 0.439,-2.8 c 0.054,-0.387 0.24,-0.58 0.561,-0.58 h 1.28 c 0.093,0 0.17,0.033 0.229,0.101 0.061,0.066 0.09,0.146 0.09,0.239 0,0.134 -0.02,0.24 -0.06,0.32 l -1.04,2.7 c -0.067,0.146 -0.141,0.257 -0.22,0.33 -0.08,0.073 -0.2,0.109 -0.36,0.109 h -0.62 c -0.105,0.001 -0.189,-0.039 -0.249,-0.118 z m 3.14,0 c -0.06,-0.08 -0.076,-0.181 -0.05,-0.301 l 0.44,-2.8 c 0.053,-0.387 0.24,-0.58 0.56,-0.58 h 1.28 c 0.093,0 0.17,0.033 0.229,0.101 0.061,0.066 0.091,0.146 0.091,0.239 0,0.134 -0.021,0.24 -0.061,0.32 l -1.04,2.7 c -0.066,0.146 -0.14,0.257 -0.22,0.33 -0.08,0.073 -0.2,0.109 -0.36,0.109 h -0.62 c -0.106,0.001 -0.189,-0.039 -0.249,-0.118 z"
   id="path214" />
					<path
   fill="#00b9d2"
   d="m 806.529,645.111 c -0.08,-0.087 -0.12,-0.197 -0.12,-0.33 v -21.16 c 0,-0.133 0.04,-0.243 0.12,-0.33 0.08,-0.087 0.187,-0.13 0.32,-0.13 h 0.739 c 0.134,0 0.243,0.043 0.33,0.13 0.087,0.087 0.13,0.197 0.13,0.33 v 21.16 c 0,0.133 -0.043,0.243 -0.13,0.33 -0.087,0.086 -0.196,0.13 -0.33,0.13 h -0.739 c -0.134,0 -0.24,-0.044 -0.32,-0.13 z"
   id="path216" />
					<path
   fill="#00b9d2"
   d="m 817.158,640.951 c -0.073,-0.087 -0.11,-0.19 -0.11,-0.311 l 0.04,-0.18 5,-11.7 h -6.6 c -0.134,0 -0.243,-0.043 -0.33,-0.13 -0.087,-0.086 -0.13,-0.196 -0.13,-0.33 v -0.739 c 0,-0.147 0.04,-0.264 0.12,-0.351 0.08,-0.087 0.193,-0.13 0.34,-0.13 h 8.16 c 0.146,0 0.26,0.043 0.34,0.13 0.08,0.087 0.12,0.203 0.12,0.351 v 0.68 c 0,0.24 -0.054,0.5 -0.16,0.78 l -4.94,11.56 c -0.066,0.146 -0.14,0.267 -0.22,0.36 -0.08,0.093 -0.193,0.14 -0.34,0.14 h -1 c -0.12,0 -0.217,-0.043 -0.29,-0.13 z"
   id="path218" />
					<path
   fill="#00b9d2"
   d="m 824.818,640.951 c -0.087,-0.087 -0.13,-0.196 -0.13,-0.33 v -1.38 c 0,-0.133 0.043,-0.247 0.13,-0.34 0.086,-0.094 0.196,-0.141 0.33,-0.141 h 1.38 c 0.133,0 0.243,0.047 0.33,0.141 0.086,0.093 0.13,0.207 0.13,0.34 v 1.38 c 0,0.134 -0.044,0.243 -0.13,0.33 -0.087,0.087 -0.197,0.13 -0.33,0.13 h -1.38 c -0.134,0 -0.244,-0.043 -0.33,-0.13 z"
   id="path220" />
					<path
   fill="#00b9d2"
   d="m 830.438,640.951 c -0.073,-0.087 -0.11,-0.19 -0.11,-0.311 l 0.04,-0.18 5,-11.7 h -6.6 c -0.134,0 -0.243,-0.043 -0.33,-0.13 -0.087,-0.086 -0.13,-0.196 -0.13,-0.33 v -0.739 c 0,-0.147 0.04,-0.264 0.12,-0.351 0.08,-0.087 0.193,-0.13 0.34,-0.13 h 8.16 c 0.146,0 0.26,0.043 0.34,0.13 0.08,0.087 0.12,0.203 0.12,0.351 v 0.68 c 0,0.24 -0.054,0.5 -0.16,0.78 l -4.94,11.56 c -0.066,0.146 -0.14,0.267 -0.22,0.36 -0.08,0.093 -0.193,0.14 -0.34,0.14 h -1 c -0.12,0 -0.217,-0.043 -0.29,-0.13 z"
   id="path222" />
					<path
   fill="#00b9d2"
   d="m 844.477,640.951 c -0.087,-0.087 -0.13,-0.196 -0.13,-0.33 v -9.48 c 0,-0.133 0.043,-0.243 0.13,-0.329 0.087,-0.087 0.196,-0.131 0.33,-0.131 h 0.84 c 0.134,0 0.24,0.044 0.32,0.131 0.08,0.086 0.12,0.196 0.12,0.329 v 0.681 c 0.72,-0.894 1.693,-1.34 2.92,-1.34 1.467,0 2.507,0.613 3.12,1.84 0.319,-0.561 0.776,-1.007 1.37,-1.34 0.593,-0.334 1.256,-0.5 1.989,-0.5 1.094,0 1.987,0.373 2.681,1.119 0.692,0.747 1.04,1.827 1.04,3.24 v 5.78 c 0,0.134 -0.044,0.243 -0.13,0.33 -0.087,0.087 -0.197,0.13 -0.33,0.13 h -0.86 c -0.134,0 -0.243,-0.043 -0.33,-0.13 -0.087,-0.087 -0.13,-0.196 -0.13,-0.33 v -5.6 c 0,-1.067 -0.22,-1.83 -0.66,-2.29 -0.439,-0.46 -1.02,-0.69 -1.74,-0.69 -0.64,0 -1.189,0.237 -1.649,0.71 -0.46,0.474 -0.69,1.23 -0.69,2.271 v 5.6 c 0,0.134 -0.043,0.243 -0.13,0.33 -0.087,0.087 -0.197,0.13 -0.33,0.13 h -0.88 c -0.134,0 -0.243,-0.043 -0.33,-0.13 -0.087,-0.087 -0.13,-0.196 -0.13,-0.33 v -5.6 c 0,-1.054 -0.23,-1.813 -0.69,-2.28 -0.46,-0.467 -1.029,-0.7 -1.71,-0.7 -0.64,0 -1.189,0.233 -1.649,0.7 -0.46,0.467 -0.69,1.22 -0.69,2.26 v 5.62 c 0,0.134 -0.043,0.243 -0.13,0.33 -0.087,0.087 -0.197,0.13 -0.33,0.13 h -0.88 c -0.136,-10e-4 -0.245,-0.044 -0.332,-0.131 z"
   id="path224" />
					<path
   fill="#00b9d2"
   d="m 862.237,640.951 c -0.087,-0.087 -0.13,-0.196 -0.13,-0.33 v -9.48 c 0,-0.133 0.043,-0.243 0.13,-0.329 0.087,-0.087 0.196,-0.131 0.33,-0.131 h 0.84 c 0.134,0 0.24,0.044 0.32,0.131 0.08,0.086 0.12,0.196 0.12,0.329 v 0.681 c 0.72,-0.894 1.693,-1.34 2.92,-1.34 1.467,0 2.507,0.613 3.12,1.84 0.319,-0.561 0.776,-1.007 1.37,-1.34 0.593,-0.334 1.256,-0.5 1.989,-0.5 1.094,0 1.987,0.373 2.681,1.119 0.692,0.747 1.04,1.827 1.04,3.24 v 5.78 c 0,0.134 -0.044,0.243 -0.13,0.33 -0.087,0.087 -0.197,0.13 -0.33,0.13 h -0.86 c -0.134,0 -0.243,-0.043 -0.33,-0.13 -0.087,-0.087 -0.13,-0.196 -0.13,-0.33 v -5.6 c 0,-1.067 -0.22,-1.83 -0.66,-2.29 -0.439,-0.46 -1.02,-0.69 -1.74,-0.69 -0.64,0 -1.189,0.237 -1.649,0.71 -0.46,0.474 -0.69,1.23 -0.69,2.271 v 5.6 c 0,0.134 -0.043,0.243 -0.13,0.33 -0.087,0.087 -0.197,0.13 -0.33,0.13 h -0.88 c -0.134,0 -0.243,-0.043 -0.33,-0.13 -0.087,-0.087 -0.13,-0.196 -0.13,-0.33 v -5.6 c 0,-1.054 -0.23,-1.813 -0.69,-2.28 -0.46,-0.467 -1.029,-0.7 -1.71,-0.7 -0.64,0 -1.189,0.233 -1.649,0.7 -0.46,0.467 -0.69,1.22 -0.69,2.26 v 5.62 c 0,0.134 -0.043,0.243 -0.13,0.33 -0.087,0.087 -0.197,0.13 -0.33,0.13 h -0.88 c -0.136,-10e-4 -0.245,-0.044 -0.332,-0.131 z"
   id="path226" />
				</g>
			</g>
		</g>
	</g>
</g>
<g
   id="N-TEXT"
   transform="translate(-58.145,-63.192277)"
   style="stroke:#000000;stroke-opacity:1">
</g>
<g
   id="_x32_D_x24_AG-DIAGRAM"
   transform="translate(-58.145,-63.192277)"
   style="stroke:#000000;stroke-opacity:1">
</g>
<g
   id="_x32_D_x24_AG-DETAILS-DIAGRAM"
   transform="translate(-58.145,-63.192277)"
   style="stroke:#000000;stroke-opacity:1">
</g>
<g
   id="POLYLINE_00000075883744919110731370000016188126584809574792_"
   transform="translate(-58.145,-63.192277)"
   style="stroke:#000000;stroke-opacity:1">
		<path
   fill="none"
   stroke="#00b9d2"
   stroke-width="2"
   stroke-linecap="round"
   stroke-linejoin="round"
   stroke-miterlimit="10"
   d="m 138.018,83.584 c -0.009,-2.455 1.692,-4.64 4.074,-5.234 3.391,-0.855 6.691,1.69 6.724,5.187 0.027,3.537 -3.295,6.145 -6.724,5.281 -2.382,-0.595 -4.083,-2.779 -4.074,-5.234 z"
   id="path305"
   style="stroke:#000000;stroke-opacity:1" />
	</g><g
   id="POLYLINE_00000114055449105560729110000002890045618417114552_"
   transform="translate(-58.145,-63.192277)"
   style="stroke:#000000;stroke-opacity:1">
		<path
   fill="none"
   stroke="#00b9d2"
   stroke-width="2"
   stroke-linecap="round"
   stroke-linejoin="round"
   stroke-miterlimit="10"
   d="m 160.194,83.584 c -0.002,-1.017 0.346,-2.03 0.972,-2.831 0.623,-0.804 1.52,-1.39 2.506,-1.637 2.928,-0.738 5.763,1.489 5.74,4.508 -0.029,2.986 -2.845,5.158 -5.74,4.428 -0.986,-0.247 -1.883,-0.834 -2.506,-1.637 -0.627,-0.801 -0.975,-1.815 -0.972,-2.831 z"
   id="path308"
   style="stroke:#000000;stroke-opacity:1" />
	</g><g
   id="POLYLINE_00000000927383233618590100000000937783840413530756_"
   transform="translate(-58.145,-63.192277)"
   style="stroke:#000000;stroke-opacity:1">
		<path
   fill="none"
   stroke="#00b9d2"
   stroke-width="2"
   stroke-linecap="round"
   stroke-linejoin="round"
   stroke-miterlimit="10"
   d="m 251.079,83.584 c 0.009,-2.763 -1.901,-5.216 -4.581,-5.886 -3.816,-0.961 -7.522,1.898 -7.562,5.833 -0.028,3.979 3.703,6.909 7.562,5.939 2.68,-0.67 4.589,-3.124 4.581,-5.886 z"
   id="path311"
   style="stroke:#000000;stroke-opacity:1" />
	</g><g
   id="POLYLINE_00000076583293156847514530000003374124403760079027_"
   transform="translate(-58.145,-63.192277)"
   style="stroke:#000000;stroke-opacity:1">
		<path
   fill="none"
   stroke="#00b9d2"
   stroke-width="2"
   stroke-linecap="round"
   stroke-linejoin="round"
   stroke-miterlimit="10"
   d="m 229.47,83.584 c 0.002,-1.017 -0.346,-2.03 -0.972,-2.831 -0.623,-0.804 -1.52,-1.39 -2.506,-1.637 -2.928,-0.738 -5.763,1.489 -5.74,4.508 0.029,2.986 2.845,5.158 5.74,4.428 0.986,-0.247 1.883,-0.834 2.506,-1.637 0.627,-0.801 0.975,-1.815 0.972,-2.831 z"
   id="path314"
   style="stroke:#000000;stroke-opacity:1" />
	</g><g
   id="POLYLINE_00000146471237951222081950000014500759457686811563_"
   transform="translate(-58.145,-63.192277)"
   style="stroke:#000000;stroke-opacity:1">
		<path
   fill="none"
   stroke="#00b9d2"
   stroke-width="2"
   stroke-linecap="round"
   stroke-linejoin="round"
   stroke-miterlimit="10"
   d="m 100.835,601.115 c -10.74,0.025 -21.085,-5.062 -27.617,-13.594 -2.072,-2.695 -3.763,-5.718 -4.967,-8.897 -1.133,-2.991 -1.86,-6.167 -2.135,-9.354 -0.073,-0.978 -0.136,-2.027 -0.13,-3.004 -0.129,-0.365 0.087,-462.104 0.005,-462.487 0,-0.002 0.016,-0.603 0.016,-0.603 0,0 0.026,-0.601 0.026,-0.601 0,0 0.036,-0.6 0.036,-0.6 0.088,-1.157 0.229,-2.436 0.435,-3.581 0.55,-3.148 1.545,-6.256 2.933,-9.135 3.465,-7.238 9.523,-13.196 16.822,-16.534 2.539,-1.166 5.254,-2.043 7.999,-2.568 1.754,-0.33 3.59,-0.548 5.374,-0.606 0.295,-0.033 0.906,-0.004 1.203,-0.021 0.612,0.027 188.035,-0.025 188.595,0.005 1.783,0.037 3.63,0.202 5.386,0.513 10.168,1.748 19.209,8.1 24.294,17.08 1.682,2.954 2.94,6.181 3.695,9.496 0.485,2.138 0.779,4.361 0.853,6.552 0.208,1.733 -0.1,461.776 0.016,463.691 -0.04,2.186 -0.289,4.427 -0.74,6.566 -0.658,3.127 -1.76,6.199 -3.247,9.028 -3.529,6.756 -9.35,12.286 -16.281,15.459 -2.356,1.081 -4.871,1.919 -7.409,2.45 -1.351,0.273 -2.789,0.503 -4.163,0.615 -0.54,0.035 -1.261,0.098 -1.801,0.109 -0.295,0.033 -0.906,0.004 -1.203,0.021 -10e-4,0 -187.995,0 -187.995,0 z"
   id="path317"
   style="stroke:#000000;stroke-opacity:1" />
	</g>
<g
   id="POLYLINE_00000011744545856806321630000003554598138594802363_"
   transform="translate(-58.145,-63.192277)"
   style="stroke:#000000;stroke-opacity:1">
		
			<path
   fill="none"
   stroke="#00b9d2"
   stroke-width="2.5"
   stroke-linecap="round"
   stroke-linejoin="round"
   stroke-miterlimit="10"
   d="m 126.951,80.698 c 1.036,-0.004 2.053,0.505 2.666,1.341 0.331,0.445 0.547,0.973 0.623,1.522 0.096,0.997 -0.033,3.679 0.071,4.645 0.315,3.61 2.693,6.786 6.061,8.108 0.892,0.354 1.84,0.573 2.796,0.648 0.249,0.025 0.508,0.026 0.758,0.03 0.102,-0.014 109.826,0.011 109.921,-0.001 0.17,0.006 0.371,-0.015 0.541,-0.021 1.113,-0.074 2.217,-0.346 3.238,-0.795 2.56,-1.111 4.574,-3.39 5.361,-6.068 0.174,-0.581 0.295,-1.188 0.356,-1.791 0,0 0.011,-0.11 0.011,-0.11 0,0 0.009,-0.11 0.009,-0.11 0,0 0.008,-0.109 0.008,-0.109 0,0 0.007,-0.109 0.007,-0.109 0,0 0.005,-0.109 0.005,-0.109 0,0 0.004,-0.108 0.004,-0.108 0,0 0.003,-0.108 0.003,-0.108 l 0.002,-0.107 c 0,0 10e-4,-0.107 10e-4,-0.107 v -3.32 c 0,0 0,-0.057 0,-0.057 0,0 0.001,-0.057 0.001,-0.057 0,0 0.002,-0.057 0.002,-0.057 0.015,-0.303 0.075,-0.61 0.173,-0.898 0.196,-0.578 0.557,-1.102 1.029,-1.49 0.397,-0.328 0.874,-0.563 1.376,-0.677 0.221,-0.049 0.454,-0.08 0.681,-0.083 0.053,-0.001 26.116,0 26.174,-0.001 0.088,0.007 0.424,-0.002 0.525,0.006 1.169,0.027 2.357,0.14 3.509,0.34 10.737,1.847 18.871,10.861 19.593,21.745 0.019,0.434 0.054,0.895 0.052,1.328 -0.443,1.807 0.351,461.548 -0.023,463.205 -0.057,1.27 -0.218,2.56 -0.48,3.804 -0.417,1.987 -1.095,3.935 -2.006,5.75 -2.393,4.802 -6.476,8.737 -11.367,10.946 -1.918,0.87 -3.963,1.492 -6.044,1.824 -0.712,0.102 -1.452,0.208 -2.17,0.247 -0.425,0.036 -0.901,0.042 -1.328,0.052 -0.573,0.196 -187.933,-0.136 -188.519,0 -0.793,-0.016 -1.619,-0.055 -2.407,-0.15 -2.459,-0.279 -4.883,-0.948 -7.135,-1.974 -5.995,-2.707 -10.689,-7.953 -12.709,-14.212 -0.578,-1.775 -0.949,-3.625 -1.094,-5.485 -0.036,-0.424 -0.056,-0.907 -0.067,-1.333 -0.209,-0.356 0.136,-462.193 -0.005,-462.674 0.022,-1.918 0.279,-3.846 0.762,-5.702 0.644,-2.475 1.697,-4.854 3.097,-6.995 1.559,-2.385 3.559,-4.492 5.862,-6.171 2.623,-1.916 5.652,-3.285 8.823,-3.988 1.249,-0.275 2.536,-0.456 3.813,-0.527 0.33,-0.027 0.729,-0.026 1.06,-0.036 0,0 0.262,-0.001 0.262,-0.001 0,0 26.118,0 26.118,0 z"
   id="path450"
   style="stroke:#000000;stroke-opacity:1" />
	</g><g
   id="POLYLINE_00000040556516616126355270000012266830676874232756_"
   transform="translate(-58.145,-63.192277)"
   style="stroke:#000000;stroke-opacity:1">
		
			<rect
   x="328.38699"
   y="188.99899"
   fill="none"
   stroke="#00b9d2"
   stroke-width="2.5"
   stroke-linecap="round"
   stroke-linejoin="round"
   stroke-miterlimit="10"
   width="1.507"
   height="63.104"
   id="rect453"
   style="stroke:#000000;stroke-opacity:1" />
	</g><g
   id="POLYLINE_00000020370331887058857730000007172704888880419745_"
   transform="translate(-58.145,-63.192277)"
   style="stroke:#000000;stroke-opacity:1">
		
			<rect
   x="59.77"
   y="140.25101"
   fill="none"
   stroke="#00b9d2"
   stroke-width="2.5"
   stroke-linecap="round"
   stroke-linejoin="round"
   stroke-miterlimit="10"
   width="1.507"
   height="20.721001"
   id="rect456"
   style="stroke:#000000;stroke-opacity:1" />
	</g><g
   id="POLYLINE_00000078741856752691724040000010870227948971822212_"
   transform="translate(-58.145,-63.192277)"
   style="stroke:#000000;stroke-opacity:1">
		
			<rect
   x="59.77"
   y="180.017"
   fill="none"
   stroke="#00b9d2"
   stroke-width="2.5"
   stroke-linecap="round"
   stroke-linejoin="round"
   stroke-miterlimit="10"
   width="1.507"
   height="38.616001"
   id="rect459"
   style="stroke:#000000;stroke-opacity:1" />
	</g><g
   id="POLYLINE_00000113343496171316609410000003329961241888395918_"
   transform="translate(-58.145,-63.192277)"
   style="stroke:#000000;stroke-opacity:1">
		
			<rect
   x="59.77"
   y="227.53799"
   fill="none"
   stroke="#00b9d2"
   stroke-width="2.5"
   stroke-linecap="round"
   stroke-linejoin="round"
   stroke-miterlimit="10"
   width="1.507"
   height="38.616001"
   id="rect462"
   style="stroke:#000000;stroke-opacity:1" />
	</g><g
   id="POLYLINE_00000053506990927287667800000005256529342371688866_"
   transform="translate(-58.145,-63.192277)"
   style="stroke:#000000;stroke-opacity:1">
		
			<path
   fill="none"
   stroke="#00b9d2"
   stroke-width="2.5"
   stroke-linecap="round"
   stroke-linejoin="round"
   stroke-miterlimit="10"
   d="m 207.971,80.698 c 1.744,-0.002 3.101,1.551 2.858,3.283 -0.081,0.592 -0.353,1.157 -0.766,1.59 -0.411,0.434 -0.961,0.735 -1.548,0.847 -0.145,0.028 -0.297,0.045 -0.445,0.05 -0.038,0.017 -26.315,-0.008 -26.377,0.002 -0.215,0 -0.433,-0.025 -0.642,-0.072 -0.307,-0.07 -0.604,-0.192 -0.872,-0.357 -0.797,-0.485 -1.325,-1.375 -1.368,-2.307 -0.059,-0.999 0.446,-2.004 1.284,-2.552 0.262,-0.174 0.555,-0.306 0.859,-0.387 0.192,-0.051 0.392,-0.082 0.589,-0.092 0.049,-0.032 26.342,0.013 26.428,-0.005 z"
   id="path465"
   style="stroke:#000000;stroke-opacity:1" />
	</g><g
   id="POLYLINE_00000049922661112462654410000012813972673981002383_"
   transform="translate(-58.145,-63.192277)"
   style="stroke:#000000;stroke-opacity:1">
		
			<path
   fill="none"
   stroke="#00b9d2"
   stroke-width="2.5"
   stroke-linecap="round"
   stroke-linejoin="round"
   stroke-miterlimit="10"
   d="m 100.835,605.824 c -12.439,0.026 -24.365,-5.967 -31.761,-15.976 -2.299,-3.099 -4.159,-6.563 -5.463,-10.195 -1.227,-3.417 -1.99,-7.036 -2.24,-10.658 0,0 -0.041,-0.682 -0.041,-0.682 0,0 -0.029,-0.682 -0.029,-0.682 0,0 -0.018,-0.683 -0.018,-0.683 -0.362,-0.143 0.249,-462.237 -0.007,-462.57 0.011,-1.078 0.047,-2.332 0.148,-3.41 0.14,-1.548 0.374,-3.203 0.698,-4.726 0.794,-3.773 2.156,-7.467 4.008,-10.85 4.353,-8.002 11.571,-14.399 20.041,-17.754 3.159,-1.258 6.519,-2.122 9.896,-2.53 1.325,-0.146 2.752,-0.269 4.085,-0.283 0.409,-0.656 188.152,0.46 188.678,-0.007 0,0.001 0.682,0.007 0.682,0.007 0,0 0.683,0.018 0.683,0.018 0,0 0.682,0.029 0.682,0.029 2.938,0.156 5.909,0.641 8.739,1.446 9.893,2.774 18.525,9.534 23.585,18.477 2.589,4.542 4.271,9.623 4.898,14.813 0.153,1.332 0.264,2.747 0.283,4.085 0.362,0.143 -0.249,462.237 0.007,462.569 -0.001,0 -0.007,0.683 -0.007,0.683 0,0 -0.018,0.683 -0.018,0.683 0,0 -0.029,0.682 -0.029,0.682 -0.258,4.991 -1.48,9.959 -3.574,14.498 -3.791,8.283 -10.55,15.163 -18.768,19.095 -2.653,1.274 -5.491,2.273 -8.361,2.926 -1.752,0.391 -3.603,0.695 -5.393,0.845 -0.612,0.044 -1.432,0.108 -2.045,0.124 0,0 -0.683,0.018 -0.683,0.018 0,0 -0.683,0.006 -0.683,0.006 0,0 -187.993,0.002 -187.993,0.002 z"
   id="path468"
   style="stroke:#000000;stroke-opacity:1" />
	</g>
<g
   id="POLYLINE_00000063622719096317158830000015693893099602697125_"
   transform="translate(-58.145,-63.192277)"
   style="stroke:#000000;stroke-opacity:1">
		
			<path
   fill="none"
   stroke="#00b9d2"
   stroke-width="3.25"
   stroke-linecap="round"
   stroke-linejoin="round"
   stroke-miterlimit="10"
   d="m 61.277,140.251 c 0,0 0,-35.872 0,-35.872 0.011,-0.394 10e-4,-0.927 0.022,-1.32 0.027,-0.399 0.031,-0.938 0.067,-1.336 0.145,-2.139 0.467,-4.296 0.957,-6.383 1.624,-6.959 5.187,-13.457 10.18,-18.568 5.871,-6.048 13.726,-10.127 22.05,-11.449 1.484,-0.238 3.017,-0.396 4.518,-0.463 0.564,-0.023 1.203,-0.041 1.764,-0.039 1.403,0.016 187.607,-0.023 188.872,0.01 1.022,0.023 2.111,0.09 3.129,0.194 4.264,0.433 8.471,1.571 12.371,3.346 5.7,2.587 10.774,6.56 14.653,11.474 2.991,3.78 5.288,8.126 6.725,12.728 0.652,2.091 1.141,4.268 1.437,6.439 0.178,1.326 0.302,2.71 0.344,4.048 -0.159,1.729 0.161,81.749 0.022,85.94 h 1.507 v 63.104 h -1.507 c 0,0 0,314.163 0,314.163 -0.011,0.394 -0.002,0.927 -0.022,1.32 -0.047,1.339 -0.161,2.721 -0.344,4.048 -0.129,0.898 -0.286,1.863 -0.476,2.75 -0.196,0.906 -0.426,1.877 -0.685,2.767 -1.087,3.801 -2.757,7.453 -4.921,10.762 -4.337,6.657 -10.737,11.947 -18.093,14.95 -3.508,1.44 -7.239,2.375 -11.011,2.758 -12.616,0.507 -186.368,0.105 -193.764,0.164 -3.884,-0.173 -7.758,-0.927 -11.424,-2.224 -8.115,-2.85 -15.232,-8.44 -19.923,-15.649 -2.599,-3.973 -4.479,-8.433 -5.507,-13.068 -0.362,-1.643 -0.632,-3.348 -0.781,-5.024 -0.293,-2.496 -0.109,-7.818 -0.16,-10.357 0,0 0,-293.309 0,-293.309 H 59.77 v -38.616 h 1.507 v -8.905 H 59.77 v -38.616 h 1.507 V 160.973 H 59.77 v -20.721 h 1.507 z"
   id="path508"
   style="stroke:#000000;stroke-opacity:1" />
	</g>
</svg>
