<?xml version="1.0" encoding="UTF-8" standalone="no"?>
<svg
   xmlns:ns="&amp;#38;ns_sfw;"
   xmlns:dc="http://purl.org/dc/elements/1.1/"
   xmlns:cc="http://creativecommons.org/ns#"
   xmlns:rdf="http://www.w3.org/1999/02/22-rdf-syntax-ns#"
   xmlns:svg="http://www.w3.org/2000/svg"
   xmlns="http://www.w3.org/2000/svg"
   xmlns:sodipodi="http://sodipodi.sourceforge.net/DTD/sodipodi-0.dtd"
   xmlns:inkscape="http://www.inkscape.org/namespaces/inkscape"
   version="1.1"
   x="0px"
   y="0px"
   viewBox="0 0 290.62 602.37"
   enable-background="new 0 0 1000 775"
   xml:space="preserve"
   id="svg360"
   sodipodi:docname="s10.svg"
   inkscape:version="1.0.1 (3bc2e813f5, 2020-09-07)"
   width="290.62"
   height="602.37"><polygon
   fill="none"
   stroke="#00b9d2"
   stroke-width="3.25"
   stroke-linecap="round"
   stroke-linejoin="round"
   stroke-miterlimit="10"
   points="379.853,114.12 379.835,113.825 379.813,113.53 379.788,113.233 379.76,112.936 379.728,112.638 379.692,112.339 379.653,112.039 379.61,111.739 379.563,111.437 379.513,111.136 379.459,110.833 379.401,110.531 379.339,110.228 379.274,109.924 379.204,109.621 379.131,109.317 379.054,109.013 378.973,108.709 378.888,108.405 378.799,108.101 378.706,107.798 378.609,107.494 378.508,107.191 378.403,106.889 378.294,106.586 378.181,106.285 378.064,105.984 377.943,105.683 377.818,105.384 377.689,105.085 377.556,104.787 377.419,104.491 377.277,104.195 377.132,103.901 376.983,103.607 376.83,103.316 376.672,103.025 376.511,102.736 376.346,102.449 376.177,102.163 376.004,101.879 375.827,101.597 375.646,101.317 375.462,101.038 375.274,100.762 375.082,100.488 374.886,100.216 374.686,99.946 374.483,99.679 374.277,99.414 374.066,99.152 373.853,98.892 373.635,98.635 373.415,98.38 373.191,98.128 372.963,97.879 372.733,97.633 372.499,97.39 372.262,97.15 372.022,96.913 371.779,96.68 371.533,96.449 371.284,96.222 371.032,95.998 370.778,95.777 370.521,95.56 370.261,95.346 369.998,95.136 369.733,94.929 369.466,94.726 369.196,94.527 368.924,94.331 368.65,94.139 368.374,93.951 368.096,93.766 367.816,93.585 367.533,93.408 367.249,93.236 366.964,93.066 366.676,92.901 366.387,92.74 366.097,92.583 365.805,92.43 365.512,92.28 365.217,92.135 364.922,91.994 364.625,91.857 364.327,91.724 364.029,91.594 363.729,91.469 363.429,91.348 363.128,91.231 362.826,91.118 362.524,91.009 362.221,90.904 361.918,90.803 361.615,90.706 361.311,90.614 361.007,90.525 360.703,90.44 360.399,90.359 360.095,90.281 359.792,90.208 359.488,90.139 359.185,90.073 358.882,90.012 358.579,89.954 358.277,89.9 357.975,89.849 357.674,89.803 357.373,89.76 357.074,89.72 356.775,89.685 356.476,89.653 356.179,89.624 355.883,89.599 355.587,89.578 355.293,89.559 354.999,89.545 354.707,89.533 354.416,89.525 354.126,89.52 353.838,89.519 124.575,89.519 124.286,89.52 123.996,89.525 123.705,89.533 123.413,89.545 123.12,89.559 122.825,89.578 122.53,89.599 122.233,89.624 121.936,89.653 121.638,89.685 121.339,89.72 121.039,89.76 120.739,89.803 120.437,89.849 120.136,89.9 119.833,89.954 119.531,90.012 119.228,90.073 118.924,90.139 118.621,90.208 118.317,90.281 118.013,90.359 117.709,90.44 117.405,90.525 117.101,90.614 116.798,90.706 116.494,90.803 116.191,90.904 115.889,91.009 115.586,91.118 115.285,91.231 114.984,91.348 114.683,91.469 114.384,91.594 114.085,91.724 113.787,91.857 113.491,91.994 113.195,92.135 112.901,92.28 112.607,92.43 112.316,92.583 112.025,92.74 111.736,92.901 111.449,93.066 111.163,93.236 110.879,93.408 110.597,93.585 110.317,93.766 110.038,93.951 109.762,94.139 109.488,94.331 109.216,94.527 108.946,94.726 108.679,94.929 108.414,95.136 108.152,95.346 107.892,95.56 107.635,95.777 107.38,95.998 107.128,96.222 106.879,96.449 106.633,96.68 106.39,96.913 106.15,97.15 105.913,97.39 105.68,97.633 105.449,97.879 105.222,98.128 104.998,98.38 104.777,98.635 104.56,98.892 104.346,99.152 104.136,99.414 103.929,99.679 103.726,99.946 103.527,100.216 103.331,100.488 103.139,100.762 102.951,101.038 102.766,101.317 102.585,101.597 102.408,101.879 102.236,102.163 102.066,102.449 101.901,102.736 101.74,103.025 101.583,103.316 101.43,103.607 101.28,103.901 101.135,104.195 100.994,104.491 100.857,104.787 100.724,105.085 100.594,105.384 100.469,105.683 100.348,105.984 100.231,106.285 100.118,106.586 100.009,106.889 99.904,107.191 99.803,107.494 99.706,107.798 99.614,108.101 99.525,108.405 99.44,108.709 99.359,109.013 99.281,109.317 99.208,109.621 99.139,109.924 99.073,110.228 99.012,110.531 98.954,110.833 98.9,111.136 98.849,111.437 98.803,111.739 98.76,112.039 98.72,112.339 98.685,112.638 98.653,112.936 98.624,113.233 98.599,113.53 98.578,113.825 98.559,114.12 98.545,114.413 98.533,114.705 98.525,114.996 98.52,115.286 98.519,115.575 98.519,121.434 98.519,164.695 95.521,164.695 95.521,244.232 98.519,244.232 98.519,280.502 95.521,280.502 95.521,320.453 98.519,320.453 98.519,662.584 98.52,662.872 98.525,663.162 98.533,663.453 98.545,663.745 98.559,664.039 98.578,664.333 98.599,664.628 98.624,664.925 98.653,665.222 98.685,665.52 98.72,665.819 98.76,666.119 98.803,666.42 98.849,666.721 98.9,667.023 98.954,667.325 99.012,667.627 99.073,667.93 99.139,668.234 99.208,668.537 99.281,668.841 99.359,669.145 99.44,669.449 99.525,669.753 99.614,670.057 99.706,670.361 99.803,670.664 99.904,670.967 100.009,671.27 100.118,671.572 100.231,671.874 100.348,672.175 100.469,672.475 100.594,672.774 100.724,673.073 100.857,673.371 100.994,673.668 101.135,673.963 101.28,674.258 101.43,674.551 101.583,674.843 101.74,675.133 101.901,675.422 102.066,675.709 102.236,675.995 102.408,676.279 102.585,676.561 102.766,676.842 102.951,677.12 103.139,677.396 103.331,677.67 103.527,677.942 103.726,678.212 103.929,678.479 104.136,678.744 104.346,679.007 104.56,679.266 104.777,679.524 104.998,679.778 105.222,680.03 105.449,680.279 105.68,680.525 105.913,680.768 106.15,681.008 106.39,681.245 106.633,681.479 106.879,681.709 107.128,681.937 107.38,682.161 107.635,682.381 107.892,682.598 108.152,682.812 108.414,683.022 108.679,683.229 108.946,683.432 109.216,683.632 109.488,683.827 109.762,684.019 110.038,684.208 110.317,684.392 110.597,684.573 110.879,684.75 111.163,684.923 111.449,685.092 111.736,685.257 112.025,685.418 112.316,685.575 112.607,685.729 112.901,685.878 113.195,686.023 113.491,686.164 113.787,686.302 114.085,686.435 114.384,686.564 114.683,686.689 114.984,686.81 115.285,686.927 115.586,687.04 115.889,687.149 116.191,687.254 116.494,687.355 116.798,687.452 117.101,687.545 117.405,687.634 117.709,687.719 118.013,687.8 118.317,687.877 118.621,687.95 118.924,688.019 119.228,688.085 119.531,688.147 119.833,688.204 120.136,688.259 120.437,688.309 120.739,688.356 121.039,688.398 121.339,688.438 121.638,688.473 121.936,688.506 122.233,688.534 122.53,688.559 122.825,688.581 123.12,688.599 123.413,688.614 123.705,688.625 123.996,688.633 124.286,688.638 124.575,688.639 353.838,688.639 354.126,688.638 354.416,688.633 354.707,688.625 354.999,688.614 355.293,688.599 355.587,688.581 355.883,688.559 356.179,688.534 356.476,688.506 356.775,688.473 357.074,688.438 357.373,688.398 357.674,688.356 357.975,688.309 358.277,688.259 358.579,688.204 358.882,688.147 359.185,688.085 359.488,688.019 359.792,687.95 360.095,687.877 360.399,687.8 360.703,687.719 361.007,687.634 361.311,687.545 361.615,687.452 361.918,687.355 362.221,687.254 362.524,687.149 362.826,687.04 363.128,686.927 363.429,686.81 363.729,686.689 364.029,686.564 364.327,686.435 364.625,686.302 364.922,686.164 365.217,686.023 365.512,685.878 365.805,685.729 366.097,685.575 366.387,685.418 366.676,685.257 366.964,685.092 367.249,684.923 367.533,684.75 367.816,684.573 368.096,684.392 368.374,684.208 368.65,684.019 368.924,683.827 369.196,683.632 369.466,683.432 369.733,683.229 369.998,683.022 370.261,682.812 370.521,682.598 370.778,682.381 371.032,682.161 371.284,681.937 371.533,681.709 371.779,681.479 372.022,681.245 372.262,681.008 372.499,680.768 372.733,680.525 372.963,680.279 373.191,680.03 373.415,679.778 373.635,679.524 373.853,679.266 374.066,679.007 374.277,678.744 374.483,678.479 374.686,678.212 374.886,677.942 375.082,677.67 375.274,677.396 375.462,677.12 375.646,676.842 375.827,676.561 376.004,676.279 376.177,675.995 376.346,675.709 376.511,675.422 376.672,675.133 376.83,674.843 376.983,674.551 377.132,674.258 377.277,673.963 377.419,673.668 377.556,673.371 377.689,673.073 377.818,672.774 377.943,672.475 378.064,672.175 378.181,671.874 378.294,671.572 378.403,671.27 378.508,670.967 378.609,670.664 378.706,670.361 378.799,670.057 378.888,669.753 378.973,669.449 379.054,669.145 379.131,668.841 379.204,668.537 379.274,668.234 379.339,667.93 379.401,667.627 379.459,667.325 379.513,667.023 379.563,666.721 379.61,666.42 379.653,666.119 379.692,665.819 379.728,665.52 379.76,665.222 379.788,664.925 379.813,664.628 379.835,664.333 379.853,664.039 379.868,663.745 379.879,663.453 379.887,663.162 379.892,662.872 379.894,662.584 379.894,655.436 379.894,231.962 382.891,231.962 382.891,190.497 379.894,190.497 379.894,115.575 379.892,115.286 379.887,114.996 379.879,114.705 379.868,114.413 "
   id="polygon356"
   transform="translate(-93.896,-87.894)"
   style="fill:none;fill-opacity:1;stroke:#000000;stroke-opacity:1" /><defs
   id="defs364">
	
	
	

	
	
	
	
	
	
	
	
	
	
	
	
	
	
	
	
	
	
	
	
	
	
	
	
	
	

	
	
	
	



		
			
	
		
			
	
		
			
	
		
			
	
		
			
	
		
			
	
		
			
	
		
			
	
		
			
	
		
			
	
		
			
	
		
			
	
		
			
	
		
			
	
		
			
	
		
			
	
		
			
	
		
			
	
		
			
	
		
			
	
		
			
	
		
			
	
		
			
	
		
			
	
		
			
	
		
			
	
		
			
	
		
			
	
		
			
	
		
			
	
		
			
	
		
			
	
		
			
	</defs><sodipodi:namedview
   pagecolor="#ffffff"
   bordercolor="#666666"
   borderopacity="1"
   objecttolerance="10"
   gridtolerance="10"
   guidetolerance="10"
   inkscape:pageopacity="0"
   inkscape:pageshadow="2"
   inkscape:window-width="1920"
   inkscape:window-height="1001"
   id="namedview362"
   showgrid="false"
   inkscape:zoom="1.0748387"
   inkscape:cx="406.104"
   inkscape:cy="594.14031"
   inkscape:window-x="-9"
   inkscape:window-y="-9"
   inkscape:window-maximized="1"
   inkscape:current-layer="svg360"
   inkscape:document-rotation="0" />
<metadata
   id="metadata2">
	<ns:sfw>
		<ns:slices />
		<ns:sliceSourceBounds
   bottomLeftOrigin="true"
   height="11789.401"
   width="3212.295"
   x="-3241.446"
   y="-3017.527">
			</ns:sliceSourceBounds>
	</ns:sfw>
<rdf:RDF><cc:Work
     rdf:about=""><dc:format>image/svg+xml</dc:format><dc:type
       rdf:resource="http://purl.org/dc/dcmitype/StillImage" /><dc:title /></cc:Work></rdf:RDF></metadata>

<g
   id="N-DIMENSIONS"
   display="none"
   transform="translate(-93.896,-87.894)">
	<g
   display="inline"
   id="g128">
		<g
   id="g19">
			<g
   id="g17">
				<path
   fill="#00b9d2"
   d="m 304.539,161.362 c -0.079,-0.078 -0.117,-0.177 -0.117,-0.297 v -2.628 h -5.851 c -0.12,0 -0.219,-0.039 -0.297,-0.117 -0.078,-0.078 -0.117,-0.177 -0.117,-0.297 v -0.666 c 0,-0.168 0.066,-0.348 0.198,-0.54 l 5.418,-7.632 c 0.061,-0.096 0.15,-0.171 0.271,-0.225 0.119,-0.054 0.252,-0.081 0.396,-0.081 h 1.225 c 0.132,0 0.233,0.036 0.306,0.108 0.072,0.072 0.107,0.174 0.107,0.306 v 7.632 h 1.639 c 0.119,0 0.219,0.039 0.297,0.117 0.078,0.078 0.117,0.177 0.117,0.297 v 0.684 c 0,0.12 -0.039,0.219 -0.117,0.297 -0.078,0.078 -0.178,0.117 -0.297,0.117 h -1.639 v 2.628 c 0,0.12 -0.039,0.219 -0.116,0.297 -0.078,0.078 -0.178,0.117 -0.297,0.117 h -0.828 c -0.121,0 -0.221,-0.039 -0.298,-0.117 z m -4.51,-4.401 h 4.41 v -6.265 z"
   id="path5" />
				<path
   fill="#00b9d2"
   d="m 315.663,161.362 c -0.079,-0.078 -0.117,-0.177 -0.117,-0.297 v -2.628 h -5.851 c -0.12,0 -0.219,-0.039 -0.297,-0.117 -0.078,-0.078 -0.117,-0.177 -0.117,-0.297 v -0.666 c 0,-0.168 0.066,-0.348 0.198,-0.54 l 5.418,-7.632 c 0.061,-0.096 0.15,-0.171 0.271,-0.225 0.119,-0.054 0.252,-0.081 0.396,-0.081 h 1.225 c 0.132,0 0.233,0.036 0.306,0.108 0.072,0.072 0.107,0.174 0.107,0.306 v 7.632 h 1.639 c 0.119,0 0.219,0.039 0.297,0.117 0.078,0.078 0.117,0.177 0.117,0.297 v 0.684 c 0,0.12 -0.039,0.219 -0.117,0.297 -0.078,0.078 -0.178,0.117 -0.297,0.117 h -1.639 v 2.628 c 0,0.12 -0.039,0.219 -0.116,0.297 -0.078,0.078 -0.178,0.117 -0.297,0.117 h -0.828 c -0.121,0 -0.221,-0.039 -0.298,-0.117 z m -4.51,-4.401 h 4.41 v -6.265 z"
   id="path7" />
				<path
   fill="#00b9d2"
   d="m 322.143,160.3 c -0.714,-0.906 -1.095,-2.091 -1.143,-3.556 l -0.019,-1.548 0.019,-1.602 c 0.036,-1.452 0.416,-2.631 1.143,-3.537 0.726,-0.906 1.856,-1.359 3.394,-1.359 1.548,0 2.685,0.453 3.41,1.359 0.727,0.906 1.107,2.085 1.144,3.537 0.012,0.336 0.018,0.87 0.018,1.602 0,0.708 -0.006,1.225 -0.018,1.548 -0.048,1.465 -0.43,2.649 -1.144,3.556 -0.714,0.907 -1.851,1.358 -3.41,1.358 -1.55,0.001 -2.681,-0.451 -3.394,-1.358 z m 5.481,-1.053 c 0.468,-0.611 0.714,-1.476 0.737,-2.592 0.012,-0.348 0.019,-0.846 0.019,-1.494 0,-0.659 -0.007,-1.151 -0.019,-1.476 -0.023,-1.104 -0.272,-1.965 -0.747,-2.583 -0.474,-0.618 -1.167,-0.927 -2.078,-0.927 -0.912,0 -1.603,0.309 -2.07,0.927 -0.467,0.618 -0.714,1.479 -0.738,2.583 l -0.018,1.476 0.018,1.494 c 0.024,1.116 0.271,1.98 0.738,2.592 0.468,0.612 1.158,0.918 2.07,0.918 0.924,0 1.619,-0.306 2.088,-0.918 z"
   id="path9" />
				<path
   fill="#00b9d2"
   d="m 337.154,164.791 c -0.078,-0.071 -0.117,-0.174 -0.117,-0.306 v -11.952 c 0,-0.132 0.039,-0.233 0.117,-0.306 0.077,-0.072 0.177,-0.108 0.297,-0.108 h 0.756 c 0.132,0 0.234,0.036 0.306,0.108 0.072,0.072 0.108,0.174 0.108,0.306 v 0.792 c 0.695,-0.924 1.686,-1.386 2.97,-1.386 1.26,0 2.205,0.399 2.835,1.197 0.63,0.798 0.963,1.815 0.999,3.051 0.012,0.132 0.019,0.336 0.019,0.612 0,0.275 -0.007,0.479 -0.019,0.611 -0.036,1.225 -0.369,2.238 -0.999,3.042 -0.63,0.805 -1.575,1.206 -2.835,1.206 -1.284,0 -2.256,-0.456 -2.916,-1.368 v 4.194 c 0,0.12 -0.039,0.219 -0.117,0.297 -0.078,0.078 -0.177,0.117 -0.297,0.117 h -0.81 c -0.12,0.001 -0.22,-0.035 -0.297,-0.107 z m 5.985,-5.346 c 0.396,-0.54 0.612,-1.248 0.648,-2.124 0.012,-0.119 0.018,-0.294 0.018,-0.521 0,-2.305 -0.852,-3.456 -2.556,-3.456 -0.84,0 -1.474,0.278 -1.899,0.837 -0.426,0.558 -0.65,1.215 -0.675,1.971 -0.012,0.132 -0.018,0.366 -0.018,0.702 0,0.336 0.006,0.57 0.018,0.702 0.024,0.731 0.255,1.365 0.693,1.898 0.438,0.534 1.064,0.802 1.881,0.802 0.864,-0.001 1.494,-0.271 1.89,-0.811 z"
   id="path11" />
				<path
   fill="#00b9d2"
   d="m 347.847,164.791 c -0.078,-0.071 -0.117,-0.174 -0.117,-0.306 v -11.952 c 0,-0.132 0.039,-0.233 0.117,-0.306 0.077,-0.072 0.177,-0.108 0.297,-0.108 h 0.756 c 0.132,0 0.234,0.036 0.306,0.108 0.072,0.072 0.108,0.174 0.108,0.306 v 0.792 c 0.695,-0.924 1.686,-1.386 2.97,-1.386 1.26,0 2.205,0.399 2.835,1.197 0.63,0.798 0.963,1.815 0.999,3.051 0.012,0.132 0.019,0.336 0.019,0.612 0,0.275 -0.007,0.479 -0.019,0.611 -0.036,1.225 -0.369,2.238 -0.999,3.042 -0.63,0.805 -1.575,1.206 -2.835,1.206 -1.284,0 -2.256,-0.456 -2.916,-1.368 v 4.194 c 0,0.12 -0.039,0.219 -0.117,0.297 -0.078,0.078 -0.177,0.117 -0.297,0.117 h -0.81 c -0.121,0.001 -0.22,-0.035 -0.297,-0.107 z m 5.984,-5.346 c 0.396,-0.54 0.612,-1.248 0.648,-2.124 0.012,-0.119 0.018,-0.294 0.018,-0.521 0,-2.305 -0.852,-3.456 -2.556,-3.456 -0.84,0 -1.474,0.278 -1.899,0.837 -0.426,0.558 -0.65,1.215 -0.675,1.971 -0.012,0.132 -0.018,0.366 -0.018,0.702 0,0.336 0.006,0.57 0.018,0.702 0.024,0.731 0.255,1.365 0.693,1.898 0.438,0.534 1.064,0.802 1.881,0.802 0.865,-0.001 1.495,-0.271 1.89,-0.811 z"
   id="path13" />
				<path
   fill="#00b9d2"
   d="m 358.376,150.238 c -0.078,-0.078 -0.117,-0.177 -0.117,-0.297 v -0.936 c 0,-0.12 0.039,-0.222 0.117,-0.306 0.078,-0.084 0.177,-0.126 0.297,-0.126 h 1.062 c 0.12,0 0.223,0.042 0.307,0.126 0.084,0.084 0.126,0.186 0.126,0.306 v 0.936 c 0,0.12 -0.042,0.219 -0.126,0.297 -0.084,0.079 -0.187,0.117 -0.307,0.117 h -1.062 c -0.12,0 -0.219,-0.039 -0.297,-0.117 z m 0.144,11.124 c -0.078,-0.078 -0.117,-0.177 -0.117,-0.297 v -8.532 c 0,-0.119 0.039,-0.219 0.117,-0.297 0.078,-0.078 0.177,-0.117 0.297,-0.117 h 0.792 c 0.12,0 0.219,0.039 0.297,0.117 0.078,0.078 0.117,0.178 0.117,0.297 v 8.532 c 0,0.12 -0.039,0.219 -0.117,0.297 -0.078,0.078 -0.177,0.117 -0.297,0.117 h -0.792 c -0.121,0 -0.219,-0.039 -0.297,-0.117 z"
   id="path15" />
			</g>
		</g>
		<g
   id="g64">
			<g
   id="MTEXT_55_">
				<g
   id="g47">
					<g
   id="g45">
						<g
   id="g43">
							<path
   fill="#00b9d2"
   d="m 224.633,392.074 c -0.702,-0.39 -1.236,-0.915 -1.603,-1.575 -0.366,-0.659 -0.549,-1.379 -0.549,-2.159 0,-1.032 0.414,-2.136 1.242,-3.312 l 3.438,-4.788 c 0.013,-0.012 0.046,-0.054 0.1,-0.126 0.054,-0.072 0.123,-0.128 0.207,-0.171 0.084,-0.042 0.18,-0.063 0.288,-0.063 h 0.882 c 0.108,0 0.194,0.039 0.261,0.117 0.067,0.078 0.1,0.171 0.1,0.279 0,0.06 -0.03,0.138 -0.091,0.234 l -2.628,3.672 c 0.312,-0.072 0.66,-0.108 1.044,-0.108 0.876,0 1.647,0.195 2.313,0.585 0.666,0.391 1.182,0.906 1.548,1.548 0.366,0.643 0.549,1.348 0.549,2.115 0,0.769 -0.183,1.485 -0.549,2.151 -0.366,0.666 -0.897,1.197 -1.593,1.593 -0.696,0.396 -1.519,0.594 -2.466,0.594 -0.961,-0.001 -1.791,-0.196 -2.493,-0.586 z m 3.932,-1.233 c 0.444,-0.216 0.798,-0.537 1.062,-0.963 0.264,-0.426 0.396,-0.939 0.396,-1.539 0,-0.588 -0.135,-1.096 -0.405,-1.521 -0.27,-0.426 -0.627,-0.75 -1.07,-0.972 -0.444,-0.222 -0.925,-0.333 -1.44,-0.333 -0.515,0 -0.996,0.111 -1.439,0.333 -0.444,0.222 -0.799,0.546 -1.062,0.972 -0.263,0.426 -0.396,0.934 -0.396,1.521 0,0.6 0.132,1.113 0.396,1.539 0.264,0.426 0.618,0.747 1.062,0.963 0.443,0.216 0.924,0.323 1.439,0.323 0.528,0.001 1.013,-0.107 1.457,-0.323 z"
   id="path21" />
							<path
   fill="#00b9d2"
   d="m 233.74,392.362 c -0.078,-0.078 -0.117,-0.177 -0.117,-0.297 v -1.242 c 0,-0.119 0.039,-0.222 0.117,-0.306 0.078,-0.084 0.177,-0.126 0.297,-0.126 h 1.242 c 0.12,0 0.219,0.042 0.297,0.126 0.078,0.084 0.117,0.187 0.117,0.306 v 1.242 c 0,0.12 -0.039,0.219 -0.117,0.297 -0.078,0.078 -0.177,0.117 -0.297,0.117 h -1.242 c -0.12,0 -0.219,-0.039 -0.297,-0.117 z"
   id="path23" />
							<path
   fill="#00b9d2"
   d="m 240.373,392.362 c -0.071,-0.078 -0.107,-0.177 -0.107,-0.297 v -10.152 l -3.024,2.322 c -0.084,0.072 -0.174,0.108 -0.27,0.108 -0.108,0 -0.21,-0.061 -0.307,-0.181 l -0.432,-0.558 c -0.061,-0.084 -0.09,-0.168 -0.09,-0.252 0,-0.132 0.06,-0.24 0.18,-0.324 l 3.906,-3.024 c 0.132,-0.083 0.288,-0.126 0.468,-0.126 h 0.846 c 0.12,0 0.219,0.039 0.298,0.117 0.077,0.078 0.116,0.177 0.116,0.297 v 11.772 c 0,0.12 -0.039,0.219 -0.116,0.297 -0.079,0.078 -0.178,0.117 -0.298,0.117 h -0.882 c -0.12,10e-4 -0.216,-0.038 -0.288,-0.116 z"
   id="path25" />
							<path
   fill="#00b9d2"
   d="m 244.433,383.011 c -0.054,-0.072 -0.069,-0.162 -0.045,-0.271 l 0.396,-2.52 c 0.048,-0.348 0.216,-0.522 0.504,-0.522 h 1.151 c 0.084,0 0.153,0.03 0.207,0.09 0.055,0.06 0.081,0.132 0.081,0.216 0,0.12 -0.018,0.216 -0.054,0.288 l -0.937,2.43 c -0.06,0.132 -0.126,0.231 -0.197,0.297 -0.072,0.066 -0.181,0.099 -0.324,0.099 h -0.558 c -0.095,0.001 -0.171,-0.035 -0.224,-0.107 z m 2.826,0 c -0.054,-0.072 -0.069,-0.162 -0.045,-0.271 l 0.396,-2.52 c 0.048,-0.348 0.217,-0.522 0.504,-0.522 h 1.152 c 0.084,0 0.153,0.03 0.207,0.09 0.054,0.06 0.081,0.132 0.081,0.216 0,0.12 -0.018,0.216 -0.054,0.288 l -0.937,2.43 c -0.06,0.132 -0.126,0.231 -0.197,0.297 -0.072,0.066 -0.181,0.099 -0.324,0.099 h -0.559 c -0.095,0.001 -0.171,-0.035 -0.224,-0.107 z"
   id="path27" />
							<path
   fill="#00b9d2"
   d="m 226.279,411.961 c -0.071,-0.078 -0.107,-0.177 -0.107,-0.297 v -10.152 l -3.024,2.322 c -0.084,0.072 -0.174,0.108 -0.27,0.108 -0.108,0 -0.21,-0.061 -0.307,-0.181 l -0.432,-0.558 c -0.061,-0.084 -0.09,-0.168 -0.09,-0.252 0,-0.132 0.06,-0.24 0.18,-0.324 l 3.906,-3.023 c 0.132,-0.084 0.288,-0.126 0.468,-0.126 h 0.846 c 0.12,0 0.219,0.039 0.298,0.116 0.077,0.078 0.116,0.178 0.116,0.298 v 11.771 c 0,0.12 -0.039,0.219 -0.116,0.297 -0.079,0.078 -0.178,0.117 -0.298,0.117 h -0.882 c -0.12,0.002 -0.215,-0.037 -0.288,-0.116 z"
   id="path29" />
							<path
   fill="#00b9d2"
   d="m 232.147,411.773 c -0.66,-0.324 -1.164,-0.747 -1.513,-1.27 -0.348,-0.521 -0.534,-1.083 -0.558,-1.683 v -0.036 c 0,-0.096 0.036,-0.174 0.107,-0.234 0.072,-0.06 0.156,-0.09 0.253,-0.09 h 0.882 c 0.252,0 0.414,0.133 0.485,0.396 0.181,0.647 0.514,1.131 0.999,1.448 0.486,0.318 1.047,0.478 1.684,0.478 0.815,0 1.494,-0.249 2.034,-0.747 0.539,-0.498 0.81,-1.185 0.81,-2.061 0,-0.805 -0.271,-1.443 -0.81,-1.918 -0.54,-0.474 -1.219,-0.711 -2.034,-0.711 -0.433,0 -0.78,0.055 -1.044,0.162 -0.265,0.108 -0.534,0.265 -0.811,0.469 -0.156,0.12 -0.285,0.207 -0.387,0.261 -0.103,0.054 -0.213,0.081 -0.333,0.081 h -0.864 c -0.107,0 -0.204,-0.039 -0.288,-0.117 -0.084,-0.078 -0.12,-0.171 -0.107,-0.279 l 0.558,-5.994 c 0.036,-0.3 0.186,-0.449 0.45,-0.449 h 6.228 c 0.132,0 0.234,0.035 0.307,0.107 0.071,0.072 0.107,0.174 0.107,0.307 v 0.666 c 0,0.119 -0.039,0.216 -0.117,0.287 -0.078,0.072 -0.177,0.108 -0.297,0.108 h -5.184 l -0.324,3.618 c 0.576,-0.408 1.351,-0.612 2.322,-0.612 0.804,0 1.536,0.159 2.196,0.478 0.659,0.317 1.185,0.782 1.574,1.395 0.391,0.612 0.585,1.338 0.585,2.178 0,0.889 -0.194,1.653 -0.585,2.295 -0.39,0.643 -0.93,1.129 -1.619,1.458 -0.69,0.33 -1.479,0.495 -2.367,0.495 -0.899,-0.001 -1.679,-0.163 -2.339,-0.486 z"
   id="path31" />
							<path
   fill="#00b9d2"
   d="m 246.845,411.961 c -0.079,-0.078 -0.117,-0.177 -0.117,-0.297 v -2.628 h -5.851 c -0.12,0 -0.219,-0.039 -0.297,-0.117 -0.078,-0.078 -0.117,-0.177 -0.117,-0.297 v -0.666 c 0,-0.168 0.066,-0.348 0.198,-0.54 l 5.418,-7.632 c 0.061,-0.096 0.15,-0.171 0.271,-0.225 0.119,-0.055 0.252,-0.081 0.396,-0.081 h 1.225 c 0.132,0 0.233,0.035 0.306,0.107 0.073,0.072 0.107,0.174 0.107,0.307 v 7.632 h 1.639 c 0.119,0 0.219,0.039 0.297,0.117 0.078,0.078 0.117,0.177 0.117,0.297 v 0.684 c 0,0.12 -0.039,0.219 -0.117,0.297 -0.078,0.078 -0.178,0.117 -0.297,0.117 h -1.639 v 2.628 c 0,0.12 -0.039,0.219 -0.116,0.297 -0.078,0.078 -0.178,0.117 -0.297,0.117 h -0.828 c -0.122,0.001 -0.221,-0.038 -0.298,-0.117 z m -4.51,-4.4 h 4.41 v -6.265 z"
   id="path33" />
							<path
   fill="#00b9d2"
   d="m 252.082,411.961 c -0.078,-0.078 -0.117,-0.177 -0.117,-0.297 v -1.242 c 0,-0.119 0.039,-0.222 0.117,-0.306 0.078,-0.084 0.177,-0.126 0.297,-0.126 h 1.242 c 0.12,0 0.219,0.042 0.297,0.126 0.078,0.084 0.117,0.187 0.117,0.306 v 1.242 c 0,0.12 -0.039,0.219 -0.117,0.297 -0.078,0.078 -0.177,0.117 -0.297,0.117 h -1.242 c -0.12,0.001 -0.219,-0.038 -0.297,-0.117 z"
   id="path35" />
							<path
   fill="#00b9d2"
   d="m 257.663,411.961 c -0.066,-0.078 -0.1,-0.171 -0.1,-0.279 0,-0.083 0.024,-0.161 0.072,-0.233 l 2.771,-3.853 c -0.287,0.072 -0.624,0.108 -1.008,0.108 -0.864,-0.012 -1.62,-0.213 -2.268,-0.603 -0.648,-0.391 -1.144,-0.9 -1.485,-1.53 -0.341,-0.63 -0.513,-1.305 -0.513,-2.025 0,-0.72 0.171,-1.403 0.513,-2.052 0.342,-0.649 0.853,-1.176 1.53,-1.584 0.677,-0.408 1.497,-0.612 2.457,-0.612 0.96,0 1.782,0.198 2.466,0.595 0.684,0.396 1.2,0.915 1.548,1.557 0.348,0.642 0.522,1.329 0.522,2.061 0,0.66 -0.117,1.242 -0.352,1.746 -0.233,0.504 -0.543,1.026 -0.927,1.566 l -3.492,4.896 c -0.084,0.108 -0.165,0.195 -0.243,0.262 -0.078,0.065 -0.188,0.099 -0.333,0.099 h -0.899 c -0.107,-10e-4 -0.193,-0.04 -0.259,-0.119 z m 3.393,-6.02 c 0.432,-0.229 0.774,-0.549 1.026,-0.963 0.252,-0.414 0.378,-0.892 0.378,-1.432 0,-0.552 -0.126,-1.037 -0.378,-1.458 -0.252,-0.42 -0.595,-0.744 -1.026,-0.972 -0.431,-0.228 -0.906,-0.342 -1.422,-0.342 -0.504,0 -0.97,0.114 -1.396,0.342 -0.426,0.228 -0.765,0.552 -1.017,0.972 -0.252,0.421 -0.378,0.906 -0.378,1.458 0,0.54 0.126,1.018 0.378,1.432 0.252,0.414 0.588,0.734 1.008,0.963 0.42,0.228 0.888,0.342 1.404,0.342 0.516,0 0.991,-0.115 1.423,-0.342 z"
   id="path37" />
							<path
   fill="#00b9d2"
   d="m 270.964,411.961 c -0.078,-0.078 -0.117,-0.177 -0.117,-0.297 v -8.532 c 0,-0.119 0.039,-0.219 0.117,-0.297 0.078,-0.078 0.177,-0.117 0.297,-0.117 h 0.756 c 0.12,0 0.217,0.039 0.288,0.117 0.072,0.078 0.108,0.178 0.108,0.297 v 0.612 c 0.648,-0.804 1.523,-1.206 2.628,-1.206 1.32,0 2.256,0.552 2.808,1.656 0.288,-0.504 0.699,-0.906 1.233,-1.206 0.534,-0.3 1.131,-0.45 1.791,-0.45 0.983,0 1.788,0.336 2.412,1.008 0.624,0.673 0.936,1.645 0.936,2.916 v 5.202 c 0,0.12 -0.039,0.219 -0.116,0.297 -0.078,0.078 -0.178,0.117 -0.298,0.117 h -0.773 c -0.12,0 -0.219,-0.039 -0.297,-0.117 -0.078,-0.078 -0.117,-0.177 -0.117,-0.297 v -5.04 c 0,-0.96 -0.198,-1.646 -0.594,-2.061 -0.396,-0.414 -0.918,-0.621 -1.566,-0.621 -0.576,0 -1.071,0.213 -1.485,0.639 -0.413,0.426 -0.62,1.107 -0.62,2.043 v 5.04 c 0,0.12 -0.039,0.219 -0.117,0.297 -0.078,0.078 -0.178,0.117 -0.297,0.117 h -0.792 c -0.12,0 -0.22,-0.039 -0.298,-0.117 -0.078,-0.078 -0.116,-0.177 -0.116,-0.297 v -5.04 c 0,-0.947 -0.207,-1.632 -0.621,-2.052 -0.414,-0.42 -0.927,-0.63 -1.539,-0.63 -0.576,0 -1.071,0.21 -1.485,0.63 -0.414,0.42 -0.621,1.098 -0.621,2.034 v 5.058 c 0,0.12 -0.039,0.219 -0.117,0.297 -0.078,0.078 -0.177,0.117 -0.297,0.117 h -0.792 c -0.122,0.001 -0.221,-0.038 -0.299,-0.117 z"
   id="path39" />
							<path
   fill="#00b9d2"
   d="m 286.947,411.961 c -0.078,-0.078 -0.117,-0.177 -0.117,-0.297 v -8.532 c 0,-0.119 0.039,-0.219 0.117,-0.297 0.078,-0.078 0.177,-0.117 0.297,-0.117 H 288 c 0.12,0 0.217,0.039 0.288,0.117 0.072,0.078 0.108,0.178 0.108,0.297 v 0.612 c 0.648,-0.804 1.523,-1.206 2.628,-1.206 1.32,0 2.256,0.552 2.808,1.656 0.288,-0.504 0.699,-0.906 1.233,-1.206 0.534,-0.3 1.131,-0.45 1.791,-0.45 0.983,0 1.788,0.336 2.412,1.008 0.624,0.673 0.936,1.645 0.936,2.916 v 5.202 c 0,0.12 -0.039,0.219 -0.116,0.297 -0.078,0.078 -0.178,0.117 -0.298,0.117 h -0.773 c -0.12,0 -0.219,-0.039 -0.297,-0.117 -0.078,-0.078 -0.117,-0.177 -0.117,-0.297 v -5.04 c 0,-0.96 -0.198,-1.646 -0.594,-2.061 -0.396,-0.414 -0.918,-0.621 -1.566,-0.621 -0.576,0 -1.071,0.213 -1.485,0.639 -0.413,0.426 -0.62,1.107 -0.62,2.043 v 5.04 c 0,0.12 -0.039,0.219 -0.117,0.297 -0.078,0.078 -0.178,0.117 -0.297,0.117 h -0.792 c -0.12,0 -0.22,-0.039 -0.298,-0.117 -0.078,-0.078 -0.116,-0.177 -0.116,-0.297 v -5.04 c 0,-0.947 -0.207,-1.632 -0.621,-2.052 -0.414,-0.42 -0.927,-0.63 -1.539,-0.63 -0.576,0 -1.071,0.21 -1.485,0.63 -0.414,0.42 -0.621,1.098 -0.621,2.034 v 5.058 c 0,0.12 -0.039,0.219 -0.117,0.297 -0.078,0.078 -0.177,0.117 -0.297,0.117 h -0.792 c -0.122,0.001 -0.221,-0.038 -0.299,-0.117 z"
   id="path41" />
						</g>
					</g>
				</g>
			</g>
			<g
   id="g62">
				<g
   id="POLYLINE_651_">
					
						<line
   fill="none"
   stroke="#00b9d2"
   stroke-width="2"
   stroke-linecap="round"
   stroke-linejoin="round"
   stroke-miterlimit="10"
   x1="356.90799"
   y1="659.51501"
   x2="253.11099"
   y2="424.02899"
   id="line50" />
				</g>
				<g
   id="POLYLINE_650_">
					
						<line
   fill="none"
   stroke="#00b9d2"
   stroke-width="2"
   stroke-linecap="round"
   stroke-linejoin="round"
   stroke-miterlimit="10"
   x1="227.69099"
   y1="365.729"
   x2="118.983"
   y2="120.625"
   id="line53" />
				</g>
				<g
   id="POLYLINE_649_">
					
						<polyline
   fill="none"
   stroke="#00b9d2"
   stroke-width="2"
   stroke-linecap="round"
   stroke-linejoin="round"
   stroke-miterlimit="10"
   points="       359.891,651.025 356.908,659.515 348.418,656.532      "
   id="polyline56" />
				</g>
				<g
   id="POLYLINE_648_">
					
						<polyline
   fill="none"
   stroke="#00b9d2"
   stroke-width="2"
   stroke-linecap="round"
   stroke-linejoin="round"
   stroke-miterlimit="10"
   points="       116,129.115 118.983,120.625 127.473,123.608      "
   id="polyline59" />
				</g>
			</g>
		</g>
		<g
   id="g95">
			<g
   id="POLYLINE_647_">
				
					<polyline
   fill="none"
   stroke="#00b9d2"
   stroke-width="2"
   stroke-linecap="round"
   stroke-linejoin="round"
   stroke-miterlimit="10"
   points="      356.753,611.004 363.116,617.367 356.753,623.73     "
   id="polyline66" />
			</g>
			<g
   id="POLYLINE_646_">
				
					<line
   fill="none"
   stroke="#00b9d2"
   stroke-width="2"
   stroke-linecap="round"
   stroke-linejoin="round"
   stroke-miterlimit="10"
   x1="363.116"
   y1="617.367"
   x2="273"
   y2="617.367"
   id="line69" />
			</g>
			<g
   id="POLYLINE_645_">
				
					<line
   fill="none"
   stroke="#00b9d2"
   stroke-width="2"
   stroke-linecap="round"
   stroke-linejoin="round"
   stroke-miterlimit="10"
   x1="198.91"
   y1="617.367"
   x2="113.809"
   y2="617.367"
   id="line72" />
			</g>
			<g
   id="POLYLINE_644_">
				
					<polyline
   fill="none"
   stroke="#00b9d2"
   stroke-width="2"
   stroke-linecap="round"
   stroke-linejoin="round"
   stroke-miterlimit="10"
   points="      120.186,611.015 113.821,617.379 120.186,623.742     "
   id="polyline75" />
			</g>
			<g
   id="MTEXT_54_">
				<g
   id="g92">
					<g
   id="g90">
						<path
   fill="#00b9d2"
   d="m 207.125,623.226 c -0.072,-0.078 -0.108,-0.177 -0.108,-0.297 v -10.152 l -3.024,2.322 c -0.084,0.072 -0.174,0.108 -0.27,0.108 -0.108,0 -0.21,-0.061 -0.306,-0.181 l -0.432,-0.558 c -0.06,-0.084 -0.09,-0.168 -0.09,-0.252 0,-0.132 0.06,-0.24 0.18,-0.324 l 3.906,-3.023 c 0.132,-0.084 0.288,-0.126 0.468,-0.126 h 0.846 c 0.12,0 0.219,0.039 0.297,0.116 0.078,0.078 0.117,0.178 0.117,0.298 v 11.771 c 0,0.12 -0.039,0.219 -0.117,0.297 -0.078,0.078 -0.177,0.117 -0.297,0.117 h -0.882 c -0.12,10e-4 -0.216,-0.038 -0.288,-0.116 z"
   id="path78" />
						<path
   fill="#00b9d2"
   d="m 217.034,623.226 c -0.078,-0.078 -0.117,-0.177 -0.117,-0.297 v -2.628 h -5.85 c -0.12,0 -0.219,-0.039 -0.297,-0.117 -0.078,-0.078 -0.117,-0.177 -0.117,-0.297 v -0.666 c 0,-0.168 0.066,-0.348 0.198,-0.54 l 5.418,-7.632 c 0.06,-0.096 0.15,-0.171 0.27,-0.225 0.12,-0.055 0.252,-0.081 0.396,-0.081 h 1.224 c 0.132,0 0.234,0.035 0.306,0.107 0.072,0.072 0.108,0.174 0.108,0.307 v 7.632 h 1.638 c 0.12,0 0.219,0.039 0.297,0.117 0.078,0.078 0.117,0.177 0.117,0.297 v 0.684 c 0,0.12 -0.039,0.219 -0.117,0.297 -0.078,0.078 -0.177,0.117 -0.297,0.117 h -1.638 v 2.628 c 0,0.12 -0.039,0.219 -0.117,0.297 -0.078,0.078 -0.177,0.117 -0.297,0.117 h -0.828 c -0.12,0 -0.219,-0.039 -0.297,-0.117 z m -4.509,-4.4 h 4.41 v -6.265 z"
   id="path80" />
						<path
   fill="#00b9d2"
   d="m 228.158,623.226 c -0.078,-0.078 -0.117,-0.177 -0.117,-0.297 v -2.628 h -5.85 c -0.12,0 -0.219,-0.039 -0.297,-0.117 -0.078,-0.078 -0.117,-0.177 -0.117,-0.297 v -0.666 c 0,-0.168 0.066,-0.348 0.198,-0.54 l 5.418,-7.632 c 0.06,-0.096 0.15,-0.171 0.27,-0.225 0.12,-0.055 0.252,-0.081 0.396,-0.081 h 1.224 c 0.132,0 0.234,0.035 0.306,0.107 0.072,0.072 0.108,0.174 0.108,0.307 v 7.632 h 1.638 c 0.12,0 0.219,0.039 0.297,0.117 0.078,0.078 0.117,0.177 0.117,0.297 v 0.684 c 0,0.12 -0.039,0.219 -0.117,0.297 -0.078,0.078 -0.177,0.117 -0.297,0.117 h -1.638 v 2.628 c 0,0.12 -0.039,0.219 -0.117,0.297 -0.078,0.078 -0.177,0.117 -0.297,0.117 h -0.828 c -0.12,0 -0.219,-0.039 -0.297,-0.117 z m -4.509,-4.4 h 4.41 v -6.265 z"
   id="path82" />
						<path
   fill="#00b9d2"
   d="m 234.638,622.165 c -0.714,-0.906 -1.095,-2.091 -1.143,-3.556 l -0.018,-1.548 0.018,-1.602 c 0.036,-1.452 0.417,-2.631 1.143,-3.537 0.726,-0.906 1.857,-1.359 3.393,-1.359 1.548,0 2.685,0.453 3.411,1.359 0.726,0.906 1.107,2.085 1.143,3.537 0.012,0.336 0.018,0.87 0.018,1.602 0,0.708 -0.006,1.225 -0.018,1.548 -0.048,1.465 -0.429,2.649 -1.143,3.556 -0.714,0.906 -1.851,1.358 -3.411,1.358 -1.548,0 -2.679,-0.452 -3.393,-1.358 z m 5.481,-1.054 c 0.468,-0.611 0.714,-1.476 0.738,-2.592 0.012,-0.348 0.018,-0.846 0.018,-1.494 0,-0.659 -0.006,-1.151 -0.018,-1.476 -0.024,-1.104 -0.273,-1.965 -0.747,-2.583 -0.474,-0.618 -1.167,-0.927 -2.079,-0.927 -0.912,0 -1.602,0.309 -2.07,0.927 -0.468,0.618 -0.714,1.479 -0.738,2.583 l -0.018,1.476 0.018,1.494 c 0.024,1.116 0.27,1.98 0.738,2.592 0.468,0.612 1.158,0.918 2.07,0.918 0.924,0 1.62,-0.306 2.088,-0.918 z"
   id="path84" />
						<path
   fill="#00b9d2"
   d="m 249.649,626.655 c -0.078,-0.071 -0.117,-0.174 -0.117,-0.306 v -11.952 c 0,-0.132 0.039,-0.233 0.117,-0.306 0.078,-0.073 0.177,-0.108 0.297,-0.108 h 0.756 c 0.132,0 0.234,0.036 0.306,0.108 0.072,0.072 0.108,0.174 0.108,0.306 v 0.792 c 0.696,-0.924 1.686,-1.386 2.97,-1.386 1.26,0 2.205,0.399 2.835,1.197 0.63,0.798 0.963,1.815 0.999,3.051 0.012,0.132 0.018,0.336 0.018,0.612 0,0.275 -0.006,0.479 -0.018,0.611 -0.036,1.225 -0.369,2.238 -0.999,3.042 -0.63,0.805 -1.575,1.206 -2.835,1.206 -1.284,0 -2.256,-0.456 -2.916,-1.368 v 4.194 c 0,0.12 -0.039,0.219 -0.117,0.297 -0.078,0.078 -0.177,0.117 -0.297,0.117 h -0.81 c -0.119,0.001 -0.218,-0.035 -0.297,-0.107 z m 5.986,-5.346 c 0.396,-0.54 0.612,-1.248 0.648,-2.124 0.012,-0.119 0.018,-0.294 0.018,-0.521 0,-2.305 -0.853,-3.456 -2.556,-3.456 -0.84,0 -1.473,0.278 -1.899,0.837 -0.426,0.558 -0.651,1.215 -0.675,1.971 -0.012,0.132 -0.018,0.366 -0.018,0.702 0,0.336 0.006,0.57 0.018,0.702 0.024,0.731 0.255,1.365 0.693,1.898 0.438,0.534 1.064,0.802 1.881,0.802 0.863,0 1.494,-0.271 1.89,-0.811 z"
   id="path86" />
						<path
   fill="#00b9d2"
   d="m 259.252,623.235 c -0.072,-0.071 -0.108,-0.161 -0.108,-0.27 0,-0.109 0.042,-0.222 0.126,-0.342 l 3.132,-4.068 -2.934,-3.87 c -0.096,-0.132 -0.144,-0.239 -0.144,-0.324 0,-0.107 0.039,-0.197 0.117,-0.27 0.078,-0.073 0.165,-0.108 0.261,-0.108 h 0.864 c 0.18,0 0.336,0.097 0.468,0.288 l 2.43,3.15 2.43,-3.15 c 0.072,-0.096 0.141,-0.168 0.207,-0.216 0.066,-0.048 0.153,-0.072 0.261,-0.072 h 0.828 c 0.096,0 0.18,0.036 0.252,0.108 0.072,0.072 0.108,0.156 0.108,0.252 0,0.12 -0.042,0.234 -0.126,0.342 l -2.97,3.906 3.132,4.032 c 0.084,0.12 0.126,0.233 0.126,0.342 0,0.109 -0.036,0.198 -0.108,0.27 -0.072,0.072 -0.162,0.108 -0.27,0.108 h -0.882 c -0.18,0 -0.336,-0.09 -0.468,-0.27 l -2.574,-3.33 -2.574,3.33 c -0.072,0.084 -0.141,0.149 -0.207,0.197 -0.066,0.049 -0.153,0.072 -0.261,0.072 h -0.846 c -0.107,10e-4 -0.197,-0.035 -0.27,-0.107 z"
   id="path88" />
					</g>
				</g>
			</g>
		</g>
		<g
   id="g126">
			<g
   id="POLYLINE_643_">
				
					<polyline
   fill="none"
   stroke="#00b9d2"
   stroke-width="2"
   stroke-linecap="round"
   stroke-linejoin="round"
   stroke-miterlimit="10"
   points="      138.66,120.492 145.023,114.129 151.386,120.492     "
   id="polyline97" />
			</g>
			<g
   id="POLYLINE_642_">
				
					<line
   fill="none"
   stroke="#00b9d2"
   stroke-width="2"
   stroke-linecap="round"
   stroke-linejoin="round"
   stroke-miterlimit="10"
   x1="145.02299"
   y1="114.129"
   x2="145.02299"
   y2="560.80701"
   id="line100" />
			</g>
			<g
   id="POLYLINE_641_">
				
					<line
   fill="none"
   stroke="#00b9d2"
   stroke-width="2"
   stroke-linecap="round"
   stroke-linejoin="round"
   stroke-miterlimit="10"
   x1="145.02299"
   y1="593.80701"
   x2="145.02299"
   y2="658.242"
   id="line103" />
			</g>
			<g
   id="POLYLINE_640_">
				
					<polyline
   fill="none"
   stroke="#00b9d2"
   stroke-width="2"
   stroke-linecap="round"
   stroke-linejoin="round"
   stroke-miterlimit="10"
   points="      138.672,651.865 145.035,658.229 151.398,651.865     "
   id="polyline106" />
			</g>
			<g
   id="MTEXT_12_">
				<g
   id="g123">
					<g
   id="g121">
						<path
   fill="#00b9d2"
   d="m 120.175,581.362 c -0.684,-0.306 -1.203,-0.704 -1.557,-1.196 -0.354,-0.492 -0.543,-1.002 -0.567,-1.53 0,-0.108 0.036,-0.195 0.108,-0.261 0.072,-0.066 0.162,-0.1 0.27,-0.1 h 0.81 c 0.132,0 0.24,0.027 0.324,0.081 0.083,0.054 0.15,0.159 0.198,0.315 0.156,0.611 0.495,1.044 1.017,1.296 0.522,0.252 1.137,0.378 1.845,0.378 0.864,0 1.551,-0.207 2.061,-0.621 0.51,-0.414 0.765,-1.005 0.765,-1.773 0,-1.464 -0.894,-2.195 -2.682,-2.195 h -1.692 c -0.12,0 -0.219,-0.039 -0.297,-0.117 -0.078,-0.078 -0.117,-0.177 -0.117,-0.297 v -0.468 c 0,-0.181 0.066,-0.336 0.198,-0.469 l 3.51,-3.888 h -5.328 c -0.12,0 -0.219,-0.036 -0.297,-0.108 -0.078,-0.071 -0.117,-0.168 -0.117,-0.287 v -0.648 c 0,-0.132 0.039,-0.237 0.117,-0.315 0.078,-0.077 0.177,-0.116 0.297,-0.116 h 7.128 c 0.132,0 0.237,0.039 0.315,0.116 0.078,0.078 0.117,0.184 0.117,0.315 v 0.594 c 0,0.133 -0.061,0.271 -0.18,0.414 l -3.51,3.942 h 0.288 c 1.224,0.036 2.193,0.354 2.907,0.954 0.714,0.6 1.071,1.476 1.071,2.628 0,0.792 -0.195,1.473 -0.585,2.043 -0.39,0.57 -0.933,1.008 -1.629,1.313 -0.696,0.307 -1.482,0.459 -2.358,0.459 -0.936,0 -1.746,-0.153 -2.43,-0.459 z"
   id="path109" />
						<path
   fill="#00b9d2"
   d="m 130.336,580.462 c -0.714,-0.906 -1.095,-2.091 -1.143,-3.556 l -0.018,-1.548 0.018,-1.602 c 0.036,-1.452 0.417,-2.631 1.143,-3.537 0.726,-0.906 1.857,-1.359 3.393,-1.359 1.548,0 2.685,0.453 3.411,1.359 0.726,0.906 1.107,2.085 1.143,3.537 0.012,0.336 0.018,0.87 0.018,1.602 0,0.708 -0.006,1.225 -0.018,1.548 -0.048,1.465 -0.429,2.649 -1.143,3.556 -0.714,0.906 -1.851,1.358 -3.411,1.358 -1.548,10e-4 -2.679,-0.451 -3.393,-1.358 z m 5.481,-1.053 c 0.468,-0.611 0.714,-1.476 0.738,-2.592 0.012,-0.348 0.018,-0.846 0.018,-1.494 0,-0.659 -0.006,-1.151 -0.018,-1.476 -0.024,-1.104 -0.273,-1.965 -0.747,-2.583 -0.474,-0.618 -1.167,-0.927 -2.079,-0.927 -0.912,0 -1.602,0.309 -2.07,0.927 -0.468,0.618 -0.714,1.479 -0.738,2.583 l -0.018,1.476 0.018,1.494 c 0.024,1.116 0.27,1.98 0.738,2.592 0.468,0.612 1.158,0.918 2.07,0.918 0.924,0 1.62,-0.306 2.088,-0.918 z"
   id="path111" />
						<path
   fill="#00b9d2"
   d="m 146.374,581.524 c -0.078,-0.078 -0.117,-0.177 -0.117,-0.297 v -2.628 h -5.85 c -0.12,0 -0.219,-0.039 -0.297,-0.117 -0.078,-0.078 -0.117,-0.177 -0.117,-0.297 v -0.666 c 0,-0.168 0.066,-0.348 0.198,-0.54 l 5.418,-7.632 c 0.06,-0.096 0.15,-0.171 0.27,-0.225 0.12,-0.055 0.252,-0.081 0.396,-0.081 h 1.224 c 0.132,0 0.234,0.035 0.306,0.107 0.072,0.072 0.108,0.174 0.108,0.307 v 7.632 h 1.638 c 0.12,0 0.219,0.039 0.297,0.117 0.078,0.078 0.117,0.177 0.117,0.297 v 0.684 c 0,0.12 -0.039,0.219 -0.117,0.297 -0.078,0.078 -0.177,0.117 -0.297,0.117 h -1.638 v 2.628 c 0,0.12 -0.039,0.219 -0.117,0.297 -0.078,0.078 -0.177,0.117 -0.297,0.117 h -0.828 c -0.12,0 -0.219,-0.039 -0.297,-0.117 z m -4.509,-4.4 h 4.41 v -6.265 z"
   id="path113" />
						<path
   fill="#00b9d2"
   d="m 152.854,580.462 c -0.714,-0.906 -1.095,-2.091 -1.143,-3.556 l -0.018,-1.548 0.018,-1.602 c 0.036,-1.452 0.417,-2.631 1.143,-3.537 0.726,-0.906 1.857,-1.359 3.393,-1.359 1.548,0 2.685,0.453 3.411,1.359 0.726,0.906 1.107,2.085 1.143,3.537 0.012,0.336 0.018,0.87 0.018,1.602 0,0.708 -0.006,1.225 -0.018,1.548 -0.048,1.465 -0.429,2.649 -1.143,3.556 -0.714,0.906 -1.851,1.358 -3.411,1.358 -1.548,10e-4 -2.679,-0.451 -3.393,-1.358 z m 5.481,-1.053 c 0.468,-0.611 0.714,-1.476 0.738,-2.592 0.012,-0.348 0.018,-0.846 0.018,-1.494 0,-0.659 -0.006,-1.151 -0.018,-1.476 -0.024,-1.104 -0.273,-1.965 -0.747,-2.583 -0.474,-0.618 -1.167,-0.927 -2.079,-0.927 -0.912,0 -1.602,0.309 -2.07,0.927 -0.468,0.618 -0.714,1.479 -0.738,2.583 l -0.018,1.476 0.018,1.494 c 0.024,1.116 0.27,1.98 0.738,2.592 0.468,0.612 1.158,0.918 2.07,0.918 0.924,0 1.62,-0.306 2.088,-0.918 z"
   id="path115" />
						<path
   fill="#00b9d2"
   d="m 167.866,584.953 c -0.078,-0.071 -0.117,-0.174 -0.117,-0.306 v -11.952 c 0,-0.132 0.039,-0.233 0.117,-0.306 0.078,-0.073 0.177,-0.108 0.297,-0.108 h 0.756 c 0.132,0 0.234,0.036 0.306,0.108 0.072,0.072 0.108,0.174 0.108,0.306 v 0.792 c 0.696,-0.924 1.686,-1.386 2.97,-1.386 1.26,0 2.205,0.399 2.835,1.197 0.63,0.798 0.963,1.815 0.999,3.051 0.012,0.132 0.018,0.336 0.018,0.612 0,0.275 -0.006,0.479 -0.018,0.611 -0.036,1.225 -0.369,2.238 -0.999,3.042 -0.63,0.805 -1.575,1.206 -2.835,1.206 -1.284,0 -2.256,-0.456 -2.916,-1.368 v 4.194 c 0,0.12 -0.039,0.219 -0.117,0.297 -0.078,0.078 -0.177,0.117 -0.297,0.117 h -0.81 c -0.12,0.001 -0.219,-0.035 -0.297,-0.107 z m 5.985,-5.346 c 0.396,-0.54 0.612,-1.248 0.648,-2.124 0.012,-0.119 0.018,-0.294 0.018,-0.521 0,-2.305 -0.853,-3.456 -2.556,-3.456 -0.84,0 -1.473,0.278 -1.899,0.837 -0.426,0.558 -0.651,1.215 -0.675,1.971 -0.012,0.132 -0.018,0.366 -0.018,0.702 0,0.336 0.006,0.57 0.018,0.702 0.024,0.731 0.255,1.365 0.693,1.898 0.438,0.534 1.064,0.802 1.881,0.802 0.864,-10e-4 1.494,-0.271 1.89,-0.811 z"
   id="path117" />
						<path
   fill="#00b9d2"
   d="m 177.469,581.533 c -0.072,-0.071 -0.108,-0.161 -0.108,-0.27 0,-0.109 0.042,-0.222 0.126,-0.342 l 3.132,-4.068 -2.934,-3.87 c -0.096,-0.132 -0.144,-0.239 -0.144,-0.324 0,-0.107 0.039,-0.197 0.117,-0.27 0.078,-0.073 0.165,-0.108 0.261,-0.108 h 0.864 c 0.18,0 0.336,0.097 0.468,0.288 l 2.43,3.15 2.43,-3.15 c 0.072,-0.096 0.141,-0.168 0.207,-0.216 0.066,-0.048 0.153,-0.072 0.261,-0.072 h 0.828 c 0.096,0 0.18,0.036 0.252,0.108 0.072,0.072 0.108,0.156 0.108,0.252 0,0.12 -0.042,0.234 -0.126,0.342 l -2.97,3.906 3.132,4.032 c 0.084,0.12 0.126,0.233 0.126,0.342 0,0.109 -0.036,0.198 -0.108,0.27 -0.072,0.072 -0.162,0.108 -0.27,0.108 h -0.882 c -0.18,0 -0.336,-0.09 -0.468,-0.27 l -2.574,-3.33 -2.574,3.33 c -0.072,0.084 -0.141,0.149 -0.207,0.197 -0.066,0.049 -0.153,0.072 -0.261,0.072 h -0.846 c -0.108,10e-4 -0.198,-0.035 -0.27,-0.107 z"
   id="path119" />
					</g>
				</g>
			</g>
		</g>
	</g>
	<g
   display="inline"
   id="g254">
		<g
   id="g169">
			<g
   id="POLYLINE_150_">
				
					<polyline
   fill="none"
   stroke="#00b9d2"
   stroke-width="2"
   stroke-linecap="round"
   stroke-linejoin="round"
   stroke-miterlimit="10"
   points="      892.546,713.371 898.909,707.008 892.546,700.644     "
   id="polyline130" />
			</g>
			<g
   id="POLYLINE_149_">
				
					<line
   fill="none"
   stroke="#00b9d2"
   stroke-width="2"
   stroke-linecap="round"
   stroke-linejoin="round"
   stroke-miterlimit="10"
   x1="898.909"
   y1="707.008"
   x2="892.66901"
   y2="707.008"
   id="line133" />
			</g>
			<g
   id="POLYLINE_144_">
				
					<line
   fill="none"
   stroke="#00b9d2"
   stroke-width="2"
   stroke-linecap="round"
   stroke-linejoin="round"
   stroke-miterlimit="10"
   x1="892.66901"
   y1="707.008"
   x2="861.49701"
   y2="707.008"
   id="line136" />
			</g>
			<g
   id="POLYLINE_143_">
				
					<polyline
   fill="none"
   stroke="#00b9d2"
   stroke-width="2"
   stroke-linecap="round"
   stroke-linejoin="round"
   stroke-miterlimit="10"
   points="      867.874,713.359 861.51,706.996 867.874,700.633     "
   id="polyline139" />
			</g>
			<g
   id="MTEXT_33_">
				<g
   id="g166">
					<g
   id="g164">
						<g
   id="g162">
							<path
   fill="#00b9d2"
   d="m 786.966,738.977 c -0.087,-0.087 -0.131,-0.196 -0.131,-0.33 v -1.38 c 0,-0.133 0.044,-0.247 0.131,-0.34 0.086,-0.094 0.196,-0.141 0.329,-0.141 h 1.381 c 0.133,0 0.243,0.047 0.329,0.141 0.087,0.093 0.131,0.207 0.131,0.34 v 1.38 c 0,0.134 -0.044,0.243 -0.131,0.33 -0.086,0.087 -0.196,0.13 -0.329,0.13 h -1.381 c -0.133,0 -0.243,-0.043 -0.329,-0.13 z"
   id="path142" />
							<path
   fill="#00b9d2"
   d="m 793.695,738.797 c -0.76,-0.341 -1.337,-0.783 -1.729,-1.33 -0.394,-0.547 -0.604,-1.113 -0.631,-1.7 0,-0.12 0.04,-0.217 0.12,-0.29 0.08,-0.073 0.181,-0.11 0.3,-0.11 h 0.9 c 0.146,0 0.267,0.03 0.36,0.09 0.093,0.061 0.166,0.178 0.22,0.351 0.173,0.68 0.55,1.16 1.13,1.439 0.58,0.28 1.264,0.42 2.05,0.42 0.96,0 1.724,-0.229 2.29,-0.689 0.566,-0.46 0.851,-1.116 0.851,-1.97 0,-1.627 -0.994,-2.44 -2.98,-2.44 h -1.88 c -0.134,0 -0.243,-0.043 -0.33,-0.13 -0.087,-0.087 -0.13,-0.196 -0.13,-0.33 v -0.52 c 0,-0.2 0.073,-0.374 0.22,-0.521 l 3.9,-4.32 h -5.92 c -0.134,0 -0.243,-0.04 -0.33,-0.12 -0.087,-0.079 -0.13,-0.187 -0.13,-0.319 v -0.72 c 0,-0.147 0.043,-0.264 0.13,-0.351 0.087,-0.087 0.196,-0.13 0.33,-0.13 h 7.92 c 0.146,0 0.263,0.043 0.35,0.13 0.087,0.087 0.13,0.203 0.13,0.351 v 0.659 c 0,0.147 -0.066,0.301 -0.199,0.46 l -3.9,4.381 h 0.32 c 1.359,0.039 2.437,0.393 3.229,1.06 0.792,0.667 1.19,1.64 1.19,2.92 0,0.88 -0.217,1.637 -0.65,2.271 -0.434,0.633 -1.037,1.119 -1.81,1.46 -0.773,0.34 -1.647,0.51 -2.62,0.51 -1.041,-0.002 -1.941,-0.172 -2.701,-0.512 z"
   id="path144" />
							<path
   fill="#00b9d2"
   d="m 807.275,738.977 c -0.08,-0.087 -0.12,-0.196 -0.12,-0.33 v -11.28 l -3.359,2.58 c -0.094,0.08 -0.194,0.12 -0.301,0.12 -0.12,0 -0.233,-0.066 -0.34,-0.2 l -0.479,-0.62 c -0.067,-0.093 -0.101,-0.187 -0.101,-0.279 0,-0.146 0.066,-0.267 0.2,-0.36 l 4.34,-3.36 c 0.146,-0.093 0.32,-0.14 0.521,-0.14 h 0.939 c 0.134,0 0.243,0.043 0.33,0.13 0.087,0.087 0.13,0.197 0.13,0.33 v 13.08 c 0,0.134 -0.043,0.243 -0.13,0.33 -0.087,0.087 -0.196,0.13 -0.33,0.13 h -0.979 c -0.134,-10e-4 -0.241,-0.044 -0.321,-0.131 z"
   id="path146" />
							<path
   fill="#00b9d2"
   d="m 812.055,728.847 -0.34,-3.48 v -0.08 c 0,-0.12 0.037,-0.213 0.11,-0.279 0.073,-0.067 0.17,-0.101 0.29,-0.101 h 1.26 c 0.133,0 0.236,0.044 0.31,0.13 0.073,0.087 0.104,0.197 0.091,0.33 l -0.341,3.48 c -0.026,0.293 -0.159,0.439 -0.399,0.439 h -0.58 c -0.241,0.001 -0.375,-0.146 -0.401,-0.439 z m 3.06,0 -0.34,-3.48 v -0.04 c 0,-0.133 0.036,-0.236 0.109,-0.31 0.073,-0.074 0.17,-0.11 0.29,-0.11 h 1.26 c 0.134,0 0.237,0.044 0.311,0.13 0.073,0.087 0.103,0.197 0.09,0.33 l -0.34,3.48 c -0.027,0.293 -0.16,0.439 -0.4,0.439 h -0.58 c -0.24,0.001 -0.373,-0.146 -0.4,-0.439 z"
   id="path148" />
							<path
   fill="#00b9d2"
   d="m 824.515,743.137 c -0.08,-0.087 -0.12,-0.197 -0.12,-0.33 v -21.16 c 0,-0.133 0.04,-0.243 0.12,-0.33 0.08,-0.087 0.187,-0.13 0.32,-0.13 h 0.74 c 0.133,0 0.243,0.043 0.329,0.13 0.087,0.087 0.131,0.197 0.131,0.33 v 21.16 c 0,0.133 -0.044,0.243 -0.131,0.33 -0.086,0.086 -0.196,0.13 -0.329,0.13 h -0.74 c -0.134,0 -0.24,-0.044 -0.32,-0.13 z"
   id="path150" />
							<path
   fill="#00b9d2"
   d="m 835.145,738.977 c -0.073,-0.087 -0.11,-0.19 -0.11,-0.311 l 0.04,-0.18 5,-11.7 h -6.6 c -0.134,0 -0.244,-0.043 -0.33,-0.13 -0.087,-0.086 -0.13,-0.196 -0.13,-0.33 v -0.739 c 0,-0.147 0.04,-0.264 0.12,-0.351 0.079,-0.087 0.192,-0.13 0.34,-0.13 h 8.16 c 0.146,0 0.26,0.043 0.34,0.13 0.08,0.087 0.12,0.203 0.12,0.351 v 0.68 c 0,0.24 -0.054,0.5 -0.16,0.78 l -4.94,11.56 c -0.066,0.146 -0.14,0.267 -0.22,0.36 -0.08,0.093 -0.193,0.14 -0.34,0.14 h -1 c -0.121,0 -0.217,-0.043 -0.29,-0.13 z"
   id="path152" />
							<path
   fill="#00b9d2"
   d="m 842.805,738.977 c -0.087,-0.087 -0.131,-0.196 -0.131,-0.33 v -1.38 c 0,-0.133 0.044,-0.247 0.131,-0.34 0.086,-0.094 0.196,-0.141 0.329,-0.141 h 1.381 c 0.133,0 0.243,0.047 0.329,0.141 0.087,0.093 0.131,0.207 0.131,0.34 v 1.38 c 0,0.134 -0.044,0.243 -0.131,0.33 -0.086,0.087 -0.196,0.13 -0.329,0.13 h -1.381 c -0.133,0 -0.243,-0.043 -0.329,-0.13 z"
   id="path154" />
							<path
   fill="#00b9d2"
   d="m 849.744,738.797 c -0.793,-0.341 -1.409,-0.83 -1.85,-1.471 -0.44,-0.64 -0.66,-1.387 -0.66,-2.239 0,-0.787 0.196,-1.477 0.59,-2.07 0.394,-0.593 0.924,-1.05 1.59,-1.37 -0.533,-0.307 -0.946,-0.71 -1.239,-1.21 -0.294,-0.5 -0.44,-1.09 -0.44,-1.771 0,-1.159 0.434,-2.076 1.3,-2.75 0.867,-0.673 2.007,-1.01 3.42,-1.01 1.413,0 2.551,0.334 3.41,1 0.86,0.667 1.29,1.587 1.29,2.76 0,0.667 -0.146,1.25 -0.439,1.75 -0.294,0.5 -0.7,0.91 -1.221,1.23 0.667,0.32 1.197,0.776 1.591,1.37 0.393,0.594 0.59,1.29 0.59,2.09 0,0.854 -0.221,1.597 -0.66,2.23 -0.44,0.633 -1.057,1.119 -1.851,1.46 -0.793,0.34 -1.696,0.51 -2.71,0.51 -1.014,10e-4 -1.917,-0.169 -2.711,-0.509 z m 5.08,-1.77 c 0.634,-0.479 0.95,-1.12 0.95,-1.92 0,-0.8 -0.316,-1.44 -0.95,-1.92 -0.633,-0.48 -1.423,-0.72 -2.37,-0.72 -0.96,0 -1.757,0.239 -2.39,0.72 -0.634,0.479 -0.95,1.12 -0.95,1.92 0,0.8 0.316,1.44 0.95,1.92 0.633,0.48 1.43,0.72 2.39,0.72 0.947,0 1.737,-0.24 2.37,-0.72 z m -0.309,-6.72 c 0.56,-0.4 0.84,-0.934 0.84,-1.601 0,-0.68 -0.277,-1.223 -0.83,-1.63 -0.554,-0.406 -1.243,-0.609 -2.07,-0.609 -0.84,0 -1.533,0.203 -2.08,0.609 -0.547,0.407 -0.819,0.95 -0.819,1.63 0,0.681 0.272,1.224 0.819,1.631 0.547,0.406 1.24,0.609 2.08,0.609 0.813,-0.026 1.499,-0.239 2.06,-0.639 z"
   id="path156" />
							<path
   fill="#00b9d2"
   d="m 865.344,738.977 c -0.087,-0.087 -0.13,-0.196 -0.13,-0.33 v -9.48 c 0,-0.133 0.043,-0.243 0.13,-0.329 0.087,-0.087 0.196,-0.131 0.33,-0.131 h 0.84 c 0.133,0 0.24,0.044 0.32,0.131 0.08,0.086 0.12,0.196 0.12,0.329 v 0.681 c 0.72,-0.894 1.692,-1.34 2.92,-1.34 1.466,0 2.506,0.613 3.119,1.84 0.32,-0.561 0.777,-1.007 1.37,-1.34 0.594,-0.334 1.257,-0.5 1.99,-0.5 1.093,0 1.986,0.373 2.68,1.119 0.693,0.747 1.04,1.827 1.04,3.24 v 5.78 c 0,0.134 -0.043,0.243 -0.13,0.33 -0.087,0.087 -0.196,0.13 -0.33,0.13 h -0.859 c -0.134,0 -0.244,-0.043 -0.33,-0.13 -0.087,-0.087 -0.13,-0.196 -0.13,-0.33 v -5.6 c 0,-1.067 -0.221,-1.83 -0.66,-2.29 -0.44,-0.46 -1.021,-0.69 -1.74,-0.69 -0.64,0 -1.189,0.237 -1.65,0.71 -0.46,0.474 -0.689,1.23 -0.689,2.271 v 5.6 c 0,0.134 -0.044,0.243 -0.13,0.33 -0.087,0.087 -0.197,0.13 -0.33,0.13 h -0.88 c -0.134,0 -0.244,-0.043 -0.33,-0.13 -0.087,-0.087 -0.13,-0.196 -0.13,-0.33 v -5.6 c 0,-1.054 -0.23,-1.813 -0.69,-2.28 -0.46,-0.467 -1.03,-0.7 -1.71,-0.7 -0.64,0 -1.189,0.233 -1.649,0.7 -0.461,0.467 -0.69,1.22 -0.69,2.26 v 5.62 c 0,0.134 -0.044,0.243 -0.13,0.33 -0.087,0.087 -0.197,0.13 -0.33,0.13 h -0.88 c -0.136,-10e-4 -0.245,-0.044 -0.332,-0.131 z"
   id="path158" />
							<path
   fill="#00b9d2"
   d="m 883.104,738.977 c -0.087,-0.087 -0.13,-0.196 -0.13,-0.33 v -9.48 c 0,-0.133 0.043,-0.243 0.13,-0.329 0.087,-0.087 0.196,-0.131 0.33,-0.131 h 0.84 c 0.133,0 0.24,0.044 0.32,0.131 0.08,0.086 0.12,0.196 0.12,0.329 v 0.681 c 0.72,-0.894 1.692,-1.34 2.92,-1.34 1.466,0 2.506,0.613 3.119,1.84 0.32,-0.561 0.777,-1.007 1.37,-1.34 0.594,-0.334 1.257,-0.5 1.99,-0.5 1.093,0 1.986,0.373 2.68,1.119 0.693,0.747 1.04,1.827 1.04,3.24 v 5.78 c 0,0.134 -0.043,0.243 -0.13,0.33 -0.087,0.087 -0.196,0.13 -0.33,0.13 h -0.859 c -0.134,0 -0.244,-0.043 -0.33,-0.13 -0.087,-0.087 -0.13,-0.196 -0.13,-0.33 v -5.6 c 0,-1.067 -0.221,-1.83 -0.66,-2.29 -0.44,-0.46 -1.021,-0.69 -1.74,-0.69 -0.64,0 -1.189,0.237 -1.65,0.71 -0.46,0.474 -0.689,1.23 -0.689,2.271 v 5.6 c 0,0.134 -0.044,0.243 -0.13,0.33 -0.087,0.087 -0.197,0.13 -0.33,0.13 h -0.88 c -0.134,0 -0.244,-0.043 -0.33,-0.13 -0.087,-0.087 -0.13,-0.196 -0.13,-0.33 v -5.6 c 0,-1.054 -0.23,-1.813 -0.69,-2.28 -0.46,-0.467 -1.03,-0.7 -1.71,-0.7 -0.64,0 -1.189,0.233 -1.649,0.7 -0.461,0.467 -0.69,1.22 -0.69,2.26 v 5.62 c 0,0.134 -0.044,0.243 -0.13,0.33 -0.087,0.087 -0.197,0.13 -0.33,0.13 h -0.88 c -0.136,-10e-4 -0.246,-0.044 -0.332,-0.131 z"
   id="path160" />
						</g>
					</g>
				</g>
			</g>
		</g>
		<g
   id="g212">
			<g
   id="POLYLINE_142_">
				
					<polyline
   fill="none"
   stroke="#00b9d2"
   stroke-width="2"
   stroke-linecap="round"
   stroke-linejoin="round"
   stroke-miterlimit="10"
   points="      105.305,709.041 98.941,715.405 105.305,721.768     "
   id="polyline171" />
			</g>
			<g
   id="POLYLINE_137_">
				
					<line
   fill="none"
   stroke="#00b9d2"
   stroke-width="2"
   stroke-linecap="round"
   stroke-linejoin="round"
   stroke-miterlimit="10"
   x1="98.941002"
   y1="715.40503"
   x2="157.45799"
   y2="715.40503"
   id="line174" />
			</g>
			<g
   id="POLYLINE_131_">
				
					<line
   fill="none"
   stroke="#00b9d2"
   stroke-width="2"
   stroke-linecap="round"
   stroke-linejoin="round"
   stroke-miterlimit="10"
   x1="310.927"
   y1="715.40503"
   x2="379.888"
   y2="715.40503"
   id="line177" />
			</g>
			<g
   id="POLYLINE_130_">
				
					<polyline
   fill="none"
   stroke="#00b9d2"
   stroke-width="2"
   stroke-linecap="round"
   stroke-linejoin="round"
   stroke-miterlimit="10"
   points="      373.511,709.053 379.875,715.416 373.511,721.78     "
   id="polyline180" />
			</g>
			<g
   id="MTEXT_29_">
				<g
   id="g209">
					<g
   id="g207">
						<path
   fill="#00b9d2"
   d="m 166.923,722.25 c -0.087,-0.087 -0.13,-0.196 -0.13,-0.33 v -0.6 c 0,-0.307 0.167,-0.601 0.5,-0.881 l 4.36,-4.34 c 0.987,-0.84 1.667,-1.526 2.04,-2.06 0.373,-0.533 0.56,-1.101 0.56,-1.7 0,-0.786 -0.22,-1.403 -0.66,-1.85 -0.44,-0.447 -1.08,-0.67 -1.92,-0.67 -0.8,0 -1.433,0.233 -1.9,0.699 -0.467,0.467 -0.753,1.094 -0.86,1.88 -0.027,0.147 -0.094,0.261 -0.2,0.341 -0.107,0.08 -0.213,0.12 -0.32,0.12 h -0.96 c -0.12,0 -0.22,-0.04 -0.3,-0.12 -0.08,-0.08 -0.12,-0.174 -0.12,-0.28 0.026,-0.707 0.216,-1.39 0.57,-2.05 0.353,-0.66 0.876,-1.2 1.57,-1.62 0.694,-0.42 1.533,-0.63 2.52,-0.63 1.493,0 2.617,0.39 3.37,1.17 0.753,0.78 1.13,1.77 1.13,2.97 0,0.84 -0.203,1.597 -0.61,2.271 -0.407,0.673 -1.043,1.383 -1.91,2.13 l -3.94,4 h 6.3 c 0.146,0 0.26,0.04 0.34,0.12 0.08,0.079 0.12,0.193 0.12,0.34 v 0.76 c 0,0.134 -0.043,0.243 -0.13,0.33 -0.086,0.087 -0.197,0.13 -0.33,0.13 h -8.76 c -0.133,0 -0.243,-0.043 -0.33,-0.13 z"
   id="path183" />
						<path
   fill="#00b9d2"
   d="m 178.983,722.25 c -0.087,-0.087 -0.13,-0.196 -0.13,-0.33 v -1.38 c 0,-0.133 0.043,-0.247 0.13,-0.34 0.086,-0.094 0.196,-0.141 0.33,-0.141 h 1.38 c 0.133,0 0.243,0.047 0.33,0.141 0.087,0.093 0.13,0.207 0.13,0.34 v 1.38 c 0,0.134 -0.043,0.243 -0.13,0.33 -0.086,0.087 -0.197,0.13 -0.33,0.13 h -1.38 c -0.133,0 -0.243,-0.043 -0.33,-0.13 z"
   id="path185" />
						<path
   fill="#00b9d2"
   d="m 184.603,722.25 c -0.073,-0.087 -0.11,-0.19 -0.11,-0.311 l 0.04,-0.18 5,-11.7 h -6.6 c -0.133,0 -0.244,-0.043 -0.33,-0.13 -0.087,-0.086 -0.13,-0.196 -0.13,-0.33 v -0.739 c 0,-0.147 0.04,-0.264 0.12,-0.351 0.08,-0.087 0.193,-0.13 0.34,-0.13 h 8.16 c 0.146,0 0.26,0.043 0.34,0.13 0.08,0.087 0.12,0.203 0.12,0.351 v 0.68 c 0,0.24 -0.054,0.5 -0.16,0.78 l -4.94,11.56 c -0.067,0.146 -0.14,0.267 -0.22,0.36 -0.08,0.093 -0.193,0.14 -0.34,0.14 h -1 c -0.12,0 -0.217,-0.043 -0.29,-0.13 z"
   id="path187" />
						<path
   fill="#00b9d2"
   d="m 194.803,722.25 c -0.073,-0.087 -0.11,-0.19 -0.11,-0.311 l 0.04,-0.18 5,-11.7 h -6.6 c -0.133,0 -0.244,-0.043 -0.33,-0.13 -0.087,-0.086 -0.13,-0.196 -0.13,-0.33 v -0.739 c 0,-0.147 0.04,-0.264 0.12,-0.351 0.08,-0.087 0.193,-0.13 0.34,-0.13 h 8.16 c 0.146,0 0.26,0.043 0.34,0.13 0.08,0.087 0.12,0.203 0.12,0.351 v 0.68 c 0,0.24 -0.054,0.5 -0.16,0.78 l -4.94,11.56 c -0.067,0.146 -0.14,0.267 -0.22,0.36 -0.08,0.093 -0.193,0.14 -0.34,0.14 h -1 c -0.12,0 -0.217,-0.043 -0.29,-0.13 z"
   id="path189" />
						<path
   fill="#00b9d2"
   d="m 203.503,711.861 c -0.06,-0.08 -0.077,-0.181 -0.05,-0.301 l 0.44,-2.8 c 0.053,-0.387 0.24,-0.58 0.56,-0.58 h 1.28 c 0.093,0 0.17,0.033 0.23,0.101 0.06,0.066 0.09,0.146 0.09,0.239 0,0.134 -0.02,0.24 -0.06,0.32 l -1.04,2.7 c -0.067,0.146 -0.14,0.257 -0.22,0.33 -0.08,0.073 -0.2,0.109 -0.36,0.109 h -0.62 c -0.107,10e-4 -0.19,-0.039 -0.25,-0.118 z m 3.14,0 c -0.06,-0.08 -0.077,-0.181 -0.05,-0.301 l 0.44,-2.8 c 0.053,-0.387 0.24,-0.58 0.56,-0.58 h 1.28 c 0.093,0 0.17,0.033 0.23,0.101 0.06,0.066 0.09,0.146 0.09,0.239 0,0.134 -0.02,0.24 -0.06,0.32 l -1.04,2.7 c -0.067,0.146 -0.14,0.257 -0.22,0.33 -0.08,0.073 -0.2,0.109 -0.36,0.109 h -0.62 c -0.107,10e-4 -0.19,-0.039 -0.25,-0.118 z"
   id="path191" />
						<path
   fill="#00b9d2"
   d="m 216.512,726.411 c -0.08,-0.087 -0.12,-0.197 -0.12,-0.33 v -21.16 c 0,-0.133 0.04,-0.243 0.12,-0.33 0.08,-0.087 0.187,-0.13 0.32,-0.13 h 0.74 c 0.133,0 0.243,0.043 0.33,0.13 0.087,0.087 0.13,0.197 0.13,0.33 v 21.16 c 0,0.133 -0.043,0.243 -0.13,0.33 -0.086,0.086 -0.197,0.13 -0.33,0.13 h -0.74 c -0.133,0 -0.24,-0.044 -0.32,-0.13 z"
   id="path193" />
						<path
   fill="#00b9d2"
   d="m 227.142,722.25 c -0.073,-0.087 -0.11,-0.19 -0.11,-0.311 l 0.04,-0.18 5,-11.7 h -6.6 c -0.133,0 -0.244,-0.043 -0.33,-0.13 -0.087,-0.086 -0.13,-0.196 -0.13,-0.33 v -0.739 c 0,-0.147 0.04,-0.264 0.12,-0.351 0.08,-0.087 0.193,-0.13 0.34,-0.13 h 8.16 c 0.146,0 0.26,0.043 0.34,0.13 0.08,0.087 0.12,0.203 0.12,0.351 v 0.68 c 0,0.24 -0.054,0.5 -0.16,0.78 l -4.94,11.56 c -0.067,0.146 -0.14,0.267 -0.22,0.36 -0.08,0.093 -0.193,0.14 -0.34,0.14 h -1 c -0.12,0 -0.217,-0.043 -0.29,-0.13 z"
   id="path195" />
						<path
   fill="#00b9d2"
   d="m 237.182,721.071 c -0.793,-1.007 -1.217,-2.323 -1.27,-3.95 l -0.02,-1.721 0.02,-1.779 c 0.04,-1.613 0.463,-2.924 1.27,-3.931 0.807,-1.006 2.063,-1.51 3.77,-1.51 1.72,0 2.983,0.504 3.79,1.51 0.807,1.007 1.23,2.317 1.27,3.931 0.013,0.373 0.02,0.967 0.02,1.779 0,0.787 -0.007,1.36 -0.02,1.721 -0.053,1.627 -0.477,2.943 -1.27,3.95 -0.793,1.007 -2.057,1.51 -3.79,1.51 -1.72,0 -2.977,-0.503 -3.77,-1.51 z m 6.09,-1.171 c 0.52,-0.68 0.793,-1.64 0.82,-2.88 0.013,-0.386 0.02,-0.939 0.02,-1.659 0,-0.733 -0.007,-1.28 -0.02,-1.641 -0.027,-1.227 -0.303,-2.183 -0.83,-2.87 -0.527,-0.687 -1.297,-1.029 -2.31,-1.029 -1.013,0 -1.78,0.343 -2.3,1.029 -0.52,0.688 -0.793,1.644 -0.82,2.87 l -0.02,1.641 0.02,1.659 c 0.026,1.24 0.3,2.2 0.82,2.88 0.52,0.681 1.287,1.021 2.3,1.021 1.027,-0.001 1.8,-0.34 2.32,-1.021 z"
   id="path197" />
						<path
   fill="#00b9d2"
   d="m 248.462,722.25 c -0.087,-0.087 -0.13,-0.196 -0.13,-0.33 v -1.38 c 0,-0.133 0.043,-0.247 0.13,-0.34 0.086,-0.094 0.196,-0.141 0.33,-0.141 h 1.38 c 0.133,0 0.243,0.047 0.33,0.141 0.087,0.093 0.13,0.207 0.13,0.34 v 1.38 c 0,0.134 -0.043,0.243 -0.13,0.33 -0.086,0.087 -0.197,0.13 -0.33,0.13 h -1.38 c -0.134,0 -0.244,-0.043 -0.33,-0.13 z"
   id="path199" />
						<path
   fill="#00b9d2"
   d="m 259.362,722.25 c -0.087,-0.087 -0.13,-0.196 -0.13,-0.33 V 719 h -6.5 c -0.133,0 -0.244,-0.043 -0.33,-0.13 -0.087,-0.087 -0.13,-0.197 -0.13,-0.33 v -0.74 c 0,-0.187 0.073,-0.387 0.22,-0.6 l 6.02,-8.48 c 0.067,-0.106 0.167,-0.189 0.3,-0.25 0.133,-0.06 0.28,-0.09 0.44,-0.09 h 1.36 c 0.146,0 0.26,0.04 0.34,0.12 0.08,0.08 0.12,0.193 0.12,0.34 v 8.48 h 1.82 c 0.133,0 0.243,0.043 0.33,0.13 0.087,0.087 0.13,0.196 0.13,0.33 v 0.76 c 0,0.133 -0.043,0.243 -0.13,0.33 -0.087,0.087 -0.197,0.13 -0.33,0.13 h -1.82 v 2.92 c 0,0.134 -0.043,0.243 -0.13,0.33 -0.087,0.087 -0.197,0.13 -0.33,0.13 h -0.92 c -0.133,0 -0.244,-0.043 -0.33,-0.13 z m -5.01,-4.889 h 4.9 V 710.4 Z"
   id="path201" />
						<path
   fill="#00b9d2"
   d="m 270.562,722.25 c -0.087,-0.087 -0.13,-0.196 -0.13,-0.33 v -9.48 c 0,-0.133 0.043,-0.243 0.13,-0.329 0.087,-0.087 0.197,-0.131 0.33,-0.131 h 0.84 c 0.133,0 0.24,0.044 0.32,0.131 0.08,0.086 0.12,0.196 0.12,0.329 v 0.681 c 0.72,-0.894 1.693,-1.34 2.92,-1.34 1.466,0 2.506,0.613 3.12,1.84 0.32,-0.561 0.777,-1.007 1.37,-1.34 0.593,-0.334 1.257,-0.5 1.99,-0.5 1.093,0 1.986,0.373 2.68,1.119 0.693,0.747 1.04,1.827 1.04,3.24 v 5.78 c 0,0.134 -0.043,0.243 -0.13,0.33 -0.087,0.087 -0.197,0.13 -0.33,0.13 h -0.86 c -0.133,0 -0.244,-0.043 -0.33,-0.13 -0.087,-0.087 -0.13,-0.196 -0.13,-0.33 v -5.6 c 0,-1.067 -0.22,-1.83 -0.66,-2.29 -0.44,-0.46 -1.02,-0.69 -1.74,-0.69 -0.64,0 -1.19,0.237 -1.65,0.71 -0.46,0.474 -0.69,1.23 -0.69,2.271 v 5.6 c 0,0.134 -0.043,0.243 -0.13,0.33 -0.087,0.087 -0.197,0.13 -0.33,0.13 h -0.88 c -0.133,0 -0.244,-0.043 -0.33,-0.13 -0.087,-0.087 -0.13,-0.196 -0.13,-0.33 v -5.6 c 0,-1.054 -0.23,-1.813 -0.69,-2.28 -0.46,-0.467 -1.03,-0.7 -1.71,-0.7 -0.64,0 -1.19,0.233 -1.65,0.7 -0.46,0.467 -0.69,1.22 -0.69,2.26 v 5.62 c 0,0.134 -0.043,0.243 -0.13,0.33 -0.087,0.087 -0.197,0.13 -0.33,0.13 h -0.88 c -0.134,-10e-4 -0.244,-0.044 -0.33,-0.131 z"
   id="path203" />
						<path
   fill="#00b9d2"
   d="m 288.321,722.25 c -0.087,-0.087 -0.13,-0.196 -0.13,-0.33 v -9.48 c 0,-0.133 0.043,-0.243 0.13,-0.329 0.087,-0.087 0.197,-0.131 0.33,-0.131 h 0.84 c 0.133,0 0.24,0.044 0.32,0.131 0.08,0.086 0.12,0.196 0.12,0.329 v 0.681 c 0.72,-0.894 1.693,-1.34 2.92,-1.34 1.466,0 2.506,0.613 3.12,1.84 0.32,-0.561 0.777,-1.007 1.37,-1.34 0.593,-0.334 1.257,-0.5 1.99,-0.5 1.093,0 1.986,0.373 2.68,1.119 0.693,0.747 1.04,1.827 1.04,3.24 v 5.78 c 0,0.134 -0.043,0.243 -0.13,0.33 -0.087,0.087 -0.197,0.13 -0.33,0.13 h -0.86 c -0.133,0 -0.244,-0.043 -0.33,-0.13 -0.087,-0.087 -0.13,-0.196 -0.13,-0.33 v -5.6 c 0,-1.067 -0.22,-1.83 -0.66,-2.29 -0.44,-0.46 -1.02,-0.69 -1.74,-0.69 -0.64,0 -1.19,0.237 -1.65,0.71 -0.46,0.474 -0.69,1.23 -0.69,2.271 v 5.6 c 0,0.134 -0.043,0.243 -0.13,0.33 -0.087,0.087 -0.197,0.13 -0.33,0.13 h -0.88 c -0.133,0 -0.244,-0.043 -0.33,-0.13 -0.087,-0.087 -0.13,-0.196 -0.13,-0.33 v -5.6 c 0,-1.054 -0.23,-1.813 -0.69,-2.28 -0.46,-0.467 -1.03,-0.7 -1.71,-0.7 -0.64,0 -1.19,0.233 -1.65,0.7 -0.46,0.467 -0.69,1.22 -0.69,2.26 v 5.62 c 0,0.134 -0.043,0.243 -0.13,0.33 -0.087,0.087 -0.197,0.13 -0.33,0.13 h -0.88 c -0.133,-10e-4 -0.243,-0.044 -0.33,-0.131 z"
   id="path205" />
					</g>
				</g>
			</g>
		</g>
		<g
   id="g252">
			<g
   id="POLYLINE_20_">
				
					<polyline
   fill="none"
   stroke="#00b9d2"
   stroke-width="2"
   stroke-linecap="round"
   stroke-linejoin="round"
   stroke-miterlimit="10"
   points="      940.784,95.3 934.421,88.937 928.057,95.3     "
   id="polyline214" />
			</g>
			<g
   id="POLYLINE_10_">
				
					<line
   fill="none"
   stroke="#00b9d2"
   stroke-width="2"
   stroke-linecap="round"
   stroke-linejoin="round"
   stroke-miterlimit="10"
   x1="934.42102"
   y1="89.120003"
   x2="934.42102"
   y2="683.88397"
   id="line217" />
			</g>
			<g
   id="POLYLINE_9_">
				
					<polyline
   fill="none"
   stroke="#00b9d2"
   stroke-width="2"
   stroke-linecap="round"
   stroke-linejoin="round"
   stroke-miterlimit="10"
   points="      940.772,677.507 934.409,683.871 928.046,677.507     "
   id="polyline220" />
			</g>
			<g
   id="MTEXT_2_">
				<g
   id="g249">
					<g
   id="g247">
						<path
   fill="#00b9d2"
   d="m 806.735,70.041 c -0.734,-0.36 -1.293,-0.83 -1.68,-1.41 -0.387,-0.58 -0.593,-1.203 -0.62,-1.87 v -0.04 c 0,-0.106 0.04,-0.193 0.12,-0.26 0.08,-0.067 0.173,-0.1 0.28,-0.1 h 0.98 c 0.28,0 0.46,0.146 0.54,0.439 0.2,0.72 0.57,1.257 1.11,1.61 0.54,0.353 1.163,0.529 1.87,0.529 0.907,0 1.66,-0.276 2.26,-0.829 0.6,-0.554 0.9,-1.317 0.9,-2.29 0,-0.894 -0.3,-1.604 -0.9,-2.131 -0.6,-0.526 -1.354,-0.79 -2.26,-0.79 -0.48,0 -0.867,0.061 -1.16,0.181 -0.293,0.12 -0.594,0.293 -0.9,0.52 -0.173,0.134 -0.316,0.23 -0.43,0.29 -0.113,0.061 -0.237,0.09 -0.37,0.09 h -0.96 c -0.12,0 -0.227,-0.043 -0.32,-0.13 -0.094,-0.086 -0.134,-0.189 -0.12,-0.31 l 0.62,-6.66 c 0.04,-0.333 0.207,-0.5 0.5,-0.5 h 6.92 c 0.146,0 0.26,0.04 0.34,0.12 0.08,0.08 0.12,0.193 0.12,0.34 v 0.74 c 0,0.133 -0.043,0.24 -0.13,0.319 -0.087,0.08 -0.197,0.12 -0.33,0.12 h -5.76 l -0.36,4.021 c 0.64,-0.453 1.5,-0.68 2.58,-0.68 0.893,0 1.707,0.177 2.44,0.529 0.733,0.354 1.316,0.87 1.75,1.55 0.433,0.681 0.65,1.487 0.65,2.421 0,0.986 -0.217,1.836 -0.65,2.55 -0.434,0.713 -1.033,1.253 -1.8,1.62 -0.767,0.366 -1.644,0.55 -2.63,0.55 -1,0.001 -1.867,-0.18 -2.6,-0.539 z"
   id="path223" />
						<path
   fill="#00b9d2"
   d="m 816.666,70.25 c -0.087,-0.087 -0.13,-0.196 -0.13,-0.33 v -1.38 c 0,-0.133 0.043,-0.247 0.13,-0.34 0.086,-0.094 0.196,-0.141 0.33,-0.141 h 1.38 c 0.133,0 0.243,0.047 0.33,0.141 0.087,0.093 0.13,0.207 0.13,0.34 v 1.38 c 0,0.134 -0.043,0.243 -0.13,0.33 -0.086,0.087 -0.197,0.13 -0.33,0.13 h -1.38 c -0.134,0 -0.244,-0.043 -0.33,-0.13 z"
   id="path225" />
						<path
   fill="#00b9d2"
   d="m 822.865,70.25 c -0.073,-0.087 -0.11,-0.19 -0.11,-0.311 0,-0.093 0.026,-0.18 0.08,-0.26 l 3.08,-4.28 c -0.32,0.08 -0.693,0.12 -1.12,0.12 -0.96,-0.013 -1.8,-0.236 -2.52,-0.67 -0.72,-0.433 -1.27,-1 -1.65,-1.7 -0.38,-0.699 -0.57,-1.449 -0.57,-2.25 0,-0.8 0.19,-1.56 0.57,-2.279 0.38,-0.721 0.946,-1.307 1.7,-1.76 0.754,-0.453 1.663,-0.681 2.73,-0.681 1.067,0 1.98,0.22 2.74,0.66 0.76,0.44 1.333,1.017 1.72,1.73 0.386,0.713 0.58,1.477 0.58,2.29 0,0.733 -0.13,1.38 -0.39,1.939 -0.26,0.561 -0.604,1.14 -1.03,1.74 l -3.88,5.439 c -0.093,0.12 -0.184,0.217 -0.27,0.29 -0.087,0.074 -0.21,0.11 -0.37,0.11 h -1 c -0.12,0.003 -0.217,-0.04 -0.29,-0.127 z m 3.77,-6.69 c 0.48,-0.253 0.86,-0.609 1.14,-1.069 0.28,-0.46 0.42,-0.99 0.42,-1.591 0,-0.612 -0.14,-1.152 -0.42,-1.619 -0.28,-0.467 -0.66,-0.827 -1.14,-1.08 -0.48,-0.254 -1.007,-0.38 -1.58,-0.38 -0.56,0 -1.077,0.126 -1.55,0.38 -0.474,0.253 -0.85,0.613 -1.13,1.08 -0.28,0.467 -0.42,1.007 -0.42,1.619 0,0.601 0.14,1.131 0.42,1.591 0.28,0.46 0.653,0.816 1.12,1.069 0.466,0.254 0.986,0.38 1.56,0.38 0.574,0 1.1,-0.126 1.58,-0.38 z"
   id="path227" />
						<path
   fill="#00b9d2"
   d="m 832.305,59.861 c -0.06,-0.08 -0.077,-0.181 -0.05,-0.301 l 0.44,-2.8 c 0.053,-0.387 0.24,-0.58 0.56,-0.58 h 1.28 c 0.093,0 0.17,0.033 0.23,0.101 0.06,0.066 0.09,0.146 0.09,0.239 0,0.134 -0.02,0.24 -0.06,0.32 l -1.04,2.7 c -0.067,0.146 -0.14,0.257 -0.22,0.33 -0.08,0.073 -0.2,0.109 -0.36,0.109 h -0.62 c -0.107,10e-4 -0.19,-0.039 -0.25,-0.118 z m 3.14,0 c -0.06,-0.08 -0.077,-0.181 -0.05,-0.301 l 0.44,-2.8 c 0.053,-0.387 0.24,-0.58 0.56,-0.58 h 1.28 c 0.093,0 0.17,0.033 0.23,0.101 0.06,0.066 0.09,0.146 0.09,0.239 0,0.134 -0.02,0.24 -0.06,0.32 l -1.04,2.7 c -0.067,0.146 -0.14,0.257 -0.22,0.33 -0.08,0.073 -0.2,0.109 -0.36,0.109 h -0.62 c -0.107,10e-4 -0.19,-0.039 -0.25,-0.118 z"
   id="path229" />
						<path
   fill="#00b9d2"
   d="m 845.315,74.411 c -0.08,-0.087 -0.12,-0.197 -0.12,-0.33 V 52.92 c 0,-0.133 0.04,-0.243 0.12,-0.33 0.08,-0.087 0.187,-0.13 0.32,-0.13 h 0.74 c 0.133,0 0.243,0.043 0.33,0.13 0.087,0.087 0.13,0.197 0.13,0.33 v 21.16 c 0,0.133 -0.043,0.243 -0.13,0.33 -0.086,0.086 -0.197,0.13 -0.33,0.13 h -0.74 c -0.134,10e-4 -0.24,-0.043 -0.32,-0.129 z"
   id="path231" />
						<path
   fill="#00b9d2"
   d="m 858.434,70.25 c -0.08,-0.087 -0.12,-0.196 -0.12,-0.33 V 58.64 l -3.36,2.58 c -0.094,0.08 -0.194,0.12 -0.3,0.12 -0.12,0 -0.233,-0.066 -0.34,-0.2 l -0.48,-0.62 c -0.067,-0.093 -0.1,-0.187 -0.1,-0.279 0,-0.146 0.066,-0.267 0.2,-0.36 l 4.34,-3.36 c 0.146,-0.093 0.32,-0.14 0.52,-0.14 h 0.94 c 0.133,0 0.243,0.043 0.33,0.13 0.086,0.087 0.13,0.197 0.13,0.33 v 13.08 c 0,0.134 -0.043,0.243 -0.13,0.33 -0.087,0.087 -0.197,0.13 -0.33,0.13 h -0.98 c -0.133,-0.001 -0.24,-0.044 -0.32,-0.131 z"
   id="path233" />
						<path
   fill="#00b9d2"
   d="m 869.444,70.25 c -0.087,-0.087 -0.13,-0.196 -0.13,-0.33 V 67 h -6.5 c -0.133,0 -0.244,-0.043 -0.33,-0.13 -0.087,-0.087 -0.13,-0.197 -0.13,-0.33 V 65.8 c 0,-0.187 0.073,-0.387 0.22,-0.6 l 6.02,-8.48 c 0.067,-0.106 0.167,-0.189 0.3,-0.25 0.133,-0.06 0.28,-0.09 0.44,-0.09 h 1.36 c 0.146,0 0.26,0.04 0.34,0.12 0.08,0.08 0.12,0.193 0.12,0.34 v 8.48 h 1.82 c 0.133,0 0.243,0.043 0.33,0.13 0.087,0.087 0.13,0.196 0.13,0.33 v 0.76 c 0,0.133 -0.043,0.243 -0.13,0.33 -0.087,0.087 -0.197,0.13 -0.33,0.13 h -1.82 v 2.92 c 0,0.134 -0.043,0.243 -0.13,0.33 -0.087,0.087 -0.197,0.13 -0.33,0.13 h -0.92 c -0.133,0 -0.244,-0.043 -0.33,-0.13 z m -5.01,-4.889 h 4.9 V 58.4 Z"
   id="path235" />
						<path
   fill="#00b9d2"
   d="m 877.524,70.25 c -0.073,-0.087 -0.11,-0.19 -0.11,-0.311 0,-0.093 0.026,-0.18 0.08,-0.26 l 3.08,-4.28 c -0.32,0.08 -0.693,0.12 -1.12,0.12 -0.96,-0.013 -1.8,-0.236 -2.52,-0.67 -0.72,-0.433 -1.27,-1 -1.65,-1.7 -0.38,-0.699 -0.57,-1.449 -0.57,-2.25 0,-0.8 0.19,-1.56 0.57,-2.279 0.38,-0.721 0.946,-1.307 1.7,-1.76 0.754,-0.453 1.663,-0.681 2.73,-0.681 1.067,0 1.98,0.22 2.74,0.66 0.76,0.44 1.333,1.017 1.72,1.73 0.386,0.713 0.58,1.477 0.58,2.29 0,0.733 -0.13,1.38 -0.39,1.939 -0.26,0.561 -0.604,1.14 -1.03,1.74 l -3.88,5.439 c -0.093,0.12 -0.184,0.217 -0.27,0.29 -0.087,0.074 -0.21,0.11 -0.37,0.11 h -1 c -0.12,0.003 -0.217,-0.04 -0.29,-0.127 z m 3.77,-6.69 c 0.48,-0.253 0.86,-0.609 1.14,-1.069 0.28,-0.46 0.42,-0.99 0.42,-1.591 0,-0.612 -0.14,-1.152 -0.42,-1.619 -0.28,-0.467 -0.66,-0.827 -1.14,-1.08 -0.48,-0.254 -1.007,-0.38 -1.58,-0.38 -0.56,0 -1.077,0.126 -1.55,0.38 -0.474,0.253 -0.85,0.613 -1.13,1.08 -0.28,0.467 -0.42,1.007 -0.42,1.619 0,0.601 0.14,1.131 0.42,1.591 0.28,0.46 0.653,0.816 1.12,1.069 0.466,0.254 0.986,0.38 1.56,0.38 0.574,0 1.1,-0.126 1.58,-0.38 z"
   id="path237" />
						<path
   fill="#00b9d2"
   d="m 885.944,70.25 c -0.087,-0.087 -0.13,-0.196 -0.13,-0.33 v -1.38 c 0,-0.133 0.043,-0.247 0.13,-0.34 0.086,-0.094 0.196,-0.141 0.33,-0.141 h 1.38 c 0.133,0 0.243,0.047 0.33,0.141 0.087,0.093 0.13,0.207 0.13,0.34 v 1.38 c 0,0.134 -0.043,0.243 -0.13,0.33 -0.086,0.087 -0.197,0.13 -0.33,0.13 h -1.38 c -0.134,0 -0.244,-0.043 -0.33,-0.13 z"
   id="path239" />
						<path
   fill="#00b9d2"
   d="m 892.144,70.25 c -0.073,-0.087 -0.11,-0.19 -0.11,-0.311 0,-0.093 0.026,-0.18 0.08,-0.26 l 3.08,-4.28 c -0.32,0.08 -0.693,0.12 -1.12,0.12 -0.96,-0.013 -1.8,-0.236 -2.52,-0.67 -0.72,-0.433 -1.27,-1 -1.65,-1.7 -0.38,-0.699 -0.57,-1.449 -0.57,-2.25 0,-0.8 0.19,-1.56 0.57,-2.279 0.38,-0.721 0.946,-1.307 1.7,-1.76 0.754,-0.453 1.663,-0.681 2.73,-0.681 1.067,0 1.98,0.22 2.74,0.66 0.76,0.44 1.333,1.017 1.72,1.73 0.386,0.713 0.58,1.477 0.58,2.29 0,0.733 -0.13,1.38 -0.39,1.939 -0.26,0.561 -0.604,1.14 -1.03,1.74 l -3.88,5.439 c -0.093,0.12 -0.184,0.217 -0.27,0.29 -0.087,0.074 -0.21,0.11 -0.37,0.11 h -1 c -0.121,0.003 -0.217,-0.04 -0.29,-0.127 z m 3.77,-6.69 c 0.48,-0.253 0.86,-0.609 1.14,-1.069 0.28,-0.46 0.42,-0.99 0.42,-1.591 0,-0.612 -0.14,-1.152 -0.42,-1.619 -0.28,-0.467 -0.66,-0.827 -1.14,-1.08 -0.48,-0.254 -1.007,-0.38 -1.58,-0.38 -0.56,0 -1.077,0.126 -1.55,0.38 -0.474,0.253 -0.85,0.613 -1.13,1.08 -0.28,0.467 -0.42,1.007 -0.42,1.619 0,0.601 0.14,1.131 0.42,1.591 0.28,0.46 0.653,0.816 1.12,1.069 0.466,0.254 0.986,0.38 1.56,0.38 0.574,0 1.1,-0.126 1.58,-0.38 z"
   id="path241" />
						<path
   fill="#00b9d2"
   d="m 906.923,70.25 c -0.087,-0.087 -0.13,-0.196 -0.13,-0.33 v -9.48 c 0,-0.133 0.043,-0.243 0.13,-0.329 0.087,-0.087 0.197,-0.131 0.33,-0.131 h 0.84 c 0.133,0 0.24,0.044 0.32,0.131 0.08,0.086 0.12,0.196 0.12,0.329 v 0.681 c 0.72,-0.894 1.693,-1.34 2.92,-1.34 1.466,0 2.506,0.613 3.12,1.84 0.32,-0.561 0.777,-1.007 1.37,-1.34 0.593,-0.334 1.257,-0.5 1.99,-0.5 1.093,0 1.986,0.373 2.68,1.119 0.693,0.747 1.04,1.827 1.04,3.24 v 5.78 c 0,0.134 -0.043,0.243 -0.13,0.33 -0.087,0.087 -0.197,0.13 -0.33,0.13 h -0.86 c -0.133,0 -0.244,-0.043 -0.33,-0.13 -0.087,-0.087 -0.13,-0.196 -0.13,-0.33 v -5.6 c 0,-1.067 -0.22,-1.83 -0.66,-2.29 -0.44,-0.46 -1.02,-0.69 -1.74,-0.69 -0.64,0 -1.19,0.237 -1.65,0.71 -0.46,0.474 -0.69,1.23 -0.69,2.271 v 5.6 c 0,0.134 -0.043,0.243 -0.13,0.33 -0.087,0.087 -0.197,0.13 -0.33,0.13 h -0.88 c -0.133,0 -0.244,-0.043 -0.33,-0.13 -0.087,-0.087 -0.13,-0.196 -0.13,-0.33 v -5.6 c 0,-1.054 -0.23,-1.813 -0.69,-2.28 -0.46,-0.467 -1.03,-0.7 -1.71,-0.7 -0.64,0 -1.19,0.233 -1.65,0.7 -0.46,0.467 -0.69,1.22 -0.69,2.26 v 5.62 c 0,0.134 -0.043,0.243 -0.13,0.33 -0.087,0.087 -0.197,0.13 -0.33,0.13 h -0.88 c -0.133,-0.001 -0.243,-0.044 -0.33,-0.131 z"
   id="path243" />
						<path
   fill="#00b9d2"
   d="m 924.683,70.25 c -0.087,-0.087 -0.13,-0.196 -0.13,-0.33 v -9.48 c 0,-0.133 0.043,-0.243 0.13,-0.329 0.087,-0.087 0.197,-0.131 0.33,-0.131 h 0.84 c 0.133,0 0.24,0.044 0.32,0.131 0.08,0.086 0.12,0.196 0.12,0.329 v 0.681 c 0.72,-0.894 1.693,-1.34 2.92,-1.34 1.466,0 2.506,0.613 3.12,1.84 0.32,-0.561 0.777,-1.007 1.37,-1.34 0.593,-0.334 1.257,-0.5 1.99,-0.5 1.093,0 1.986,0.373 2.68,1.119 0.693,0.747 1.04,1.827 1.04,3.24 v 5.78 c 0,0.134 -0.043,0.243 -0.13,0.33 -0.087,0.087 -0.197,0.13 -0.33,0.13 h -0.86 c -0.133,0 -0.244,-0.043 -0.33,-0.13 -0.087,-0.087 -0.13,-0.196 -0.13,-0.33 v -5.6 c 0,-1.067 -0.22,-1.83 -0.66,-2.29 -0.44,-0.46 -1.02,-0.69 -1.74,-0.69 -0.64,0 -1.19,0.237 -1.65,0.71 -0.46,0.474 -0.69,1.23 -0.69,2.271 v 5.6 c 0,0.134 -0.043,0.243 -0.13,0.33 -0.087,0.087 -0.197,0.13 -0.33,0.13 h -0.88 c -0.133,0 -0.244,-0.043 -0.33,-0.13 -0.087,-0.087 -0.13,-0.196 -0.13,-0.33 v -5.6 c 0,-1.054 -0.23,-1.813 -0.69,-2.28 -0.46,-0.467 -1.03,-0.7 -1.71,-0.7 -0.64,0 -1.19,0.233 -1.65,0.7 -0.46,0.467 -0.69,1.22 -0.69,2.26 v 5.62 c 0,0.134 -0.043,0.243 -0.13,0.33 -0.087,0.087 -0.197,0.13 -0.33,0.13 h -0.88 c -0.133,-0.001 -0.243,-0.044 -0.33,-0.131 z"
   id="path245" />
					</g>
				</g>
			</g>
		</g>
	</g>
</g>

<polyline
   fill="none"
   stroke="#00b9d2"
   stroke-width="2"
   stroke-linecap="round"
   stroke-linejoin="round"
   stroke-miterlimit="10"
   points="    264.093,95.378 262.994,96.5 262.915,96.579 262.836,96.656 262.755,96.732 262.674,96.807 262.591,96.881 262.508,96.954     262.423,97.025 262.337,97.095 262.25,97.164 262.162,97.231 262.073,97.298 261.983,97.363 261.892,97.426 261.8,97.489     261.706,97.55 261.612,97.611 261.516,97.669 261.42,97.727 261.322,97.784 261.224,97.839 261.124,97.893 261.023,97.945     260.921,97.997 260.818,98.047 260.714,98.096 260.609,98.144 260.503,98.19 260.395,98.235 260.287,98.279 260.177,98.322     260.067,98.364 259.955,98.404 259.843,98.443 259.729,98.481 259.614,98.517 259.498,98.553 259.381,98.587 259.263,98.62     259.144,98.651 259.024,98.682 258.902,98.711 258.78,98.739 258.657,98.765 258.532,98.791 258.407,98.815 258.28,98.838     258.152,98.86 258.023,98.88 257.894,98.899 257.763,98.917 257.631,98.934 257.498,98.949 257.363,98.964 257.228,98.977     257.092,98.989 256.954,98.999 256.816,99.008 256.676,99.016 256.536,99.023 256.394,99.029 256.251,99.033 256.108,99.036     255.817,99.039 222.596,99.039 222.305,99.036 222.161,99.033 222.018,99.029 221.877,99.023 221.736,99.016 221.596,99.008     221.458,98.999 221.321,98.989 221.184,98.977 221.049,98.964 220.915,98.949 220.782,98.934 220.65,98.917 220.519,98.899     220.389,98.88 220.26,98.86 220.132,98.838 220.006,98.815 219.88,98.791 219.756,98.765 219.632,98.739 219.51,98.711     219.389,98.682 219.269,98.651 219.149,98.62 219.031,98.587 218.914,98.553 218.798,98.517 218.684,98.481 218.57,98.443     218.457,98.404 218.346,98.364 218.235,98.322 218.126,98.279 218.017,98.235 217.91,98.19 217.804,98.144 217.699,98.096     217.595,98.047 217.492,97.997 217.39,97.945 217.289,97.893 217.189,97.839 217.09,97.784 216.993,97.727 216.896,97.669     216.801,97.611 216.706,97.55 216.613,97.489 216.521,97.426 216.429,97.363 216.339,97.298 216.25,97.231 216.162,97.164     216.075,97.095 215.99,97.025 215.905,96.954 215.821,96.881 215.739,96.807 215.657,96.732 215.577,96.656 215.497,96.579     215.419,96.5 214.32,95.378   "
   id="polyline261"
   transform="translate(-93.896,-87.894)"
   style="fill:none;fill-opacity:1;stroke:#000000;stroke-opacity:1" />
<rect
   x="1.6250037"
   y="192.60802"
   fill="none"
   stroke="#00b9d2"
   stroke-width="2.75"
   stroke-linecap="round"
   stroke-linejoin="round"
   stroke-miterlimit="10"
   width="2.9979999"
   height="39.951"
   id="rect316"
   style="fill:none;fill-opacity:1;stroke:#000000;stroke-opacity:1" /><rect
   x="1.6250037"
   y="76.80101"
   fill="none"
   stroke="#00b9d2"
   stroke-width="2.75"
   stroke-linecap="round"
   stroke-linejoin="round"
   stroke-miterlimit="10"
   width="2.9979999"
   height="79.537003"
   id="rect319"
   style="fill:none;fill-opacity:1;stroke:#000000;stroke-opacity:1" /><path
   fill="none"
   stroke="#00b9d2"
   stroke-width="2.75"
   stroke-linecap="round"
   stroke-linejoin="round"
   stroke-miterlimit="10"
   d="m 261.89,32.888 c 0.012,-4.492 -3.086,-8.473 -7.444,-9.564 -6.273,-1.576 -12.331,3.182 -12.287,9.65 0.067,6.396 6.084,11.037 12.287,9.478 4.358,-1.092 7.457,-5.072 7.444,-9.564 z"
   id="path322"
   style="fill:none;fill-opacity:1;stroke:#000000;stroke-opacity:1" /><rect
   x="285.99802"
   y="102.603"
   fill="none"
   stroke="#00b9d2"
   stroke-width="2.75"
   stroke-linecap="round"
   stroke-linejoin="round"
   stroke-miterlimit="10"
   width="2.9979999"
   height="41.465"
   id="rect325"
   style="fill:none;fill-opacity:1;stroke:#000000;stroke-opacity:1" /><polygon
   fill="none"
   stroke="#00b9d2"
   stroke-width="2.75"
   stroke-linecap="round"
   stroke-linejoin="round"
   stroke-miterlimit="10"
   points="356.153,101.969 356.504,102.009 356.855,102.054 357.204,102.106 357.553,102.164 357.901,102.228 358.248,102.297 358.593,102.373 358.937,102.455 359.279,102.542 359.62,102.636 359.959,102.735 360.297,102.84 360.633,102.951 360.966,103.068 361.298,103.19 361.627,103.318 361.954,103.452 362.279,103.592 362.602,103.737 362.921,103.888 363.239,104.044 363.553,104.205 363.865,104.372 364.173,104.545 364.479,104.722 364.781,104.905 365.081,105.093 365.377,105.286 365.669,105.485 365.959,105.688 366.244,105.896 366.526,106.109 366.805,106.327 367.079,106.55 367.35,106.778 367.616,107.01 367.879,107.247 368.137,107.488 368.391,107.733 368.641,107.983 368.887,108.238 369.128,108.496 369.365,108.759 369.597,109.025 369.825,109.296 370.047,109.57 370.265,109.848 370.478,110.13 370.687,110.416 370.89,110.705 371.088,110.998 371.282,111.294 371.47,111.593 371.653,111.896 371.83,112.201 372.003,112.51 372.169,112.822 372.331,113.136 372.487,113.453 372.638,113.773 372.783,114.095 372.922,114.42 373.056,114.747 373.184,115.077 373.307,115.408 373.424,115.742 373.535,116.078 373.64,116.415 373.739,116.755 373.833,117.095 373.92,117.438 374.002,117.782 374.078,118.127 374.147,118.474 374.211,118.821 374.269,119.17 374.32,119.52 374.366,119.871 374.406,120.222 374.439,120.574 374.466,120.926 374.488,121.279 374.503,121.632 374.512,121.986 374.515,122.339 374.515,649.118 374.512,649.472 374.503,649.825 374.488,650.178 374.466,650.531 374.439,650.884 374.406,651.236 374.366,651.587 374.32,651.937 374.269,652.287 374.211,652.636 374.147,652.984 374.078,653.33 374.002,653.675 373.92,654.019 373.833,654.362 373.739,654.703 373.64,655.042 373.535,655.38 373.424,655.715 373.307,656.049 373.184,656.38 373.056,656.71 372.922,657.037 372.783,657.362 372.638,657.684 372.487,658.004 372.331,658.321 372.169,658.636 372.003,658.947 371.83,659.256 371.653,659.561 371.47,659.864 371.282,660.163 371.088,660.459 370.89,660.752 370.687,661.041 370.478,661.327 370.265,661.609 370.047,661.887 369.825,662.162 369.597,662.432 369.365,662.699 369.128,662.961 368.887,663.22 368.641,663.474 368.391,663.724 368.137,663.97 367.879,664.211 367.616,664.447 367.35,664.68 367.079,664.907 366.805,665.13 366.526,665.348 366.244,665.561 365.959,665.769 365.669,665.973 365.377,666.171 365.081,666.364 364.781,666.552 364.479,666.735 364.173,666.913 363.865,667.085 363.553,667.252 363.239,667.414 362.921,667.57 362.602,667.72 362.279,667.865 361.954,668.005 361.627,668.139 361.298,668.267 360.966,668.39 360.633,668.506 360.297,668.617 359.959,668.722 359.62,668.822 359.279,668.915 358.937,669.003 358.593,669.084 358.248,669.16 357.901,669.23 357.553,669.294 357.204,669.351 356.855,669.403 356.504,669.449 356.153,669.488 355.801,669.522 355.449,669.549 355.096,669.57 354.743,669.586 354.389,669.595 354.036,669.598 124.377,669.598 124.023,669.595 123.67,669.586 123.317,669.57 122.964,669.549 122.611,669.522 122.26,669.488 121.908,669.449 121.558,669.403 121.208,669.351 120.859,669.294 120.512,669.23 120.165,669.16 119.82,669.084 119.476,669.003 119.133,668.915 118.792,668.822 118.453,668.722 118.116,668.617 117.78,668.506 117.446,668.39 117.115,668.267 116.785,668.139 116.458,668.005 116.133,667.865 115.811,667.72 115.491,667.57 115.174,667.414 114.859,667.252 114.548,667.085 114.239,666.913 113.934,666.735 113.631,666.552 113.332,666.364 113.036,666.171 112.743,665.973 112.454,665.769 112.168,665.561 111.886,665.348 111.608,665.13 111.333,664.907 111.063,664.68 110.796,664.447 110.534,664.211 110.275,663.97 110.021,663.724 109.771,663.474 109.525,663.22 109.284,662.961 109.048,662.699 108.815,662.432 108.588,662.162 108.365,661.887 108.147,661.609 107.934,661.327 107.726,661.041 107.522,660.752 107.324,660.459 107.131,660.163 106.943,659.864 106.76,659.561 106.582,659.256 106.41,658.947 106.243,658.636 106.081,658.321 105.925,658.004 105.775,657.684 105.63,657.362 105.49,657.037 105.356,656.71 105.228,656.38 105.106,656.049 104.989,655.715 104.878,655.38 104.773,655.042 104.673,654.703 104.58,654.362 104.492,654.019 104.411,653.675 104.335,653.33 104.265,652.984 104.202,652.636 104.144,652.287 104.092,651.937 104.046,651.587 104.007,651.236 103.973,650.884 103.946,650.531 103.925,650.178 103.909,649.825 103.9,649.472 103.897,649.118 103.897,122.339 103.9,121.986 103.909,121.632 103.925,121.279 103.946,120.926 103.973,120.574 104.007,120.222 104.046,119.871 104.092,119.52 104.144,119.17 104.202,118.821 104.265,118.474 104.335,118.127 104.411,117.782 104.492,117.438 104.58,117.095 104.673,116.755 104.773,116.415 104.878,116.078 104.989,115.742 105.106,115.408 105.228,115.077 105.356,114.747 105.49,114.42 105.63,114.095 105.775,113.773 105.925,113.453 106.081,113.136 106.243,112.822 106.41,112.51 106.582,112.201 106.76,111.896 106.943,111.593 107.131,111.294 107.324,110.998 107.522,110.705 107.726,110.416 107.934,110.13 108.147,109.848 108.365,109.57 108.588,109.296 108.815,109.025 109.048,108.759 109.284,108.496 109.525,108.238 109.771,107.983 110.021,107.733 110.275,107.488 110.534,107.247 110.796,107.01 111.063,106.778 111.333,106.55 111.608,106.327 111.886,106.109 112.168,105.896 112.454,105.688 112.743,105.485 113.036,105.286 113.332,105.093 113.631,104.905 113.934,104.722 114.239,104.545 114.548,104.372 114.859,104.205 115.174,104.044 115.491,103.888 115.811,103.737 116.133,103.592 116.458,103.452 116.785,103.318 117.115,103.19 117.446,103.068 117.78,102.951 118.116,102.84 118.453,102.735 118.792,102.636 119.133,102.542 119.476,102.455 119.82,102.373 120.165,102.297 120.512,102.228 120.859,102.164 121.208,102.106 121.558,102.054 121.908,102.009 122.26,101.969 122.611,101.936 122.964,101.908 123.317,101.887 123.67,101.872 124.023,101.862 124.377,101.859 354.036,101.859 354.389,101.862 354.743,101.872 355.096,101.887 355.449,101.908 355.801,101.936 "
   id="polygon328"
   transform="translate(-93.896,-87.894)"
   style="fill:none;fill-opacity:1;stroke:#000000;stroke-opacity:1" /><polyline
   fill="none"
   stroke="#00b9d2"
   stroke-width="2.75"
   stroke-linecap="round"
   stroke-linejoin="round"
   stroke-miterlimit="10"
   points="    98.519,121.434 98.523,120.984 98.534,120.535 98.554,120.085 98.581,119.636 98.616,119.188 98.658,118.74 98.709,118.293     98.767,117.847 98.833,117.402 98.906,116.959 98.987,116.516 99.076,116.075 99.172,115.636 99.276,115.198 99.387,114.763     99.506,114.329 99.633,113.897 99.766,113.468 99.908,113.041 100.056,112.616 100.212,112.194 100.375,111.775 100.545,111.359     100.723,110.946 100.907,110.536 101.099,110.129 101.298,109.725 101.503,109.325 101.716,108.929 101.935,108.536     102.161,108.147 102.394,107.762 102.633,107.382 102.879,107.005 103.131,106.633 103.39,106.265 103.655,105.901     103.926,105.542 104.203,105.188 104.487,104.839 104.776,104.495 105.072,104.156 105.373,103.822 105.68,103.493     105.992,103.169 106.31,102.851 106.634,102.539 106.962,102.232 107.296,101.931 107.636,101.636 107.98,101.346     108.329,101.063 108.683,100.785 109.042,100.514 109.405,100.249 109.773,99.99 110.146,99.738 110.522,99.492 110.903,99.253     111.288,99.02 111.677,98.794 112.069,98.575 112.466,98.363 112.866,98.157 113.269,97.958 113.676,97.767 114.086,97.582     114.5,97.405 114.916,97.234 115.335,97.071 115.757,96.915 116.182,96.767 116.609,96.626 117.038,96.492 117.47,96.366     117.903,96.247 118.339,96.135 118.777,96.031 119.216,95.935 119.657,95.846 120.099,95.765 120.543,95.692 120.988,95.626     121.434,95.568 121.881,95.518 122.329,95.475 122.777,95.44 123.226,95.413 123.675,95.394 124.125,95.382 124.575,95.378     353.838,95.378 354.288,95.382 354.737,95.394 355.186,95.413 355.635,95.44 356.084,95.475 356.532,95.518 356.978,95.568     357.424,95.626 357.869,95.692 358.313,95.765 358.755,95.846 359.196,95.935 359.636,96.031 360.073,96.135 360.509,96.247     360.943,96.366 361.374,96.492 361.804,96.626 362.231,96.767 362.655,96.915 363.077,97.071 363.496,97.234 363.913,97.405     364.326,97.582 364.736,97.767 365.143,97.958 365.547,98.157 365.947,98.363 366.343,98.575 366.736,98.794 367.125,99.02     367.509,99.253 367.89,99.492 368.267,99.738 368.639,99.99 369.007,100.249 369.371,100.514 369.729,100.785 370.083,101.063     370.433,101.346 370.777,101.636 371.116,101.931 371.45,102.232 371.779,102.539 372.102,102.851 372.42,103.169     372.733,103.493 373.04,103.822 373.341,104.156 373.636,104.495 373.926,104.839 374.209,105.188 374.486,105.542     374.758,105.901 375.023,106.265 375.281,106.633 375.534,107.005 375.779,107.382 376.019,107.762 376.251,108.147     376.477,108.536 376.697,108.929 376.909,109.325 377.115,109.725 377.313,110.129 377.505,110.536 377.69,110.946     377.867,111.359 378.037,111.775 378.2,112.194 378.356,112.616 378.505,113.041 378.646,113.468 378.78,113.897 378.906,114.329     379.025,114.763 379.137,115.198 379.24,115.636 379.337,116.075 379.425,116.516 379.506,116.959 379.58,117.402     379.646,117.847 379.704,118.293 379.754,118.74 379.797,119.188 379.832,119.636 379.859,120.085 379.878,120.535     379.89,120.984 379.894,121.434   "
   id="polyline331"
   transform="translate(-93.896,-87.894)"
   style="fill:none;fill-opacity:1;stroke:#000000;stroke-opacity:1" /><polyline
   fill="none"
   stroke="#00b9d2"
   stroke-width="2.75"
   stroke-linecap="round"
   stroke-linejoin="round"
   stroke-miterlimit="10"
   points="    379.894,655.436 379.89,655.886 379.878,656.336 379.859,656.785 379.832,657.234 379.797,657.682 379.754,658.13     379.704,658.577 379.646,659.023 379.58,659.468 379.506,659.911 379.425,660.354 379.337,660.795 379.24,661.234     379.137,661.672 379.025,662.107 378.906,662.541 378.78,662.973 378.646,663.402 378.505,663.829 378.356,664.254 378.2,664.676     378.037,665.095 377.867,665.511 377.69,665.924 377.505,666.334 377.313,666.741 377.115,667.145 376.909,667.545     376.697,667.941 376.477,668.334 376.251,668.723 376.019,669.108 375.779,669.489 375.534,669.865 375.281,670.238     375.023,670.606 374.758,670.969 374.486,671.328 374.209,671.682 373.926,672.031 373.636,672.375 373.341,672.714     373.04,673.048 372.733,673.377 372.42,673.701 372.102,674.019 371.779,674.331 371.45,674.638 371.116,674.939 370.777,675.235     370.433,675.524 370.083,675.807 369.729,676.085 369.371,676.356 369.007,676.621 368.639,676.88 368.267,677.132     367.89,677.378 367.509,677.617 367.125,677.85 366.736,678.076 366.343,678.295 365.947,678.508 365.547,678.713     365.143,678.912 364.736,679.103 364.326,679.288 363.913,679.465 363.496,679.636 363.077,679.799 362.655,679.955     362.231,680.103 361.804,680.244 361.374,680.378 360.943,680.505 360.509,680.624 360.073,680.735 359.636,680.839     359.196,680.935 358.755,681.024 358.313,681.105 357.869,681.178 357.424,681.244 356.978,681.302 356.532,681.352     356.084,681.395 355.635,681.43 355.186,681.457 354.737,681.477 354.288,681.488 353.838,681.492 124.575,681.492     124.125,681.488 123.675,681.477 123.226,681.457 122.777,681.43 122.329,681.395 121.881,681.352 121.434,681.302     120.988,681.244 120.543,681.178 120.099,681.105 119.657,681.024 119.216,680.935 118.777,680.839 118.339,680.735     117.903,680.624 117.47,680.505 117.038,680.378 116.609,680.244 116.182,680.103 115.757,679.955 115.335,679.799     114.916,679.636 114.5,679.465 114.086,679.288 113.676,679.103 113.269,678.912 112.866,678.713 112.466,678.508     112.069,678.295 111.677,678.076 111.288,677.85 110.903,677.617 110.522,677.378 110.146,677.132 109.773,676.88     109.405,676.621 109.042,676.356 108.683,676.085 108.329,675.807 107.98,675.524 107.636,675.235 107.296,674.939     106.962,674.638 106.634,674.331 106.31,674.019 105.992,673.701 105.68,673.377 105.373,673.048 105.072,672.714     104.776,672.375 104.487,672.031 104.203,671.682 103.926,671.328 103.655,670.969 103.39,670.606 103.131,670.238     102.879,669.865 102.633,669.489 102.394,669.108 102.161,668.723 101.935,668.334 101.716,667.941 101.503,667.545     101.298,667.145 101.099,666.741 100.907,666.334 100.723,665.924 100.545,665.511 100.375,665.095 100.212,664.676     100.056,664.254 99.908,663.829 99.766,663.402 99.633,662.973 99.506,662.541 99.387,662.107 99.276,661.672 99.172,661.234     99.076,660.795 98.987,660.354 98.906,659.911 98.833,659.468 98.767,659.023 98.709,658.577 98.658,658.13 98.616,657.682     98.581,657.234 98.554,656.785 98.534,656.336 98.523,655.886 98.519,655.436   "
   id="polyline334"
   transform="translate(-93.896,-87.894)"
   style="fill:none;fill-opacity:1;stroke:#000000;stroke-opacity:1" /><polygon
   fill="none"
   stroke="#00b9d2"
   stroke-width="2.75"
   stroke-linecap="round"
   stroke-linejoin="round"
   stroke-miterlimit="10"
   points="121.881,688.5 121.434,688.45 120.988,688.391 120.543,688.326 120.099,688.252 119.657,688.171 119.216,688.083 118.777,687.986 118.339,687.882 117.903,687.771 117.47,687.652 117.038,687.526 116.609,687.392 116.182,687.251 115.757,687.102 115.335,686.946 114.916,686.783 114.5,686.613 114.086,686.435 113.676,686.251 113.269,686.059 112.866,685.861 112.466,685.655 112.069,685.443 111.677,685.223 111.288,684.997 110.903,684.765 110.522,684.525 110.146,684.279 109.773,684.027 109.405,683.768 109.042,683.503 108.683,683.232 108.329,682.955 107.98,682.671 107.636,682.382 107.296,682.087 106.962,681.786 106.634,681.479 106.31,681.166 105.992,680.848 105.68,680.525 105.373,680.196 105.072,679.862 104.776,679.523 104.487,679.178 104.203,678.829 103.926,678.475 103.655,678.116 103.39,677.753 103.131,677.385 102.879,677.013 102.633,676.636 102.394,676.255 102.161,675.87 101.935,675.481 101.716,675.089 101.503,674.692 101.298,674.292 101.099,673.889 100.907,673.482 100.723,673.072 100.545,672.659 100.375,672.242 100.212,671.823 100.056,671.401 99.908,670.977 99.766,670.55 99.633,670.12 99.506,669.689 99.387,669.255 99.276,668.819 99.172,668.382 99.076,667.942 98.987,667.501 98.906,667.059 98.833,666.615 98.767,666.17 98.709,665.724 98.658,665.277 98.616,664.83 98.581,664.381 98.554,663.932 98.534,663.483 98.523,663.033 98.519,662.584 98.519,115.575 98.523,115.125 98.534,114.675 98.554,114.226 98.581,113.777 98.616,113.329 98.658,112.881 98.709,112.434 98.767,111.988 98.833,111.543 98.906,111.099 98.987,110.657 99.076,110.216 99.172,109.777 99.276,109.339 99.387,108.903 99.506,108.47 99.633,108.038 99.766,107.609 99.908,107.182 100.056,106.757 100.212,106.335 100.375,105.916 100.545,105.5 100.723,105.086 100.907,104.676 101.099,104.269 101.298,103.866 101.503,103.466 101.716,103.069 101.935,102.677 102.161,102.288 102.394,101.903 102.633,101.522 102.879,101.146 103.131,100.773 103.39,100.405 103.655,100.042 103.926,99.683 104.203,99.329 104.487,98.98 104.776,98.636 105.072,98.296 105.373,97.962 105.68,97.634 105.992,97.31 106.31,96.992 106.634,96.68 106.962,96.373 107.296,96.072 107.636,95.776 107.98,95.487 108.329,95.203 108.683,94.926 109.042,94.655 109.405,94.39 109.773,94.131 110.146,93.879 110.522,93.633 110.903,93.394 111.288,93.161 111.677,92.935 112.069,92.716 112.466,92.503 112.866,92.298 113.269,92.099 113.676,91.907 114.086,91.723 114.5,91.545 114.916,91.375 115.335,91.212 115.757,91.056 116.182,90.908 116.609,90.766 117.038,90.633 117.47,90.506 117.903,90.387 118.339,90.276 118.777,90.172 119.216,90.076 119.657,89.987 120.099,89.906 120.543,89.833 120.988,89.767 121.434,89.709 121.881,89.658 122.329,89.616 122.777,89.581 123.226,89.554 123.675,89.534 124.125,89.523 124.575,89.519 353.838,89.519 354.288,89.523 354.737,89.534 355.186,89.554 355.635,89.581 356.084,89.616 356.532,89.658 356.978,89.709 357.424,89.767 357.869,89.833 358.313,89.906 358.755,89.987 359.196,90.076 359.636,90.172 360.073,90.276 360.509,90.387 360.943,90.506 361.374,90.633 361.804,90.766 362.231,90.908 362.655,91.056 363.077,91.212 363.496,91.375 363.913,91.545 364.326,91.723 364.736,91.907 365.143,92.099 365.547,92.298 365.947,92.503 366.343,92.716 366.736,92.935 367.125,93.161 367.509,93.394 367.89,93.633 368.267,93.879 368.639,94.131 369.007,94.39 369.371,94.655 369.729,94.926 370.083,95.203 370.433,95.487 370.777,95.776 371.116,96.072 371.45,96.373 371.779,96.68 372.102,96.992 372.42,97.31 372.733,97.634 373.04,97.962 373.341,98.296 373.636,98.636 373.926,98.98 374.209,99.329 374.486,99.683 374.758,100.042 375.023,100.405 375.281,100.773 375.534,101.146 375.779,101.522 376.019,101.903 376.251,102.288 376.477,102.677 376.697,103.069 376.909,103.466 377.115,103.866 377.313,104.269 377.505,104.676 377.69,105.086 377.867,105.5 378.037,105.916 378.2,106.335 378.356,106.757 378.505,107.182 378.646,107.609 378.78,108.038 378.906,108.47 379.025,108.903 379.137,109.339 379.24,109.777 379.337,110.216 379.425,110.657 379.506,111.099 379.58,111.543 379.646,111.988 379.704,112.434 379.754,112.881 379.797,113.329 379.832,113.777 379.859,114.226 379.878,114.675 379.89,115.125 379.894,115.575 379.894,662.584 379.89,663.033 379.878,663.483 379.859,663.932 379.832,664.381 379.797,664.83 379.754,665.277 379.704,665.724 379.646,666.17 379.58,666.615 379.506,667.059 379.425,667.501 379.337,667.942 379.24,668.382 379.137,668.819 379.025,669.255 378.906,669.689 378.78,670.12 378.646,670.55 378.505,670.977 378.356,671.401 378.2,671.823 378.037,672.242 377.867,672.659 377.69,673.072 377.505,673.482 377.313,673.889 377.115,674.292 376.909,674.692 376.697,675.089 376.477,675.481 376.251,675.87 376.019,676.255 375.779,676.636 375.534,677.013 375.281,677.385 375.023,677.753 374.758,678.116 374.486,678.475 374.209,678.829 373.926,679.178 373.636,679.523 373.341,679.862 373.04,680.196 372.733,680.525 372.42,680.848 372.102,681.166 371.779,681.479 371.45,681.786 371.116,682.087 370.777,682.382 370.433,682.671 370.083,682.955 369.729,683.232 369.371,683.503 369.007,683.768 368.639,684.027 368.267,684.279 367.89,684.525 367.509,684.765 367.125,684.997 366.736,685.223 366.343,685.443 365.947,685.655 365.547,685.861 365.143,686.059 364.736,686.251 364.326,686.435 363.913,686.613 363.496,686.783 363.077,686.946 362.655,687.102 362.231,687.251 361.804,687.392 361.374,687.526 360.943,687.652 360.509,687.771 360.073,687.882 359.636,687.986 359.196,688.083 358.755,688.171 358.313,688.252 357.869,688.326 357.424,688.391 356.978,688.45 356.532,688.5 356.084,688.542 355.635,688.577 355.186,688.605 354.737,688.624 354.288,688.636 353.838,688.639 124.575,688.639 124.125,688.636 123.675,688.624 123.226,688.605 122.777,688.577 122.329,688.542 "
   id="polygon346"
   transform="translate(-93.896,-87.894)"
   style="fill:none;fill-opacity:1;stroke:#000000;stroke-opacity:1" />

</svg>
