<?xml version="1.0" encoding="UTF-8" standalone="no"?>
<svg
   xmlns:ns="&amp;#38;ns_sfw;"
   xmlns:dc="http://purl.org/dc/elements/1.1/"
   xmlns:cc="http://creativecommons.org/ns#"
   xmlns:rdf="http://www.w3.org/1999/02/22-rdf-syntax-ns#"
   xmlns:svg="http://www.w3.org/2000/svg"
   xmlns="http://www.w3.org/2000/svg"
   xmlns:sodipodi="http://sodipodi.sourceforge.net/DTD/sodipodi-0.dtd"
   xmlns:inkscape="http://www.inkscape.org/namespaces/inkscape"
   version="1.1"
   x="0px"
   y="0px"
   viewBox="0 0 301.31601 619.85901"
   enable-background="new 0 0 1000 800"
   xml:space="preserve"
   id="svg374"
   sodipodi:docname="s10_5g.svg"
   inkscape:version="1.0.1 (3bc2e813f5, 2020-09-07)"
   width="301.31601"
   height="619.85901"><polygon
   fill="none"
   stroke="#00b9d2"
   stroke-width="3.25"
   stroke-linecap="round"
   stroke-linejoin="round"
   stroke-miterlimit="10"
   points="389.657,116.788 389.638,116.483 389.616,116.178 389.59,115.871 389.561,115.563 389.527,115.254 389.49,114.945 389.45,114.634 389.405,114.323 389.357,114.011 389.305,113.699 389.249,113.386 389.189,113.073 389.125,112.759 389.057,112.445 388.986,112.131 388.91,111.816 388.83,111.502 388.746,111.187 388.658,110.873 388.566,110.558 388.47,110.244 388.369,109.93 388.265,109.616 388.156,109.303 388.044,108.99 387.927,108.677 387.805,108.366 387.68,108.055 387.551,107.745 387.417,107.436 387.279,107.127 387.137,106.82 386.991,106.514 386.84,106.209 386.686,105.906 386.527,105.604 386.365,105.303 386.198,105.004 386.027,104.707 385.852,104.411 385.673,104.117 385.49,103.825 385.303,103.535 385.112,103.246 384.917,102.961 384.718,102.677 384.515,102.395 384.309,102.116 384.099,101.839 383.885,101.565 383.667,101.293 383.446,101.024 383.221,100.758 382.992,100.495 382.76,100.234 382.525,99.976 382.286,99.722 382.044,99.47 381.799,99.222 381.551,98.976 381.299,98.734 381.044,98.496 380.787,98.26 380.526,98.029 380.263,97.8 379.996,97.575 379.727,97.354 379.456,97.136 379.182,96.922 378.905,96.712 378.626,96.506 378.344,96.303 378.06,96.104 377.774,95.909 377.486,95.718 377.196,95.531 376.904,95.348 376.61,95.169 376.314,94.994 376.017,94.823 375.718,94.656 375.417,94.494 375.115,94.335 374.811,94.18 374.507,94.03 374.201,93.884 373.893,93.742 373.585,93.604 373.276,93.47 372.966,93.341 372.655,93.215 372.343,93.094 372.031,92.977 371.718,92.864 371.405,92.756 371.091,92.651 370.777,92.551 370.463,92.455 370.148,92.363 369.834,92.275 369.519,92.191 369.204,92.111 368.89,92.035 368.576,91.963 368.262,91.896 367.948,91.832 367.635,91.772 367.322,91.716 367.009,91.664 366.698,91.616 366.387,91.571 366.076,91.53 365.767,91.493 365.458,91.46 365.15,91.431 364.843,91.405 364.537,91.382 364.233,91.364 363.929,91.348 363.626,91.337 363.325,91.328 363.025,91.323 362.726,91.322 124.294,91.322 123.996,91.323 123.696,91.328 123.394,91.337 123.092,91.348 122.788,91.364 122.483,91.382 122.178,91.405 121.871,91.431 121.563,91.46 121.254,91.493 120.945,91.53 120.634,91.571 120.323,91.616 120.011,91.664 119.699,91.716 119.386,91.772 119.073,91.832 118.759,91.896 118.445,91.963 118.131,92.035 117.816,92.111 117.502,92.191 117.187,92.275 116.873,92.363 116.558,92.455 116.244,92.551 115.93,92.651 115.616,92.756 115.303,92.864 114.99,92.977 114.677,93.094 114.366,93.215 114.055,93.341 113.745,93.47 113.436,93.604 113.127,93.742 112.82,93.884 112.514,94.03 112.209,94.18 111.906,94.335 111.604,94.494 111.303,94.656 111.004,94.823 110.707,94.994 110.411,95.169 110.117,95.348 109.825,95.531 109.535,95.718 109.246,95.909 108.961,96.104 108.677,96.303 108.395,96.506 108.116,96.712 107.839,96.922 107.565,97.136 107.293,97.354 107.024,97.575 106.758,97.8 106.495,98.029 106.234,98.26 105.976,98.496 105.722,98.734 105.47,98.976 105.222,99.222 104.976,99.47 104.734,99.722 104.496,99.976 104.26,100.234 104.029,100.495 103.8,100.758 103.575,101.024 103.354,101.293 103.136,101.565 102.922,101.839 102.712,102.116 102.506,102.395 102.303,102.677 102.104,102.961 101.909,103.246 101.718,103.535 101.531,103.825 101.348,104.117 101.169,104.411 100.994,104.707 100.823,105.004 100.656,105.303 100.494,105.604 100.335,105.906 100.18,106.209 100.03,106.514 99.884,106.82 99.742,107.127 99.604,107.436 99.47,107.745 99.341,108.055 99.215,108.366 99.094,108.677 98.977,108.99 98.864,109.303 98.756,109.616 98.651,109.93 98.551,110.244 98.455,110.558 98.363,110.873 98.275,111.187 98.191,111.502 98.111,111.816 98.035,112.131 97.963,112.445 97.896,112.759 97.832,113.073 97.772,113.386 97.716,113.699 97.664,114.011 97.616,114.323 97.571,114.634 97.53,114.945 97.493,115.254 97.46,115.563 97.431,115.871 97.405,116.178 97.382,116.483 97.364,116.788 97.348,117.092 97.337,117.394 97.328,117.696 97.323,117.996 97.322,118.294 97.322,124.981 97.322,211.948 94.477,211.948 94.477,287.705 97.322,287.705 97.322,321.732 94.477,321.732 94.477,359.144 97.322,359.144 97.322,680.959 97.323,681.257 97.328,681.557 97.337,681.859 97.348,682.161 97.364,682.465 97.382,682.769 97.405,683.075 97.431,683.382 97.46,683.69 97.493,683.999 97.53,684.308 97.571,684.619 97.616,684.93 97.664,685.241 97.716,685.554 97.772,685.867 97.832,686.18 97.896,686.494 97.963,686.808 98.035,687.122 98.111,687.436 98.191,687.751 98.275,688.066 98.363,688.38 98.455,688.695 98.551,689.009 98.651,689.323 98.756,689.637 98.864,689.95 98.977,690.263 99.094,690.576 99.215,690.887 99.341,691.198 99.47,691.508 99.604,691.817 99.742,692.125 99.884,692.433 100.03,692.739 100.18,693.044 100.335,693.347 100.494,693.649 100.656,693.95 100.823,694.249 100.994,694.546 101.169,694.842 101.348,695.136 101.531,695.428 101.718,695.718 101.909,696.006 102.104,696.292 102.303,696.576 102.506,696.858 102.712,697.137 102.922,697.414 103.136,697.688 103.354,697.959 103.575,698.228 103.8,698.495 104.029,698.758 104.26,699.019 104.496,699.276 104.734,699.531 104.976,699.783 105.222,700.031 105.47,700.276 105.722,700.518 105.976,700.757 106.234,700.992 106.495,701.224 106.758,701.453 107.024,701.678 107.293,701.899 107.565,702.117 107.839,702.331 108.116,702.541 108.395,702.747 108.677,702.95 108.961,703.149 109.246,703.344 109.535,703.535 109.825,703.722 110.117,703.905 110.411,704.084 110.707,704.259 111.004,704.43 111.303,704.597 111.604,704.759 111.906,704.918 112.209,705.073 112.514,705.223 112.82,705.369 113.127,705.511 113.436,705.649 113.745,705.783 114.055,705.912 114.366,706.038 114.677,706.159 114.99,706.276 115.303,706.388 115.616,706.497 115.93,706.602 116.244,706.702 116.558,706.798 116.873,706.89 117.187,706.978 117.502,707.062 117.816,707.142 118.131,707.218 118.445,707.29 118.759,707.357 119.073,707.421 119.386,707.481 119.699,707.537 120.011,707.589 120.323,707.637 120.634,707.682 120.945,707.723 121.254,707.759 121.563,707.793 121.871,707.822 122.178,707.848 122.483,707.87 122.788,707.889 123.092,707.905 123.394,707.916 123.696,707.925 123.996,707.93 124.294,707.931 362.726,707.931 363.025,707.93 363.325,707.925 363.626,707.916 363.929,707.905 364.233,707.889 364.537,707.87 364.843,707.848 365.15,707.822 365.458,707.793 365.767,707.759 366.076,707.723 366.387,707.682 366.698,707.637 367.009,707.589 367.322,707.537 367.635,707.481 367.948,707.421 368.262,707.357 368.576,707.29 368.89,707.218 369.204,707.142 369.519,707.062 369.834,706.978 370.148,706.89 370.463,706.798 370.777,706.702 371.091,706.602 371.405,706.497 371.718,706.388 372.031,706.276 372.343,706.159 372.655,706.038 372.966,705.912 373.276,705.783 373.585,705.649 373.893,705.511 374.201,705.369 374.507,705.223 374.811,705.073 375.115,704.918 375.417,704.759 375.718,704.597 376.017,704.43 376.314,704.259 376.61,704.084 376.904,703.905 377.196,703.722 377.486,703.535 377.774,703.344 378.06,703.149 378.344,702.95 378.626,702.747 378.905,702.541 379.182,702.331 379.456,702.117 379.727,701.899 379.996,701.678 380.263,701.453 380.526,701.224 380.787,700.992 381.044,700.757 381.299,700.518 381.551,700.276 381.799,700.031 382.044,699.783 382.286,699.531 382.525,699.276 382.76,699.019 382.992,698.758 383.221,698.495 383.446,698.228 383.667,697.959 383.885,697.688 384.099,697.414 384.309,697.137 384.515,696.858 384.718,696.576 384.917,696.292 385.112,696.006 385.303,695.718 385.49,695.428 385.673,695.136 385.852,694.842 386.027,694.546 386.198,694.249 386.365,693.95 386.527,693.649 386.686,693.347 386.84,693.044 386.991,692.739 387.137,692.433 387.279,692.125 387.417,691.817 387.551,691.508 387.68,691.198 387.805,690.887 387.927,690.576 388.044,690.263 388.156,689.95 388.265,689.637 388.369,689.323 388.47,689.009 388.566,688.695 388.658,688.38 388.746,688.066 388.83,687.751 388.91,687.436 388.986,687.122 389.057,686.808 389.125,686.494 389.189,686.18 389.249,685.867 389.305,685.554 389.357,685.241 389.405,684.93 389.45,684.619 389.49,684.308 389.527,683.999 389.561,683.69 389.59,683.382 389.616,683.075 389.638,682.769 389.657,682.465 389.672,682.161 389.684,681.859 389.693,681.557 389.698,681.257 389.699,680.959 389.699,676.143 389.699,305.938 392.543,305.938 392.543,267.826 389.699,267.826 389.699,118.294 389.698,117.996 389.693,117.696 389.684,117.394 389.672,117.092 "
   id="polygon370"
   transform="translate(-92.852,-89.697)"
   style="stroke:#000000;stroke-opacity:1" /><defs
   id="defs378">
	
	
	

	
	
	
	
	
	
	
	
	
	
	
	
	
	
	
	
	
	
	
	
	
	
	
	
	
	

	
	
	
	
	
	
	
	
	
	



		
			
	
		
			
	
		
			
	
		
			
	
		
			
	
		
			
	
		
			
	
		
			
	
		
			
	
		
			
	
		
			
	
		
			
	
		
			
	
		
			
	
		
			
	
		
			
	
		
			
	
		
			
	
		
			
	
		
			
	
		
			
	
		
			
	
		
			
	
		
			
	
		
			
	
		
			
	
		
			
	
		
			
	
		
			
	
		
	
		
	
		
	
		
			
	
		
	
		
	
		
	
		
	
		
			
	
		
			
	</defs><sodipodi:namedview
   pagecolor="#ffffff"
   bordercolor="#666666"
   borderopacity="1"
   objecttolerance="10"
   gridtolerance="10"
   guidetolerance="10"
   inkscape:pageopacity="0"
   inkscape:pageshadow="2"
   inkscape:window-width="1920"
   inkscape:window-height="1001"
   id="namedview376"
   showgrid="false"
   inkscape:zoom="1.04125"
   inkscape:cx="407.148"
   inkscape:cy="409.56624"
   inkscape:window-x="-9"
   inkscape:window-y="-9"
   inkscape:window-maximized="1"
   inkscape:current-layer="svg374"
   inkscape:document-rotation="0" />
<metadata
   id="metadata2">
	<ns:sfw>
		<ns:slices />
		<ns:sliceSourceBounds
   bottomLeftOrigin="true"
   height="11789.401"
   width="3212.295"
   x="-3241.446"
   y="-3017.527">
			</ns:sliceSourceBounds>
	</ns:sfw>
<rdf:RDF><cc:Work
     rdf:about=""><dc:format>image/svg+xml</dc:format><dc:type
       rdf:resource="http://purl.org/dc/dcmitype/StillImage" /><dc:title /></cc:Work></rdf:RDF></metadata>

<g
   id="N-DIMENSIONS"
   display="none"
   transform="translate(-92.852,-89.697)">
	<g
   display="inline"
   id="g124">
		<g
   id="g19">
			<g
   id="g17">
				<path
   fill="#00b9d2"
   d="m 303.498,168.173 c -0.66,-0.324 -1.164,-0.747 -1.513,-1.27 -0.348,-0.521 -0.534,-1.083 -0.558,-1.683 v -0.036 c 0,-0.096 0.036,-0.174 0.107,-0.234 0.072,-0.06 0.156,-0.09 0.253,-0.09 h 0.882 c 0.252,0 0.414,0.133 0.485,0.396 0.181,0.647 0.514,1.131 0.999,1.448 0.486,0.318 1.047,0.478 1.684,0.478 0.815,0 1.494,-0.249 2.034,-0.747 0.539,-0.498 0.81,-1.185 0.81,-2.061 0,-0.805 -0.271,-1.443 -0.81,-1.918 -0.54,-0.474 -1.219,-0.711 -2.034,-0.711 -0.433,0 -0.78,0.055 -1.044,0.162 -0.265,0.108 -0.534,0.265 -0.811,0.469 -0.156,0.12 -0.285,0.207 -0.387,0.261 -0.103,0.054 -0.213,0.081 -0.333,0.081 h -0.864 c -0.107,0 -0.204,-0.039 -0.288,-0.117 -0.084,-0.078 -0.12,-0.171 -0.107,-0.279 l 0.558,-5.994 c 0.036,-0.3 0.186,-0.45 0.45,-0.45 h 6.228 c 0.132,0 0.234,0.036 0.307,0.108 0.071,0.072 0.107,0.174 0.107,0.306 v 0.666 c 0,0.12 -0.039,0.216 -0.117,0.288 -0.078,0.072 -0.177,0.108 -0.297,0.108 h -5.184 l -0.324,3.618 c 0.576,-0.408 1.351,-0.612 2.322,-0.612 0.804,0 1.536,0.159 2.196,0.478 0.659,0.317 1.185,0.782 1.574,1.395 0.391,0.612 0.585,1.338 0.585,2.178 0,0.889 -0.194,1.653 -0.585,2.295 -0.39,0.643 -0.93,1.129 -1.619,1.458 -0.69,0.33 -1.479,0.495 -2.367,0.495 -0.899,0 -1.68,-0.162 -2.339,-0.486 z"
   id="path5" />
				<path
   fill="#00b9d2"
   d="m 313.551,167.3 c -0.714,-0.906 -1.095,-2.091 -1.143,-3.556 l -0.019,-1.548 0.019,-1.602 c 0.036,-1.452 0.416,-2.631 1.143,-3.537 0.726,-0.906 1.856,-1.359 3.394,-1.359 1.548,0 2.685,0.453 3.41,1.359 0.727,0.906 1.107,2.085 1.144,3.537 0.012,0.336 0.018,0.87 0.018,1.602 0,0.708 -0.006,1.225 -0.018,1.548 -0.048,1.465 -0.43,2.649 -1.144,3.556 -0.714,0.907 -1.851,1.358 -3.41,1.358 -1.549,0.001 -2.68,-0.451 -3.394,-1.358 z m 5.481,-1.053 c 0.468,-0.611 0.714,-1.476 0.737,-2.592 0.012,-0.348 0.019,-0.846 0.019,-1.494 0,-0.659 -0.007,-1.151 -0.019,-1.476 -0.023,-1.104 -0.272,-1.965 -0.747,-2.583 -0.474,-0.618 -1.167,-0.927 -2.078,-0.927 -0.912,0 -1.603,0.309 -2.07,0.927 -0.467,0.618 -0.714,1.479 -0.738,2.583 l -0.018,1.476 0.018,1.494 c 0.024,1.116 0.271,1.98 0.738,2.592 0.468,0.612 1.158,0.918 2.07,0.918 0.924,0 1.619,-0.306 2.088,-0.918 z"
   id="path7" />
				<path
   fill="#00b9d2"
   d="m 325.548,168.173 c -0.66,-0.324 -1.164,-0.747 -1.513,-1.27 -0.348,-0.521 -0.534,-1.083 -0.558,-1.683 v -0.036 c 0,-0.096 0.036,-0.174 0.107,-0.234 0.072,-0.06 0.156,-0.09 0.253,-0.09 h 0.882 c 0.252,0 0.414,0.133 0.485,0.396 0.181,0.647 0.514,1.131 0.999,1.448 0.486,0.318 1.047,0.478 1.684,0.478 0.815,0 1.494,-0.249 2.034,-0.747 0.539,-0.498 0.81,-1.185 0.81,-2.061 0,-0.805 -0.271,-1.443 -0.81,-1.918 -0.54,-0.474 -1.219,-0.711 -2.034,-0.711 -0.433,0 -0.78,0.055 -1.044,0.162 -0.265,0.108 -0.534,0.265 -0.811,0.469 -0.156,0.12 -0.285,0.207 -0.387,0.261 -0.103,0.054 -0.213,0.081 -0.333,0.081 h -0.864 c -0.107,0 -0.204,-0.039 -0.288,-0.117 -0.084,-0.078 -0.12,-0.171 -0.107,-0.279 l 0.558,-5.994 c 0.036,-0.3 0.186,-0.45 0.45,-0.45 h 6.228 c 0.132,0 0.234,0.036 0.307,0.108 0.071,0.072 0.107,0.174 0.107,0.306 v 0.666 c 0,0.12 -0.039,0.216 -0.117,0.288 -0.078,0.072 -0.177,0.108 -0.297,0.108 h -5.184 l -0.324,3.618 c 0.576,-0.408 1.351,-0.612 2.322,-0.612 0.804,0 1.536,0.159 2.196,0.478 0.659,0.317 1.185,0.782 1.574,1.395 0.391,0.612 0.585,1.338 0.585,2.178 0,0.889 -0.194,1.653 -0.585,2.295 -0.39,0.643 -0.93,1.129 -1.619,1.458 -0.69,0.33 -1.479,0.495 -2.367,0.495 -0.9,0 -1.68,-0.162 -2.339,-0.486 z"
   id="path9" />
				<path
   fill="#00b9d2"
   d="m 339.219,171.791 c -0.078,-0.071 -0.117,-0.174 -0.117,-0.306 v -11.952 c 0,-0.132 0.039,-0.233 0.117,-0.306 0.077,-0.072 0.177,-0.108 0.297,-0.108 h 0.756 c 0.132,0 0.234,0.036 0.306,0.108 0.072,0.072 0.108,0.174 0.108,0.306 v 0.792 c 0.695,-0.924 1.686,-1.386 2.97,-1.386 1.26,0 2.205,0.399 2.835,1.197 0.63,0.798 0.963,1.815 0.999,3.051 0.012,0.132 0.019,0.336 0.019,0.612 0,0.275 -0.007,0.479 -0.019,0.611 -0.036,1.225 -0.369,2.238 -0.999,3.042 -0.63,0.805 -1.575,1.206 -2.835,1.206 -1.284,0 -2.256,-0.456 -2.916,-1.368 v 4.194 c 0,0.12 -0.039,0.219 -0.117,0.297 -0.078,0.078 -0.177,0.117 -0.297,0.117 h -0.81 c -0.12,0.001 -0.22,-0.035 -0.297,-0.107 z m 5.984,-5.346 c 0.396,-0.54 0.612,-1.248 0.648,-2.124 0.012,-0.119 0.018,-0.294 0.018,-0.521 0,-2.305 -0.852,-3.456 -2.556,-3.456 -0.84,0 -1.474,0.278 -1.899,0.837 -0.426,0.558 -0.65,1.215 -0.675,1.971 -0.012,0.132 -0.018,0.366 -0.018,0.702 0,0.336 0.006,0.57 0.018,0.702 0.024,0.731 0.255,1.365 0.693,1.898 0.438,0.534 1.064,0.802 1.881,0.802 0.865,-0.001 1.495,-0.271 1.89,-0.811 z"
   id="path11" />
				<path
   fill="#00b9d2"
   d="m 349.91,171.791 c -0.078,-0.071 -0.117,-0.174 -0.117,-0.306 v -11.952 c 0,-0.132 0.039,-0.233 0.117,-0.306 0.077,-0.072 0.177,-0.108 0.297,-0.108 h 0.756 c 0.132,0 0.234,0.036 0.306,0.108 0.072,0.072 0.108,0.174 0.108,0.306 v 0.792 c 0.695,-0.924 1.686,-1.386 2.97,-1.386 1.26,0 2.205,0.399 2.835,1.197 0.63,0.798 0.963,1.815 0.999,3.051 0.012,0.132 0.019,0.336 0.019,0.612 0,0.275 -0.007,0.479 -0.019,0.611 -0.036,1.225 -0.369,2.238 -0.999,3.042 -0.63,0.805 -1.575,1.206 -2.835,1.206 -1.284,0 -2.256,-0.456 -2.916,-1.368 v 4.194 c 0,0.12 -0.039,0.219 -0.117,0.297 -0.078,0.078 -0.177,0.117 -0.297,0.117 h -0.81 c -0.12,0.001 -0.22,-0.035 -0.297,-0.107 z m 5.985,-5.346 c 0.396,-0.54 0.612,-1.248 0.648,-2.124 0.012,-0.119 0.018,-0.294 0.018,-0.521 0,-2.305 -0.852,-3.456 -2.556,-3.456 -0.84,0 -1.474,0.278 -1.899,0.837 -0.426,0.558 -0.65,1.215 -0.675,1.971 -0.012,0.132 -0.018,0.366 -0.018,0.702 0,0.336 0.006,0.57 0.018,0.702 0.024,0.731 0.255,1.365 0.693,1.898 0.438,0.534 1.064,0.802 1.881,0.802 0.864,-0.001 1.494,-0.271 1.89,-0.811 z"
   id="path13" />
				<path
   fill="#00b9d2"
   d="m 360.44,157.238 c -0.078,-0.078 -0.117,-0.177 -0.117,-0.297 v -0.936 c 0,-0.12 0.039,-0.222 0.117,-0.306 0.078,-0.084 0.177,-0.126 0.297,-0.126 h 1.062 c 0.12,0 0.223,0.042 0.307,0.126 0.084,0.084 0.126,0.186 0.126,0.306 v 0.936 c 0,0.12 -0.042,0.219 -0.126,0.297 -0.084,0.079 -0.187,0.117 -0.307,0.117 h -1.062 c -0.12,0 -0.218,-0.039 -0.297,-0.117 z m 0.144,11.124 c -0.078,-0.078 -0.117,-0.177 -0.117,-0.297 v -8.532 c 0,-0.119 0.039,-0.219 0.117,-0.297 0.078,-0.078 0.177,-0.117 0.297,-0.117 h 0.792 c 0.12,0 0.219,0.039 0.297,0.117 0.078,0.078 0.117,0.178 0.117,0.297 v 8.532 c 0,0.12 -0.039,0.219 -0.117,0.297 -0.078,0.078 -0.177,0.117 -0.297,0.117 h -0.792 c -0.12,0 -0.219,-0.039 -0.297,-0.117 z"
   id="path15" />
			</g>
		</g>
		<g
   id="g60">
			<g
   id="MTEXT_63_">
				<g
   id="g43">
					<g
   id="g41">
						<g
   id="g39">
							<path
   fill="#00b9d2"
   d="m 227.633,411.074 c -0.702,-0.39 -1.236,-0.915 -1.603,-1.575 -0.366,-0.659 -0.549,-1.379 -0.549,-2.159 0,-1.032 0.414,-2.136 1.242,-3.312 l 3.438,-4.788 c 0.013,-0.012 0.046,-0.054 0.1,-0.126 0.054,-0.072 0.123,-0.128 0.207,-0.171 0.084,-0.042 0.18,-0.063 0.288,-0.063 h 0.882 c 0.108,0 0.194,0.039 0.261,0.117 0.067,0.078 0.1,0.171 0.1,0.279 0,0.06 -0.03,0.138 -0.091,0.234 l -2.628,3.672 c 0.312,-0.072 0.66,-0.108 1.044,-0.108 0.876,0 1.647,0.195 2.313,0.585 0.666,0.391 1.182,0.906 1.548,1.548 0.366,0.643 0.549,1.348 0.549,2.115 0,0.769 -0.183,1.485 -0.549,2.151 -0.366,0.666 -0.897,1.197 -1.593,1.593 -0.696,0.396 -1.519,0.594 -2.466,0.594 -0.961,-0.001 -1.791,-0.196 -2.493,-0.586 z m 3.932,-1.233 c 0.444,-0.216 0.798,-0.537 1.062,-0.963 0.264,-0.426 0.396,-0.939 0.396,-1.539 0,-0.588 -0.135,-1.096 -0.405,-1.521 -0.27,-0.426 -0.627,-0.75 -1.07,-0.972 -0.444,-0.222 -0.925,-0.333 -1.44,-0.333 -0.515,0 -0.996,0.111 -1.439,0.333 -0.444,0.222 -0.799,0.546 -1.062,0.972 -0.263,0.426 -0.396,0.934 -0.396,1.521 0,0.6 0.132,1.113 0.396,1.539 0.264,0.426 0.618,0.747 1.062,0.963 0.443,0.216 0.924,0.323 1.439,0.323 0.528,0.001 1.013,-0.107 1.457,-0.323 z"
   id="path21" />
							<path
   fill="#00b9d2"
   d="m 236.74,411.362 c -0.078,-0.078 -0.117,-0.177 -0.117,-0.297 v -1.242 c 0,-0.119 0.039,-0.222 0.117,-0.306 0.078,-0.084 0.177,-0.126 0.297,-0.126 h 1.242 c 0.12,0 0.219,0.042 0.297,0.126 0.078,0.084 0.117,0.187 0.117,0.306 v 1.242 c 0,0.12 -0.039,0.219 -0.117,0.297 -0.078,0.078 -0.177,0.117 -0.297,0.117 h -1.242 c -0.12,0 -0.219,-0.039 -0.297,-0.117 z"
   id="path23" />
							<path
   fill="#00b9d2"
   d="m 241.799,411.362 c -0.066,-0.078 -0.1,-0.171 -0.1,-0.279 l 0.036,-0.161 4.5,-10.53 h -5.94 c -0.12,0 -0.219,-0.039 -0.297,-0.117 -0.078,-0.078 -0.116,-0.177 -0.116,-0.297 v -0.666 c 0,-0.132 0.035,-0.237 0.107,-0.315 0.072,-0.078 0.174,-0.117 0.306,-0.117 h 7.345 c 0.132,0 0.233,0.039 0.306,0.117 0.073,0.078 0.108,0.183 0.108,0.315 v 0.612 c 0,0.216 -0.049,0.45 -0.145,0.703 l -4.446,10.403 c -0.06,0.133 -0.126,0.24 -0.197,0.324 -0.072,0.084 -0.175,0.126 -0.307,0.126 h -0.899 c -0.109,-0.001 -0.196,-0.04 -0.261,-0.118 z"
   id="path25" />
							<path
   fill="#00b9d2"
   d="m 249.628,402.011 c -0.054,-0.072 -0.069,-0.162 -0.045,-0.271 l 0.396,-2.52 c 0.048,-0.348 0.216,-0.522 0.504,-0.522 h 1.151 c 0.084,0 0.153,0.03 0.207,0.09 0.055,0.06 0.081,0.132 0.081,0.216 0,0.12 -0.018,0.216 -0.054,0.288 l -0.937,2.43 c -0.06,0.132 -0.126,0.231 -0.197,0.297 -0.072,0.066 -0.181,0.099 -0.324,0.099 h -0.558 c -0.095,0.001 -0.17,-0.035 -0.224,-0.107 z m 2.826,0 c -0.054,-0.072 -0.069,-0.162 -0.045,-0.271 l 0.396,-2.52 c 0.048,-0.348 0.217,-0.522 0.504,-0.522 h 1.152 c 0.084,0 0.153,0.03 0.207,0.09 0.054,0.06 0.081,0.132 0.081,0.216 0,0.12 -0.018,0.216 -0.054,0.288 l -0.937,2.43 c -0.06,0.132 -0.126,0.231 -0.197,0.297 -0.072,0.066 -0.181,0.099 -0.324,0.099 h -0.559 c -0.095,0.001 -0.17,-0.035 -0.224,-0.107 z"
   id="path27" />
							<path
   fill="#00b9d2"
   d="m 229.279,430.961 c -0.071,-0.078 -0.107,-0.177 -0.107,-0.297 v -10.152 l -3.024,2.322 c -0.084,0.072 -0.174,0.108 -0.27,0.108 -0.108,0 -0.21,-0.061 -0.307,-0.181 l -0.432,-0.558 c -0.061,-0.084 -0.09,-0.168 -0.09,-0.252 0,-0.132 0.06,-0.24 0.18,-0.324 l 3.906,-3.023 c 0.132,-0.084 0.288,-0.126 0.468,-0.126 h 0.846 c 0.12,0 0.219,0.039 0.298,0.116 0.077,0.078 0.116,0.178 0.116,0.298 v 11.771 c 0,0.12 -0.039,0.219 -0.116,0.297 -0.079,0.078 -0.178,0.117 -0.298,0.117 h -0.882 c -0.12,0.002 -0.215,-0.037 -0.288,-0.116 z"
   id="path29" />
							<path
   fill="#00b9d2"
   d="m 234.688,430.961 c -0.066,-0.078 -0.1,-0.171 -0.1,-0.279 l 0.036,-0.161 4.5,-10.53 h -5.94 c -0.12,0 -0.219,-0.039 -0.297,-0.117 -0.078,-0.078 -0.116,-0.177 -0.116,-0.297 v -0.666 c 0,-0.132 0.035,-0.237 0.107,-0.315 0.072,-0.077 0.174,-0.116 0.306,-0.116 h 7.345 c 0.132,0 0.233,0.039 0.306,0.116 0.072,0.078 0.108,0.184 0.108,0.315 v 0.612 c 0,0.216 -0.049,0.449 -0.145,0.702 l -4.446,10.403 c -0.06,0.133 -0.126,0.24 -0.197,0.324 -0.072,0.084 -0.175,0.126 -0.307,0.126 h -0.899 c -0.108,0.001 -0.195,-0.038 -0.261,-0.117 z"
   id="path31" />
							<path
   fill="#00b9d2"
   d="m 243.725,429.9 c -0.714,-0.906 -1.095,-2.091 -1.143,-3.556 l -0.019,-1.548 0.019,-1.602 c 0.036,-1.452 0.416,-2.631 1.143,-3.537 0.726,-0.906 1.856,-1.359 3.394,-1.359 1.548,0 2.685,0.453 3.41,1.359 0.727,0.906 1.107,2.085 1.144,3.537 0.012,0.336 0.018,0.87 0.018,1.602 0,0.708 -0.006,1.225 -0.018,1.548 -0.048,1.465 -0.43,2.649 -1.144,3.556 -0.714,0.907 -1.851,1.358 -3.41,1.358 -1.55,0 -2.681,-0.452 -3.394,-1.358 z m 5.481,-1.054 c 0.468,-0.611 0.714,-1.476 0.737,-2.592 0.012,-0.348 0.019,-0.846 0.019,-1.494 0,-0.659 -0.007,-1.151 -0.019,-1.476 -0.023,-1.104 -0.272,-1.965 -0.747,-2.583 -0.474,-0.618 -1.167,-0.927 -2.078,-0.927 -0.912,0 -1.603,0.309 -2.07,0.927 -0.467,0.618 -0.714,1.479 -0.738,2.583 l -0.018,1.476 0.018,1.494 c 0.024,1.116 0.271,1.98 0.738,2.592 0.468,0.612 1.158,0.918 2.07,0.918 0.924,0 1.619,-0.306 2.088,-0.918 z"
   id="path33" />
							<path
   fill="#00b9d2"
   d="m 258.718,430.961 c -0.078,-0.078 -0.117,-0.177 -0.117,-0.297 v -8.532 c 0,-0.119 0.039,-0.219 0.117,-0.297 0.078,-0.078 0.177,-0.117 0.297,-0.117 h 0.756 c 0.12,0 0.217,0.039 0.288,0.117 0.072,0.078 0.108,0.178 0.108,0.297 v 0.612 c 0.648,-0.804 1.523,-1.206 2.628,-1.206 1.32,0 2.256,0.552 2.808,1.656 0.288,-0.504 0.699,-0.906 1.233,-1.206 0.534,-0.3 1.131,-0.45 1.791,-0.45 0.983,0 1.788,0.336 2.412,1.008 0.624,0.673 0.936,1.645 0.936,2.916 v 5.202 c 0,0.12 -0.039,0.219 -0.116,0.297 -0.078,0.078 -0.178,0.117 -0.298,0.117 h -0.773 c -0.12,0 -0.219,-0.039 -0.297,-0.117 -0.078,-0.078 -0.117,-0.177 -0.117,-0.297 v -5.04 c 0,-0.96 -0.198,-1.646 -0.594,-2.061 -0.396,-0.414 -0.918,-0.621 -1.566,-0.621 -0.576,0 -1.071,0.213 -1.485,0.639 -0.413,0.426 -0.62,1.107 -0.62,2.043 v 5.04 c 0,0.12 -0.039,0.219 -0.117,0.297 -0.078,0.078 -0.178,0.117 -0.297,0.117 h -0.792 c -0.12,0 -0.22,-0.039 -0.298,-0.117 -0.078,-0.078 -0.116,-0.177 -0.116,-0.297 v -5.04 c 0,-0.947 -0.207,-1.632 -0.621,-2.052 -0.414,-0.42 -0.927,-0.63 -1.539,-0.63 -0.576,0 -1.071,0.21 -1.485,0.63 -0.414,0.42 -0.621,1.098 -0.621,2.034 v 5.058 c 0,0.12 -0.039,0.219 -0.117,0.297 -0.078,0.078 -0.177,0.117 -0.297,0.117 h -0.792 c -0.122,0.001 -0.221,-0.038 -0.299,-0.117 z"
   id="path35" />
							<path
   fill="#00b9d2"
   d="m 274.701,430.961 c -0.078,-0.078 -0.117,-0.177 -0.117,-0.297 v -8.532 c 0,-0.119 0.039,-0.219 0.117,-0.297 0.078,-0.078 0.177,-0.117 0.297,-0.117 h 0.756 c 0.12,0 0.217,0.039 0.288,0.117 0.072,0.078 0.108,0.178 0.108,0.297 v 0.612 c 0.648,-0.804 1.523,-1.206 2.628,-1.206 1.32,0 2.256,0.552 2.808,1.656 0.288,-0.504 0.699,-0.906 1.233,-1.206 0.534,-0.3 1.131,-0.45 1.791,-0.45 0.983,0 1.788,0.336 2.412,1.008 0.624,0.673 0.936,1.645 0.936,2.916 v 5.202 c 0,0.12 -0.039,0.219 -0.116,0.297 -0.078,0.078 -0.178,0.117 -0.298,0.117 h -0.773 c -0.12,0 -0.219,-0.039 -0.297,-0.117 -0.078,-0.078 -0.117,-0.177 -0.117,-0.297 v -5.04 c 0,-0.96 -0.198,-1.646 -0.594,-2.061 -0.396,-0.414 -0.918,-0.621 -1.566,-0.621 -0.576,0 -1.071,0.213 -1.485,0.639 -0.413,0.426 -0.62,1.107 -0.62,2.043 v 5.04 c 0,0.12 -0.039,0.219 -0.117,0.297 -0.078,0.078 -0.178,0.117 -0.297,0.117 h -0.792 c -0.12,0 -0.22,-0.039 -0.298,-0.117 -0.078,-0.078 -0.116,-0.177 -0.116,-0.297 v -5.04 c 0,-0.947 -0.207,-1.632 -0.621,-2.052 -0.414,-0.42 -0.927,-0.63 -1.539,-0.63 -0.576,0 -1.071,0.21 -1.485,0.63 -0.414,0.42 -0.621,1.098 -0.621,2.034 v 5.058 c 0,0.12 -0.039,0.219 -0.117,0.297 -0.078,0.078 -0.177,0.117 -0.297,0.117 H 275 c -0.122,0.001 -0.221,-0.038 -0.299,-0.117 z"
   id="path37" />
						</g>
					</g>
				</g>
			</g>
			<g
   id="g58">
				<g
   id="POLYLINE_675_">
					
						<line
   fill="none"
   stroke="#00b9d2"
   stroke-width="2"
   stroke-linecap="round"
   stroke-linejoin="round"
   stroke-miterlimit="10"
   x1="364.82101"
   y1="676.29199"
   x2="260.48199"
   y2="441.04501"
   id="line46" />
				</g>
				<g
   id="POLYLINE_674_">
					
						<line
   fill="none"
   stroke="#00b9d2"
   stroke-width="2"
   stroke-linecap="round"
   stroke-linejoin="round"
   stroke-miterlimit="10"
   x1="234.92799"
   y1="382.80499"
   x2="119.656"
   y2="122.951"
   id="line49" />
				</g>
				<g
   id="POLYLINE_673_">
					
						<polyline
   fill="none"
   stroke="#00b9d2"
   stroke-width="2"
   stroke-linecap="round"
   stroke-linejoin="round"
   stroke-miterlimit="10"
   points="       367.785,667.794 364.821,676.292 356.324,673.328      "
   id="polyline52" />
				</g>
				<g
   id="POLYLINE_672_">
					
						<polyline
   fill="none"
   stroke="#00b9d2"
   stroke-width="2"
   stroke-linecap="round"
   stroke-linejoin="round"
   stroke-miterlimit="10"
   points="       116.692,131.448 119.656,122.951 128.153,125.914      "
   id="polyline55" />
				</g>
			</g>
		</g>
		<g
   id="g91">
			<g
   id="POLYLINE_671_">
				
					<polyline
   fill="none"
   stroke="#00b9d2"
   stroke-width="2"
   stroke-linecap="round"
   stroke-linejoin="round"
   stroke-miterlimit="10"
   points="      365.753,630.004 372.116,636.367 365.753,642.73     "
   id="polyline62" />
			</g>
			<g
   id="POLYLINE_670_">
				
					<line
   fill="none"
   stroke="#00b9d2"
   stroke-width="2"
   stroke-linecap="round"
   stroke-linejoin="round"
   stroke-miterlimit="10"
   x1="372.116"
   y1="636.367"
   x2="282"
   y2="636.367"
   id="line65" />
			</g>
			<g
   id="POLYLINE_669_">
				
					<line
   fill="none"
   stroke="#00b9d2"
   stroke-width="2"
   stroke-linecap="round"
   stroke-linejoin="round"
   stroke-miterlimit="10"
   x1="201.91"
   y1="636.367"
   x2="116.809"
   y2="636.367"
   id="line68" />
			</g>
			<g
   id="POLYLINE_668_">
				
					<polyline
   fill="none"
   stroke="#00b9d2"
   stroke-width="2"
   stroke-linecap="round"
   stroke-linejoin="round"
   stroke-miterlimit="10"
   points="      123.186,630.015 116.821,636.379 123.186,642.742     "
   id="polyline71" />
			</g>
			<g
   id="MTEXT_62_">
				<g
   id="g88">
					<g
   id="g86">
						<path
   fill="#00b9d2"
   d="m 210.125,642.226 c -0.072,-0.078 -0.108,-0.177 -0.108,-0.297 v -10.152 l -3.024,2.322 c -0.084,0.072 -0.174,0.108 -0.27,0.108 -0.108,0 -0.21,-0.061 -0.306,-0.181 l -0.432,-0.558 c -0.06,-0.084 -0.09,-0.168 -0.09,-0.252 0,-0.132 0.06,-0.24 0.18,-0.324 l 3.906,-3.023 c 0.132,-0.084 0.288,-0.126 0.468,-0.126 h 0.846 c 0.12,0 0.219,0.039 0.297,0.116 0.078,0.078 0.117,0.178 0.117,0.298 v 11.771 c 0,0.12 -0.039,0.219 -0.117,0.297 -0.078,0.078 -0.177,0.117 -0.297,0.117 h -0.882 c -0.12,10e-4 -0.216,-0.038 -0.288,-0.116 z"
   id="path74" />
						<path
   fill="#00b9d2"
   d="m 220.034,642.226 c -0.078,-0.078 -0.117,-0.177 -0.117,-0.297 v -2.628 h -5.85 c -0.12,0 -0.219,-0.039 -0.297,-0.117 -0.078,-0.078 -0.117,-0.177 -0.117,-0.297 v -0.666 c 0,-0.168 0.066,-0.348 0.198,-0.54 l 5.418,-7.632 c 0.06,-0.096 0.15,-0.171 0.27,-0.225 0.12,-0.055 0.252,-0.081 0.396,-0.081 h 1.224 c 0.132,0 0.234,0.035 0.306,0.107 0.072,0.072 0.108,0.174 0.108,0.307 v 7.632 h 1.638 c 0.12,0 0.219,0.039 0.297,0.117 0.078,0.078 0.117,0.177 0.117,0.297 v 0.684 c 0,0.12 -0.039,0.219 -0.117,0.297 -0.078,0.078 -0.177,0.117 -0.297,0.117 h -1.638 v 2.628 c 0,0.12 -0.039,0.219 -0.117,0.297 -0.078,0.078 -0.177,0.117 -0.297,0.117 h -0.828 c -0.12,0 -0.219,-0.039 -0.297,-0.117 z m -4.509,-4.4 h 4.41 v -6.265 z"
   id="path76" />
						<path
   fill="#00b9d2"
   d="m 231.158,642.226 c -0.078,-0.078 -0.117,-0.177 -0.117,-0.297 v -2.628 h -5.85 c -0.12,0 -0.219,-0.039 -0.297,-0.117 -0.078,-0.078 -0.117,-0.177 -0.117,-0.297 v -0.666 c 0,-0.168 0.066,-0.348 0.198,-0.54 l 5.418,-7.632 c 0.06,-0.096 0.15,-0.171 0.27,-0.225 0.12,-0.055 0.252,-0.081 0.396,-0.081 h 1.224 c 0.132,0 0.234,0.035 0.306,0.107 0.072,0.072 0.108,0.174 0.108,0.307 v 7.632 h 1.638 c 0.12,0 0.219,0.039 0.297,0.117 0.078,0.078 0.117,0.177 0.117,0.297 v 0.684 c 0,0.12 -0.039,0.219 -0.117,0.297 -0.078,0.078 -0.177,0.117 -0.297,0.117 h -1.638 v 2.628 c 0,0.12 -0.039,0.219 -0.117,0.297 -0.078,0.078 -0.177,0.117 -0.297,0.117 h -0.828 c -0.12,0 -0.219,-0.039 -0.297,-0.117 z m -4.509,-4.4 h 4.41 v -6.265 z"
   id="path78" />
						<path
   fill="#00b9d2"
   d="m 237.638,641.165 c -0.714,-0.906 -1.095,-2.091 -1.143,-3.556 l -0.018,-1.548 0.018,-1.602 c 0.036,-1.452 0.417,-2.631 1.143,-3.537 0.726,-0.906 1.857,-1.359 3.393,-1.359 1.548,0 2.685,0.453 3.411,1.359 0.726,0.906 1.107,2.085 1.143,3.537 0.012,0.336 0.018,0.87 0.018,1.602 0,0.708 -0.006,1.225 -0.018,1.548 -0.048,1.465 -0.429,2.649 -1.143,3.556 -0.714,0.906 -1.851,1.358 -3.411,1.358 -1.548,0 -2.679,-0.452 -3.393,-1.358 z m 5.481,-1.054 c 0.468,-0.611 0.714,-1.476 0.738,-2.592 0.012,-0.348 0.018,-0.846 0.018,-1.494 0,-0.659 -0.006,-1.151 -0.018,-1.476 -0.024,-1.104 -0.273,-1.965 -0.747,-2.583 -0.474,-0.618 -1.167,-0.927 -2.079,-0.927 -0.912,0 -1.602,0.309 -2.07,0.927 -0.468,0.618 -0.714,1.479 -0.738,2.583 l -0.018,1.476 0.018,1.494 c 0.024,1.116 0.27,1.98 0.738,2.592 0.468,0.612 1.158,0.918 2.07,0.918 0.924,0 1.62,-0.306 2.088,-0.918 z"
   id="path80" />
						<path
   fill="#00b9d2"
   d="m 252.649,645.655 c -0.078,-0.071 -0.117,-0.174 -0.117,-0.306 v -11.952 c 0,-0.132 0.039,-0.233 0.117,-0.306 0.078,-0.073 0.177,-0.108 0.297,-0.108 h 0.756 c 0.132,0 0.234,0.036 0.306,0.108 0.072,0.072 0.108,0.174 0.108,0.306 v 0.792 c 0.696,-0.924 1.686,-1.386 2.97,-1.386 1.26,0 2.205,0.399 2.835,1.197 0.63,0.798 0.963,1.815 0.999,3.051 0.012,0.132 0.018,0.336 0.018,0.612 0,0.275 -0.006,0.479 -0.018,0.611 -0.036,1.225 -0.369,2.238 -0.999,3.042 -0.63,0.805 -1.575,1.206 -2.835,1.206 -1.284,0 -2.256,-0.456 -2.916,-1.368 v 4.194 c 0,0.12 -0.039,0.219 -0.117,0.297 -0.078,0.078 -0.177,0.117 -0.297,0.117 h -0.81 c -0.119,0.001 -0.218,-0.035 -0.297,-0.107 z m 5.986,-5.346 c 0.396,-0.54 0.612,-1.248 0.648,-2.124 0.012,-0.119 0.018,-0.294 0.018,-0.521 0,-2.305 -0.853,-3.456 -2.556,-3.456 -0.84,0 -1.473,0.278 -1.899,0.837 -0.426,0.558 -0.651,1.215 -0.675,1.971 -0.012,0.132 -0.018,0.366 -0.018,0.702 0,0.336 0.006,0.57 0.018,0.702 0.024,0.731 0.255,1.365 0.693,1.898 0.438,0.534 1.064,0.802 1.881,0.802 0.863,0 1.494,-0.271 1.89,-0.811 z"
   id="path82" />
						<path
   fill="#00b9d2"
   d="m 262.252,642.235 c -0.072,-0.071 -0.108,-0.161 -0.108,-0.27 0,-0.109 0.042,-0.222 0.126,-0.342 l 3.132,-4.068 -2.934,-3.87 c -0.096,-0.132 -0.144,-0.239 -0.144,-0.324 0,-0.107 0.039,-0.197 0.117,-0.27 0.078,-0.073 0.165,-0.108 0.261,-0.108 h 0.864 c 0.18,0 0.336,0.097 0.468,0.288 l 2.43,3.15 2.43,-3.15 c 0.072,-0.096 0.141,-0.168 0.207,-0.216 0.066,-0.048 0.153,-0.072 0.261,-0.072 h 0.828 c 0.096,0 0.18,0.036 0.252,0.108 0.072,0.072 0.108,0.156 0.108,0.252 0,0.12 -0.042,0.234 -0.126,0.342 l -2.97,3.906 3.132,4.032 c 0.084,0.12 0.126,0.233 0.126,0.342 0,0.109 -0.036,0.198 -0.108,0.27 -0.072,0.072 -0.162,0.108 -0.27,0.108 h -0.882 c -0.18,0 -0.336,-0.09 -0.468,-0.27 l -2.574,-3.33 -2.574,3.33 c -0.072,0.084 -0.141,0.149 -0.207,0.197 -0.066,0.049 -0.153,0.072 -0.261,0.072 h -0.846 c -0.107,10e-4 -0.197,-0.035 -0.27,-0.107 z"
   id="path84" />
					</g>
				</g>
			</g>
		</g>
		<g
   id="g122">
			<g
   id="POLYLINE_667_">
				
					<polyline
   fill="none"
   stroke="#00b9d2"
   stroke-width="2"
   stroke-linecap="round"
   stroke-linejoin="round"
   stroke-miterlimit="10"
   points="      141.66,128.492 148.023,122.129 154.386,128.492     "
   id="polyline93" />
			</g>
			<g
   id="POLYLINE_666_">
				
					<line
   fill="none"
   stroke="#00b9d2"
   stroke-width="2"
   stroke-linecap="round"
   stroke-linejoin="round"
   stroke-miterlimit="10"
   x1="148.02299"
   y1="122.129"
   x2="148.02299"
   y2="579.80701"
   id="line96" />
			</g>
			<g
   id="POLYLINE_665_">
				
					<line
   fill="none"
   stroke="#00b9d2"
   stroke-width="2"
   stroke-linecap="round"
   stroke-linejoin="round"
   stroke-miterlimit="10"
   x1="148.02299"
   y1="612.80701"
   x2="148.02299"
   y2="677.242"
   id="line99" />
			</g>
			<g
   id="POLYLINE_664_">
				
					<polyline
   fill="none"
   stroke="#00b9d2"
   stroke-width="2"
   stroke-linecap="round"
   stroke-linejoin="round"
   stroke-miterlimit="10"
   points="      141.672,670.865 148.035,677.229 154.398,670.865     "
   id="polyline102" />
			</g>
			<g
   id="MTEXT_60_">
				<g
   id="g119">
					<g
   id="g117">
						<path
   fill="#00b9d2"
   d="m 131.175,600.362 c -0.684,-0.306 -1.203,-0.704 -1.557,-1.196 -0.354,-0.492 -0.543,-1.002 -0.567,-1.53 0,-0.108 0.036,-0.195 0.108,-0.261 0.072,-0.066 0.162,-0.1 0.27,-0.1 h 0.81 c 0.132,0 0.24,0.027 0.324,0.081 0.083,0.054 0.15,0.159 0.198,0.315 0.156,0.611 0.495,1.044 1.017,1.296 0.522,0.252 1.137,0.378 1.845,0.378 0.864,0 1.551,-0.207 2.061,-0.621 0.51,-0.414 0.765,-1.005 0.765,-1.773 0,-1.464 -0.894,-2.195 -2.682,-2.195 h -1.692 c -0.12,0 -0.219,-0.039 -0.297,-0.117 -0.078,-0.078 -0.117,-0.177 -0.117,-0.297 v -0.468 c 0,-0.181 0.066,-0.336 0.198,-0.469 l 3.51,-3.888 h -5.328 c -0.12,0 -0.219,-0.036 -0.297,-0.108 -0.078,-0.071 -0.117,-0.168 -0.117,-0.287 v -0.648 c 0,-0.132 0.039,-0.237 0.117,-0.315 0.078,-0.077 0.177,-0.116 0.297,-0.116 h 7.128 c 0.132,0 0.237,0.039 0.315,0.116 0.078,0.078 0.117,0.184 0.117,0.315 v 0.594 c 0,0.133 -0.061,0.271 -0.18,0.414 l -3.51,3.942 h 0.288 c 1.224,0.036 2.193,0.354 2.907,0.954 0.714,0.6 1.071,1.476 1.071,2.628 0,0.792 -0.195,1.473 -0.585,2.043 -0.39,0.57 -0.933,1.008 -1.629,1.313 -0.696,0.307 -1.482,0.459 -2.358,0.459 -0.936,0 -1.746,-0.153 -2.43,-0.459 z"
   id="path105" />
						<path
   fill="#00b9d2"
   d="m 141.336,599.462 c -0.714,-0.906 -1.095,-2.091 -1.143,-3.556 l -0.018,-1.548 0.018,-1.602 c 0.036,-1.452 0.417,-2.631 1.143,-3.537 0.726,-0.906 1.857,-1.359 3.393,-1.359 1.548,0 2.685,0.453 3.411,1.359 0.726,0.906 1.107,2.085 1.143,3.537 0.012,0.336 0.018,0.87 0.018,1.602 0,0.708 -0.006,1.225 -0.018,1.548 -0.048,1.465 -0.429,2.649 -1.143,3.556 -0.714,0.906 -1.851,1.358 -3.411,1.358 -1.548,10e-4 -2.679,-0.451 -3.393,-1.358 z m 5.481,-1.053 c 0.468,-0.611 0.714,-1.476 0.738,-2.592 0.012,-0.348 0.018,-0.846 0.018,-1.494 0,-0.659 -0.006,-1.151 -0.018,-1.476 -0.024,-1.104 -0.273,-1.965 -0.747,-2.583 -0.474,-0.618 -1.167,-0.927 -2.079,-0.927 -0.912,0 -1.602,0.309 -2.07,0.927 -0.468,0.618 -0.714,1.479 -0.738,2.583 l -0.018,1.476 0.018,1.494 c 0.024,1.116 0.27,1.98 0.738,2.592 0.468,0.612 1.158,0.918 2.07,0.918 0.924,0 1.62,-0.306 2.088,-0.918 z"
   id="path107" />
						<path
   fill="#00b9d2"
   d="m 157.374,600.524 c -0.078,-0.078 -0.117,-0.177 -0.117,-0.297 v -2.628 h -5.85 c -0.12,0 -0.219,-0.039 -0.297,-0.117 -0.078,-0.078 -0.117,-0.177 -0.117,-0.297 v -0.666 c 0,-0.168 0.066,-0.348 0.198,-0.54 l 5.418,-7.632 c 0.06,-0.096 0.15,-0.171 0.27,-0.225 0.12,-0.055 0.252,-0.081 0.396,-0.081 h 1.224 c 0.132,0 0.234,0.035 0.306,0.107 0.072,0.072 0.108,0.174 0.108,0.307 v 7.632 h 1.638 c 0.12,0 0.219,0.039 0.297,0.117 0.078,0.078 0.117,0.177 0.117,0.297 v 0.684 c 0,0.12 -0.039,0.219 -0.117,0.297 -0.078,0.078 -0.177,0.117 -0.297,0.117 h -1.638 v 2.628 c 0,0.12 -0.039,0.219 -0.117,0.297 -0.078,0.078 -0.177,0.117 -0.297,0.117 h -0.828 c -0.12,0 -0.219,-0.039 -0.297,-0.117 z m -4.509,-4.4 h 4.41 v -6.265 z"
   id="path109" />
						<path
   fill="#00b9d2"
   d="m 163.854,599.462 c -0.714,-0.906 -1.095,-2.091 -1.143,-3.556 l -0.018,-1.548 0.018,-1.602 c 0.036,-1.452 0.417,-2.631 1.143,-3.537 0.726,-0.906 1.857,-1.359 3.393,-1.359 1.548,0 2.685,0.453 3.411,1.359 0.726,0.906 1.107,2.085 1.143,3.537 0.012,0.336 0.018,0.87 0.018,1.602 0,0.708 -0.006,1.225 -0.018,1.548 -0.048,1.465 -0.429,2.649 -1.143,3.556 -0.714,0.906 -1.851,1.358 -3.411,1.358 -1.548,10e-4 -2.679,-0.451 -3.393,-1.358 z m 5.481,-1.053 c 0.468,-0.611 0.714,-1.476 0.738,-2.592 0.012,-0.348 0.018,-0.846 0.018,-1.494 0,-0.659 -0.006,-1.151 -0.018,-1.476 -0.024,-1.104 -0.273,-1.965 -0.747,-2.583 -0.474,-0.618 -1.167,-0.927 -2.079,-0.927 -0.912,0 -1.602,0.309 -2.07,0.927 -0.468,0.618 -0.714,1.479 -0.738,2.583 l -0.018,1.476 0.018,1.494 c 0.024,1.116 0.27,1.98 0.738,2.592 0.468,0.612 1.158,0.918 2.07,0.918 0.924,0 1.62,-0.306 2.088,-0.918 z"
   id="path111" />
						<path
   fill="#00b9d2"
   d="m 178.866,603.953 c -0.078,-0.071 -0.117,-0.174 -0.117,-0.306 v -11.952 c 0,-0.132 0.039,-0.233 0.117,-0.306 0.078,-0.073 0.177,-0.108 0.297,-0.108 h 0.756 c 0.132,0 0.234,0.036 0.306,0.108 0.072,0.072 0.108,0.174 0.108,0.306 v 0.792 c 0.696,-0.924 1.686,-1.386 2.97,-1.386 1.26,0 2.205,0.399 2.835,1.197 0.63,0.798 0.963,1.815 0.999,3.051 0.012,0.132 0.018,0.336 0.018,0.612 0,0.275 -0.006,0.479 -0.018,0.611 -0.036,1.225 -0.369,2.238 -0.999,3.042 -0.63,0.805 -1.575,1.206 -2.835,1.206 -1.284,0 -2.256,-0.456 -2.916,-1.368 v 4.194 c 0,0.12 -0.039,0.219 -0.117,0.297 -0.078,0.078 -0.177,0.117 -0.297,0.117 h -0.81 c -0.12,0.001 -0.219,-0.035 -0.297,-0.107 z m 5.985,-5.346 c 0.396,-0.54 0.612,-1.248 0.648,-2.124 0.012,-0.119 0.018,-0.294 0.018,-0.521 0,-2.305 -0.853,-3.456 -2.556,-3.456 -0.84,0 -1.473,0.278 -1.899,0.837 -0.426,0.558 -0.651,1.215 -0.675,1.971 -0.012,0.132 -0.018,0.366 -0.018,0.702 0,0.336 0.006,0.57 0.018,0.702 0.024,0.731 0.255,1.365 0.693,1.898 0.438,0.534 1.064,0.802 1.881,0.802 0.864,-10e-4 1.494,-0.271 1.89,-0.811 z"
   id="path113" />
						<path
   fill="#00b9d2"
   d="m 188.469,600.533 c -0.072,-0.071 -0.108,-0.161 -0.108,-0.27 0,-0.109 0.042,-0.222 0.126,-0.342 l 3.132,-4.068 -2.934,-3.87 c -0.096,-0.132 -0.144,-0.239 -0.144,-0.324 0,-0.107 0.039,-0.197 0.117,-0.27 0.078,-0.073 0.165,-0.108 0.261,-0.108 h 0.864 c 0.18,0 0.336,0.097 0.468,0.288 l 2.43,3.15 2.43,-3.15 c 0.072,-0.096 0.141,-0.168 0.207,-0.216 0.066,-0.048 0.153,-0.072 0.261,-0.072 h 0.828 c 0.096,0 0.18,0.036 0.252,0.108 0.072,0.072 0.108,0.156 0.108,0.252 0,0.12 -0.042,0.234 -0.126,0.342 l -2.97,3.906 3.132,4.032 c 0.084,0.12 0.126,0.233 0.126,0.342 0,0.109 -0.036,0.198 -0.108,0.27 -0.072,0.072 -0.162,0.108 -0.27,0.108 h -0.882 c -0.18,0 -0.336,-0.09 -0.468,-0.27 l -2.574,-3.33 -2.574,3.33 c -0.072,0.084 -0.141,0.149 -0.207,0.197 -0.066,0.049 -0.153,0.072 -0.261,0.072 h -0.846 c -0.108,10e-4 -0.198,-0.035 -0.27,-0.107 z"
   id="path115" />
					</g>
				</g>
			</g>
		</g>
	</g>
	<g
   display="inline"
   id="g250">
		<g
   id="g165">
			<g
   id="POLYLINE_521_">
				
					<polyline
   fill="none"
   stroke="#00b9d2"
   stroke-width="2"
   stroke-linecap="round"
   stroke-linejoin="round"
   stroke-miterlimit="10"
   points="      900.546,736.371 906.909,730.008 900.546,723.644     "
   id="polyline126" />
			</g>
			<g
   id="POLYLINE_520_">
				
					<line
   fill="none"
   stroke="#00b9d2"
   stroke-width="2"
   stroke-linecap="round"
   stroke-linejoin="round"
   stroke-miterlimit="10"
   x1="906.909"
   y1="730.008"
   x2="900.66901"
   y2="730.008"
   id="line129" />
			</g>
			<g
   id="POLYLINE_211_">
				
					<line
   fill="none"
   stroke="#00b9d2"
   stroke-width="2"
   stroke-linecap="round"
   stroke-linejoin="round"
   stroke-miterlimit="10"
   x1="900.66901"
   y1="730.008"
   x2="871.49701"
   y2="730.008"
   id="line132" />
			</g>
			<g
   id="POLYLINE_208_">
				
					<polyline
   fill="none"
   stroke="#00b9d2"
   stroke-width="2"
   stroke-linecap="round"
   stroke-linejoin="round"
   stroke-miterlimit="10"
   points="      877.874,736.359 871.51,729.996 877.874,723.633     "
   id="polyline135" />
			</g>
			<g
   id="MTEXT_61_">
				<g
   id="g162">
					<g
   id="g160">
						<g
   id="g158">
							<path
   fill="#00b9d2"
   d="m 795.525,761.977 c -0.087,-0.087 -0.13,-0.196 -0.13,-0.33 v -1.38 c 0,-0.133 0.043,-0.247 0.13,-0.34 0.087,-0.094 0.196,-0.141 0.33,-0.141 h 1.38 c 0.133,0 0.243,0.047 0.33,0.141 0.087,0.093 0.13,0.207 0.13,0.34 v 1.38 c 0,0.134 -0.043,0.243 -0.13,0.33 -0.087,0.087 -0.197,0.13 -0.33,0.13 h -1.38 c -0.133,0 -0.243,-0.043 -0.33,-0.13 z"
   id="path138" />
							<path
   fill="#00b9d2"
   d="m 802.256,761.797 c -0.761,-0.341 -1.337,-0.783 -1.73,-1.33 -0.393,-0.547 -0.604,-1.113 -0.63,-1.7 0,-0.12 0.04,-0.217 0.12,-0.29 0.08,-0.073 0.18,-0.11 0.3,-0.11 h 0.9 c 0.146,0 0.267,0.03 0.359,0.09 0.094,0.061 0.167,0.178 0.22,0.351 0.174,0.68 0.551,1.16 1.131,1.439 0.58,0.28 1.263,0.42 2.05,0.42 0.96,0 1.723,-0.229 2.29,-0.689 0.566,-0.46 0.85,-1.116 0.85,-1.97 0,-1.627 -0.993,-2.44 -2.979,-2.44 h -1.88 c -0.134,0 -0.244,-0.043 -0.33,-0.13 -0.087,-0.087 -0.131,-0.196 -0.131,-0.33 v -0.52 c 0,-0.2 0.073,-0.374 0.221,-0.521 l 3.899,-4.32 h -5.92 c -0.133,0 -0.243,-0.04 -0.33,-0.12 -0.087,-0.079 -0.13,-0.187 -0.13,-0.319 v -0.72 c 0,-0.147 0.043,-0.264 0.13,-0.351 0.087,-0.087 0.197,-0.13 0.33,-0.13 h 7.92 c 0.146,0 0.264,0.043 0.351,0.13 0.086,0.087 0.13,0.203 0.13,0.351 v 0.659 c 0,0.147 -0.067,0.301 -0.2,0.46 l -3.9,4.381 h 0.32 c 1.36,0.039 2.437,0.393 3.23,1.06 0.793,0.667 1.189,1.64 1.189,2.92 0,0.88 -0.217,1.637 -0.649,2.271 -0.434,0.633 -1.037,1.119 -1.811,1.46 -0.773,0.34 -1.646,0.51 -2.62,0.51 -1.041,-0.002 -1.94,-0.172 -2.7,-0.512 z"
   id="path140" />
							<path
   fill="#00b9d2"
   d="m 815.836,761.977 c -0.08,-0.087 -0.12,-0.196 -0.12,-0.33 v -11.28 l -3.36,2.58 c -0.094,0.08 -0.193,0.12 -0.3,0.12 -0.12,0 -0.233,-0.066 -0.34,-0.2 l -0.48,-0.62 c -0.066,-0.093 -0.1,-0.187 -0.1,-0.279 0,-0.146 0.066,-0.267 0.2,-0.36 l 4.34,-3.36 c 0.146,-0.093 0.319,-0.14 0.52,-0.14 h 0.94 c 0.133,0 0.243,0.043 0.33,0.13 0.086,0.087 0.13,0.197 0.13,0.33 v 13.08 c 0,0.134 -0.044,0.243 -0.13,0.33 -0.087,0.087 -0.197,0.13 -0.33,0.13 h -0.98 c -0.134,-10e-4 -0.241,-0.044 -0.32,-0.131 z"
   id="path142" />
							<path
   fill="#00b9d2"
   d="m 820.615,751.847 -0.34,-3.48 v -0.08 c 0,-0.12 0.036,-0.213 0.109,-0.279 0.073,-0.067 0.17,-0.101 0.29,-0.101 h 1.26 c 0.134,0 0.237,0.044 0.311,0.13 0.073,0.087 0.103,0.197 0.09,0.33 l -0.34,3.48 c -0.027,0.293 -0.16,0.439 -0.4,0.439 h -0.58 c -0.24,0.001 -0.373,-0.146 -0.4,-0.439 z m 3.06,0 -0.34,-3.48 v -0.04 c 0,-0.133 0.036,-0.236 0.11,-0.31 0.073,-0.073 0.17,-0.11 0.29,-0.11 h 1.26 c 0.133,0 0.236,0.044 0.31,0.13 0.073,0.087 0.104,0.197 0.09,0.33 l -0.34,3.48 c -0.026,0.293 -0.16,0.439 -0.399,0.439 h -0.58 c -0.241,0.001 -0.375,-0.146 -0.401,-0.439 z"
   id="path144" />
							<path
   fill="#00b9d2"
   d="m 833.075,766.137 c -0.08,-0.087 -0.12,-0.197 -0.12,-0.33 v -21.16 c 0,-0.133 0.04,-0.243 0.12,-0.33 0.08,-0.087 0.187,-0.13 0.319,-0.13 h 0.74 c 0.133,0 0.243,0.043 0.33,0.13 0.087,0.087 0.13,0.197 0.13,0.33 v 21.16 c 0,0.133 -0.043,0.243 -0.13,0.33 -0.087,0.086 -0.197,0.13 -0.33,0.13 h -0.74 c -0.132,0 -0.239,-0.044 -0.319,-0.13 z"
   id="path146" />
							<path
   fill="#00b9d2"
   d="m 843.704,761.977 c -0.073,-0.087 -0.109,-0.19 -0.109,-0.311 l 0.04,-0.18 5,-11.7 h -6.601 c -0.133,0 -0.243,-0.043 -0.33,-0.13 -0.087,-0.086 -0.13,-0.196 -0.13,-0.33 v -0.739 c 0,-0.147 0.04,-0.264 0.12,-0.351 0.08,-0.087 0.193,-0.13 0.34,-0.13 h 8.16 c 0.146,0 0.26,0.043 0.34,0.13 0.08,0.087 0.12,0.203 0.12,0.351 v 0.68 c 0,0.24 -0.054,0.5 -0.16,0.78 l -4.939,11.56 c -0.067,0.146 -0.141,0.267 -0.221,0.36 -0.08,0.093 -0.193,0.14 -0.34,0.14 h -1 c -0.12,0 -0.217,-0.043 -0.29,-0.13 z"
   id="path148" />
							<path
   fill="#00b9d2"
   d="m 851.364,761.977 c -0.087,-0.087 -0.13,-0.196 -0.13,-0.33 v -1.38 c 0,-0.133 0.043,-0.247 0.13,-0.34 0.087,-0.094 0.196,-0.141 0.33,-0.141 h 1.38 c 0.133,0 0.243,0.047 0.33,0.141 0.087,0.093 0.13,0.207 0.13,0.34 v 1.38 c 0,0.134 -0.043,0.243 -0.13,0.33 -0.087,0.087 -0.197,0.13 -0.33,0.13 h -1.38 c -0.133,0 -0.243,-0.043 -0.33,-0.13 z"
   id="path150" />
							<path
   fill="#00b9d2"
   d="m 857.564,761.977 c -0.073,-0.087 -0.11,-0.19 -0.11,-0.311 0,-0.093 0.026,-0.18 0.08,-0.26 l 3.08,-4.28 c -0.32,0.08 -0.693,0.12 -1.12,0.12 -0.96,-0.013 -1.8,-0.236 -2.52,-0.67 -0.721,-0.433 -1.271,-1 -1.65,-1.7 -0.38,-0.699 -0.57,-1.449 -0.57,-2.25 0,-0.8 0.19,-1.56 0.57,-2.279 0.38,-0.721 0.946,-1.307 1.7,-1.76 0.753,-0.453 1.663,-0.681 2.729,-0.681 1.067,0 1.98,0.22 2.74,0.66 0.76,0.44 1.333,1.017 1.721,1.73 0.386,0.713 0.579,1.477 0.579,2.29 0,0.733 -0.13,1.38 -0.39,1.939 -0.26,0.561 -0.604,1.14 -1.03,1.74 l -3.88,5.439 c -0.093,0.12 -0.184,0.217 -0.27,0.29 -0.087,0.074 -0.21,0.11 -0.37,0.11 h -1 c -0.119,0.003 -0.215,-0.04 -0.289,-0.127 z m 3.77,-6.69 c 0.48,-0.253 0.86,-0.609 1.141,-1.069 0.279,-0.46 0.42,-0.99 0.42,-1.591 0,-0.612 -0.141,-1.152 -0.42,-1.619 -0.28,-0.467 -0.66,-0.827 -1.141,-1.08 -0.479,-0.254 -1.007,-0.38 -1.58,-0.38 -0.56,0 -1.076,0.126 -1.55,0.38 -0.474,0.253 -0.85,0.613 -1.13,1.08 -0.28,0.467 -0.42,1.007 -0.42,1.619 0,0.601 0.14,1.131 0.42,1.591 0.28,0.46 0.653,0.816 1.12,1.069 0.467,0.254 0.986,0.38 1.56,0.38 0.574,0 1.1,-0.126 1.58,-0.38 z"
   id="path152" />
							<path
   fill="#00b9d2"
   d="m 872.344,761.977 c -0.087,-0.087 -0.13,-0.196 -0.13,-0.33 v -9.48 c 0,-0.133 0.043,-0.243 0.13,-0.329 0.087,-0.087 0.196,-0.131 0.33,-0.131 h 0.84 c 0.133,0 0.24,0.044 0.32,0.131 0.08,0.086 0.12,0.196 0.12,0.329 v 0.681 c 0.72,-0.894 1.692,-1.34 2.92,-1.34 1.466,0 2.506,0.613 3.119,1.84 0.32,-0.561 0.777,-1.007 1.37,-1.34 0.594,-0.334 1.257,-0.5 1.99,-0.5 1.093,0 1.986,0.373 2.68,1.119 0.693,0.747 1.04,1.827 1.04,3.24 v 5.78 c 0,0.134 -0.043,0.243 -0.13,0.33 -0.087,0.087 -0.196,0.13 -0.33,0.13 h -0.859 c -0.134,0 -0.244,-0.043 -0.33,-0.13 -0.087,-0.087 -0.13,-0.196 -0.13,-0.33 v -5.6 c 0,-1.067 -0.221,-1.83 -0.66,-2.29 -0.44,-0.46 -1.021,-0.69 -1.74,-0.69 -0.64,0 -1.189,0.237 -1.65,0.71 -0.46,0.474 -0.689,1.23 -0.689,2.271 v 5.6 c 0,0.134 -0.044,0.243 -0.13,0.33 -0.087,0.087 -0.197,0.13 -0.33,0.13 h -0.88 c -0.134,0 -0.244,-0.043 -0.33,-0.13 -0.087,-0.087 -0.13,-0.196 -0.13,-0.33 v -5.6 c 0,-1.054 -0.23,-1.813 -0.69,-2.28 -0.46,-0.467 -1.03,-0.7 -1.71,-0.7 -0.64,0 -1.189,0.233 -1.649,0.7 -0.461,0.467 -0.69,1.22 -0.69,2.26 v 5.62 c 0,0.134 -0.044,0.243 -0.13,0.33 -0.087,0.087 -0.197,0.13 -0.33,0.13 h -0.88 c -0.136,-10e-4 -0.245,-0.044 -0.332,-0.131 z"
   id="path154" />
							<path
   fill="#00b9d2"
   d="m 890.104,761.977 c -0.087,-0.087 -0.13,-0.196 -0.13,-0.33 v -9.48 c 0,-0.133 0.043,-0.243 0.13,-0.329 0.087,-0.087 0.196,-0.131 0.33,-0.131 h 0.84 c 0.133,0 0.24,0.044 0.32,0.131 0.08,0.086 0.12,0.196 0.12,0.329 v 0.681 c 0.72,-0.894 1.692,-1.34 2.92,-1.34 1.466,0 2.506,0.613 3.119,1.84 0.32,-0.561 0.777,-1.007 1.37,-1.34 0.594,-0.334 1.257,-0.5 1.99,-0.5 1.093,0 1.986,0.373 2.68,1.119 0.693,0.747 1.04,1.827 1.04,3.24 v 5.78 c 0,0.134 -0.043,0.243 -0.13,0.33 -0.087,0.087 -0.196,0.13 -0.33,0.13 h -0.859 c -0.134,0 -0.244,-0.043 -0.33,-0.13 -0.087,-0.087 -0.13,-0.196 -0.13,-0.33 v -5.6 c 0,-1.067 -0.221,-1.83 -0.66,-2.29 -0.44,-0.46 -1.021,-0.69 -1.74,-0.69 -0.64,0 -1.189,0.237 -1.65,0.71 -0.46,0.474 -0.689,1.23 -0.689,2.271 v 5.6 c 0,0.134 -0.044,0.243 -0.13,0.33 -0.087,0.087 -0.197,0.13 -0.33,0.13 h -0.88 c -0.134,0 -0.244,-0.043 -0.33,-0.13 -0.087,-0.087 -0.13,-0.196 -0.13,-0.33 v -5.6 c 0,-1.054 -0.23,-1.813 -0.69,-2.28 -0.46,-0.467 -1.03,-0.7 -1.71,-0.7 -0.64,0 -1.189,0.233 -1.649,0.7 -0.461,0.467 -0.69,1.22 -0.69,2.26 v 5.62 c 0,0.134 -0.044,0.243 -0.13,0.33 -0.087,0.087 -0.197,0.13 -0.33,0.13 h -0.88 c -0.136,-10e-4 -0.246,-0.044 -0.332,-0.131 z"
   id="path156" />
						</g>
					</g>
				</g>
			</g>
		</g>
		<g
   id="g208">
			<g
   id="POLYLINE_207_">
				
					<polyline
   fill="none"
   stroke="#00b9d2"
   stroke-width="2"
   stroke-linecap="round"
   stroke-linejoin="round"
   stroke-miterlimit="10"
   points="      101.305,729.041 94.941,735.405 101.305,741.768     "
   id="polyline167" />
			</g>
			<g
   id="POLYLINE_197_">
				
					<line
   fill="none"
   stroke="#00b9d2"
   stroke-width="2"
   stroke-linecap="round"
   stroke-linejoin="round"
   stroke-miterlimit="10"
   x1="94.941002"
   y1="735.40503"
   x2="153.45799"
   y2="735.40503"
   id="line170" />
			</g>
			<g
   id="POLYLINE_188_">
				
					<line
   fill="none"
   stroke="#00b9d2"
   stroke-width="2"
   stroke-linecap="round"
   stroke-linejoin="round"
   stroke-miterlimit="10"
   x1="306.927"
   y1="735.40503"
   x2="388.888"
   y2="735.40503"
   id="line173" />
			</g>
			<g
   id="POLYLINE_187_">
				
					<polyline
   fill="none"
   stroke="#00b9d2"
   stroke-width="2"
   stroke-linecap="round"
   stroke-linejoin="round"
   stroke-miterlimit="10"
   points="      382.511,729.053 388.875,735.416 382.511,741.78     "
   id="polyline176" />
			</g>
			<g
   id="MTEXT_57_">
				<g
   id="g205">
					<g
   id="g203">
						<path
   fill="#00b9d2"
   d="m 165.033,742.071 c -0.76,-0.341 -1.337,-0.783 -1.73,-1.33 -0.394,-0.547 -0.604,-1.113 -0.63,-1.7 0,-0.12 0.04,-0.217 0.12,-0.29 0.08,-0.073 0.18,-0.11 0.3,-0.11 h 0.9 c 0.146,0 0.267,0.03 0.36,0.09 0.093,0.061 0.167,0.178 0.22,0.351 0.173,0.68 0.55,1.16 1.13,1.439 0.58,0.28 1.263,0.42 2.05,0.42 0.96,0 1.723,-0.229 2.29,-0.689 0.566,-0.46 0.85,-1.116 0.85,-1.97 0,-1.627 -0.994,-2.44 -2.98,-2.44 h -1.88 c -0.134,0 -0.244,-0.043 -0.33,-0.13 -0.087,-0.087 -0.13,-0.196 -0.13,-0.33 v -0.52 c 0,-0.2 0.073,-0.374 0.22,-0.521 l 3.9,-4.32 h -5.92 c -0.133,0 -0.243,-0.04 -0.33,-0.12 -0.087,-0.079 -0.13,-0.187 -0.13,-0.319 v -0.72 c 0,-0.147 0.043,-0.264 0.13,-0.351 0.087,-0.087 0.197,-0.13 0.33,-0.13 h 7.92 c 0.146,0 0.263,0.043 0.35,0.13 0.086,0.087 0.13,0.203 0.13,0.351 v 0.659 c 0,0.147 -0.067,0.301 -0.2,0.46 l -3.9,4.381 h 0.32 c 1.36,0.039 2.437,0.393 3.23,1.06 0.793,0.667 1.19,1.64 1.19,2.92 0,0.88 -0.217,1.637 -0.65,2.271 -0.434,0.633 -1.037,1.119 -1.81,1.46 -0.773,0.34 -1.647,0.51 -2.62,0.51 -1.04,-0.002 -1.94,-0.172 -2.7,-0.512 z"
   id="path179" />
						<path
   fill="#00b9d2"
   d="m 175.263,742.25 c -0.087,-0.087 -0.13,-0.196 -0.13,-0.33 v -1.38 c 0,-0.133 0.043,-0.247 0.13,-0.34 0.086,-0.094 0.196,-0.141 0.33,-0.141 h 1.38 c 0.133,0 0.243,0.047 0.33,0.141 0.087,0.093 0.13,0.207 0.13,0.34 v 1.38 c 0,0.134 -0.043,0.243 -0.13,0.33 -0.086,0.087 -0.197,0.13 -0.33,0.13 h -1.38 c -0.134,0 -0.243,-0.043 -0.33,-0.13 z"
   id="path181" />
						<path
   fill="#00b9d2"
   d="m 181.003,741.071 c -0.793,-1.007 -1.217,-2.323 -1.27,-3.95 l -0.02,-1.721 0.02,-1.779 c 0.04,-1.613 0.463,-2.924 1.27,-3.931 0.807,-1.006 2.063,-1.51 3.77,-1.51 1.72,0 2.983,0.504 3.79,1.51 0.807,1.007 1.23,2.317 1.27,3.931 0.013,0.373 0.02,0.967 0.02,1.779 0,0.787 -0.007,1.36 -0.02,1.721 -0.053,1.627 -0.477,2.943 -1.27,3.95 -0.793,1.007 -2.057,1.51 -3.79,1.51 -1.72,0 -2.977,-0.503 -3.77,-1.51 z m 6.09,-1.171 c 0.52,-0.68 0.793,-1.64 0.82,-2.88 0.013,-0.386 0.02,-0.939 0.02,-1.659 0,-0.733 -0.007,-1.28 -0.02,-1.641 -0.027,-1.227 -0.303,-2.183 -0.83,-2.87 -0.527,-0.687 -1.297,-1.029 -2.31,-1.029 -1.013,0 -1.78,0.343 -2.3,1.029 -0.52,0.688 -0.793,1.644 -0.82,2.87 l -0.02,1.641 0.02,1.659 c 0.026,1.24 0.3,2.2 0.82,2.88 0.52,0.681 1.287,1.021 2.3,1.021 1.027,-0.001 1.8,-0.34 2.32,-1.021 z"
   id="path183" />
						<path
   fill="#00b9d2"
   d="m 198.823,742.25 c -0.087,-0.087 -0.13,-0.196 -0.13,-0.33 V 739 h -6.5 c -0.133,0 -0.244,-0.043 -0.33,-0.13 -0.087,-0.087 -0.13,-0.197 -0.13,-0.33 v -0.74 c 0,-0.187 0.073,-0.387 0.22,-0.6 l 6.02,-8.48 c 0.067,-0.106 0.167,-0.189 0.3,-0.25 0.133,-0.06 0.28,-0.09 0.44,-0.09 h 1.36 c 0.146,0 0.26,0.04 0.34,0.12 0.08,0.08 0.12,0.193 0.12,0.34 v 8.48 h 1.82 c 0.133,0 0.243,0.043 0.33,0.13 0.087,0.087 0.13,0.196 0.13,0.33 v 0.76 c 0,0.133 -0.043,0.243 -0.13,0.33 -0.087,0.087 -0.197,0.13 -0.33,0.13 h -1.82 v 2.92 c 0,0.134 -0.043,0.243 -0.13,0.33 -0.087,0.087 -0.197,0.13 -0.33,0.13 h -0.92 c -0.133,0 -0.244,-0.043 -0.33,-0.13 z m -5.01,-4.889 h 4.9 V 730.4 Z"
   id="path185" />
						<path
   fill="#00b9d2"
   d="m 204.493,732.121 -0.34,-3.48 v -0.08 c 0,-0.12 0.037,-0.213 0.11,-0.279 0.073,-0.067 0.17,-0.101 0.29,-0.101 h 1.26 c 0.133,0 0.237,0.044 0.31,0.13 0.073,0.087 0.103,0.197 0.09,0.33 l -0.34,3.48 c -0.027,0.293 -0.16,0.439 -0.4,0.439 h -0.58 c -0.24,0 -0.373,-0.146 -0.4,-0.439 z m 3.06,0 -0.34,-3.48 v -0.04 c 0,-0.133 0.036,-0.236 0.11,-0.31 0.073,-0.073 0.17,-0.11 0.29,-0.11 h 1.26 c 0.133,0 0.237,0.044 0.31,0.13 0.073,0.087 0.103,0.197 0.09,0.33 l -0.34,3.48 c -0.027,0.293 -0.16,0.439 -0.4,0.439 h -0.58 c -0.24,0 -0.373,-0.146 -0.4,-0.439 z"
   id="path187" />
						<path
   fill="#00b9d2"
   d="m 216.953,746.411 c -0.08,-0.087 -0.12,-0.197 -0.12,-0.33 v -21.16 c 0,-0.133 0.04,-0.243 0.12,-0.33 0.08,-0.087 0.187,-0.13 0.32,-0.13 h 0.74 c 0.133,0 0.243,0.043 0.33,0.13 0.087,0.087 0.13,0.197 0.13,0.33 v 21.16 c 0,0.133 -0.043,0.243 -0.13,0.33 -0.086,0.086 -0.197,0.13 -0.33,0.13 h -0.74 c -0.134,0 -0.24,-0.044 -0.32,-0.13 z"
   id="path189" />
						<path
   fill="#00b9d2"
   d="m 227.582,742.25 c -0.073,-0.087 -0.11,-0.19 -0.11,-0.311 l 0.04,-0.18 5,-11.7 h -6.6 c -0.133,0 -0.244,-0.043 -0.33,-0.13 -0.087,-0.086 -0.13,-0.196 -0.13,-0.33 v -0.739 c 0,-0.147 0.04,-0.264 0.12,-0.351 0.08,-0.087 0.193,-0.13 0.34,-0.13 h 8.16 c 0.146,0 0.26,0.043 0.34,0.13 0.08,0.087 0.12,0.203 0.12,0.351 v 0.68 c 0,0.24 -0.054,0.5 -0.16,0.78 l -4.94,11.56 c -0.067,0.146 -0.14,0.267 -0.22,0.36 -0.08,0.093 -0.193,0.14 -0.34,0.14 h -1 c -0.12,0 -0.217,-0.043 -0.29,-0.13 z"
   id="path191" />
						<path
   fill="#00b9d2"
   d="m 237.782,742.25 c -0.073,-0.087 -0.11,-0.19 -0.11,-0.311 l 0.04,-0.18 5,-11.7 h -6.6 c -0.133,0 -0.244,-0.043 -0.33,-0.13 -0.087,-0.086 -0.13,-0.196 -0.13,-0.33 v -0.739 c 0,-0.147 0.04,-0.264 0.12,-0.351 0.08,-0.087 0.193,-0.13 0.34,-0.13 h 8.16 c 0.146,0 0.26,0.043 0.34,0.13 0.08,0.087 0.12,0.203 0.12,0.351 v 0.68 c 0,0.24 -0.054,0.5 -0.16,0.78 l -4.94,11.56 c -0.067,0.146 -0.14,0.267 -0.22,0.36 -0.08,0.093 -0.193,0.14 -0.34,0.14 h -1 c -0.12,0 -0.217,-0.043 -0.29,-0.13 z"
   id="path193" />
						<path
   fill="#00b9d2"
   d="m 245.442,742.25 c -0.087,-0.087 -0.13,-0.196 -0.13,-0.33 v -1.38 c 0,-0.133 0.043,-0.247 0.13,-0.34 0.086,-0.094 0.196,-0.141 0.33,-0.141 h 1.38 c 0.133,0 0.243,0.047 0.33,0.141 0.087,0.093 0.13,0.207 0.13,0.34 v 1.38 c 0,0.134 -0.043,0.243 -0.13,0.33 -0.086,0.087 -0.197,0.13 -0.33,0.13 h -1.38 c -0.133,0 -0.243,-0.043 -0.33,-0.13 z"
   id="path195" />
						<path
   fill="#00b9d2"
   d="m 252.812,742.25 c -0.08,-0.087 -0.12,-0.196 -0.12,-0.33 v -11.28 l -3.36,2.58 c -0.094,0.08 -0.194,0.12 -0.3,0.12 -0.12,0 -0.233,-0.066 -0.34,-0.2 l -0.48,-0.62 c -0.067,-0.093 -0.1,-0.187 -0.1,-0.279 0,-0.146 0.066,-0.267 0.2,-0.36 l 4.34,-3.36 c 0.146,-0.093 0.32,-0.14 0.52,-0.14 h 0.94 c 0.133,0 0.243,0.043 0.33,0.13 0.086,0.087 0.13,0.197 0.13,0.33 v 13.08 c 0,0.134 -0.043,0.243 -0.13,0.33 -0.087,0.087 -0.197,0.13 -0.33,0.13 h -0.98 c -0.133,-10e-4 -0.24,-0.044 -0.32,-0.131 z"
   id="path197" />
						<path
   fill="#00b9d2"
   d="m 262.662,742.25 c -0.087,-0.087 -0.13,-0.196 -0.13,-0.33 v -9.48 c 0,-0.133 0.043,-0.243 0.13,-0.329 0.087,-0.087 0.197,-0.131 0.33,-0.131 h 0.84 c 0.133,0 0.24,0.044 0.32,0.131 0.08,0.086 0.12,0.196 0.12,0.329 v 0.681 c 0.72,-0.894 1.693,-1.34 2.92,-1.34 1.466,0 2.506,0.613 3.12,1.84 0.32,-0.561 0.777,-1.007 1.37,-1.34 0.593,-0.334 1.257,-0.5 1.99,-0.5 1.093,0 1.986,0.373 2.68,1.119 0.693,0.747 1.04,1.827 1.04,3.24 v 5.78 c 0,0.134 -0.043,0.243 -0.13,0.33 -0.087,0.087 -0.197,0.13 -0.33,0.13 h -0.86 c -0.133,0 -0.244,-0.043 -0.33,-0.13 -0.087,-0.087 -0.13,-0.196 -0.13,-0.33 v -5.6 c 0,-1.067 -0.22,-1.83 -0.66,-2.29 -0.44,-0.46 -1.02,-0.69 -1.74,-0.69 -0.64,0 -1.19,0.237 -1.65,0.71 -0.46,0.474 -0.69,1.23 -0.69,2.271 v 5.6 c 0,0.134 -0.043,0.243 -0.13,0.33 -0.087,0.087 -0.197,0.13 -0.33,0.13 h -0.88 c -0.133,0 -0.244,-0.043 -0.33,-0.13 -0.087,-0.087 -0.13,-0.196 -0.13,-0.33 v -5.6 c 0,-1.054 -0.23,-1.813 -0.69,-2.28 -0.46,-0.467 -1.03,-0.7 -1.71,-0.7 -0.64,0 -1.19,0.233 -1.65,0.7 -0.46,0.467 -0.69,1.22 -0.69,2.26 v 5.62 c 0,0.134 -0.043,0.243 -0.13,0.33 -0.087,0.087 -0.197,0.13 -0.33,0.13 h -0.88 c -0.134,-10e-4 -0.243,-0.044 -0.33,-0.131 z"
   id="path199" />
						<path
   fill="#00b9d2"
   d="m 280.421,742.25 c -0.087,-0.087 -0.13,-0.196 -0.13,-0.33 v -9.48 c 0,-0.133 0.043,-0.243 0.13,-0.329 0.087,-0.087 0.197,-0.131 0.33,-0.131 h 0.84 c 0.133,0 0.24,0.044 0.32,0.131 0.08,0.086 0.12,0.196 0.12,0.329 v 0.681 c 0.72,-0.894 1.693,-1.34 2.92,-1.34 1.466,0 2.506,0.613 3.12,1.84 0.32,-0.561 0.777,-1.007 1.37,-1.34 0.593,-0.334 1.257,-0.5 1.99,-0.5 1.093,0 1.986,0.373 2.68,1.119 0.693,0.747 1.04,1.827 1.04,3.24 v 5.78 c 0,0.134 -0.043,0.243 -0.13,0.33 -0.087,0.087 -0.197,0.13 -0.33,0.13 h -0.86 c -0.133,0 -0.244,-0.043 -0.33,-0.13 -0.087,-0.087 -0.13,-0.196 -0.13,-0.33 v -5.6 c 0,-1.067 -0.22,-1.83 -0.66,-2.29 -0.44,-0.46 -1.02,-0.69 -1.74,-0.69 -0.64,0 -1.19,0.237 -1.65,0.71 -0.46,0.474 -0.69,1.23 -0.69,2.271 v 5.6 c 0,0.134 -0.043,0.243 -0.13,0.33 -0.087,0.087 -0.197,0.13 -0.33,0.13 h -0.88 c -0.133,0 -0.244,-0.043 -0.33,-0.13 -0.087,-0.087 -0.13,-0.196 -0.13,-0.33 v -5.6 c 0,-1.054 -0.23,-1.813 -0.69,-2.28 -0.46,-0.467 -1.03,-0.7 -1.71,-0.7 -0.64,0 -1.19,0.233 -1.65,0.7 -0.46,0.467 -0.69,1.22 -0.69,2.26 v 5.62 c 0,0.134 -0.043,0.243 -0.13,0.33 -0.087,0.087 -0.197,0.13 -0.33,0.13 h -0.88 c -0.133,-10e-4 -0.243,-0.044 -0.33,-0.131 z"
   id="path201" />
					</g>
				</g>
			</g>
		</g>
		<g
   id="g248">
			<g
   id="POLYLINE_18_">
				
					<polyline
   fill="none"
   stroke="#00b9d2"
   stroke-width="2"
   stroke-linecap="round"
   stroke-linejoin="round"
   stroke-miterlimit="10"
   points="      936.784,95.3 930.421,88.937 924.057,95.3     "
   id="polyline210" />
			</g>
			<g
   id="POLYLINE_14_">
				
					<line
   fill="none"
   stroke="#00b9d2"
   stroke-width="2"
   stroke-linecap="round"
   stroke-linejoin="round"
   stroke-miterlimit="10"
   x1="930.42102"
   y1="89.120003"
   x2="930.42102"
   y2="703.88397"
   id="line213" />
			</g>
			<g
   id="POLYLINE_13_">
				
					<polyline
   fill="none"
   stroke="#00b9d2"
   stroke-width="2"
   stroke-linecap="round"
   stroke-linejoin="round"
   stroke-miterlimit="10"
   points="      936.772,697.507 930.409,703.871 924.046,697.507     "
   id="polyline216" />
			</g>
			<g
   id="MTEXT_7_">
				<g
   id="g245">
					<g
   id="g243">
						<path
   fill="#00b9d2"
   d="m 799.625,69.93 c -0.78,-0.433 -1.374,-1.017 -1.78,-1.75 -0.406,-0.733 -0.61,-1.533 -0.61,-2.399 0,-1.146 0.46,-2.373 1.38,-3.681 l 3.82,-5.319 c 0.013,-0.014 0.05,-0.061 0.11,-0.141 0.06,-0.08 0.137,-0.143 0.23,-0.189 0.093,-0.046 0.2,-0.07 0.32,-0.07 h 0.98 c 0.12,0 0.217,0.043 0.29,0.13 0.073,0.087 0.11,0.19 0.11,0.311 0,0.066 -0.034,0.153 -0.1,0.26 l -2.92,4.08 c 0.346,-0.08 0.733,-0.12 1.16,-0.12 0.973,0 1.83,0.217 2.57,0.649 0.74,0.434 1.313,1.007 1.72,1.721 0.407,0.713 0.61,1.497 0.61,2.35 0,0.854 -0.203,1.65 -0.61,2.39 -0.407,0.74 -0.997,1.33 -1.77,1.771 -0.773,0.441 -1.687,0.66 -2.74,0.66 -1.066,-0.002 -1.99,-0.219 -2.77,-0.653 z m 4.371,-1.37 c 0.493,-0.239 0.886,-0.597 1.18,-1.069 0.293,-0.474 0.44,-1.044 0.44,-1.71 0,-0.653 -0.15,-1.217 -0.45,-1.69 -0.3,-0.473 -0.697,-0.833 -1.19,-1.08 -0.494,-0.246 -1.027,-0.37 -1.6,-0.37 -0.574,0 -1.107,0.124 -1.6,0.37 -0.494,0.247 -0.887,0.607 -1.18,1.08 -0.293,0.474 -0.44,1.037 -0.44,1.69 0,0.666 0.146,1.236 0.44,1.71 0.293,0.473 0.687,0.83 1.18,1.069 0.493,0.24 1.026,0.36 1.6,0.36 0.586,0 1.126,-0.12 1.62,-0.36 z"
   id="path219" />
						<path
   fill="#00b9d2"
   d="m 809.746,70.25 c -0.087,-0.087 -0.13,-0.196 -0.13,-0.33 v -1.38 c 0,-0.133 0.043,-0.247 0.13,-0.34 0.086,-0.094 0.196,-0.141 0.33,-0.141 h 1.38 c 0.133,0 0.243,0.047 0.33,0.141 0.087,0.093 0.13,0.207 0.13,0.34 v 1.38 c 0,0.134 -0.043,0.243 -0.13,0.33 -0.086,0.087 -0.197,0.13 -0.33,0.13 h -1.38 c -0.134,0 -0.244,-0.043 -0.33,-0.13 z"
   id="path221" />
						<path
   fill="#00b9d2"
   d="m 820.646,70.25 c -0.087,-0.087 -0.13,-0.196 -0.13,-0.33 V 67 h -6.5 c -0.133,0 -0.244,-0.043 -0.33,-0.13 -0.087,-0.087 -0.13,-0.197 -0.13,-0.33 V 65.8 c 0,-0.187 0.073,-0.387 0.22,-0.6 l 6.02,-8.48 c 0.067,-0.106 0.167,-0.189 0.3,-0.25 0.133,-0.06 0.28,-0.09 0.44,-0.09 h 1.36 c 0.146,0 0.26,0.04 0.34,0.12 0.08,0.08 0.12,0.193 0.12,0.34 v 8.48 h 1.82 c 0.133,0 0.243,0.043 0.33,0.13 0.087,0.087 0.13,0.196 0.13,0.33 v 0.76 c 0,0.133 -0.043,0.243 -0.13,0.33 -0.087,0.087 -0.197,0.13 -0.33,0.13 h -1.82 v 2.92 c 0,0.134 -0.043,0.243 -0.13,0.33 -0.087,0.087 -0.197,0.13 -0.33,0.13 h -0.92 c -0.134,0 -0.244,-0.043 -0.33,-0.13 z m -5.01,-4.889 h 4.9 V 58.4 Z"
   id="path223" />
						<path
   fill="#00b9d2"
   d="m 826.505,59.861 c -0.06,-0.08 -0.077,-0.181 -0.05,-0.301 l 0.44,-2.8 c 0.053,-0.387 0.24,-0.58 0.56,-0.58 h 1.28 c 0.093,0 0.17,0.033 0.23,0.101 0.06,0.066 0.09,0.146 0.09,0.239 0,0.134 -0.02,0.24 -0.06,0.32 l -1.04,2.7 c -0.067,0.146 -0.14,0.257 -0.22,0.33 -0.08,0.073 -0.2,0.109 -0.36,0.109 h -0.62 c -0.107,10e-4 -0.19,-0.039 -0.25,-0.118 z m 3.141,0 c -0.06,-0.08 -0.077,-0.181 -0.05,-0.301 l 0.44,-2.8 c 0.053,-0.387 0.24,-0.58 0.56,-0.58 h 1.28 c 0.093,0 0.17,0.033 0.23,0.101 0.06,0.066 0.09,0.146 0.09,0.239 0,0.134 -0.02,0.24 -0.06,0.32 l -1.04,2.7 c -0.067,0.146 -0.14,0.257 -0.22,0.33 -0.08,0.073 -0.2,0.109 -0.36,0.109 h -0.62 c -0.107,10e-4 -0.19,-0.039 -0.25,-0.118 z"
   id="path225" />
						<path
   fill="#00b9d2"
   d="m 839.515,74.411 c -0.08,-0.087 -0.12,-0.197 -0.12,-0.33 V 52.92 c 0,-0.133 0.04,-0.243 0.12,-0.33 0.08,-0.087 0.187,-0.13 0.32,-0.13 h 0.74 c 0.133,0 0.243,0.043 0.33,0.13 0.087,0.087 0.13,0.197 0.13,0.33 v 21.16 c 0,0.133 -0.043,0.243 -0.13,0.33 -0.086,0.086 -0.197,0.13 -0.33,0.13 h -0.74 c -0.133,10e-4 -0.24,-0.043 -0.32,-0.129 z"
   id="path227" />
						<path
   fill="#00b9d2"
   d="m 852.634,70.25 c -0.08,-0.087 -0.12,-0.196 -0.12,-0.33 V 58.64 l -3.36,2.58 c -0.094,0.08 -0.194,0.12 -0.3,0.12 -0.12,0 -0.233,-0.066 -0.34,-0.2 l -0.48,-0.62 c -0.067,-0.093 -0.1,-0.187 -0.1,-0.279 0,-0.146 0.066,-0.267 0.2,-0.36 l 4.34,-3.36 c 0.146,-0.093 0.32,-0.14 0.52,-0.14 h 0.94 c 0.133,0 0.243,0.043 0.33,0.13 0.086,0.087 0.13,0.197 0.13,0.33 v 13.08 c 0,0.134 -0.043,0.243 -0.13,0.33 -0.087,0.087 -0.197,0.13 -0.33,0.13 h -0.98 c -0.133,-0.001 -0.24,-0.044 -0.32,-0.131 z"
   id="path229" />
						<path
   fill="#00b9d2"
   d="m 859.304,69.93 c -0.78,-0.433 -1.374,-1.017 -1.78,-1.75 -0.406,-0.733 -0.61,-1.533 -0.61,-2.399 0,-1.146 0.46,-2.373 1.38,-3.681 l 3.82,-5.319 c 0.013,-0.014 0.05,-0.061 0.11,-0.141 0.06,-0.08 0.137,-0.143 0.23,-0.189 0.093,-0.046 0.2,-0.07 0.32,-0.07 h 0.98 c 0.12,0 0.217,0.043 0.29,0.13 0.073,0.087 0.11,0.19 0.11,0.311 0,0.066 -0.034,0.153 -0.1,0.26 l -2.92,4.08 c 0.346,-0.08 0.733,-0.12 1.16,-0.12 0.973,0 1.83,0.217 2.57,0.649 0.74,0.434 1.313,1.007 1.72,1.721 0.407,0.713 0.61,1.497 0.61,2.35 0,0.854 -0.203,1.65 -0.61,2.39 -0.407,0.74 -0.997,1.33 -1.77,1.771 -0.773,0.441 -1.687,0.66 -2.74,0.66 -1.067,-0.002 -1.99,-0.219 -2.77,-0.653 z m 4.37,-1.37 c 0.493,-0.239 0.886,-0.597 1.18,-1.069 0.293,-0.474 0.44,-1.044 0.44,-1.71 0,-0.653 -0.15,-1.217 -0.45,-1.69 -0.3,-0.473 -0.697,-0.833 -1.19,-1.08 -0.494,-0.246 -1.027,-0.37 -1.6,-0.37 -0.574,0 -1.107,0.124 -1.6,0.37 -0.494,0.247 -0.887,0.607 -1.18,1.08 -0.293,0.474 -0.44,1.037 -0.44,1.69 0,0.666 0.146,1.236 0.44,1.71 0.293,0.473 0.687,0.83 1.18,1.069 0.493,0.24 1.026,0.36 1.6,0.36 0.587,0 1.127,-0.12 1.62,-0.36 z"
   id="path231" />
						<path
   fill="#00b9d2"
   d="m 869.044,70.25 c -0.087,-0.087 -0.13,-0.196 -0.13,-0.33 v -0.6 c 0,-0.307 0.167,-0.601 0.5,-0.881 l 4.36,-4.34 c 0.987,-0.84 1.667,-1.526 2.04,-2.06 0.373,-0.533 0.56,-1.101 0.56,-1.7 0,-0.786 -0.22,-1.403 -0.66,-1.85 -0.44,-0.447 -1.08,-0.67 -1.92,-0.67 -0.8,0 -1.433,0.233 -1.9,0.699 -0.467,0.467 -0.753,1.094 -0.86,1.88 -0.027,0.147 -0.094,0.261 -0.2,0.341 -0.107,0.08 -0.213,0.12 -0.32,0.12 h -0.96 c -0.12,0 -0.22,-0.04 -0.3,-0.12 -0.08,-0.08 -0.12,-0.174 -0.12,-0.28 0.026,-0.707 0.216,-1.39 0.57,-2.05 0.353,-0.66 0.876,-1.2 1.57,-1.62 0.694,-0.42 1.533,-0.63 2.52,-0.63 1.493,0 2.617,0.39 3.37,1.17 0.753,0.78 1.13,1.77 1.13,2.97 0,0.84 -0.203,1.597 -0.61,2.271 -0.407,0.673 -1.043,1.383 -1.91,2.13 l -3.94,4 h 6.3 c 0.146,0 0.26,0.04 0.34,0.12 0.08,0.079 0.12,0.193 0.12,0.34 v 0.76 c 0,0.134 -0.043,0.243 -0.13,0.33 -0.086,0.087 -0.197,0.13 -0.33,0.13 h -8.76 c -0.133,0 -0.243,-0.043 -0.33,-0.13 z"
   id="path233" />
						<path
   fill="#00b9d2"
   d="m 881.104,70.25 c -0.087,-0.087 -0.13,-0.196 -0.13,-0.33 v -1.38 c 0,-0.133 0.043,-0.247 0.13,-0.34 0.086,-0.094 0.196,-0.141 0.33,-0.141 h 1.38 c 0.133,0 0.243,0.047 0.33,0.141 0.087,0.093 0.13,0.207 0.13,0.34 v 1.38 c 0,0.134 -0.043,0.243 -0.13,0.33 -0.086,0.087 -0.197,0.13 -0.33,0.13 h -1.38 c -0.134,0 -0.244,-0.043 -0.33,-0.13 z"
   id="path235" />
						<path
   fill="#00b9d2"
   d="m 887.744,69.93 c -0.78,-0.433 -1.374,-1.017 -1.78,-1.75 -0.406,-0.733 -0.61,-1.533 -0.61,-2.399 0,-1.146 0.46,-2.373 1.38,-3.681 l 3.82,-5.319 c 0.013,-0.014 0.05,-0.061 0.11,-0.141 0.06,-0.08 0.137,-0.143 0.23,-0.189 0.093,-0.046 0.2,-0.07 0.32,-0.07 h 0.98 c 0.12,0 0.217,0.043 0.29,0.13 0.073,0.087 0.11,0.19 0.11,0.311 0,0.066 -0.034,0.153 -0.1,0.26 l -2.92,4.08 c 0.346,-0.08 0.733,-0.12 1.16,-0.12 0.973,0 1.83,0.217 2.57,0.649 0.74,0.434 1.313,1.007 1.72,1.721 0.407,0.713 0.61,1.497 0.61,2.35 0,0.854 -0.203,1.65 -0.61,2.39 -0.407,0.74 -0.997,1.33 -1.77,1.771 -0.773,0.441 -1.687,0.66 -2.74,0.66 -1.067,-0.002 -1.99,-0.219 -2.77,-0.653 z m 4.37,-1.37 c 0.493,-0.239 0.886,-0.597 1.18,-1.069 0.293,-0.474 0.44,-1.044 0.44,-1.71 0,-0.653 -0.15,-1.217 -0.45,-1.69 -0.3,-0.473 -0.697,-0.833 -1.19,-1.08 -0.494,-0.246 -1.027,-0.37 -1.6,-0.37 -0.574,0 -1.107,0.124 -1.6,0.37 -0.494,0.247 -0.887,0.607 -1.18,1.08 -0.293,0.474 -0.44,1.037 -0.44,1.69 0,0.666 0.146,1.236 0.44,1.71 0.293,0.473 0.687,0.83 1.18,1.069 0.493,0.24 1.026,0.36 1.6,0.36 0.587,0 1.127,-0.12 1.62,-0.36 z"
   id="path237" />
						<path
   fill="#00b9d2"
   d="m 902.923,70.25 c -0.087,-0.087 -0.13,-0.196 -0.13,-0.33 v -9.48 c 0,-0.133 0.043,-0.243 0.13,-0.329 0.087,-0.087 0.197,-0.131 0.33,-0.131 h 0.84 c 0.133,0 0.24,0.044 0.32,0.131 0.08,0.086 0.12,0.196 0.12,0.329 v 0.681 c 0.72,-0.894 1.693,-1.34 2.92,-1.34 1.466,0 2.506,0.613 3.12,1.84 0.32,-0.561 0.777,-1.007 1.37,-1.34 0.593,-0.334 1.257,-0.5 1.99,-0.5 1.093,0 1.986,0.373 2.68,1.119 0.693,0.747 1.04,1.827 1.04,3.24 v 5.78 c 0,0.134 -0.043,0.243 -0.13,0.33 -0.087,0.087 -0.197,0.13 -0.33,0.13 h -0.86 c -0.133,0 -0.244,-0.043 -0.33,-0.13 -0.087,-0.087 -0.13,-0.196 -0.13,-0.33 v -5.6 c 0,-1.067 -0.22,-1.83 -0.66,-2.29 -0.44,-0.46 -1.02,-0.69 -1.74,-0.69 -0.64,0 -1.19,0.237 -1.65,0.71 -0.46,0.474 -0.69,1.23 -0.69,2.271 v 5.6 c 0,0.134 -0.043,0.243 -0.13,0.33 -0.087,0.087 -0.197,0.13 -0.33,0.13 h -0.88 c -0.133,0 -0.244,-0.043 -0.33,-0.13 -0.087,-0.087 -0.13,-0.196 -0.13,-0.33 v -5.6 c 0,-1.054 -0.23,-1.813 -0.69,-2.28 -0.46,-0.467 -1.03,-0.7 -1.71,-0.7 -0.64,0 -1.19,0.233 -1.65,0.7 -0.46,0.467 -0.69,1.22 -0.69,2.26 v 5.62 c 0,0.134 -0.043,0.243 -0.13,0.33 -0.087,0.087 -0.197,0.13 -0.33,0.13 h -0.88 c -0.133,-0.001 -0.243,-0.044 -0.33,-0.131 z"
   id="path239" />
						<path
   fill="#00b9d2"
   d="m 920.683,70.25 c -0.087,-0.087 -0.13,-0.196 -0.13,-0.33 v -9.48 c 0,-0.133 0.043,-0.243 0.13,-0.329 0.087,-0.087 0.197,-0.131 0.33,-0.131 h 0.84 c 0.133,0 0.24,0.044 0.32,0.131 0.08,0.086 0.12,0.196 0.12,0.329 v 0.681 c 0.72,-0.894 1.693,-1.34 2.92,-1.34 1.466,0 2.506,0.613 3.12,1.84 0.32,-0.561 0.777,-1.007 1.37,-1.34 0.593,-0.334 1.257,-0.5 1.99,-0.5 1.093,0 1.986,0.373 2.68,1.119 0.693,0.747 1.04,1.827 1.04,3.24 v 5.78 c 0,0.134 -0.043,0.243 -0.13,0.33 -0.087,0.087 -0.197,0.13 -0.33,0.13 h -0.86 c -0.133,0 -0.244,-0.043 -0.33,-0.13 -0.087,-0.087 -0.13,-0.196 -0.13,-0.33 v -5.6 c 0,-1.067 -0.22,-1.83 -0.66,-2.29 -0.44,-0.46 -1.02,-0.69 -1.74,-0.69 -0.64,0 -1.19,0.237 -1.65,0.71 -0.46,0.474 -0.69,1.23 -0.69,2.271 v 5.6 c 0,0.134 -0.043,0.243 -0.13,0.33 -0.087,0.087 -0.197,0.13 -0.33,0.13 h -0.88 c -0.133,0 -0.244,-0.043 -0.33,-0.13 -0.087,-0.087 -0.13,-0.196 -0.13,-0.33 v -5.6 c 0,-1.054 -0.23,-1.813 -0.69,-2.28 -0.46,-0.467 -1.03,-0.7 -1.71,-0.7 -0.64,0 -1.19,0.233 -1.65,0.7 -0.46,0.467 -0.69,1.22 -0.69,2.26 v 5.62 c 0,0.134 -0.043,0.243 -0.13,0.33 -0.087,0.087 -0.197,0.13 -0.33,0.13 h -0.88 c -0.133,-0.001 -0.243,-0.044 -0.33,-0.131 z"
   id="path241" />
					</g>
				</g>
			</g>
		</g>
	</g>
</g>

<path
   fill="none"
   stroke="#00b9d2"
   stroke-width="2"
   stroke-linecap="round"
   stroke-linejoin="round"
   stroke-miterlimit="10"
   d="m 241.287,29.048 c -1.348,-0.015 -2.555,0.969 -2.854,2.221 -0.479,1.87 0.971,3.664 2.828,3.667 1.93,0.022 3.33,-1.812 2.892,-3.617 -0.299,-1.335 -1.557,-2.288 -2.866,-2.271 z"
   id="path275"
   style="stroke:#000000;stroke-opacity:1" /><path
   fill="none"
   stroke="#00b9d2"
   stroke-width="2"
   stroke-linecap="round"
   stroke-linejoin="round"
   stroke-miterlimit="10"
   d="m 253.044,31.992 c -0.01,-2.748 1.894,-5.193 4.56,-5.858 3.796,-0.957 7.489,1.891 7.527,5.806 0.03,3.959 -3.688,6.878 -7.527,5.911 -2.666,-0.666 -4.57,-3.111 -4.56,-5.859 z"
   id="path278"
   style="stroke:#000000;stroke-opacity:1" /><path
   fill="none"
   stroke="#00b9d2"
   stroke-width="2"
   stroke-linecap="round"
   stroke-linejoin="round"
   stroke-miterlimit="10"
   d="m 223.284,31.992 c 0.01,-2.748 -1.894,-5.193 -4.56,-5.858 -3.796,-0.957 -7.489,1.891 -7.527,5.806 -0.03,3.959 3.688,6.878 7.527,5.911 2.667,-0.666 4.57,-3.111 4.56,-5.859 z"
   id="path281"
   style="stroke:#000000;stroke-opacity:1" />
<rect
   x="1.6249974"
   y="232.03499"
   fill="none"
   stroke="#00b9d2"
   stroke-width="2.75"
   stroke-linecap="round"
   stroke-linejoin="round"
   stroke-miterlimit="10"
   width="2.8440001"
   height="37.411999"
   id="rect333"
   style="stroke:#000000;stroke-opacity:1" /><rect
   x="1.6249974"
   y="122.251"
   fill="none"
   stroke="#00b9d2"
   stroke-width="2.75"
   stroke-linecap="round"
   stroke-linejoin="round"
   stroke-miterlimit="10"
   width="2.8440001"
   height="75.758003"
   id="rect336"
   style="stroke:#000000;stroke-opacity:1" /><rect
   x="296.84702"
   y="178.12898"
   fill="none"
   stroke="#00b9d2"
   stroke-width="2.75"
   stroke-linecap="round"
   stroke-linejoin="round"
   stroke-miterlimit="10"
   width="2.8440001"
   height="38.112"
   id="rect339"
   style="stroke:#000000;stroke-opacity:1" /><polygon
   fill="none"
   stroke="#00b9d2"
   stroke-width="2.75"
   stroke-linecap="round"
   stroke-linejoin="round"
   stroke-miterlimit="10"
   points="352.979,111.687 353.152,111.706 353.324,111.729 353.496,111.754 353.667,111.782 353.837,111.814 354.008,111.848 354.177,111.885 354.346,111.925 354.514,111.968 354.682,112.014 354.848,112.063 355.014,112.115 355.179,112.169 355.343,112.226 355.505,112.287 355.667,112.349 355.828,112.415 355.987,112.484 356.146,112.555 356.303,112.629 356.458,112.706 356.613,112.785 356.766,112.867 356.917,112.951 357.068,113.039 357.216,113.129 357.363,113.221 357.508,113.316 357.652,113.413 357.794,113.513 357.934,113.615 358.073,113.72 358.209,113.827 358.344,113.936 358.477,114.048 358.608,114.162 358.737,114.278 358.864,114.397 358.989,114.517 359.111,114.64 359.232,114.765 359.35,114.892 359.467,115.021 359.581,115.152 359.692,115.285 359.802,115.419 359.909,115.556 360.013,115.694 360.116,115.835 360.216,115.977 360.313,116.12 360.408,116.266 360.5,116.413 360.59,116.561 360.677,116.711 360.762,116.863 360.844,117.016 360.923,117.17 361,117.326 361.074,117.483 361.145,117.641 361.214,117.801 361.279,117.961 361.342,118.123 361.402,118.286 361.46,118.45 361.514,118.615 361.566,118.78 361.615,118.947 361.66,119.114 361.703,119.283 361.744,119.451 361.781,119.621 361.815,119.791 361.846,119.962 361.875,120.133 361.9,120.305 361.922,120.477 361.942,120.65 361.958,120.822 361.972,120.995 361.982,121.169 361.99,121.342 361.994,121.516 361.996,121.689 361.994,121.863 361.99,122.036 361.982,122.21 361.972,122.383 361.958,122.556 361.942,122.729 361.922,122.901 361.9,123.073 361.875,123.245 361.846,123.416 361.815,123.587 361.781,123.757 361.744,123.927 361.703,124.096 361.66,124.264 361.615,124.431 361.566,124.598 361.514,124.764 361.46,124.929 361.402,125.092 361.342,125.255 361.279,125.417 361.214,125.578 361.145,125.737 361.074,125.895 361,126.052 360.923,126.208 360.844,126.363 360.762,126.516 360.677,126.667 360.59,126.817 360.5,126.966 360.408,127.113 360.313,127.258 360.216,127.402 360.116,127.544 360.013,127.684 359.909,127.822 359.802,127.959 359.692,128.094 359.581,128.227 359.467,128.358 359.35,128.487 359.232,128.614 359.111,128.738 358.989,128.861 358.864,128.982 358.737,129.1 358.608,129.216 358.477,129.33 358.344,129.442 358.209,129.551 358.073,129.658 357.934,129.763 357.794,129.865 357.652,129.965 357.508,130.063 357.363,130.158 357.216,130.25 357.068,130.34 356.917,130.427 356.766,130.512 356.613,130.594 356.458,130.673 356.303,130.75 356.146,130.823 355.987,130.895 355.828,130.963 355.667,131.029 355.505,131.092 355.343,131.152 355.179,131.209 355.014,131.264 354.848,131.316 354.682,131.364 354.514,131.41 354.346,131.453 354.177,131.493 354.008,131.53 353.837,131.565 353.667,131.596 353.496,131.624 353.324,131.65 353.152,131.672 352.979,131.691 352.806,131.708 352.633,131.721 352.46,131.732 352.287,131.739 352.113,131.744 351.94,131.745 310.093,131.745 309.92,131.744 309.746,131.739 309.573,131.732 309.399,131.721 309.226,131.708 309.054,131.691 308.881,131.672 308.709,131.65 308.537,131.624 308.366,131.596 308.195,131.565 308.025,131.53 307.855,131.493 307.687,131.453 307.518,131.41 307.351,131.364 307.184,131.316 307.019,131.264 306.854,131.209 306.69,131.152 306.527,131.092 306.365,131.029 306.205,130.963 306.045,130.895 305.887,130.823 305.73,130.75 305.574,130.673 305.42,130.594 305.267,130.512 305.115,130.427 304.965,130.34 304.817,130.25 304.67,130.158 304.524,130.063 304.381,129.965 304.239,129.865 304.098,129.763 303.96,129.658 303.823,129.551 303.688,129.442 303.556,129.33 303.425,129.216 303.296,129.1 303.169,128.982 303.044,128.861 302.921,128.738 302.801,128.614 302.682,128.487 302.566,128.358 302.452,128.227 302.34,128.094 302.231,127.959 302.124,127.822 302.019,127.684 301.917,127.544 301.817,127.402 301.72,127.258 301.625,127.113 301.533,126.966 301.443,126.817 301.355,126.667 301.271,126.516 301.189,126.363 301.11,126.208 301.033,126.052 300.959,125.895 300.888,125.737 300.819,125.578 300.753,125.417 300.69,125.255 300.63,125.092 300.573,124.929 300.519,124.764 300.467,124.598 300.418,124.431 300.372,124.264 300.329,124.096 300.289,123.927 300.252,123.757 300.218,123.587 300.186,123.416 300.158,123.245 300.133,123.073 300.11,122.901 300.091,122.729 300.074,122.556 300.061,122.383 300.05,122.21 300.043,122.036 300.038,121.863 300.037,121.689 300.038,121.516 300.043,121.342 300.05,121.169 300.061,120.995 300.074,120.822 300.091,120.65 300.11,120.477 300.133,120.305 300.158,120.133 300.186,119.962 300.218,119.791 300.252,119.621 300.289,119.451 300.329,119.283 300.372,119.114 300.418,118.947 300.467,118.78 300.519,118.615 300.573,118.45 300.63,118.286 300.69,118.123 300.753,117.961 300.819,117.801 300.888,117.641 300.959,117.483 301.033,117.326 301.11,117.17 301.189,117.016 301.271,116.863 301.355,116.711 301.443,116.561 301.533,116.413 301.625,116.266 301.72,116.12 301.817,115.977 301.917,115.835 302.019,115.694 302.124,115.556 302.231,115.419 302.34,115.285 302.452,115.152 302.566,115.021 302.682,114.892 302.801,114.765 302.921,114.64 303.044,114.517 303.169,114.397 303.296,114.278 303.425,114.162 303.556,114.048 303.688,113.936 303.823,113.827 303.96,113.72 304.098,113.615 304.239,113.513 304.381,113.413 304.524,113.316 304.67,113.221 304.817,113.129 304.965,113.039 305.115,112.951 305.267,112.867 305.42,112.785 305.574,112.706 305.73,112.629 305.887,112.555 306.045,112.484 306.205,112.415 306.365,112.349 306.527,112.287 306.69,112.226 306.854,112.169 307.019,112.115 307.184,112.063 307.351,112.014 307.518,111.968 307.687,111.925 307.855,111.885 308.025,111.848 308.195,111.814 308.366,111.782 308.537,111.754 308.709,111.729 308.881,111.706 309.054,111.687 309.226,111.67 309.399,111.657 309.573,111.646 309.746,111.639 309.92,111.635 310.093,111.633 351.94,111.633 352.113,111.635 352.287,111.639 352.46,111.646 352.633,111.657 352.806,111.67 "
   id="polygon342"
   transform="translate(-92.852,-89.697)"
   style="stroke:#000000;stroke-opacity:1" /><polyline
   fill="none"
   stroke="#00b9d2"
   stroke-width="2.75"
   stroke-linecap="round"
   stroke-linejoin="round"
   stroke-miterlimit="10"
   points="    267.714,98.008 362.726,98.008 363.192,98.012 363.657,98.024 364.123,98.044 364.587,98.072 365.052,98.108 365.515,98.152     365.978,98.205 366.439,98.265 366.9,98.333 367.359,98.409 367.817,98.493 368.274,98.585 368.728,98.684 369.181,98.792     369.633,98.907 370.082,99.03 370.528,99.161 370.973,99.299 371.415,99.446 371.854,99.599 372.291,99.761 372.725,99.93     373.156,100.106 373.584,100.29 374.008,100.481 374.43,100.679 374.847,100.885 375.261,101.098 375.672,101.317     376.078,101.544 376.481,101.778 376.879,102.019 377.273,102.267 377.663,102.521 378.049,102.783 378.43,103.05     378.806,103.325 379.177,103.605 379.544,103.893 379.905,104.186 380.262,104.486 380.613,104.791 380.959,105.103     381.299,105.421 381.634,105.744 381.963,106.073 382.287,106.408 382.604,106.749 382.916,107.094 383.222,107.446     383.521,107.802 383.815,108.163 384.102,108.53 384.383,108.901 384.657,109.278 384.925,109.658 385.186,110.044     385.44,110.434 385.688,110.828 385.929,111.226 386.163,111.629 386.39,112.036 386.61,112.446 386.823,112.86 387.028,113.278     387.227,113.699 387.418,114.123 387.601,114.551 387.778,114.982 387.946,115.416 388.108,115.853 388.262,116.292     388.408,116.734 388.546,117.179 388.677,117.626 388.8,118.075 388.915,118.526 389.023,118.979 389.123,119.434 389.215,119.89     389.298,120.348 389.374,120.807 389.443,121.268 389.503,121.73 389.555,122.192 389.599,122.656 389.635,123.12     389.663,123.585 389.683,124.05 389.695,124.515 389.699,124.981   "
   id="polyline345"
   transform="translate(-92.852,-89.697)"
   style="stroke:#000000;stroke-opacity:1" /><polyline
   fill="none"
   stroke="#00b9d2"
   stroke-width="2.75"
   stroke-linecap="round"
   stroke-linejoin="round"
   stroke-miterlimit="10"
   points="    97.322,124.981 97.326,124.515 97.338,124.05 97.358,123.585 97.386,123.12 97.422,122.656 97.466,122.192 97.518,121.73     97.578,121.268 97.646,120.807 97.722,120.348 97.806,119.89 97.898,119.434 97.998,118.979 98.105,118.526 98.221,118.075     98.344,117.626 98.475,117.179 98.613,116.734 98.759,116.292 98.913,115.853 99.074,115.416 99.243,114.982 99.42,114.551     99.603,114.123 99.794,113.699 99.993,113.278 100.198,112.86 100.411,112.446 100.631,112.036 100.858,111.629 101.092,111.226     101.333,110.828 101.581,110.434 101.835,110.044 102.096,109.658 102.364,109.278 102.638,108.901 102.919,108.53     103.206,108.163 103.5,107.802 103.799,107.446 104.105,107.094 104.417,106.749 104.734,106.408 105.058,106.073     105.387,105.744 105.722,105.421 106.062,105.103 106.408,104.791 106.759,104.486 107.116,104.186 107.477,103.893     107.844,103.605 108.215,103.325 108.591,103.05 108.972,102.783 109.358,102.521 109.747,102.267 110.142,102.019     110.54,101.778 110.943,101.544 111.349,101.317 111.759,101.098 112.174,100.885 112.591,100.679 113.013,100.481     113.437,100.29 113.865,100.106 114.296,99.93 114.73,99.761 115.166,99.599 115.606,99.446 116.048,99.299 116.492,99.161     116.939,99.03 117.388,98.907 117.839,98.792 118.292,98.684 118.747,98.585 119.204,98.493 119.662,98.409 120.121,98.333     120.581,98.265 121.043,98.205 121.506,98.152 121.969,98.108 122.433,98.072 122.898,98.044 123.363,98.024 123.829,98.012     124.294,98.008 219.306,98.008   "
   id="polyline348"
   transform="translate(-92.852,-89.697)"
   style="stroke:#000000;stroke-opacity:1" /><polyline
   fill="none"
   stroke="#00b9d2"
   stroke-width="2.75"
   stroke-linecap="round"
   stroke-linejoin="round"
   stroke-miterlimit="10"
   points="    267.714,98.008 265.835,99.701 265.776,99.754 265.716,99.805 265.656,99.856 265.594,99.906 265.532,99.955 265.47,100.004     265.406,100.051 265.342,100.098 265.277,100.144 265.211,100.189 265.145,100.233 265.077,100.276 265.01,100.319     264.941,100.361 264.871,100.402 264.801,100.442 264.73,100.481 264.659,100.519 264.586,100.557 264.513,100.594 264.44,100.63     264.365,100.665 264.29,100.699 264.214,100.733 264.137,100.765 264.059,100.797 263.981,100.828 263.902,100.858     263.822,100.888 263.742,100.916 263.661,100.944 263.579,100.971 263.496,100.997 263.413,101.022 263.329,101.046     263.244,101.07 263.158,101.093 263.072,101.115 262.985,101.136 262.897,101.156 262.808,101.175 262.719,101.194     262.629,101.212 262.538,101.229 262.447,101.245 262.354,101.26 262.261,101.275 262.168,101.288 262.073,101.301     261.978,101.313 261.882,101.324 261.785,101.335 261.688,101.344 261.59,101.353 261.491,101.361 261.391,101.368     261.19,101.379 260.986,101.388 260.778,101.392 260.568,101.394 226.453,101.394 226.243,101.392 226.035,101.388     225.831,101.379 225.629,101.368 225.53,101.361 225.431,101.353 225.333,101.344 225.235,101.335 225.139,101.324     225.043,101.313 224.948,101.301 224.853,101.288 224.759,101.275 224.666,101.26 224.574,101.245 224.483,101.229     224.392,101.212 224.302,101.194 224.213,101.175 224.124,101.156 224.036,101.136 223.949,101.115 223.863,101.093     223.777,101.07 223.692,101.046 223.608,101.022 223.525,100.997 223.442,100.971 223.36,100.944 223.279,100.916     223.198,100.888 223.119,100.858 223.04,100.828 222.962,100.797 222.884,100.765 222.807,100.733 222.731,100.699     222.656,100.665 222.581,100.63 222.508,100.594 222.434,100.557 222.362,100.519 222.29,100.481 222.22,100.442 222.149,100.402     222.08,100.361 222.011,100.319 221.943,100.276 221.876,100.233 221.81,100.189 221.744,100.144 221.679,100.098     221.615,100.051 221.551,100.004 221.489,99.955 221.426,99.906 221.365,99.856 221.305,99.805 221.245,99.754 221.186,99.701     219.306,98.008   "
   id="polyline351"
   transform="translate(-92.852,-89.697)"
   style="stroke:#000000;stroke-opacity:1" /><polygon
   fill="none"
   stroke="#00b9d2"
   stroke-width="2.75"
   stroke-linecap="round"
   stroke-linejoin="round"
   stroke-miterlimit="10"
   points="380.453,671.806 380.416,672.134 380.373,672.461 380.325,672.787 380.271,673.113 380.212,673.437 380.147,673.761 380.076,674.083 380,674.404 379.918,674.724 379.831,675.042 379.738,675.358 379.64,675.673 379.537,675.987 379.428,676.298 379.313,676.607 379.194,676.915 379.069,677.22 378.939,677.523 378.803,677.824 378.663,678.123 378.517,678.419 378.366,678.712 378.21,679.003 378.049,679.291 377.884,679.576 377.713,679.858 377.537,680.138 377.357,680.414 377.172,680.687 376.982,680.957 376.788,681.223 376.589,681.487 376.386,681.746 376.178,682.002 375.965,682.255 375.749,682.504 375.528,682.749 375.303,682.99 375.074,683.227 374.84,683.46 374.603,683.69 374.362,683.915 374.117,684.136 373.868,684.352 373.616,684.565 373.359,684.772 373.1,684.976 372.837,685.175 372.57,685.369 372.3,685.559 372.027,685.744 371.751,685.924 371.471,686.1 371.189,686.27 370.904,686.436 370.616,686.597 370.325,686.753 370.032,686.904 369.736,687.049 369.437,687.19 369.137,687.325 368.833,687.455 368.528,687.58 368.221,687.7 367.911,687.814 367.6,687.923 367.287,688.027 366.972,688.125 366.655,688.218 366.337,688.305 366.017,688.387 365.696,688.463 365.374,688.533 365.051,688.599 364.726,688.658 364.401,688.712 364.074,688.76 363.747,688.803 363.419,688.84 363.091,688.871 362.762,688.896 362.433,688.916 362.103,688.931 361.773,688.939 361.444,688.942 125.577,688.942 125.247,688.939 124.918,688.931 124.588,688.916 124.259,688.896 123.93,688.871 123.601,688.84 123.274,688.803 122.947,688.76 122.62,688.712 122.295,688.658 121.97,688.599 121.647,688.533 121.325,688.463 121.004,688.387 120.684,688.305 120.366,688.218 120.049,688.125 119.734,688.027 119.421,687.923 119.11,687.814 118.8,687.7 118.493,687.58 118.187,687.455 117.884,687.325 117.584,687.19 117.285,687.049 116.989,686.904 116.696,686.753 116.405,686.597 116.117,686.436 115.832,686.27 115.549,686.1 115.27,685.924 114.994,685.744 114.721,685.559 114.451,685.369 114.184,685.175 113.921,684.976 113.661,684.772 113.405,684.565 113.153,684.352 112.904,684.136 112.659,683.915 112.418,683.69 112.18,683.46 111.947,683.227 111.718,682.99 111.493,682.749 111.272,682.504 111.055,682.255 110.843,682.002 110.635,681.746 110.432,681.487 110.233,681.223 110.038,680.957 109.849,680.687 109.664,680.414 109.483,680.138 109.308,679.858 109.137,679.576 108.971,679.291 108.811,679.003 108.655,678.712 108.504,678.419 108.358,678.123 108.218,677.824 108.082,677.523 107.952,677.22 107.827,676.915 107.708,676.607 107.593,676.298 107.484,675.987 107.381,675.673 107.283,675.358 107.19,675.042 107.103,674.724 107.021,674.404 106.945,674.083 106.874,673.761 106.809,673.437 106.75,673.113 106.696,672.787 106.648,672.461 106.605,672.134 106.568,671.806 106.537,671.478 106.511,671.149 106.491,670.82 106.477,670.49 106.469,670.16 106.466,669.83 106.466,124.671 106.469,124.341 106.477,124.011 106.491,123.682 106.511,123.352 106.537,123.024 106.568,122.695 106.605,122.367 106.648,122.04 106.696,121.714 106.75,121.388 106.809,121.064 106.874,120.74 106.945,120.418 107.021,120.097 107.103,119.778 107.19,119.46 107.283,119.143 107.381,118.828 107.484,118.515 107.593,118.203 107.708,117.894 107.827,117.586 107.952,117.281 108.082,116.978 108.218,116.677 108.358,116.379 108.504,116.083 108.655,115.789 108.811,115.499 108.971,115.211 109.137,114.925 109.308,114.643 109.483,114.364 109.664,114.087 109.849,113.814 110.038,113.544 110.233,113.278 110.432,113.015 110.635,112.755 110.843,112.499 111.055,112.246 111.272,111.998 111.493,111.753 111.718,111.511 111.947,111.274 112.18,111.041 112.418,110.812 112.659,110.587 112.904,110.366 113.153,110.149 113.405,109.937 113.661,109.729 113.921,109.525 114.184,109.327 114.451,109.132 114.721,108.942 114.994,108.757 115.27,108.577 115.549,108.402 115.832,108.231 116.117,108.065 116.405,107.904 116.696,107.748 116.989,107.598 117.285,107.452 117.584,107.311 117.884,107.176 118.187,107.046 118.493,106.921 118.8,106.801 119.11,106.687 119.421,106.578 119.734,106.474 120.049,106.376 120.366,106.284 120.684,106.196 121.004,106.115 121.325,106.039 121.647,105.968 121.97,105.903 122.295,105.843 122.62,105.79 122.947,105.741 123.274,105.699 123.601,105.662 123.93,105.63 124.259,105.605 124.588,105.585 124.918,105.571 125.247,105.562 125.577,105.559 361.444,105.559 361.773,105.562 362.103,105.571 362.433,105.585 362.762,105.605 363.091,105.63 363.419,105.662 363.747,105.699 364.074,105.741 364.401,105.79 364.726,105.843 365.051,105.903 365.374,105.968 365.696,106.039 366.017,106.115 366.337,106.196 366.655,106.284 366.972,106.376 367.287,106.474 367.6,106.578 367.911,106.687 368.221,106.801 368.528,106.921 368.833,107.046 369.137,107.176 369.437,107.311 369.736,107.452 370.032,107.598 370.325,107.748 370.616,107.904 370.904,108.065 371.189,108.231 371.471,108.402 371.751,108.577 372.027,108.757 372.3,108.942 372.57,109.132 372.837,109.327 373.1,109.525 373.359,109.729 373.616,109.937 373.868,110.149 374.117,110.366 374.362,110.587 374.603,110.812 374.84,111.041 375.074,111.274 375.303,111.511 375.528,111.753 375.749,111.998 375.965,112.246 376.178,112.499 376.386,112.755 376.589,113.015 376.788,113.278 376.982,113.544 377.172,113.814 377.357,114.087 377.537,114.364 377.713,114.643 377.884,114.925 378.049,115.211 378.21,115.499 378.366,115.789 378.517,116.083 378.663,116.379 378.803,116.677 378.939,116.978 379.069,117.281 379.194,117.586 379.313,117.894 379.428,118.203 379.537,118.515 379.64,118.828 379.738,119.143 379.831,119.46 379.918,119.778 380,120.097 380.076,120.418 380.147,120.74 380.212,121.064 380.271,121.388 380.325,121.714 380.373,122.04 380.416,122.367 380.453,122.695 380.484,123.024 380.51,123.352 380.53,123.682 380.544,124.011 380.552,124.341 380.555,124.671 380.555,669.83 380.552,670.16 380.544,670.49 380.53,670.82 380.51,671.149 380.484,671.478 "
   id="polygon354"
   transform="translate(-92.852,-89.697)"
   style="stroke:#000000;stroke-opacity:1" /><polyline
   fill="none"
   stroke="#00b9d2"
   stroke-width="2.75"
   stroke-linecap="round"
   stroke-linejoin="round"
   stroke-miterlimit="10"
   points="    389.699,676.143 389.695,676.609 389.683,677.074 389.663,677.54 389.635,678.004 389.599,678.469 389.555,678.932     389.503,679.395 389.443,679.856 389.374,680.317 389.298,680.776 389.215,681.234 389.123,681.691 389.023,682.146     388.915,682.599 388.8,683.05 388.677,683.499 388.546,683.945 388.408,684.39 388.262,684.832 388.108,685.271 387.946,685.708     387.778,686.142 387.601,686.573 387.418,687.001 387.227,687.425 387.028,687.847 386.823,688.264 386.61,688.678     386.39,689.089 386.163,689.495 385.929,689.898 385.688,690.296 385.44,690.69 385.186,691.08 384.925,691.466 384.657,691.847     384.383,692.223 384.102,692.594 383.815,692.961 383.521,693.322 383.222,693.679 382.916,694.03 382.604,694.376     382.287,694.716 381.963,695.051 381.634,695.38 381.299,695.703 380.959,696.021 380.613,696.333 380.262,696.639     379.905,696.938 379.544,697.232 379.177,697.519 378.806,697.8 378.43,698.074 378.049,698.342 377.663,698.603 377.273,698.857     376.879,699.105 376.481,699.346 376.078,699.58 375.672,699.807 375.261,700.027 374.847,700.24 374.43,700.445 374.008,700.643     373.584,700.835 373.156,701.018 372.725,701.195 372.291,701.363 371.854,701.525 371.415,701.679 370.973,701.825     370.528,701.963 370.082,702.094 369.633,702.217 369.181,702.333 368.728,702.44 368.274,702.54 367.817,702.632     367.359,702.715 366.9,702.791 366.439,702.859 365.978,702.92 365.515,702.972 365.052,703.016 364.587,703.052 364.123,703.08     363.657,703.1 363.192,703.112 362.726,703.116 124.294,703.116 123.829,703.112 123.363,703.1 122.898,703.08 122.433,703.052     121.969,703.016 121.506,702.972 121.043,702.92 120.581,702.859 120.121,702.791 119.662,702.715 119.204,702.632     118.747,702.54 118.292,702.44 117.839,702.333 117.388,702.217 116.939,702.094 116.492,701.963 116.048,701.825     115.606,701.679 115.166,701.525 114.73,701.363 114.296,701.195 113.865,701.018 113.437,700.835 113.013,700.643     112.591,700.445 112.174,700.24 111.759,700.027 111.349,699.807 110.943,699.58 110.54,699.346 110.142,699.105 109.747,698.857     109.358,698.603 108.972,698.342 108.591,698.074 108.215,697.8 107.844,697.519 107.477,697.232 107.116,696.938     106.759,696.639 106.408,696.333 106.062,696.021 105.722,695.703 105.387,695.38 105.058,695.051 104.734,694.716     104.417,694.376 104.105,694.03 103.799,693.679 103.5,693.322 103.206,692.961 102.919,692.594 102.638,692.223 102.364,691.847     102.096,691.466 101.835,691.08 101.581,690.69 101.333,690.296 101.092,689.898 100.858,689.495 100.631,689.089     100.411,688.678 100.198,688.264 99.993,687.847 99.794,687.425 99.603,687.001 99.42,686.573 99.243,686.142 99.074,685.708     98.913,685.271 98.759,684.832 98.613,684.39 98.475,683.945 98.344,683.499 98.221,683.05 98.105,682.599 97.998,682.146     97.898,681.691 97.806,681.234 97.722,680.776 97.646,680.317 97.578,679.856 97.518,679.395 97.466,678.932 97.422,678.469     97.386,678.004 97.358,677.54 97.338,677.074 97.326,676.609 97.322,676.143   "
   id="polyline357"
   transform="translate(-92.852,-89.697)"
   style="stroke:#000000;stroke-opacity:1" /><polygon
   fill="none"
   stroke="#00b9d2"
   stroke-width="2.75"
   stroke-linecap="round"
   stroke-linejoin="round"
   stroke-miterlimit="10"
   points="121.506,707.787 121.043,707.735 120.581,707.675 120.121,707.607 119.662,707.531 119.204,707.447 118.747,707.355 118.292,707.255 117.839,707.148 117.388,707.032 116.939,706.909 116.492,706.778 116.048,706.64 115.606,706.494 115.166,706.34 114.73,706.179 114.296,706.01 113.865,705.833 113.437,705.65 113.013,705.459 112.591,705.26 112.174,705.055 111.759,704.842 111.349,704.622 110.943,704.395 110.54,704.161 110.142,703.92 109.747,703.672 109.358,703.418 108.972,703.157 108.591,702.889 108.215,702.615 107.844,702.334 107.477,702.047 107.116,701.753 106.759,701.454 106.408,701.148 106.062,700.836 105.722,700.519 105.387,700.195 105.058,699.866 104.734,699.531 104.417,699.191 104.105,698.845 103.799,698.494 103.5,698.137 103.206,697.776 102.919,697.409 102.638,697.038 102.364,696.662 102.096,696.281 101.835,695.895 101.581,695.506 101.333,695.111 101.092,694.713 100.858,694.31 100.631,693.904 100.411,693.493 100.198,693.079 99.993,692.662 99.794,692.24 99.603,691.816 99.42,691.388 99.243,690.957 99.074,690.523 98.913,690.086 98.759,689.647 98.613,689.205 98.475,688.76 98.344,688.314 98.221,687.865 98.105,687.414 97.998,686.961 97.898,686.506 97.806,686.049 97.722,685.591 97.646,685.132 97.578,684.671 97.518,684.21 97.466,683.747 97.422,683.284 97.386,682.819 97.358,682.355 97.338,681.89 97.326,681.424 97.322,680.959 97.322,118.294 97.326,117.829 97.338,117.363 97.358,116.898 97.386,116.433 97.422,115.969 97.466,115.506 97.518,115.043 97.578,114.581 97.646,114.121 97.722,113.662 97.806,113.204 97.898,112.747 97.998,112.292 98.105,111.839 98.221,111.388 98.344,110.939 98.475,110.492 98.613,110.048 98.759,109.606 98.913,109.166 99.074,108.73 99.243,108.296 99.42,107.865 99.603,107.437 99.794,107.013 99.993,106.591 100.198,106.174 100.411,105.759 100.631,105.349 100.858,104.943 101.092,104.54 101.333,104.142 101.581,103.747 101.835,103.358 102.096,102.972 102.364,102.591 102.638,102.215 102.919,101.844 103.206,101.477 103.5,101.116 103.799,100.759 104.105,100.408 104.417,100.062 104.734,99.722 105.058,99.387 105.387,99.058 105.722,98.734 106.062,98.417 106.408,98.105 106.759,97.799 107.116,97.5 107.477,97.206 107.844,96.919 108.215,96.638 108.591,96.364 108.972,96.096 109.358,95.835 109.747,95.581 110.142,95.333 110.54,95.092 110.943,94.858 111.349,94.631 111.759,94.411 112.174,94.198 112.591,93.993 113.013,93.794 113.437,93.603 113.865,93.42 114.296,93.243 114.73,93.074 115.166,92.913 115.606,92.759 116.048,92.613 116.492,92.475 116.939,92.344 117.388,92.221 117.839,92.105 118.292,91.998 118.747,91.898 119.204,91.806 119.662,91.722 120.121,91.646 120.581,91.578 121.043,91.518 121.506,91.466 121.969,91.422 122.433,91.386 122.898,91.358 123.363,91.338 123.829,91.326 124.294,91.322 362.726,91.322 363.192,91.326 363.657,91.338 364.123,91.358 364.587,91.386 365.052,91.422 365.515,91.466 365.978,91.518 366.439,91.578 366.9,91.646 367.359,91.722 367.817,91.806 368.274,91.898 368.728,91.998 369.181,92.105 369.633,92.221 370.082,92.344 370.528,92.475 370.973,92.613 371.415,92.759 371.854,92.913 372.291,93.074 372.725,93.243 373.156,93.42 373.584,93.603 374.008,93.794 374.43,93.993 374.847,94.198 375.261,94.411 375.672,94.631 376.078,94.858 376.481,95.092 376.879,95.333 377.273,95.581 377.663,95.835 378.049,96.096 378.43,96.364 378.806,96.638 379.177,96.919 379.544,97.206 379.905,97.5 380.262,97.799 380.613,98.105 380.959,98.417 381.299,98.734 381.634,99.058 381.963,99.387 382.287,99.722 382.604,100.062 382.916,100.408 383.222,100.759 383.521,101.116 383.815,101.477 384.102,101.844 384.383,102.215 384.657,102.591 384.925,102.972 385.186,103.358 385.44,103.747 385.688,104.142 385.929,104.54 386.163,104.943 386.39,105.349 386.61,105.759 386.823,106.174 387.028,106.591 387.227,107.013 387.418,107.437 387.601,107.865 387.778,108.296 387.946,108.73 388.108,109.166 388.262,109.606 388.408,110.048 388.546,110.492 388.677,110.939 388.8,111.388 388.915,111.839 389.023,112.292 389.123,112.747 389.215,113.204 389.298,113.662 389.374,114.121 389.443,114.581 389.503,115.043 389.555,115.506 389.599,115.969 389.635,116.433 389.663,116.898 389.683,117.363 389.695,117.829 389.699,118.294 389.699,680.959 389.695,681.424 389.683,681.89 389.663,682.355 389.635,682.819 389.599,683.284 389.555,683.747 389.503,684.21 389.443,684.671 389.374,685.132 389.298,685.591 389.215,686.049 389.123,686.506 389.023,686.961 388.915,687.414 388.8,687.865 388.677,688.314 388.546,688.76 388.408,689.205 388.262,689.647 388.108,690.086 387.946,690.523 387.778,690.957 387.601,691.388 387.418,691.816 387.227,692.24 387.028,692.662 386.823,693.079 386.61,693.493 386.39,693.904 386.163,694.31 385.929,694.713 385.688,695.111 385.44,695.506 385.186,695.895 384.925,696.281 384.657,696.662 384.383,697.038 384.102,697.409 383.815,697.776 383.521,698.137 383.222,698.494 382.916,698.845 382.604,699.191 382.287,699.531 381.963,699.866 381.634,700.195 381.299,700.519 380.959,700.836 380.613,701.148 380.262,701.454 379.905,701.753 379.544,702.047 379.177,702.334 378.806,702.615 378.43,702.889 378.049,703.157 377.663,703.418 377.273,703.672 376.879,703.92 376.481,704.161 376.078,704.395 375.672,704.622 375.261,704.842 374.847,705.055 374.43,705.26 374.008,705.459 373.584,705.65 373.156,705.833 372.725,706.01 372.291,706.179 371.854,706.34 371.415,706.494 370.973,706.64 370.528,706.778 370.082,706.909 369.633,707.032 369.181,707.148 368.728,707.255 368.274,707.355 367.817,707.447 367.359,707.531 366.9,707.607 366.439,707.675 365.978,707.735 365.515,707.787 365.052,707.831 364.587,707.867 364.123,707.895 363.657,707.915 363.192,707.927 362.726,707.931 124.294,707.931 123.829,707.927 123.363,707.915 122.898,707.895 122.433,707.867 121.969,707.831 "
   id="polygon360"
   transform="translate(-92.852,-89.697)"
   style="stroke:#000000;stroke-opacity:1" />

</svg>
