<?xml version="1.0" encoding="UTF-8" standalone="no"?>
<svg
   xmlns:ns="&amp;#38;ns_sfw;"
   xmlns:dc="http://purl.org/dc/elements/1.1/"
   xmlns:cc="http://creativecommons.org/ns#"
   xmlns:rdf="http://www.w3.org/1999/02/22-rdf-syntax-ns#"
   xmlns:svg="http://www.w3.org/2000/svg"
   xmlns="http://www.w3.org/2000/svg"
   xmlns:sodipodi="http://sodipodi.sourceforge.net/DTD/sodipodi-0.dtd"
   xmlns:inkscape="http://www.inkscape.org/namespaces/inkscape"
   version="1.1"
   x="0px"
   y="0px"
   viewBox="0 0 289.56601 573.87598"
   enable-background="new 0 0 1000 750"
   xml:space="preserve"
   id="svg351"
   sodipodi:docname="s10e.svg"
   inkscape:version="1.0.1 (3bc2e813f5, 2020-09-07)"
   width="289.56601"
   height="573.87598"><polygon
   fill="none"
   stroke="#00b9d2"
   stroke-width="3.25"
   stroke-linecap="round"
   stroke-linejoin="round"
   stroke-miterlimit="10"
   points="376.171,115.407 376.148,115.03 376.12,114.652 376.088,114.273 376.052,113.892 376.011,113.511 375.965,113.128 375.915,112.744 375.86,112.36 375.8,111.974 375.736,111.588 375.666,111.202 375.592,110.814 375.514,110.426 375.43,110.038 375.341,109.65 375.247,109.261 375.149,108.872 375.045,108.483 374.936,108.094 374.822,107.705 374.703,107.317 374.579,106.929 374.45,106.541 374.316,106.153 374.176,105.767 374.032,105.381 373.882,104.995 373.727,104.611 373.567,104.228 373.402,103.846 373.231,103.465 373.056,103.085 372.875,102.707 372.689,102.33 372.498,101.955 372.302,101.581 372.101,101.209 371.895,100.84 371.683,100.472 371.467,100.106 371.246,99.743 371.019,99.382 370.788,99.023 370.552,98.667 370.311,98.314 370.065,97.963 369.815,97.615 369.56,97.27 369.3,96.928 369.035,96.589 368.766,96.253 368.493,95.92 368.215,95.591 367.932,95.266 367.646,94.943 367.355,94.625 367.06,94.31 366.761,93.999 366.457,93.692 366.15,93.389 365.839,93.09 365.524,92.795 365.206,92.504 364.884,92.217 364.558,91.935 364.229,91.657 363.896,91.383 363.561,91.114 363.222,90.85 362.879,90.59 362.534,90.334 362.186,90.084 361.836,89.838 361.482,89.597 361.126,89.361 360.767,89.13 360.406,88.904 360.043,88.682 359.677,88.466 359.31,88.255 358.94,88.048 358.568,87.847 358.195,87.651 357.819,87.46 357.443,87.274 357.064,87.093 356.685,86.918 356.304,86.747 355.921,86.582 355.538,86.422 355.154,86.267 354.769,86.117 354.383,85.973 353.996,85.833 353.609,85.699 353.221,85.57 352.832,85.446 352.444,85.327 352.055,85.213 351.666,85.104 351.277,85.001 350.888,84.902 350.5,84.808 350.111,84.72 349.723,84.636 349.335,84.557 348.948,84.483 348.561,84.414 348.175,84.349 347.79,84.29 347.405,84.235 347.021,84.184 346.639,84.139 346.257,84.098 345.877,84.061 345.497,84.029 345.119,84.001 344.742,83.978 344.367,83.959 343.993,83.945 343.621,83.934 343.25,83.928 342.881,83.926 129.269,83.926 128.899,83.928 128.529,83.934 128.156,83.945 127.782,83.959 127.407,83.978 127.03,84.001 126.652,84.029 126.273,84.061 125.892,84.098 125.511,84.139 125.128,84.184 124.744,84.235 124.36,84.29 123.974,84.349 123.588,84.414 123.202,84.483 122.814,84.557 122.426,84.636 122.038,84.72 121.65,84.808 121.261,84.902 120.872,85.001 120.483,85.104 120.094,85.213 119.705,85.327 119.317,85.446 118.929,85.57 118.541,85.699 118.153,85.833 117.767,85.973 117.381,86.117 116.995,86.267 116.611,86.422 116.228,86.582 115.846,86.747 115.465,86.918 115.085,87.093 114.707,87.274 114.33,87.46 113.955,87.651 113.581,87.847 113.209,88.048 112.84,88.255 112.472,88.466 112.106,88.682 111.743,88.904 111.382,89.13 111.023,89.361 110.667,89.597 110.314,89.838 109.963,90.084 109.615,90.334 109.27,90.59 108.928,90.85 108.589,91.114 108.253,91.383 107.92,91.657 107.591,91.935 107.266,92.217 106.943,92.504 106.625,92.795 106.31,93.09 105.999,93.389 105.692,93.692 105.389,93.999 105.09,94.31 104.795,94.625 104.504,94.943 104.217,95.266 103.935,95.591 103.657,95.92 103.383,96.253 103.114,96.589 102.85,96.928 102.59,97.27 102.334,97.615 102.084,97.963 101.838,98.314 101.597,98.667 101.361,99.023 101.13,99.382 100.904,99.743 100.682,100.106 100.466,100.472 100.255,100.84 100.048,101.209 99.847,101.581 99.651,101.955 99.46,102.33 99.274,102.707 99.093,103.085 98.918,103.465 98.747,103.846 98.582,104.228 98.422,104.611 98.267,104.995 98.117,105.381 97.973,105.767 97.833,106.153 97.699,106.541 97.57,106.929 97.446,107.317 97.327,107.705 97.213,108.094 97.104,108.483 97.001,108.872 96.902,109.261 96.808,109.65 96.72,110.038 96.636,110.426 96.557,110.814 96.483,111.202 96.414,111.588 96.349,111.974 96.29,112.36 96.235,112.744 96.184,113.128 96.139,113.511 96.098,113.892 96.061,114.273 96.029,114.652 96.001,115.03 95.978,115.407 95.959,115.782 95.945,116.156 95.934,116.529 95.928,116.899 95.926,117.269 95.926,161.45 92.917,161.45 92.917,238.679 95.926,238.679 95.926,269.432 92.917,269.432 92.917,300.962 95.926,300.962 95.926,621.21 95.928,621.579 95.934,621.95 95.945,622.322 95.959,622.696 95.978,623.071 96.001,623.448 96.029,623.826 96.061,624.206 96.098,624.586 96.139,624.968 96.184,625.35 96.235,625.734 96.29,626.119 96.349,626.504 96.414,626.89 96.483,627.277 96.557,627.664 96.636,628.052 96.72,628.44 96.808,628.829 96.902,629.217 97.001,629.606 97.104,629.995 97.213,630.384 97.327,630.773 97.446,631.161 97.57,631.55 97.699,631.938 97.833,632.325 97.973,632.712 98.117,633.098 98.267,633.483 98.422,633.867 98.582,634.25 98.747,634.633 98.918,635.014 99.093,635.393 99.274,635.772 99.46,636.149 99.651,636.524 99.847,636.897 100.048,637.269 100.255,637.639 100.466,638.006 100.682,638.372 100.904,638.735 101.13,639.096 101.361,639.455 101.597,639.811 101.838,640.165 102.084,640.515 102.334,640.863 102.59,641.209 102.85,641.551 103.114,641.89 103.383,642.225 103.657,642.558 103.935,642.887 104.217,643.213 104.504,643.535 104.795,643.853 105.09,644.168 105.389,644.479 105.692,644.786 105.999,645.09 106.31,645.389 106.625,645.684 106.943,645.975 107.266,646.261 107.591,646.544 107.92,646.822 108.253,647.095 108.589,647.364 108.928,647.629 109.27,647.889 109.615,648.144 109.963,648.394 110.314,648.64 110.667,648.881 111.023,649.117 111.382,649.348 111.743,649.575 112.106,649.796 112.472,650.012 112.84,650.224 113.209,650.43 113.581,650.631 113.955,650.827 114.33,651.018 114.707,651.204 115.085,651.385 115.465,651.56 115.846,651.731 116.228,651.896 116.611,652.056 116.995,652.211 117.381,652.361 117.767,652.505 118.153,652.645 118.541,652.779 118.929,652.908 119.317,653.032 119.705,653.151 120.094,653.265 120.483,653.374 120.872,653.478 121.261,653.576 121.65,653.67 122.038,653.759 122.426,653.843 122.814,653.922 123.202,653.996 123.588,654.065 123.974,654.129 124.36,654.189 124.744,654.244 125.128,654.294 125.511,654.34 125.892,654.381 126.273,654.417 126.652,654.449 127.03,654.477 127.407,654.5 127.782,654.519 128.156,654.534 128.529,654.544 128.899,654.55 129.269,654.552 342.881,654.552 343.25,654.55 343.621,654.544 343.993,654.534 344.367,654.519 344.742,654.5 345.119,654.477 345.497,654.449 345.877,654.417 346.257,654.381 346.639,654.34 347.021,654.294 347.405,654.244 347.79,654.189 348.175,654.129 348.561,654.065 348.948,653.996 349.335,653.922 349.723,653.843 350.111,653.759 350.5,653.67 350.888,653.576 351.277,653.478 351.666,653.374 352.055,653.265 352.444,653.151 352.832,653.032 353.221,652.908 353.609,652.779 353.996,652.645 354.383,652.505 354.769,652.361 355.154,652.211 355.538,652.056 355.921,651.896 356.304,651.731 356.685,651.56 357.064,651.385 357.443,651.204 357.819,651.018 358.195,650.827 358.568,650.631 358.94,650.43 359.31,650.224 359.677,650.012 360.043,649.796 360.406,649.575 360.767,649.348 361.126,649.117 361.482,648.881 361.836,648.64 362.186,648.394 362.534,648.144 362.879,647.889 363.222,647.629 363.561,647.364 363.896,647.095 364.229,646.822 364.558,646.544 364.884,646.261 365.206,645.975 365.524,645.684 365.839,645.389 366.15,645.09 366.457,644.786 366.761,644.479 367.06,644.168 367.355,643.853 367.646,643.535 367.932,643.213 368.215,642.887 368.493,642.558 368.766,642.225 369.035,641.89 369.3,641.551 369.56,641.209 369.815,640.863 370.065,640.515 370.311,640.165 370.552,639.811 370.788,639.455 371.019,639.096 371.246,638.735 371.467,638.372 371.683,638.006 371.895,637.639 372.101,637.269 372.302,636.897 372.498,636.524 372.689,636.149 372.875,635.772 373.056,635.393 373.231,635.014 373.402,634.633 373.567,634.25 373.727,633.867 373.882,633.483 374.032,633.098 374.176,632.712 374.316,632.325 374.45,631.938 374.579,631.55 374.703,631.161 374.822,630.773 374.936,630.384 375.045,629.995 375.149,629.606 375.247,629.217 375.341,628.829 375.43,628.44 375.514,628.052 375.592,627.664 375.666,627.277 375.736,626.89 375.8,626.504 375.86,626.119 375.915,625.734 375.965,625.35 376.011,624.968 376.052,624.586 376.088,624.206 376.12,623.826 376.148,623.448 376.171,623.071 376.19,622.696 376.205,622.322 376.215,621.95 376.221,621.579 376.223,621.21 376.223,221.152 379.233,221.152 379.233,161.45 376.223,161.45 376.223,117.269 376.221,116.899 376.215,116.529 376.205,116.156 376.19,115.782 "
   id="polygon347"
   transform="translate(-91.292,-82.301)"
   style="stroke:#000000;stroke-opacity:1" /><defs
   id="defs355">
	
	
	

	
	
	
	
	
	
	
	
	
	
	
	
	
	
	
	
	
	
	

	
	
	
	
	
	
	
	



		
			
	
		
			
	
		
			
	
		
			
	
		
			
	
		
			
	
		
			
	
		
			
	
		
			
	
		
			
	
		
			
	
		
			
	
		
			
	
		
			
	
		
			
	
		
			
	
		
			
	
		
			
	
		
			
	
		
			
	
		
			
	
		
			
	
		
			
	
		
	
		
			
	
		
			
	
		
			
	
		
			
	
		
	
		
	</defs><sodipodi:namedview
   pagecolor="#ffffff"
   bordercolor="#666666"
   borderopacity="1"
   objecttolerance="10"
   gridtolerance="10"
   guidetolerance="10"
   inkscape:pageopacity="0"
   inkscape:pageshadow="2"
   inkscape:window-width="1920"
   inkscape:window-height="1001"
   id="namedview353"
   showgrid="false"
   inkscape:zoom="1.1106667"
   inkscape:cx="408.708"
   inkscape:cy="328.06528"
   inkscape:window-x="-9"
   inkscape:window-y="-9"
   inkscape:window-maximized="1"
   inkscape:current-layer="svg351"
   inkscape:document-rotation="0" />
<metadata
   id="metadata2">
	<ns:sfw>
		<ns:slices />
		<ns:sliceSourceBounds
   bottomLeftOrigin="true"
   height="11789.401"
   width="3212.295"
   x="-3241.446"
   y="-3017.527">
			</ns:sliceSourceBounds>
	</ns:sfw>
<rdf:RDF><cc:Work
     rdf:about=""><dc:format>image/svg+xml</dc:format><dc:type
       rdf:resource="http://purl.org/dc/dcmitype/StillImage" /><dc:title /></cc:Work></rdf:RDF></metadata>

<g
   id="N-DIMENSIONS"
   display="none"
   transform="translate(-91.292,-82.301)">
	<g
   display="inline"
   id="g129">
		<g
   id="g44">
			<g
   id="POLYLINE_587_">
				
					<polyline
   fill="none"
   stroke="#00b9d2"
   stroke-width="2"
   stroke-linecap="round"
   stroke-linejoin="round"
   stroke-miterlimit="10"
   points="      887.546,685.371 893.909,679.008 887.546,672.644     "
   id="polyline5" />
			</g>
			<g
   id="POLYLINE_586_">
				
					<line
   fill="none"
   stroke="#00b9d2"
   stroke-width="2"
   stroke-linecap="round"
   stroke-linejoin="round"
   stroke-miterlimit="10"
   x1="893.909"
   y1="679.008"
   x2="887.66901"
   y2="679.008"
   id="line8" />
			</g>
			<g
   id="POLYLINE_585_">
				
					<line
   fill="none"
   stroke="#00b9d2"
   stroke-width="2"
   stroke-linecap="round"
   stroke-linejoin="round"
   stroke-miterlimit="10"
   x1="887.66901"
   y1="679.008"
   x2="856.49701"
   y2="679.008"
   id="line11" />
			</g>
			<g
   id="POLYLINE_584_">
				
					<polyline
   fill="none"
   stroke="#00b9d2"
   stroke-width="2"
   stroke-linecap="round"
   stroke-linejoin="round"
   stroke-miterlimit="10"
   points="      862.874,685.359 856.51,678.996 862.874,672.633     "
   id="polyline14" />
			</g>
			<g
   id="MTEXT_19_">
				<g
   id="g41">
					<g
   id="g39">
						<g
   id="g37">
							<path
   fill="#00b9d2"
   d="m 783.525,710.977 c -0.087,-0.087 -0.13,-0.196 -0.13,-0.33 v -1.38 c 0,-0.133 0.043,-0.247 0.13,-0.34 0.087,-0.094 0.196,-0.141 0.33,-0.141 h 1.38 c 0.133,0 0.243,0.047 0.33,0.141 0.087,0.093 0.13,0.207 0.13,0.34 v 1.38 c 0,0.134 -0.043,0.243 -0.13,0.33 -0.087,0.087 -0.197,0.13 -0.33,0.13 h -1.38 c -0.133,0 -0.243,-0.043 -0.33,-0.13 z"
   id="path17" />
							<path
   fill="#00b9d2"
   d="m 790.256,710.797 c -0.761,-0.341 -1.337,-0.783 -1.73,-1.33 -0.393,-0.547 -0.604,-1.113 -0.63,-1.7 0,-0.12 0.04,-0.217 0.12,-0.29 0.08,-0.073 0.18,-0.11 0.3,-0.11 h 0.9 c 0.146,0 0.267,0.03 0.359,0.09 0.094,0.061 0.167,0.178 0.22,0.351 0.174,0.68 0.551,1.16 1.131,1.439 0.58,0.28 1.263,0.42 2.05,0.42 0.96,0 1.723,-0.229 2.29,-0.689 0.566,-0.46 0.85,-1.116 0.85,-1.97 0,-1.627 -0.993,-2.44 -2.979,-2.44 h -1.88 c -0.134,0 -0.244,-0.043 -0.33,-0.13 -0.087,-0.087 -0.131,-0.196 -0.131,-0.33 v -0.52 c 0,-0.2 0.073,-0.374 0.221,-0.521 l 3.899,-4.32 h -5.92 c -0.133,0 -0.243,-0.04 -0.33,-0.12 -0.087,-0.079 -0.13,-0.187 -0.13,-0.319 v -0.72 c 0,-0.147 0.043,-0.264 0.13,-0.351 0.087,-0.087 0.197,-0.13 0.33,-0.13 h 7.92 c 0.146,0 0.264,0.043 0.351,0.13 0.086,0.087 0.13,0.203 0.13,0.351 v 0.659 c 0,0.147 -0.067,0.301 -0.2,0.46 l -3.9,4.381 h 0.32 c 1.36,0.039 2.437,0.393 3.23,1.06 0.793,0.667 1.189,1.64 1.189,2.92 0,0.88 -0.217,1.637 -0.649,2.271 -0.434,0.633 -1.037,1.119 -1.811,1.46 -0.773,0.34 -1.646,0.51 -2.62,0.51 -1.041,-0.002 -1.94,-0.172 -2.7,-0.512 z"
   id="path19" />
							<path
   fill="#00b9d2"
   d="m 803.836,710.977 c -0.08,-0.087 -0.12,-0.196 -0.12,-0.33 v -11.28 l -3.36,2.58 c -0.094,0.08 -0.193,0.12 -0.3,0.12 -0.12,0 -0.233,-0.066 -0.34,-0.2 l -0.48,-0.62 c -0.066,-0.093 -0.1,-0.187 -0.1,-0.279 0,-0.146 0.066,-0.267 0.2,-0.36 l 4.34,-3.36 c 0.146,-0.093 0.319,-0.14 0.52,-0.14 h 0.94 c 0.133,0 0.243,0.043 0.33,0.13 0.086,0.087 0.13,0.197 0.13,0.33 v 13.08 c 0,0.134 -0.044,0.243 -0.13,0.33 -0.087,0.087 -0.197,0.13 -0.33,0.13 h -0.98 c -0.134,-10e-4 -0.241,-0.044 -0.32,-0.131 z"
   id="path21" />
							<path
   fill="#00b9d2"
   d="m 808.615,700.847 -0.34,-3.48 v -0.08 c 0,-0.12 0.036,-0.213 0.109,-0.279 0.073,-0.067 0.17,-0.101 0.29,-0.101 h 1.26 c 0.134,0 0.237,0.044 0.311,0.13 0.073,0.087 0.103,0.197 0.09,0.33 l -0.34,3.48 c -0.027,0.293 -0.16,0.439 -0.4,0.439 h -0.58 c -0.24,0.001 -0.373,-0.146 -0.4,-0.439 z m 3.06,0 -0.34,-3.48 v -0.04 c 0,-0.133 0.036,-0.236 0.11,-0.31 0.073,-0.073 0.17,-0.11 0.29,-0.11 h 1.26 c 0.133,0 0.236,0.044 0.31,0.13 0.073,0.087 0.104,0.197 0.09,0.33 l -0.34,3.48 c -0.026,0.293 -0.16,0.439 -0.399,0.439 h -0.58 c -0.241,0.001 -0.375,-0.146 -0.401,-0.439 z"
   id="path23" />
							<path
   fill="#00b9d2"
   d="m 821.075,715.137 c -0.08,-0.087 -0.12,-0.197 -0.12,-0.33 v -21.16 c 0,-0.133 0.04,-0.243 0.12,-0.33 0.08,-0.087 0.187,-0.13 0.319,-0.13 h 0.74 c 0.133,0 0.243,0.043 0.33,0.13 0.087,0.087 0.13,0.197 0.13,0.33 v 21.16 c 0,0.133 -0.043,0.243 -0.13,0.33 -0.087,0.086 -0.197,0.13 -0.33,0.13 h -0.74 c -0.132,0 -0.239,-0.044 -0.319,-0.13 z"
   id="path25" />
							<path
   fill="#00b9d2"
   d="m 831.704,710.977 c -0.073,-0.087 -0.109,-0.19 -0.109,-0.311 l 0.04,-0.18 5,-11.7 h -6.601 c -0.133,0 -0.243,-0.043 -0.33,-0.13 -0.087,-0.086 -0.13,-0.196 -0.13,-0.33 v -0.739 c 0,-0.147 0.04,-0.264 0.12,-0.351 0.08,-0.087 0.193,-0.13 0.34,-0.13 h 8.16 c 0.146,0 0.26,0.043 0.34,0.13 0.08,0.087 0.12,0.203 0.12,0.351 v 0.68 c 0,0.24 -0.054,0.5 -0.16,0.78 l -4.939,11.56 c -0.067,0.146 -0.141,0.267 -0.221,0.36 -0.08,0.093 -0.193,0.14 -0.34,0.14 h -1 c -0.12,0 -0.217,-0.043 -0.29,-0.13 z"
   id="path27" />
							<path
   fill="#00b9d2"
   d="m 839.364,710.977 c -0.087,-0.087 -0.13,-0.196 -0.13,-0.33 v -1.38 c 0,-0.133 0.043,-0.247 0.13,-0.34 0.087,-0.094 0.196,-0.141 0.33,-0.141 h 1.38 c 0.133,0 0.243,0.047 0.33,0.141 0.087,0.093 0.13,0.207 0.13,0.34 v 1.38 c 0,0.134 -0.043,0.243 -0.13,0.33 -0.087,0.087 -0.197,0.13 -0.33,0.13 h -1.38 c -0.133,0 -0.243,-0.043 -0.33,-0.13 z"
   id="path29" />
							<path
   fill="#00b9d2"
   d="m 845.564,710.977 c -0.073,-0.087 -0.11,-0.19 -0.11,-0.311 0,-0.093 0.026,-0.18 0.08,-0.26 l 3.08,-4.28 c -0.32,0.08 -0.693,0.12 -1.12,0.12 -0.96,-0.013 -1.8,-0.236 -2.52,-0.67 -0.721,-0.433 -1.271,-1 -1.65,-1.7 -0.38,-0.699 -0.57,-1.449 -0.57,-2.25 0,-0.8 0.19,-1.56 0.57,-2.279 0.38,-0.721 0.946,-1.307 1.7,-1.76 0.753,-0.453 1.663,-0.681 2.729,-0.681 1.067,0 1.98,0.22 2.74,0.66 0.76,0.44 1.333,1.017 1.721,1.73 0.386,0.713 0.579,1.477 0.579,2.29 0,0.733 -0.13,1.38 -0.39,1.939 -0.26,0.561 -0.604,1.14 -1.03,1.74 l -3.88,5.439 c -0.093,0.12 -0.184,0.217 -0.27,0.29 -0.087,0.074 -0.21,0.11 -0.37,0.11 h -1 c -0.119,0.003 -0.215,-0.04 -0.289,-0.127 z m 3.77,-6.69 c 0.48,-0.253 0.86,-0.609 1.141,-1.069 0.279,-0.46 0.42,-0.99 0.42,-1.591 0,-0.612 -0.141,-1.152 -0.42,-1.619 -0.28,-0.467 -0.66,-0.827 -1.141,-1.08 -0.479,-0.254 -1.007,-0.38 -1.58,-0.38 -0.56,0 -1.076,0.126 -1.55,0.38 -0.474,0.253 -0.85,0.613 -1.13,1.08 -0.28,0.467 -0.42,1.007 -0.42,1.619 0,0.601 0.14,1.131 0.42,1.591 0.28,0.46 0.653,0.816 1.12,1.069 0.467,0.254 0.986,0.38 1.56,0.38 0.574,0 1.1,-0.126 1.58,-0.38 z"
   id="path31" />
							<path
   fill="#00b9d2"
   d="m 860.344,710.977 c -0.087,-0.087 -0.13,-0.196 -0.13,-0.33 v -9.48 c 0,-0.133 0.043,-0.243 0.13,-0.329 0.087,-0.087 0.196,-0.131 0.33,-0.131 h 0.84 c 0.133,0 0.24,0.044 0.32,0.131 0.08,0.086 0.12,0.196 0.12,0.329 v 0.681 c 0.72,-0.894 1.692,-1.34 2.92,-1.34 1.466,0 2.506,0.613 3.119,1.84 0.32,-0.561 0.777,-1.007 1.37,-1.34 0.594,-0.334 1.257,-0.5 1.99,-0.5 1.093,0 1.986,0.373 2.68,1.119 0.693,0.747 1.04,1.827 1.04,3.24 v 5.78 c 0,0.134 -0.043,0.243 -0.13,0.33 -0.087,0.087 -0.196,0.13 -0.33,0.13 h -0.859 c -0.134,0 -0.244,-0.043 -0.33,-0.13 -0.087,-0.087 -0.13,-0.196 -0.13,-0.33 v -5.6 c 0,-1.067 -0.221,-1.83 -0.66,-2.29 -0.44,-0.46 -1.021,-0.69 -1.74,-0.69 -0.64,0 -1.189,0.237 -1.65,0.71 -0.46,0.474 -0.689,1.23 -0.689,2.271 v 5.6 c 0,0.134 -0.044,0.243 -0.13,0.33 -0.087,0.087 -0.197,0.13 -0.33,0.13 h -0.88 c -0.134,0 -0.244,-0.043 -0.33,-0.13 -0.087,-0.087 -0.13,-0.196 -0.13,-0.33 v -5.6 c 0,-1.054 -0.23,-1.813 -0.69,-2.28 -0.46,-0.467 -1.03,-0.7 -1.71,-0.7 -0.64,0 -1.189,0.233 -1.649,0.7 -0.461,0.467 -0.69,1.22 -0.69,2.26 v 5.62 c 0,0.134 -0.044,0.243 -0.13,0.33 -0.087,0.087 -0.197,0.13 -0.33,0.13 h -0.88 c -0.136,-10e-4 -0.245,-0.044 -0.332,-0.131 z"
   id="path33" />
							<path
   fill="#00b9d2"
   d="m 878.104,710.977 c -0.087,-0.087 -0.13,-0.196 -0.13,-0.33 v -9.48 c 0,-0.133 0.043,-0.243 0.13,-0.329 0.087,-0.087 0.196,-0.131 0.33,-0.131 h 0.84 c 0.133,0 0.24,0.044 0.32,0.131 0.08,0.086 0.12,0.196 0.12,0.329 v 0.681 c 0.72,-0.894 1.692,-1.34 2.92,-1.34 1.466,0 2.506,0.613 3.119,1.84 0.32,-0.561 0.777,-1.007 1.37,-1.34 0.594,-0.334 1.257,-0.5 1.99,-0.5 1.093,0 1.986,0.373 2.68,1.119 0.693,0.747 1.04,1.827 1.04,3.24 v 5.78 c 0,0.134 -0.043,0.243 -0.13,0.33 -0.087,0.087 -0.196,0.13 -0.33,0.13 h -0.859 c -0.134,0 -0.244,-0.043 -0.33,-0.13 -0.087,-0.087 -0.13,-0.196 -0.13,-0.33 v -5.6 c 0,-1.067 -0.221,-1.83 -0.66,-2.29 -0.44,-0.46 -1.021,-0.69 -1.74,-0.69 -0.64,0 -1.189,0.237 -1.65,0.71 -0.46,0.474 -0.689,1.23 -0.689,2.271 v 5.6 c 0,0.134 -0.044,0.243 -0.13,0.33 -0.087,0.087 -0.197,0.13 -0.33,0.13 h -0.88 c -0.134,0 -0.244,-0.043 -0.33,-0.13 -0.087,-0.087 -0.13,-0.196 -0.13,-0.33 v -5.6 c 0,-1.054 -0.23,-1.813 -0.69,-2.28 -0.46,-0.467 -1.03,-0.7 -1.71,-0.7 -0.64,0 -1.189,0.233 -1.649,0.7 -0.461,0.467 -0.69,1.22 -0.69,2.26 v 5.62 c 0,0.134 -0.044,0.243 -0.13,0.33 -0.087,0.087 -0.197,0.13 -0.33,0.13 h -0.88 c -0.136,-10e-4 -0.246,-0.044 -0.332,-0.131 z"
   id="path35" />
						</g>
					</g>
				</g>
			</g>
		</g>
		<g
   id="g87">
			<g
   id="POLYLINE_583_">
				
					<polyline
   fill="none"
   stroke="#00b9d2"
   stroke-width="2"
   stroke-linecap="round"
   stroke-linejoin="round"
   stroke-miterlimit="10"
   points="      100.305,681.041 93.941,687.405 100.305,693.768     "
   id="polyline46" />
			</g>
			<g
   id="POLYLINE_582_">
				
					<line
   fill="none"
   stroke="#00b9d2"
   stroke-width="2"
   stroke-linecap="round"
   stroke-linejoin="round"
   stroke-miterlimit="10"
   x1="93.941002"
   y1="687.40503"
   x2="152.45799"
   y2="687.40503"
   id="line49" />
			</g>
			<g
   id="POLYLINE_581_">
				
					<line
   fill="none"
   stroke="#00b9d2"
   stroke-width="2"
   stroke-linecap="round"
   stroke-linejoin="round"
   stroke-miterlimit="10"
   x1="305.927"
   y1="687.40503"
   x2="374.888"
   y2="687.40503"
   id="line52" />
			</g>
			<g
   id="POLYLINE_580_">
				
					<polyline
   fill="none"
   stroke="#00b9d2"
   stroke-width="2"
   stroke-linecap="round"
   stroke-linejoin="round"
   stroke-miterlimit="10"
   points="      368.511,681.053 374.875,687.416 368.511,693.78     "
   id="polyline55" />
			</g>
			<g
   id="MTEXT_18_">
				<g
   id="g84">
					<g
   id="g82">
						<path
   fill="#00b9d2"
   d="m 161.923,694.25 c -0.087,-0.087 -0.13,-0.196 -0.13,-0.33 v -0.6 c 0,-0.307 0.167,-0.601 0.5,-0.881 l 4.36,-4.34 c 0.987,-0.84 1.667,-1.526 2.04,-2.06 0.373,-0.533 0.56,-1.101 0.56,-1.7 0,-0.786 -0.22,-1.403 -0.66,-1.85 -0.44,-0.447 -1.08,-0.67 -1.92,-0.67 -0.8,0 -1.433,0.233 -1.9,0.699 -0.467,0.467 -0.753,1.094 -0.86,1.88 -0.027,0.147 -0.094,0.261 -0.2,0.341 -0.107,0.08 -0.213,0.12 -0.32,0.12 h -0.96 c -0.12,0 -0.22,-0.04 -0.3,-0.12 -0.08,-0.08 -0.12,-0.174 -0.12,-0.28 0.026,-0.707 0.216,-1.39 0.57,-2.05 0.353,-0.66 0.876,-1.2 1.57,-1.62 0.694,-0.42 1.533,-0.63 2.52,-0.63 1.493,0 2.617,0.39 3.37,1.17 0.753,0.78 1.13,1.77 1.13,2.97 0,0.84 -0.203,1.597 -0.61,2.271 -0.407,0.673 -1.043,1.383 -1.91,2.13 l -3.94,4 h 6.3 c 0.146,0 0.26,0.04 0.34,0.12 0.08,0.079 0.12,0.193 0.12,0.34 v 0.76 c 0,0.134 -0.043,0.243 -0.13,0.33 -0.086,0.087 -0.197,0.13 -0.33,0.13 h -8.76 c -0.133,0 -0.243,-0.043 -0.33,-0.13 z"
   id="path58" />
						<path
   fill="#00b9d2"
   d="m 173.983,694.25 c -0.087,-0.087 -0.13,-0.196 -0.13,-0.33 v -1.38 c 0,-0.133 0.043,-0.247 0.13,-0.34 0.086,-0.094 0.196,-0.141 0.33,-0.141 h 1.38 c 0.133,0 0.243,0.047 0.33,0.141 0.087,0.093 0.13,0.207 0.13,0.34 v 1.38 c 0,0.134 -0.043,0.243 -0.13,0.33 -0.086,0.087 -0.197,0.13 -0.33,0.13 h -1.38 c -0.133,0 -0.243,-0.043 -0.33,-0.13 z"
   id="path60" />
						<path
   fill="#00b9d2"
   d="m 179.603,694.25 c -0.073,-0.087 -0.11,-0.19 -0.11,-0.311 l 0.04,-0.18 5,-11.7 h -6.6 c -0.133,0 -0.244,-0.043 -0.33,-0.13 -0.087,-0.086 -0.13,-0.196 -0.13,-0.33 v -0.739 c 0,-0.147 0.04,-0.264 0.12,-0.351 0.08,-0.087 0.193,-0.13 0.34,-0.13 h 8.16 c 0.146,0 0.26,0.043 0.34,0.13 0.08,0.087 0.12,0.203 0.12,0.351 v 0.68 c 0,0.24 -0.054,0.5 -0.16,0.78 l -4.94,11.56 c -0.067,0.146 -0.14,0.267 -0.22,0.36 -0.08,0.093 -0.193,0.14 -0.34,0.14 h -1 c -0.12,0 -0.217,-0.043 -0.29,-0.13 z"
   id="path62" />
						<path
   fill="#00b9d2"
   d="m 190.313,694.041 c -0.734,-0.36 -1.293,-0.83 -1.68,-1.41 -0.387,-0.58 -0.593,-1.203 -0.62,-1.87 v -0.04 c 0,-0.106 0.04,-0.193 0.12,-0.26 0.08,-0.067 0.173,-0.1 0.28,-0.1 h 0.98 c 0.28,0 0.46,0.146 0.54,0.439 0.2,0.72 0.57,1.257 1.11,1.61 0.54,0.353 1.163,0.529 1.87,0.529 0.907,0 1.66,-0.276 2.26,-0.829 0.6,-0.554 0.9,-1.317 0.9,-2.29 0,-0.894 -0.3,-1.604 -0.9,-2.131 -0.6,-0.526 -1.354,-0.79 -2.26,-0.79 -0.48,0 -0.867,0.061 -1.16,0.181 -0.293,0.12 -0.594,0.293 -0.9,0.52 -0.173,0.134 -0.316,0.23 -0.43,0.29 -0.113,0.061 -0.237,0.09 -0.37,0.09 h -0.96 c -0.12,0 -0.227,-0.043 -0.32,-0.13 -0.094,-0.086 -0.134,-0.189 -0.12,-0.31 l 0.62,-6.66 c 0.04,-0.333 0.207,-0.5 0.5,-0.5 h 6.92 c 0.146,0 0.26,0.04 0.34,0.12 0.08,0.08 0.12,0.193 0.12,0.34 v 0.74 c 0,0.133 -0.043,0.24 -0.13,0.319 -0.087,0.08 -0.197,0.12 -0.33,0.12 h -5.76 l -0.36,4.021 c 0.64,-0.453 1.5,-0.68 2.58,-0.68 0.893,0 1.707,0.177 2.44,0.529 0.733,0.354 1.316,0.87 1.75,1.55 0.433,0.681 0.65,1.487 0.65,2.421 0,0.986 -0.217,1.836 -0.65,2.55 -0.434,0.713 -1.033,1.253 -1.8,1.62 -0.767,0.366 -1.644,0.55 -2.63,0.55 -1,10e-4 -1.867,-0.18 -2.6,-0.539 z"
   id="path64" />
						<path
   fill="#00b9d2"
   d="m 200.143,683.861 c -0.06,-0.08 -0.077,-0.181 -0.05,-0.301 l 0.44,-2.8 c 0.053,-0.387 0.24,-0.58 0.56,-0.58 h 1.28 c 0.093,0 0.17,0.033 0.23,0.101 0.06,0.066 0.09,0.146 0.09,0.239 0,0.134 -0.02,0.24 -0.06,0.32 l -1.04,2.7 c -0.067,0.146 -0.14,0.257 -0.22,0.33 -0.08,0.073 -0.2,0.109 -0.36,0.109 h -0.62 c -0.107,10e-4 -0.19,-0.039 -0.25,-0.118 z m 3.14,0 c -0.06,-0.08 -0.077,-0.181 -0.05,-0.301 l 0.44,-2.8 c 0.053,-0.387 0.24,-0.58 0.56,-0.58 h 1.28 c 0.093,0 0.17,0.033 0.23,0.101 0.06,0.066 0.09,0.146 0.09,0.239 0,0.134 -0.02,0.24 -0.06,0.32 l -1.04,2.7 c -0.067,0.146 -0.14,0.257 -0.22,0.33 -0.08,0.073 -0.2,0.109 -0.36,0.109 h -0.62 c -0.107,10e-4 -0.19,-0.039 -0.25,-0.118 z"
   id="path66" />
						<path
   fill="#00b9d2"
   d="m 213.152,698.411 c -0.08,-0.087 -0.12,-0.197 -0.12,-0.33 v -21.16 c 0,-0.133 0.04,-0.243 0.12,-0.33 0.08,-0.087 0.187,-0.13 0.32,-0.13 h 0.74 c 0.133,0 0.243,0.043 0.33,0.13 0.087,0.087 0.13,0.197 0.13,0.33 v 21.16 c 0,0.133 -0.043,0.243 -0.13,0.33 -0.086,0.086 -0.197,0.13 -0.33,0.13 h -0.74 c -0.133,0 -0.24,-0.044 -0.32,-0.13 z"
   id="path68" />
						<path
   fill="#00b9d2"
   d="m 224.442,693.93 c -0.78,-0.433 -1.374,-1.017 -1.78,-1.75 -0.406,-0.733 -0.61,-1.533 -0.61,-2.399 0,-1.146 0.46,-2.373 1.38,-3.681 l 3.82,-5.319 c 0.013,-0.014 0.05,-0.061 0.11,-0.141 0.06,-0.08 0.137,-0.143 0.23,-0.189 0.093,-0.046 0.2,-0.07 0.32,-0.07 h 0.98 c 0.12,0 0.217,0.043 0.29,0.13 0.073,0.087 0.11,0.19 0.11,0.311 0,0.066 -0.034,0.153 -0.1,0.26 l -2.92,4.08 c 0.346,-0.08 0.733,-0.12 1.16,-0.12 0.973,0 1.83,0.217 2.57,0.649 0.74,0.434 1.313,1.007 1.72,1.721 0.407,0.713 0.61,1.497 0.61,2.35 0,0.854 -0.203,1.65 -0.61,2.39 -0.407,0.74 -0.997,1.33 -1.77,1.771 -0.773,0.441 -1.687,0.66 -2.74,0.66 -1.067,-0.002 -1.99,-0.219 -2.77,-0.653 z m 4.37,-1.37 c 0.493,-0.239 0.886,-0.597 1.18,-1.069 0.293,-0.474 0.44,-1.044 0.44,-1.71 0,-0.653 -0.15,-1.217 -0.45,-1.69 -0.3,-0.473 -0.697,-0.833 -1.19,-1.08 -0.494,-0.246 -1.027,-0.37 -1.6,-0.37 -0.574,0 -1.107,0.124 -1.6,0.37 -0.494,0.247 -0.887,0.607 -1.18,1.08 -0.293,0.474 -0.44,1.037 -0.44,1.69 0,0.666 0.146,1.236 0.44,1.71 0.293,0.473 0.687,0.83 1.18,1.069 0.493,0.24 1.026,0.36 1.6,0.36 0.586,0 1.126,-0.12 1.62,-0.36 z"
   id="path70" />
						<path
   fill="#00b9d2"
   d="m 236.662,694.25 c -0.073,-0.087 -0.11,-0.19 -0.11,-0.311 0,-0.093 0.026,-0.18 0.08,-0.26 l 3.08,-4.28 c -0.32,0.08 -0.693,0.12 -1.12,0.12 -0.96,-0.013 -1.8,-0.236 -2.52,-0.67 -0.72,-0.433 -1.27,-1 -1.65,-1.7 -0.38,-0.699 -0.57,-1.449 -0.57,-2.25 0,-0.8 0.19,-1.56 0.57,-2.279 0.38,-0.721 0.946,-1.307 1.7,-1.76 0.754,-0.453 1.663,-0.681 2.73,-0.681 1.067,0 1.98,0.22 2.74,0.66 0.76,0.44 1.333,1.017 1.72,1.73 0.386,0.713 0.58,1.477 0.58,2.29 0,0.733 -0.13,1.38 -0.39,1.939 -0.26,0.561 -0.604,1.14 -1.03,1.74 l -3.88,5.439 c -0.093,0.12 -0.184,0.217 -0.27,0.29 -0.087,0.074 -0.21,0.11 -0.37,0.11 h -1 c -0.12,0.003 -0.217,-0.04 -0.29,-0.127 z m 3.77,-6.69 c 0.48,-0.253 0.86,-0.609 1.14,-1.069 0.28,-0.46 0.42,-0.99 0.42,-1.591 0,-0.612 -0.14,-1.152 -0.42,-1.619 -0.28,-0.467 -0.66,-0.827 -1.14,-1.08 -0.48,-0.254 -1.007,-0.38 -1.58,-0.38 -0.56,0 -1.077,0.126 -1.55,0.38 -0.474,0.253 -0.85,0.613 -1.13,1.08 -0.28,0.467 -0.42,1.007 -0.42,1.619 0,0.601 0.14,1.131 0.42,1.591 0.28,0.46 0.653,0.816 1.12,1.069 0.466,0.254 0.986,0.38 1.56,0.38 0.574,0 1.1,-0.126 1.58,-0.38 z"
   id="path72" />
						<path
   fill="#00b9d2"
   d="m 245.082,694.25 c -0.087,-0.087 -0.13,-0.196 -0.13,-0.33 v -1.38 c 0,-0.133 0.043,-0.247 0.13,-0.34 0.086,-0.094 0.196,-0.141 0.33,-0.141 h 1.38 c 0.133,0 0.243,0.047 0.33,0.141 0.087,0.093 0.13,0.207 0.13,0.34 v 1.38 c 0,0.134 -0.043,0.243 -0.13,0.33 -0.086,0.087 -0.197,0.13 -0.33,0.13 h -1.38 c -0.134,0 -0.244,-0.043 -0.33,-0.13 z"
   id="path74" />
						<path
   fill="#00b9d2"
   d="m 251.282,694.25 c -0.073,-0.087 -0.11,-0.19 -0.11,-0.311 0,-0.093 0.026,-0.18 0.08,-0.26 l 3.08,-4.28 c -0.32,0.08 -0.693,0.12 -1.12,0.12 -0.96,-0.013 -1.8,-0.236 -2.52,-0.67 -0.72,-0.433 -1.27,-1 -1.65,-1.7 -0.38,-0.699 -0.57,-1.449 -0.57,-2.25 0,-0.8 0.19,-1.56 0.57,-2.279 0.38,-0.721 0.946,-1.307 1.7,-1.76 0.754,-0.453 1.663,-0.681 2.73,-0.681 1.067,0 1.98,0.22 2.74,0.66 0.76,0.44 1.333,1.017 1.72,1.73 0.386,0.713 0.58,1.477 0.58,2.29 0,0.733 -0.13,1.38 -0.39,1.939 -0.26,0.561 -0.604,1.14 -1.03,1.74 l -3.88,5.439 c -0.093,0.12 -0.184,0.217 -0.27,0.29 -0.087,0.074 -0.21,0.11 -0.37,0.11 h -1 c -0.12,0.003 -0.217,-0.04 -0.29,-0.127 z m 3.77,-6.69 c 0.48,-0.253 0.86,-0.609 1.14,-1.069 0.28,-0.46 0.42,-0.99 0.42,-1.591 0,-0.612 -0.14,-1.152 -0.42,-1.619 -0.28,-0.467 -0.66,-0.827 -1.14,-1.08 -0.48,-0.254 -1.007,-0.38 -1.58,-0.38 -0.56,0 -1.077,0.126 -1.55,0.38 -0.474,0.253 -0.85,0.613 -1.13,1.08 -0.28,0.467 -0.42,1.007 -0.42,1.619 0,0.601 0.14,1.131 0.42,1.591 0.28,0.46 0.653,0.816 1.12,1.069 0.466,0.254 0.986,0.38 1.56,0.38 0.574,0 1.1,-0.126 1.58,-0.38 z"
   id="path76" />
						<path
   fill="#00b9d2"
   d="m 266.061,694.25 c -0.087,-0.087 -0.13,-0.196 -0.13,-0.33 v -9.48 c 0,-0.133 0.043,-0.243 0.13,-0.329 0.087,-0.087 0.197,-0.131 0.33,-0.131 h 0.84 c 0.133,0 0.24,0.044 0.32,0.131 0.08,0.086 0.12,0.196 0.12,0.329 v 0.681 c 0.72,-0.894 1.693,-1.34 2.92,-1.34 1.466,0 2.506,0.613 3.12,1.84 0.32,-0.561 0.777,-1.007 1.37,-1.34 0.593,-0.334 1.257,-0.5 1.99,-0.5 1.093,0 1.986,0.373 2.68,1.119 0.693,0.747 1.04,1.827 1.04,3.24 v 5.78 c 0,0.134 -0.043,0.243 -0.13,0.33 -0.087,0.087 -0.197,0.13 -0.33,0.13 h -0.86 c -0.133,0 -0.244,-0.043 -0.33,-0.13 -0.087,-0.087 -0.13,-0.196 -0.13,-0.33 v -5.6 c 0,-1.067 -0.22,-1.83 -0.66,-2.29 -0.44,-0.46 -1.02,-0.69 -1.74,-0.69 -0.64,0 -1.19,0.237 -1.65,0.71 -0.46,0.474 -0.69,1.23 -0.69,2.271 v 5.6 c 0,0.134 -0.043,0.243 -0.13,0.33 -0.087,0.087 -0.197,0.13 -0.33,0.13 h -0.88 c -0.133,0 -0.244,-0.043 -0.33,-0.13 -0.087,-0.087 -0.13,-0.196 -0.13,-0.33 v -5.6 c 0,-1.054 -0.23,-1.813 -0.69,-2.28 -0.46,-0.467 -1.03,-0.7 -1.71,-0.7 -0.64,0 -1.19,0.233 -1.65,0.7 -0.46,0.467 -0.69,1.22 -0.69,2.26 v 5.62 c 0,0.134 -0.043,0.243 -0.13,0.33 -0.087,0.087 -0.197,0.13 -0.33,0.13 h -0.88 c -0.133,-10e-4 -0.243,-0.044 -0.33,-0.131 z"
   id="path78" />
						<path
   fill="#00b9d2"
   d="m 283.821,694.25 c -0.087,-0.087 -0.13,-0.196 -0.13,-0.33 v -9.48 c 0,-0.133 0.043,-0.243 0.13,-0.329 0.087,-0.087 0.197,-0.131 0.33,-0.131 h 0.84 c 0.133,0 0.24,0.044 0.32,0.131 0.08,0.086 0.12,0.196 0.12,0.329 v 0.681 c 0.72,-0.894 1.693,-1.34 2.92,-1.34 1.466,0 2.506,0.613 3.12,1.84 0.32,-0.561 0.777,-1.007 1.37,-1.34 0.593,-0.334 1.257,-0.5 1.99,-0.5 1.093,0 1.986,0.373 2.68,1.119 0.693,0.747 1.04,1.827 1.04,3.24 v 5.78 c 0,0.134 -0.043,0.243 -0.13,0.33 -0.087,0.087 -0.197,0.13 -0.33,0.13 h -0.86 c -0.133,0 -0.244,-0.043 -0.33,-0.13 -0.087,-0.087 -0.13,-0.196 -0.13,-0.33 v -5.6 c 0,-1.067 -0.22,-1.83 -0.66,-2.29 -0.44,-0.46 -1.02,-0.69 -1.74,-0.69 -0.64,0 -1.19,0.237 -1.65,0.71 -0.46,0.474 -0.69,1.23 -0.69,2.271 v 5.6 c 0,0.134 -0.043,0.243 -0.13,0.33 -0.087,0.087 -0.197,0.13 -0.33,0.13 h -0.88 c -0.133,0 -0.244,-0.043 -0.33,-0.13 -0.087,-0.087 -0.13,-0.196 -0.13,-0.33 v -5.6 c 0,-1.054 -0.23,-1.813 -0.69,-2.28 -0.46,-0.467 -1.03,-0.7 -1.71,-0.7 -0.64,0 -1.19,0.233 -1.65,0.7 -0.46,0.467 -0.69,1.22 -0.69,2.26 v 5.62 c 0,0.134 -0.043,0.243 -0.13,0.33 -0.087,0.087 -0.197,0.13 -0.33,0.13 h -0.88 c -0.133,-10e-4 -0.243,-0.044 -0.33,-0.131 z"
   id="path80" />
					</g>
				</g>
			</g>
		</g>
		<g
   id="g127">
			<g
   id="POLYLINE_579_">
				
					<polyline
   fill="none"
   stroke="#00b9d2"
   stroke-width="2"
   stroke-linecap="round"
   stroke-linejoin="round"
   stroke-miterlimit="10"
   points="      935.784,87.3 929.421,80.937 923.057,87.3     "
   id="polyline89" />
			</g>
			<g
   id="POLYLINE_578_">
				
					<line
   fill="none"
   stroke="#00b9d2"
   stroke-width="2"
   stroke-linecap="round"
   stroke-linejoin="round"
   stroke-miterlimit="10"
   x1="929.42102"
   y1="81.120003"
   x2="929.42102"
   y2="655.88397"
   id="line92" />
			</g>
			<g
   id="POLYLINE_577_">
				
					<polyline
   fill="none"
   stroke="#00b9d2"
   stroke-width="2"
   stroke-linecap="round"
   stroke-linejoin="round"
   stroke-miterlimit="10"
   points="      935.772,649.507 929.409,655.871 923.046,649.507     "
   id="polyline95" />
			</g>
			<g
   id="MTEXT_17_">
				<g
   id="g124">
					<g
   id="g122">
						<path
   fill="#00b9d2"
   d="m 798.815,62.041 c -0.734,-0.36 -1.293,-0.83 -1.68,-1.41 -0.387,-0.58 -0.593,-1.203 -0.62,-1.87 v -0.04 c 0,-0.106 0.04,-0.193 0.12,-0.26 0.08,-0.067 0.173,-0.1 0.28,-0.1 h 0.98 c 0.28,0 0.46,0.146 0.54,0.439 0.2,0.72 0.57,1.257 1.11,1.61 0.54,0.353 1.163,0.529 1.87,0.529 0.907,0 1.66,-0.276 2.26,-0.829 0.6,-0.554 0.9,-1.317 0.9,-2.29 0,-0.894 -0.3,-1.604 -0.9,-2.131 -0.6,-0.526 -1.354,-0.79 -2.26,-0.79 -0.48,0 -0.867,0.061 -1.16,0.181 -0.293,0.12 -0.594,0.293 -0.9,0.52 -0.173,0.134 -0.316,0.23 -0.43,0.29 -0.113,0.061 -0.237,0.09 -0.37,0.09 h -0.96 c -0.12,0 -0.227,-0.043 -0.32,-0.13 -0.094,-0.086 -0.134,-0.189 -0.12,-0.31 l 0.62,-6.66 c 0.04,-0.333 0.207,-0.5 0.5,-0.5 h 6.92 c 0.146,0 0.26,0.04 0.34,0.12 0.08,0.08 0.12,0.193 0.12,0.34 v 0.74 c 0,0.133 -0.043,0.24 -0.13,0.319 -0.087,0.08 -0.197,0.12 -0.33,0.12 h -5.76 l -0.36,4.021 c 0.64,-0.453 1.5,-0.68 2.58,-0.68 0.893,0 1.707,0.177 2.44,0.529 0.733,0.354 1.316,0.87 1.75,1.55 0.433,0.681 0.65,1.487 0.65,2.421 0,0.986 -0.217,1.836 -0.65,2.55 -0.434,0.713 -1.033,1.253 -1.8,1.62 -0.767,0.366 -1.644,0.55 -2.63,0.55 -1,0.001 -1.867,-0.18 -2.6,-0.539 z"
   id="path98" />
						<path
   fill="#00b9d2"
   d="m 808.746,62.25 c -0.087,-0.087 -0.13,-0.196 -0.13,-0.33 v -1.38 c 0,-0.133 0.043,-0.247 0.13,-0.34 0.086,-0.094 0.196,-0.141 0.33,-0.141 h 1.38 c 0.133,0 0.243,0.047 0.33,0.141 0.087,0.093 0.13,0.207 0.13,0.34 v 1.38 c 0,0.134 -0.043,0.243 -0.13,0.33 -0.086,0.087 -0.197,0.13 -0.33,0.13 h -1.38 c -0.134,0 -0.244,-0.043 -0.33,-0.13 z"
   id="path100" />
						<path
   fill="#00b9d2"
   d="m 815.386,61.93 c -0.78,-0.433 -1.374,-1.017 -1.78,-1.75 -0.406,-0.733 -0.61,-1.533 -0.61,-2.399 0,-1.146 0.46,-2.373 1.38,-3.681 l 3.82,-5.319 c 0.013,-0.014 0.05,-0.061 0.11,-0.141 0.06,-0.08 0.137,-0.143 0.23,-0.189 0.093,-0.046 0.2,-0.07 0.32,-0.07 h 0.98 c 0.12,0 0.217,0.043 0.29,0.13 0.073,0.087 0.11,0.19 0.11,0.311 0,0.066 -0.034,0.153 -0.1,0.26 l -2.92,4.08 c 0.346,-0.08 0.733,-0.12 1.16,-0.12 0.973,0 1.83,0.217 2.57,0.649 0.74,0.434 1.313,1.007 1.72,1.721 0.407,0.713 0.61,1.497 0.61,2.35 0,0.854 -0.203,1.65 -0.61,2.39 -0.407,0.74 -0.997,1.33 -1.77,1.771 -0.773,0.441 -1.687,0.66 -2.74,0.66 -1.067,-0.002 -1.99,-0.219 -2.77,-0.653 z m 4.37,-1.37 c 0.493,-0.239 0.886,-0.597 1.18,-1.069 0.293,-0.474 0.44,-1.044 0.44,-1.71 0,-0.653 -0.15,-1.217 -0.45,-1.69 -0.3,-0.473 -0.697,-0.833 -1.19,-1.08 -0.494,-0.246 -1.027,-0.37 -1.6,-0.37 -0.574,0 -1.107,0.124 -1.6,0.37 -0.494,0.247 -0.887,0.607 -1.18,1.08 -0.293,0.474 -0.44,1.037 -0.44,1.69 0,0.666 0.146,1.236 0.44,1.71 0.293,0.473 0.687,0.83 1.18,1.069 0.493,0.24 1.026,0.36 1.6,0.36 0.586,0 1.126,-0.12 1.62,-0.36 z"
   id="path102" />
						<path
   fill="#00b9d2"
   d="m 825.225,51.861 c -0.06,-0.08 -0.077,-0.181 -0.05,-0.301 l 0.44,-2.8 c 0.053,-0.387 0.24,-0.58 0.56,-0.58 h 1.28 c 0.093,0 0.17,0.033 0.23,0.101 0.06,0.066 0.09,0.146 0.09,0.239 0,0.134 -0.02,0.24 -0.06,0.32 l -1.04,2.7 c -0.067,0.146 -0.14,0.257 -0.22,0.33 -0.08,0.073 -0.2,0.109 -0.36,0.109 h -0.62 c -0.107,10e-4 -0.19,-0.039 -0.25,-0.118 z m 3.14,0 c -0.06,-0.08 -0.077,-0.181 -0.05,-0.301 l 0.44,-2.8 c 0.053,-0.387 0.24,-0.58 0.56,-0.58 h 1.28 c 0.093,0 0.17,0.033 0.23,0.101 0.06,0.066 0.09,0.146 0.09,0.239 0,0.134 -0.02,0.24 -0.06,0.32 l -1.04,2.7 c -0.067,0.146 -0.14,0.257 -0.22,0.33 -0.08,0.073 -0.2,0.109 -0.36,0.109 h -0.62 c -0.107,10e-4 -0.19,-0.039 -0.25,-0.118 z"
   id="path104" />
						<path
   fill="#00b9d2"
   d="m 838.235,66.411 c -0.08,-0.087 -0.12,-0.197 -0.12,-0.33 V 44.92 c 0,-0.133 0.04,-0.243 0.12,-0.33 0.08,-0.087 0.187,-0.13 0.32,-0.13 h 0.74 c 0.133,0 0.243,0.043 0.33,0.13 0.087,0.087 0.13,0.197 0.13,0.33 v 21.16 c 0,0.133 -0.043,0.243 -0.13,0.33 -0.086,0.086 -0.197,0.13 -0.33,0.13 h -0.74 c -0.134,10e-4 -0.24,-0.043 -0.32,-0.129 z"
   id="path106" />
						<path
   fill="#00b9d2"
   d="m 851.354,62.25 c -0.08,-0.087 -0.12,-0.196 -0.12,-0.33 V 50.64 l -3.36,2.58 c -0.094,0.08 -0.194,0.12 -0.3,0.12 -0.12,0 -0.233,-0.066 -0.34,-0.2 l -0.48,-0.62 c -0.067,-0.093 -0.1,-0.187 -0.1,-0.279 0,-0.146 0.066,-0.267 0.2,-0.36 l 4.34,-3.36 c 0.146,-0.093 0.32,-0.14 0.52,-0.14 h 0.94 c 0.133,0 0.243,0.043 0.33,0.13 0.086,0.087 0.13,0.197 0.13,0.33 v 13.08 c 0,0.134 -0.043,0.243 -0.13,0.33 -0.087,0.087 -0.197,0.13 -0.33,0.13 h -0.98 c -0.133,-10e-4 -0.24,-0.044 -0.32,-0.131 z"
   id="path108" />
						<path
   fill="#00b9d2"
   d="m 862.364,62.25 c -0.087,-0.087 -0.13,-0.196 -0.13,-0.33 V 59 h -6.5 c -0.133,0 -0.244,-0.043 -0.33,-0.13 -0.087,-0.087 -0.13,-0.197 -0.13,-0.33 V 57.8 c 0,-0.187 0.073,-0.387 0.22,-0.6 l 6.02,-8.48 c 0.067,-0.106 0.167,-0.189 0.3,-0.25 0.133,-0.06 0.28,-0.09 0.44,-0.09 h 1.36 c 0.146,0 0.26,0.04 0.34,0.12 0.08,0.08 0.12,0.193 0.12,0.34 v 8.48 h 1.82 c 0.133,0 0.243,0.043 0.33,0.13 0.087,0.087 0.13,0.196 0.13,0.33 v 0.76 c 0,0.133 -0.043,0.243 -0.13,0.33 -0.087,0.087 -0.197,0.13 -0.33,0.13 h -1.82 v 2.92 c 0,0.134 -0.043,0.243 -0.13,0.33 -0.087,0.087 -0.197,0.13 -0.33,0.13 h -0.92 c -0.133,0 -0.244,-0.043 -0.33,-0.13 z m -5.01,-4.889 h 4.9 V 50.4 Z"
   id="path110" />
						<path
   fill="#00b9d2"
   d="m 868.124,62.25 c -0.087,-0.087 -0.13,-0.196 -0.13,-0.33 v -0.6 c 0,-0.307 0.167,-0.601 0.5,-0.881 l 4.36,-4.34 c 0.987,-0.84 1.667,-1.526 2.04,-2.06 0.373,-0.533 0.56,-1.101 0.56,-1.7 0,-0.786 -0.22,-1.403 -0.66,-1.85 -0.44,-0.447 -1.08,-0.67 -1.92,-0.67 -0.8,0 -1.433,0.233 -1.9,0.699 -0.467,0.467 -0.753,1.094 -0.86,1.88 -0.027,0.147 -0.094,0.261 -0.2,0.341 -0.107,0.08 -0.213,0.12 -0.32,0.12 h -0.96 c -0.12,0 -0.22,-0.04 -0.3,-0.12 -0.08,-0.08 -0.12,-0.174 -0.12,-0.28 0.026,-0.707 0.216,-1.39 0.57,-2.05 0.353,-0.66 0.876,-1.2 1.57,-1.62 0.694,-0.42 1.533,-0.63 2.52,-0.63 1.493,0 2.617,0.39 3.37,1.17 0.753,0.78 1.13,1.77 1.13,2.97 0,0.84 -0.203,1.597 -0.61,2.271 -0.407,0.673 -1.043,1.383 -1.91,2.13 l -3.94,4 h 6.3 c 0.146,0 0.26,0.04 0.34,0.12 0.08,0.079 0.12,0.193 0.12,0.34 v 0.76 c 0,0.134 -0.043,0.243 -0.13,0.33 -0.086,0.087 -0.197,0.13 -0.33,0.13 h -8.76 c -0.133,0 -0.243,-0.043 -0.33,-0.13 z"
   id="path112" />
						<path
   fill="#00b9d2"
   d="m 880.184,62.25 c -0.087,-0.087 -0.13,-0.196 -0.13,-0.33 v -1.38 c 0,-0.133 0.043,-0.247 0.13,-0.34 0.086,-0.094 0.196,-0.141 0.33,-0.141 h 1.38 c 0.133,0 0.243,0.047 0.33,0.141 0.087,0.093 0.13,0.207 0.13,0.34 v 1.38 c 0,0.134 -0.043,0.243 -0.13,0.33 -0.086,0.087 -0.197,0.13 -0.33,0.13 h -1.38 c -0.134,0 -0.243,-0.043 -0.33,-0.13 z"
   id="path114" />
						<path
   fill="#00b9d2"
   d="m 884.804,62.25 c -0.087,-0.087 -0.13,-0.196 -0.13,-0.33 v -0.6 c 0,-0.307 0.167,-0.601 0.5,-0.881 l 4.36,-4.34 c 0.987,-0.84 1.667,-1.526 2.04,-2.06 0.373,-0.533 0.56,-1.101 0.56,-1.7 0,-0.786 -0.22,-1.403 -0.66,-1.85 -0.44,-0.447 -1.08,-0.67 -1.92,-0.67 -0.8,0 -1.433,0.233 -1.9,0.699 -0.467,0.467 -0.753,1.094 -0.86,1.88 -0.027,0.147 -0.094,0.261 -0.2,0.341 -0.107,0.08 -0.213,0.12 -0.32,0.12 h -0.96 c -0.12,0 -0.22,-0.04 -0.3,-0.12 -0.08,-0.08 -0.12,-0.174 -0.12,-0.28 0.026,-0.707 0.216,-1.39 0.57,-2.05 0.353,-0.66 0.876,-1.2 1.57,-1.62 0.694,-0.42 1.533,-0.63 2.52,-0.63 1.493,0 2.617,0.39 3.37,1.17 0.753,0.78 1.13,1.77 1.13,2.97 0,0.84 -0.203,1.597 -0.61,2.271 -0.407,0.673 -1.043,1.383 -1.91,2.13 l -3.94,4 h 6.3 c 0.146,0 0.26,0.04 0.34,0.12 0.08,0.079 0.12,0.193 0.12,0.34 v 0.76 c 0,0.134 -0.043,0.243 -0.13,0.33 -0.086,0.087 -0.197,0.13 -0.33,0.13 h -8.76 c -0.134,0 -0.243,-0.043 -0.33,-0.13 z"
   id="path116" />
						<path
   fill="#00b9d2"
   d="m 901.923,62.25 c -0.087,-0.087 -0.13,-0.196 -0.13,-0.33 v -9.48 c 0,-0.133 0.043,-0.243 0.13,-0.329 0.087,-0.087 0.197,-0.131 0.33,-0.131 h 0.84 c 0.133,0 0.24,0.044 0.32,0.131 0.08,0.086 0.12,0.196 0.12,0.329 v 0.681 c 0.72,-0.894 1.693,-1.34 2.92,-1.34 1.466,0 2.506,0.613 3.12,1.84 0.32,-0.561 0.777,-1.007 1.37,-1.34 0.593,-0.334 1.257,-0.5 1.99,-0.5 1.093,0 1.986,0.373 2.68,1.119 0.693,0.747 1.04,1.827 1.04,3.24 v 5.78 c 0,0.134 -0.043,0.243 -0.13,0.33 -0.087,0.087 -0.197,0.13 -0.33,0.13 h -0.86 c -0.133,0 -0.244,-0.043 -0.33,-0.13 -0.087,-0.087 -0.13,-0.196 -0.13,-0.33 v -5.6 c 0,-1.067 -0.22,-1.83 -0.66,-2.29 -0.44,-0.46 -1.02,-0.69 -1.74,-0.69 -0.64,0 -1.19,0.237 -1.65,0.71 -0.46,0.474 -0.69,1.23 -0.69,2.271 v 5.6 c 0,0.134 -0.043,0.243 -0.13,0.33 -0.087,0.087 -0.197,0.13 -0.33,0.13 h -0.88 c -0.133,0 -0.244,-0.043 -0.33,-0.13 -0.087,-0.087 -0.13,-0.196 -0.13,-0.33 v -5.6 c 0,-1.054 -0.23,-1.813 -0.69,-2.28 -0.46,-0.467 -1.03,-0.7 -1.71,-0.7 -0.64,0 -1.19,0.233 -1.65,0.7 -0.46,0.467 -0.69,1.22 -0.69,2.26 v 5.62 c 0,0.134 -0.043,0.243 -0.13,0.33 -0.087,0.087 -0.197,0.13 -0.33,0.13 h -0.88 c -0.133,-10e-4 -0.243,-0.044 -0.33,-0.131 z"
   id="path118" />
						<path
   fill="#00b9d2"
   d="m 919.683,62.25 c -0.087,-0.087 -0.13,-0.196 -0.13,-0.33 v -9.48 c 0,-0.133 0.043,-0.243 0.13,-0.329 0.087,-0.087 0.197,-0.131 0.33,-0.131 h 0.84 c 0.133,0 0.24,0.044 0.32,0.131 0.08,0.086 0.12,0.196 0.12,0.329 v 0.681 c 0.72,-0.894 1.693,-1.34 2.92,-1.34 1.466,0 2.506,0.613 3.12,1.84 0.32,-0.561 0.777,-1.007 1.37,-1.34 0.593,-0.334 1.257,-0.5 1.99,-0.5 1.093,0 1.986,0.373 2.68,1.119 0.693,0.747 1.04,1.827 1.04,3.24 v 5.78 c 0,0.134 -0.043,0.243 -0.13,0.33 -0.087,0.087 -0.197,0.13 -0.33,0.13 h -0.86 c -0.133,0 -0.244,-0.043 -0.33,-0.13 -0.087,-0.087 -0.13,-0.196 -0.13,-0.33 v -5.6 c 0,-1.067 -0.22,-1.83 -0.66,-2.29 -0.44,-0.46 -1.02,-0.69 -1.74,-0.69 -0.64,0 -1.19,0.237 -1.65,0.71 -0.46,0.474 -0.69,1.23 -0.69,2.271 v 5.6 c 0,0.134 -0.043,0.243 -0.13,0.33 -0.087,0.087 -0.197,0.13 -0.33,0.13 h -0.88 c -0.133,0 -0.244,-0.043 -0.33,-0.13 -0.087,-0.087 -0.13,-0.196 -0.13,-0.33 v -5.6 c 0,-1.054 -0.23,-1.813 -0.69,-2.28 -0.46,-0.467 -1.03,-0.7 -1.71,-0.7 -0.64,0 -1.19,0.233 -1.65,0.7 -0.46,0.467 -0.69,1.22 -0.69,2.26 v 5.62 c 0,0.134 -0.043,0.243 -0.13,0.33 -0.087,0.087 -0.197,0.13 -0.33,0.13 h -0.88 c -0.133,-10e-4 -0.243,-0.044 -0.33,-0.131 z"
   id="path120" />
					</g>
				</g>
			</g>
		</g>
	</g>
	<g
   display="inline"
   id="g254">
		<g
   id="g145">
			<g
   id="g143">
				<path
   fill="#00b9d2"
   d="m 289.539,153.362 c -0.079,-0.078 -0.117,-0.177 -0.117,-0.297 v -2.628 h -5.851 c -0.12,0 -0.219,-0.039 -0.297,-0.117 -0.078,-0.078 -0.117,-0.177 -0.117,-0.297 v -0.666 c 0,-0.168 0.066,-0.348 0.198,-0.54 l 5.418,-7.632 c 0.061,-0.096 0.15,-0.171 0.271,-0.225 0.119,-0.054 0.252,-0.081 0.396,-0.081 h 1.225 c 0.132,0 0.233,0.036 0.306,0.108 0.072,0.072 0.107,0.174 0.107,0.306 v 7.632 h 1.639 c 0.119,0 0.219,0.039 0.297,0.117 0.078,0.078 0.117,0.177 0.117,0.297 v 0.684 c 0,0.12 -0.039,0.219 -0.117,0.297 -0.078,0.078 -0.178,0.117 -0.297,0.117 h -1.639 v 2.628 c 0,0.12 -0.039,0.219 -0.116,0.297 -0.078,0.078 -0.178,0.117 -0.297,0.117 h -0.828 c -0.121,0 -0.221,-0.039 -0.298,-0.117 z m -4.51,-4.401 h 4.41 v -6.265 z"
   id="path131" />
				<path
   fill="#00b9d2"
   d="m 296.622,153.2 c -0.685,-0.306 -1.204,-0.704 -1.558,-1.196 -0.354,-0.492 -0.543,-1.002 -0.566,-1.53 0,-0.108 0.035,-0.195 0.107,-0.261 0.072,-0.066 0.162,-0.1 0.271,-0.1 h 0.81 c 0.132,0 0.24,0.027 0.324,0.081 0.084,0.054 0.149,0.159 0.198,0.315 0.155,0.611 0.494,1.044 1.017,1.296 0.523,0.252 1.137,0.378 1.845,0.378 0.864,0 1.551,-0.207 2.062,-0.621 0.51,-0.414 0.765,-1.005 0.765,-1.773 0,-1.464 -0.894,-2.195 -2.682,-2.195 h -1.692 c -0.12,0 -0.219,-0.039 -0.297,-0.117 -0.078,-0.078 -0.117,-0.177 -0.117,-0.297 v -0.468 c 0,-0.181 0.066,-0.336 0.198,-0.469 l 3.51,-3.888 h -5.328 c -0.12,0 -0.219,-0.036 -0.297,-0.108 -0.078,-0.072 -0.117,-0.168 -0.117,-0.288 v -0.648 c 0,-0.132 0.039,-0.237 0.117,-0.315 0.078,-0.078 0.177,-0.117 0.297,-0.117 h 7.128 c 0.132,0 0.237,0.039 0.315,0.117 0.078,0.078 0.117,0.183 0.117,0.315 v 0.594 c 0,0.132 -0.061,0.27 -0.181,0.414 l -3.51,3.942 h 0.288 c 1.225,0.036 2.193,0.354 2.907,0.954 0.714,0.6 1.071,1.476 1.071,2.628 0,0.792 -0.195,1.473 -0.585,2.043 -0.391,0.57 -0.934,1.008 -1.63,1.313 -0.695,0.307 -1.481,0.459 -2.357,0.459 -0.937,0.001 -1.746,-0.152 -2.43,-0.458 z"
   id="path133" />
				<path
   fill="#00b9d2"
   d="m 307.754,153.2 c -0.714,-0.306 -1.269,-0.747 -1.665,-1.322 -0.396,-0.576 -0.594,-1.248 -0.594,-2.017 0,-0.708 0.177,-1.329 0.531,-1.863 0.354,-0.533 0.831,-0.944 1.431,-1.232 -0.479,-0.276 -0.852,-0.639 -1.116,-1.089 -0.264,-0.45 -0.396,-0.981 -0.396,-1.594 0,-1.044 0.39,-1.869 1.17,-2.475 0.78,-0.606 1.806,-0.909 3.078,-0.909 1.271,0 2.295,0.3 3.069,0.9 0.773,0.6 1.16,1.428 1.16,2.483 0,0.601 -0.132,1.125 -0.396,1.575 -0.264,0.45 -0.63,0.819 -1.098,1.107 0.6,0.288 1.076,0.699 1.431,1.232 0.354,0.534 0.531,1.161 0.531,1.882 0,0.768 -0.198,1.437 -0.595,2.007 -0.396,0.57 -0.951,1.008 -1.665,1.313 -0.714,0.307 -1.526,0.459 -2.438,0.459 -0.912,0 -1.724,-0.151 -2.438,-0.457 z m 4.572,-1.593 c 0.57,-0.432 0.855,-1.008 0.855,-1.728 0,-0.721 -0.285,-1.297 -0.855,-1.729 -0.57,-0.432 -1.281,-0.647 -2.133,-0.647 -0.864,0 -1.581,0.216 -2.151,0.647 -0.569,0.432 -0.854,1.008 -0.854,1.729 0,0.72 0.285,1.296 0.854,1.728 0.57,0.432 1.287,0.648 2.151,0.648 0.852,0 1.563,-0.216 2.133,-0.648 z m -0.279,-6.048 c 0.505,-0.36 0.757,-0.84 0.757,-1.44 0,-0.611 -0.25,-1.101 -0.747,-1.467 -0.498,-0.366 -1.119,-0.549 -1.863,-0.549 -0.756,0 -1.38,0.183 -1.872,0.549 -0.492,0.366 -0.738,0.855 -0.738,1.467 0,0.612 0.246,1.102 0.738,1.468 0.492,0.366 1.116,0.549 1.872,0.549 0.731,-0.025 1.349,-0.217 1.853,-0.577 z"
   id="path135" />
				<path
   fill="#00b9d2"
   d="m 321.812,156.791 c -0.078,-0.071 -0.117,-0.174 -0.117,-0.306 v -11.952 c 0,-0.132 0.039,-0.233 0.117,-0.306 0.077,-0.072 0.177,-0.108 0.297,-0.108 h 0.756 c 0.132,0 0.234,0.036 0.306,0.108 0.072,0.072 0.108,0.174 0.108,0.306 v 0.792 c 0.695,-0.924 1.686,-1.386 2.97,-1.386 1.26,0 2.205,0.399 2.835,1.197 0.63,0.798 0.963,1.815 0.999,3.051 0.012,0.132 0.019,0.336 0.019,0.612 0,0.275 -0.007,0.479 -0.019,0.611 -0.036,1.225 -0.369,2.238 -0.999,3.042 -0.63,0.805 -1.575,1.206 -2.835,1.206 -1.284,0 -2.256,-0.456 -2.916,-1.368 v 4.194 c 0,0.12 -0.039,0.219 -0.117,0.297 -0.078,0.078 -0.177,0.117 -0.297,0.117 h -0.81 c -0.12,0.001 -0.219,-0.035 -0.297,-0.107 z m 5.985,-5.346 c 0.396,-0.54 0.612,-1.248 0.648,-2.124 0.012,-0.119 0.018,-0.294 0.018,-0.521 0,-2.305 -0.852,-3.456 -2.556,-3.456 -0.84,0 -1.474,0.278 -1.899,0.837 -0.426,0.558 -0.65,1.215 -0.675,1.971 -0.012,0.132 -0.018,0.366 -0.018,0.702 0,0.336 0.006,0.57 0.018,0.702 0.024,0.731 0.255,1.365 0.693,1.898 0.438,0.534 1.064,0.802 1.881,0.802 0.864,-0.001 1.494,-0.271 1.89,-0.811 z"
   id="path137" />
				<path
   fill="#00b9d2"
   d="m 332.504,156.791 c -0.078,-0.071 -0.117,-0.174 -0.117,-0.306 v -11.952 c 0,-0.132 0.039,-0.233 0.117,-0.306 0.077,-0.072 0.177,-0.108 0.297,-0.108 h 0.756 c 0.132,0 0.234,0.036 0.306,0.108 0.072,0.072 0.108,0.174 0.108,0.306 v 0.792 c 0.695,-0.924 1.686,-1.386 2.97,-1.386 1.26,0 2.205,0.399 2.835,1.197 0.63,0.798 0.963,1.815 0.999,3.051 0.012,0.132 0.019,0.336 0.019,0.612 0,0.275 -0.007,0.479 -0.019,0.611 -0.036,1.225 -0.369,2.238 -0.999,3.042 -0.63,0.805 -1.575,1.206 -2.835,1.206 -1.284,0 -2.256,-0.456 -2.916,-1.368 v 4.194 c 0,0.12 -0.039,0.219 -0.117,0.297 -0.078,0.078 -0.177,0.117 -0.297,0.117 h -0.81 c -0.12,0.001 -0.22,-0.035 -0.297,-0.107 z m 5.984,-5.346 c 0.396,-0.54 0.612,-1.248 0.648,-2.124 0.012,-0.119 0.018,-0.294 0.018,-0.521 0,-2.305 -0.852,-3.456 -2.556,-3.456 -0.84,0 -1.474,0.278 -1.899,0.837 -0.426,0.558 -0.65,1.215 -0.675,1.971 -0.012,0.132 -0.018,0.366 -0.018,0.702 0,0.336 0.006,0.57 0.018,0.702 0.024,0.731 0.255,1.365 0.693,1.898 0.438,0.534 1.064,0.802 1.881,0.802 0.865,-0.001 1.495,-0.271 1.89,-0.811 z"
   id="path139" />
				<path
   fill="#00b9d2"
   d="m 343.034,142.238 c -0.078,-0.078 -0.117,-0.177 -0.117,-0.297 v -0.936 c 0,-0.12 0.039,-0.222 0.117,-0.306 0.078,-0.084 0.177,-0.126 0.297,-0.126 h 1.062 c 0.12,0 0.223,0.042 0.307,0.126 0.084,0.084 0.126,0.186 0.126,0.306 v 0.936 c 0,0.12 -0.042,0.219 -0.126,0.297 -0.084,0.079 -0.187,0.117 -0.307,0.117 h -1.062 c -0.12,0 -0.219,-0.039 -0.297,-0.117 z m 0.144,11.124 c -0.078,-0.078 -0.117,-0.177 -0.117,-0.297 v -8.532 c 0,-0.119 0.039,-0.219 0.117,-0.297 0.078,-0.078 0.177,-0.117 0.297,-0.117 h 0.792 c 0.12,0 0.219,0.039 0.297,0.117 0.078,0.078 0.117,0.178 0.117,0.297 v 8.532 c 0,0.12 -0.039,0.219 -0.117,0.297 -0.078,0.078 -0.177,0.117 -0.297,0.117 h -0.792 c -0.121,0 -0.219,-0.039 -0.297,-0.117 z"
   id="path141" />
			</g>
		</g>
		<g
   id="g190">
			<g
   id="MTEXT_9_">
				<g
   id="g173">
					<g
   id="g171">
						<g
   id="g169">
							<path
   fill="#00b9d2"
   d="m 227.498,386.173 c -0.66,-0.324 -1.164,-0.747 -1.513,-1.27 -0.348,-0.521 -0.534,-1.083 -0.558,-1.683 v -0.036 c 0,-0.096 0.036,-0.174 0.107,-0.234 0.072,-0.06 0.156,-0.09 0.253,-0.09 h 0.882 c 0.252,0 0.414,0.133 0.485,0.396 0.181,0.647 0.514,1.131 0.999,1.448 0.486,0.318 1.047,0.478 1.684,0.478 0.815,0 1.494,-0.249 2.034,-0.747 0.539,-0.498 0.81,-1.185 0.81,-2.061 0,-0.805 -0.271,-1.443 -0.81,-1.918 -0.54,-0.474 -1.219,-0.711 -2.034,-0.711 -0.433,0 -0.78,0.055 -1.044,0.162 -0.265,0.108 -0.534,0.265 -0.811,0.469 -0.156,0.12 -0.285,0.207 -0.387,0.261 -0.103,0.054 -0.213,0.081 -0.333,0.081 h -0.864 c -0.107,0 -0.204,-0.039 -0.288,-0.117 -0.084,-0.078 -0.12,-0.171 -0.107,-0.279 l 0.558,-5.994 c 0.036,-0.3 0.186,-0.45 0.45,-0.45 h 6.228 c 0.132,0 0.234,0.036 0.307,0.108 0.071,0.072 0.107,0.174 0.107,0.306 v 0.666 c 0,0.12 -0.039,0.216 -0.117,0.288 -0.078,0.072 -0.177,0.108 -0.297,0.108 h -5.184 l -0.324,3.618 c 0.576,-0.408 1.351,-0.612 2.322,-0.612 0.804,0 1.536,0.159 2.196,0.478 0.659,0.317 1.185,0.782 1.574,1.395 0.391,0.612 0.585,1.338 0.585,2.178 0,0.889 -0.194,1.653 -0.585,2.295 -0.39,0.643 -0.93,1.129 -1.619,1.458 -0.69,0.33 -1.479,0.495 -2.367,0.495 -0.899,0 -1.68,-0.162 -2.339,-0.486 z"
   id="path147" />
							<path
   fill="#00b9d2"
   d="m 236.435,386.362 c -0.078,-0.078 -0.117,-0.177 -0.117,-0.297 v -1.242 c 0,-0.119 0.039,-0.222 0.117,-0.306 0.078,-0.084 0.177,-0.126 0.297,-0.126 h 1.242 c 0.12,0 0.219,0.042 0.297,0.126 0.078,0.084 0.117,0.187 0.117,0.306 v 1.242 c 0,0.12 -0.039,0.219 -0.117,0.297 -0.078,0.078 -0.177,0.117 -0.297,0.117 h -1.242 c -0.121,0 -0.219,-0.039 -0.297,-0.117 z"
   id="path149" />
							<path
   fill="#00b9d2"
   d="m 242.681,386.2 c -0.714,-0.306 -1.269,-0.747 -1.665,-1.322 -0.396,-0.576 -0.594,-1.248 -0.594,-2.017 0,-0.708 0.177,-1.329 0.531,-1.863 0.354,-0.533 0.831,-0.944 1.431,-1.232 -0.479,-0.276 -0.852,-0.639 -1.116,-1.089 -0.264,-0.45 -0.396,-0.981 -0.396,-1.594 0,-1.044 0.39,-1.869 1.17,-2.475 0.78,-0.606 1.806,-0.909 3.078,-0.909 1.271,0 2.295,0.3 3.069,0.9 0.773,0.6 1.16,1.428 1.16,2.483 0,0.601 -0.132,1.125 -0.396,1.575 -0.264,0.45 -0.63,0.819 -1.098,1.107 0.6,0.288 1.076,0.699 1.431,1.232 0.354,0.534 0.531,1.161 0.531,1.882 0,0.768 -0.198,1.437 -0.595,2.007 -0.396,0.57 -0.951,1.008 -1.665,1.313 -0.714,0.307 -1.526,0.459 -2.438,0.459 -0.912,0 -1.724,-0.151 -2.438,-0.457 z m 4.572,-1.593 c 0.57,-0.432 0.855,-1.008 0.855,-1.728 0,-0.721 -0.285,-1.297 -0.855,-1.729 -0.57,-0.432 -1.281,-0.647 -2.133,-0.647 -0.864,0 -1.581,0.216 -2.151,0.647 -0.569,0.432 -0.854,1.008 -0.854,1.729 0,0.72 0.285,1.296 0.854,1.728 0.57,0.432 1.287,0.648 2.151,0.648 0.852,0 1.563,-0.216 2.133,-0.648 z m -0.279,-6.048 c 0.505,-0.36 0.757,-0.84 0.757,-1.44 0,-0.611 -0.25,-1.101 -0.747,-1.467 -0.498,-0.366 -1.119,-0.549 -1.863,-0.549 -0.756,0 -1.38,0.183 -1.872,0.549 -0.492,0.366 -0.738,0.855 -0.738,1.467 0,0.612 0.246,1.102 0.738,1.468 0.492,0.366 1.116,0.549 1.872,0.549 0.731,-0.025 1.349,-0.217 1.853,-0.577 z"
   id="path151" />
							<path
   fill="#00b9d2"
   d="m 251.914,377.011 c -0.054,-0.072 -0.069,-0.162 -0.045,-0.271 l 0.396,-2.52 c 0.048,-0.348 0.216,-0.522 0.504,-0.522 h 1.151 c 0.084,0 0.153,0.03 0.207,0.09 0.055,0.06 0.081,0.132 0.081,0.216 0,0.12 -0.018,0.216 -0.054,0.288 l -0.937,2.43 c -0.06,0.132 -0.126,0.231 -0.197,0.297 -0.072,0.066 -0.181,0.099 -0.324,0.099 h -0.558 c -0.095,0.001 -0.17,-0.035 -0.224,-0.107 z m 2.826,0 c -0.054,-0.072 -0.069,-0.162 -0.045,-0.271 l 0.396,-2.52 c 0.048,-0.348 0.217,-0.522 0.504,-0.522 h 1.152 c 0.084,0 0.153,0.03 0.207,0.09 0.054,0.06 0.081,0.132 0.081,0.216 0,0.12 -0.018,0.216 -0.054,0.288 l -0.937,2.43 c -0.06,0.132 -0.126,0.231 -0.197,0.297 -0.072,0.066 -0.181,0.099 -0.324,0.099 h -0.559 c -0.095,0.001 -0.17,-0.035 -0.224,-0.107 z"
   id="path153" />
							<path
   fill="#00b9d2"
   d="m 229.279,405.961 c -0.071,-0.078 -0.107,-0.177 -0.107,-0.297 v -10.152 l -3.024,2.322 c -0.084,0.072 -0.174,0.108 -0.27,0.108 -0.108,0 -0.21,-0.061 -0.307,-0.181 l -0.432,-0.558 c -0.061,-0.084 -0.09,-0.168 -0.09,-0.252 0,-0.132 0.06,-0.24 0.18,-0.324 l 3.906,-3.023 c 0.132,-0.084 0.288,-0.126 0.468,-0.126 h 0.846 c 0.12,0 0.219,0.039 0.298,0.116 0.077,0.078 0.116,0.178 0.116,0.298 v 11.771 c 0,0.12 -0.039,0.219 -0.116,0.297 -0.079,0.078 -0.178,0.117 -0.298,0.117 h -0.882 c -0.12,0.002 -0.215,-0.037 -0.288,-0.116 z"
   id="path155" />
							<path
   fill="#00b9d2"
   d="m 239.188,405.961 c -0.079,-0.078 -0.117,-0.177 -0.117,-0.297 v -2.628 h -5.851 c -0.12,0 -0.219,-0.039 -0.297,-0.117 -0.078,-0.078 -0.117,-0.177 -0.117,-0.297 v -0.666 c 0,-0.168 0.066,-0.348 0.198,-0.54 l 5.418,-7.632 c 0.061,-0.096 0.15,-0.171 0.271,-0.225 0.119,-0.055 0.252,-0.081 0.396,-0.081 h 1.225 c 0.132,0 0.233,0.035 0.306,0.107 0.073,0.072 0.107,0.174 0.107,0.307 v 7.632 h 1.639 c 0.119,0 0.219,0.039 0.297,0.117 0.078,0.078 0.117,0.177 0.117,0.297 v 0.684 c 0,0.12 -0.039,0.219 -0.117,0.297 -0.078,0.078 -0.178,0.117 -0.297,0.117 h -1.639 v 2.628 c 0,0.12 -0.039,0.219 -0.116,0.297 -0.078,0.078 -0.178,0.117 -0.297,0.117 h -0.828 c -0.121,0.001 -0.22,-0.038 -0.298,-0.117 z m -4.509,-4.4 h 4.41 v -6.265 z"
   id="path157" />
							<path
   fill="#00b9d2"
   d="m 245.489,405.961 c -0.066,-0.078 -0.1,-0.171 -0.1,-0.279 l 0.036,-0.161 4.5,-10.53 h -5.94 c -0.12,0 -0.219,-0.039 -0.297,-0.117 -0.078,-0.078 -0.116,-0.177 -0.116,-0.297 v -0.666 c 0,-0.132 0.035,-0.237 0.107,-0.315 0.072,-0.077 0.174,-0.116 0.306,-0.116 h 7.345 c 0.132,0 0.233,0.039 0.306,0.116 0.072,0.078 0.108,0.184 0.108,0.315 v 0.612 c 0,0.216 -0.049,0.449 -0.145,0.702 l -4.446,10.403 c -0.06,0.133 -0.126,0.24 -0.197,0.324 -0.072,0.084 -0.175,0.126 -0.307,0.126 h -0.899 c -0.108,0.001 -0.195,-0.038 -0.261,-0.117 z"
   id="path159" />
							<path
   fill="#00b9d2"
   d="m 252.382,405.961 c -0.078,-0.078 -0.117,-0.177 -0.117,-0.297 v -1.242 c 0,-0.119 0.039,-0.222 0.117,-0.306 0.078,-0.084 0.177,-0.126 0.297,-0.126 h 1.242 c 0.12,0 0.219,0.042 0.297,0.126 0.078,0.084 0.117,0.187 0.117,0.306 v 1.242 c 0,0.12 -0.039,0.219 -0.117,0.297 -0.078,0.078 -0.177,0.117 -0.297,0.117 h -1.242 c -0.12,0.001 -0.219,-0.038 -0.297,-0.117 z"
   id="path161" />
							<path
   fill="#00b9d2"
   d="m 258.439,405.799 c -0.685,-0.306 -1.204,-0.704 -1.558,-1.196 -0.354,-0.492 -0.543,-1.002 -0.566,-1.53 0,-0.108 0.035,-0.195 0.107,-0.261 0.072,-0.066 0.162,-0.1 0.271,-0.1 h 0.81 c 0.132,0 0.24,0.027 0.324,0.081 0.084,0.054 0.149,0.159 0.198,0.315 0.155,0.611 0.494,1.044 1.017,1.296 0.523,0.252 1.137,0.378 1.845,0.378 0.864,0 1.551,-0.207 2.062,-0.621 0.51,-0.414 0.765,-1.005 0.765,-1.773 0,-1.464 -0.894,-2.195 -2.682,-2.195 h -1.692 c -0.12,0 -0.219,-0.039 -0.297,-0.117 -0.078,-0.078 -0.117,-0.177 -0.117,-0.297 v -0.468 c 0,-0.181 0.066,-0.336 0.198,-0.469 l 3.51,-3.888 h -5.328 c -0.12,0 -0.219,-0.036 -0.297,-0.108 -0.078,-0.071 -0.117,-0.168 -0.117,-0.287 v -0.648 c 0,-0.132 0.039,-0.237 0.117,-0.315 0.078,-0.077 0.177,-0.116 0.297,-0.116 h 7.128 c 0.132,0 0.237,0.039 0.315,0.116 0.078,0.078 0.117,0.184 0.117,0.315 v 0.594 c 0,0.133 -0.061,0.271 -0.181,0.414 l -3.51,3.942 h 0.288 c 1.225,0.036 2.193,0.354 2.907,0.954 0.714,0.6 1.071,1.476 1.071,2.628 0,0.792 -0.195,1.473 -0.585,2.043 -0.391,0.57 -0.934,1.008 -1.63,1.313 -0.695,0.307 -1.481,0.459 -2.357,0.459 -0.936,0 -1.746,-0.152 -2.43,-0.459 z"
   id="path163" />
							<path
   fill="#00b9d2"
   d="m 272.2,405.961 c -0.078,-0.078 -0.117,-0.177 -0.117,-0.297 v -8.532 c 0,-0.119 0.039,-0.219 0.117,-0.297 0.078,-0.078 0.177,-0.117 0.297,-0.117 h 0.756 c 0.12,0 0.217,0.039 0.288,0.117 0.072,0.078 0.108,0.178 0.108,0.297 v 0.612 c 0.648,-0.804 1.523,-1.206 2.628,-1.206 1.32,0 2.256,0.552 2.808,1.656 0.288,-0.504 0.699,-0.906 1.233,-1.206 0.534,-0.3 1.131,-0.45 1.791,-0.45 0.983,0 1.788,0.336 2.412,1.008 0.624,0.673 0.936,1.645 0.936,2.916 v 5.202 c 0,0.12 -0.039,0.219 -0.116,0.297 -0.078,0.078 -0.178,0.117 -0.298,0.117 h -0.773 c -0.12,0 -0.219,-0.039 -0.297,-0.117 -0.078,-0.078 -0.117,-0.177 -0.117,-0.297 v -5.04 c 0,-0.96 -0.198,-1.646 -0.594,-2.061 -0.396,-0.414 -0.918,-0.621 -1.566,-0.621 -0.576,0 -1.071,0.213 -1.485,0.639 -0.413,0.426 -0.62,1.107 -0.62,2.043 v 5.04 c 0,0.12 -0.039,0.219 -0.117,0.297 -0.078,0.078 -0.178,0.117 -0.297,0.117 h -0.792 c -0.12,0 -0.22,-0.039 -0.298,-0.117 -0.078,-0.078 -0.116,-0.177 -0.116,-0.297 v -5.04 c 0,-0.947 -0.207,-1.632 -0.621,-2.052 -0.414,-0.42 -0.927,-0.63 -1.539,-0.63 -0.576,0 -1.071,0.21 -1.485,0.63 -0.414,0.42 -0.621,1.098 -0.621,2.034 v 5.058 c 0,0.12 -0.039,0.219 -0.117,0.297 -0.078,0.078 -0.177,0.117 -0.297,0.117 h -0.792 c -0.122,0.001 -0.221,-0.038 -0.299,-0.117 z"
   id="path165" />
							<path
   fill="#00b9d2"
   d="m 288.184,405.961 c -0.078,-0.078 -0.117,-0.177 -0.117,-0.297 v -8.532 c 0,-0.119 0.039,-0.219 0.117,-0.297 0.078,-0.078 0.177,-0.117 0.297,-0.117 h 0.756 c 0.12,0 0.217,0.039 0.288,0.117 0.072,0.078 0.108,0.178 0.108,0.297 v 0.612 c 0.648,-0.804 1.523,-1.206 2.628,-1.206 1.32,0 2.256,0.552 2.808,1.656 0.288,-0.504 0.699,-0.906 1.233,-1.206 0.534,-0.3 1.131,-0.45 1.791,-0.45 0.983,0 1.788,0.336 2.412,1.008 0.624,0.673 0.936,1.645 0.936,2.916 v 5.202 c 0,0.12 -0.039,0.219 -0.116,0.297 -0.078,0.078 -0.178,0.117 -0.298,0.117 h -0.773 c -0.12,0 -0.219,-0.039 -0.297,-0.117 -0.078,-0.078 -0.117,-0.177 -0.117,-0.297 v -5.04 c 0,-0.96 -0.198,-1.646 -0.594,-2.061 -0.396,-0.414 -0.918,-0.621 -1.566,-0.621 -0.576,0 -1.071,0.213 -1.485,0.639 -0.413,0.426 -0.62,1.107 -0.62,2.043 v 5.04 c 0,0.12 -0.039,0.219 -0.117,0.297 -0.078,0.078 -0.178,0.117 -0.297,0.117 h -0.792 c -0.12,0 -0.22,-0.039 -0.298,-0.117 -0.078,-0.078 -0.116,-0.177 -0.116,-0.297 v -5.04 c 0,-0.947 -0.207,-1.632 -0.621,-2.052 -0.414,-0.42 -0.927,-0.63 -1.539,-0.63 -0.576,0 -1.071,0.21 -1.485,0.63 -0.414,0.42 -0.621,1.098 -0.621,2.034 v 5.058 c 0,0.12 -0.039,0.219 -0.117,0.297 -0.078,0.078 -0.177,0.117 -0.297,0.117 h -0.792 c -0.123,0.001 -0.221,-0.038 -0.299,-0.117 z"
   id="path167" />
						</g>
					</g>
				</g>
			</g>
			<g
   id="g188">
				<g
   id="POLYLINE_152_">
					
						<line
   fill="none"
   stroke="#00b9d2"
   stroke-width="2"
   stroke-linecap="round"
   stroke-linejoin="round"
   stroke-miterlimit="10"
   x1="345.90799"
   y1="621.51501"
   x2="256.11099"
   y2="418.02899"
   id="line176" />
				</g>
				<g
   id="POLYLINE_151_">
					
						<line
   fill="none"
   stroke="#00b9d2"
   stroke-width="2"
   stroke-linecap="round"
   stroke-linejoin="round"
   stroke-miterlimit="10"
   x1="230.69099"
   y1="359.729"
   x2="121.983"
   y2="114.625"
   id="line179" />
				</g>
				<g
   id="POLYLINE_148_">
					
						<polyline
   fill="none"
   stroke="#00b9d2"
   stroke-width="2"
   stroke-linecap="round"
   stroke-linejoin="round"
   stroke-miterlimit="10"
   points="       348.891,613.025 345.908,621.515 337.418,618.532      "
   id="polyline182" />
				</g>
				<g
   id="POLYLINE_147_">
					
						<polyline
   fill="none"
   stroke="#00b9d2"
   stroke-width="2"
   stroke-linecap="round"
   stroke-linejoin="round"
   stroke-miterlimit="10"
   points="       119,123.115 121.983,114.625 130.473,117.608      "
   id="polyline185" />
				</g>
			</g>
		</g>
		<g
   id="g221">
			<g
   id="POLYLINE_146_">
				
					<polyline
   fill="none"
   stroke="#00b9d2"
   stroke-width="2"
   stroke-linecap="round"
   stroke-linejoin="round"
   stroke-miterlimit="10"
   points="      346.753,576.004 353.116,582.367 346.753,588.73     "
   id="polyline192" />
			</g>
			<g
   id="POLYLINE_145_">
				
					<line
   fill="none"
   stroke="#00b9d2"
   stroke-width="2"
   stroke-linecap="round"
   stroke-linejoin="round"
   stroke-miterlimit="10"
   x1="353.116"
   y1="582.367"
   x2="282"
   y2="582.367"
   id="line195" />
			</g>
			<g
   id="POLYLINE_138_">
				
					<line
   fill="none"
   stroke="#00b9d2"
   stroke-width="2"
   stroke-linecap="round"
   stroke-linejoin="round"
   stroke-miterlimit="10"
   x1="203.91"
   y1="582.367"
   x2="118.809"
   y2="582.367"
   id="line198" />
			</g>
			<g
   id="POLYLINE_136_">
				
					<polyline
   fill="none"
   stroke="#00b9d2"
   stroke-width="2"
   stroke-linecap="round"
   stroke-linejoin="round"
   stroke-miterlimit="10"
   points="      125.186,576.015 118.821,582.379 125.186,588.742     "
   id="polyline201" />
			</g>
			<g
   id="MTEXT_6_">
				<g
   id="g218">
					<g
   id="g216">
						<path
   fill="#00b9d2"
   d="m 212.125,588.226 c -0.072,-0.078 -0.108,-0.177 -0.108,-0.297 v -10.152 l -3.024,2.322 c -0.084,0.072 -0.174,0.108 -0.27,0.108 -0.108,0 -0.21,-0.061 -0.306,-0.181 l -0.432,-0.558 c -0.06,-0.084 -0.09,-0.168 -0.09,-0.252 0,-0.132 0.06,-0.24 0.18,-0.324 l 3.906,-3.023 c 0.132,-0.084 0.288,-0.126 0.468,-0.126 h 0.846 c 0.12,0 0.219,0.039 0.297,0.116 0.078,0.078 0.117,0.178 0.117,0.298 v 11.771 c 0,0.12 -0.039,0.219 -0.117,0.297 -0.078,0.078 -0.177,0.117 -0.297,0.117 h -0.882 c -0.12,10e-4 -0.216,-0.038 -0.288,-0.116 z"
   id="path204" />
						<path
   fill="#00b9d2"
   d="m 217.39,587.165 c -0.714,-0.906 -1.095,-2.091 -1.143,-3.556 l -0.018,-1.548 0.018,-1.602 c 0.036,-1.452 0.417,-2.631 1.143,-3.537 0.726,-0.906 1.857,-1.359 3.393,-1.359 1.548,0 2.685,0.453 3.411,1.359 0.726,0.906 1.107,2.085 1.143,3.537 0.012,0.336 0.018,0.87 0.018,1.602 0,0.708 -0.006,1.225 -0.018,1.548 -0.048,1.465 -0.429,2.649 -1.143,3.556 -0.714,0.906 -1.851,1.358 -3.411,1.358 -1.548,0 -2.679,-0.452 -3.393,-1.358 z m 5.481,-1.054 c 0.468,-0.611 0.714,-1.476 0.738,-2.592 0.012,-0.348 0.018,-0.846 0.018,-1.494 0,-0.659 -0.006,-1.151 -0.018,-1.476 -0.024,-1.104 -0.273,-1.965 -0.747,-2.583 -0.474,-0.618 -1.167,-0.927 -2.079,-0.927 -0.912,0 -1.602,0.309 -2.07,0.927 -0.468,0.618 -0.714,1.479 -0.738,2.583 l -0.018,1.476 0.018,1.494 c 0.024,1.116 0.27,1.98 0.738,2.592 0.468,0.612 1.158,0.918 2.07,0.918 0.924,0 1.62,-0.306 2.088,-0.918 z"
   id="path206" />
						<path
   fill="#00b9d2"
   d="m 229.756,588.064 c -0.714,-0.306 -1.269,-0.747 -1.665,-1.322 -0.396,-0.576 -0.594,-1.248 -0.594,-2.017 0,-0.708 0.177,-1.329 0.531,-1.863 0.354,-0.533 0.831,-0.944 1.431,-1.232 -0.48,-0.276 -0.853,-0.639 -1.116,-1.089 -0.264,-0.45 -0.396,-0.981 -0.396,-1.594 0,-1.044 0.39,-1.868 1.17,-2.475 0.78,-0.605 1.806,-0.909 3.078,-0.909 1.272,0 2.295,0.301 3.069,0.9 0.774,0.599 1.161,1.428 1.161,2.483 0,0.601 -0.132,1.125 -0.396,1.575 -0.264,0.45 -0.63,0.819 -1.098,1.107 0.6,0.288 1.077,0.699 1.431,1.232 0.354,0.534 0.531,1.161 0.531,1.882 0,0.768 -0.198,1.437 -0.594,2.007 -0.396,0.57 -0.951,1.008 -1.665,1.313 -0.714,0.307 -1.527,0.459 -2.439,0.459 -0.912,0.002 -1.725,-0.15 -2.439,-0.457 z m 4.572,-1.593 c 0.57,-0.432 0.855,-1.008 0.855,-1.728 0,-0.721 -0.285,-1.297 -0.855,-1.729 -0.57,-0.432 -1.281,-0.647 -2.133,-0.647 -0.864,0 -1.581,0.216 -2.151,0.647 -0.57,0.432 -0.855,1.008 -0.855,1.729 0,0.72 0.285,1.296 0.855,1.728 0.57,0.432 1.287,0.648 2.151,0.648 0.852,10e-4 1.563,-0.216 2.133,-0.648 z m -0.279,-6.048 c 0.504,-0.36 0.756,-0.84 0.756,-1.44 0,-0.611 -0.249,-1.101 -0.747,-1.467 -0.498,-0.366 -1.119,-0.549 -1.863,-0.549 -0.756,0 -1.38,0.183 -1.872,0.549 -0.492,0.366 -0.738,0.855 -0.738,1.467 0,0.612 0.246,1.102 0.738,1.468 0.492,0.366 1.116,0.549 1.872,0.549 0.732,-0.025 1.35,-0.216 1.854,-0.577 z"
   id="path208" />
						<path
   fill="#00b9d2"
   d="m 240.196,587.165 c -0.714,-0.906 -1.095,-2.091 -1.143,-3.556 l -0.018,-1.548 0.018,-1.602 c 0.036,-1.452 0.417,-2.631 1.143,-3.537 0.726,-0.906 1.857,-1.359 3.393,-1.359 1.548,0 2.685,0.453 3.411,1.359 0.726,0.906 1.107,2.085 1.143,3.537 0.012,0.336 0.018,0.87 0.018,1.602 0,0.708 -0.006,1.225 -0.018,1.548 -0.048,1.465 -0.429,2.649 -1.143,3.556 -0.714,0.906 -1.851,1.358 -3.411,1.358 -1.548,0 -2.679,-0.452 -3.393,-1.358 z m 5.481,-1.054 c 0.468,-0.611 0.714,-1.476 0.738,-2.592 0.012,-0.348 0.018,-0.846 0.018,-1.494 0,-0.659 -0.006,-1.151 -0.018,-1.476 -0.024,-1.104 -0.273,-1.965 -0.747,-2.583 -0.474,-0.618 -1.167,-0.927 -2.079,-0.927 -0.912,0 -1.602,0.309 -2.07,0.927 -0.468,0.618 -0.714,1.479 -0.738,2.583 l -0.018,1.476 0.018,1.494 c 0.024,1.116 0.27,1.98 0.738,2.592 0.468,0.612 1.158,0.918 2.07,0.918 0.924,0 1.62,-0.306 2.088,-0.918 z"
   id="path210" />
						<path
   fill="#00b9d2"
   d="m 255.208,591.655 c -0.078,-0.071 -0.117,-0.174 -0.117,-0.306 v -11.952 c 0,-0.132 0.039,-0.233 0.117,-0.306 0.078,-0.073 0.177,-0.108 0.297,-0.108 h 0.756 c 0.132,0 0.234,0.036 0.306,0.108 0.072,0.072 0.108,0.174 0.108,0.306 v 0.792 c 0.696,-0.924 1.686,-1.386 2.97,-1.386 1.26,0 2.205,0.399 2.835,1.197 0.63,0.798 0.963,1.815 0.999,3.051 0.012,0.132 0.018,0.336 0.018,0.612 0,0.275 -0.006,0.479 -0.018,0.611 -0.036,1.225 -0.369,2.238 -0.999,3.042 -0.63,0.805 -1.575,1.206 -2.835,1.206 -1.284,0 -2.256,-0.456 -2.916,-1.368 v 4.194 c 0,0.12 -0.039,0.219 -0.117,0.297 -0.078,0.078 -0.177,0.117 -0.297,0.117 h -0.81 c -0.12,0.001 -0.219,-0.035 -0.297,-0.107 z m 5.985,-5.346 c 0.396,-0.54 0.612,-1.248 0.648,-2.124 0.012,-0.119 0.018,-0.294 0.018,-0.521 0,-2.305 -0.853,-3.456 -2.556,-3.456 -0.84,0 -1.473,0.278 -1.899,0.837 -0.426,0.558 -0.651,1.215 -0.675,1.971 -0.012,0.132 -0.018,0.366 -0.018,0.702 0,0.336 0.006,0.57 0.018,0.702 0.024,0.731 0.255,1.365 0.693,1.898 0.438,0.534 1.064,0.802 1.881,0.802 0.864,0 1.494,-0.271 1.89,-0.811 z"
   id="path212" />
						<path
   fill="#00b9d2"
   d="m 264.811,588.235 c -0.072,-0.071 -0.108,-0.161 -0.108,-0.27 0,-0.109 0.042,-0.222 0.126,-0.342 l 3.132,-4.068 -2.934,-3.87 c -0.096,-0.132 -0.144,-0.239 -0.144,-0.324 0,-0.107 0.039,-0.197 0.117,-0.27 0.078,-0.073 0.165,-0.108 0.261,-0.108 h 0.864 c 0.18,0 0.336,0.097 0.468,0.288 l 2.43,3.15 2.43,-3.15 c 0.072,-0.096 0.141,-0.168 0.207,-0.216 0.066,-0.048 0.153,-0.072 0.261,-0.072 h 0.828 c 0.096,0 0.18,0.036 0.252,0.108 0.072,0.072 0.108,0.156 0.108,0.252 0,0.12 -0.042,0.234 -0.126,0.342 l -2.97,3.906 3.132,4.032 c 0.084,0.12 0.126,0.233 0.126,0.342 0,0.109 -0.036,0.198 -0.108,0.27 -0.072,0.072 -0.162,0.108 -0.27,0.108 h -0.882 c -0.18,0 -0.336,-0.09 -0.468,-0.27 l -2.574,-3.33 -2.574,3.33 c -0.072,0.084 -0.141,0.149 -0.207,0.197 -0.066,0.049 -0.153,0.072 -0.261,0.072 h -0.846 c -0.108,10e-4 -0.198,-0.035 -0.27,-0.107 z"
   id="path214" />
					</g>
				</g>
			</g>
		</g>
		<g
   id="g252">
			<g
   id="POLYLINE_135_">
				
					<polyline
   fill="none"
   stroke="#00b9d2"
   stroke-width="2"
   stroke-linecap="round"
   stroke-linejoin="round"
   stroke-miterlimit="10"
   points="      143.66,113.492 150.023,107.129 156.386,113.492     "
   id="polyline223" />
			</g>
			<g
   id="POLYLINE_134_">
				
					<line
   fill="none"
   stroke="#00b9d2"
   stroke-width="2"
   stroke-linecap="round"
   stroke-linejoin="round"
   stroke-miterlimit="10"
   x1="150.02299"
   y1="107.129"
   x2="150.02299"
   y2="525.80701"
   id="line226" />
			</g>
			<g
   id="POLYLINE_133_">
				
					<line
   fill="none"
   stroke="#00b9d2"
   stroke-width="2"
   stroke-linecap="round"
   stroke-linejoin="round"
   stroke-miterlimit="10"
   x1="150.02299"
   y1="558.80701"
   x2="150.02299"
   y2="623.242"
   id="line229" />
			</g>
			<g
   id="POLYLINE_132_">
				
					<polyline
   fill="none"
   stroke="#00b9d2"
   stroke-width="2"
   stroke-linecap="round"
   stroke-linejoin="round"
   stroke-miterlimit="10"
   points="      143.672,616.865 150.035,623.229 156.398,616.865     "
   id="polyline232" />
			</g>
			<g
   id="MTEXT_1_">
				<g
   id="g249">
					<g
   id="g247">
						<path
   fill="#00b9d2"
   d="m 123.276,546.524 c -0.078,-0.078 -0.117,-0.177 -0.117,-0.297 v -0.54 c 0,-0.275 0.15,-0.54 0.45,-0.792 l 3.924,-3.906 c 0.888,-0.756 1.5,-1.374 1.836,-1.854 0.336,-0.48 0.504,-0.99 0.504,-1.53 0,-0.708 -0.198,-1.263 -0.594,-1.665 -0.396,-0.401 -0.972,-0.603 -1.728,-0.603 -0.72,0 -1.29,0.21 -1.71,0.63 -0.42,0.42 -0.678,0.984 -0.774,1.691 -0.024,0.133 -0.084,0.234 -0.18,0.307 -0.096,0.073 -0.192,0.107 -0.288,0.107 h -0.864 c -0.108,0 -0.198,-0.035 -0.27,-0.107 -0.072,-0.072 -0.108,-0.156 -0.108,-0.252 0.024,-0.636 0.195,-1.251 0.513,-1.846 0.318,-0.594 0.789,-1.079 1.413,-1.458 0.624,-0.378 1.38,-0.566 2.268,-0.566 1.344,0 2.355,0.351 3.033,1.053 0.678,0.702 1.017,1.593 1.017,2.673 0,0.756 -0.183,1.438 -0.549,2.043 -0.366,0.606 -0.939,1.245 -1.719,1.917 l -3.546,3.601 h 5.67 c 0.132,0 0.234,0.036 0.306,0.107 0.072,0.072 0.108,0.175 0.108,0.307 v 0.684 c 0,0.12 -0.04,0.219 -0.117,0.297 -0.078,0.078 -0.177,0.117 -0.297,0.117 h -7.884 c -0.12,-0.001 -0.219,-0.04 -0.297,-0.118 z"
   id="path235" />
						<path
   fill="#00b9d2"
   d="m 133.789,546.524 c -0.078,-0.078 -0.117,-0.177 -0.117,-0.297 v -0.54 c 0,-0.275 0.15,-0.54 0.45,-0.792 l 3.924,-3.906 c 0.888,-0.756 1.5,-1.374 1.836,-1.854 0.336,-0.48 0.504,-0.99 0.504,-1.53 0,-0.708 -0.198,-1.263 -0.594,-1.665 -0.396,-0.401 -0.972,-0.603 -1.728,-0.603 -0.72,0 -1.29,0.21 -1.71,0.63 -0.42,0.42 -0.678,0.984 -0.774,1.691 -0.024,0.133 -0.084,0.234 -0.18,0.307 -0.096,0.073 -0.192,0.107 -0.288,0.107 h -0.864 c -0.108,0 -0.198,-0.035 -0.27,-0.107 -0.072,-0.072 -0.108,-0.156 -0.108,-0.252 0.024,-0.636 0.195,-1.251 0.513,-1.846 0.318,-0.594 0.789,-1.079 1.413,-1.458 0.624,-0.378 1.38,-0.566 2.268,-0.566 1.344,0 2.355,0.351 3.033,1.053 0.678,0.702 1.017,1.593 1.017,2.673 0,0.756 -0.183,1.438 -0.549,2.043 -0.366,0.606 -0.939,1.245 -1.719,1.917 l -3.546,3.601 h 5.67 c 0.132,0 0.234,0.036 0.306,0.107 0.072,0.072 0.108,0.175 0.108,0.307 v 0.684 c 0,0.12 -0.04,0.219 -0.117,0.297 -0.078,0.078 -0.177,0.117 -0.297,0.117 h -7.884 c -0.121,-0.001 -0.219,-0.04 -0.297,-0.118 z"
   id="path237" />
						<path
   fill="#00b9d2"
   d="m 146.568,546.362 c -0.714,-0.306 -1.269,-0.747 -1.665,-1.322 -0.396,-0.576 -0.594,-1.248 -0.594,-2.017 0,-0.708 0.177,-1.329 0.531,-1.863 0.354,-0.533 0.831,-0.944 1.431,-1.232 -0.48,-0.276 -0.853,-0.639 -1.116,-1.089 -0.264,-0.45 -0.396,-0.981 -0.396,-1.594 0,-1.044 0.39,-1.868 1.17,-2.475 0.78,-0.605 1.806,-0.909 3.078,-0.909 1.272,0 2.295,0.301 3.069,0.9 0.774,0.599 1.161,1.428 1.161,2.483 0,0.601 -0.132,1.125 -0.396,1.575 -0.264,0.45 -0.63,0.819 -1.098,1.107 0.6,0.288 1.077,0.699 1.431,1.232 0.354,0.534 0.531,1.161 0.531,1.882 0,0.768 -0.198,1.437 -0.594,2.007 -0.396,0.57 -0.951,1.008 -1.665,1.313 -0.714,0.307 -1.527,0.459 -2.439,0.459 -0.912,0.002 -1.725,-0.151 -2.439,-0.457 z m 4.572,-1.593 c 0.57,-0.432 0.855,-1.008 0.855,-1.728 0,-0.721 -0.285,-1.297 -0.855,-1.729 -0.57,-0.432 -1.281,-0.647 -2.133,-0.647 -0.864,0 -1.581,0.216 -2.151,0.647 -0.57,0.432 -0.855,1.008 -0.855,1.729 0,0.72 0.285,1.296 0.855,1.728 0.57,0.432 1.287,0.648 2.151,0.648 0.852,0 1.563,-0.216 2.133,-0.648 z m -0.279,-6.048 c 0.504,-0.36 0.756,-0.84 0.756,-1.44 0,-0.611 -0.249,-1.101 -0.747,-1.467 -0.498,-0.366 -1.119,-0.549 -1.863,-0.549 -0.756,0 -1.38,0.183 -1.872,0.549 -0.492,0.366 -0.738,0.855 -0.738,1.467 0,0.612 0.246,1.102 0.738,1.468 0.492,0.366 1.116,0.549 1.872,0.549 0.732,-0.025 1.35,-0.216 1.854,-0.577 z"
   id="path239" />
						<path
   fill="#00b9d2"
   d="m 157.008,545.462 c -0.714,-0.906 -1.095,-2.091 -1.143,-3.556 l -0.018,-1.548 0.018,-1.602 c 0.036,-1.452 0.417,-2.631 1.143,-3.537 0.726,-0.906 1.857,-1.359 3.393,-1.359 1.548,0 2.685,0.453 3.411,1.359 0.726,0.906 1.107,2.085 1.143,3.537 0.012,0.336 0.018,0.87 0.018,1.602 0,0.708 -0.006,1.225 -0.018,1.548 -0.048,1.465 -0.429,2.649 -1.143,3.556 -0.714,0.906 -1.851,1.358 -3.411,1.358 -1.548,10e-4 -2.679,-0.451 -3.393,-1.358 z m 5.481,-1.053 c 0.468,-0.611 0.714,-1.476 0.738,-2.592 0.012,-0.348 0.018,-0.846 0.018,-1.494 0,-0.659 -0.006,-1.151 -0.018,-1.476 -0.024,-1.104 -0.273,-1.965 -0.747,-2.583 -0.474,-0.618 -1.167,-0.927 -2.079,-0.927 -0.912,0 -1.602,0.309 -2.07,0.927 -0.468,0.618 -0.714,1.479 -0.738,2.583 l -0.018,1.476 0.018,1.494 c 0.024,1.116 0.27,1.98 0.738,2.592 0.468,0.612 1.158,0.918 2.07,0.918 0.924,0 1.62,-0.306 2.088,-0.918 z"
   id="path241" />
						<path
   fill="#00b9d2"
   d="m 172.02,549.953 c -0.078,-0.071 -0.117,-0.174 -0.117,-0.306 v -11.952 c 0,-0.132 0.039,-0.233 0.117,-0.306 0.078,-0.073 0.177,-0.108 0.297,-0.108 h 0.756 c 0.132,0 0.234,0.036 0.306,0.108 0.072,0.072 0.108,0.174 0.108,0.306 v 0.792 c 0.696,-0.924 1.686,-1.386 2.97,-1.386 1.26,0 2.205,0.399 2.835,1.197 0.63,0.798 0.963,1.815 0.999,3.051 0.012,0.132 0.018,0.336 0.018,0.612 0,0.275 -0.006,0.479 -0.018,0.611 -0.036,1.225 -0.369,2.238 -0.999,3.042 -0.63,0.805 -1.575,1.206 -2.835,1.206 -1.284,0 -2.256,-0.456 -2.916,-1.368 v 4.194 c 0,0.12 -0.039,0.219 -0.117,0.297 -0.078,0.078 -0.177,0.117 -0.297,0.117 h -0.81 c -0.12,0.001 -0.219,-0.035 -0.297,-0.107 z m 5.985,-5.346 c 0.396,-0.54 0.612,-1.248 0.648,-2.124 0.012,-0.119 0.018,-0.294 0.018,-0.521 0,-2.305 -0.853,-3.456 -2.556,-3.456 -0.84,0 -1.473,0.278 -1.899,0.837 -0.426,0.558 -0.651,1.215 -0.675,1.971 -0.012,0.132 -0.018,0.366 -0.018,0.702 0,0.336 0.006,0.57 0.018,0.702 0.024,0.731 0.255,1.365 0.693,1.898 0.438,0.534 1.064,0.802 1.881,0.802 0.864,-10e-4 1.494,-0.271 1.89,-0.811 z"
   id="path243" />
						<path
   fill="#00b9d2"
   d="m 181.623,546.533 c -0.072,-0.071 -0.108,-0.161 -0.108,-0.27 0,-0.109 0.042,-0.222 0.126,-0.342 l 3.132,-4.068 -2.934,-3.87 c -0.096,-0.132 -0.144,-0.239 -0.144,-0.324 0,-0.107 0.039,-0.197 0.117,-0.27 0.078,-0.073 0.165,-0.108 0.261,-0.108 h 0.864 c 0.18,0 0.336,0.097 0.468,0.288 l 2.43,3.15 2.43,-3.15 c 0.072,-0.096 0.141,-0.168 0.207,-0.216 0.066,-0.048 0.153,-0.072 0.261,-0.072 h 0.828 c 0.096,0 0.18,0.036 0.252,0.108 0.072,0.072 0.108,0.156 0.108,0.252 0,0.12 -0.042,0.234 -0.126,0.342 l -2.97,3.906 3.132,4.032 c 0.084,0.12 0.126,0.233 0.126,0.342 0,0.109 -0.036,0.198 -0.108,0.27 -0.072,0.072 -0.162,0.108 -0.27,0.108 h -0.882 c -0.18,0 -0.336,-0.09 -0.468,-0.27 l -2.574,-3.33 -2.574,3.33 c -0.072,0.084 -0.141,0.149 -0.207,0.197 -0.066,0.049 -0.153,0.072 -0.261,0.072 h -0.846 c -0.108,10e-4 -0.198,-0.035 -0.27,-0.107 z"
   id="path245" />
					</g>
				</g>
			</g>
		</g>
	</g>
</g>

<path
   fill="none"
   stroke="#00b9d2"
   stroke-width="2"
   stroke-linecap="round"
   stroke-linejoin="round"
   stroke-miterlimit="10"
   d="m 171.33,5.713 -1.681,4.249 -0.027,0.065 -0.028,0.065 -0.029,0.064 -0.03,0.064 -0.031,0.063 -0.032,0.063 -0.033,0.062 -0.034,0.062 -0.035,0.061 -0.036,0.061 -0.037,0.06 -0.038,0.059 -0.039,0.059 c -0.04,0.058 -0.082,0.115 -0.082,0.115 -0.042,0.056 -0.086,0.112 -0.086,0.112 -0.044,0.055 -0.09,0.109 -0.09,0.109 -0.046,0.053 -0.093,0.106 -0.093,0.106 -0.048,0.052 -0.097,0.103 -0.097,0.103 -0.05,0.05 -0.1,0.099 -0.1,0.099 -0.052,0.048 -0.104,0.096 -0.104,0.096 -0.053,0.046 -0.107,0.092 -0.107,0.092 -0.055,0.045 -0.11,0.088 -0.11,0.088 -0.056,0.043 -0.113,0.084 -0.113,0.084 -0.058,0.041 -0.116,0.08 -0.116,0.08 l -0.059,0.039 -0.06,0.038 c 0,0 -0.06,0.037 -0.06,0.037 l -0.061,0.036 -0.062,0.035 c 0,0 -0.062,0.033 -0.062,0.033 l -0.063,0.032 -0.063,0.031 -0.064,0.03 -0.064,0.029 c 0,0 -0.065,0.028 -0.065,0.028 0,0 -0.065,0.027 -0.065,0.027 0,0 -0.066,0.026 -0.066,0.026 0,0 -0.066,0.025 -0.066,0.025 l -0.067,0.023 -0.067,0.022 -0.067,0.021 -0.068,0.02 -0.068,0.019 -0.068,0.018 -0.069,0.016 c 0,0 -0.069,0.015 -0.069,0.015 l -0.069,0.014 -0.069,0.013 -0.07,0.012 -0.07,0.01 -0.07,0.009 -0.07,0.008 c 0,0 -0.07,0.007 -0.07,0.007 l -0.07,0.005 -0.07,0.004 c 0,0 -0.071,0.003 -0.071,0.003 l -0.071,0.002 -0.071,10e-4 h -42.146 l -0.071,-10e-4 -0.071,-0.002 -0.071,-0.003 -0.07,-0.004 -0.07,-0.005 -0.07,-0.007 -0.07,-0.008 -0.07,-0.009 -0.07,-0.01 -0.07,-0.012 -0.069,-0.013 -0.069,-0.014 -0.069,-0.015 -0.069,-0.016 -0.068,-0.018 -0.068,-0.019 -0.068,-0.02 -0.067,-0.021 -0.067,-0.022 -0.067,-0.023 -0.066,-0.025 c 0,0 -0.066,-0.026 -0.066,-0.026 l -0.065,-0.027 c 0,0 -0.065,-0.028 -0.065,-0.028 l -0.064,-0.029 -0.064,-0.03 -0.063,-0.031 -0.063,-0.032 c 0,0 -0.062,-0.033 -0.062,-0.033 0,0 -0.062,-0.035 -0.062,-0.035 l -0.061,-0.036 -0.06,-0.037 -0.06,-0.038 c 0,0 -0.059,-0.039 -0.059,-0.039 l -0.058,-0.04 c -0.058,-0.041 -0.115,-0.082 -0.115,-0.082 -0.056,-0.043 -0.112,-0.086 -0.112,-0.086 -0.055,-0.045 -0.109,-0.09 -0.109,-0.09 -0.053,-0.046 -0.106,-0.094 -0.106,-0.094 -0.052,-0.048 -0.102,-0.097 -0.102,-0.097 -0.05,-0.05 -0.099,-0.101 -0.099,-0.101 -0.048,-0.052 -0.095,-0.104 -0.095,-0.104 -0.046,-0.053 -0.092,-0.107 -0.092,-0.107 -0.044,-0.055 -0.088,-0.111 -0.088,-0.111 -0.042,-0.056 -0.084,-0.114 -0.084,-0.114 -0.04,-0.058 -0.08,-0.116 -0.08,-0.116 l -0.038,-0.059 -0.037,-0.06 -0.036,-0.061 -0.035,-0.061 -0.034,-0.062 -0.033,-0.062 -0.032,-0.063 c 0,0 -0.031,-0.063 -0.031,-0.063 l -0.03,-0.064 -0.029,-0.064 -0.028,-0.065 -0.027,-0.065 -1.681,-4.249"
   id="path276"
   style="stroke:#000000;stroke-opacity:1" /><polygon
   fill="none"
   stroke="#00b9d2"
   stroke-width="2"
   stroke-linecap="round"
   stroke-linejoin="round"
   stroke-miterlimit="10"
   points="126.244,650.307 125.742,650.251 125.242,650.185 124.742,650.112 124.244,650.029 123.747,649.938 123.252,649.839 122.759,649.73 122.268,649.614 121.778,649.489 121.291,649.355 120.807,649.213 120.325,649.063 119.845,648.905 119.369,648.738 118.895,648.563 118.424,648.38 117.957,648.189 117.493,647.989 117.033,647.782 116.576,647.567 116.123,647.344 115.674,647.113 115.228,646.875 114.788,646.628 114.351,646.375 113.919,646.113 113.491,645.845 113.068,645.569 112.65,645.285 112.237,644.995 111.829,644.698 111.426,644.393 111.029,644.082 110.637,643.763 110.25,643.438 109.869,643.107 109.494,642.769 109.125,642.424 108.762,642.073 108.405,641.716 108.054,641.353 107.71,640.984 107.372,640.609 107.04,640.228 106.715,639.841 106.397,639.449 106.085,639.052 105.781,638.649 105.483,638.241 105.193,637.828 104.91,637.41 104.634,636.987 104.365,636.56 104.104,636.127 103.85,635.691 103.604,635.25 103.365,634.805 103.134,634.356 102.911,633.903 102.696,633.446 102.489,632.985 102.29,632.521 102.099,632.054 101.915,631.583 101.74,631.11 101.574,630.633 101.415,630.154 101.265,629.672 101.123,629.187 100.99,628.7 100.864,628.211 100.748,627.719 100.64,627.226 100.54,626.731 100.449,626.234 100.367,625.736 100.293,625.237 100.228,624.736 100.171,624.234 100.123,623.731 100.084,623.228 100.054,622.724 100.032,622.219 100.019,621.715 100.014,621.21 100.014,117.269 100.019,116.764 100.032,116.259 100.054,115.754 100.084,115.25 100.123,114.747 100.171,114.244 100.228,113.742 100.293,113.242 100.367,112.742 100.449,112.244 100.54,111.747 100.64,111.252 100.748,110.759 100.864,110.268 100.99,109.778 101.123,109.291 101.265,108.807 101.415,108.325 101.574,107.845 101.74,107.369 101.915,106.895 102.099,106.424 102.29,105.957 102.489,105.493 102.696,105.033 102.911,104.576 103.134,104.123 103.365,103.674 103.604,103.228 103.85,102.788 104.104,102.351 104.365,101.919 104.634,101.491 104.91,101.068 105.193,100.65 105.483,100.237 105.781,99.829 106.085,99.426 106.397,99.029 106.715,98.637 107.04,98.25 107.372,97.869 107.71,97.494 108.054,97.125 108.405,96.762 108.762,96.405 109.125,96.054 109.494,95.71 109.869,95.372 110.25,95.04 110.637,94.715 111.029,94.397 111.426,94.085 111.829,93.781 112.237,93.483 112.65,93.193 113.068,92.91 113.491,92.634 113.919,92.365 114.351,92.104 114.788,91.85 115.228,91.604 115.674,91.365 116.123,91.134 116.576,90.911 117.033,90.696 117.493,90.489 117.957,90.29 118.424,90.099 118.895,89.915 119.369,89.74 119.845,89.574 120.325,89.415 120.807,89.265 121.291,89.123 121.778,88.99 122.268,88.864 122.759,88.748 123.252,88.64 123.747,88.54 124.244,88.449 124.742,88.367 125.242,88.293 125.742,88.228 126.244,88.171 126.747,88.123 127.25,88.084 127.754,88.054 128.259,88.032 128.764,88.019 129.269,88.014 342.881,88.014 343.386,88.019 343.89,88.032 344.395,88.054 344.899,88.084 345.402,88.123 345.905,88.171 346.407,88.228 346.908,88.293 347.407,88.367 347.905,88.449 348.402,88.54 348.897,88.64 349.39,88.748 349.882,88.864 350.371,88.99 350.858,89.123 351.342,89.265 351.825,89.415 352.304,89.574 352.781,89.74 353.254,89.915 353.725,90.099 354.192,90.29 354.656,90.489 355.117,90.696 355.574,90.911 356.027,91.134 356.476,91.365 356.921,91.604 357.362,91.85 357.798,92.104 358.23,92.365 358.658,92.634 359.081,92.91 359.499,93.193 359.912,93.483 360.32,93.781 360.723,94.085 361.12,94.397 361.512,94.715 361.899,95.04 362.28,95.372 362.655,95.71 363.024,96.054 363.387,96.405 363.744,96.762 364.095,97.125 364.44,97.494 364.778,97.869 365.109,98.25 365.434,98.637 365.753,99.029 366.064,99.426 366.368,99.829 366.666,100.237 366.956,100.65 367.24,101.068 367.516,101.491 367.784,101.919 368.046,102.351 368.299,102.788 368.545,103.228 368.784,103.674 369.015,104.123 369.238,104.576 369.453,105.033 369.66,105.493 369.859,105.957 370.051,106.424 370.234,106.895 370.409,107.369 370.576,107.845 370.734,108.325 370.884,108.807 371.026,109.291 371.16,109.778 371.285,110.268 371.401,110.759 371.51,111.252 371.609,111.747 371.7,112.244 371.783,112.742 371.856,113.242 371.922,113.742 371.978,114.244 372.026,114.747 372.065,115.25 372.096,115.754 372.117,116.259 372.131,116.764 372.135,117.269 372.135,621.21 372.131,621.715 372.117,622.219 372.096,622.724 372.065,623.228 372.026,623.731 371.978,624.234 371.922,624.736 371.856,625.237 371.783,625.736 371.7,626.234 371.609,626.731 371.51,627.226 371.401,627.719 371.285,628.211 371.16,628.7 371.026,629.187 370.884,629.672 370.734,630.154 370.576,630.633 370.409,631.11 370.234,631.583 370.051,632.054 369.859,632.521 369.66,632.985 369.453,633.446 369.238,633.903 369.015,634.356 368.784,634.805 368.545,635.25 368.299,635.691 368.046,636.127 367.784,636.56 367.516,636.987 367.24,637.41 366.956,637.828 366.666,638.241 366.368,638.649 366.064,639.052 365.753,639.449 365.434,639.841 365.109,640.228 364.778,640.609 364.44,640.984 364.095,641.353 363.744,641.716 363.387,642.073 363.024,642.424 362.655,642.769 362.28,643.107 361.899,643.438 361.512,643.763 361.12,644.082 360.723,644.393 360.32,644.698 359.912,644.995 359.499,645.285 359.081,645.569 358.658,645.845 358.23,646.113 357.798,646.375 357.362,646.628 356.921,646.875 356.476,647.113 356.027,647.344 355.574,647.567 355.117,647.782 354.656,647.989 354.192,648.189 353.725,648.38 353.254,648.563 352.781,648.738 352.304,648.905 351.825,649.063 351.342,649.213 350.858,649.355 350.371,649.489 349.882,649.614 349.39,649.73 348.897,649.839 348.402,649.938 347.905,650.029 347.407,650.112 346.908,650.185 346.407,650.251 345.905,650.307 345.402,650.355 344.899,650.394 344.395,650.425 343.89,650.447 343.386,650.46 342.881,650.464 129.269,650.464 128.764,650.46 128.259,650.447 127.754,650.425 127.25,650.394 126.747,650.355 "
   id="polygon279"
   transform="translate(-91.292,-82.301)"
   style="stroke:#000000;stroke-opacity:1" />
<rect
   x="1.6249998"
   y="187.13101"
   fill="none"
   stroke="#00b9d2"
   stroke-width="2.75"
   stroke-linecap="round"
   stroke-linejoin="round"
   stroke-miterlimit="10"
   width="3.01"
   height="31.530001"
   id="rect313"
   style="stroke:#000000;stroke-opacity:1" /><rect
   x="1.6249998"
   y="79.148994"
   fill="none"
   stroke="#00b9d2"
   stroke-width="2.75"
   stroke-linecap="round"
   stroke-linejoin="round"
   stroke-miterlimit="10"
   width="3.01"
   height="77.228996"
   id="rect316"
   style="stroke:#000000;stroke-opacity:1" /><rect
   x="284.931"
   y="79.148994"
   fill="none"
   stroke="#00b9d2"
   stroke-width="2.75"
   stroke-linecap="round"
   stroke-linejoin="round"
   stroke-miterlimit="10"
   width="3.01"
   height="59.702"
   id="rect319"
   style="stroke:#000000;stroke-opacity:1" /><path
   fill="none"
   stroke="#00b9d2"
   stroke-width="2.75"
   stroke-linecap="round"
   stroke-linejoin="round"
   stroke-miterlimit="10"
   d="m 256.434,33.363 c 0.012,-4.556 -3.13,-8.593 -7.549,-9.699 -6.362,-1.598 -12.505,3.227 -12.461,9.786 0.068,6.487 6.17,11.194 12.461,9.612 4.419,-1.106 7.561,-5.143 7.549,-9.699 z"
   id="path331"
   style="stroke:#000000;stroke-opacity:1" /><polygon
   fill="none"
   stroke="#00b9d2"
   stroke-width="2.75"
   stroke-linecap="round"
   stroke-linejoin="round"
   stroke-miterlimit="10"
   points="127.932,634.21 127.706,634.194 127.48,634.175 127.253,634.153 127.025,634.129 126.796,634.101 126.567,634.071 126.338,634.038 126.108,634.003 125.877,633.964 125.646,633.923 125.415,633.879 125.183,633.832 124.952,633.782 124.72,633.729 124.487,633.673 124.255,633.614 124.023,633.552 123.791,633.487 123.559,633.419 123.327,633.348 123.095,633.274 122.863,633.197 122.632,633.117 122.401,633.033 122.171,632.947 121.941,632.858 121.711,632.765 121.482,632.67 121.254,632.571 121.027,632.469 120.8,632.364 120.574,632.256 120.349,632.145 120.125,632.031 119.902,631.914 119.68,631.794 119.459,631.671 119.24,631.545 119.021,631.416 118.805,631.283 118.589,631.148 118.375,631.01 118.162,630.869 117.951,630.725 117.742,630.579 117.534,630.429 117.328,630.277 117.124,630.122 116.921,629.964 116.721,629.803 116.522,629.64 116.326,629.474 116.131,629.305 115.939,629.134 115.749,628.96 115.561,628.784 115.375,628.606 115.192,628.424 115.011,628.241 114.832,628.055 114.656,627.867 114.482,627.677 114.311,627.485 114.142,627.29 113.976,627.094 113.813,626.895 113.652,626.695 113.494,626.492 113.339,626.288 113.187,626.082 113.037,625.874 112.891,625.665 112.747,625.454 112.606,625.241 112.468,625.027 112.333,624.812 112.2,624.595 112.071,624.376 111.945,624.157 111.822,623.936 111.702,623.714 111.585,623.491 111.471,623.267 111.36,623.042 111.252,622.816 111.147,622.589 111.045,622.362 110.947,622.134 110.851,621.905 110.758,621.675 110.669,621.445 110.583,621.215 110.499,620.984 110.419,620.753 110.342,620.521 110.268,620.289 110.197,620.057 110.129,619.825 110.064,619.593 110.002,619.361 109.943,619.129 109.887,618.896 109.834,618.664 109.784,618.433 109.737,618.201 109.693,617.97 109.652,617.739 109.613,617.508 109.578,617.278 109.545,617.049 109.515,616.82 109.488,616.591 109.463,616.363 109.441,616.136 109.422,615.91 109.406,615.684 109.392,615.459 109.38,615.235 109.372,615.012 109.366,614.789 109.362,614.568 109.361,614.347 109.361,117.269 109.362,117.048 109.366,116.827 109.372,116.604 109.38,116.381 109.392,116.157 109.406,115.932 109.422,115.706 109.441,115.48 109.463,115.253 109.488,115.025 109.515,114.796 109.545,114.567 109.578,114.338 109.613,114.108 109.652,113.877 109.693,113.646 109.737,113.415 109.784,113.183 109.834,112.952 109.887,112.72 109.943,112.487 110.002,112.255 110.064,112.023 110.129,111.791 110.197,111.559 110.268,111.327 110.342,111.095 110.419,110.863 110.499,110.632 110.583,110.401 110.669,110.171 110.758,109.941 110.851,109.711 110.947,109.482 111.045,109.254 111.147,109.027 111.252,108.8 111.36,108.574 111.471,108.349 111.585,108.125 111.702,107.902 111.822,107.68 111.945,107.459 112.071,107.24 112.2,107.021 112.333,106.805 112.468,106.589 112.606,106.375 112.747,106.162 112.891,105.951 113.037,105.742 113.187,105.534 113.339,105.328 113.494,105.124 113.652,104.921 113.813,104.721 113.976,104.522 114.142,104.326 114.311,104.131 114.482,103.939 114.656,103.749 114.832,103.561 115.011,103.375 115.192,103.192 115.375,103.011 115.561,102.832 115.749,102.656 115.939,102.482 116.131,102.311 116.326,102.142 116.522,101.976 116.721,101.813 116.921,101.652 117.124,101.494 117.328,101.339 117.534,101.187 117.742,101.037 117.951,100.891 118.162,100.747 118.375,100.606 118.589,100.468 118.805,100.333 119.021,100.2 119.24,100.071 119.459,99.945 119.68,99.822 119.902,99.702 120.125,99.585 120.349,99.471 120.574,99.36 120.8,99.252 121.027,99.147 121.254,99.045 121.482,98.947 121.711,98.851 121.941,98.758 122.171,98.669 122.401,98.583 122.632,98.499 122.863,98.419 123.095,98.342 123.327,98.268 123.559,98.197 123.791,98.129 124.023,98.064 124.255,98.002 124.487,97.943 124.72,97.887 124.952,97.834 125.183,97.784 125.415,97.737 125.646,97.693 125.877,97.652 126.108,97.613 126.338,97.578 126.567,97.545 126.796,97.515 127.025,97.488 127.253,97.463 127.48,97.441 127.706,97.422 127.932,97.406 128.157,97.392 128.381,97.38 128.604,97.372 128.827,97.366 129.048,97.362 129.269,97.361 342.881,97.361 343.101,97.362 343.323,97.366 343.545,97.372 343.768,97.38 343.992,97.392 344.217,97.406 344.443,97.422 344.669,97.441 344.897,97.463 345.125,97.488 345.353,97.515 345.582,97.545 345.812,97.578 346.042,97.613 346.272,97.652 346.503,97.693 346.734,97.737 346.966,97.784 347.198,97.834 347.43,97.887 347.662,97.943 347.894,98.002 348.126,98.064 348.358,98.129 348.591,98.197 348.823,98.268 349.054,98.342 349.286,98.419 349.517,98.499 349.748,98.583 349.979,98.669 350.209,98.758 350.438,98.851 350.667,98.947 350.895,99.045 351.123,99.147 351.349,99.252 351.575,99.36 351.8,99.471 352.024,99.585 352.247,99.702 352.469,99.822 352.69,99.945 352.909,100.071 353.128,100.2 353.345,100.333 353.56,100.468 353.774,100.606 353.987,100.747 354.198,100.891 354.408,101.037 354.615,101.187 354.821,101.339 355.026,101.494 355.228,101.652 355.429,101.813 355.627,101.976 355.824,102.142 356.018,102.311 356.21,102.482 356.401,102.656 356.589,102.832 356.774,103.011 356.958,103.192 357.139,103.375 357.317,103.561 357.494,103.749 357.667,103.939 357.838,104.131 358.007,104.326 358.173,104.522 358.336,104.721 358.497,104.921 358.655,105.124 358.81,105.328 358.962,105.534 359.112,105.742 359.259,105.951 359.403,106.162 359.544,106.375 359.682,106.589 359.817,106.805 359.949,107.021 360.078,107.24 360.204,107.459 360.327,107.68 360.447,107.902 360.565,108.125 360.679,108.349 360.79,108.574 360.898,108.8 361.002,109.027 361.104,109.254 361.203,109.482 361.298,109.711 361.391,109.941 361.48,110.171 361.567,110.401 361.65,110.632 361.73,110.863 361.807,111.095 361.881,111.327 361.952,111.559 362.02,111.791 362.085,112.023 362.147,112.255 362.206,112.487 362.262,112.72 362.315,112.952 362.365,113.183 362.412,113.415 362.456,113.646 362.498,113.877 362.536,114.108 362.572,114.338 362.604,114.567 362.635,114.796 362.662,115.025 362.686,115.253 362.708,115.48 362.727,115.706 362.744,115.932 362.758,116.157 362.769,116.381 362.778,116.604 362.784,116.827 362.787,117.048 362.789,117.269 362.789,614.347 362.787,614.568 362.784,614.789 362.778,615.012 362.769,615.235 362.758,615.459 362.744,615.684 362.727,615.91 362.708,616.136 362.686,616.363 362.662,616.591 362.635,616.82 362.604,617.049 362.572,617.278 362.536,617.508 362.498,617.739 362.456,617.97 362.412,618.201 362.365,618.433 362.315,618.664 362.262,618.896 362.206,619.129 362.147,619.361 362.085,619.593 362.02,619.825 361.952,620.057 361.881,620.289 361.807,620.521 361.73,620.753 361.65,620.984 361.567,621.215 361.48,621.445 361.391,621.675 361.298,621.905 361.203,622.134 361.104,622.362 361.002,622.589 360.898,622.816 360.79,623.042 360.679,623.267 360.565,623.491 360.447,623.714 360.327,623.936 360.204,624.157 360.078,624.376 359.949,624.595 359.817,624.812 359.682,625.027 359.544,625.241 359.403,625.454 359.259,625.665 359.112,625.874 358.962,626.082 358.81,626.288 358.655,626.492 358.497,626.695 358.336,626.895 358.173,627.094 358.007,627.29 357.838,627.485 357.667,627.677 357.494,627.867 357.317,628.055 357.139,628.241 356.958,628.424 356.774,628.606 356.589,628.784 356.401,628.96 356.21,629.134 356.018,629.305 355.824,629.474 355.627,629.64 355.429,629.803 355.228,629.964 355.026,630.122 354.821,630.277 354.615,630.429 354.408,630.579 354.198,630.725 353.987,630.869 353.774,631.01 353.56,631.148 353.345,631.283 353.128,631.416 352.909,631.545 352.69,631.671 352.469,631.794 352.247,631.914 352.024,632.031 351.8,632.145 351.575,632.256 351.349,632.364 351.123,632.469 350.895,632.571 350.667,632.67 350.438,632.765 350.209,632.858 349.979,632.947 349.748,633.033 349.517,633.117 349.286,633.197 349.054,633.274 348.823,633.348 348.591,633.419 348.358,633.487 348.126,633.552 347.894,633.614 347.662,633.673 347.43,633.729 347.198,633.782 346.966,633.832 346.734,633.879 346.503,633.923 346.272,633.964 346.042,634.003 345.812,634.038 345.582,634.071 345.353,634.101 345.125,634.129 344.897,634.153 344.669,634.175 344.443,634.194 344.217,634.21 343.992,634.224 343.768,634.236 343.545,634.244 343.323,634.25 343.101,634.254 342.881,634.255 129.269,634.255 129.048,634.254 128.827,634.25 128.604,634.244 128.381,634.236 128.157,634.224 "
   id="polygon334"
   transform="translate(-91.292,-82.301)"
   style="stroke:#000000;stroke-opacity:1" /><polygon
   fill="none"
   stroke="#00b9d2"
   stroke-width="2.75"
   stroke-linecap="round"
   stroke-linejoin="round"
   stroke-miterlimit="10"
   points="125.822,654.373 125.25,654.309 124.679,654.235 124.11,654.151 123.542,654.057 122.976,653.953 122.411,653.839 121.849,653.716 121.289,653.583 120.732,653.441 120.177,653.289 119.624,653.127 119.075,652.956 118.528,652.775 117.985,652.585 117.445,652.385 116.909,652.177 116.376,651.959 115.847,651.732 115.323,651.495 114.802,651.25 114.286,650.996 113.774,650.733 113.266,650.461 112.764,650.181 112.266,649.891 111.774,649.594 111.286,649.287 110.804,648.973 110.328,648.65 109.857,648.319 109.392,647.98 108.933,647.633 108.48,647.278 108.033,646.915 107.593,646.545 107.158,646.167 106.731,645.782 106.31,645.389 105.896,644.989 105.489,644.582 105.089,644.168 104.697,643.747 104.311,643.32 103.934,642.886 103.563,642.445 103.2,641.998 102.845,641.545 102.498,641.086 102.159,640.621 101.828,640.15 101.505,639.674 101.191,639.192 100.885,638.705 100.587,638.212 100.298,637.715 100.017,637.212 99.745,636.705 99.482,636.193 99.228,635.676 98.983,635.156 98.747,634.631 98.52,634.102 98.302,633.569 98.093,633.033 97.893,632.493 97.703,631.95 97.523,631.404 97.351,630.854 97.19,630.302 97.038,629.747 96.895,629.189 96.762,628.629 96.639,628.067 96.525,627.503 96.422,626.937 96.328,626.369 96.244,625.799 96.169,625.229 96.105,624.657 96.05,624.084 96.006,623.51 95.971,622.936 95.946,622.361 95.931,621.785 95.926,621.21 95.926,117.269 95.931,116.693 95.946,116.118 95.971,115.543 96.006,114.968 96.05,114.394 96.105,113.822 96.169,113.25 96.244,112.679 96.328,112.11 96.422,111.542 96.525,110.976 96.639,110.411 96.762,109.849 96.895,109.289 97.038,108.732 97.19,108.177 97.351,107.624 97.523,107.075 97.703,106.528 97.893,105.985 98.093,105.445 98.302,104.909 98.52,104.376 98.747,103.847 98.983,103.323 99.228,102.802 99.482,102.286 99.745,101.774 100.017,101.266 100.298,100.764 100.587,100.266 100.885,99.774 101.191,99.286 101.505,98.804 101.828,98.328 102.159,97.857 102.498,97.392 102.845,96.933 103.2,96.48 103.563,96.033 103.934,95.593 104.311,95.158 104.697,94.731 105.089,94.31 105.489,93.896 105.896,93.489 106.31,93.089 106.731,92.697 107.158,92.311 107.593,91.934 108.033,91.563 108.48,91.2 108.933,90.845 109.392,90.498 109.857,90.159 110.328,89.828 110.804,89.505 111.286,89.191 111.774,88.885 112.266,88.587 112.764,88.298 113.266,88.017 113.774,87.745 114.286,87.482 114.802,87.228 115.323,86.983 115.847,86.747 116.376,86.52 116.909,86.302 117.445,86.093 117.985,85.893 118.528,85.703 119.075,85.523 119.624,85.351 120.177,85.19 120.732,85.038 121.289,84.895 121.849,84.762 122.411,84.639 122.976,84.525 123.542,84.422 124.11,84.328 124.679,84.244 125.25,84.169 125.822,84.105 126.394,84.05 126.968,84.006 127.543,83.971 128.118,83.946 128.693,83.931 129.269,83.926 342.881,83.926 343.456,83.931 344.031,83.946 344.607,83.971 345.181,84.006 345.755,84.05 346.328,84.105 346.9,84.169 347.47,84.244 348.04,84.328 348.608,84.422 349.174,84.525 349.738,84.639 350.3,84.762 350.86,84.895 351.418,85.038 351.973,85.19 352.525,85.351 353.074,85.523 353.621,85.703 354.164,85.893 354.704,86.093 355.24,86.302 355.773,86.52 356.302,86.747 356.827,86.983 357.347,87.228 357.864,87.482 358.376,87.745 358.883,88.017 359.385,88.298 359.883,88.587 360.376,88.885 360.863,89.191 361.345,89.505 361.821,89.828 362.292,90.159 362.757,90.498 363.216,90.845 363.669,91.2 364.116,91.563 364.557,91.934 364.991,92.311 365.418,92.697 365.839,93.089 366.253,93.489 366.66,93.896 367.06,94.31 367.452,94.731 367.838,95.158 368.216,95.593 368.586,96.033 368.949,96.48 369.304,96.933 369.651,97.392 369.99,97.857 370.321,98.328 370.644,98.804 370.958,99.286 371.265,99.774 371.562,100.266 371.852,100.764 372.132,101.266 372.404,101.774 372.667,102.286 372.921,102.802 373.166,103.323 373.403,103.847 373.63,104.376 373.848,104.909 374.056,105.445 374.256,105.985 374.446,106.528 374.627,107.075 374.798,107.624 374.96,108.177 375.112,108.732 375.254,109.289 375.387,109.849 375.51,110.411 375.624,110.976 375.728,111.542 375.822,112.11 375.906,112.679 375.98,113.25 376.044,113.822 376.099,114.394 376.144,114.968 376.178,115.543 376.203,116.118 376.218,116.693 376.223,117.269 376.223,621.21 376.218,621.785 376.203,622.361 376.178,622.936 376.144,623.51 376.099,624.084 376.044,624.657 375.98,625.229 375.906,625.799 375.822,626.369 375.728,626.937 375.624,627.503 375.51,628.067 375.387,628.629 375.254,629.189 375.112,629.747 374.96,630.302 374.798,630.854 374.627,631.404 374.446,631.95 374.256,632.493 374.056,633.033 373.848,633.569 373.63,634.102 373.403,634.631 373.166,635.156 372.921,635.676 372.667,636.193 372.404,636.705 372.132,637.212 371.852,637.715 371.562,638.212 371.265,638.705 370.958,639.192 370.644,639.674 370.321,640.15 369.99,640.621 369.651,641.086 369.304,641.545 368.949,641.998 368.586,642.445 368.216,642.886 367.838,643.32 367.452,643.747 367.06,644.168 366.66,644.582 366.253,644.989 365.839,645.389 365.418,645.782 364.991,646.167 364.557,646.545 364.116,646.915 363.669,647.278 363.216,647.633 362.757,647.98 362.292,648.319 361.821,648.65 361.345,648.973 360.863,649.287 360.376,649.594 359.883,649.891 359.385,650.181 358.883,650.461 358.376,650.733 357.864,650.996 357.347,651.25 356.827,651.495 356.302,651.732 355.773,651.959 355.24,652.177 354.704,652.385 354.164,652.585 353.621,652.775 353.074,652.956 352.525,653.127 351.973,653.289 351.418,653.441 350.86,653.583 350.3,653.716 349.738,653.839 349.174,653.953 348.608,654.057 348.04,654.151 347.47,654.235 346.9,654.309 346.328,654.373 345.755,654.428 345.181,654.473 344.607,654.507 344.031,654.532 343.456,654.547 342.881,654.552 129.269,654.552 128.693,654.547 128.118,654.532 127.543,654.507 126.968,654.473 126.394,654.428 "
   id="polygon337"
   transform="translate(-91.292,-82.301)"
   style="stroke:#000000;stroke-opacity:1" />

</svg>
