<?xml version="1.0" encoding="UTF-8" standalone="no"?>
<svg
   xmlns:ns="&amp;#38;ns_sfw;"
   xmlns:dc="http://purl.org/dc/elements/1.1/"
   xmlns:cc="http://creativecommons.org/ns#"
   xmlns:rdf="http://www.w3.org/1999/02/22-rdf-syntax-ns#"
   xmlns:svg="http://www.w3.org/2000/svg"
   xmlns="http://www.w3.org/2000/svg"
   xmlns:sodipodi="http://sodipodi.sourceforge.net/DTD/sodipodi-0.dtd"
   xmlns:inkscape="http://www.inkscape.org/namespaces/inkscape"
   version="1.1"
   x="0px"
   y="0px"
   viewBox="0 0 285.245 615.685"
   enable-background="new 0 0 1000 800"
   xml:space="preserve"
   id="svg362"
   sodipodi:docname="s20.svg"
   inkscape:version="1.0.1 (3bc2e813f5, 2020-09-07)"
   width="285.245"
   height="615.685"><polygon
   fill="none"
   stroke="#00b9d2"
   stroke-width="3.25"
   stroke-linecap="round"
   stroke-linejoin="round"
   stroke-miterlimit="10"
   points="371.459,118.168 371.437,117.802 371.41,117.434 371.379,117.065 371.343,116.695 371.303,116.323 371.259,115.951 371.21,115.578 371.156,115.204 371.098,114.829 371.036,114.453 370.968,114.077 370.896,113.7 370.82,113.323 370.738,112.946 370.652,112.568 370.561,112.189 370.465,111.811 370.364,111.433 370.258,111.054 370.147,110.676 370.031,110.298 369.911,109.92 369.785,109.543 369.654,109.166 369.519,108.79 369.378,108.415 369.233,108.04 369.082,107.666 368.926,107.293 368.765,106.921 368.6,106.551 368.429,106.181 368.253,105.813 368.072,105.447 367.886,105.082 367.695,104.718 367.5,104.357 367.299,103.997 367.094,103.639 366.883,103.284 366.668,102.93 366.448,102.579 366.223,102.23 365.993,101.884 365.759,101.54 365.52,101.198 365.276,100.86 365.028,100.524 364.775,100.191 364.517,99.862 364.256,99.535 363.99,99.212 363.719,98.891 363.444,98.575 363.166,98.261 362.883,97.951 362.596,97.645 362.305,97.342 362.01,97.044 361.711,96.749 361.408,96.458 361.102,96.171 360.792,95.888 360.479,95.609 360.162,95.334 359.842,95.064 359.518,94.798 359.192,94.536 358.862,94.279 358.529,94.026 358.193,93.777 357.855,93.534 357.514,93.295 357.17,93.06 356.823,92.831 356.474,92.606 356.123,92.386 355.77,92.17 355.414,91.96 355.056,91.754 354.696,91.554 354.335,91.358 353.972,91.167 353.607,90.981 353.24,90.8 352.872,90.625 352.503,90.454 352.132,90.288 351.76,90.127 351.387,89.971 351.013,89.821 350.639,89.675 350.263,89.534 349.887,89.399 349.51,89.268 349.133,89.143 348.755,89.022 348.377,88.906 347.999,88.795 347.621,88.69 347.242,88.589 346.864,88.493 346.486,88.402 346.108,88.315 345.73,88.234 345.353,88.157 344.976,88.085 344.6,88.018 344.224,87.955 343.849,87.897 343.475,87.843 343.102,87.795 342.73,87.75 342.359,87.71 341.988,87.675 341.619,87.643 341.252,87.617 340.885,87.594 340.52,87.576 340.156,87.561 339.794,87.551 339.433,87.545 339.074,87.543 124.979,87.543 124.62,87.545 124.259,87.551 123.897,87.561 123.533,87.576 123.168,87.594 122.802,87.617 122.434,87.643 122.065,87.675 121.695,87.71 121.323,87.75 120.951,87.795 120.578,87.843 120.204,87.897 119.829,87.955 119.453,88.018 119.077,88.085 118.7,88.157 118.323,88.234 117.946,88.315 117.568,88.402 117.189,88.493 116.811,88.589 116.433,88.69 116.054,88.795 115.676,88.906 115.298,89.022 114.92,89.143 114.543,89.268 114.166,89.399 113.79,89.534 113.415,89.675 113.04,89.821 112.666,89.971 112.293,90.127 111.921,90.288 111.551,90.454 111.181,90.625 110.813,90.8 110.447,90.981 110.082,91.167 109.718,91.358 109.357,91.554 108.997,91.754 108.639,91.96 108.284,92.17 107.93,92.386 107.579,92.606 107.23,92.831 106.884,93.06 106.54,93.295 106.198,93.534 105.86,93.777 105.524,94.026 105.191,94.279 104.862,94.536 104.535,94.798 104.212,95.064 103.891,95.334 103.575,95.609 103.261,95.888 102.951,96.171 102.645,96.458 102.342,96.749 102.044,97.044 101.749,97.342 101.458,97.645 101.171,97.951 100.888,98.261 100.609,98.575 100.334,98.891 100.064,99.212 99.798,99.535 99.536,99.862 99.279,100.191 99.026,100.524 98.777,100.86 98.534,101.198 98.295,101.54 98.06,101.884 97.831,102.23 97.606,102.579 97.386,102.93 97.17,103.284 96.96,103.639 96.754,103.997 96.554,104.357 96.358,104.718 96.167,105.082 95.981,105.447 95.8,105.813 95.625,106.181 95.454,106.551 95.288,106.921 95.127,107.293 94.971,107.666 94.821,108.04 94.675,108.415 94.534,108.79 94.399,109.166 94.268,109.543 94.143,109.92 94.022,110.298 93.906,110.676 93.795,111.054 93.69,111.433 93.589,111.811 93.493,112.189 93.402,112.568 93.315,112.946 93.234,113.323 93.157,113.7 93.085,114.077 93.018,114.453 92.955,114.829 92.897,115.204 92.843,115.578 92.795,115.951 92.75,116.323 92.71,116.695 92.675,117.065 92.643,117.434 92.617,117.802 92.594,118.168 92.576,118.533 92.561,118.897 92.551,119.259 92.545,119.62 92.543,119.979 92.543,124.526 92.543,667.542 92.545,667.901 92.551,668.262 92.561,668.624 92.576,668.988 92.594,669.353 92.617,669.719 92.643,670.087 92.675,670.456 92.71,670.826 92.75,671.198 92.795,671.57 92.843,671.943 92.897,672.317 92.955,672.692 93.018,673.068 93.085,673.444 93.157,673.821 93.234,674.198 93.315,674.576 93.402,674.954 93.493,675.332 93.589,675.71 93.69,676.089 93.795,676.467 93.906,676.845 94.022,677.223 94.143,677.601 94.268,677.978 94.399,678.355 94.534,678.731 94.675,679.107 94.821,679.481 94.971,679.855 95.127,680.228 95.288,680.6 95.454,680.971 95.625,681.34 95.8,681.708 95.981,682.075 96.167,682.439 96.358,682.803 96.554,683.164 96.754,683.524 96.96,683.882 97.17,684.237 97.386,684.591 97.606,684.942 97.831,685.291 98.06,685.638 98.295,685.981 98.534,686.323 98.777,686.661 99.026,686.997 99.279,687.33 99.536,687.659 99.798,687.986 100.064,688.31 100.334,688.63 100.609,688.947 100.888,689.26 101.171,689.57 101.458,689.876 101.749,690.179 102.044,690.478 102.342,690.772 102.645,691.063 102.951,691.351 103.261,691.634 103.575,691.912 103.891,692.187 104.212,692.457 104.535,692.724 104.862,692.985 105.191,693.243 105.524,693.495 105.86,693.744 106.198,693.987 106.54,694.227 106.884,694.461 107.23,694.691 107.579,694.916 107.93,695.136 108.284,695.351 108.639,695.561 108.997,695.767 109.357,695.968 109.718,696.163 110.082,696.354 110.447,696.54 110.813,696.721 111.181,696.897 111.551,697.067 111.921,697.233 112.293,697.394 112.666,697.55 113.04,697.7 113.415,697.846 113.79,697.987 114.166,698.122 114.543,698.253 114.92,698.379 115.298,698.499 115.676,698.615 116.054,698.726 116.433,698.832 116.811,698.932 117.189,699.028 117.568,699.12 117.946,699.206 118.323,699.287 118.7,699.364 119.077,699.436 119.453,699.504 119.829,699.566 120.204,699.624 120.578,699.678 120.951,699.727 121.323,699.771 121.695,699.811 122.065,699.847 122.434,699.878 122.802,699.905 123.168,699.927 123.533,699.946 123.897,699.96 124.259,699.97 124.62,699.976 124.979,699.978 339.074,699.978 339.433,699.976 339.794,699.97 340.156,699.96 340.52,699.946 340.885,699.927 341.252,699.905 341.619,699.878 341.988,699.847 342.359,699.811 342.73,699.771 343.102,699.727 343.475,699.678 343.849,699.624 344.224,699.566 344.6,699.504 344.976,699.436 345.353,699.364 345.73,699.287 346.108,699.206 346.486,699.12 346.864,699.028 347.242,698.932 347.621,698.832 347.999,698.726 348.377,698.615 348.755,698.499 349.133,698.379 349.51,698.253 349.887,698.122 350.263,697.987 350.639,697.846 351.013,697.7 351.387,697.55 351.76,697.394 352.132,697.233 352.503,697.067 352.872,696.897 353.24,696.721 353.607,696.54 353.972,696.354 354.335,696.163 354.696,695.968 355.056,695.767 355.414,695.561 355.77,695.351 356.123,695.136 356.474,694.916 356.823,694.691 357.17,694.461 357.514,694.227 357.855,693.987 358.193,693.744 358.529,693.495 358.862,693.243 359.192,692.985 359.518,692.724 359.842,692.457 360.162,692.187 360.479,691.912 360.792,691.634 361.102,691.351 361.408,691.063 361.711,690.772 362.01,690.478 362.305,690.179 362.596,689.876 362.883,689.57 363.166,689.26 363.444,688.947 363.719,688.63 363.99,688.31 364.256,687.986 364.517,687.659 364.775,687.33 365.028,686.997 365.276,686.661 365.52,686.323 365.759,685.981 365.993,685.638 366.223,685.291 366.448,684.942 366.668,684.591 366.883,684.237 367.094,683.882 367.299,683.524 367.5,683.164 367.695,682.803 367.886,682.439 368.072,682.075 368.253,681.708 368.429,681.34 368.6,680.971 368.765,680.6 368.926,680.228 369.082,679.855 369.233,679.481 369.378,679.107 369.519,678.731 369.654,678.355 369.785,677.978 369.911,677.601 370.031,677.223 370.147,676.845 370.258,676.467 370.364,676.089 370.465,675.71 370.561,675.332 370.652,674.954 370.738,674.576 370.82,674.198 370.896,673.821 370.968,673.444 371.036,673.068 371.098,672.692 371.156,672.317 371.21,671.943 371.259,671.57 371.303,671.198 371.343,670.826 371.379,670.456 371.41,670.087 371.437,669.719 371.459,669.353 371.478,668.988 371.492,668.624 371.502,668.262 371.508,667.901 371.51,667.542 371.51,662.995 371.51,356.14 374.538,356.14 374.538,315.638 371.51,315.638 371.51,275.825 374.538,275.825 374.538,197.927 371.51,197.927 371.51,119.979 371.508,119.62 371.502,119.259 371.492,118.897 371.478,118.533 "
   id="polygon358"
   transform="translate(-90.918,-85.918)"
   style="stroke:#000000;stroke-opacity:1" /><defs
   id="defs366">
	
	
	

	
	
	
	
	
	
	
	
	
	
	
	
	
	
	
	
	
	
	
	
	
	
	

	
	
	
	
	
	
	



		
			
	
		
			
	
		
			
	
		
			
	
		
			
	
		
			
	
		
			
	
		
			
	
		
			
	
		
			
	
		
			
	
		
			
	
		
			
	
		
			
	
		
			
	
		
			
	
		
			
	
		
			
	
		
			
	
		
			
	
		
			
	
		
			
	
		
			
	
		
			
	
		
			
	
		
			
	
		
			
	
		
	
		
	
		
	
		
			
	
		
			
	
		
			
	</defs><sodipodi:namedview
   pagecolor="#ffffff"
   bordercolor="#666666"
   borderopacity="1"
   objecttolerance="10"
   gridtolerance="10"
   guidetolerance="10"
   inkscape:pageopacity="0"
   inkscape:pageshadow="2"
   inkscape:window-width="1920"
   inkscape:window-height="1001"
   id="namedview364"
   showgrid="false"
   inkscape:zoom="1.04125"
   inkscape:cx="409.082"
   inkscape:cy="314.082"
   inkscape:window-x="-9"
   inkscape:window-y="-9"
   inkscape:window-maximized="1"
   inkscape:current-layer="svg362"
   inkscape:document-rotation="0" />
<metadata
   id="metadata2">
	<ns:sfw>
		<ns:slices />
		<ns:sliceSourceBounds
   bottomLeftOrigin="true"
   height="11789.401"
   width="3212.295"
   x="-3241.446"
   y="-3017.527">
			</ns:sliceSourceBounds>
	</ns:sfw>
<rdf:RDF><cc:Work
     rdf:about=""><dc:format>image/svg+xml</dc:format><dc:type
       rdf:resource="http://purl.org/dc/dcmitype/StillImage" /><dc:title /></cc:Work></rdf:RDF></metadata>

<g
   id="N-DIMENSIONS"
   display="none"
   transform="translate(-90.918,-85.918)">
	<g
   display="inline"
   id="g128">
		<g
   id="g19">
			<g
   id="g17">
				<path
   fill="#00b9d2"
   d="m 121.925,134.173 c -0.66,-0.324 -1.164,-0.747 -1.513,-1.27 -0.348,-0.521 -0.534,-1.083 -0.558,-1.683 v -0.036 c 0,-0.096 0.036,-0.174 0.107,-0.234 0.072,-0.06 0.156,-0.09 0.253,-0.09 h 0.882 c 0.252,0 0.414,0.133 0.485,0.396 0.181,0.647 0.514,1.131 0.999,1.448 0.486,0.318 1.047,0.478 1.684,0.478 0.815,0 1.494,-0.249 2.034,-0.747 0.539,-0.498 0.81,-1.185 0.81,-2.061 0,-0.805 -0.271,-1.443 -0.81,-1.918 -0.54,-0.474 -1.219,-0.711 -2.034,-0.711 -0.433,0 -0.78,0.055 -1.044,0.162 -0.265,0.108 -0.534,0.265 -0.811,0.469 -0.156,0.12 -0.285,0.207 -0.387,0.261 -0.103,0.054 -0.213,0.081 -0.333,0.081 h -0.864 c -0.107,0 -0.204,-0.039 -0.288,-0.117 -0.084,-0.078 -0.12,-0.171 -0.107,-0.279 l 0.558,-5.994 c 0.036,-0.3 0.186,-0.45 0.45,-0.45 h 6.228 c 0.132,0 0.234,0.036 0.307,0.108 0.071,0.072 0.107,0.174 0.107,0.306 v 0.666 c 0,0.12 -0.039,0.216 -0.117,0.288 -0.078,0.072 -0.177,0.108 -0.297,0.108 h -5.184 l -0.324,3.618 c 0.576,-0.408 1.351,-0.612 2.322,-0.612 0.804,0 1.536,0.159 2.196,0.478 0.659,0.317 1.185,0.782 1.574,1.395 0.391,0.612 0.585,1.338 0.585,2.178 0,0.889 -0.194,1.653 -0.585,2.295 -0.39,0.643 -0.93,1.129 -1.619,1.458 -0.69,0.33 -1.479,0.495 -2.367,0.495 -0.9,0 -1.68,-0.162 -2.339,-0.486 z"
   id="path5" />
				<path
   fill="#00b9d2"
   d="m 132.716,134.074 c -0.702,-0.39 -1.236,-0.915 -1.603,-1.575 -0.366,-0.659 -0.549,-1.379 -0.549,-2.159 0,-1.032 0.414,-2.136 1.242,-3.312 l 3.438,-4.788 c 0.013,-0.012 0.046,-0.054 0.1,-0.126 0.054,-0.072 0.123,-0.128 0.207,-0.171 0.084,-0.042 0.18,-0.063 0.288,-0.063 h 0.882 c 0.108,0 0.194,0.039 0.261,0.117 0.067,0.078 0.1,0.171 0.1,0.279 0,0.06 -0.03,0.138 -0.091,0.234 l -2.628,3.672 c 0.312,-0.072 0.66,-0.108 1.044,-0.108 0.876,0 1.647,0.195 2.313,0.585 0.666,0.391 1.182,0.906 1.548,1.548 0.366,0.643 0.549,1.348 0.549,2.115 0,0.769 -0.183,1.485 -0.549,2.151 -0.366,0.666 -0.897,1.197 -1.593,1.593 -0.696,0.396 -1.519,0.594 -2.466,0.594 -0.961,-0.001 -1.791,-0.196 -2.493,-0.586 z m 3.932,-1.233 c 0.444,-0.216 0.798,-0.537 1.062,-0.963 0.264,-0.426 0.396,-0.939 0.396,-1.539 0,-0.588 -0.135,-1.096 -0.405,-1.521 -0.27,-0.426 -0.627,-0.75 -1.07,-0.972 -0.444,-0.222 -0.925,-0.333 -1.44,-0.333 -0.515,0 -0.996,0.111 -1.439,0.333 -0.444,0.222 -0.799,0.546 -1.062,0.972 -0.263,0.426 -0.396,0.934 -0.396,1.521 0,0.6 0.132,1.113 0.396,1.539 0.264,0.426 0.618,0.747 1.062,0.963 0.443,0.216 0.924,0.323 1.439,0.323 0.528,0.001 1.013,-0.107 1.457,-0.323 z"
   id="path7" />
				<path
   fill="#00b9d2"
   d="m 143.381,134.2 c -0.685,-0.306 -1.204,-0.704 -1.558,-1.196 -0.354,-0.492 -0.543,-1.002 -0.566,-1.53 0,-0.108 0.035,-0.195 0.107,-0.261 0.072,-0.066 0.162,-0.1 0.271,-0.1 h 0.81 c 0.132,0 0.24,0.027 0.324,0.081 0.084,0.054 0.149,0.159 0.198,0.315 0.155,0.611 0.494,1.044 1.017,1.296 0.523,0.252 1.137,0.378 1.845,0.378 0.864,0 1.551,-0.207 2.062,-0.621 0.51,-0.414 0.765,-1.005 0.765,-1.773 0,-1.464 -0.894,-2.195 -2.682,-2.195 h -1.692 c -0.12,0 -0.219,-0.039 -0.297,-0.117 -0.078,-0.078 -0.117,-0.177 -0.117,-0.297 v -0.468 c 0,-0.181 0.066,-0.336 0.198,-0.469 l 3.51,-3.888 h -5.328 c -0.12,0 -0.219,-0.036 -0.297,-0.108 -0.078,-0.072 -0.117,-0.168 -0.117,-0.288 v -0.648 c 0,-0.132 0.039,-0.237 0.117,-0.315 0.078,-0.078 0.177,-0.117 0.297,-0.117 h 7.128 c 0.132,0 0.237,0.039 0.315,0.117 0.078,0.078 0.117,0.183 0.117,0.315 v 0.594 c 0,0.132 -0.061,0.27 -0.181,0.414 l -3.51,3.942 h 0.288 c 1.225,0.036 2.193,0.354 2.907,0.954 0.714,0.6 1.071,1.476 1.071,2.628 0,0.792 -0.195,1.473 -0.585,2.043 -0.391,0.57 -0.934,1.008 -1.63,1.313 -0.695,0.307 -1.481,0.459 -2.357,0.459 -0.937,0.001 -1.747,-0.152 -2.43,-0.458 z"
   id="path9" />
				<path
   fill="#00b9d2"
   d="m 157.159,137.791 c -0.078,-0.071 -0.117,-0.174 -0.117,-0.306 v -11.952 c 0,-0.132 0.039,-0.233 0.117,-0.306 0.077,-0.072 0.177,-0.108 0.297,-0.108 h 0.756 c 0.132,0 0.234,0.036 0.306,0.108 0.072,0.072 0.108,0.174 0.108,0.306 v 0.792 c 0.695,-0.924 1.686,-1.386 2.97,-1.386 1.26,0 2.205,0.399 2.835,1.197 0.63,0.798 0.963,1.815 0.999,3.051 0.012,0.132 0.019,0.336 0.019,0.612 0,0.275 -0.007,0.479 -0.019,0.611 -0.036,1.225 -0.369,2.238 -0.999,3.042 -0.63,0.805 -1.575,1.206 -2.835,1.206 -1.284,0 -2.256,-0.456 -2.916,-1.368 v 4.194 c 0,0.12 -0.039,0.219 -0.117,0.297 -0.078,0.078 -0.177,0.117 -0.297,0.117 h -0.81 c -0.12,0.001 -0.22,-0.035 -0.297,-0.107 z m 5.985,-5.346 c 0.396,-0.54 0.612,-1.248 0.648,-2.124 0.012,-0.119 0.018,-0.294 0.018,-0.521 0,-2.305 -0.852,-3.456 -2.556,-3.456 -0.84,0 -1.474,0.278 -1.899,0.837 -0.426,0.558 -0.65,1.215 -0.675,1.971 -0.012,0.132 -0.018,0.366 -0.018,0.702 0,0.336 0.006,0.57 0.018,0.702 0.024,0.731 0.255,1.365 0.693,1.898 0.438,0.534 1.064,0.802 1.881,0.802 0.864,-0.001 1.494,-0.271 1.89,-0.811 z"
   id="path11" />
				<path
   fill="#00b9d2"
   d="m 167.851,137.791 c -0.078,-0.071 -0.117,-0.174 -0.117,-0.306 v -11.952 c 0,-0.132 0.039,-0.233 0.117,-0.306 0.077,-0.072 0.177,-0.108 0.297,-0.108 h 0.756 c 0.132,0 0.234,0.036 0.306,0.108 0.072,0.072 0.108,0.174 0.108,0.306 v 0.792 c 0.695,-0.924 1.686,-1.386 2.97,-1.386 1.26,0 2.205,0.399 2.835,1.197 0.63,0.798 0.963,1.815 0.999,3.051 0.012,0.132 0.019,0.336 0.019,0.612 0,0.275 -0.007,0.479 -0.019,0.611 -0.036,1.225 -0.369,2.238 -0.999,3.042 -0.63,0.805 -1.575,1.206 -2.835,1.206 -1.284,0 -2.256,-0.456 -2.916,-1.368 v 4.194 c 0,0.12 -0.039,0.219 -0.117,0.297 -0.078,0.078 -0.177,0.117 -0.297,0.117 h -0.81 c -0.121,0.001 -0.22,-0.035 -0.297,-0.107 z m 5.984,-5.346 c 0.396,-0.54 0.612,-1.248 0.648,-2.124 0.012,-0.119 0.018,-0.294 0.018,-0.521 0,-2.305 -0.852,-3.456 -2.556,-3.456 -0.84,0 -1.474,0.278 -1.899,0.837 -0.426,0.558 -0.65,1.215 -0.675,1.971 -0.012,0.132 -0.018,0.366 -0.018,0.702 0,0.336 0.006,0.57 0.018,0.702 0.024,0.731 0.255,1.365 0.693,1.898 0.438,0.534 1.064,0.802 1.881,0.802 0.865,-0.001 1.494,-0.271 1.89,-0.811 z"
   id="path13" />
				<path
   fill="#00b9d2"
   d="m 178.381,123.238 c -0.078,-0.078 -0.117,-0.177 -0.117,-0.297 v -0.936 c 0,-0.12 0.039,-0.222 0.117,-0.306 0.078,-0.084 0.177,-0.126 0.297,-0.126 h 1.062 c 0.12,0 0.223,0.042 0.307,0.126 0.084,0.084 0.126,0.186 0.126,0.306 v 0.936 c 0,0.12 -0.042,0.219 -0.126,0.297 -0.084,0.079 -0.187,0.117 -0.307,0.117 h -1.062 c -0.12,0 -0.219,-0.039 -0.297,-0.117 z m 0.143,11.124 c -0.078,-0.078 -0.117,-0.177 -0.117,-0.297 v -8.532 c 0,-0.119 0.039,-0.219 0.117,-0.297 0.078,-0.078 0.177,-0.117 0.297,-0.117 h 0.792 c 0.12,0 0.219,0.039 0.297,0.117 0.078,0.078 0.117,0.178 0.117,0.297 v 8.532 c 0,0.12 -0.039,0.219 -0.117,0.297 -0.078,0.078 -0.177,0.117 -0.297,0.117 h -0.792 c -0.12,0 -0.218,-0.039 -0.297,-0.117 z"
   id="path15" />
			</g>
		</g>
		<g
   id="g64">
			<g
   id="MTEXT_20_">
				<g
   id="g47">
					<g
   id="g45">
						<g
   id="g43">
							<path
   fill="#00b9d2"
   d="m 240.836,365.574 c -0.702,-0.39 -1.236,-0.915 -1.603,-1.575 -0.366,-0.659 -0.549,-1.379 -0.549,-2.159 0,-1.032 0.414,-2.136 1.242,-3.312 l 3.438,-4.788 c 0.013,-0.012 0.046,-0.054 0.1,-0.126 0.054,-0.072 0.123,-0.128 0.207,-0.171 0.084,-0.042 0.18,-0.063 0.288,-0.063 h 0.882 c 0.108,0 0.194,0.039 0.261,0.117 0.067,0.078 0.1,0.171 0.1,0.279 0,0.06 -0.03,0.138 -0.091,0.234 l -2.628,3.672 c 0.312,-0.072 0.66,-0.108 1.044,-0.108 0.876,0 1.647,0.195 2.313,0.585 0.666,0.391 1.182,0.906 1.548,1.548 0.366,0.643 0.549,1.348 0.549,2.115 0,0.769 -0.183,1.485 -0.549,2.151 -0.366,0.666 -0.897,1.197 -1.593,1.593 -0.696,0.396 -1.519,0.594 -2.466,0.594 -0.961,-0.001 -1.791,-0.196 -2.493,-0.586 z m 3.933,-1.233 c 0.444,-0.216 0.798,-0.537 1.062,-0.963 0.264,-0.426 0.396,-0.939 0.396,-1.539 0,-0.588 -0.135,-1.096 -0.405,-1.521 -0.27,-0.426 -0.627,-0.75 -1.07,-0.972 -0.444,-0.222 -0.925,-0.333 -1.44,-0.333 -0.515,0 -0.996,0.111 -1.439,0.333 -0.444,0.222 -0.799,0.546 -1.062,0.972 -0.263,0.426 -0.396,0.934 -0.396,1.521 0,0.6 0.132,1.113 0.396,1.539 0.264,0.426 0.618,0.747 1.062,0.963 0.443,0.216 0.924,0.323 1.439,0.323 0.527,0.001 1.012,-0.107 1.457,-0.323 z"
   id="path21" />
							<path
   fill="#00b9d2"
   d="m 249.943,365.862 c -0.078,-0.078 -0.117,-0.177 -0.117,-0.297 v -1.242 c 0,-0.119 0.039,-0.222 0.117,-0.306 0.078,-0.084 0.177,-0.126 0.297,-0.126 h 1.242 c 0.12,0 0.219,0.042 0.297,0.126 0.078,0.084 0.117,0.187 0.117,0.306 v 1.242 c 0,0.12 -0.039,0.219 -0.117,0.297 -0.078,0.078 -0.177,0.117 -0.297,0.117 h -1.242 c -0.12,0 -0.219,-0.039 -0.297,-0.117 z"
   id="path23" />
							<path
   fill="#00b9d2"
   d="m 254.102,365.862 c -0.078,-0.078 -0.117,-0.177 -0.117,-0.297 v -0.54 c 0,-0.275 0.15,-0.54 0.45,-0.792 l 3.924,-3.906 c 0.888,-0.756 1.5,-1.374 1.836,-1.854 0.336,-0.48 0.504,-0.99 0.504,-1.53 0,-0.708 -0.197,-1.263 -0.594,-1.665 -0.396,-0.402 -0.972,-0.603 -1.728,-0.603 -0.721,0 -1.29,0.21 -1.71,0.63 -0.421,0.42 -0.679,0.984 -0.774,1.691 -0.024,0.133 -0.084,0.234 -0.18,0.307 -0.097,0.072 -0.192,0.107 -0.288,0.107 h -0.864 c -0.108,0 -0.198,-0.035 -0.27,-0.107 -0.072,-0.072 -0.108,-0.156 -0.108,-0.252 0.023,-0.636 0.195,-1.251 0.513,-1.846 0.318,-0.594 0.789,-1.08 1.413,-1.458 0.624,-0.378 1.38,-0.567 2.269,-0.567 1.344,0 2.354,0.351 3.032,1.053 0.678,0.702 1.018,1.593 1.018,2.673 0,0.756 -0.184,1.438 -0.549,2.043 -0.366,0.606 -0.939,1.245 -1.72,1.917 l -3.546,3.601 h 5.67 c 0.132,0 0.234,0.036 0.307,0.107 0.071,0.072 0.107,0.175 0.107,0.307 v 0.684 c 0,0.12 -0.039,0.219 -0.117,0.297 -0.078,0.078 -0.177,0.117 -0.297,0.117 h -7.884 c -0.121,0 -0.219,-0.039 -0.297,-0.117 z"
   id="path25" />
							<path
   fill="#00b9d2"
   d="m 264.703,356.511 c -0.054,-0.072 -0.069,-0.162 -0.045,-0.271 l 0.396,-2.52 c 0.048,-0.348 0.216,-0.522 0.504,-0.522 h 1.151 c 0.084,0 0.153,0.03 0.207,0.09 0.055,0.06 0.081,0.132 0.081,0.216 0,0.12 -0.018,0.216 -0.054,0.288 l -0.937,2.43 c -0.06,0.132 -0.126,0.231 -0.197,0.297 -0.072,0.066 -0.181,0.099 -0.324,0.099 h -0.558 c -0.095,0.001 -0.17,-0.035 -0.224,-0.107 z m 2.826,0 c -0.054,-0.072 -0.069,-0.162 -0.045,-0.271 l 0.396,-2.52 c 0.048,-0.348 0.217,-0.522 0.504,-0.522 h 1.152 c 0.084,0 0.153,0.03 0.207,0.09 0.054,0.06 0.081,0.132 0.081,0.216 0,0.12 -0.018,0.216 -0.054,0.288 l -0.937,2.43 c -0.06,0.132 -0.126,0.231 -0.197,0.297 -0.072,0.066 -0.181,0.099 -0.324,0.099 h -0.559 c -0.095,0.001 -0.17,-0.035 -0.224,-0.107 z"
   id="path27" />
							<path
   fill="#00b9d2"
   d="m 194.01,385.461 c -0.071,-0.078 -0.107,-0.177 -0.107,-0.297 v -10.152 l -3.024,2.322 c -0.084,0.072 -0.174,0.108 -0.27,0.108 -0.108,0 -0.21,-0.061 -0.307,-0.181 l -0.432,-0.558 c -0.061,-0.084 -0.09,-0.168 -0.09,-0.252 0,-0.132 0.06,-0.24 0.18,-0.324 l 3.906,-3.023 c 0.132,-0.084 0.288,-0.126 0.468,-0.126 h 0.846 c 0.12,0 0.219,0.039 0.298,0.116 0.077,0.078 0.116,0.178 0.116,0.298 v 11.771 c 0,0.12 -0.039,0.219 -0.116,0.297 -0.079,0.078 -0.178,0.117 -0.298,0.117 h -0.882 c -0.12,0.002 -0.216,-0.037 -0.288,-0.116 z"
   id="path29" />
							<path
   fill="#00b9d2"
   d="m 199.878,385.273 c -0.66,-0.324 -1.164,-0.747 -1.513,-1.27 -0.348,-0.521 -0.534,-1.083 -0.558,-1.683 v -0.036 c 0,-0.096 0.036,-0.174 0.107,-0.234 0.072,-0.06 0.156,-0.09 0.253,-0.09 h 0.882 c 0.252,0 0.414,0.133 0.485,0.396 0.181,0.647 0.514,1.131 0.999,1.448 0.486,0.318 1.047,0.478 1.684,0.478 0.815,0 1.494,-0.249 2.034,-0.747 0.539,-0.498 0.81,-1.185 0.81,-2.061 0,-0.805 -0.271,-1.443 -0.81,-1.918 -0.54,-0.474 -1.219,-0.711 -2.034,-0.711 -0.433,0 -0.78,0.055 -1.044,0.162 -0.265,0.108 -0.534,0.265 -0.811,0.469 -0.156,0.12 -0.285,0.207 -0.387,0.261 -0.103,0.054 -0.213,0.081 -0.333,0.081 h -0.864 c -0.107,0 -0.204,-0.039 -0.288,-0.117 -0.084,-0.078 -0.12,-0.171 -0.107,-0.279 l 0.558,-5.994 c 0.036,-0.3 0.186,-0.449 0.45,-0.449 h 6.228 c 0.132,0 0.234,0.035 0.307,0.107 0.071,0.072 0.107,0.174 0.107,0.307 v 0.666 c 0,0.119 -0.039,0.216 -0.117,0.287 -0.078,0.072 -0.177,0.108 -0.297,0.108 h -5.184 l -0.324,3.618 c 0.576,-0.408 1.351,-0.612 2.322,-0.612 0.804,0 1.536,0.159 2.196,0.478 0.659,0.317 1.185,0.782 1.574,1.395 0.391,0.612 0.585,1.338 0.585,2.178 0,0.889 -0.194,1.653 -0.585,2.295 -0.39,0.643 -0.93,1.129 -1.619,1.458 -0.69,0.33 -1.479,0.495 -2.367,0.495 -0.9,-0.001 -1.68,-0.163 -2.339,-0.486 z"
   id="path31" />
							<path
   fill="#00b9d2"
   d="m 210.902,385.299 c -0.714,-0.306 -1.269,-0.747 -1.665,-1.322 -0.396,-0.576 -0.594,-1.248 -0.594,-2.017 0,-0.708 0.177,-1.329 0.531,-1.863 0.354,-0.533 0.831,-0.944 1.431,-1.232 -0.479,-0.276 -0.852,-0.639 -1.116,-1.089 -0.264,-0.45 -0.396,-0.981 -0.396,-1.594 0,-1.044 0.39,-1.868 1.17,-2.475 0.78,-0.605 1.806,-0.909 3.078,-0.909 1.271,0 2.295,0.301 3.069,0.9 0.773,0.6 1.16,1.428 1.16,2.483 0,0.601 -0.132,1.125 -0.396,1.575 -0.264,0.45 -0.63,0.819 -1.098,1.107 0.6,0.288 1.076,0.699 1.431,1.232 0.354,0.534 0.531,1.161 0.531,1.882 0,0.768 -0.198,1.437 -0.595,2.007 -0.396,0.57 -0.951,1.008 -1.665,1.313 -0.714,0.307 -1.526,0.459 -2.438,0.459 -0.912,0 -1.724,-0.15 -2.438,-0.457 z m 4.573,-1.592 c 0.57,-0.432 0.855,-1.008 0.855,-1.728 0,-0.721 -0.285,-1.297 -0.855,-1.729 -0.57,-0.432 -1.281,-0.647 -2.133,-0.647 -0.864,0 -1.581,0.216 -2.151,0.647 -0.569,0.432 -0.854,1.008 -0.854,1.729 0,0.72 0.285,1.296 0.854,1.728 0.57,0.432 1.287,0.648 2.151,0.648 0.851,0 1.562,-0.217 2.133,-0.648 z m -0.28,-6.048 c 0.505,-0.36 0.757,-0.84 0.757,-1.44 0,-0.611 -0.25,-1.101 -0.747,-1.467 -0.498,-0.366 -1.119,-0.549 -1.863,-0.549 -0.756,0 -1.38,0.183 -1.872,0.549 -0.492,0.366 -0.738,0.855 -0.738,1.467 0,0.612 0.246,1.102 0.738,1.468 0.492,0.366 1.116,0.549 1.872,0.549 0.731,-0.026 1.349,-0.217 1.853,-0.577 z"
   id="path33" />
							<path
   fill="#00b9d2"
   d="m 220.208,385.461 c -0.078,-0.078 -0.117,-0.177 -0.117,-0.297 v -1.242 c 0,-0.119 0.039,-0.222 0.117,-0.306 0.078,-0.084 0.177,-0.126 0.297,-0.126 h 1.242 c 0.12,0 0.219,0.042 0.297,0.126 0.078,0.084 0.117,0.187 0.117,0.306 v 1.242 c 0,0.12 -0.039,0.219 -0.117,0.297 -0.078,0.078 -0.177,0.117 -0.297,0.117 h -1.242 c -0.12,0.001 -0.219,-0.038 -0.297,-0.117 z"
   id="path35" />
							<path
   fill="#00b9d2"
   d="m 226.266,385.299 c -0.685,-0.306 -1.204,-0.704 -1.558,-1.196 -0.354,-0.492 -0.543,-1.002 -0.566,-1.53 0,-0.108 0.035,-0.195 0.107,-0.261 0.072,-0.066 0.162,-0.1 0.271,-0.1 h 0.81 c 0.132,0 0.24,0.027 0.324,0.081 0.084,0.054 0.149,0.159 0.198,0.315 0.155,0.611 0.494,1.044 1.017,1.296 0.523,0.252 1.137,0.378 1.845,0.378 0.864,0 1.551,-0.207 2.062,-0.621 0.51,-0.414 0.765,-1.005 0.765,-1.773 0,-1.464 -0.894,-2.195 -2.682,-2.195 h -1.692 c -0.12,0 -0.219,-0.039 -0.297,-0.117 -0.078,-0.078 -0.117,-0.177 -0.117,-0.297 v -0.468 c 0,-0.181 0.066,-0.336 0.198,-0.469 l 3.51,-3.888 h -5.328 c -0.12,0 -0.219,-0.036 -0.297,-0.108 -0.078,-0.071 -0.117,-0.168 -0.117,-0.287 v -0.648 c 0,-0.132 0.039,-0.237 0.117,-0.315 0.078,-0.077 0.177,-0.116 0.297,-0.116 h 7.128 c 0.132,0 0.237,0.039 0.315,0.116 0.078,0.078 0.117,0.184 0.117,0.315 v 0.594 c 0,0.133 -0.061,0.271 -0.181,0.414 l -3.51,3.942 h 0.288 c 1.225,0.036 2.193,0.354 2.907,0.954 0.714,0.6 1.071,1.476 1.071,2.628 0,0.792 -0.195,1.473 -0.585,2.043 -0.391,0.57 -0.934,1.008 -1.63,1.313 -0.695,0.307 -1.481,0.459 -2.357,0.459 -0.937,0 -1.747,-0.152 -2.43,-0.459 z"
   id="path37" />
							<path
   fill="#00b9d2"
   d="m 240.026,385.461 c -0.078,-0.078 -0.117,-0.177 -0.117,-0.297 v -8.532 c 0,-0.119 0.039,-0.219 0.117,-0.297 0.078,-0.078 0.177,-0.117 0.297,-0.117 h 0.756 c 0.12,0 0.217,0.039 0.288,0.117 0.072,0.078 0.108,0.178 0.108,0.297 v 0.612 c 0.648,-0.804 1.523,-1.206 2.628,-1.206 1.32,0 2.256,0.552 2.808,1.656 0.288,-0.504 0.699,-0.906 1.233,-1.206 0.534,-0.3 1.131,-0.45 1.791,-0.45 0.983,0 1.788,0.336 2.412,1.008 0.624,0.673 0.936,1.645 0.936,2.916 v 5.202 c 0,0.12 -0.039,0.219 -0.116,0.297 -0.078,0.078 -0.178,0.117 -0.298,0.117 h -0.773 c -0.12,0 -0.219,-0.039 -0.297,-0.117 -0.078,-0.078 -0.117,-0.177 -0.117,-0.297 v -5.04 c 0,-0.96 -0.198,-1.646 -0.594,-2.061 -0.396,-0.414 -0.918,-0.621 -1.566,-0.621 -0.576,0 -1.071,0.213 -1.485,0.639 -0.413,0.426 -0.62,1.107 -0.62,2.043 v 5.04 c 0,0.12 -0.039,0.219 -0.117,0.297 -0.078,0.078 -0.178,0.117 -0.297,0.117 h -0.792 c -0.12,0 -0.22,-0.039 -0.298,-0.117 -0.078,-0.078 -0.116,-0.177 -0.116,-0.297 v -5.04 c 0,-0.947 -0.207,-1.632 -0.621,-2.052 -0.414,-0.42 -0.927,-0.63 -1.539,-0.63 -0.576,0 -1.071,0.21 -1.485,0.63 -0.414,0.42 -0.621,1.098 -0.621,2.034 v 5.058 c 0,0.12 -0.039,0.219 -0.117,0.297 -0.078,0.078 -0.177,0.117 -0.297,0.117 h -0.792 c -0.122,0.001 -0.221,-0.038 -0.299,-0.117 z"
   id="path39" />
							<path
   fill="#00b9d2"
   d="m 256.01,385.461 c -0.078,-0.078 -0.117,-0.177 -0.117,-0.297 v -8.532 c 0,-0.119 0.039,-0.219 0.117,-0.297 0.078,-0.078 0.177,-0.117 0.297,-0.117 h 0.756 c 0.12,0 0.217,0.039 0.288,0.117 0.072,0.078 0.108,0.178 0.108,0.297 v 0.612 c 0.648,-0.804 1.523,-1.206 2.628,-1.206 1.32,0 2.256,0.552 2.808,1.656 0.288,-0.504 0.699,-0.906 1.233,-1.206 0.534,-0.3 1.131,-0.45 1.791,-0.45 0.983,0 1.788,0.336 2.412,1.008 0.624,0.673 0.936,1.645 0.936,2.916 v 5.202 c 0,0.12 -0.039,0.219 -0.116,0.297 -0.078,0.078 -0.178,0.117 -0.298,0.117 h -0.773 c -0.12,0 -0.219,-0.039 -0.297,-0.117 -0.078,-0.078 -0.117,-0.177 -0.117,-0.297 v -5.04 c 0,-0.96 -0.198,-1.646 -0.594,-2.061 -0.396,-0.414 -0.918,-0.621 -1.566,-0.621 -0.576,0 -1.071,0.213 -1.485,0.639 -0.413,0.426 -0.62,1.107 -0.62,2.043 v 5.04 c 0,0.12 -0.039,0.219 -0.117,0.297 -0.078,0.078 -0.178,0.117 -0.297,0.117 h -0.792 c -0.12,0 -0.22,-0.039 -0.298,-0.117 -0.078,-0.078 -0.116,-0.177 -0.116,-0.297 v -5.04 c 0,-0.947 -0.207,-1.632 -0.621,-2.052 -0.414,-0.42 -0.927,-0.63 -1.539,-0.63 -0.576,0 -1.071,0.21 -1.485,0.63 -0.414,0.42 -0.621,1.098 -0.621,2.034 v 5.058 c 0,0.12 -0.039,0.219 -0.117,0.297 -0.078,0.078 -0.177,0.117 -0.297,0.117 h -0.792 c -0.122,0.001 -0.221,-0.038 -0.299,-0.117 z"
   id="path41" />
						</g>
					</g>
				</g>
			</g>
			<g
   id="g62">
				<g
   id="POLYLINE_470_">
					
						<line
   fill="none"
   stroke="#00b9d2"
   stroke-width="2"
   stroke-linecap="round"
   stroke-linejoin="round"
   stroke-miterlimit="10"
   x1="118.217"
   y1="672.44299"
   x2="230.32201"
   y2="403.944"
   id="line50" />
				</g>
				<g
   id="POLYLINE_469_">
					
						<line
   fill="none"
   stroke="#00b9d2"
   stroke-width="2"
   stroke-linecap="round"
   stroke-linejoin="round"
   stroke-miterlimit="10"
   x1="254.467"
   y1="345.10501"
   x2="350.897"
   y2="114.274"
   id="line53" />
				</g>
				<g
   id="POLYLINE_468_">
					
						<polyline
   fill="none"
   stroke="#00b9d2"
   stroke-width="2"
   stroke-linecap="round"
   stroke-linejoin="round"
   stroke-miterlimit="10"
   points="       115.05,664.019 118.217,672.443 126.64,669.275      "
   id="polyline56" />
				</g>
				<g
   id="POLYLINE_467_">
					
						<polyline
   fill="none"
   stroke="#00b9d2"
   stroke-width="2"
   stroke-linecap="round"
   stroke-linejoin="round"
   stroke-miterlimit="10"
   points="       354.064,122.697 350.897,114.274 342.473,117.441      "
   id="polyline59" />
				</g>
			</g>
		</g>
		<g
   id="g95">
			<g
   id="POLYLINE_466_">
				
					<polyline
   fill="none"
   stroke="#00b9d2"
   stroke-width="2"
   stroke-linecap="round"
   stroke-linejoin="round"
   stroke-miterlimit="10"
   points="      118.55,633.004 112.187,639.367 118.55,645.73     "
   id="polyline66" />
			</g>
			<g
   id="POLYLINE_465_">
				
					<line
   fill="none"
   stroke="#00b9d2"
   stroke-width="2"
   stroke-linecap="round"
   stroke-linejoin="round"
   stroke-miterlimit="10"
   x1="112.187"
   y1="639.367"
   x2="203.517"
   y2="639.367"
   id="line69" />
			</g>
			<g
   id="POLYLINE_464_">
				
					<line
   fill="none"
   stroke="#00b9d2"
   stroke-width="2"
   stroke-linecap="round"
   stroke-linejoin="round"
   stroke-miterlimit="10"
   x1="283"
   y1="639.367"
   x2="355.495"
   y2="639.367"
   id="line72" />
			</g>
			<g
   id="POLYLINE_444_">
				
					<polyline
   fill="none"
   stroke="#00b9d2"
   stroke-width="2"
   stroke-linecap="round"
   stroke-linejoin="round"
   stroke-miterlimit="10"
   points="      349.118,633.015 355.482,639.379 349.118,645.742     "
   id="polyline75" />
			</g>
			<g
   id="MTEXT_16_">
				<g
   id="g92">
					<g
   id="g90">
						<path
   fill="#00b9d2"
   d="m 214.552,645.226 c -0.072,-0.078 -0.108,-0.177 -0.108,-0.297 v -10.152 l -3.024,2.322 c -0.084,0.072 -0.174,0.108 -0.27,0.108 -0.108,0 -0.21,-0.061 -0.306,-0.181 l -0.432,-0.558 c -0.06,-0.084 -0.09,-0.168 -0.09,-0.252 0,-0.132 0.06,-0.24 0.18,-0.324 l 3.906,-3.023 c 0.132,-0.084 0.288,-0.126 0.468,-0.126 h 0.846 c 0.12,0 0.219,0.039 0.297,0.116 0.078,0.078 0.117,0.178 0.117,0.298 v 11.771 c 0,0.12 -0.039,0.219 -0.117,0.297 -0.078,0.078 -0.177,0.117 -0.297,0.117 h -0.882 c -0.12,10e-4 -0.216,-0.038 -0.288,-0.116 z"
   id="path78" />
						<path
   fill="#00b9d2"
   d="m 224.461,645.226 c -0.078,-0.078 -0.117,-0.177 -0.117,-0.297 v -2.628 h -5.85 c -0.12,0 -0.219,-0.039 -0.297,-0.117 -0.078,-0.078 -0.117,-0.177 -0.117,-0.297 v -0.666 c 0,-0.168 0.066,-0.348 0.198,-0.54 l 5.418,-7.632 c 0.06,-0.096 0.15,-0.171 0.27,-0.225 0.12,-0.055 0.252,-0.081 0.396,-0.081 h 1.224 c 0.132,0 0.234,0.035 0.306,0.107 0.072,0.072 0.108,0.174 0.108,0.307 v 7.632 h 1.638 c 0.12,0 0.219,0.039 0.297,0.117 0.078,0.078 0.117,0.177 0.117,0.297 v 0.684 c 0,0.12 -0.039,0.219 -0.117,0.297 -0.078,0.078 -0.177,0.117 -0.297,0.117 H 226 v 2.628 c 0,0.12 -0.039,0.219 -0.117,0.297 -0.078,0.078 -0.177,0.117 -0.297,0.117 h -0.828 c -0.12,0 -0.219,-0.039 -0.297,-0.117 z m -4.509,-4.4 h 4.41 v -6.265 z"
   id="path80" />
						<path
   fill="#00b9d2"
   d="m 235.585,645.226 c -0.078,-0.078 -0.117,-0.177 -0.117,-0.297 v -2.628 h -5.85 c -0.12,0 -0.219,-0.039 -0.297,-0.117 -0.078,-0.078 -0.117,-0.177 -0.117,-0.297 v -0.666 c 0,-0.168 0.066,-0.348 0.198,-0.54 l 5.418,-7.632 c 0.06,-0.096 0.15,-0.171 0.27,-0.225 0.12,-0.055 0.252,-0.081 0.396,-0.081 h 1.224 c 0.132,0 0.234,0.035 0.306,0.107 0.072,0.072 0.108,0.174 0.108,0.307 v 7.632 h 1.638 c 0.12,0 0.219,0.039 0.297,0.117 0.078,0.078 0.117,0.177 0.117,0.297 v 0.684 c 0,0.12 -0.039,0.219 -0.117,0.297 -0.078,0.078 -0.177,0.117 -0.297,0.117 h -1.638 v 2.628 c 0,0.12 -0.039,0.219 -0.117,0.297 -0.078,0.078 -0.177,0.117 -0.297,0.117 h -0.828 c -0.12,0 -0.219,-0.039 -0.297,-0.117 z m -4.509,-4.4 h 4.41 v -6.265 z"
   id="path82" />
						<path
   fill="#00b9d2"
   d="m 242.064,644.165 c -0.714,-0.906 -1.095,-2.091 -1.143,-3.556 l -0.018,-1.548 0.018,-1.602 c 0.036,-1.452 0.417,-2.631 1.143,-3.537 0.726,-0.906 1.857,-1.359 3.393,-1.359 1.548,0 2.685,0.453 3.411,1.359 0.726,0.906 1.107,2.085 1.143,3.537 0.012,0.336 0.018,0.87 0.018,1.602 0,0.708 -0.006,1.225 -0.018,1.548 -0.048,1.465 -0.429,2.649 -1.143,3.556 -0.714,0.906 -1.851,1.358 -3.411,1.358 -1.547,0 -2.679,-0.452 -3.393,-1.358 z m 5.481,-1.054 c 0.468,-0.611 0.714,-1.476 0.738,-2.592 0.012,-0.348 0.018,-0.846 0.018,-1.494 0,-0.659 -0.006,-1.151 -0.018,-1.476 -0.024,-1.104 -0.273,-1.965 -0.747,-2.583 -0.474,-0.618 -1.167,-0.927 -2.079,-0.927 -0.912,0 -1.602,0.309 -2.07,0.927 -0.468,0.618 -0.714,1.479 -0.738,2.583 l -0.018,1.476 0.018,1.494 c 0.024,1.116 0.27,1.98 0.738,2.592 0.468,0.612 1.158,0.918 2.07,0.918 0.924,0 1.621,-0.306 2.088,-0.918 z"
   id="path84" />
						<path
   fill="#00b9d2"
   d="m 257.076,648.655 c -0.078,-0.071 -0.117,-0.174 -0.117,-0.306 v -11.952 c 0,-0.132 0.039,-0.233 0.117,-0.306 0.078,-0.073 0.177,-0.108 0.297,-0.108 h 0.756 c 0.132,0 0.234,0.036 0.306,0.108 0.072,0.072 0.108,0.174 0.108,0.306 v 0.792 c 0.696,-0.924 1.686,-1.386 2.97,-1.386 1.26,0 2.205,0.399 2.835,1.197 0.63,0.798 0.963,1.815 0.999,3.051 0.012,0.132 0.018,0.336 0.018,0.612 0,0.275 -0.006,0.479 -0.018,0.611 -0.036,1.225 -0.369,2.238 -0.999,3.042 -0.63,0.805 -1.575,1.206 -2.835,1.206 -1.284,0 -2.256,-0.456 -2.916,-1.368 v 4.194 c 0,0.12 -0.039,0.219 -0.117,0.297 -0.078,0.078 -0.177,0.117 -0.297,0.117 h -0.81 c -0.12,0.001 -0.219,-0.035 -0.297,-0.107 z m 5.986,-5.346 c 0.396,-0.54 0.612,-1.248 0.648,-2.124 0.012,-0.119 0.018,-0.294 0.018,-0.521 0,-2.305 -0.853,-3.456 -2.556,-3.456 -0.84,0 -1.473,0.278 -1.899,0.837 -0.426,0.558 -0.651,1.215 -0.675,1.971 -0.012,0.132 -0.018,0.366 -0.018,0.702 0,0.336 0.006,0.57 0.018,0.702 0.024,0.731 0.255,1.365 0.693,1.898 0.438,0.534 1.064,0.802 1.881,0.802 0.863,0 1.494,-0.271 1.89,-0.811 z"
   id="path86" />
						<path
   fill="#00b9d2"
   d="m 266.679,645.235 c -0.072,-0.071 -0.108,-0.161 -0.108,-0.27 0,-0.109 0.042,-0.222 0.126,-0.342 l 3.132,-4.068 -2.934,-3.87 c -0.096,-0.132 -0.144,-0.239 -0.144,-0.324 0,-0.107 0.039,-0.197 0.117,-0.27 0.078,-0.073 0.165,-0.108 0.261,-0.108 h 0.864 c 0.18,0 0.336,0.097 0.468,0.288 l 2.43,3.15 2.43,-3.15 c 0.072,-0.096 0.141,-0.168 0.207,-0.216 0.066,-0.048 0.153,-0.072 0.261,-0.072 h 0.828 c 0.096,0 0.18,0.036 0.252,0.108 0.072,0.072 0.108,0.156 0.108,0.252 0,0.12 -0.042,0.234 -0.126,0.342 l -2.97,3.906 3.132,4.032 c 0.084,0.12 0.126,0.233 0.126,0.342 0,0.109 -0.036,0.198 -0.108,0.27 -0.072,0.072 -0.162,0.108 -0.27,0.108 h -0.882 c -0.18,0 -0.336,-0.09 -0.468,-0.27 l -2.574,-3.33 -2.574,3.33 c -0.072,0.084 -0.141,0.149 -0.207,0.197 -0.066,0.049 -0.153,0.072 -0.261,0.072 h -0.846 c -0.108,10e-4 -0.198,-0.035 -0.27,-0.107 z"
   id="path88" />
					</g>
				</g>
			</g>
		</g>
		<g
   id="g126">
			<g
   id="POLYLINE_443_">
				
					<polyline
   fill="none"
   stroke="#00b9d2"
   stroke-width="2"
   stroke-linecap="round"
   stroke-linejoin="round"
   stroke-miterlimit="10"
   points="      330.644,114.492 324.28,108.129 317.917,114.492     "
   id="polyline97" />
			</g>
			<g
   id="POLYLINE_442_">
				
					<line
   fill="none"
   stroke="#00b9d2"
   stroke-width="2"
   stroke-linecap="round"
   stroke-linejoin="round"
   stroke-miterlimit="10"
   x1="324.28"
   y1="108.129"
   x2="324.28"
   y2="582.80701"
   id="line100" />
			</g>
			<g
   id="POLYLINE_254_">
				
					<line
   fill="none"
   stroke="#00b9d2"
   stroke-width="2"
   stroke-linecap="round"
   stroke-linejoin="round"
   stroke-miterlimit="10"
   x1="324.28"
   y1="615.80701"
   x2="324.28"
   y2="674.242"
   id="line103" />
			</g>
			<g
   id="POLYLINE_154_">
				
					<polyline
   fill="none"
   stroke="#00b9d2"
   stroke-width="2"
   stroke-linecap="round"
   stroke-linejoin="round"
   stroke-miterlimit="10"
   points="      330.632,667.865 324.269,674.229 317.905,667.865     "
   id="polyline106" />
			</g>
			<g
   id="MTEXT_10_">
				<g
   id="g123">
					<g
   id="g121">
						<path
   fill="#00b9d2"
   d="m 277.602,603.362 c -0.684,-0.306 -1.203,-0.704 -1.557,-1.196 -0.354,-0.492 -0.543,-1.002 -0.567,-1.53 0,-0.108 0.036,-0.195 0.108,-0.261 0.072,-0.066 0.162,-0.1 0.27,-0.1 h 0.81 c 0.132,0 0.24,0.027 0.324,0.081 0.083,0.054 0.15,0.159 0.198,0.315 0.156,0.611 0.495,1.044 1.017,1.296 0.522,0.252 1.137,0.378 1.845,0.378 0.864,0 1.551,-0.207 2.061,-0.621 0.51,-0.414 0.765,-1.005 0.765,-1.773 0,-1.464 -0.894,-2.195 -2.682,-2.195 h -1.692 c -0.12,0 -0.219,-0.039 -0.297,-0.117 -0.078,-0.078 -0.117,-0.177 -0.117,-0.297 v -0.468 c 0,-0.181 0.066,-0.336 0.198,-0.469 l 3.51,-3.888 h -5.328 c -0.12,0 -0.219,-0.036 -0.297,-0.108 -0.078,-0.071 -0.117,-0.168 -0.117,-0.287 v -0.648 c 0,-0.132 0.039,-0.237 0.117,-0.315 0.078,-0.077 0.177,-0.116 0.297,-0.116 h 7.128 c 0.132,0 0.237,0.039 0.315,0.116 0.078,0.078 0.117,0.184 0.117,0.315 v 0.594 c 0,0.133 -0.061,0.271 -0.18,0.414 l -3.51,3.942 h 0.288 c 1.224,0.036 2.193,0.354 2.907,0.954 0.714,0.6 1.071,1.476 1.071,2.628 0,0.792 -0.195,1.473 -0.585,2.043 -0.39,0.57 -0.933,1.008 -1.629,1.313 -0.696,0.307 -1.482,0.459 -2.358,0.459 -0.936,0 -1.746,-0.153 -2.43,-0.459 z"
   id="path109" />
						<path
   fill="#00b9d2"
   d="m 286.467,603.524 c -0.078,-0.078 -0.117,-0.177 -0.117,-0.297 v -0.54 c 0,-0.275 0.15,-0.54 0.45,-0.792 l 3.924,-3.906 c 0.888,-0.756 1.5,-1.374 1.836,-1.854 0.336,-0.48 0.504,-0.99 0.504,-1.53 0,-0.708 -0.198,-1.263 -0.594,-1.665 -0.396,-0.401 -0.972,-0.603 -1.728,-0.603 -0.72,0 -1.29,0.21 -1.71,0.63 -0.42,0.42 -0.678,0.984 -0.774,1.691 -0.024,0.133 -0.084,0.234 -0.18,0.307 -0.096,0.073 -0.192,0.107 -0.288,0.107 h -0.864 c -0.108,0 -0.198,-0.035 -0.27,-0.107 -0.072,-0.072 -0.108,-0.156 -0.108,-0.252 0.024,-0.636 0.195,-1.251 0.513,-1.846 0.318,-0.594 0.789,-1.079 1.413,-1.458 0.624,-0.378 1.38,-0.566 2.268,-0.566 1.344,0 2.355,0.351 3.033,1.053 0.678,0.702 1.017,1.593 1.017,2.673 0,0.756 -0.183,1.438 -0.549,2.043 -0.366,0.606 -0.939,1.245 -1.719,1.917 l -3.546,3.601 h 5.67 c 0.132,0 0.234,0.036 0.306,0.107 0.072,0.072 0.108,0.175 0.108,0.307 v 0.684 c 0,0.12 -0.04,0.219 -0.117,0.297 -0.078,0.078 -0.177,0.117 -0.297,0.117 h -7.884 c -0.12,-0.001 -0.219,-0.04 -0.297,-0.118 z"
   id="path111" />
						<path
   fill="#00b9d2"
   d="m 298.275,602.462 c -0.714,-0.906 -1.095,-2.091 -1.143,-3.556 l -0.018,-1.548 0.018,-1.602 c 0.036,-1.452 0.417,-2.631 1.143,-3.537 0.726,-0.906 1.857,-1.359 3.393,-1.359 1.548,0 2.685,0.453 3.411,1.359 0.726,0.906 1.107,2.085 1.143,3.537 0.012,0.336 0.018,0.87 0.018,1.602 0,0.708 -0.006,1.225 -0.018,1.548 -0.048,1.465 -0.429,2.649 -1.143,3.556 -0.714,0.906 -1.851,1.358 -3.411,1.358 -1.548,10e-4 -2.679,-0.451 -3.393,-1.358 z m 5.481,-1.053 c 0.468,-0.611 0.714,-1.476 0.738,-2.592 0.012,-0.348 0.018,-0.846 0.018,-1.494 0,-0.659 -0.006,-1.151 -0.018,-1.476 -0.024,-1.104 -0.273,-1.965 -0.747,-2.583 -0.474,-0.618 -1.167,-0.927 -2.079,-0.927 -0.912,0 -1.602,0.309 -2.07,0.927 -0.468,0.618 -0.714,1.479 -0.738,2.583 l -0.018,1.476 0.018,1.494 c 0.024,1.116 0.27,1.98 0.738,2.592 0.468,0.612 1.158,0.918 2.07,0.918 0.924,0 1.62,-0.306 2.088,-0.918 z"
   id="path113" />
						<path
   fill="#00b9d2"
   d="m 309.669,602.462 c -0.714,-0.906 -1.095,-2.091 -1.143,-3.556 l -0.018,-1.548 0.018,-1.602 c 0.036,-1.452 0.417,-2.631 1.143,-3.537 0.726,-0.906 1.857,-1.359 3.393,-1.359 1.548,0 2.685,0.453 3.411,1.359 0.726,0.906 1.107,2.085 1.143,3.537 0.012,0.336 0.018,0.87 0.018,1.602 0,0.708 -0.006,1.225 -0.018,1.548 -0.048,1.465 -0.429,2.649 -1.143,3.556 -0.714,0.906 -1.851,1.358 -3.411,1.358 -1.548,10e-4 -2.679,-0.451 -3.393,-1.358 z m 5.481,-1.053 c 0.468,-0.611 0.714,-1.476 0.738,-2.592 0.012,-0.348 0.018,-0.846 0.018,-1.494 0,-0.659 -0.006,-1.151 -0.018,-1.476 -0.024,-1.104 -0.273,-1.965 -0.747,-2.583 -0.474,-0.618 -1.167,-0.927 -2.079,-0.927 -0.912,0 -1.602,0.309 -2.07,0.927 -0.468,0.618 -0.714,1.479 -0.738,2.583 l -0.018,1.476 0.018,1.494 c 0.024,1.116 0.27,1.98 0.738,2.592 0.468,0.612 1.158,0.918 2.07,0.918 0.924,0 1.62,-0.306 2.088,-0.918 z"
   id="path115" />
						<path
   fill="#00b9d2"
   d="m 324.68,606.953 c -0.078,-0.071 -0.117,-0.174 -0.117,-0.306 v -11.952 c 0,-0.132 0.039,-0.233 0.117,-0.306 0.078,-0.073 0.177,-0.108 0.297,-0.108 h 0.756 c 0.132,0 0.234,0.036 0.306,0.108 0.072,0.072 0.108,0.174 0.108,0.306 v 0.792 c 0.696,-0.924 1.686,-1.386 2.97,-1.386 1.26,0 2.205,0.399 2.835,1.197 0.63,0.798 0.963,1.815 0.999,3.051 0.012,0.132 0.018,0.336 0.018,0.612 0,0.275 -0.006,0.479 -0.018,0.611 -0.036,1.225 -0.369,2.238 -0.999,3.042 -0.63,0.805 -1.575,1.206 -2.835,1.206 -1.284,0 -2.256,-0.456 -2.916,-1.368 v 4.194 c 0,0.12 -0.039,0.219 -0.117,0.297 -0.078,0.078 -0.177,0.117 -0.297,0.117 h -0.81 c -0.12,0.001 -0.219,-0.035 -0.297,-0.107 z m 5.986,-5.346 c 0.396,-0.54 0.612,-1.248 0.648,-2.124 0.012,-0.119 0.018,-0.294 0.018,-0.521 0,-2.305 -0.853,-3.456 -2.556,-3.456 -0.84,0 -1.473,0.278 -1.899,0.837 -0.426,0.558 -0.651,1.215 -0.675,1.971 -0.012,0.132 -0.018,0.366 -0.018,0.702 0,0.336 0.006,0.57 0.018,0.702 0.024,0.731 0.255,1.365 0.693,1.898 0.438,0.534 1.064,0.802 1.881,0.802 0.863,-10e-4 1.494,-0.271 1.89,-0.811 z"
   id="path117" />
						<path
   fill="#00b9d2"
   d="m 334.284,603.533 c -0.072,-0.071 -0.108,-0.161 -0.108,-0.27 0,-0.109 0.042,-0.222 0.126,-0.342 l 3.132,-4.068 -2.934,-3.87 c -0.096,-0.132 -0.144,-0.239 -0.144,-0.324 0,-0.107 0.039,-0.197 0.117,-0.27 0.078,-0.073 0.165,-0.108 0.261,-0.108 h 0.864 c 0.18,0 0.336,0.097 0.468,0.288 l 2.43,3.15 2.43,-3.15 c 0.072,-0.096 0.141,-0.168 0.207,-0.216 0.066,-0.048 0.153,-0.072 0.261,-0.072 h 0.828 c 0.096,0 0.18,0.036 0.252,0.108 0.072,0.072 0.108,0.156 0.108,0.252 0,0.12 -0.042,0.234 -0.126,0.342 l -2.97,3.906 3.132,4.032 c 0.084,0.12 0.126,0.233 0.126,0.342 0,0.109 -0.036,0.198 -0.108,0.27 -0.072,0.072 -0.162,0.108 -0.27,0.108 h -0.882 c -0.18,0 -0.336,-0.09 -0.468,-0.27 l -2.574,-3.33 -2.574,3.33 c -0.072,0.084 -0.141,0.149 -0.207,0.197 -0.066,0.049 -0.153,0.072 -0.261,0.072 h -0.846 c -0.108,10e-4 -0.198,-0.035 -0.27,-0.107 z"
   id="path119" />
					</g>
				</g>
			</g>
		</g>
	</g>
	<g
   display="inline"
   id="g256">
		<g
   id="g169">
			<g
   id="POLYLINE_242_">
				
					<polyline
   fill="none"
   stroke="#00b9d2"
   stroke-width="2"
   stroke-linecap="round"
   stroke-linejoin="round"
   stroke-miterlimit="10"
   points="      882.546,731.371 888.909,725.008 882.546,718.644     "
   id="polyline130" />
			</g>
			<g
   id="POLYLINE_229_">
				
					<line
   fill="none"
   stroke="#00b9d2"
   stroke-width="2"
   stroke-linecap="round"
   stroke-linejoin="round"
   stroke-miterlimit="10"
   x1="888.909"
   y1="725.008"
   x2="882.66901"
   y2="725.008"
   id="line133" />
			</g>
			<g
   id="POLYLINE_227_">
				
					<line
   fill="none"
   stroke="#00b9d2"
   stroke-width="2"
   stroke-linecap="round"
   stroke-linejoin="round"
   stroke-miterlimit="10"
   x1="882.66901"
   y1="725.008"
   x2="853.49701"
   y2="725.008"
   id="line136" />
			</g>
			<g
   id="POLYLINE_225_">
				
					<polyline
   fill="none"
   stroke="#00b9d2"
   stroke-width="2"
   stroke-linecap="round"
   stroke-linejoin="round"
   stroke-miterlimit="10"
   points="      859.874,731.359 853.51,724.996 859.874,718.633     "
   id="polyline139" />
			</g>
			<g
   id="MTEXT_67_">
				<g
   id="g166">
					<g
   id="g164">
						<g
   id="g162">
							<path
   fill="#00b9d2"
   d="m 777.525,756.977 c -0.087,-0.087 -0.13,-0.196 -0.13,-0.33 v -1.38 c 0,-0.133 0.043,-0.247 0.13,-0.34 0.087,-0.094 0.196,-0.141 0.33,-0.141 h 1.38 c 0.133,0 0.243,0.047 0.33,0.141 0.087,0.093 0.13,0.207 0.13,0.34 v 1.38 c 0,0.134 -0.043,0.243 -0.13,0.33 -0.087,0.087 -0.197,0.13 -0.33,0.13 h -1.38 c -0.133,0 -0.243,-0.043 -0.33,-0.13 z"
   id="path142" />
							<path
   fill="#00b9d2"
   d="m 784.256,756.797 c -0.761,-0.341 -1.337,-0.783 -1.73,-1.33 -0.393,-0.547 -0.604,-1.113 -0.63,-1.7 0,-0.12 0.04,-0.217 0.12,-0.29 0.08,-0.073 0.18,-0.11 0.3,-0.11 h 0.9 c 0.146,0 0.267,0.03 0.359,0.09 0.094,0.061 0.167,0.178 0.22,0.351 0.174,0.68 0.551,1.16 1.131,1.439 0.58,0.28 1.263,0.42 2.05,0.42 0.96,0 1.723,-0.229 2.29,-0.689 0.566,-0.46 0.85,-1.116 0.85,-1.97 0,-1.627 -0.993,-2.44 -2.979,-2.44 h -1.88 c -0.134,0 -0.244,-0.043 -0.33,-0.13 -0.087,-0.087 -0.131,-0.196 -0.131,-0.33 v -0.52 c 0,-0.2 0.073,-0.374 0.221,-0.521 l 3.899,-4.32 h -5.92 c -0.133,0 -0.243,-0.04 -0.33,-0.12 -0.087,-0.079 -0.13,-0.187 -0.13,-0.319 v -0.72 c 0,-0.147 0.043,-0.264 0.13,-0.351 0.087,-0.087 0.197,-0.13 0.33,-0.13 h 7.92 c 0.146,0 0.264,0.043 0.351,0.13 0.086,0.087 0.13,0.203 0.13,0.351 v 0.659 c 0,0.147 -0.067,0.301 -0.2,0.46 l -3.9,4.381 h 0.32 c 1.36,0.039 2.437,0.393 3.23,1.06 0.793,0.667 1.189,1.64 1.189,2.92 0,0.88 -0.217,1.637 -0.649,2.271 -0.434,0.633 -1.037,1.119 -1.811,1.46 -0.773,0.34 -1.646,0.51 -2.62,0.51 -1.041,-0.002 -1.94,-0.172 -2.7,-0.512 z"
   id="path144" />
							<path
   fill="#00b9d2"
   d="m 797.836,756.977 c -0.08,-0.087 -0.12,-0.196 -0.12,-0.33 v -11.28 l -3.36,2.58 c -0.094,0.08 -0.193,0.12 -0.3,0.12 -0.12,0 -0.233,-0.066 -0.34,-0.2 l -0.48,-0.62 c -0.066,-0.093 -0.1,-0.187 -0.1,-0.279 0,-0.146 0.066,-0.267 0.2,-0.36 l 4.34,-3.36 c 0.146,-0.093 0.319,-0.14 0.52,-0.14 h 0.94 c 0.133,0 0.243,0.043 0.33,0.13 0.086,0.087 0.13,0.197 0.13,0.33 v 13.08 c 0,0.134 -0.044,0.243 -0.13,0.33 -0.087,0.087 -0.197,0.13 -0.33,0.13 h -0.98 c -0.134,-10e-4 -0.241,-0.044 -0.32,-0.131 z"
   id="path146" />
							<path
   fill="#00b9d2"
   d="m 802.615,746.847 -0.34,-3.48 v -0.08 c 0,-0.12 0.036,-0.213 0.109,-0.279 0.073,-0.067 0.17,-0.101 0.29,-0.101 h 1.26 c 0.134,0 0.237,0.044 0.311,0.13 0.073,0.087 0.103,0.197 0.09,0.33 l -0.34,3.48 c -0.027,0.293 -0.16,0.439 -0.4,0.439 h -0.58 c -0.24,0.001 -0.373,-0.146 -0.4,-0.439 z m 3.06,0 -0.34,-3.48 v -0.04 c 0,-0.133 0.036,-0.236 0.11,-0.31 0.073,-0.073 0.17,-0.11 0.29,-0.11 h 1.26 c 0.133,0 0.236,0.044 0.31,0.13 0.073,0.087 0.104,0.197 0.09,0.33 l -0.34,3.48 c -0.026,0.293 -0.16,0.439 -0.399,0.439 h -0.58 c -0.241,0.001 -0.375,-0.146 -0.401,-0.439 z"
   id="path148" />
							<path
   fill="#00b9d2"
   d="m 815.075,761.137 c -0.08,-0.087 -0.12,-0.197 -0.12,-0.33 v -21.16 c 0,-0.133 0.04,-0.243 0.12,-0.33 0.08,-0.087 0.187,-0.13 0.319,-0.13 h 0.74 c 0.133,0 0.243,0.043 0.33,0.13 0.087,0.087 0.13,0.197 0.13,0.33 v 21.16 c 0,0.133 -0.043,0.243 -0.13,0.33 -0.087,0.086 -0.197,0.13 -0.33,0.13 h -0.74 c -0.132,0 -0.239,-0.044 -0.319,-0.13 z"
   id="path150" />
							<path
   fill="#00b9d2"
   d="m 825.704,756.977 c -0.073,-0.087 -0.109,-0.19 -0.109,-0.311 l 0.04,-0.18 5,-11.7 h -6.601 c -0.133,0 -0.243,-0.043 -0.33,-0.13 -0.087,-0.086 -0.13,-0.196 -0.13,-0.33 v -0.739 c 0,-0.147 0.04,-0.264 0.12,-0.351 0.08,-0.087 0.193,-0.13 0.34,-0.13 h 8.16 c 0.146,0 0.26,0.043 0.34,0.13 0.08,0.087 0.12,0.203 0.12,0.351 v 0.68 c 0,0.24 -0.054,0.5 -0.16,0.78 l -4.939,11.56 c -0.067,0.146 -0.141,0.267 -0.221,0.36 -0.08,0.093 -0.193,0.14 -0.34,0.14 h -1 c -0.12,0 -0.217,-0.043 -0.29,-0.13 z"
   id="path152" />
							<path
   fill="#00b9d2"
   d="m 833.364,756.977 c -0.087,-0.087 -0.13,-0.196 -0.13,-0.33 v -1.38 c 0,-0.133 0.043,-0.247 0.13,-0.34 0.087,-0.094 0.196,-0.141 0.33,-0.141 h 1.38 c 0.133,0 0.243,0.047 0.33,0.141 0.087,0.093 0.13,0.207 0.13,0.34 v 1.38 c 0,0.134 -0.043,0.243 -0.13,0.33 -0.087,0.087 -0.197,0.13 -0.33,0.13 h -1.38 c -0.133,0 -0.243,-0.043 -0.33,-0.13 z"
   id="path154" />
							<path
   fill="#00b9d2"
   d="m 839.564,756.977 c -0.073,-0.087 -0.11,-0.19 -0.11,-0.311 0,-0.093 0.026,-0.18 0.08,-0.26 l 3.08,-4.28 c -0.32,0.08 -0.693,0.12 -1.12,0.12 -0.96,-0.013 -1.8,-0.236 -2.52,-0.67 -0.721,-0.433 -1.271,-1 -1.65,-1.7 -0.38,-0.699 -0.57,-1.449 -0.57,-2.25 0,-0.8 0.19,-1.56 0.57,-2.279 0.38,-0.721 0.946,-1.307 1.7,-1.76 0.753,-0.453 1.663,-0.681 2.729,-0.681 1.067,0 1.98,0.22 2.74,0.66 0.76,0.44 1.333,1.017 1.721,1.73 0.386,0.713 0.579,1.477 0.579,2.29 0,0.733 -0.13,1.38 -0.39,1.939 -0.26,0.561 -0.604,1.14 -1.03,1.74 l -3.88,5.439 c -0.093,0.12 -0.184,0.217 -0.27,0.29 -0.087,0.074 -0.21,0.11 -0.37,0.11 h -1 c -0.119,0.003 -0.215,-0.04 -0.289,-0.127 z m 3.77,-6.69 c 0.48,-0.253 0.86,-0.609 1.141,-1.069 0.279,-0.46 0.42,-0.99 0.42,-1.591 0,-0.612 -0.141,-1.152 -0.42,-1.619 -0.28,-0.467 -0.66,-0.827 -1.141,-1.08 -0.479,-0.254 -1.007,-0.38 -1.58,-0.38 -0.56,0 -1.076,0.126 -1.55,0.38 -0.474,0.253 -0.85,0.613 -1.13,1.08 -0.28,0.467 -0.42,1.007 -0.42,1.619 0,0.601 0.14,1.131 0.42,1.591 0.28,0.46 0.653,0.816 1.12,1.069 0.467,0.254 0.986,0.38 1.56,0.38 0.574,0 1.1,-0.126 1.58,-0.38 z"
   id="path156" />
							<path
   fill="#00b9d2"
   d="m 854.344,756.977 c -0.087,-0.087 -0.13,-0.196 -0.13,-0.33 v -9.48 c 0,-0.133 0.043,-0.243 0.13,-0.329 0.087,-0.087 0.196,-0.131 0.33,-0.131 h 0.84 c 0.133,0 0.24,0.044 0.32,0.131 0.08,0.086 0.12,0.196 0.12,0.329 v 0.681 c 0.72,-0.894 1.692,-1.34 2.92,-1.34 1.466,0 2.506,0.613 3.119,1.84 0.32,-0.561 0.777,-1.007 1.37,-1.34 0.594,-0.334 1.257,-0.5 1.99,-0.5 1.093,0 1.986,0.373 2.68,1.119 0.693,0.747 1.04,1.827 1.04,3.24 v 5.78 c 0,0.134 -0.043,0.243 -0.13,0.33 -0.087,0.087 -0.196,0.13 -0.33,0.13 h -0.859 c -0.134,0 -0.244,-0.043 -0.33,-0.13 -0.087,-0.087 -0.13,-0.196 -0.13,-0.33 v -5.6 c 0,-1.067 -0.221,-1.83 -0.66,-2.29 -0.44,-0.46 -1.021,-0.69 -1.74,-0.69 -0.64,0 -1.189,0.237 -1.65,0.71 -0.46,0.474 -0.689,1.23 -0.689,2.271 v 5.6 c 0,0.134 -0.044,0.243 -0.13,0.33 -0.087,0.087 -0.197,0.13 -0.33,0.13 h -0.88 c -0.134,0 -0.244,-0.043 -0.33,-0.13 -0.087,-0.087 -0.13,-0.196 -0.13,-0.33 v -5.6 c 0,-1.054 -0.23,-1.813 -0.69,-2.28 -0.46,-0.467 -1.03,-0.7 -1.71,-0.7 -0.64,0 -1.189,0.233 -1.649,0.7 -0.461,0.467 -0.69,1.22 -0.69,2.26 v 5.62 c 0,0.134 -0.044,0.243 -0.13,0.33 -0.087,0.087 -0.197,0.13 -0.33,0.13 h -0.88 c -0.136,-10e-4 -0.245,-0.044 -0.332,-0.131 z"
   id="path158" />
							<path
   fill="#00b9d2"
   d="m 872.104,756.977 c -0.087,-0.087 -0.13,-0.196 -0.13,-0.33 v -9.48 c 0,-0.133 0.043,-0.243 0.13,-0.329 0.087,-0.087 0.196,-0.131 0.33,-0.131 h 0.84 c 0.133,0 0.24,0.044 0.32,0.131 0.08,0.086 0.12,0.196 0.12,0.329 v 0.681 c 0.72,-0.894 1.692,-1.34 2.92,-1.34 1.466,0 2.506,0.613 3.119,1.84 0.32,-0.561 0.777,-1.007 1.37,-1.34 0.594,-0.334 1.257,-0.5 1.99,-0.5 1.093,0 1.986,0.373 2.68,1.119 0.693,0.747 1.04,1.827 1.04,3.24 v 5.78 c 0,0.134 -0.043,0.243 -0.13,0.33 -0.087,0.087 -0.196,0.13 -0.33,0.13 h -0.859 c -0.134,0 -0.244,-0.043 -0.33,-0.13 -0.087,-0.087 -0.13,-0.196 -0.13,-0.33 v -5.6 c 0,-1.067 -0.221,-1.83 -0.66,-2.29 -0.44,-0.46 -1.021,-0.69 -1.74,-0.69 -0.64,0 -1.189,0.237 -1.65,0.71 -0.46,0.474 -0.689,1.23 -0.689,2.271 v 5.6 c 0,0.134 -0.044,0.243 -0.13,0.33 -0.087,0.087 -0.197,0.13 -0.33,0.13 h -0.88 c -0.134,0 -0.244,-0.043 -0.33,-0.13 -0.087,-0.087 -0.13,-0.196 -0.13,-0.33 v -5.6 c 0,-1.054 -0.23,-1.813 -0.69,-2.28 -0.46,-0.467 -1.03,-0.7 -1.71,-0.7 -0.64,0 -1.189,0.233 -1.649,0.7 -0.461,0.467 -0.69,1.22 -0.69,2.26 v 5.62 c 0,0.134 -0.044,0.243 -0.13,0.33 -0.087,0.087 -0.197,0.13 -0.33,0.13 h -0.88 c -0.136,-10e-4 -0.246,-0.044 -0.332,-0.131 z"
   id="path160" />
						</g>
					</g>
				</g>
			</g>
		</g>
		<g
   id="g212">
			<g
   id="POLYLINE_223_">
				
					<polyline
   fill="none"
   stroke="#00b9d2"
   stroke-width="2"
   stroke-linecap="round"
   stroke-linejoin="round"
   stroke-miterlimit="10"
   points="      98.305,724.041 91.941,730.405 98.305,736.768     "
   id="polyline171" />
			</g>
			<g
   id="POLYLINE_222_">
				
					<line
   fill="none"
   stroke="#00b9d2"
   stroke-width="2"
   stroke-linecap="round"
   stroke-linejoin="round"
   stroke-miterlimit="10"
   x1="91.941002"
   y1="730.40503"
   x2="156.45799"
   y2="730.40503"
   id="line174" />
			</g>
			<g
   id="POLYLINE_219_">
				
					<line
   fill="none"
   stroke="#00b9d2"
   stroke-width="2"
   stroke-linecap="round"
   stroke-linejoin="round"
   stroke-miterlimit="10"
   x1="309.927"
   y1="730.40503"
   x2="370.888"
   y2="730.40503"
   id="line177" />
			</g>
			<g
   id="POLYLINE_216_">
				
					<polyline
   fill="none"
   stroke="#00b9d2"
   stroke-width="2"
   stroke-linecap="round"
   stroke-linejoin="round"
   stroke-miterlimit="10"
   points="      364.511,724.053 370.875,730.416 364.511,736.78     "
   id="polyline180" />
			</g>
			<g
   id="MTEXT_66_">
				<g
   id="g209">
					<g
   id="g207">
						<path
   fill="#00b9d2"
   d="m 165.923,737.25 c -0.087,-0.087 -0.13,-0.196 -0.13,-0.33 v -0.6 c 0,-0.307 0.167,-0.601 0.5,-0.881 l 4.36,-4.34 c 0.987,-0.84 1.667,-1.526 2.04,-2.06 0.373,-0.533 0.56,-1.101 0.56,-1.7 0,-0.786 -0.22,-1.403 -0.66,-1.85 -0.44,-0.447 -1.08,-0.67 -1.92,-0.67 -0.8,0 -1.433,0.233 -1.9,0.699 -0.467,0.467 -0.753,1.094 -0.86,1.88 -0.027,0.147 -0.094,0.261 -0.2,0.341 -0.107,0.08 -0.213,0.12 -0.32,0.12 h -0.96 c -0.12,0 -0.22,-0.04 -0.3,-0.12 -0.08,-0.08 -0.12,-0.174 -0.12,-0.28 0.026,-0.707 0.216,-1.39 0.57,-2.05 0.353,-0.66 0.876,-1.2 1.57,-1.62 0.694,-0.42 1.533,-0.63 2.52,-0.63 1.493,0 2.617,0.39 3.37,1.17 0.753,0.78 1.13,1.77 1.13,2.97 0,0.84 -0.203,1.597 -0.61,2.271 -0.407,0.673 -1.043,1.383 -1.91,2.13 l -3.94,4 h 6.3 c 0.146,0 0.26,0.04 0.34,0.12 0.08,0.079 0.12,0.193 0.12,0.34 v 0.76 c 0,0.134 -0.043,0.243 -0.13,0.33 -0.086,0.087 -0.197,0.13 -0.33,0.13 h -8.76 c -0.133,0 -0.243,-0.043 -0.33,-0.13 z"
   id="path183" />
						<path
   fill="#00b9d2"
   d="m 177.983,737.25 c -0.087,-0.087 -0.13,-0.196 -0.13,-0.33 v -1.38 c 0,-0.133 0.043,-0.247 0.13,-0.34 0.086,-0.094 0.196,-0.141 0.33,-0.141 h 1.38 c 0.133,0 0.243,0.047 0.33,0.141 0.087,0.093 0.13,0.207 0.13,0.34 v 1.38 c 0,0.134 -0.043,0.243 -0.13,0.33 -0.086,0.087 -0.197,0.13 -0.33,0.13 h -1.38 c -0.133,0 -0.243,-0.043 -0.33,-0.13 z"
   id="path185" />
						<path
   fill="#00b9d2"
   d="m 183.603,737.25 c -0.073,-0.087 -0.11,-0.19 -0.11,-0.311 l 0.04,-0.18 5,-11.7 h -6.6 c -0.133,0 -0.244,-0.043 -0.33,-0.13 -0.087,-0.086 -0.13,-0.196 -0.13,-0.33 v -0.739 c 0,-0.147 0.04,-0.264 0.12,-0.351 0.08,-0.087 0.193,-0.13 0.34,-0.13 h 8.16 c 0.146,0 0.26,0.043 0.34,0.13 0.08,0.087 0.12,0.203 0.12,0.351 v 0.68 c 0,0.24 -0.054,0.5 -0.16,0.78 l -4.94,11.56 c -0.067,0.146 -0.14,0.267 -0.22,0.36 -0.08,0.093 -0.193,0.14 -0.34,0.14 h -1 c -0.12,0 -0.217,-0.043 -0.29,-0.13 z"
   id="path187" />
						<path
   fill="#00b9d2"
   d="m 192.203,737.25 c -0.087,-0.087 -0.13,-0.196 -0.13,-0.33 v -0.6 c 0,-0.307 0.167,-0.601 0.5,-0.881 l 4.36,-4.34 c 0.987,-0.84 1.667,-1.526 2.04,-2.06 0.373,-0.533 0.56,-1.101 0.56,-1.7 0,-0.786 -0.22,-1.403 -0.66,-1.85 -0.44,-0.447 -1.08,-0.67 -1.92,-0.67 -0.8,0 -1.433,0.233 -1.9,0.699 -0.467,0.467 -0.753,1.094 -0.86,1.88 -0.027,0.147 -0.094,0.261 -0.2,0.341 -0.107,0.08 -0.213,0.12 -0.32,0.12 h -0.96 c -0.12,0 -0.22,-0.04 -0.3,-0.12 -0.08,-0.08 -0.12,-0.174 -0.12,-0.28 0.026,-0.707 0.216,-1.39 0.57,-2.05 0.353,-0.66 0.876,-1.2 1.57,-1.62 0.694,-0.42 1.533,-0.63 2.52,-0.63 1.493,0 2.617,0.39 3.37,1.17 0.753,0.78 1.13,1.77 1.13,2.97 0,0.84 -0.203,1.597 -0.61,2.271 -0.407,0.673 -1.043,1.383 -1.91,2.13 l -3.94,4 h 6.3 c 0.146,0 0.26,0.04 0.34,0.12 0.08,0.079 0.12,0.193 0.12,0.34 v 0.76 c 0,0.134 -0.043,0.243 -0.13,0.33 -0.086,0.087 -0.197,0.13 -0.33,0.13 h -8.76 c -0.134,0 -0.243,-0.043 -0.33,-0.13 z"
   id="path189" />
						<path
   fill="#00b9d2"
   d="m 203.983,726.861 c -0.06,-0.08 -0.077,-0.181 -0.05,-0.301 l 0.44,-2.8 c 0.053,-0.387 0.24,-0.58 0.56,-0.58 h 1.28 c 0.093,0 0.17,0.033 0.23,0.101 0.06,0.066 0.09,0.146 0.09,0.239 0,0.134 -0.02,0.24 -0.06,0.32 l -1.04,2.7 c -0.067,0.146 -0.14,0.257 -0.22,0.33 -0.08,0.073 -0.2,0.109 -0.36,0.109 h -0.62 c -0.107,10e-4 -0.19,-0.039 -0.25,-0.118 z m 3.14,0 c -0.06,-0.08 -0.077,-0.181 -0.05,-0.301 l 0.44,-2.8 c 0.053,-0.387 0.24,-0.58 0.56,-0.58 h 1.28 c 0.093,0 0.17,0.033 0.23,0.101 0.06,0.066 0.09,0.146 0.09,0.239 0,0.134 -0.02,0.24 -0.06,0.32 l -1.04,2.7 c -0.067,0.146 -0.14,0.257 -0.22,0.33 -0.08,0.073 -0.2,0.109 -0.36,0.109 h -0.62 c -0.107,10e-4 -0.19,-0.039 -0.25,-0.118 z"
   id="path191" />
						<path
   fill="#00b9d2"
   d="m 216.993,741.411 c -0.08,-0.087 -0.12,-0.197 -0.12,-0.33 v -21.16 c 0,-0.133 0.04,-0.243 0.12,-0.33 0.08,-0.087 0.187,-0.13 0.32,-0.13 h 0.74 c 0.133,0 0.243,0.043 0.33,0.13 0.087,0.087 0.13,0.197 0.13,0.33 v 21.16 c 0,0.133 -0.043,0.243 -0.13,0.33 -0.086,0.086 -0.197,0.13 -0.33,0.13 h -0.74 c -0.134,0 -0.24,-0.044 -0.32,-0.13 z"
   id="path193" />
						<path
   fill="#00b9d2"
   d="m 228.282,736.93 c -0.78,-0.433 -1.374,-1.017 -1.78,-1.75 -0.406,-0.733 -0.61,-1.533 -0.61,-2.399 0,-1.146 0.46,-2.373 1.38,-3.681 l 3.82,-5.319 c 0.013,-0.014 0.05,-0.061 0.11,-0.141 0.06,-0.08 0.137,-0.143 0.23,-0.189 0.093,-0.046 0.2,-0.07 0.32,-0.07 h 0.98 c 0.12,0 0.217,0.043 0.29,0.13 0.073,0.087 0.11,0.19 0.11,0.311 0,0.066 -0.034,0.153 -0.1,0.26 l -2.92,4.08 c 0.346,-0.08 0.733,-0.12 1.16,-0.12 0.973,0 1.83,0.217 2.57,0.649 0.74,0.434 1.313,1.007 1.72,1.721 0.407,0.713 0.61,1.497 0.61,2.35 0,0.854 -0.203,1.65 -0.61,2.39 -0.407,0.74 -0.997,1.33 -1.77,1.771 -0.773,0.441 -1.687,0.66 -2.74,0.66 -1.067,-0.002 -1.99,-0.219 -2.77,-0.653 z m 4.37,-1.37 c 0.493,-0.239 0.886,-0.597 1.18,-1.069 0.293,-0.474 0.44,-1.044 0.44,-1.71 0,-0.653 -0.15,-1.217 -0.45,-1.69 -0.3,-0.473 -0.697,-0.833 -1.19,-1.08 -0.494,-0.246 -1.027,-0.37 -1.6,-0.37 -0.574,0 -1.107,0.124 -1.6,0.37 -0.494,0.247 -0.887,0.607 -1.18,1.08 -0.293,0.474 -0.44,1.037 -0.44,1.69 0,0.666 0.146,1.236 0.44,1.71 0.293,0.473 0.687,0.83 1.18,1.069 0.493,0.24 1.026,0.36 1.6,0.36 0.586,0 1.126,-0.12 1.62,-0.36 z"
   id="path195" />
						<path
   fill="#00b9d2"
   d="m 240.501,737.25 c -0.073,-0.087 -0.11,-0.19 -0.11,-0.311 0,-0.093 0.026,-0.18 0.08,-0.26 l 3.08,-4.28 c -0.32,0.08 -0.693,0.12 -1.12,0.12 -0.96,-0.013 -1.8,-0.236 -2.52,-0.67 -0.72,-0.433 -1.27,-1 -1.65,-1.7 -0.38,-0.699 -0.57,-1.449 -0.57,-2.25 0,-0.8 0.19,-1.56 0.57,-2.279 0.38,-0.721 0.946,-1.307 1.7,-1.76 0.754,-0.453 1.663,-0.681 2.73,-0.681 1.067,0 1.98,0.22 2.74,0.66 0.76,0.44 1.333,1.017 1.72,1.73 0.386,0.713 0.58,1.477 0.58,2.29 0,0.733 -0.13,1.38 -0.39,1.939 -0.26,0.561 -0.604,1.14 -1.03,1.74 l -3.88,5.439 c -0.093,0.12 -0.184,0.217 -0.27,0.29 -0.087,0.074 -0.21,0.11 -0.37,0.11 h -1 c -0.12,0.003 -0.216,-0.04 -0.29,-0.127 z m 3.77,-6.69 c 0.48,-0.253 0.86,-0.609 1.14,-1.069 0.28,-0.46 0.42,-0.99 0.42,-1.591 0,-0.612 -0.14,-1.152 -0.42,-1.619 -0.28,-0.467 -0.66,-0.827 -1.14,-1.08 -0.48,-0.254 -1.007,-0.38 -1.58,-0.38 -0.56,0 -1.077,0.126 -1.55,0.38 -0.474,0.253 -0.85,0.613 -1.13,1.08 -0.28,0.467 -0.42,1.007 -0.42,1.619 0,0.601 0.14,1.131 0.42,1.591 0.28,0.46 0.653,0.816 1.12,1.069 0.466,0.254 0.986,0.38 1.56,0.38 0.574,0 1.101,-0.126 1.58,-0.38 z"
   id="path197" />
						<path
   fill="#00b9d2"
   d="m 248.922,737.25 c -0.087,-0.087 -0.13,-0.196 -0.13,-0.33 v -1.38 c 0,-0.133 0.043,-0.247 0.13,-0.34 0.086,-0.094 0.196,-0.141 0.33,-0.141 h 1.38 c 0.133,0 0.243,0.047 0.33,0.141 0.087,0.093 0.13,0.207 0.13,0.34 v 1.38 c 0,0.134 -0.043,0.243 -0.13,0.33 -0.086,0.087 -0.197,0.13 -0.33,0.13 h -1.38 c -0.134,0 -0.244,-0.043 -0.33,-0.13 z"
   id="path199" />
						<path
   fill="#00b9d2"
   d="m 256.292,737.25 c -0.08,-0.087 -0.12,-0.196 -0.12,-0.33 v -11.28 l -3.36,2.58 c -0.094,0.08 -0.194,0.12 -0.3,0.12 -0.12,0 -0.233,-0.066 -0.34,-0.2 l -0.48,-0.62 c -0.067,-0.093 -0.1,-0.187 -0.1,-0.279 0,-0.146 0.066,-0.267 0.2,-0.36 l 4.34,-3.36 c 0.146,-0.093 0.32,-0.14 0.52,-0.14 h 0.94 c 0.133,0 0.243,0.043 0.33,0.13 0.086,0.087 0.13,0.197 0.13,0.33 v 13.08 c 0,0.134 -0.043,0.243 -0.13,0.33 -0.087,0.087 -0.197,0.13 -0.33,0.13 h -0.98 c -0.133,-10e-4 -0.24,-0.044 -0.32,-0.131 z"
   id="path201" />
						<path
   fill="#00b9d2"
   d="m 266.141,737.25 c -0.087,-0.087 -0.13,-0.196 -0.13,-0.33 v -9.48 c 0,-0.133 0.043,-0.243 0.13,-0.329 0.087,-0.087 0.197,-0.131 0.33,-0.131 h 0.84 c 0.133,0 0.24,0.044 0.32,0.131 0.08,0.086 0.12,0.196 0.12,0.329 v 0.681 c 0.72,-0.894 1.693,-1.34 2.92,-1.34 1.466,0 2.506,0.613 3.12,1.84 0.32,-0.561 0.777,-1.007 1.37,-1.34 0.593,-0.334 1.257,-0.5 1.99,-0.5 1.093,0 1.986,0.373 2.68,1.119 0.693,0.747 1.04,1.827 1.04,3.24 v 5.78 c 0,0.134 -0.043,0.243 -0.13,0.33 -0.087,0.087 -0.197,0.13 -0.33,0.13 h -0.86 c -0.133,0 -0.244,-0.043 -0.33,-0.13 -0.087,-0.087 -0.13,-0.196 -0.13,-0.33 v -5.6 c 0,-1.067 -0.22,-1.83 -0.66,-2.29 -0.44,-0.46 -1.02,-0.69 -1.74,-0.69 -0.64,0 -1.19,0.237 -1.65,0.71 -0.46,0.474 -0.69,1.23 -0.69,2.271 v 5.6 c 0,0.134 -0.043,0.243 -0.13,0.33 -0.087,0.087 -0.197,0.13 -0.33,0.13 h -0.88 c -0.133,0 -0.244,-0.043 -0.33,-0.13 -0.087,-0.087 -0.13,-0.196 -0.13,-0.33 v -5.6 c 0,-1.054 -0.23,-1.813 -0.69,-2.28 -0.46,-0.467 -1.03,-0.7 -1.71,-0.7 -0.64,0 -1.19,0.233 -1.65,0.7 -0.46,0.467 -0.69,1.22 -0.69,2.26 v 5.62 c 0,0.134 -0.043,0.243 -0.13,0.33 -0.087,0.087 -0.197,0.13 -0.33,0.13 h -0.88 c -0.133,-10e-4 -0.243,-0.044 -0.33,-0.131 z"
   id="path203" />
						<path
   fill="#00b9d2"
   d="m 283.901,737.25 c -0.087,-0.087 -0.13,-0.196 -0.13,-0.33 v -9.48 c 0,-0.133 0.043,-0.243 0.13,-0.329 0.087,-0.087 0.197,-0.131 0.33,-0.131 h 0.84 c 0.133,0 0.24,0.044 0.32,0.131 0.08,0.086 0.12,0.196 0.12,0.329 v 0.681 c 0.72,-0.894 1.693,-1.34 2.92,-1.34 1.466,0 2.506,0.613 3.12,1.84 0.32,-0.561 0.777,-1.007 1.37,-1.34 0.593,-0.334 1.257,-0.5 1.99,-0.5 1.093,0 1.986,0.373 2.68,1.119 0.693,0.747 1.04,1.827 1.04,3.24 v 5.78 c 0,0.134 -0.043,0.243 -0.13,0.33 -0.087,0.087 -0.197,0.13 -0.33,0.13 h -0.86 c -0.133,0 -0.244,-0.043 -0.33,-0.13 -0.087,-0.087 -0.13,-0.196 -0.13,-0.33 v -5.6 c 0,-1.067 -0.22,-1.83 -0.66,-2.29 -0.44,-0.46 -1.02,-0.69 -1.74,-0.69 -0.64,0 -1.19,0.237 -1.65,0.71 -0.46,0.474 -0.69,1.23 -0.69,2.271 v 5.6 c 0,0.134 -0.043,0.243 -0.13,0.33 -0.087,0.087 -0.197,0.13 -0.33,0.13 h -0.88 c -0.133,0 -0.244,-0.043 -0.33,-0.13 -0.087,-0.087 -0.13,-0.196 -0.13,-0.33 v -5.6 c 0,-1.054 -0.23,-1.813 -0.69,-2.28 -0.46,-0.467 -1.03,-0.7 -1.71,-0.7 -0.64,0 -1.19,0.233 -1.65,0.7 -0.46,0.467 -0.69,1.22 -0.69,2.26 v 5.62 c 0,0.134 -0.043,0.243 -0.13,0.33 -0.087,0.087 -0.197,0.13 -0.33,0.13 h -0.88 c -0.133,-10e-4 -0.243,-0.044 -0.33,-0.131 z"
   id="path205" />
					</g>
				</g>
			</g>
		</g>
		<g
   id="g254">
			<g
   id="POLYLINE_17_">
				
					<polyline
   fill="none"
   stroke="#00b9d2"
   stroke-width="2"
   stroke-linecap="round"
   stroke-linejoin="round"
   stroke-miterlimit="10"
   points="      918.784,90.3 912.421,83.937 906.057,90.3     "
   id="polyline214" />
			</g>
			<g
   id="POLYLINE_16_">
				
					<line
   fill="none"
   stroke="#00b9d2"
   stroke-width="2"
   stroke-linecap="round"
   stroke-linejoin="round"
   stroke-miterlimit="10"
   x1="912.42102"
   y1="84.120003"
   x2="912.42102"
   y2="698.88397"
   id="line217" />
			</g>
			<g
   id="POLYLINE_15_">
				
					<polyline
   fill="none"
   stroke="#00b9d2"
   stroke-width="2"
   stroke-linecap="round"
   stroke-linejoin="round"
   stroke-miterlimit="10"
   points="      918.772,692.507 912.409,698.871 906.046,692.507     "
   id="polyline220" />
			</g>
			<g
   id="MTEXT_8_">
				<g
   id="g251">
					<g
   id="g249">
						<path
   fill="#00b9d2"
   d="m 778.556,65.041 c -0.734,-0.36 -1.293,-0.83 -1.68,-1.41 -0.387,-0.58 -0.593,-1.203 -0.62,-1.87 v -0.04 c 0,-0.106 0.04,-0.193 0.12,-0.26 0.08,-0.067 0.173,-0.1 0.28,-0.1 h 0.98 c 0.28,0 0.46,0.146 0.54,0.439 0.2,0.72 0.57,1.257 1.11,1.61 0.54,0.353 1.163,0.529 1.87,0.529 0.907,0 1.66,-0.276 2.26,-0.829 0.6,-0.554 0.9,-1.317 0.9,-2.29 0,-0.894 -0.3,-1.604 -0.9,-2.131 -0.6,-0.526 -1.354,-0.79 -2.26,-0.79 -0.48,0 -0.867,0.061 -1.16,0.181 -0.293,0.12 -0.594,0.293 -0.9,0.52 -0.173,0.134 -0.316,0.23 -0.43,0.29 -0.113,0.061 -0.237,0.09 -0.37,0.09 h -0.96 c -0.12,0 -0.227,-0.043 -0.32,-0.13 -0.094,-0.086 -0.134,-0.189 -0.12,-0.31 l 0.62,-6.66 c 0.04,-0.333 0.207,-0.5 0.5,-0.5 h 6.92 c 0.146,0 0.26,0.04 0.34,0.12 0.08,0.08 0.12,0.193 0.12,0.34 v 0.74 c 0,0.133 -0.043,0.24 -0.13,0.319 -0.087,0.08 -0.197,0.12 -0.33,0.12 h -5.76 l -0.36,4.021 c 0.64,-0.453 1.5,-0.68 2.58,-0.68 0.893,0 1.707,0.177 2.44,0.529 0.733,0.354 1.316,0.87 1.75,1.55 0.433,0.681 0.65,1.487 0.65,2.421 0,0.986 -0.217,1.836 -0.65,2.55 -0.434,0.713 -1.033,1.253 -1.8,1.62 -0.767,0.366 -1.644,0.55 -2.63,0.55 -1.001,0.001 -1.867,-0.18 -2.6,-0.539 z"
   id="path223" />
						<path
   fill="#00b9d2"
   d="m 788.486,65.25 c -0.087,-0.087 -0.13,-0.196 -0.13,-0.33 v -1.38 c 0,-0.133 0.043,-0.247 0.13,-0.34 0.086,-0.094 0.196,-0.141 0.33,-0.141 h 1.38 c 0.133,0 0.243,0.047 0.33,0.141 0.087,0.093 0.13,0.207 0.13,0.34 v 1.38 c 0,0.134 -0.043,0.243 -0.13,0.33 -0.086,0.087 -0.197,0.13 -0.33,0.13 h -1.38 c -0.134,0 -0.244,-0.043 -0.33,-0.13 z"
   id="path225" />
						<path
   fill="#00b9d2"
   d="m 794.686,65.25 c -0.073,-0.087 -0.11,-0.19 -0.11,-0.311 0,-0.093 0.026,-0.18 0.08,-0.26 l 3.08,-4.28 c -0.32,0.08 -0.693,0.12 -1.12,0.12 -0.96,-0.013 -1.8,-0.236 -2.52,-0.67 -0.72,-0.433 -1.27,-1 -1.65,-1.7 -0.38,-0.699 -0.57,-1.449 -0.57,-2.25 0,-0.8 0.19,-1.56 0.57,-2.279 0.38,-0.721 0.946,-1.307 1.7,-1.76 0.754,-0.453 1.663,-0.681 2.73,-0.681 1.067,0 1.98,0.22 2.74,0.66 0.76,0.44 1.333,1.017 1.72,1.73 0.386,0.713 0.58,1.477 0.58,2.29 0,0.733 -0.13,1.38 -0.39,1.939 -0.26,0.561 -0.604,1.14 -1.03,1.74 l -3.88,5.439 c -0.093,0.12 -0.184,0.217 -0.27,0.29 -0.087,0.074 -0.21,0.11 -0.37,0.11 h -1 c -0.121,0.003 -0.217,-0.04 -0.29,-0.127 z m 3.77,-6.69 c 0.48,-0.253 0.86,-0.609 1.14,-1.069 0.28,-0.46 0.42,-0.99 0.42,-1.591 0,-0.612 -0.14,-1.152 -0.42,-1.619 -0.28,-0.467 -0.66,-0.827 -1.14,-1.08 -0.48,-0.254 -1.007,-0.38 -1.58,-0.38 -0.56,0 -1.077,0.126 -1.55,0.38 -0.474,0.253 -0.85,0.613 -1.13,1.08 -0.28,0.467 -0.42,1.007 -0.42,1.619 0,0.601 0.14,1.131 0.42,1.591 0.28,0.46 0.653,0.816 1.12,1.069 0.466,0.254 0.986,0.38 1.56,0.38 0.574,0 1.1,-0.126 1.58,-0.38 z"
   id="path227" />
						<path
   fill="#00b9d2"
   d="m 805.625,65.25 c -0.073,-0.087 -0.11,-0.19 -0.11,-0.311 l 0.04,-0.18 5,-11.7 h -6.6 c -0.133,0 -0.244,-0.043 -0.33,-0.13 -0.087,-0.086 -0.13,-0.196 -0.13,-0.33 V 51.86 c 0,-0.147 0.04,-0.264 0.12,-0.351 0.08,-0.087 0.193,-0.13 0.34,-0.13 h 8.16 c 0.146,0 0.26,0.043 0.34,0.13 0.08,0.087 0.12,0.203 0.12,0.351 v 0.68 c 0,0.24 -0.054,0.5 -0.16,0.78 l -4.94,11.56 c -0.067,0.146 -0.14,0.267 -0.22,0.36 -0.08,0.093 -0.193,0.14 -0.34,0.14 h -1 c -0.12,0 -0.216,-0.043 -0.29,-0.13 z"
   id="path229" />
						<path
   fill="#00b9d2"
   d="m 814.325,54.861 c -0.06,-0.08 -0.077,-0.181 -0.05,-0.301 l 0.44,-2.8 c 0.053,-0.387 0.24,-0.58 0.56,-0.58 h 1.28 c 0.093,0 0.17,0.033 0.23,0.101 0.06,0.066 0.09,0.146 0.09,0.239 0,0.134 -0.02,0.24 -0.06,0.32 l -1.04,2.7 c -0.067,0.146 -0.14,0.257 -0.22,0.33 -0.08,0.073 -0.2,0.109 -0.36,0.109 h -0.62 c -0.107,10e-4 -0.19,-0.039 -0.25,-0.118 z m 3.14,0 c -0.06,-0.08 -0.077,-0.181 -0.05,-0.301 l 0.44,-2.8 c 0.053,-0.387 0.24,-0.58 0.56,-0.58 h 1.28 c 0.093,0 0.17,0.033 0.23,0.101 0.06,0.066 0.09,0.146 0.09,0.239 0,0.134 -0.02,0.24 -0.06,0.32 l -1.04,2.7 c -0.067,0.146 -0.14,0.257 -0.22,0.33 -0.08,0.073 -0.2,0.109 -0.36,0.109 h -0.62 c -0.107,10e-4 -0.19,-0.039 -0.25,-0.118 z"
   id="path231" />
						<path
   fill="#00b9d2"
   d="m 827.335,69.411 c -0.08,-0.087 -0.12,-0.197 -0.12,-0.33 V 47.92 c 0,-0.133 0.04,-0.243 0.12,-0.33 0.08,-0.087 0.187,-0.13 0.32,-0.13 h 0.74 c 0.133,0 0.243,0.043 0.33,0.13 0.087,0.087 0.13,0.197 0.13,0.33 v 21.16 c 0,0.133 -0.043,0.243 -0.13,0.33 -0.086,0.086 -0.197,0.13 -0.33,0.13 h -0.74 c -0.134,10e-4 -0.24,-0.043 -0.32,-0.129 z"
   id="path233" />
						<path
   fill="#00b9d2"
   d="m 840.455,65.25 c -0.08,-0.087 -0.12,-0.196 -0.12,-0.33 V 53.64 l -3.36,2.58 c -0.094,0.08 -0.194,0.12 -0.3,0.12 -0.12,0 -0.233,-0.066 -0.34,-0.2 l -0.48,-0.62 c -0.067,-0.093 -0.1,-0.187 -0.1,-0.279 0,-0.146 0.066,-0.267 0.2,-0.36 l 4.34,-3.36 c 0.146,-0.093 0.32,-0.14 0.52,-0.14 h 0.94 c 0.133,0 0.243,0.043 0.33,0.13 0.086,0.087 0.13,0.197 0.13,0.33 v 13.08 c 0,0.134 -0.043,0.243 -0.13,0.33 -0.087,0.087 -0.197,0.13 -0.33,0.13 h -0.98 c -0.134,-0.001 -0.241,-0.044 -0.32,-0.131 z"
   id="path235" />
						<path
   fill="#00b9d2"
   d="m 846.974,65.041 c -0.734,-0.36 -1.293,-0.83 -1.68,-1.41 -0.387,-0.58 -0.593,-1.203 -0.62,-1.87 v -0.04 c 0,-0.106 0.04,-0.193 0.12,-0.26 0.08,-0.067 0.173,-0.1 0.28,-0.1 h 0.98 c 0.28,0 0.46,0.146 0.54,0.439 0.2,0.72 0.57,1.257 1.11,1.61 0.54,0.353 1.163,0.529 1.87,0.529 0.907,0 1.66,-0.276 2.26,-0.829 0.6,-0.554 0.9,-1.317 0.9,-2.29 0,-0.894 -0.3,-1.604 -0.9,-2.131 -0.6,-0.526 -1.354,-0.79 -2.26,-0.79 -0.48,0 -0.867,0.061 -1.16,0.181 -0.293,0.12 -0.594,0.293 -0.9,0.52 -0.173,0.134 -0.316,0.23 -0.43,0.29 -0.113,0.061 -0.237,0.09 -0.37,0.09 h -0.96 c -0.12,0 -0.227,-0.043 -0.32,-0.13 -0.094,-0.086 -0.134,-0.189 -0.12,-0.31 l 0.62,-6.66 c 0.04,-0.333 0.207,-0.5 0.5,-0.5 h 6.92 c 0.146,0 0.26,0.04 0.34,0.12 0.08,0.08 0.12,0.193 0.12,0.34 v 0.74 c 0,0.133 -0.043,0.24 -0.13,0.319 -0.087,0.08 -0.197,0.12 -0.33,0.12 h -5.76 l -0.36,4.021 c 0.64,-0.453 1.5,-0.68 2.58,-0.68 0.893,0 1.707,0.177 2.44,0.529 0.733,0.354 1.316,0.87 1.75,1.55 0.433,0.681 0.65,1.487 0.65,2.421 0,0.986 -0.217,1.836 -0.65,2.55 -0.434,0.713 -1.033,1.253 -1.8,1.62 -0.767,0.366 -1.644,0.55 -2.63,0.55 -1,0.001 -1.867,-0.18 -2.6,-0.539 z"
   id="path237" />
						<path
   fill="#00b9d2"
   d="m 860.474,65.25 c -0.08,-0.087 -0.12,-0.196 -0.12,-0.33 V 53.64 l -3.36,2.58 c -0.094,0.08 -0.194,0.12 -0.3,0.12 -0.12,0 -0.233,-0.066 -0.34,-0.2 l -0.48,-0.62 c -0.067,-0.093 -0.1,-0.187 -0.1,-0.279 0,-0.146 0.066,-0.267 0.2,-0.36 l 4.34,-3.36 c 0.146,-0.093 0.32,-0.14 0.52,-0.14 h 0.94 c 0.133,0 0.243,0.043 0.33,0.13 0.086,0.087 0.13,0.197 0.13,0.33 v 13.08 c 0,0.134 -0.043,0.243 -0.13,0.33 -0.087,0.087 -0.197,0.13 -0.33,0.13 h -0.98 c -0.133,-0.001 -0.24,-0.044 -0.32,-0.131 z"
   id="path239" />
						<path
   fill="#00b9d2"
   d="m 865.264,65.25 c -0.087,-0.087 -0.13,-0.196 -0.13,-0.33 v -1.38 c 0,-0.133 0.043,-0.247 0.13,-0.34 0.086,-0.094 0.196,-0.141 0.33,-0.141 h 1.38 c 0.133,0 0.243,0.047 0.33,0.141 0.087,0.093 0.13,0.207 0.13,0.34 v 1.38 c 0,0.134 -0.043,0.243 -0.13,0.33 -0.086,0.087 -0.197,0.13 -0.33,0.13 h -1.38 c -0.134,0 -0.243,-0.043 -0.33,-0.13 z"
   id="path241" />
						<path
   fill="#00b9d2"
   d="m 870.884,65.25 c -0.073,-0.087 -0.11,-0.19 -0.11,-0.311 l 0.04,-0.18 5,-11.7 h -6.6 c -0.133,0 -0.244,-0.043 -0.33,-0.13 -0.087,-0.086 -0.13,-0.196 -0.13,-0.33 V 51.86 c 0,-0.147 0.04,-0.264 0.12,-0.351 0.08,-0.087 0.193,-0.13 0.34,-0.13 h 8.16 c 0.146,0 0.26,0.043 0.34,0.13 0.08,0.087 0.12,0.203 0.12,0.351 v 0.68 c 0,0.24 -0.054,0.5 -0.16,0.78 l -4.94,11.56 c -0.067,0.146 -0.14,0.267 -0.22,0.36 -0.08,0.093 -0.193,0.14 -0.34,0.14 h -1 c -0.12,0 -0.217,-0.043 -0.29,-0.13 z"
   id="path243" />
						<path
   fill="#00b9d2"
   d="m 884.923,65.25 c -0.087,-0.087 -0.13,-0.196 -0.13,-0.33 v -9.48 c 0,-0.133 0.043,-0.243 0.13,-0.329 0.087,-0.087 0.197,-0.131 0.33,-0.131 h 0.84 c 0.133,0 0.24,0.044 0.32,0.131 0.08,0.086 0.12,0.196 0.12,0.329 v 0.681 c 0.72,-0.894 1.693,-1.34 2.92,-1.34 1.466,0 2.506,0.613 3.12,1.84 0.32,-0.561 0.777,-1.007 1.37,-1.34 0.593,-0.334 1.257,-0.5 1.99,-0.5 1.093,0 1.986,0.373 2.68,1.119 0.693,0.747 1.04,1.827 1.04,3.24 v 5.78 c 0,0.134 -0.043,0.243 -0.13,0.33 -0.087,0.087 -0.197,0.13 -0.33,0.13 h -0.86 c -0.133,0 -0.244,-0.043 -0.33,-0.13 -0.087,-0.087 -0.13,-0.196 -0.13,-0.33 v -5.6 c 0,-1.067 -0.22,-1.83 -0.66,-2.29 -0.44,-0.46 -1.02,-0.69 -1.74,-0.69 -0.64,0 -1.19,0.237 -1.65,0.71 -0.46,0.474 -0.69,1.23 -0.69,2.271 v 5.6 c 0,0.134 -0.043,0.243 -0.13,0.33 -0.087,0.087 -0.197,0.13 -0.33,0.13 h -0.88 c -0.133,0 -0.244,-0.043 -0.33,-0.13 -0.087,-0.087 -0.13,-0.196 -0.13,-0.33 v -5.6 c 0,-1.054 -0.23,-1.813 -0.69,-2.28 -0.46,-0.467 -1.03,-0.7 -1.71,-0.7 -0.64,0 -1.19,0.233 -1.65,0.7 -0.46,0.467 -0.69,1.22 -0.69,2.26 v 5.62 c 0,0.134 -0.043,0.243 -0.13,0.33 -0.087,0.087 -0.197,0.13 -0.33,0.13 h -0.88 c -0.133,-0.001 -0.243,-0.044 -0.33,-0.131 z"
   id="path245" />
						<path
   fill="#00b9d2"
   d="m 902.683,65.25 c -0.087,-0.087 -0.13,-0.196 -0.13,-0.33 v -9.48 c 0,-0.133 0.043,-0.243 0.13,-0.329 0.087,-0.087 0.197,-0.131 0.33,-0.131 h 0.84 c 0.133,0 0.24,0.044 0.32,0.131 0.08,0.086 0.12,0.196 0.12,0.329 v 0.681 c 0.72,-0.894 1.693,-1.34 2.92,-1.34 1.466,0 2.506,0.613 3.12,1.84 0.32,-0.561 0.777,-1.007 1.37,-1.34 0.593,-0.334 1.257,-0.5 1.99,-0.5 1.093,0 1.986,0.373 2.68,1.119 0.693,0.747 1.04,1.827 1.04,3.24 v 5.78 c 0,0.134 -0.043,0.243 -0.13,0.33 -0.087,0.087 -0.197,0.13 -0.33,0.13 h -0.86 c -0.133,0 -0.244,-0.043 -0.33,-0.13 -0.087,-0.087 -0.13,-0.196 -0.13,-0.33 v -5.6 c 0,-1.067 -0.22,-1.83 -0.66,-2.29 -0.44,-0.46 -1.02,-0.69 -1.74,-0.69 -0.64,0 -1.19,0.237 -1.65,0.71 -0.46,0.474 -0.69,1.23 -0.69,2.271 v 5.6 c 0,0.134 -0.043,0.243 -0.13,0.33 -0.087,0.087 -0.197,0.13 -0.33,0.13 h -0.88 c -0.133,0 -0.244,-0.043 -0.33,-0.13 -0.087,-0.087 -0.13,-0.196 -0.13,-0.33 v -5.6 c 0,-1.054 -0.23,-1.813 -0.69,-2.28 -0.46,-0.467 -1.03,-0.7 -1.71,-0.7 -0.64,0 -1.19,0.233 -1.65,0.7 -0.46,0.467 -0.69,1.22 -0.69,2.26 v 5.62 c 0,0.134 -0.043,0.243 -0.13,0.33 -0.087,0.087 -0.197,0.13 -0.33,0.13 h -0.88 c -0.133,-0.001 -0.243,-0.044 -0.33,-0.131 z"
   id="path247" />
					</g>
				</g>
			</g>
		</g>
	</g>
</g>


<rect
   x="280.59201"
   y="229.72"
   fill="none"
   stroke="#00b9d2"
   stroke-width="2.75"
   stroke-linecap="round"
   stroke-linejoin="round"
   stroke-miterlimit="10"
   width="3.0280001"
   height="40.502998"
   id="rect330"
   style="stroke:#000000;stroke-opacity:1" /><rect
   x="280.59201"
   y="112.009"
   fill="none"
   stroke="#00b9d2"
   stroke-width="2.75"
   stroke-linecap="round"
   stroke-linejoin="round"
   stroke-miterlimit="10"
   width="3.0280001"
   height="77.898003"
   id="rect333"
   style="stroke:#000000;stroke-opacity:1" /><path
   fill="none"
   stroke="#00b9d2"
   stroke-width="2.75"
   stroke-linecap="round"
   stroke-linejoin="round"
   stroke-miterlimit="10"
   d="m 149.118,23.139 c 0.011,-3.644 -2.507,-6.881 -6.043,-7.764 -5.034,-1.267 -9.923,2.504 -9.975,7.695 -0.037,5.249 4.885,9.114 9.975,7.834 3.535,-0.885 6.054,-4.121 6.043,-7.765 z"
   id="path336"
   style="stroke:#000000;stroke-opacity:1" /><polygon
   fill="none"
   stroke="#00b9d2"
   stroke-width="2.75"
   stroke-linecap="round"
   stroke-linejoin="round"
   stroke-miterlimit="10"
   points="342.726,97.225 343.137,97.271 343.547,97.324 343.956,97.385 344.364,97.452 344.771,97.527 345.176,97.608 345.581,97.697 345.983,97.792 346.384,97.895 346.783,98.004 347.18,98.121 347.575,98.244 347.967,98.373 348.358,98.51 348.746,98.653 349.131,98.803 349.514,98.96 349.894,99.123 350.271,99.293 350.646,99.469 351.017,99.652 351.385,99.841 351.749,100.036 352.11,100.238 352.468,100.446 352.822,100.66 353.172,100.88 353.519,101.106 353.861,101.338 354.199,101.576 354.534,101.82 354.864,102.069 355.189,102.324 355.51,102.585 355.827,102.851 356.139,103.123 356.446,103.4 356.749,103.682 357.046,103.969 357.339,104.262 357.626,104.559 357.908,104.862 358.185,105.169 358.457,105.481 358.723,105.798 358.984,106.119 359.239,106.444 359.488,106.774 359.732,107.109 359.97,107.447 360.202,107.789 360.428,108.136 360.648,108.486 360.862,108.84 361.07,109.198 361.272,109.559 361.467,109.923 361.656,110.291 361.839,110.662 362.015,111.037 362.185,111.414 362.348,111.794 362.505,112.177 362.655,112.562 362.798,112.95 362.935,113.341 363.064,113.733 363.187,114.128 363.304,114.525 363.413,114.924 363.516,115.325 363.611,115.727 363.7,116.132 363.781,116.537 363.856,116.944 363.923,117.352 363.984,117.761 364.037,118.171 364.083,118.582 364.123,118.994 364.155,119.407 364.18,119.82 364.198,120.233 364.208,120.646 364.212,121.06 364.212,661.335 364.208,661.749 364.198,662.162 364.18,662.576 364.155,662.988 364.123,663.401 364.083,663.813 364.037,664.224 363.984,664.634 363.923,665.043 363.856,665.451 363.781,665.858 363.7,666.264 363.611,666.668 363.516,667.07 363.413,667.471 363.304,667.87 363.187,668.267 363.064,668.662 362.935,669.054 362.798,669.445 362.655,669.833 362.505,670.218 362.348,670.601 362.185,670.981 362.015,671.358 361.839,671.733 361.656,672.104 361.467,672.472 361.272,672.836 361.07,673.197 360.862,673.555 360.648,673.909 360.428,674.259 360.202,674.606 359.97,674.948 359.732,675.286 359.488,675.621 359.239,675.951 358.984,676.276 358.723,676.597 358.457,676.914 358.185,677.226 357.908,677.533 357.626,677.836 357.339,678.133 357.046,678.426 356.749,678.713 356.446,678.995 356.139,679.272 355.827,679.544 355.51,679.81 355.189,680.071 354.864,680.326 354.534,680.575 354.199,680.819 353.861,681.057 353.519,681.289 353.172,681.515 352.822,681.735 352.468,681.949 352.11,682.157 351.749,682.359 351.385,682.554 351.017,682.743 350.646,682.926 350.271,683.102 349.894,683.272 349.514,683.435 349.131,683.592 348.746,683.742 348.358,683.885 347.967,684.022 347.575,684.151 347.18,684.275 346.783,684.391 346.384,684.5 345.983,684.603 345.581,684.698 345.176,684.787 344.771,684.868 344.364,684.943 343.956,685.01 343.547,685.071 343.137,685.124 342.726,685.171 342.314,685.21 341.901,685.242 341.488,685.267 341.075,685.285 340.662,685.295 340.248,685.299 123.805,685.299 123.392,685.295 122.978,685.285 122.565,685.267 122.152,685.242 121.74,685.21 121.328,685.171 120.917,685.124 120.507,685.071 120.097,685.01 119.689,684.943 119.282,684.868 118.877,684.787 118.473,684.698 118.07,684.603 117.67,684.5 117.271,684.391 116.874,684.275 116.479,684.151 116.086,684.022 115.696,683.885 115.308,683.742 114.922,683.592 114.539,683.435 114.159,683.272 113.782,683.102 113.408,682.926 113.037,682.743 112.669,682.554 112.304,682.359 111.943,682.157 111.585,681.949 111.231,681.735 110.881,681.515 110.535,681.289 110.192,681.057 109.854,680.819 109.52,680.575 109.19,680.326 108.864,680.071 108.543,679.81 108.226,679.544 107.914,679.272 107.607,678.995 107.305,678.713 107.007,678.426 106.715,678.133 106.427,677.836 106.145,677.533 105.868,677.226 105.596,676.914 105.33,676.597 105.07,676.276 104.814,675.951 104.565,675.621 104.321,675.286 104.083,674.948 103.851,674.606 103.625,674.259 103.405,673.909 103.191,673.555 102.983,673.197 102.782,672.836 102.586,672.472 102.397,672.104 102.215,671.733 102.038,671.358 101.869,670.981 101.705,670.601 101.549,670.218 101.399,669.833 101.255,669.445 101.119,669.054 100.989,668.662 100.866,668.267 100.75,667.87 100.64,667.471 100.538,667.07 100.442,666.668 100.354,666.264 100.272,665.858 100.198,665.451 100.13,665.043 100.07,664.634 100.016,664.224 99.97,663.813 99.931,663.401 99.899,662.988 99.874,662.576 99.856,662.162 99.845,661.749 99.841,661.335 99.841,121.06 99.845,120.646 99.856,120.233 99.874,119.82 99.899,119.407 99.931,118.994 99.97,118.582 100.016,118.171 100.07,117.761 100.13,117.352 100.198,116.944 100.272,116.537 100.354,116.132 100.442,115.727 100.538,115.325 100.64,114.924 100.75,114.525 100.866,114.128 100.989,113.733 101.119,113.341 101.255,112.95 101.399,112.562 101.549,112.177 101.705,111.794 101.869,111.414 102.038,111.037 102.215,110.662 102.397,110.291 102.586,109.923 102.782,109.559 102.983,109.198 103.191,108.84 103.405,108.486 103.625,108.136 103.851,107.789 104.083,107.447 104.321,107.109 104.565,106.774 104.814,106.444 105.07,106.119 105.33,105.798 105.596,105.481 105.868,105.169 106.145,104.862 106.427,104.559 106.715,104.262 107.007,103.969 107.305,103.682 107.607,103.4 107.914,103.123 108.226,102.851 108.543,102.585 108.864,102.324 109.19,102.069 109.52,101.82 109.854,101.576 110.192,101.338 110.535,101.106 110.881,100.88 111.231,100.66 111.585,100.446 111.943,100.238 112.304,100.036 112.669,99.841 113.037,99.652 113.408,99.469 113.782,99.293 114.159,99.123 114.539,98.96 114.922,98.803 115.308,98.653 115.696,98.51 116.086,98.373 116.479,98.244 116.874,98.121 117.271,98.004 117.67,97.895 118.07,97.792 118.473,97.697 118.877,97.608 119.282,97.527 119.689,97.452 120.097,97.385 120.507,97.324 120.917,97.271 121.328,97.225 121.74,97.185 122.152,97.153 122.565,97.128 122.978,97.11 123.392,97.1 123.805,97.096 340.248,97.096 340.662,97.1 341.075,97.11 341.488,97.128 341.901,97.153 342.314,97.185 "
   id="polygon339"
   transform="translate(-90.918,-85.918)"
   style="stroke:#000000;stroke-opacity:1" /><polyline
   fill="none"
   stroke="#00b9d2"
   stroke-width="2.75"
   stroke-linecap="round"
   stroke-linejoin="round"
   stroke-miterlimit="10"
   points="    92.543,662.995 92.548,663.555 92.563,664.115 92.587,664.674 92.621,665.233 92.664,665.791 92.717,666.348 92.78,666.905     92.852,667.46 92.934,668.014 93.025,668.566 93.126,669.117 93.237,669.666 93.357,670.213 93.486,670.757 93.625,671.3     93.773,671.84 93.93,672.377 94.097,672.912 94.272,673.443 94.457,673.972 94.651,674.497 94.854,675.019 95.066,675.537     95.287,676.051 95.517,676.562 95.756,677.068 96.003,677.571 96.259,678.069 96.523,678.562 96.796,679.051 97.077,679.535     97.367,680.014 97.665,680.488 97.971,680.957 98.285,681.421 98.607,681.879 98.937,682.331 99.275,682.778 99.62,683.219     99.973,683.653 100.333,684.082 100.701,684.504 101.076,684.92 101.458,685.329 101.847,685.732 102.242,686.128     102.645,686.517 103.054,686.899 103.47,687.274 103.893,687.641 104.321,688.002 104.756,688.354 105.197,688.7 105.643,689.037     106.096,689.367 106.554,689.689 107.017,690.003 107.486,690.309 107.96,690.607 108.439,690.897 108.923,691.178     109.412,691.451 109.906,691.716 110.404,691.972 110.906,692.219 111.412,692.457 111.923,692.687 112.437,692.908     112.956,693.12 113.477,693.323 114.003,693.517 114.531,693.702 115.063,693.878 115.597,694.044 116.135,694.202     116.675,694.35 117.217,694.488 117.762,694.618 118.309,694.738 118.857,694.848 119.408,694.949 119.961,695.04     120.514,695.122 121.07,695.195 121.626,695.257 122.183,695.31 122.742,695.354 123.3,695.388 123.86,695.412 124.42,695.426     124.979,695.431 339.074,695.431 339.634,695.426 340.193,695.412 340.753,695.388 341.312,695.354 341.87,695.31     342.427,695.257 342.984,695.195 343.539,695.122 344.093,695.04 344.645,694.949 345.196,694.848 345.745,694.738     346.292,694.618 346.836,694.488 347.379,694.35 347.919,694.202 348.456,694.044 348.991,693.878 349.522,693.702     350.051,693.517 350.576,693.323 351.098,693.12 351.616,692.908 352.13,692.687 352.641,692.457 353.147,692.219 353.65,691.972     354.148,691.716 354.641,691.451 355.13,691.178 355.614,690.897 356.093,690.607 356.567,690.309 357.036,690.003 357.5,689.689     357.958,689.367 358.41,689.037 358.857,688.7 359.297,688.354 359.732,688.002 360.161,687.641 360.583,687.274 360.999,686.899     361.408,686.517 361.811,686.128 362.207,685.732 362.596,685.329 362.978,684.92 363.353,684.504 363.72,684.082     364.081,683.653 364.433,683.219 364.779,682.778 365.116,682.331 365.446,681.879 365.768,681.421 366.082,680.957     366.388,680.488 366.686,680.014 366.976,679.535 367.257,679.051 367.53,678.562 367.795,678.069 368.05,677.571     368.298,677.068 368.536,676.562 368.766,676.051 368.987,675.537 369.199,675.019 369.402,674.497 369.596,673.972     369.781,673.443 369.957,672.912 370.123,672.377 370.281,671.84 370.429,671.3 370.567,670.757 370.697,670.213 370.817,669.666     370.927,669.117 371.028,668.566 371.119,668.014 371.201,667.46 371.273,666.905 371.336,666.348 371.389,665.791     371.433,665.233 371.466,664.674 371.491,664.115 371.505,663.555 371.51,662.995   "
   id="polyline342"
   transform="translate(-90.918,-85.918)"
   style="stroke:#000000;stroke-opacity:1" /><polyline
   fill="none"
   stroke="#00b9d2"
   stroke-width="2.75"
   stroke-linecap="round"
   stroke-linejoin="round"
   stroke-miterlimit="10"
   points="    92.543,124.526 92.548,123.966 92.563,123.407 92.587,122.847 92.621,122.288 92.664,121.73 92.717,121.173 92.78,120.616     92.852,120.061 92.934,119.507 93.025,118.955 93.126,118.404 93.237,117.855 93.357,117.308 93.486,116.764 93.625,116.221     93.773,115.681 93.93,115.144 94.097,114.609 94.272,114.078 94.457,113.549 94.651,113.024 94.854,112.502 95.066,111.984     95.287,111.47 95.517,110.959 95.756,110.453 96.003,109.95 96.259,109.452 96.523,108.959 96.796,108.47 97.077,107.986     97.367,107.507 97.665,107.033 97.971,106.564 98.285,106.1 98.607,105.642 98.937,105.19 99.275,104.743 99.62,104.303     99.973,103.868 100.333,103.439 100.701,103.017 101.076,102.601 101.458,102.192 101.847,101.789 102.242,101.393     102.645,101.004 103.054,100.622 103.47,100.247 103.893,99.88 104.321,99.52 104.756,99.167 105.197,98.821 105.643,98.484     106.096,98.154 106.554,97.832 107.017,97.518 107.486,97.212 107.96,96.914 108.439,96.624 108.923,96.343 109.412,96.07     109.906,95.806 110.404,95.55 110.906,95.302 111.412,95.064 111.923,94.834 112.437,94.613 112.956,94.401 113.477,94.198     114.003,94.004 114.531,93.819 115.063,93.643 115.597,93.477 116.135,93.319 116.675,93.171 117.217,93.033 117.762,92.903     118.309,92.784 118.857,92.673 119.408,92.572 119.961,92.481 120.514,92.399 121.07,92.327 121.626,92.264 122.183,92.211     122.742,92.167 123.3,92.134 123.86,92.11 124.42,92.095 124.979,92.09 339.074,92.09 339.634,92.095 340.193,92.11     340.753,92.134 341.312,92.167 341.87,92.211 342.427,92.264 342.984,92.327 343.539,92.399 344.093,92.481 344.645,92.572     345.196,92.673 345.745,92.784 346.292,92.903 346.836,93.033 347.379,93.171 347.919,93.319 348.456,93.477 348.991,93.643     349.522,93.819 350.051,94.004 350.576,94.198 351.098,94.401 351.616,94.613 352.13,94.834 352.641,95.064 353.147,95.302     353.65,95.55 354.148,95.806 354.641,96.07 355.13,96.343 355.614,96.624 356.093,96.914 356.567,97.212 357.036,97.518     357.5,97.832 357.958,98.154 358.41,98.484 358.857,98.821 359.297,99.167 359.732,99.52 360.161,99.88 360.583,100.247     360.999,100.622 361.408,101.004 361.811,101.393 362.207,101.789 362.596,102.192 362.978,102.601 363.353,103.017     363.72,103.439 364.081,103.868 364.433,104.303 364.779,104.743 365.116,105.19 365.446,105.642 365.768,106.1 366.082,106.564     366.388,107.033 366.686,107.507 366.976,107.986 367.257,108.47 367.53,108.959 367.795,109.452 368.05,109.95 368.298,110.453     368.536,110.959 368.766,111.47 368.987,111.984 369.199,112.502 369.402,113.024 369.596,113.549 369.781,114.078     369.957,114.609 370.123,115.144 370.281,115.681 370.429,116.221 370.567,116.764 370.697,117.308 370.817,117.855     370.927,118.404 371.028,118.955 371.119,119.507 371.201,120.061 371.273,120.616 371.336,121.173 371.389,121.73     371.433,122.288 371.466,122.847 371.491,123.407 371.505,123.966 371.51,124.526   "
   id="polyline345"
   transform="translate(-90.918,-85.918)"
   style="stroke:#000000;stroke-opacity:1" /><polygon
   fill="none"
   stroke="#00b9d2"
   stroke-width="2.75"
   stroke-linecap="round"
   stroke-linejoin="round"
   stroke-miterlimit="10"
   points="121.626,699.804 121.07,699.741 120.514,699.669 119.961,699.587 119.408,699.496 118.857,699.395 118.309,699.284 117.762,699.165 117.217,699.035 116.675,698.897 116.135,698.749 115.597,698.591 115.063,698.425 114.531,698.249 114.003,698.064 113.477,697.87 112.956,697.667 112.437,697.455 111.923,697.234 111.412,697.004 110.906,696.766 110.404,696.518 109.906,696.262 109.412,695.998 108.923,695.725 108.439,695.444 107.96,695.154 107.486,694.856 107.017,694.55 106.554,694.236 106.096,693.914 105.643,693.584 105.197,693.247 104.756,692.901 104.321,692.548 103.893,692.188 103.47,691.82 103.054,691.446 102.645,691.064 102.242,690.675 101.847,690.279 101.458,689.876 101.076,689.467 100.701,689.051 100.333,688.629 99.973,688.2 99.62,687.765 99.275,687.325 98.937,686.878 98.607,686.426 98.285,685.968 97.971,685.504 97.665,685.035 97.367,684.561 97.077,684.082 96.796,683.598 96.523,683.109 96.259,682.616 96.003,682.118 95.756,681.615 95.517,681.109 95.287,680.598 95.066,680.084 94.854,679.566 94.651,679.044 94.457,678.519 94.272,677.99 94.097,677.458 93.93,676.924 93.773,676.387 93.625,675.847 93.486,675.304 93.357,674.76 93.237,674.213 93.126,673.664 93.025,673.113 92.934,672.561 92.852,672.007 92.78,671.452 92.717,670.895 92.664,670.338 92.621,669.78 92.587,669.221 92.563,668.661 92.548,668.102 92.543,667.542 92.543,119.979 92.548,119.42 92.563,118.86 92.587,118.3 92.621,117.742 92.664,117.183 92.717,116.626 92.78,116.07 92.852,115.514 92.934,114.961 93.025,114.408 93.126,113.857 93.237,113.309 93.357,112.762 93.486,112.217 93.625,111.675 93.773,111.135 93.93,110.597 94.097,110.063 94.272,109.531 94.457,109.003 94.651,108.477 94.854,107.956 95.066,107.437 95.287,106.923 95.517,106.412 95.756,105.906 96.003,105.404 96.259,104.906 96.523,104.412 96.796,103.923 97.077,103.439 97.367,102.96 97.665,102.486 97.971,102.017 98.285,101.554 98.607,101.096 98.937,100.643 99.275,100.197 99.62,99.756 99.973,99.321 100.333,98.893 100.701,98.47 101.076,98.054 101.458,97.645 101.847,97.242 102.242,96.847 102.645,96.458 103.054,96.076 103.47,95.701 103.893,95.333 104.321,94.973 104.756,94.62 105.197,94.275 105.643,93.937 106.096,93.607 106.554,93.285 107.017,92.971 107.486,92.665 107.96,92.367 108.439,92.077 108.923,91.796 109.412,91.523 109.906,91.259 110.404,91.003 110.906,90.756 111.412,90.517 111.923,90.287 112.437,90.066 112.956,89.854 113.477,89.651 114.003,89.457 114.531,89.272 115.063,89.097 115.597,88.93 116.135,88.773 116.675,88.625 117.217,88.486 117.762,88.357 118.309,88.237 118.857,88.126 119.408,88.025 119.961,87.934 120.514,87.852 121.07,87.78 121.626,87.717 122.183,87.664 122.742,87.621 123.3,87.587 123.86,87.563 124.42,87.548 124.979,87.543 339.074,87.543 339.634,87.548 340.193,87.563 340.753,87.587 341.312,87.621 341.87,87.664 342.427,87.717 342.984,87.78 343.539,87.852 344.093,87.934 344.645,88.025 345.196,88.126 345.745,88.237 346.292,88.357 346.836,88.486 347.379,88.625 347.919,88.773 348.456,88.93 348.991,89.097 349.522,89.272 350.051,89.457 350.576,89.651 351.098,89.854 351.616,90.066 352.13,90.287 352.641,90.517 353.147,90.756 353.65,91.003 354.148,91.259 354.641,91.523 355.13,91.796 355.614,92.077 356.093,92.367 356.567,92.665 357.036,92.971 357.5,93.285 357.958,93.607 358.41,93.937 358.857,94.275 359.297,94.62 359.732,94.973 360.161,95.333 360.583,95.701 360.999,96.076 361.408,96.458 361.811,96.847 362.207,97.242 362.596,97.645 362.978,98.054 363.353,98.47 363.72,98.893 364.081,99.321 364.433,99.756 364.779,100.197 365.116,100.643 365.446,101.096 365.768,101.554 366.082,102.017 366.388,102.486 366.686,102.96 366.976,103.439 367.257,103.923 367.53,104.412 367.795,104.906 368.05,105.404 368.298,105.906 368.536,106.412 368.766,106.923 368.987,107.437 369.199,107.956 369.402,108.477 369.596,109.003 369.781,109.531 369.957,110.063 370.123,110.597 370.281,111.135 370.429,111.675 370.567,112.217 370.697,112.762 370.817,113.309 370.927,113.857 371.028,114.408 371.119,114.961 371.201,115.514 371.273,116.07 371.336,116.626 371.389,117.183 371.433,117.742 371.466,118.3 371.491,118.86 371.505,119.42 371.51,119.979 371.51,667.542 371.505,668.102 371.491,668.661 371.466,669.221 371.433,669.78 371.389,670.338 371.336,670.895 371.273,671.452 371.201,672.007 371.119,672.561 371.028,673.113 370.927,673.664 370.817,674.213 370.697,674.76 370.567,675.304 370.429,675.847 370.281,676.387 370.123,676.924 369.957,677.458 369.781,677.99 369.596,678.519 369.402,679.044 369.199,679.566 368.987,680.084 368.766,680.598 368.536,681.109 368.298,681.615 368.05,682.118 367.795,682.616 367.53,683.109 367.257,683.598 366.976,684.082 366.686,684.561 366.388,685.035 366.082,685.504 365.768,685.968 365.446,686.426 365.116,686.878 364.779,687.325 364.433,687.765 364.081,688.2 363.72,688.629 363.353,689.051 362.978,689.467 362.596,689.876 362.207,690.279 361.811,690.675 361.408,691.064 360.999,691.446 360.583,691.82 360.161,692.188 359.732,692.548 359.297,692.901 358.857,693.247 358.41,693.584 357.958,693.914 357.5,694.236 357.036,694.55 356.567,694.856 356.093,695.154 355.614,695.444 355.13,695.725 354.641,695.998 354.148,696.262 353.65,696.518 353.147,696.766 352.641,697.004 352.13,697.234 351.616,697.455 351.098,697.667 350.576,697.87 350.051,698.064 349.522,698.249 348.991,698.425 348.456,698.591 347.919,698.749 347.379,698.897 346.836,699.035 346.292,699.165 345.745,699.284 345.196,699.395 344.645,699.496 344.093,699.587 343.539,699.669 342.984,699.741 342.427,699.804 341.87,699.857 341.312,699.901 340.753,699.934 340.193,699.958 339.634,699.973 339.074,699.978 124.979,699.978 124.42,699.973 123.86,699.958 123.3,699.934 122.742,699.901 122.183,699.857 "
   id="polygon348"
   transform="translate(-90.918,-85.918)"
   style="stroke:#000000;stroke-opacity:1" />

</svg>
