<?xml version="1.0" encoding="UTF-8" standalone="no"?>
<svg
   xmlns:ns="&amp;#38;ns_sfw;"
   xmlns:dc="http://purl.org/dc/elements/1.1/"
   xmlns:cc="http://creativecommons.org/ns#"
   xmlns:rdf="http://www.w3.org/1999/02/22-rdf-syntax-ns#"
   xmlns:svg="http://www.w3.org/2000/svg"
   xmlns="http://www.w3.org/2000/svg"
   xmlns:sodipodi="http://sodipodi.sourceforge.net/DTD/sodipodi-0.dtd"
   xmlns:inkscape="http://www.inkscape.org/namespaces/inkscape"
   version="1.1"
   x="0px"
   y="0px"
   viewBox="0 0 293.164 633.70099"
   enable-background="new 0 0 1000 800"
   xml:space="preserve"
   id="svg359"
   sodipodi:docname="s20_plus.svg"
   inkscape:version="1.0.1 (3bc2e813f5, 2020-09-07)"
   width="293.164"
   height="633.70099"><defs
   id="defs363">
	
	
	

	
	
	
	
	
	
	
	
	
	
	
	
	
	
	
	
	
	
	
	
	
	
	

	
	
	
	
	
	
	
	



		
			
	
		
			
	
		
			
	
		
			
	
		
			
	
		
			
	
		
			
	
		
			
	
		
			
	
		
			
	
		
			
	
		
			
	
		
			
	
		
			
	
		
			
	
		
			
	
		
			
	
		
			
	
		
			
	
		
			
	
		
			
	
		
			
	
		
			
	
		
			
	
		
			
	
		
			
	
		
			
	
		
			
	
		
			
	
		
			
	
		
	
		
	
		
	
		
	</defs><sodipodi:namedview
   pagecolor="#ffffff"
   bordercolor="#666666"
   borderopacity="1"
   objecttolerance="10"
   gridtolerance="10"
   guidetolerance="10"
   inkscape:pageopacity="0"
   inkscape:pageshadow="2"
   inkscape:window-width="1920"
   inkscape:window-height="1001"
   id="namedview361"
   showgrid="false"
   inkscape:zoom="1.04125"
   inkscape:cx="402.715"
   inkscape:cy="330.715"
   inkscape:window-x="-9"
   inkscape:window-y="-9"
   inkscape:window-maximized="1"
   inkscape:current-layer="svg359"
   inkscape:document-rotation="0" />
<metadata
   id="metadata2">
	<ns:sfw>
		<ns:slices />
		<ns:sliceSourceBounds
   bottomLeftOrigin="true"
   height="11789.401"
   width="3212.295"
   x="-3241.446"
   y="-3017.527">
			</ns:sliceSourceBounds>
	</ns:sfw>
<rdf:RDF><cc:Work
     rdf:about=""><dc:format>image/svg+xml</dc:format><dc:type
       rdf:resource="http://purl.org/dc/dcmitype/StillImage" /><dc:title /></cc:Work></rdf:RDF></metadata>

<g
   id="N-DIMENSIONS"
   display="none"
   transform="translate(-97.285,-69.285)">
	<g
   display="inline"
   id="g124">
		<g
   id="g19">
			<g
   id="g17">
				<path
   fill="#00b9d2"
   d="m 127.925,112.173 c -0.66,-0.324 -1.164,-0.747 -1.513,-1.27 -0.348,-0.521 -0.534,-1.083 -0.558,-1.683 v -0.036 c 0,-0.096 0.036,-0.174 0.107,-0.234 0.072,-0.06 0.156,-0.09 0.253,-0.09 h 0.882 c 0.252,0 0.414,0.133 0.485,0.396 0.181,0.647 0.514,1.131 0.999,1.448 0.486,0.318 1.047,0.478 1.684,0.478 0.815,0 1.494,-0.249 2.034,-0.747 0.539,-0.498 0.81,-1.185 0.81,-2.061 0,-0.805 -0.271,-1.443 -0.81,-1.918 -0.54,-0.474 -1.219,-0.711 -2.034,-0.711 -0.433,0 -0.78,0.055 -1.044,0.162 -0.265,0.108 -0.534,0.265 -0.811,0.469 -0.156,0.12 -0.285,0.207 -0.387,0.261 -0.103,0.054 -0.213,0.081 -0.333,0.081 h -0.864 c -0.107,0 -0.204,-0.039 -0.288,-0.117 -0.084,-0.078 -0.12,-0.171 -0.107,-0.279 l 0.558,-5.994 c 0.036,-0.3 0.186,-0.45 0.45,-0.45 h 6.228 c 0.132,0 0.234,0.036 0.307,0.108 0.071,0.072 0.107,0.174 0.107,0.306 v 0.666 c 0,0.12 -0.039,0.216 -0.117,0.288 -0.078,0.072 -0.177,0.108 -0.297,0.108 h -5.184 l -0.324,3.618 c 0.576,-0.408 1.351,-0.612 2.322,-0.612 0.804,0 1.536,0.159 2.196,0.478 0.659,0.317 1.185,0.782 1.574,1.395 0.391,0.612 0.585,1.338 0.585,2.178 0,0.889 -0.194,1.653 -0.585,2.295 -0.39,0.643 -0.93,1.129 -1.619,1.458 -0.69,0.33 -1.479,0.495 -2.367,0.495 -0.9,0 -1.68,-0.162 -2.339,-0.486 z"
   id="path5" />
				<path
   fill="#00b9d2"
   d="m 136.682,112.362 c -0.078,-0.078 -0.117,-0.177 -0.117,-0.297 v -0.54 c 0,-0.275 0.15,-0.54 0.45,-0.792 l 3.924,-3.906 c 0.888,-0.756 1.5,-1.374 1.836,-1.854 0.336,-0.48 0.504,-0.99 0.504,-1.53 0,-0.708 -0.197,-1.263 -0.594,-1.665 -0.396,-0.402 -0.972,-0.603 -1.728,-0.603 -0.721,0 -1.29,0.21 -1.71,0.63 -0.421,0.42 -0.679,0.984 -0.774,1.691 -0.024,0.133 -0.084,0.234 -0.18,0.307 -0.097,0.072 -0.192,0.107 -0.288,0.107 h -0.864 c -0.108,0 -0.198,-0.035 -0.27,-0.107 -0.072,-0.072 -0.108,-0.156 -0.108,-0.252 0.023,-0.636 0.195,-1.251 0.513,-1.846 0.318,-0.594 0.789,-1.08 1.413,-1.458 0.624,-0.378 1.38,-0.567 2.269,-0.567 1.344,0 2.354,0.351 3.032,1.053 0.678,0.702 1.018,1.593 1.018,2.673 0,0.756 -0.184,1.438 -0.549,2.043 -0.366,0.606 -0.939,1.245 -1.72,1.917 l -3.546,3.601 h 5.67 c 0.132,0 0.234,0.036 0.307,0.107 0.071,0.072 0.107,0.175 0.107,0.307 v 0.684 c 0,0.12 -0.039,0.219 -0.117,0.297 -0.078,0.078 -0.177,0.117 -0.297,0.117 h -7.884 c -0.121,0 -0.219,-0.039 -0.297,-0.117 z"
   id="path7" />
				<path
   fill="#00b9d2"
   d="m 149.093,112.173 c -0.66,-0.324 -1.164,-0.747 -1.513,-1.27 -0.348,-0.521 -0.534,-1.083 -0.558,-1.683 v -0.036 c 0,-0.096 0.036,-0.174 0.107,-0.234 0.072,-0.06 0.156,-0.09 0.253,-0.09 h 0.882 c 0.252,0 0.414,0.133 0.485,0.396 0.181,0.647 0.514,1.131 0.999,1.448 0.486,0.318 1.047,0.478 1.684,0.478 0.815,0 1.494,-0.249 2.034,-0.747 0.539,-0.498 0.81,-1.185 0.81,-2.061 0,-0.805 -0.271,-1.443 -0.81,-1.918 -0.54,-0.474 -1.219,-0.711 -2.034,-0.711 -0.433,0 -0.78,0.055 -1.044,0.162 -0.265,0.108 -0.534,0.265 -0.811,0.469 -0.156,0.12 -0.285,0.207 -0.387,0.261 -0.103,0.054 -0.213,0.081 -0.333,0.081 h -0.864 c -0.107,0 -0.204,-0.039 -0.288,-0.117 -0.084,-0.078 -0.12,-0.171 -0.107,-0.279 l 0.558,-5.994 c 0.036,-0.3 0.186,-0.45 0.45,-0.45 h 6.228 c 0.132,0 0.234,0.036 0.307,0.108 0.071,0.072 0.107,0.174 0.107,0.306 v 0.666 c 0,0.12 -0.039,0.216 -0.117,0.288 -0.078,0.072 -0.177,0.108 -0.297,0.108 h -5.184 l -0.324,3.618 c 0.576,-0.408 1.351,-0.612 2.322,-0.612 0.804,0 1.536,0.159 2.196,0.478 0.659,0.317 1.185,0.782 1.574,1.395 0.391,0.612 0.585,1.338 0.585,2.178 0,0.889 -0.194,1.653 -0.585,2.295 -0.39,0.643 -0.93,1.129 -1.619,1.458 -0.69,0.33 -1.479,0.495 -2.367,0.495 -0.9,0 -1.68,-0.162 -2.339,-0.486 z"
   id="path9" />
				<path
   fill="#00b9d2"
   d="m 162.764,115.791 c -0.078,-0.071 -0.117,-0.174 -0.117,-0.306 v -11.952 c 0,-0.132 0.039,-0.233 0.117,-0.306 0.077,-0.072 0.177,-0.108 0.297,-0.108 h 0.756 c 0.132,0 0.234,0.036 0.306,0.108 0.072,0.072 0.108,0.174 0.108,0.306 v 0.792 c 0.695,-0.924 1.686,-1.386 2.97,-1.386 1.26,0 2.205,0.399 2.835,1.197 0.63,0.798 0.963,1.815 0.999,3.051 0.012,0.132 0.019,0.336 0.019,0.612 0,0.275 -0.007,0.479 -0.019,0.611 -0.036,1.225 -0.369,2.238 -0.999,3.042 -0.63,0.805 -1.575,1.206 -2.835,1.206 -1.284,0 -2.256,-0.456 -2.916,-1.368 v 4.194 c 0,0.12 -0.039,0.219 -0.117,0.297 -0.078,0.078 -0.177,0.117 -0.297,0.117 h -0.81 c -0.121,0.001 -0.22,-0.035 -0.297,-0.107 z m 5.984,-5.346 c 0.396,-0.54 0.612,-1.248 0.648,-2.124 0.012,-0.119 0.018,-0.294 0.018,-0.521 0,-2.305 -0.852,-3.456 -2.556,-3.456 -0.84,0 -1.474,0.278 -1.899,0.837 -0.426,0.558 -0.65,1.215 -0.675,1.971 -0.012,0.132 -0.018,0.366 -0.018,0.702 0,0.336 0.006,0.57 0.018,0.702 0.024,0.731 0.255,1.365 0.693,1.898 0.438,0.534 1.064,0.802 1.881,0.802 0.865,-0.001 1.495,-0.271 1.89,-0.811 z"
   id="path11" />
				<path
   fill="#00b9d2"
   d="m 173.455,115.791 c -0.078,-0.071 -0.117,-0.174 -0.117,-0.306 v -11.952 c 0,-0.132 0.039,-0.233 0.117,-0.306 0.077,-0.072 0.177,-0.108 0.297,-0.108 h 0.756 c 0.132,0 0.234,0.036 0.306,0.108 0.072,0.072 0.108,0.174 0.108,0.306 v 0.792 c 0.695,-0.924 1.686,-1.386 2.97,-1.386 1.26,0 2.205,0.399 2.835,1.197 0.63,0.798 0.963,1.815 0.999,3.051 0.012,0.132 0.019,0.336 0.019,0.612 0,0.275 -0.007,0.479 -0.019,0.611 -0.036,1.225 -0.369,2.238 -0.999,3.042 -0.63,0.805 -1.575,1.206 -2.835,1.206 -1.284,0 -2.256,-0.456 -2.916,-1.368 v 4.194 c 0,0.12 -0.039,0.219 -0.117,0.297 -0.078,0.078 -0.177,0.117 -0.297,0.117 h -0.81 c -0.12,0.001 -0.22,-0.035 -0.297,-0.107 z m 5.984,-5.346 c 0.396,-0.54 0.612,-1.248 0.648,-2.124 0.012,-0.119 0.018,-0.294 0.018,-0.521 0,-2.305 -0.852,-3.456 -2.556,-3.456 -0.84,0 -1.474,0.278 -1.899,0.837 -0.426,0.558 -0.65,1.215 -0.675,1.971 -0.012,0.132 -0.018,0.366 -0.018,0.702 0,0.336 0.006,0.57 0.018,0.702 0.024,0.731 0.255,1.365 0.693,1.898 0.438,0.534 1.064,0.802 1.881,0.802 0.865,-0.001 1.495,-0.271 1.89,-0.811 z"
   id="path13" />
				<path
   fill="#00b9d2"
   d="m 183.985,101.238 c -0.078,-0.078 -0.117,-0.177 -0.117,-0.297 v -0.936 c 0,-0.12 0.039,-0.222 0.117,-0.306 0.078,-0.084 0.177,-0.126 0.297,-0.126 h 1.062 c 0.12,0 0.223,0.042 0.307,0.126 0.084,0.084 0.126,0.186 0.126,0.306 v 0.936 c 0,0.12 -0.042,0.219 -0.126,0.297 -0.084,0.079 -0.187,0.117 -0.307,0.117 h -1.062 c -0.12,0 -0.219,-0.039 -0.297,-0.117 z m 0.144,11.124 c -0.078,-0.078 -0.117,-0.177 -0.117,-0.297 v -8.532 c 0,-0.119 0.039,-0.219 0.117,-0.297 0.078,-0.078 0.177,-0.117 0.297,-0.117 h 0.792 c 0.12,0 0.219,0.039 0.297,0.117 0.078,0.078 0.117,0.178 0.117,0.297 v 8.532 c 0,0.12 -0.039,0.219 -0.117,0.297 -0.078,0.078 -0.177,0.117 -0.297,0.117 h -0.792 c -0.12,0 -0.219,-0.039 -0.297,-0.117 z"
   id="path15" />
			</g>
		</g>
		<g
   id="g60">
			<g
   id="MTEXT_27_">
				<g
   id="g43">
					<g
   id="g41">
						<g
   id="g39">
							<path
   fill="#00b9d2"
   d="m 243.208,371.074 c -0.702,-0.39 -1.236,-0.915 -1.603,-1.575 -0.366,-0.659 -0.549,-1.379 -0.549,-2.159 0,-1.032 0.414,-2.136 1.242,-3.312 l 3.438,-4.788 c 0.013,-0.012 0.046,-0.054 0.1,-0.126 0.054,-0.072 0.123,-0.128 0.207,-0.171 0.084,-0.042 0.18,-0.063 0.288,-0.063 h 0.882 c 0.108,0 0.194,0.039 0.261,0.117 0.067,0.078 0.1,0.171 0.1,0.279 0,0.06 -0.03,0.138 -0.091,0.234 l -2.628,3.672 c 0.312,-0.072 0.66,-0.108 1.044,-0.108 0.876,0 1.647,0.195 2.313,0.585 0.666,0.391 1.182,0.906 1.548,1.548 0.366,0.643 0.549,1.348 0.549,2.115 0,0.769 -0.183,1.485 -0.549,2.151 -0.366,0.666 -0.897,1.197 -1.593,1.593 -0.696,0.396 -1.519,0.594 -2.466,0.594 -0.961,-0.001 -1.791,-0.196 -2.493,-0.586 z m 3.933,-1.233 c 0.444,-0.216 0.798,-0.537 1.062,-0.963 0.264,-0.426 0.396,-0.939 0.396,-1.539 0,-0.588 -0.135,-1.096 -0.405,-1.521 -0.27,-0.426 -0.627,-0.75 -1.07,-0.972 -0.444,-0.222 -0.925,-0.333 -1.44,-0.333 -0.515,0 -0.996,0.111 -1.439,0.333 -0.444,0.222 -0.799,0.546 -1.062,0.972 -0.263,0.426 -0.396,0.934 -0.396,1.521 0,0.6 0.132,1.113 0.396,1.539 0.264,0.426 0.618,0.747 1.062,0.963 0.443,0.216 0.924,0.323 1.439,0.323 0.527,0.001 1.012,-0.107 1.457,-0.323 z"
   id="path21" />
							<path
   fill="#00b9d2"
   d="m 252.315,371.362 c -0.078,-0.078 -0.117,-0.177 -0.117,-0.297 v -1.242 c 0,-0.119 0.039,-0.222 0.117,-0.306 0.078,-0.084 0.177,-0.126 0.297,-0.126 h 1.242 c 0.12,0 0.219,0.042 0.297,0.126 0.078,0.084 0.117,0.187 0.117,0.306 v 1.242 c 0,0.12 -0.039,0.219 -0.117,0.297 -0.078,0.078 -0.177,0.117 -0.297,0.117 h -1.242 c -0.12,0 -0.218,-0.039 -0.297,-0.117 z"
   id="path23" />
							<path
   fill="#00b9d2"
   d="m 257.374,371.362 c -0.066,-0.078 -0.1,-0.171 -0.1,-0.279 l 0.036,-0.161 4.5,-10.53 h -5.94 c -0.12,0 -0.219,-0.039 -0.297,-0.117 -0.078,-0.078 -0.116,-0.177 -0.116,-0.297 v -0.666 c 0,-0.132 0.035,-0.237 0.107,-0.315 0.072,-0.078 0.174,-0.117 0.306,-0.117 h 7.345 c 0.132,0 0.233,0.039 0.306,0.117 0.073,0.078 0.108,0.183 0.108,0.315 v 0.612 c 0,0.216 -0.049,0.45 -0.145,0.703 l -4.446,10.403 c -0.06,0.133 -0.126,0.24 -0.197,0.324 -0.072,0.084 -0.175,0.126 -0.307,0.126 h -0.899 c -0.109,-0.001 -0.196,-0.04 -0.261,-0.118 z"
   id="path25" />
							<path
   fill="#00b9d2"
   d="m 265.203,362.011 c -0.054,-0.072 -0.069,-0.162 -0.045,-0.271 l 0.396,-2.52 c 0.048,-0.348 0.216,-0.522 0.504,-0.522 h 1.151 c 0.084,0 0.153,0.03 0.207,0.09 0.055,0.06 0.081,0.132 0.081,0.216 0,0.12 -0.018,0.216 -0.054,0.288 l -0.937,2.43 c -0.06,0.132 -0.126,0.231 -0.197,0.297 -0.072,0.066 -0.181,0.099 -0.324,0.099 h -0.558 c -0.095,0.001 -0.17,-0.035 -0.224,-0.107 z m 2.826,0 c -0.054,-0.072 -0.069,-0.162 -0.045,-0.271 l 0.396,-2.52 c 0.048,-0.348 0.217,-0.522 0.504,-0.522 h 1.152 c 0.084,0 0.153,0.03 0.207,0.09 0.054,0.06 0.081,0.132 0.081,0.216 0,0.12 -0.018,0.216 -0.054,0.288 l -0.937,2.43 c -0.06,0.132 -0.126,0.231 -0.197,0.297 -0.072,0.066 -0.181,0.099 -0.324,0.099 h -0.559 c -0.095,0.001 -0.17,-0.035 -0.224,-0.107 z"
   id="path27" />
							<path
   fill="#00b9d2"
   d="m 211.087,390.961 c -0.071,-0.078 -0.107,-0.177 -0.107,-0.297 v -10.152 l -3.024,2.322 c -0.084,0.072 -0.174,0.108 -0.27,0.108 -0.108,0 -0.21,-0.061 -0.307,-0.181 l -0.432,-0.558 c -0.061,-0.084 -0.09,-0.168 -0.09,-0.252 0,-0.132 0.06,-0.24 0.18,-0.324 l 3.906,-3.023 c 0.132,-0.084 0.288,-0.126 0.468,-0.126 h 0.846 c 0.12,0 0.219,0.039 0.298,0.116 0.077,0.078 0.116,0.178 0.116,0.298 v 11.771 c 0,0.12 -0.039,0.219 -0.116,0.297 -0.079,0.078 -0.178,0.117 -0.298,0.117 h -0.882 c -0.12,0.002 -0.216,-0.037 -0.288,-0.116 z"
   id="path29" />
							<path
   fill="#00b9d2"
   d="m 216.496,390.961 c -0.066,-0.078 -0.1,-0.171 -0.1,-0.279 l 0.036,-0.161 4.5,-10.53 h -5.94 c -0.12,0 -0.219,-0.039 -0.297,-0.117 -0.078,-0.078 -0.116,-0.177 -0.116,-0.297 v -0.666 c 0,-0.132 0.035,-0.237 0.107,-0.315 0.072,-0.077 0.174,-0.116 0.306,-0.116 h 7.345 c 0.132,0 0.233,0.039 0.306,0.116 0.072,0.078 0.108,0.184 0.108,0.315 v 0.612 c 0,0.216 -0.049,0.449 -0.145,0.702 l -4.446,10.403 c -0.06,0.133 -0.126,0.24 -0.197,0.324 -0.072,0.084 -0.175,0.126 -0.307,0.126 h -0.899 c -0.109,0.001 -0.195,-0.038 -0.261,-0.117 z"
   id="path31" />
							<path
   fill="#00b9d2"
   d="m 225.532,389.9 c -0.714,-0.906 -1.095,-2.091 -1.143,-3.556 l -0.019,-1.548 0.019,-1.602 c 0.036,-1.452 0.416,-2.631 1.143,-3.537 0.726,-0.906 1.856,-1.359 3.394,-1.359 1.548,0 2.685,0.453 3.41,1.359 0.727,0.906 1.107,2.085 1.144,3.537 0.012,0.336 0.018,0.87 0.018,1.602 0,0.708 -0.006,1.225 -0.018,1.548 -0.048,1.465 -0.43,2.649 -1.144,3.556 -0.714,0.907 -1.851,1.358 -3.41,1.358 -1.549,0 -2.68,-0.452 -3.394,-1.358 z m 5.482,-1.054 c 0.468,-0.611 0.714,-1.476 0.737,-2.592 0.012,-0.348 0.019,-0.846 0.019,-1.494 0,-0.659 -0.007,-1.151 -0.019,-1.476 -0.023,-1.104 -0.272,-1.965 -0.747,-2.583 -0.474,-0.618 -1.167,-0.927 -2.078,-0.927 -0.912,0 -1.603,0.309 -2.07,0.927 -0.467,0.618 -0.714,1.479 -0.738,2.583 l -0.018,1.476 0.018,1.494 c 0.024,1.116 0.271,1.98 0.738,2.592 0.468,0.612 1.158,0.918 2.07,0.918 0.924,0 1.619,-0.306 2.088,-0.918 z"
   id="path33" />
							<path
   fill="#00b9d2"
   d="m 240.525,390.961 c -0.078,-0.078 -0.117,-0.177 -0.117,-0.297 v -8.532 c 0,-0.119 0.039,-0.219 0.117,-0.297 0.078,-0.078 0.177,-0.117 0.297,-0.117 h 0.756 c 0.12,0 0.217,0.039 0.288,0.117 0.072,0.078 0.108,0.178 0.108,0.297 v 0.612 c 0.648,-0.804 1.523,-1.206 2.628,-1.206 1.32,0 2.256,0.552 2.808,1.656 0.288,-0.504 0.699,-0.906 1.233,-1.206 0.534,-0.3 1.131,-0.45 1.791,-0.45 0.983,0 1.788,0.336 2.412,1.008 0.624,0.673 0.936,1.645 0.936,2.916 v 5.202 c 0,0.12 -0.039,0.219 -0.116,0.297 -0.078,0.078 -0.178,0.117 -0.298,0.117 h -0.773 c -0.12,0 -0.219,-0.039 -0.297,-0.117 -0.078,-0.078 -0.117,-0.177 -0.117,-0.297 v -5.04 c 0,-0.96 -0.198,-1.646 -0.594,-2.061 -0.396,-0.414 -0.918,-0.621 -1.566,-0.621 -0.576,0 -1.071,0.213 -1.485,0.639 -0.413,0.426 -0.62,1.107 -0.62,2.043 v 5.04 c 0,0.12 -0.039,0.219 -0.117,0.297 -0.078,0.078 -0.178,0.117 -0.297,0.117 h -0.792 c -0.12,0 -0.22,-0.039 -0.298,-0.117 -0.078,-0.078 -0.116,-0.177 -0.116,-0.297 v -5.04 c 0,-0.947 -0.207,-1.632 -0.621,-2.052 -0.414,-0.42 -0.927,-0.63 -1.539,-0.63 -0.576,0 -1.071,0.21 -1.485,0.63 -0.414,0.42 -0.621,1.098 -0.621,2.034 v 5.058 c 0,0.12 -0.039,0.219 -0.117,0.297 -0.078,0.078 -0.177,0.117 -0.297,0.117 h -0.792 c -0.122,0.001 -0.22,-0.038 -0.299,-0.117 z"
   id="path35" />
							<path
   fill="#00b9d2"
   d="m 256.509,390.961 c -0.078,-0.078 -0.117,-0.177 -0.117,-0.297 v -8.532 c 0,-0.119 0.039,-0.219 0.117,-0.297 0.078,-0.078 0.177,-0.117 0.297,-0.117 h 0.756 c 0.12,0 0.217,0.039 0.288,0.117 0.072,0.078 0.108,0.178 0.108,0.297 v 0.612 c 0.648,-0.804 1.523,-1.206 2.628,-1.206 1.32,0 2.256,0.552 2.808,1.656 0.288,-0.504 0.699,-0.906 1.233,-1.206 0.534,-0.3 1.131,-0.45 1.791,-0.45 0.983,0 1.788,0.336 2.412,1.008 0.624,0.673 0.936,1.645 0.936,2.916 v 5.202 c 0,0.12 -0.039,0.219 -0.116,0.297 -0.078,0.078 -0.178,0.117 -0.298,0.117 h -0.773 c -0.12,0 -0.219,-0.039 -0.297,-0.117 -0.078,-0.078 -0.117,-0.177 -0.117,-0.297 v -5.04 c 0,-0.96 -0.198,-1.646 -0.594,-2.061 -0.396,-0.414 -0.918,-0.621 -1.566,-0.621 -0.576,0 -1.071,0.213 -1.485,0.639 -0.413,0.426 -0.62,1.107 -0.62,2.043 v 5.04 c 0,0.12 -0.039,0.219 -0.117,0.297 -0.078,0.078 -0.178,0.117 -0.297,0.117 h -0.792 c -0.12,0 -0.22,-0.039 -0.298,-0.117 -0.078,-0.078 -0.116,-0.177 -0.116,-0.297 v -5.04 c 0,-0.947 -0.207,-1.632 -0.621,-2.052 -0.414,-0.42 -0.927,-0.63 -1.539,-0.63 -0.576,0 -1.071,0.21 -1.485,0.63 -0.414,0.42 -0.621,1.098 -0.621,2.034 v 5.058 c 0,0.12 -0.039,0.219 -0.117,0.297 -0.078,0.078 -0.177,0.117 -0.297,0.117 h -0.792 c -0.122,0.001 -0.221,-0.038 -0.299,-0.117 z"
   id="path37" />
						</g>
					</g>
				</g>
			</g>
			<g
   id="g58">
				<g
   id="POLYLINE_488_">
					
						<line
   fill="none"
   stroke="#00b9d2"
   stroke-width="2"
   stroke-linecap="round"
   stroke-linejoin="round"
   stroke-miterlimit="10"
   x1="124.717"
   y1="673.94299"
   x2="236.82201"
   y2="405.444"
   id="line46" />
				</g>
				<g
   id="POLYLINE_487_">
					
						<line
   fill="none"
   stroke="#00b9d2"
   stroke-width="2"
   stroke-linecap="round"
   stroke-linejoin="round"
   stroke-miterlimit="10"
   x1="260.96701"
   y1="346.60501"
   x2="364.397"
   y2="98.774002"
   id="line49" />
				</g>
				<g
   id="POLYLINE_486_">
					
						<polyline
   fill="none"
   stroke="#00b9d2"
   stroke-width="2"
   stroke-linecap="round"
   stroke-linejoin="round"
   stroke-miterlimit="10"
   points="       121.55,665.519 124.717,673.943 133.14,670.775      "
   id="polyline52" />
				</g>
				<g
   id="POLYLINE_485_">
					
						<polyline
   fill="none"
   stroke="#00b9d2"
   stroke-width="2"
   stroke-linecap="round"
   stroke-linejoin="round"
   stroke-miterlimit="10"
   points="       367.564,107.197 364.397,98.774 355.973,101.941      "
   id="polyline55" />
				</g>
			</g>
		</g>
		<g
   id="g91">
			<g
   id="POLYLINE_484_">
				
					<polyline
   fill="none"
   stroke="#00b9d2"
   stroke-width="2"
   stroke-linecap="round"
   stroke-linejoin="round"
   stroke-miterlimit="10"
   points="      119.55,636.004 113.187,642.367 119.55,648.73     "
   id="polyline62" />
			</g>
			<g
   id="POLYLINE_483_">
				
					<line
   fill="none"
   stroke="#00b9d2"
   stroke-width="2"
   stroke-linecap="round"
   stroke-linejoin="round"
   stroke-miterlimit="10"
   x1="113.187"
   y1="642.367"
   x2="218.517"
   y2="642.367"
   id="line65" />
			</g>
			<g
   id="POLYLINE_482_">
				
					<line
   fill="none"
   stroke="#00b9d2"
   stroke-width="2"
   stroke-linecap="round"
   stroke-linejoin="round"
   stroke-miterlimit="10"
   x1="296"
   y1="642.367"
   x2="370.495"
   y2="642.367"
   id="line68" />
			</g>
			<g
   id="POLYLINE_475_">
				
					<polyline
   fill="none"
   stroke="#00b9d2"
   stroke-width="2"
   stroke-linecap="round"
   stroke-linejoin="round"
   stroke-miterlimit="10"
   points="      364.118,636.015 370.482,642.379 364.118,648.742     "
   id="polyline71" />
			</g>
			<g
   id="MTEXT_26_">
				<g
   id="g88">
					<g
   id="g86">
						<path
   fill="#00b9d2"
   d="m 229.552,648.226 c -0.072,-0.078 -0.108,-0.177 -0.108,-0.297 v -10.152 l -3.024,2.322 c -0.084,0.072 -0.174,0.108 -0.27,0.108 -0.108,0 -0.21,-0.061 -0.306,-0.181 l -0.432,-0.558 c -0.06,-0.084 -0.09,-0.168 -0.09,-0.252 0,-0.132 0.06,-0.24 0.18,-0.324 l 3.906,-3.023 c 0.132,-0.084 0.288,-0.126 0.468,-0.126 h 0.846 c 0.12,0 0.219,0.039 0.297,0.116 0.078,0.078 0.117,0.178 0.117,0.298 v 11.771 c 0,0.12 -0.039,0.219 -0.117,0.297 -0.078,0.078 -0.177,0.117 -0.297,0.117 h -0.882 c -0.12,10e-4 -0.216,-0.038 -0.288,-0.116 z"
   id="path74" />
						<path
   fill="#00b9d2"
   d="m 239.461,648.226 c -0.078,-0.078 -0.117,-0.177 -0.117,-0.297 v -2.628 h -5.85 c -0.12,0 -0.219,-0.039 -0.297,-0.117 -0.078,-0.078 -0.117,-0.177 -0.117,-0.297 v -0.666 c 0,-0.168 0.066,-0.348 0.198,-0.54 l 5.418,-7.632 c 0.06,-0.096 0.15,-0.171 0.27,-0.225 0.12,-0.055 0.252,-0.081 0.396,-0.081 h 1.224 c 0.132,0 0.234,0.035 0.306,0.107 0.072,0.072 0.108,0.174 0.108,0.307 v 7.632 h 1.638 c 0.12,0 0.219,0.039 0.297,0.117 0.078,0.078 0.117,0.177 0.117,0.297 v 0.684 c 0,0.12 -0.039,0.219 -0.117,0.297 -0.078,0.078 -0.177,0.117 -0.297,0.117 H 241 v 2.628 c 0,0.12 -0.039,0.219 -0.117,0.297 -0.078,0.078 -0.177,0.117 -0.297,0.117 h -0.828 c -0.12,0 -0.219,-0.039 -0.297,-0.117 z m -4.509,-4.4 h 4.41 v -6.265 z"
   id="path76" />
						<path
   fill="#00b9d2"
   d="m 250.585,648.226 c -0.078,-0.078 -0.117,-0.177 -0.117,-0.297 v -2.628 h -5.85 c -0.12,0 -0.219,-0.039 -0.297,-0.117 -0.078,-0.078 -0.117,-0.177 -0.117,-0.297 v -0.666 c 0,-0.168 0.066,-0.348 0.198,-0.54 l 5.418,-7.632 c 0.06,-0.096 0.15,-0.171 0.27,-0.225 0.12,-0.055 0.252,-0.081 0.396,-0.081 h 1.224 c 0.132,0 0.234,0.035 0.306,0.107 0.072,0.072 0.108,0.174 0.108,0.307 v 7.632 h 1.638 c 0.12,0 0.219,0.039 0.297,0.117 0.078,0.078 0.117,0.177 0.117,0.297 v 0.684 c 0,0.12 -0.039,0.219 -0.117,0.297 -0.078,0.078 -0.177,0.117 -0.297,0.117 h -1.638 v 2.628 c 0,0.12 -0.039,0.219 -0.117,0.297 -0.078,0.078 -0.177,0.117 -0.297,0.117 h -0.828 c -0.12,0 -0.219,-0.039 -0.297,-0.117 z m -4.509,-4.4 h 4.41 v -6.265 z"
   id="path78" />
						<path
   fill="#00b9d2"
   d="m 257.064,647.165 c -0.714,-0.906 -1.095,-2.091 -1.143,-3.556 l -0.018,-1.548 0.018,-1.602 c 0.036,-1.452 0.417,-2.631 1.143,-3.537 0.726,-0.906 1.857,-1.359 3.393,-1.359 1.548,0 2.685,0.453 3.411,1.359 0.726,0.906 1.107,2.085 1.143,3.537 0.012,0.336 0.018,0.87 0.018,1.602 0,0.708 -0.006,1.225 -0.018,1.548 -0.048,1.465 -0.429,2.649 -1.143,3.556 -0.714,0.906 -1.851,1.358 -3.411,1.358 -1.547,0 -2.679,-0.452 -3.393,-1.358 z m 5.481,-1.054 c 0.468,-0.611 0.714,-1.476 0.738,-2.592 0.012,-0.348 0.018,-0.846 0.018,-1.494 0,-0.659 -0.006,-1.151 -0.018,-1.476 -0.024,-1.104 -0.273,-1.965 -0.747,-2.583 -0.474,-0.618 -1.167,-0.927 -2.079,-0.927 -0.912,0 -1.602,0.309 -2.07,0.927 -0.468,0.618 -0.714,1.479 -0.738,2.583 l -0.018,1.476 0.018,1.494 c 0.024,1.116 0.27,1.98 0.738,2.592 0.468,0.612 1.158,0.918 2.07,0.918 0.924,0 1.621,-0.306 2.088,-0.918 z"
   id="path80" />
						<path
   fill="#00b9d2"
   d="m 272.076,651.655 c -0.078,-0.071 -0.117,-0.174 -0.117,-0.306 v -11.952 c 0,-0.132 0.039,-0.233 0.117,-0.306 0.078,-0.073 0.177,-0.108 0.297,-0.108 h 0.756 c 0.132,0 0.234,0.036 0.306,0.108 0.072,0.072 0.108,0.174 0.108,0.306 v 0.792 c 0.696,-0.924 1.686,-1.386 2.97,-1.386 1.26,0 2.205,0.399 2.835,1.197 0.63,0.798 0.963,1.815 0.999,3.051 0.012,0.132 0.018,0.336 0.018,0.612 0,0.275 -0.006,0.479 -0.018,0.611 -0.036,1.225 -0.369,2.238 -0.999,3.042 -0.63,0.805 -1.575,1.206 -2.835,1.206 -1.284,0 -2.256,-0.456 -2.916,-1.368 v 4.194 c 0,0.12 -0.039,0.219 -0.117,0.297 -0.078,0.078 -0.177,0.117 -0.297,0.117 h -0.81 c -0.12,0.001 -0.219,-0.035 -0.297,-0.107 z m 5.986,-5.346 c 0.396,-0.54 0.612,-1.248 0.648,-2.124 0.012,-0.119 0.018,-0.294 0.018,-0.521 0,-2.305 -0.853,-3.456 -2.556,-3.456 -0.84,0 -1.473,0.278 -1.899,0.837 -0.426,0.558 -0.651,1.215 -0.675,1.971 -0.012,0.132 -0.018,0.366 -0.018,0.702 0,0.336 0.006,0.57 0.018,0.702 0.024,0.731 0.255,1.365 0.693,1.898 0.438,0.534 1.064,0.802 1.881,0.802 0.863,0 1.494,-0.271 1.89,-0.811 z"
   id="path82" />
						<path
   fill="#00b9d2"
   d="m 281.679,648.235 c -0.072,-0.071 -0.108,-0.161 -0.108,-0.27 0,-0.109 0.042,-0.222 0.126,-0.342 l 3.132,-4.068 -2.934,-3.87 c -0.096,-0.132 -0.144,-0.239 -0.144,-0.324 0,-0.107 0.039,-0.197 0.117,-0.27 0.078,-0.073 0.165,-0.108 0.261,-0.108 h 0.864 c 0.18,0 0.336,0.097 0.468,0.288 l 2.43,3.15 2.43,-3.15 c 0.072,-0.096 0.141,-0.168 0.207,-0.216 0.066,-0.048 0.153,-0.072 0.261,-0.072 h 0.828 c 0.096,0 0.18,0.036 0.252,0.108 0.072,0.072 0.108,0.156 0.108,0.252 0,0.12 -0.042,0.234 -0.126,0.342 l -2.97,3.906 3.132,4.032 c 0.084,0.12 0.126,0.233 0.126,0.342 0,0.109 -0.036,0.198 -0.108,0.27 -0.072,0.072 -0.162,0.108 -0.27,0.108 h -0.882 c -0.18,0 -0.336,-0.09 -0.468,-0.27 l -2.574,-3.33 -2.574,3.33 c -0.072,0.084 -0.141,0.149 -0.207,0.197 -0.066,0.049 -0.153,0.072 -0.261,0.072 h -0.846 c -0.108,10e-4 -0.198,-0.035 -0.27,-0.107 z"
   id="path84" />
					</g>
				</g>
			</g>
		</g>
		<g
   id="g122">
			<g
   id="POLYLINE_474_">
				
					<polyline
   fill="none"
   stroke="#00b9d2"
   stroke-width="2"
   stroke-linecap="round"
   stroke-linejoin="round"
   stroke-miterlimit="10"
   points="      345.644,94.492 339.28,88.129 332.917,94.492     "
   id="polyline93" />
			</g>
			<g
   id="POLYLINE_473_">
				
					<line
   fill="none"
   stroke="#00b9d2"
   stroke-width="2"
   stroke-linecap="round"
   stroke-linejoin="round"
   stroke-miterlimit="10"
   x1="339.28"
   y1="88.128998"
   x2="339.28"
   y2="585.80701"
   id="line96" />
			</g>
			<g
   id="POLYLINE_472_">
				
					<line
   fill="none"
   stroke="#00b9d2"
   stroke-width="2"
   stroke-linecap="round"
   stroke-linejoin="round"
   stroke-miterlimit="10"
   x1="339.28"
   y1="618.80701"
   x2="339.28"
   y2="677.242"
   id="line99" />
			</g>
			<g
   id="POLYLINE_471_">
				
					<polyline
   fill="none"
   stroke="#00b9d2"
   stroke-width="2"
   stroke-linecap="round"
   stroke-linejoin="round"
   stroke-miterlimit="10"
   points="      345.632,670.865 339.269,677.229 332.905,670.865     "
   id="polyline102" />
			</g>
			<g
   id="MTEXT_24_">
				<g
   id="g119">
					<g
   id="g117">
						<path
   fill="#00b9d2"
   d="m 292.602,606.362 c -0.684,-0.306 -1.203,-0.704 -1.557,-1.196 -0.354,-0.492 -0.543,-1.002 -0.567,-1.53 0,-0.108 0.036,-0.195 0.108,-0.261 0.072,-0.066 0.162,-0.1 0.27,-0.1 h 0.81 c 0.132,0 0.24,0.027 0.324,0.081 0.083,0.054 0.15,0.159 0.198,0.315 0.156,0.611 0.495,1.044 1.017,1.296 0.522,0.252 1.137,0.378 1.845,0.378 0.864,0 1.551,-0.207 2.061,-0.621 0.51,-0.414 0.765,-1.005 0.765,-1.773 0,-1.464 -0.894,-2.195 -2.682,-2.195 h -1.692 c -0.12,0 -0.219,-0.039 -0.297,-0.117 -0.078,-0.078 -0.117,-0.177 -0.117,-0.297 v -0.468 c 0,-0.181 0.066,-0.336 0.198,-0.469 l 3.51,-3.888 h -5.328 c -0.12,0 -0.219,-0.036 -0.297,-0.108 -0.078,-0.071 -0.117,-0.168 -0.117,-0.287 v -0.648 c 0,-0.132 0.039,-0.237 0.117,-0.315 0.078,-0.077 0.177,-0.116 0.297,-0.116 h 7.128 c 0.132,0 0.237,0.039 0.315,0.116 0.078,0.078 0.117,0.184 0.117,0.315 v 0.594 c 0,0.133 -0.061,0.271 -0.18,0.414 l -3.51,3.942 h 0.288 c 1.224,0.036 2.193,0.354 2.907,0.954 0.714,0.6 1.071,1.476 1.071,2.628 0,0.792 -0.195,1.473 -0.585,2.043 -0.39,0.57 -0.933,1.008 -1.629,1.313 -0.696,0.307 -1.482,0.459 -2.358,0.459 -0.936,0 -1.746,-0.153 -2.43,-0.459 z"
   id="path105" />
						<path
   fill="#00b9d2"
   d="m 301.467,606.524 c -0.078,-0.078 -0.117,-0.177 -0.117,-0.297 v -0.54 c 0,-0.275 0.15,-0.54 0.45,-0.792 l 3.924,-3.906 c 0.888,-0.756 1.5,-1.374 1.836,-1.854 0.336,-0.48 0.504,-0.99 0.504,-1.53 0,-0.708 -0.198,-1.263 -0.594,-1.665 -0.396,-0.401 -0.972,-0.603 -1.728,-0.603 -0.72,0 -1.29,0.21 -1.71,0.63 -0.42,0.42 -0.678,0.984 -0.774,1.691 -0.024,0.133 -0.084,0.234 -0.18,0.307 -0.096,0.073 -0.192,0.107 -0.288,0.107 h -0.864 c -0.108,0 -0.198,-0.035 -0.27,-0.107 -0.072,-0.072 -0.108,-0.156 -0.108,-0.252 0.024,-0.636 0.195,-1.251 0.513,-1.846 0.318,-0.594 0.789,-1.079 1.413,-1.458 0.624,-0.378 1.38,-0.566 2.268,-0.566 1.344,0 2.355,0.351 3.033,1.053 0.678,0.702 1.017,1.593 1.017,2.673 0,0.756 -0.183,1.438 -0.549,2.043 -0.366,0.606 -0.939,1.245 -1.719,1.917 l -3.546,3.601 h 5.67 c 0.132,0 0.234,0.036 0.306,0.107 0.072,0.072 0.108,0.175 0.108,0.307 v 0.684 c 0,0.12 -0.04,0.219 -0.117,0.297 -0.078,0.078 -0.177,0.117 -0.297,0.117 h -7.884 c -0.12,-0.001 -0.219,-0.04 -0.297,-0.118 z"
   id="path107" />
						<path
   fill="#00b9d2"
   d="m 313.275,605.462 c -0.714,-0.906 -1.095,-2.091 -1.143,-3.556 l -0.018,-1.548 0.018,-1.602 c 0.036,-1.452 0.417,-2.631 1.143,-3.537 0.726,-0.906 1.857,-1.359 3.393,-1.359 1.548,0 2.685,0.453 3.411,1.359 0.726,0.906 1.107,2.085 1.143,3.537 0.012,0.336 0.018,0.87 0.018,1.602 0,0.708 -0.006,1.225 -0.018,1.548 -0.048,1.465 -0.429,2.649 -1.143,3.556 -0.714,0.906 -1.851,1.358 -3.411,1.358 -1.548,10e-4 -2.679,-0.451 -3.393,-1.358 z m 5.481,-1.053 c 0.468,-0.611 0.714,-1.476 0.738,-2.592 0.012,-0.348 0.018,-0.846 0.018,-1.494 0,-0.659 -0.006,-1.151 -0.018,-1.476 -0.024,-1.104 -0.273,-1.965 -0.747,-2.583 -0.474,-0.618 -1.167,-0.927 -2.079,-0.927 -0.912,0 -1.602,0.309 -2.07,0.927 -0.468,0.618 -0.714,1.479 -0.738,2.583 l -0.018,1.476 0.018,1.494 c 0.024,1.116 0.27,1.98 0.738,2.592 0.468,0.612 1.158,0.918 2.07,0.918 0.924,0 1.62,-0.306 2.088,-0.918 z"
   id="path109" />
						<path
   fill="#00b9d2"
   d="m 324.669,605.462 c -0.714,-0.906 -1.095,-2.091 -1.143,-3.556 l -0.018,-1.548 0.018,-1.602 c 0.036,-1.452 0.417,-2.631 1.143,-3.537 0.726,-0.906 1.857,-1.359 3.393,-1.359 1.548,0 2.685,0.453 3.411,1.359 0.726,0.906 1.107,2.085 1.143,3.537 0.012,0.336 0.018,0.87 0.018,1.602 0,0.708 -0.006,1.225 -0.018,1.548 -0.048,1.465 -0.429,2.649 -1.143,3.556 -0.714,0.906 -1.851,1.358 -3.411,1.358 -1.548,10e-4 -2.679,-0.451 -3.393,-1.358 z m 5.481,-1.053 c 0.468,-0.611 0.714,-1.476 0.738,-2.592 0.012,-0.348 0.018,-0.846 0.018,-1.494 0,-0.659 -0.006,-1.151 -0.018,-1.476 -0.024,-1.104 -0.273,-1.965 -0.747,-2.583 -0.474,-0.618 -1.167,-0.927 -2.079,-0.927 -0.912,0 -1.602,0.309 -2.07,0.927 -0.468,0.618 -0.714,1.479 -0.738,2.583 l -0.018,1.476 0.018,1.494 c 0.024,1.116 0.27,1.98 0.738,2.592 0.468,0.612 1.158,0.918 2.07,0.918 0.924,0 1.62,-0.306 2.088,-0.918 z"
   id="path111" />
						<path
   fill="#00b9d2"
   d="m 339.68,609.953 c -0.078,-0.071 -0.117,-0.174 -0.117,-0.306 v -11.952 c 0,-0.132 0.039,-0.233 0.117,-0.306 0.078,-0.073 0.177,-0.108 0.297,-0.108 h 0.756 c 0.132,0 0.234,0.036 0.306,0.108 0.072,0.072 0.108,0.174 0.108,0.306 v 0.792 c 0.696,-0.924 1.686,-1.386 2.97,-1.386 1.26,0 2.205,0.399 2.835,1.197 0.63,0.798 0.963,1.815 0.999,3.051 0.012,0.132 0.018,0.336 0.018,0.612 0,0.275 -0.006,0.479 -0.018,0.611 -0.036,1.225 -0.369,2.238 -0.999,3.042 -0.63,0.805 -1.575,1.206 -2.835,1.206 -1.284,0 -2.256,-0.456 -2.916,-1.368 v 4.194 c 0,0.12 -0.039,0.219 -0.117,0.297 -0.078,0.078 -0.177,0.117 -0.297,0.117 h -0.81 c -0.12,0.001 -0.219,-0.035 -0.297,-0.107 z m 5.986,-5.346 c 0.396,-0.54 0.612,-1.248 0.648,-2.124 0.012,-0.119 0.018,-0.294 0.018,-0.521 0,-2.305 -0.853,-3.456 -2.556,-3.456 -0.84,0 -1.473,0.278 -1.899,0.837 -0.426,0.558 -0.651,1.215 -0.675,1.971 -0.012,0.132 -0.018,0.366 -0.018,0.702 0,0.336 0.006,0.57 0.018,0.702 0.024,0.731 0.255,1.365 0.693,1.898 0.438,0.534 1.064,0.802 1.881,0.802 0.863,-10e-4 1.494,-0.271 1.89,-0.811 z"
   id="path113" />
						<path
   fill="#00b9d2"
   d="m 349.284,606.533 c -0.072,-0.071 -0.108,-0.161 -0.108,-0.27 0,-0.109 0.042,-0.222 0.126,-0.342 l 3.132,-4.068 -2.934,-3.87 c -0.096,-0.132 -0.144,-0.239 -0.144,-0.324 0,-0.107 0.039,-0.197 0.117,-0.27 0.078,-0.073 0.165,-0.108 0.261,-0.108 h 0.864 c 0.18,0 0.336,0.097 0.468,0.288 l 2.43,3.15 2.43,-3.15 c 0.072,-0.096 0.141,-0.168 0.207,-0.216 0.066,-0.048 0.153,-0.072 0.261,-0.072 h 0.828 c 0.096,0 0.18,0.036 0.252,0.108 0.072,0.072 0.108,0.156 0.108,0.252 0,0.12 -0.042,0.234 -0.126,0.342 l -2.97,3.906 3.132,4.032 c 0.084,0.12 0.126,0.233 0.126,0.342 0,0.109 -0.036,0.198 -0.108,0.27 -0.072,0.072 -0.162,0.108 -0.27,0.108 h -0.882 c -0.18,0 -0.336,-0.09 -0.468,-0.27 l -2.574,-3.33 -2.574,3.33 c -0.072,0.084 -0.141,0.149 -0.207,0.197 -0.066,0.049 -0.153,0.072 -0.261,0.072 h -0.846 c -0.108,10e-4 -0.198,-0.035 -0.27,-0.107 z"
   id="path115" />
					</g>
				</g>
			</g>
		</g>
	</g>
	<g
   display="inline"
   id="g250">
		<g
   id="g165">
			<g
   id="POLYLINE_526_">
				
					<polyline
   fill="none"
   stroke="#00b9d2"
   stroke-width="2"
   stroke-linecap="round"
   stroke-linejoin="round"
   stroke-miterlimit="10"
   points="      897.546,734.371 903.909,728.008 897.546,721.644     "
   id="polyline126" />
			</g>
			<g
   id="POLYLINE_114_">
				
					<line
   fill="none"
   stroke="#00b9d2"
   stroke-width="2"
   stroke-linecap="round"
   stroke-linejoin="round"
   stroke-miterlimit="10"
   x1="903.909"
   y1="728.008"
   x2="897.66901"
   y2="728.008"
   id="line129" />
			</g>
			<g
   id="POLYLINE_112_">
				
					<line
   fill="none"
   stroke="#00b9d2"
   stroke-width="2"
   stroke-linecap="round"
   stroke-linejoin="round"
   stroke-miterlimit="10"
   x1="897.66901"
   y1="728.008"
   x2="868.49701"
   y2="728.008"
   id="line132" />
			</g>
			<g
   id="POLYLINE_110_">
				
					<polyline
   fill="none"
   stroke="#00b9d2"
   stroke-width="2"
   stroke-linecap="round"
   stroke-linejoin="round"
   stroke-miterlimit="10"
   points="      874.874,734.359 868.51,727.996 874.874,721.633     "
   id="polyline135" />
			</g>
			<g
   id="MTEXT_71_">
				<g
   id="g162">
					<g
   id="g160">
						<g
   id="g158">
							<path
   fill="#00b9d2"
   d="m 790.966,759.977 c -0.087,-0.087 -0.131,-0.196 -0.131,-0.33 v -1.38 c 0,-0.133 0.044,-0.247 0.131,-0.34 0.086,-0.094 0.196,-0.141 0.329,-0.141 h 1.381 c 0.133,0 0.243,0.047 0.329,0.141 0.087,0.093 0.131,0.207 0.131,0.34 v 1.38 c 0,0.134 -0.044,0.243 -0.131,0.33 -0.086,0.087 -0.196,0.13 -0.329,0.13 h -1.381 c -0.133,0 -0.243,-0.043 -0.329,-0.13 z"
   id="path138" />
							<path
   fill="#00b9d2"
   d="m 797.695,759.797 c -0.76,-0.341 -1.337,-0.783 -1.729,-1.33 -0.394,-0.547 -0.604,-1.113 -0.631,-1.7 0,-0.12 0.04,-0.217 0.12,-0.29 0.08,-0.073 0.181,-0.11 0.3,-0.11 h 0.9 c 0.146,0 0.267,0.03 0.36,0.09 0.093,0.061 0.166,0.178 0.22,0.351 0.173,0.68 0.55,1.16 1.13,1.439 0.58,0.28 1.264,0.42 2.05,0.42 0.96,0 1.724,-0.229 2.29,-0.689 0.566,-0.46 0.851,-1.116 0.851,-1.97 0,-1.627 -0.994,-2.44 -2.98,-2.44 h -1.88 c -0.134,0 -0.243,-0.043 -0.33,-0.13 -0.087,-0.087 -0.13,-0.196 -0.13,-0.33 v -0.52 c 0,-0.2 0.073,-0.374 0.22,-0.521 l 3.9,-4.32 h -5.92 c -0.134,0 -0.243,-0.04 -0.33,-0.12 -0.087,-0.079 -0.13,-0.187 -0.13,-0.319 v -0.72 c 0,-0.147 0.043,-0.264 0.13,-0.351 0.087,-0.087 0.196,-0.13 0.33,-0.13 h 7.92 c 0.146,0 0.263,0.043 0.35,0.13 0.087,0.087 0.13,0.203 0.13,0.351 v 0.659 c 0,0.147 -0.066,0.301 -0.199,0.46 l -3.9,4.381 h 0.32 c 1.359,0.039 2.437,0.393 3.229,1.06 0.792,0.667 1.19,1.64 1.19,2.92 0,0.88 -0.217,1.637 -0.65,2.271 -0.434,0.633 -1.037,1.119 -1.81,1.46 -0.773,0.34 -1.647,0.51 -2.62,0.51 -1.041,-0.002 -1.941,-0.172 -2.701,-0.512 z"
   id="path140" />
							<path
   fill="#00b9d2"
   d="m 811.275,759.977 c -0.08,-0.087 -0.12,-0.196 -0.12,-0.33 v -11.28 l -3.359,2.58 c -0.094,0.08 -0.194,0.12 -0.301,0.12 -0.12,0 -0.233,-0.066 -0.34,-0.2 l -0.479,-0.62 c -0.067,-0.093 -0.101,-0.187 -0.101,-0.279 0,-0.146 0.066,-0.267 0.2,-0.36 l 4.34,-3.36 c 0.146,-0.093 0.32,-0.14 0.521,-0.14 h 0.939 c 0.134,0 0.243,0.043 0.33,0.13 0.087,0.087 0.13,0.197 0.13,0.33 v 13.08 c 0,0.134 -0.043,0.243 -0.13,0.33 -0.087,0.087 -0.196,0.13 -0.33,0.13 h -0.979 c -0.134,-10e-4 -0.241,-0.044 -0.321,-0.131 z"
   id="path142" />
							<path
   fill="#00b9d2"
   d="m 816.055,749.847 -0.34,-3.48 v -0.08 c 0,-0.12 0.037,-0.213 0.11,-0.279 0.073,-0.067 0.17,-0.101 0.29,-0.101 h 1.26 c 0.133,0 0.236,0.044 0.31,0.13 0.073,0.087 0.104,0.197 0.091,0.33 l -0.341,3.48 c -0.026,0.293 -0.159,0.439 -0.399,0.439 h -0.58 c -0.241,0.001 -0.375,-0.146 -0.401,-0.439 z m 3.06,0 -0.34,-3.48 v -0.04 c 0,-0.133 0.036,-0.236 0.109,-0.31 0.073,-0.074 0.17,-0.11 0.29,-0.11 h 1.26 c 0.134,0 0.237,0.044 0.311,0.13 0.073,0.087 0.103,0.197 0.09,0.33 l -0.34,3.48 c -0.027,0.293 -0.16,0.439 -0.4,0.439 h -0.58 c -0.24,0.001 -0.373,-0.146 -0.4,-0.439 z"
   id="path144" />
							<path
   fill="#00b9d2"
   d="m 828.515,764.137 c -0.08,-0.087 -0.12,-0.197 -0.12,-0.33 v -21.16 c 0,-0.133 0.04,-0.243 0.12,-0.33 0.08,-0.087 0.187,-0.13 0.32,-0.13 h 0.74 c 0.133,0 0.243,0.043 0.329,0.13 0.087,0.087 0.131,0.197 0.131,0.33 v 21.16 c 0,0.133 -0.044,0.243 -0.131,0.33 -0.086,0.086 -0.196,0.13 -0.329,0.13 h -0.74 c -0.134,0 -0.24,-0.044 -0.32,-0.13 z"
   id="path146" />
							<path
   fill="#00b9d2"
   d="m 839.145,759.977 c -0.073,-0.087 -0.11,-0.19 -0.11,-0.311 l 0.04,-0.18 5,-11.7 h -6.6 c -0.134,0 -0.244,-0.043 -0.33,-0.13 -0.087,-0.086 -0.13,-0.196 -0.13,-0.33 v -0.739 c 0,-0.147 0.04,-0.264 0.12,-0.351 0.079,-0.087 0.192,-0.13 0.34,-0.13 h 8.16 c 0.146,0 0.26,0.043 0.34,0.13 0.08,0.087 0.12,0.203 0.12,0.351 v 0.68 c 0,0.24 -0.054,0.5 -0.16,0.78 l -4.94,11.56 c -0.066,0.146 -0.14,0.267 -0.22,0.36 -0.08,0.093 -0.193,0.14 -0.34,0.14 h -1 c -0.121,0 -0.217,-0.043 -0.29,-0.13 z"
   id="path148" />
							<path
   fill="#00b9d2"
   d="m 846.805,759.977 c -0.087,-0.087 -0.131,-0.196 -0.131,-0.33 v -1.38 c 0,-0.133 0.044,-0.247 0.131,-0.34 0.086,-0.094 0.196,-0.141 0.329,-0.141 h 1.381 c 0.133,0 0.243,0.047 0.329,0.141 0.087,0.093 0.131,0.207 0.131,0.34 v 1.38 c 0,0.134 -0.044,0.243 -0.131,0.33 -0.086,0.087 -0.196,0.13 -0.329,0.13 h -1.381 c -0.133,0 -0.243,-0.043 -0.329,-0.13 z"
   id="path150" />
							<path
   fill="#00b9d2"
   d="m 853.744,759.797 c -0.793,-0.341 -1.409,-0.83 -1.85,-1.471 -0.44,-0.64 -0.66,-1.387 -0.66,-2.239 0,-0.787 0.196,-1.477 0.59,-2.07 0.394,-0.593 0.924,-1.05 1.59,-1.37 -0.533,-0.307 -0.946,-0.71 -1.239,-1.21 -0.294,-0.5 -0.44,-1.09 -0.44,-1.771 0,-1.159 0.434,-2.076 1.3,-2.75 0.867,-0.673 2.007,-1.01 3.42,-1.01 1.413,0 2.551,0.334 3.41,1 0.86,0.667 1.29,1.587 1.29,2.76 0,0.667 -0.146,1.25 -0.439,1.75 -0.294,0.5 -0.7,0.91 -1.221,1.23 0.667,0.32 1.197,0.776 1.591,1.37 0.393,0.594 0.59,1.29 0.59,2.09 0,0.854 -0.221,1.597 -0.66,2.23 -0.44,0.633 -1.057,1.119 -1.851,1.46 -0.793,0.34 -1.696,0.51 -2.71,0.51 -1.014,10e-4 -1.917,-0.169 -2.711,-0.509 z m 5.08,-1.77 c 0.634,-0.479 0.95,-1.12 0.95,-1.92 0,-0.8 -0.316,-1.44 -0.95,-1.92 -0.633,-0.48 -1.423,-0.72 -2.37,-0.72 -0.96,0 -1.757,0.239 -2.39,0.72 -0.634,0.479 -0.95,1.12 -0.95,1.92 0,0.8 0.316,1.44 0.95,1.92 0.633,0.48 1.43,0.72 2.39,0.72 0.947,0 1.737,-0.24 2.37,-0.72 z m -0.309,-6.72 c 0.56,-0.4 0.84,-0.934 0.84,-1.601 0,-0.68 -0.277,-1.223 -0.83,-1.63 -0.554,-0.406 -1.243,-0.609 -2.07,-0.609 -0.84,0 -1.533,0.203 -2.08,0.609 -0.547,0.407 -0.819,0.95 -0.819,1.63 0,0.681 0.272,1.224 0.819,1.631 0.547,0.406 1.24,0.609 2.08,0.609 0.813,-0.026 1.499,-0.239 2.06,-0.639 z"
   id="path152" />
							<path
   fill="#00b9d2"
   d="m 869.344,759.977 c -0.087,-0.087 -0.13,-0.196 -0.13,-0.33 v -9.48 c 0,-0.133 0.043,-0.243 0.13,-0.329 0.087,-0.087 0.196,-0.131 0.33,-0.131 h 0.84 c 0.133,0 0.24,0.044 0.32,0.131 0.08,0.086 0.12,0.196 0.12,0.329 v 0.681 c 0.72,-0.894 1.692,-1.34 2.92,-1.34 1.466,0 2.506,0.613 3.119,1.84 0.32,-0.561 0.777,-1.007 1.37,-1.34 0.594,-0.334 1.257,-0.5 1.99,-0.5 1.093,0 1.986,0.373 2.68,1.119 0.693,0.747 1.04,1.827 1.04,3.24 v 5.78 c 0,0.134 -0.043,0.243 -0.13,0.33 -0.087,0.087 -0.196,0.13 -0.33,0.13 h -0.859 c -0.134,0 -0.244,-0.043 -0.33,-0.13 -0.087,-0.087 -0.13,-0.196 -0.13,-0.33 v -5.6 c 0,-1.067 -0.221,-1.83 -0.66,-2.29 -0.44,-0.46 -1.021,-0.69 -1.74,-0.69 -0.64,0 -1.189,0.237 -1.65,0.71 -0.46,0.474 -0.689,1.23 -0.689,2.271 v 5.6 c 0,0.134 -0.044,0.243 -0.13,0.33 -0.087,0.087 -0.197,0.13 -0.33,0.13 h -0.88 c -0.134,0 -0.244,-0.043 -0.33,-0.13 -0.087,-0.087 -0.13,-0.196 -0.13,-0.33 v -5.6 c 0,-1.054 -0.23,-1.813 -0.69,-2.28 -0.46,-0.467 -1.03,-0.7 -1.71,-0.7 -0.64,0 -1.189,0.233 -1.649,0.7 -0.461,0.467 -0.69,1.22 -0.69,2.26 v 5.62 c 0,0.134 -0.044,0.243 -0.13,0.33 -0.087,0.087 -0.197,0.13 -0.33,0.13 h -0.88 c -0.136,-10e-4 -0.245,-0.044 -0.332,-0.131 z"
   id="path154" />
							<path
   fill="#00b9d2"
   d="m 887.104,759.977 c -0.087,-0.087 -0.13,-0.196 -0.13,-0.33 v -9.48 c 0,-0.133 0.043,-0.243 0.13,-0.329 0.087,-0.087 0.196,-0.131 0.33,-0.131 h 0.84 c 0.133,0 0.24,0.044 0.32,0.131 0.08,0.086 0.12,0.196 0.12,0.329 v 0.681 c 0.72,-0.894 1.692,-1.34 2.92,-1.34 1.466,0 2.506,0.613 3.119,1.84 0.32,-0.561 0.777,-1.007 1.37,-1.34 0.594,-0.334 1.257,-0.5 1.99,-0.5 1.093,0 1.986,0.373 2.68,1.119 0.693,0.747 1.04,1.827 1.04,3.24 v 5.78 c 0,0.134 -0.043,0.243 -0.13,0.33 -0.087,0.087 -0.196,0.13 -0.33,0.13 h -0.859 c -0.134,0 -0.244,-0.043 -0.33,-0.13 -0.087,-0.087 -0.13,-0.196 -0.13,-0.33 v -5.6 c 0,-1.067 -0.221,-1.83 -0.66,-2.29 -0.44,-0.46 -1.021,-0.69 -1.74,-0.69 -0.64,0 -1.189,0.237 -1.65,0.71 -0.46,0.474 -0.689,1.23 -0.689,2.271 v 5.6 c 0,0.134 -0.044,0.243 -0.13,0.33 -0.087,0.087 -0.197,0.13 -0.33,0.13 h -0.88 c -0.134,0 -0.244,-0.043 -0.33,-0.13 -0.087,-0.087 -0.13,-0.196 -0.13,-0.33 v -5.6 c 0,-1.054 -0.23,-1.813 -0.69,-2.28 -0.46,-0.467 -1.03,-0.7 -1.71,-0.7 -0.64,0 -1.189,0.233 -1.649,0.7 -0.461,0.467 -0.69,1.22 -0.69,2.26 v 5.62 c 0,0.134 -0.044,0.243 -0.13,0.33 -0.087,0.087 -0.197,0.13 -0.33,0.13 h -0.88 c -0.136,-10e-4 -0.246,-0.044 -0.332,-0.131 z"
   id="path156" />
						</g>
					</g>
				</g>
			</g>
		</g>
		<g
   id="g206">
			<g
   id="POLYLINE_107_">
				
					<polyline
   fill="none"
   stroke="#00b9d2"
   stroke-width="2"
   stroke-linecap="round"
   stroke-linejoin="round"
   stroke-miterlimit="10"
   points="      104.305,723.041 97.941,729.405 104.305,735.768     "
   id="polyline167" />
			</g>
			<g
   id="POLYLINE_104_">
				
					<line
   fill="none"
   stroke="#00b9d2"
   stroke-width="2"
   stroke-linecap="round"
   stroke-linejoin="round"
   stroke-miterlimit="10"
   x1="97.941002"
   y1="729.40503"
   x2="162.45799"
   y2="729.40503"
   id="line170" />
			</g>
			<g
   id="POLYLINE_103_">
				
					<line
   fill="none"
   stroke="#00b9d2"
   stroke-width="2"
   stroke-linecap="round"
   stroke-linejoin="round"
   stroke-miterlimit="10"
   x1="305"
   y1="729.40503"
   x2="385.888"
   y2="729.40503"
   id="line173" />
			</g>
			<g
   id="POLYLINE_102_">
				
					<polyline
   fill="none"
   stroke="#00b9d2"
   stroke-width="2"
   stroke-linecap="round"
   stroke-linejoin="round"
   stroke-miterlimit="10"
   points="      379.511,723.053 385.875,729.416 379.511,735.78     "
   id="polyline176" />
			</g>
			<g
   id="MTEXT_70_">
				<g
   id="g203">
					<g
   id="g201">
						<path
   fill="#00b9d2"
   d="m 171.923,736.25 c -0.087,-0.087 -0.13,-0.196 -0.13,-0.33 v -0.6 c 0,-0.307 0.167,-0.601 0.5,-0.881 l 4.36,-4.34 c 0.987,-0.84 1.667,-1.526 2.04,-2.06 0.373,-0.533 0.56,-1.101 0.56,-1.7 0,-0.786 -0.22,-1.403 -0.66,-1.85 -0.44,-0.447 -1.08,-0.67 -1.92,-0.67 -0.8,0 -1.433,0.233 -1.9,0.699 -0.467,0.467 -0.753,1.094 -0.86,1.88 -0.027,0.147 -0.094,0.261 -0.2,0.341 -0.107,0.08 -0.213,0.12 -0.32,0.12 h -0.96 c -0.12,0 -0.22,-0.04 -0.3,-0.12 -0.08,-0.08 -0.12,-0.174 -0.12,-0.28 0.026,-0.707 0.216,-1.39 0.57,-2.05 0.353,-0.66 0.876,-1.2 1.57,-1.62 0.694,-0.42 1.533,-0.63 2.52,-0.63 1.493,0 2.617,0.39 3.37,1.17 0.753,0.78 1.13,1.77 1.13,2.97 0,0.84 -0.203,1.597 -0.61,2.271 -0.407,0.673 -1.043,1.383 -1.91,2.13 l -3.94,4 h 6.3 c 0.146,0 0.26,0.04 0.34,0.12 0.08,0.079 0.12,0.193 0.12,0.34 v 0.76 c 0,0.134 -0.043,0.243 -0.13,0.33 -0.086,0.087 -0.197,0.13 -0.33,0.13 h -8.76 c -0.133,0 -0.243,-0.043 -0.33,-0.13 z"
   id="path179" />
						<path
   fill="#00b9d2"
   d="m 183.983,736.25 c -0.087,-0.087 -0.13,-0.196 -0.13,-0.33 v -1.38 c 0,-0.133 0.043,-0.247 0.13,-0.34 0.086,-0.094 0.196,-0.141 0.33,-0.141 h 1.38 c 0.133,0 0.243,0.047 0.33,0.141 0.087,0.093 0.13,0.207 0.13,0.34 v 1.38 c 0,0.134 -0.043,0.243 -0.13,0.33 -0.086,0.087 -0.197,0.13 -0.33,0.13 h -1.38 c -0.133,0 -0.243,-0.043 -0.33,-0.13 z"
   id="path181" />
						<path
   fill="#00b9d2"
   d="m 190.183,736.25 c -0.073,-0.087 -0.11,-0.19 -0.11,-0.311 0,-0.093 0.026,-0.18 0.08,-0.26 l 3.08,-4.28 c -0.32,0.08 -0.693,0.12 -1.12,0.12 -0.96,-0.013 -1.8,-0.236 -2.52,-0.67 -0.72,-0.433 -1.27,-1 -1.65,-1.7 -0.38,-0.699 -0.57,-1.449 -0.57,-2.25 0,-0.8 0.19,-1.56 0.57,-2.279 0.38,-0.721 0.946,-1.307 1.7,-1.76 0.754,-0.453 1.663,-0.681 2.73,-0.681 1.067,0 1.98,0.22 2.74,0.66 0.76,0.44 1.333,1.017 1.72,1.73 0.386,0.713 0.58,1.477 0.58,2.29 0,0.733 -0.13,1.38 -0.39,1.939 -0.26,0.561 -0.604,1.14 -1.03,1.74 l -3.88,5.439 c -0.093,0.12 -0.184,0.217 -0.27,0.29 -0.087,0.074 -0.21,0.11 -0.37,0.11 h -1 c -0.12,0.003 -0.217,-0.04 -0.29,-0.127 z m 3.77,-6.69 c 0.48,-0.253 0.86,-0.609 1.14,-1.069 0.28,-0.46 0.42,-0.99 0.42,-1.591 0,-0.612 -0.14,-1.152 -0.42,-1.619 -0.28,-0.467 -0.66,-0.827 -1.14,-1.08 -0.48,-0.254 -1.007,-0.38 -1.58,-0.38 -0.56,0 -1.077,0.126 -1.55,0.38 -0.474,0.253 -0.85,0.613 -1.13,1.08 -0.28,0.467 -0.42,1.007 -0.42,1.619 0,0.601 0.14,1.131 0.42,1.591 0.28,0.46 0.653,0.816 1.12,1.069 0.466,0.254 0.986,0.38 1.56,0.38 0.574,0 1.1,-0.126 1.58,-0.38 z"
   id="path183" />
						<path
   fill="#00b9d2"
   d="m 199.623,725.861 c -0.06,-0.08 -0.077,-0.181 -0.05,-0.301 l 0.44,-2.8 c 0.053,-0.387 0.24,-0.58 0.56,-0.58 h 1.28 c 0.093,0 0.17,0.033 0.23,0.101 0.06,0.066 0.09,0.146 0.09,0.239 0,0.134 -0.02,0.24 -0.06,0.32 l -1.04,2.7 c -0.067,0.146 -0.14,0.257 -0.22,0.33 -0.08,0.073 -0.2,0.109 -0.36,0.109 h -0.62 c -0.107,10e-4 -0.19,-0.039 -0.25,-0.118 z m 3.14,0 c -0.06,-0.08 -0.077,-0.181 -0.05,-0.301 l 0.44,-2.8 c 0.053,-0.387 0.24,-0.58 0.56,-0.58 h 1.28 c 0.093,0 0.17,0.033 0.23,0.101 0.06,0.066 0.09,0.146 0.09,0.239 0,0.134 -0.02,0.24 -0.06,0.32 l -1.04,2.7 c -0.067,0.146 -0.14,0.257 -0.22,0.33 -0.08,0.073 -0.2,0.109 -0.36,0.109 h -0.62 c -0.107,10e-4 -0.19,-0.039 -0.25,-0.118 z"
   id="path185" />
						<path
   fill="#00b9d2"
   d="m 212.632,740.411 c -0.08,-0.087 -0.12,-0.197 -0.12,-0.33 v -21.16 c 0,-0.133 0.04,-0.243 0.12,-0.33 0.08,-0.087 0.187,-0.13 0.32,-0.13 h 0.74 c 0.133,0 0.243,0.043 0.33,0.13 0.087,0.087 0.13,0.197 0.13,0.33 v 21.16 c 0,0.133 -0.043,0.243 -0.13,0.33 -0.086,0.086 -0.197,0.13 -0.33,0.13 h -0.74 c -0.133,0 -0.24,-0.044 -0.32,-0.13 z"
   id="path187" />
						<path
   fill="#00b9d2"
   d="m 223.262,736.25 c -0.073,-0.087 -0.11,-0.19 -0.11,-0.311 l 0.04,-0.18 5,-11.7 h -6.6 c -0.133,0 -0.244,-0.043 -0.33,-0.13 -0.087,-0.086 -0.13,-0.196 -0.13,-0.33 v -0.739 c 0,-0.147 0.04,-0.264 0.12,-0.351 0.08,-0.087 0.193,-0.13 0.34,-0.13 h 8.16 c 0.146,0 0.26,0.043 0.34,0.13 0.08,0.087 0.12,0.203 0.12,0.351 v 0.68 c 0,0.24 -0.054,0.5 -0.16,0.78 l -4.94,11.56 c -0.067,0.146 -0.14,0.267 -0.22,0.36 -0.08,0.093 -0.193,0.14 -0.34,0.14 h -1 c -0.12,0 -0.217,-0.043 -0.29,-0.13 z"
   id="path189" />
						<path
   fill="#00b9d2"
   d="m 233.972,736.071 c -0.76,-0.341 -1.337,-0.783 -1.73,-1.33 -0.394,-0.547 -0.604,-1.113 -0.63,-1.7 0,-0.12 0.04,-0.217 0.12,-0.29 0.08,-0.073 0.18,-0.11 0.3,-0.11 h 0.9 c 0.146,0 0.267,0.03 0.36,0.09 0.093,0.061 0.167,0.178 0.22,0.351 0.173,0.68 0.55,1.16 1.13,1.439 0.58,0.28 1.263,0.42 2.05,0.42 0.96,0 1.723,-0.229 2.29,-0.689 0.566,-0.46 0.85,-1.116 0.85,-1.97 0,-1.627 -0.994,-2.44 -2.98,-2.44 h -1.88 c -0.134,0 -0.244,-0.043 -0.33,-0.13 -0.087,-0.087 -0.13,-0.196 -0.13,-0.33 v -0.52 c 0,-0.2 0.073,-0.374 0.22,-0.521 l 3.9,-4.32 h -5.92 c -0.133,0 -0.243,-0.04 -0.33,-0.12 -0.087,-0.079 -0.13,-0.187 -0.13,-0.319 v -0.72 c 0,-0.147 0.043,-0.264 0.13,-0.351 0.087,-0.087 0.197,-0.13 0.33,-0.13 h 7.92 c 0.146,0 0.263,0.043 0.35,0.13 0.086,0.087 0.13,0.203 0.13,0.351 v 0.659 c 0,0.147 -0.067,0.301 -0.2,0.46 l -3.9,4.381 h 0.32 c 1.36,0.039 2.437,0.393 3.23,1.06 0.793,0.667 1.19,1.64 1.19,2.92 0,0.88 -0.217,1.637 -0.65,2.271 -0.434,0.633 -1.037,1.119 -1.81,1.46 -0.773,0.34 -1.647,0.51 -2.62,0.51 -1.041,-0.002 -1.941,-0.172 -2.7,-0.512 z"
   id="path191" />
						<path
   fill="#00b9d2"
   d="m 244.202,736.25 c -0.087,-0.087 -0.13,-0.196 -0.13,-0.33 v -1.38 c 0,-0.133 0.043,-0.247 0.13,-0.34 0.086,-0.094 0.196,-0.141 0.33,-0.141 h 1.38 c 0.133,0 0.243,0.047 0.33,0.141 0.087,0.093 0.13,0.207 0.13,0.34 v 1.38 c 0,0.134 -0.043,0.243 -0.13,0.33 -0.086,0.087 -0.197,0.13 -0.33,0.13 h -1.38 c -0.134,0 -0.244,-0.043 -0.33,-0.13 z"
   id="path193" />
						<path
   fill="#00b9d2"
   d="m 249.821,736.25 c -0.073,-0.087 -0.11,-0.19 -0.11,-0.311 l 0.04,-0.18 5,-11.7 h -6.6 c -0.133,0 -0.244,-0.043 -0.33,-0.13 -0.087,-0.086 -0.13,-0.196 -0.13,-0.33 v -0.739 c 0,-0.147 0.04,-0.264 0.12,-0.351 0.08,-0.087 0.193,-0.13 0.34,-0.13 h 8.16 c 0.146,0 0.26,0.043 0.34,0.13 0.08,0.087 0.12,0.203 0.12,0.351 v 0.68 c 0,0.24 -0.054,0.5 -0.16,0.78 l -4.94,11.56 c -0.067,0.146 -0.14,0.267 -0.22,0.36 -0.08,0.093 -0.193,0.14 -0.34,0.14 h -1 c -0.12,0 -0.216,-0.043 -0.29,-0.13 z"
   id="path195" />
						<path
   fill="#00b9d2"
   d="m 263.861,736.25 c -0.087,-0.087 -0.13,-0.196 -0.13,-0.33 v -9.48 c 0,-0.133 0.043,-0.243 0.13,-0.329 0.087,-0.087 0.197,-0.131 0.33,-0.131 h 0.84 c 0.133,0 0.24,0.044 0.32,0.131 0.08,0.086 0.12,0.196 0.12,0.329 v 0.681 c 0.72,-0.894 1.693,-1.34 2.92,-1.34 1.466,0 2.506,0.613 3.12,1.84 0.32,-0.561 0.777,-1.007 1.37,-1.34 0.593,-0.334 1.257,-0.5 1.99,-0.5 1.093,0 1.986,0.373 2.68,1.119 0.693,0.747 1.04,1.827 1.04,3.24 v 5.78 c 0,0.134 -0.043,0.243 -0.13,0.33 -0.087,0.087 -0.197,0.13 -0.33,0.13 h -0.86 c -0.133,0 -0.244,-0.043 -0.33,-0.13 -0.087,-0.087 -0.13,-0.196 -0.13,-0.33 v -5.6 c 0,-1.067 -0.22,-1.83 -0.66,-2.29 -0.44,-0.46 -1.02,-0.69 -1.74,-0.69 -0.64,0 -1.19,0.237 -1.65,0.71 -0.46,0.474 -0.69,1.23 -0.69,2.271 v 5.6 c 0,0.134 -0.043,0.243 -0.13,0.33 -0.087,0.087 -0.197,0.13 -0.33,0.13 h -0.88 c -0.133,0 -0.244,-0.043 -0.33,-0.13 -0.087,-0.087 -0.13,-0.196 -0.13,-0.33 v -5.6 c 0,-1.054 -0.23,-1.813 -0.69,-2.28 -0.46,-0.467 -1.03,-0.7 -1.71,-0.7 -0.64,0 -1.19,0.233 -1.65,0.7 -0.46,0.467 -0.69,1.22 -0.69,2.26 v 5.62 c 0,0.134 -0.043,0.243 -0.13,0.33 -0.087,0.087 -0.197,0.13 -0.33,0.13 h -0.88 c -0.133,-10e-4 -0.243,-0.044 -0.33,-0.131 z"
   id="path197" />
						<path
   fill="#00b9d2"
   d="m 281.621,736.25 c -0.087,-0.087 -0.13,-0.196 -0.13,-0.33 v -9.48 c 0,-0.133 0.043,-0.243 0.13,-0.329 0.087,-0.087 0.197,-0.131 0.33,-0.131 h 0.84 c 0.133,0 0.24,0.044 0.32,0.131 0.08,0.086 0.12,0.196 0.12,0.329 v 0.681 c 0.72,-0.894 1.693,-1.34 2.92,-1.34 1.466,0 2.506,0.613 3.12,1.84 0.32,-0.561 0.777,-1.007 1.37,-1.34 0.593,-0.334 1.257,-0.5 1.99,-0.5 1.093,0 1.986,0.373 2.68,1.119 0.693,0.747 1.04,1.827 1.04,3.24 v 5.78 c 0,0.134 -0.043,0.243 -0.13,0.33 -0.087,0.087 -0.197,0.13 -0.33,0.13 h -0.86 c -0.133,0 -0.244,-0.043 -0.33,-0.13 -0.087,-0.087 -0.13,-0.196 -0.13,-0.33 v -5.6 c 0,-1.067 -0.22,-1.83 -0.66,-2.29 -0.44,-0.46 -1.02,-0.69 -1.74,-0.69 -0.64,0 -1.19,0.237 -1.65,0.71 -0.46,0.474 -0.69,1.23 -0.69,2.271 v 5.6 c 0,0.134 -0.043,0.243 -0.13,0.33 -0.087,0.087 -0.197,0.13 -0.33,0.13 h -0.88 c -0.133,0 -0.244,-0.043 -0.33,-0.13 -0.087,-0.087 -0.13,-0.196 -0.13,-0.33 v -5.6 c 0,-1.054 -0.23,-1.813 -0.69,-2.28 -0.46,-0.467 -1.03,-0.7 -1.71,-0.7 -0.64,0 -1.19,0.233 -1.65,0.7 -0.46,0.467 -0.69,1.22 -0.69,2.26 v 5.62 c 0,0.134 -0.043,0.243 -0.13,0.33 -0.087,0.087 -0.197,0.13 -0.33,0.13 h -0.88 c -0.134,-10e-4 -0.243,-0.044 -0.33,-0.131 z"
   id="path199" />
					</g>
				</g>
			</g>
		</g>
		<g
   id="g248">
			<g
   id="POLYLINE_8_">
				
					<polyline
   fill="none"
   stroke="#00b9d2"
   stroke-width="2"
   stroke-linecap="round"
   stroke-linejoin="round"
   stroke-miterlimit="10"
   points="      938.784,77.3 932.421,70.937 926.057,77.3     "
   id="polyline208" />
			</g>
			<g
   id="POLYLINE_7_">
				
					<line
   fill="none"
   stroke="#00b9d2"
   stroke-width="2"
   stroke-linecap="round"
   stroke-linejoin="round"
   stroke-miterlimit="10"
   x1="932.42102"
   y1="71.120003"
   x2="932.42102"
   y2="699.88397"
   id="line211" />
			</g>
			<g
   id="POLYLINE_6_">
				
					<polyline
   fill="none"
   stroke="#00b9d2"
   stroke-width="2"
   stroke-linecap="round"
   stroke-linejoin="round"
   stroke-miterlimit="10"
   points="      938.772,693.507 932.409,699.871 926.046,693.507     "
   id="polyline214" />
			</g>
			<g
   id="MTEXT_11_">
				<g
   id="g245">
					<g
   id="g243">
						<path
   fill="#00b9d2"
   d="m 796.006,51.93 c -0.78,-0.433 -1.374,-1.017 -1.78,-1.75 -0.406,-0.733 -0.61,-1.533 -0.61,-2.399 0,-1.146 0.46,-2.373 1.38,-3.681 l 3.82,-5.319 c 0.013,-0.014 0.05,-0.061 0.11,-0.141 0.06,-0.08 0.137,-0.143 0.23,-0.189 0.093,-0.046 0.2,-0.07 0.32,-0.07 h 0.98 c 0.12,0 0.217,0.043 0.29,0.13 0.073,0.087 0.11,0.19 0.11,0.311 0,0.066 -0.034,0.153 -0.1,0.26 l -2.92,4.08 c 0.346,-0.08 0.733,-0.12 1.16,-0.12 0.973,0 1.83,0.217 2.57,0.649 0.74,0.434 1.313,1.007 1.72,1.721 0.407,0.713 0.61,1.497 0.61,2.35 0,0.854 -0.203,1.65 -0.61,2.39 -0.407,0.74 -0.997,1.33 -1.77,1.771 -0.773,0.441 -1.687,0.66 -2.74,0.66 -1.067,-0.002 -1.99,-0.219 -2.77,-0.653 z m 4.37,-1.37 c 0.493,-0.239 0.886,-0.597 1.18,-1.069 0.293,-0.474 0.44,-1.044 0.44,-1.71 0,-0.653 -0.15,-1.217 -0.45,-1.69 -0.3,-0.473 -0.697,-0.833 -1.19,-1.08 -0.494,-0.246 -1.027,-0.37 -1.6,-0.37 -0.574,0 -1.107,0.124 -1.6,0.37 -0.494,0.247 -0.887,0.607 -1.18,1.08 -0.293,0.474 -0.44,1.037 -0.44,1.69 0,0.666 0.146,1.236 0.44,1.71 0.293,0.473 0.687,0.83 1.18,1.069 0.493,0.24 1.026,0.36 1.6,0.36 0.586,0 1.126,-0.12 1.62,-0.36 z"
   id="path217" />
						<path
   fill="#00b9d2"
   d="m 806.126,52.25 c -0.087,-0.087 -0.13,-0.196 -0.13,-0.33 v -1.38 c 0,-0.133 0.043,-0.247 0.13,-0.34 0.086,-0.094 0.196,-0.141 0.33,-0.141 h 1.38 c 0.133,0 0.243,0.047 0.33,0.141 0.087,0.093 0.13,0.207 0.13,0.34 v 1.38 c 0,0.134 -0.043,0.243 -0.13,0.33 -0.086,0.087 -0.197,0.13 -0.33,0.13 h -1.38 c -0.134,0 -0.244,-0.043 -0.33,-0.13 z"
   id="path219" />
						<path
   fill="#00b9d2"
   d="m 812.856,52.071 c -0.76,-0.341 -1.337,-0.783 -1.73,-1.33 -0.394,-0.547 -0.604,-1.113 -0.63,-1.7 0,-0.12 0.04,-0.217 0.12,-0.29 0.08,-0.073 0.18,-0.11 0.3,-0.11 h 0.9 c 0.146,0 0.267,0.03 0.36,0.09 0.093,0.061 0.167,0.178 0.22,0.351 0.173,0.68 0.55,1.16 1.13,1.439 0.58,0.28 1.263,0.42 2.05,0.42 0.96,0 1.723,-0.229 2.29,-0.689 0.566,-0.46 0.85,-1.116 0.85,-1.97 0,-1.627 -0.994,-2.44 -2.98,-2.44 h -1.88 c -0.134,0 -0.244,-0.043 -0.33,-0.13 -0.087,-0.087 -0.13,-0.196 -0.13,-0.33 v -0.52 c 0,-0.2 0.073,-0.374 0.22,-0.521 l 3.9,-4.32 h -5.92 c -0.133,0 -0.243,-0.04 -0.33,-0.12 -0.087,-0.079 -0.13,-0.187 -0.13,-0.319 v -0.72 c 0,-0.147 0.043,-0.264 0.13,-0.351 0.087,-0.087 0.197,-0.13 0.33,-0.13 h 7.92 c 0.146,0 0.263,0.043 0.35,0.13 0.086,0.087 0.13,0.203 0.13,0.351 v 0.659 c 0,0.147 -0.067,0.301 -0.2,0.46 l -3.9,4.381 h 0.32 c 1.36,0.039 2.437,0.393 3.23,1.06 0.793,0.667 1.19,1.64 1.19,2.92 0,0.88 -0.217,1.637 -0.65,2.271 -0.434,0.633 -1.037,1.119 -1.81,1.46 -0.773,0.34 -1.647,0.51 -2.62,0.51 -1.04,-0.002 -1.94,-0.172 -2.7,-0.512 z"
   id="path221" />
						<path
   fill="#00b9d2"
   d="m 824.305,52.25 c -0.073,-0.087 -0.11,-0.19 -0.11,-0.311 l 0.04,-0.18 5,-11.7 h -6.6 c -0.133,0 -0.244,-0.043 -0.33,-0.13 -0.087,-0.086 -0.13,-0.196 -0.13,-0.33 V 38.86 c 0,-0.147 0.04,-0.264 0.12,-0.351 0.08,-0.087 0.193,-0.13 0.34,-0.13 h 8.16 c 0.146,0 0.26,0.043 0.34,0.13 0.08,0.087 0.12,0.203 0.12,0.351 v 0.68 c 0,0.24 -0.054,0.5 -0.16,0.78 l -4.94,11.56 c -0.067,0.146 -0.14,0.267 -0.22,0.36 -0.08,0.093 -0.193,0.14 -0.34,0.14 h -1 c -0.12,0 -0.217,-0.043 -0.29,-0.13 z"
   id="path223" />
						<path
   fill="#00b9d2"
   d="m 833.005,41.861 c -0.06,-0.08 -0.077,-0.181 -0.05,-0.301 l 0.44,-2.8 c 0.053,-0.387 0.24,-0.58 0.56,-0.58 h 1.28 c 0.093,0 0.17,0.033 0.23,0.101 0.06,0.066 0.09,0.146 0.09,0.239 0,0.134 -0.02,0.24 -0.06,0.32 l -1.04,2.7 c -0.067,0.146 -0.14,0.257 -0.22,0.33 -0.08,0.073 -0.2,0.109 -0.36,0.109 h -0.62 c -0.107,10e-4 -0.19,-0.039 -0.25,-0.118 z m 3.141,0 c -0.06,-0.08 -0.077,-0.181 -0.05,-0.301 l 0.44,-2.8 c 0.053,-0.387 0.24,-0.58 0.56,-0.58 h 1.28 c 0.093,0 0.17,0.033 0.23,0.101 0.06,0.066 0.09,0.146 0.09,0.239 0,0.134 -0.02,0.24 -0.06,0.32 l -1.04,2.7 c -0.067,0.146 -0.14,0.257 -0.22,0.33 -0.08,0.073 -0.2,0.109 -0.36,0.109 h -0.62 c -0.107,10e-4 -0.19,-0.039 -0.25,-0.118 z"
   id="path225" />
						<path
   fill="#00b9d2"
   d="m 846.015,56.411 c -0.08,-0.087 -0.12,-0.197 -0.12,-0.33 V 34.92 c 0,-0.133 0.04,-0.243 0.12,-0.33 0.08,-0.087 0.187,-0.13 0.32,-0.13 h 0.74 c 0.133,0 0.243,0.043 0.33,0.13 0.087,0.087 0.13,0.197 0.13,0.33 v 21.16 c 0,0.133 -0.043,0.243 -0.13,0.33 -0.086,0.086 -0.197,0.13 -0.33,0.13 h -0.74 c -0.133,10e-4 -0.24,-0.043 -0.32,-0.129 z"
   id="path227" />
						<path
   fill="#00b9d2"
   d="m 859.134,52.25 c -0.08,-0.087 -0.12,-0.196 -0.12,-0.33 V 40.64 l -3.36,2.58 c -0.094,0.08 -0.194,0.12 -0.3,0.12 -0.12,0 -0.233,-0.066 -0.34,-0.2 l -0.48,-0.62 c -0.067,-0.093 -0.1,-0.187 -0.1,-0.279 0,-0.146 0.066,-0.267 0.2,-0.36 l 4.34,-3.36 c 0.146,-0.093 0.32,-0.14 0.52,-0.14 h 0.94 c 0.133,0 0.243,0.043 0.33,0.13 0.086,0.087 0.13,0.197 0.13,0.33 v 13.08 c 0,0.134 -0.043,0.243 -0.13,0.33 -0.087,0.087 -0.197,0.13 -0.33,0.13 h -0.98 c -0.133,-10e-4 -0.24,-0.044 -0.32,-0.131 z"
   id="path229" />
						<path
   fill="#00b9d2"
   d="m 865.804,51.93 c -0.78,-0.433 -1.374,-1.017 -1.78,-1.75 -0.406,-0.733 -0.61,-1.533 -0.61,-2.399 0,-1.146 0.46,-2.373 1.38,-3.681 l 3.82,-5.319 c 0.013,-0.014 0.05,-0.061 0.11,-0.141 0.06,-0.08 0.137,-0.143 0.23,-0.189 0.093,-0.046 0.2,-0.07 0.32,-0.07 h 0.98 c 0.12,0 0.217,0.043 0.29,0.13 0.073,0.087 0.11,0.19 0.11,0.311 0,0.066 -0.034,0.153 -0.1,0.26 l -2.92,4.08 c 0.346,-0.08 0.733,-0.12 1.16,-0.12 0.973,0 1.83,0.217 2.57,0.649 0.74,0.434 1.313,1.007 1.72,1.721 0.407,0.713 0.61,1.497 0.61,2.35 0,0.854 -0.203,1.65 -0.61,2.39 -0.407,0.74 -0.997,1.33 -1.77,1.771 -0.773,0.441 -1.687,0.66 -2.74,0.66 -1.067,-0.002 -1.99,-0.219 -2.77,-0.653 z m 4.37,-1.37 c 0.493,-0.239 0.886,-0.597 1.18,-1.069 0.293,-0.474 0.44,-1.044 0.44,-1.71 0,-0.653 -0.15,-1.217 -0.45,-1.69 -0.3,-0.473 -0.697,-0.833 -1.19,-1.08 -0.494,-0.246 -1.027,-0.37 -1.6,-0.37 -0.574,0 -1.107,0.124 -1.6,0.37 -0.494,0.247 -0.887,0.607 -1.18,1.08 -0.293,0.474 -0.44,1.037 -0.44,1.69 0,0.666 0.146,1.236 0.44,1.71 0.293,0.473 0.687,0.83 1.18,1.069 0.493,0.24 1.026,0.36 1.6,0.36 0.587,0 1.127,-0.12 1.62,-0.36 z"
   id="path231" />
						<path
   fill="#00b9d2"
   d="m 879.154,52.25 c -0.08,-0.087 -0.12,-0.196 -0.12,-0.33 V 40.64 l -3.36,2.58 c -0.094,0.08 -0.194,0.12 -0.3,0.12 -0.12,0 -0.233,-0.066 -0.34,-0.2 l -0.48,-0.62 c -0.067,-0.093 -0.1,-0.187 -0.1,-0.279 0,-0.146 0.066,-0.267 0.2,-0.36 l 4.34,-3.36 c 0.146,-0.093 0.32,-0.14 0.52,-0.14 h 0.94 c 0.133,0 0.243,0.043 0.33,0.13 0.086,0.087 0.13,0.197 0.13,0.33 v 13.08 c 0,0.134 -0.043,0.243 -0.13,0.33 -0.087,0.087 -0.197,0.13 -0.33,0.13 h -0.98 c -0.133,-10e-4 -0.24,-0.044 -0.32,-0.131 z"
   id="path233" />
						<path
   fill="#00b9d2"
   d="m 883.944,52.25 c -0.087,-0.087 -0.13,-0.196 -0.13,-0.33 v -1.38 c 0,-0.133 0.043,-0.247 0.13,-0.34 0.086,-0.094 0.196,-0.141 0.33,-0.141 h 1.38 c 0.133,0 0.243,0.047 0.33,0.141 0.087,0.093 0.13,0.207 0.13,0.34 v 1.38 c 0,0.134 -0.043,0.243 -0.13,0.33 -0.086,0.087 -0.197,0.13 -0.33,0.13 h -1.38 c -0.134,0 -0.244,-0.043 -0.33,-0.13 z"
   id="path235" />
						<path
   fill="#00b9d2"
   d="m 890.144,52.25 c -0.073,-0.087 -0.11,-0.19 -0.11,-0.311 0,-0.093 0.026,-0.18 0.08,-0.26 l 3.08,-4.28 c -0.32,0.08 -0.693,0.12 -1.12,0.12 -0.96,-0.013 -1.8,-0.236 -2.52,-0.67 -0.72,-0.433 -1.27,-1 -1.65,-1.7 -0.38,-0.699 -0.57,-1.449 -0.57,-2.25 0,-0.8 0.19,-1.56 0.57,-2.279 0.38,-0.721 0.946,-1.307 1.7,-1.76 0.754,-0.453 1.663,-0.681 2.73,-0.681 1.067,0 1.98,0.22 2.74,0.66 0.76,0.44 1.333,1.017 1.72,1.73 0.386,0.713 0.58,1.477 0.58,2.29 0,0.733 -0.13,1.38 -0.39,1.939 -0.26,0.561 -0.604,1.14 -1.03,1.74 l -3.88,5.439 c -0.093,0.12 -0.184,0.217 -0.27,0.29 -0.087,0.074 -0.21,0.11 -0.37,0.11 h -1 c -0.121,0.003 -0.217,-0.04 -0.29,-0.127 z m 3.77,-6.69 c 0.48,-0.253 0.86,-0.609 1.14,-1.069 0.28,-0.46 0.42,-0.99 0.42,-1.591 0,-0.612 -0.14,-1.152 -0.42,-1.619 -0.28,-0.467 -0.66,-0.827 -1.14,-1.08 -0.48,-0.254 -1.007,-0.38 -1.58,-0.38 -0.56,0 -1.077,0.126 -1.55,0.38 -0.474,0.253 -0.85,0.613 -1.13,1.08 -0.28,0.467 -0.42,1.007 -0.42,1.619 0,0.601 0.14,1.131 0.42,1.591 0.28,0.46 0.653,0.816 1.12,1.069 0.466,0.254 0.986,0.38 1.56,0.38 0.574,0 1.1,-0.126 1.58,-0.38 z"
   id="path237" />
						<path
   fill="#00b9d2"
   d="m 904.923,52.25 c -0.087,-0.087 -0.13,-0.196 -0.13,-0.33 v -9.48 c 0,-0.133 0.043,-0.243 0.13,-0.329 0.087,-0.087 0.197,-0.131 0.33,-0.131 h 0.84 c 0.133,0 0.24,0.044 0.32,0.131 0.08,0.086 0.12,0.196 0.12,0.329 v 0.681 c 0.72,-0.894 1.693,-1.34 2.92,-1.34 1.466,0 2.506,0.613 3.12,1.84 0.32,-0.561 0.777,-1.007 1.37,-1.34 0.593,-0.334 1.257,-0.5 1.99,-0.5 1.093,0 1.986,0.373 2.68,1.119 0.693,0.747 1.04,1.827 1.04,3.24 v 5.78 c 0,0.134 -0.043,0.243 -0.13,0.33 -0.087,0.087 -0.197,0.13 -0.33,0.13 h -0.86 c -0.133,0 -0.244,-0.043 -0.33,-0.13 -0.087,-0.087 -0.13,-0.196 -0.13,-0.33 v -5.6 c 0,-1.067 -0.22,-1.83 -0.66,-2.29 -0.44,-0.46 -1.02,-0.69 -1.74,-0.69 -0.64,0 -1.19,0.237 -1.65,0.71 -0.46,0.474 -0.69,1.23 -0.69,2.271 v 5.6 c 0,0.134 -0.043,0.243 -0.13,0.33 -0.087,0.087 -0.197,0.13 -0.33,0.13 h -0.88 c -0.133,0 -0.244,-0.043 -0.33,-0.13 -0.087,-0.087 -0.13,-0.196 -0.13,-0.33 v -5.6 c 0,-1.054 -0.23,-1.813 -0.69,-2.28 -0.46,-0.467 -1.03,-0.7 -1.71,-0.7 -0.64,0 -1.19,0.233 -1.65,0.7 -0.46,0.467 -0.69,1.22 -0.69,2.26 v 5.62 c 0,0.134 -0.043,0.243 -0.13,0.33 -0.087,0.087 -0.197,0.13 -0.33,0.13 h -0.88 c -0.133,-10e-4 -0.243,-0.044 -0.33,-0.131 z"
   id="path239" />
						<path
   fill="#00b9d2"
   d="m 922.683,52.25 c -0.087,-0.087 -0.13,-0.196 -0.13,-0.33 v -9.48 c 0,-0.133 0.043,-0.243 0.13,-0.329 0.087,-0.087 0.197,-0.131 0.33,-0.131 h 0.84 c 0.133,0 0.24,0.044 0.32,0.131 0.08,0.086 0.12,0.196 0.12,0.329 v 0.681 c 0.72,-0.894 1.693,-1.34 2.92,-1.34 1.466,0 2.506,0.613 3.12,1.84 0.32,-0.561 0.777,-1.007 1.37,-1.34 0.593,-0.334 1.257,-0.5 1.99,-0.5 1.093,0 1.986,0.373 2.68,1.119 0.693,0.747 1.04,1.827 1.04,3.24 v 5.78 c 0,0.134 -0.043,0.243 -0.13,0.33 -0.087,0.087 -0.197,0.13 -0.33,0.13 h -0.86 c -0.133,0 -0.244,-0.043 -0.33,-0.13 -0.087,-0.087 -0.13,-0.196 -0.13,-0.33 v -5.6 c 0,-1.067 -0.22,-1.83 -0.66,-2.29 -0.44,-0.46 -1.02,-0.69 -1.74,-0.69 -0.64,0 -1.19,0.237 -1.65,0.71 -0.46,0.474 -0.69,1.23 -0.69,2.271 v 5.6 c 0,0.134 -0.043,0.243 -0.13,0.33 -0.087,0.087 -0.197,0.13 -0.33,0.13 h -0.88 c -0.133,0 -0.244,-0.043 -0.33,-0.13 -0.087,-0.087 -0.13,-0.196 -0.13,-0.33 v -5.6 c 0,-1.054 -0.23,-1.813 -0.69,-2.28 -0.46,-0.467 -1.03,-0.7 -1.71,-0.7 -0.64,0 -1.19,0.233 -1.65,0.7 -0.46,0.467 -0.69,1.22 -0.69,2.26 v 5.62 c 0,0.134 -0.043,0.243 -0.13,0.33 -0.087,0.087 -0.197,0.13 -0.33,0.13 h -0.88 c -0.133,-10e-4 -0.243,-0.044 -0.33,-0.131 z"
   id="path241" />
					</g>
				</g>
			</g>
		</g>
	</g>
</g>


<rect
   x="288.61801"
   y="224.89099"
   fill="none"
   stroke="#00b9d2"
   stroke-width="2.75"
   stroke-linecap="round"
   stroke-linejoin="round"
   stroke-miterlimit="10"
   width="2.921"
   height="39.067001"
   id="rect315"
   style="stroke:#000000;stroke-opacity:1" /><rect
   x="288.61801"
   y="111.351"
   fill="none"
   stroke="#00b9d2"
   stroke-width="2.75"
   stroke-linecap="round"
   stroke-linejoin="round"
   stroke-miterlimit="10"
   width="2.921"
   height="75.138"
   id="rect318"
   style="stroke:#000000;stroke-opacity:1" /><path
   fill="none"
   stroke="#00b9d2"
   stroke-width="2.75"
   stroke-linecap="round"
   stroke-linejoin="round"
   stroke-miterlimit="10"
   d="m 152.175,21.977 c 0.01,-3.209 -2.208,-6.059 -5.322,-6.837 -4.433,-1.116 -8.738,2.205 -8.784,6.776 -0.033,4.622 4.301,8.026 8.784,6.899 3.113,-0.779 5.332,-3.629 5.322,-6.838 z"
   id="path321"
   style="stroke:#000000;stroke-opacity:1" /><polygon
   fill="none"
   stroke="#00b9d2"
   stroke-width="2.75"
   stroke-linecap="round"
   stroke-linejoin="round"
   stroke-miterlimit="10"
   points="354.833,79.714 355.298,79.766 355.763,79.826 356.226,79.895 356.688,79.971 357.149,80.056 357.609,80.148 358.066,80.249 358.522,80.357 358.976,80.473 359.428,80.597 359.877,80.728 360.325,80.868 360.769,81.015 361.212,81.169 361.651,81.332 362.088,81.502 362.521,81.679 362.952,81.864 363.379,82.056 363.803,82.256 364.223,82.463 364.64,82.677 365.053,82.898 365.462,83.127 365.867,83.362 366.268,83.604 366.664,83.854 367.057,84.11 367.444,84.372 367.828,84.642 368.206,84.918 368.58,85.2 368.949,85.489 369.312,85.785 369.671,86.086 370.024,86.394 370.372,86.707 370.715,87.027 371.052,87.353 371.383,87.684 371.708,88.021 372.028,88.363 372.342,88.711 372.649,89.064 372.951,89.423 373.246,89.787 373.535,90.156 373.818,90.529 374.094,90.908 374.363,91.291 374.626,91.679 374.882,92.071 375.131,92.468 375.374,92.869 375.609,93.274 375.837,93.683 376.059,94.096 376.273,94.513 376.48,94.933 376.679,95.357 376.871,95.784 377.056,96.214 377.234,96.648 377.404,97.085 377.566,97.524 377.721,97.966 377.868,98.411 378.007,98.858 378.139,99.308 378.263,99.76 378.379,100.214 378.487,100.669 378.587,101.127 378.68,101.586 378.764,102.047 378.84,102.509 378.909,102.973 378.969,103.437 379.022,103.903 379.066,104.369 379.103,104.836 379.131,105.304 379.151,105.772 379.163,106.24 379.167,106.709 379.167,660.589 379.163,661.058 379.151,661.526 379.131,661.994 379.103,662.462 379.066,662.929 379.022,663.395 378.969,663.861 378.909,664.325 378.84,664.789 378.764,665.251 378.68,665.712 378.587,666.171 378.487,666.629 378.379,667.085 378.263,667.539 378.139,667.99 378.007,668.44 377.868,668.887 377.721,669.332 377.566,669.774 377.404,670.214 377.234,670.65 377.056,671.084 376.871,671.514 376.679,671.941 376.48,672.365 376.273,672.786 376.059,673.202 375.837,673.615 375.609,674.024 375.374,674.429 375.131,674.83 374.882,675.227 374.626,675.619 374.363,676.007 374.094,676.39 373.818,676.769 373.535,677.143 373.246,677.511 372.951,677.875 372.649,678.234 372.342,678.587 372.028,678.935 371.708,679.277 371.383,679.614 371.052,679.946 370.715,680.271 370.372,680.591 370.024,680.904 369.671,681.212 369.312,681.514 368.949,681.809 368.58,682.098 368.206,682.38 367.828,682.656 367.444,682.926 367.057,683.188 366.664,683.445 366.268,683.694 365.867,683.936 365.462,684.172 365.053,684.4 364.64,684.621 364.223,684.835 363.803,685.042 363.379,685.242 362.952,685.434 362.521,685.619 362.088,685.796 361.651,685.966 361.212,686.129 360.769,686.283 360.325,686.43 359.877,686.57 359.428,686.701 358.976,686.825 358.522,686.941 358.066,687.05 357.609,687.15 357.149,687.242 356.688,687.327 356.226,687.403 355.763,687.472 355.298,687.532 354.833,687.585 354.366,687.629 353.899,687.665 353.432,687.694 352.964,687.714 352.495,687.726 352.027,687.73 132.786,687.73 132.318,687.726 131.85,687.714 131.381,687.694 130.914,687.665 130.447,687.629 129.98,687.585 129.515,687.532 129.05,687.472 128.587,687.403 128.125,687.327 127.664,687.242 127.205,687.15 126.747,687.05 126.291,686.941 125.837,686.825 125.385,686.701 124.936,686.57 124.489,686.43 124.044,686.283 123.602,686.129 123.162,685.966 122.726,685.796 122.292,685.619 121.861,685.434 121.434,685.242 121.01,685.042 120.59,684.835 120.173,684.621 119.761,684.4 119.351,684.172 118.946,683.936 118.546,683.694 118.149,683.445 117.757,683.188 117.369,682.926 116.985,682.656 116.607,682.38 116.233,682.098 115.864,681.809 115.501,681.514 115.142,681.212 114.789,680.904 114.441,680.591 114.098,680.271 113.761,679.946 113.43,679.614 113.105,679.277 112.785,678.935 112.471,678.587 112.164,678.234 111.862,677.875 111.567,677.511 111.278,677.143 110.996,676.769 110.719,676.39 110.45,676.007 110.187,675.619 109.931,675.227 109.682,674.83 109.44,674.429 109.204,674.024 108.976,673.615 108.755,673.202 108.54,672.786 108.333,672.365 108.134,671.941 107.942,671.514 107.757,671.084 107.579,670.65 107.409,670.214 107.247,669.774 107.092,669.332 106.945,668.887 106.806,668.44 106.674,667.99 106.55,667.539 106.434,667.085 106.326,666.629 106.226,666.171 106.134,665.712 106.049,665.251 105.973,664.789 105.904,664.325 105.844,663.861 105.791,663.395 105.747,662.929 105.71,662.462 105.682,661.994 105.662,661.526 105.65,661.058 105.646,660.589 105.646,106.709 105.65,106.24 105.662,105.772 105.682,105.304 105.71,104.836 105.747,104.369 105.791,103.903 105.844,103.437 105.904,102.973 105.973,102.509 106.049,102.047 106.134,101.586 106.226,101.127 106.326,100.669 106.434,100.214 106.55,99.76 106.674,99.308 106.806,98.858 106.945,98.411 107.092,97.966 107.247,97.524 107.409,97.085 107.579,96.648 107.757,96.214 107.942,95.784 108.134,95.357 108.333,94.933 108.54,94.513 108.755,94.096 108.976,93.683 109.204,93.274 109.44,92.869 109.682,92.468 109.931,92.071 110.187,91.679 110.45,91.291 110.719,90.908 110.996,90.529 111.278,90.156 111.567,89.787 111.862,89.423 112.164,89.064 112.471,88.711 112.785,88.363 113.105,88.021 113.43,87.684 113.761,87.353 114.098,87.027 114.441,86.707 114.789,86.394 115.142,86.086 115.501,85.785 115.864,85.489 116.233,85.2 116.607,84.918 116.985,84.642 117.369,84.372 117.757,84.11 118.149,83.854 118.546,83.604 118.946,83.362 119.351,83.127 119.761,82.898 120.173,82.677 120.59,82.463 121.01,82.256 121.434,82.056 121.861,81.864 122.292,81.679 122.726,81.502 123.162,81.332 123.602,81.169 124.044,81.015 124.489,80.868 124.936,80.728 125.385,80.597 125.837,80.473 126.291,80.357 126.747,80.249 127.205,80.148 127.664,80.056 128.125,79.971 128.587,79.895 129.05,79.826 129.515,79.766 129.98,79.714 130.447,79.669 130.914,79.633 131.381,79.605 131.85,79.584 132.318,79.572 132.786,79.568 352.027,79.568 352.495,79.572 352.964,79.584 353.432,79.605 353.899,79.633 354.366,79.669 "
   id="polygon324"
   transform="translate(-97.285,-69.285)"
   style="stroke:#000000;stroke-opacity:1" /><polyline
   fill="none"
   stroke="#00b9d2"
   stroke-width="2.75"
   stroke-linecap="round"
   stroke-linejoin="round"
   stroke-miterlimit="10"
   points="    98.91,668.522 98.914,669.018 98.927,669.513 98.948,670.008 98.978,670.503 99.017,670.997 99.063,671.491 99.119,671.983     99.183,672.474 99.255,672.965 99.336,673.454 99.426,673.941 99.523,674.427 99.629,674.911 99.744,675.393 99.867,675.873     99.998,676.351 100.137,676.827 100.284,677.3 100.44,677.771 100.604,678.238 100.775,678.703 100.955,679.165 101.143,679.624     101.338,680.079 101.542,680.531 101.753,680.979 101.972,681.424 102.198,681.865 102.432,682.302 102.674,682.734     102.923,683.163 103.179,683.587 103.443,684.006 103.714,684.421 103.992,684.832 104.277,685.237 104.569,685.637     104.868,686.033 105.173,686.423 105.486,686.808 105.805,687.187 106.13,687.561 106.462,687.929 106.8,688.291 107.144,688.648     107.495,688.998 107.851,689.342 108.213,689.68 108.581,690.012 108.955,690.338 109.335,690.657 109.719,690.969     110.109,691.275 110.505,691.573 110.905,691.865 111.311,692.15 111.721,692.428 112.136,692.699 112.555,692.963     112.98,693.219 113.408,693.468 113.841,693.71 114.278,693.944 114.718,694.171 115.163,694.389 115.611,694.601     116.063,694.804 116.519,694.999 116.977,695.187 117.439,695.367 117.904,695.539 118.372,695.702 118.842,695.858     119.315,696.005 119.791,696.145 120.269,696.276 120.749,696.398 121.231,696.513 121.715,696.619 122.201,696.717     122.689,696.806 123.177,696.887 123.668,696.959 124.159,697.023 124.652,697.079 125.145,697.126 125.639,697.164     126.134,697.194 126.629,697.215 127.124,697.228 127.62,697.233 357.193,697.233 357.689,697.228 358.184,697.215     358.679,697.194 359.174,697.164 359.668,697.126 360.161,697.079 360.654,697.023 361.145,696.959 361.636,696.887     362.125,696.806 362.612,696.717 363.098,696.619 363.582,696.513 364.064,696.398 364.544,696.276 365.022,696.145     365.498,696.005 365.971,695.858 366.441,695.702 366.909,695.539 367.374,695.367 367.836,695.187 368.295,694.999     368.75,694.804 369.202,694.601 369.65,694.389 370.095,694.171 370.536,693.944 370.972,693.71 371.405,693.468 371.834,693.219     372.258,692.963 372.677,692.699 373.092,692.428 373.503,692.15 373.908,691.865 374.308,691.573 374.704,691.275     375.094,690.969 375.479,690.657 375.858,690.338 376.232,690.012 376.6,689.68 376.962,689.342 377.318,688.998 377.669,688.648     378.013,688.291 378.351,687.929 378.683,687.561 379.009,687.187 379.327,686.808 379.64,686.423 379.945,686.033     380.244,685.637 380.536,685.237 380.821,684.832 381.099,684.421 381.37,684.006 381.634,683.587 381.89,683.163     382.139,682.734 382.381,682.302 382.615,681.865 382.841,681.424 383.06,680.979 383.271,680.531 383.475,680.079     383.67,679.624 383.858,679.165 384.038,678.703 384.209,678.238 384.373,677.771 384.529,677.3 384.676,676.827 384.815,676.351     384.946,675.873 385.069,675.393 385.184,674.911 385.29,674.427 385.387,673.941 385.477,673.454 385.558,672.965     385.63,672.474 385.694,671.983 385.75,671.491 385.797,670.997 385.835,670.503 385.865,670.008 385.886,669.513     385.899,669.018 385.903,668.522   "
   id="polyline327"
   transform="translate(-97.285,-69.285)"
   style="stroke:#000000;stroke-opacity:1" /><polyline
   fill="none"
   stroke="#00b9d2"
   stroke-width="2.75"
   stroke-linecap="round"
   stroke-linejoin="round"
   stroke-miterlimit="10"
   points="    98.91,103.749 98.914,103.253 98.927,102.758 98.948,102.263 98.978,101.768 99.017,101.274 99.063,100.78 99.119,100.288     99.183,99.797 99.255,99.306 99.336,98.817 99.426,98.33 99.523,97.844 99.629,97.36 99.744,96.878 99.867,96.398 99.998,95.92     100.137,95.444 100.284,94.971 100.44,94.5 100.604,94.033 100.775,93.568 100.955,93.106 101.143,92.647 101.338,92.192     101.542,91.74 101.753,91.292 101.972,90.847 102.198,90.406 102.432,89.97 102.674,89.537 102.923,89.108 103.179,88.684     103.443,88.265 103.714,87.85 103.992,87.439 104.277,87.034 104.569,86.634 104.868,86.238 105.173,85.848 105.486,85.463     105.805,85.084 106.13,84.71 106.462,84.342 106.8,83.98 107.144,83.623 107.495,83.273 107.851,82.929 108.213,82.591     108.581,82.259 108.955,81.933 109.335,81.614 109.719,81.302 110.109,80.996 110.505,80.698 110.905,80.406 111.311,80.121     111.721,79.843 112.136,79.572 112.555,79.308 112.98,79.052 113.408,78.803 113.841,78.561 114.278,78.327 114.718,78.101     115.163,77.882 115.611,77.671 116.063,77.467 116.519,77.272 116.977,77.084 117.439,76.904 117.904,76.732 118.372,76.569     118.842,76.413 119.315,76.266 119.791,76.126 120.269,75.995 120.749,75.873 121.231,75.758 121.715,75.652 122.201,75.554     122.689,75.465 123.177,75.384 123.668,75.312 124.159,75.248 124.652,75.192 125.145,75.145 125.639,75.107 126.134,75.077     126.629,75.056 127.124,75.043 127.62,75.038 357.193,75.038 357.689,75.043 358.184,75.056 358.679,75.077 359.174,75.107     359.668,75.145 360.161,75.192 360.654,75.248 361.145,75.312 361.636,75.384 362.125,75.465 362.612,75.554 363.098,75.652     363.582,75.758 364.064,75.873 364.544,75.995 365.022,76.126 365.498,76.266 365.971,76.413 366.441,76.569 366.909,76.732     367.374,76.904 367.836,77.084 368.295,77.272 368.75,77.467 369.202,77.671 369.65,77.882 370.095,78.101 370.536,78.327     370.972,78.561 371.405,78.803 371.834,79.052 372.258,79.308 372.677,79.572 373.092,79.843 373.503,80.121 373.908,80.406     374.308,80.698 374.704,80.996 375.094,81.302 375.479,81.614 375.858,81.933 376.232,82.259 376.6,82.591 376.962,82.929     377.318,83.273 377.669,83.623 378.013,83.98 378.351,84.342 378.683,84.71 379.009,85.084 379.327,85.463 379.64,85.848     379.945,86.238 380.244,86.634 380.536,87.034 380.821,87.439 381.099,87.85 381.37,88.265 381.634,88.684 381.89,89.108     382.139,89.537 382.381,89.97 382.615,90.406 382.841,90.847 383.06,91.292 383.271,91.74 383.475,92.192 383.67,92.647     383.858,93.106 384.038,93.568 384.209,94.033 384.373,94.5 384.529,94.971 384.676,95.444 384.815,95.92 384.946,96.398     385.069,96.878 385.184,97.36 385.29,97.844 385.387,98.33 385.477,98.817 385.558,99.306 385.63,99.797 385.694,100.288     385.75,100.78 385.797,101.274 385.835,101.768 385.865,102.263 385.886,102.758 385.899,103.253 385.903,103.749   "
   id="polyline330"
   transform="translate(-97.285,-69.285)"
   style="stroke:#000000;stroke-opacity:1" /><polygon
   fill="none"
   stroke="#00b9d2"
   stroke-width="2.75"
   stroke-linecap="round"
   stroke-linejoin="round"
   stroke-miterlimit="10"
   points="124.652,701.208 124.159,701.152 123.668,701.088 123.177,701.016 122.689,700.935 122.201,700.845 121.715,700.748 121.231,700.642 120.749,700.527 120.269,700.404 119.791,700.273 119.315,700.134 118.842,699.987 118.372,699.831 117.904,699.667 117.439,699.496 116.977,699.316 116.519,699.128 116.063,698.933 115.611,698.729 115.163,698.518 114.718,698.299 114.278,698.073 113.841,697.839 113.408,697.597 112.98,697.348 112.555,697.092 112.136,696.828 111.721,696.557 111.311,696.279 110.905,695.994 110.505,695.702 110.109,695.403 109.719,695.098 109.335,694.785 108.955,694.466 108.581,694.141 108.213,693.809 107.851,693.471 107.495,693.127 107.144,692.776 106.8,692.42 106.462,692.058 106.13,691.69 105.805,691.316 105.486,690.936 105.173,690.552 104.868,690.162 104.569,689.766 104.277,689.366 103.992,688.96 103.714,688.55 103.443,688.135 103.179,687.716 102.923,687.291 102.674,686.863 102.432,686.43 102.198,685.994 101.972,685.553 101.753,685.108 101.542,684.66 101.338,684.208 101.143,683.753 100.955,683.294 100.775,682.832 100.604,682.367 100.44,681.899 100.284,681.429 100.137,680.956 99.998,680.48 99.867,680.002 99.744,679.522 99.629,679.04 99.523,678.556 99.426,678.07 99.336,677.582 99.255,677.094 99.183,676.603 99.119,676.112 99.063,675.619 99.017,675.126 98.978,674.632 98.948,674.137 98.927,673.642 98.914,673.147 98.91,672.651 98.91,99.62 98.914,99.124 98.927,98.629 98.948,98.134 98.978,97.639 99.017,97.145 99.063,96.652 99.119,96.159 99.183,95.668 99.255,95.177 99.336,94.689 99.426,94.201 99.523,93.715 99.629,93.231 99.744,92.749 99.867,92.269 99.998,91.791 100.137,91.315 100.284,90.842 100.44,90.372 100.604,89.904 100.775,89.439 100.955,88.977 101.143,88.519 101.338,88.063 101.542,87.611 101.753,87.163 101.972,86.718 102.198,86.278 102.432,85.841 102.674,85.408 102.923,84.98 103.179,84.555 103.443,84.136 103.714,83.721 103.992,83.311 104.277,82.905 104.569,82.505 104.868,82.109 105.173,81.719 105.486,81.335 105.805,80.955 106.13,80.581 106.462,80.213 106.8,79.851 107.144,79.495 107.495,79.144 107.851,78.8 108.213,78.462 108.581,78.13 108.955,77.805 109.335,77.486 109.719,77.173 110.109,76.868 110.505,76.569 110.905,76.277 111.311,75.992 111.721,75.714 112.136,75.443 112.555,75.179 112.98,74.923 113.408,74.674 113.841,74.432 114.278,74.198 114.718,73.972 115.163,73.753 115.611,73.542 116.063,73.338 116.519,73.143 116.977,72.955 117.439,72.775 117.904,72.604 118.372,72.44 118.842,72.284 119.315,72.137 119.791,71.998 120.269,71.867 120.749,71.744 121.231,71.629 121.715,71.523 122.201,71.426 122.689,71.336 123.177,71.255 123.668,71.183 124.159,71.119 124.652,71.063 125.145,71.017 125.639,70.978 126.134,70.948 126.629,70.927 127.124,70.914 127.62,70.91 357.193,70.91 357.689,70.914 358.184,70.927 358.679,70.948 359.174,70.978 359.668,71.017 360.161,71.063 360.654,71.119 361.145,71.183 361.636,71.255 362.125,71.336 362.612,71.426 363.098,71.523 363.582,71.629 364.064,71.744 364.544,71.867 365.022,71.998 365.498,72.137 365.971,72.284 366.441,72.44 366.909,72.604 367.374,72.775 367.836,72.955 368.295,73.143 368.75,73.338 369.202,73.542 369.65,73.753 370.095,73.972 370.536,74.198 370.972,74.432 371.405,74.674 371.834,74.923 372.258,75.179 372.677,75.443 373.092,75.714 373.503,75.992 373.908,76.277 374.308,76.569 374.704,76.868 375.094,77.173 375.479,77.486 375.858,77.805 376.232,78.13 376.6,78.462 376.962,78.8 377.318,79.144 377.669,79.495 378.013,79.851 378.351,80.213 378.683,80.581 379.009,80.955 379.327,81.335 379.64,81.719 379.945,82.109 380.244,82.505 380.536,82.905 380.821,83.311 381.099,83.721 381.37,84.136 381.634,84.555 381.89,84.98 382.139,85.408 382.381,85.841 382.615,86.278 382.841,86.718 383.06,87.163 383.271,87.611 383.475,88.063 383.67,88.519 383.858,88.977 384.038,89.439 384.209,89.904 384.373,90.372 384.529,90.842 384.676,91.315 384.815,91.791 384.946,92.269 385.069,92.749 385.184,93.231 385.29,93.715 385.387,94.201 385.477,94.689 385.558,95.177 385.63,95.668 385.694,96.159 385.75,96.652 385.797,97.145 385.835,97.639 385.865,98.134 385.886,98.629 385.899,99.124 385.903,99.62 385.903,672.651 385.899,673.147 385.886,673.642 385.865,674.137 385.835,674.632 385.797,675.126 385.75,675.619 385.694,676.112 385.63,676.603 385.558,677.094 385.477,677.582 385.387,678.07 385.29,678.556 385.184,679.04 385.069,679.522 384.946,680.002 384.815,680.48 384.676,680.956 384.529,681.429 384.373,681.899 384.209,682.367 384.038,682.832 383.858,683.294 383.67,683.753 383.475,684.208 383.271,684.66 383.06,685.108 382.841,685.553 382.615,685.994 382.381,686.43 382.139,686.863 381.89,687.291 381.634,687.716 381.37,688.135 381.099,688.55 380.821,688.96 380.536,689.366 380.244,689.766 379.945,690.162 379.64,690.552 379.327,690.936 379.009,691.316 378.683,691.69 378.351,692.058 378.013,692.42 377.669,692.776 377.318,693.127 376.962,693.471 376.6,693.809 376.232,694.141 375.858,694.466 375.479,694.785 375.094,695.098 374.704,695.403 374.308,695.702 373.908,695.994 373.503,696.279 373.092,696.557 372.677,696.828 372.258,697.092 371.834,697.348 371.405,697.597 370.972,697.839 370.536,698.073 370.095,698.299 369.65,698.518 369.202,698.729 368.75,698.933 368.295,699.128 367.836,699.316 367.374,699.496 366.909,699.667 366.441,699.831 365.971,699.987 365.498,700.134 365.022,700.273 364.544,700.404 364.064,700.527 363.582,700.642 363.098,700.748 362.612,700.845 362.125,700.935 361.636,701.016 361.145,701.088 360.654,701.152 360.161,701.208 359.668,701.255 359.174,701.293 358.679,701.323 358.184,701.344 357.689,701.357 357.193,701.361 127.62,701.361 127.124,701.357 126.629,701.344 126.134,701.323 125.639,701.293 125.145,701.255 "
   id="polygon333"
   transform="translate(-97.285,-69.285)"
   style="stroke:#000000;stroke-opacity:1" />
<polygon
   fill="none"
   stroke="#00b9d2"
   stroke-width="3.25"
   stroke-linecap="round"
   stroke-linejoin="round"
   stroke-miterlimit="10"
   points="385.859,98.017 385.839,97.692 385.815,97.367 385.787,97.04 385.756,96.712 385.72,96.384 385.681,96.054 385.638,95.724 385.591,95.393 385.539,95.061 385.484,94.729 385.424,94.396 385.36,94.062 385.292,93.728 385.22,93.394 385.144,93.059 385.063,92.725 384.978,92.39 384.889,92.055 384.795,91.72 384.697,91.385 384.595,91.051 384.488,90.716 384.377,90.382 384.261,90.049 384.141,89.716 384.017,89.383 383.888,89.052 383.754,88.721 383.616,88.391 383.474,88.062 383.327,87.734 383.176,87.407 383.021,87.081 382.861,86.756 382.696,86.433 382.527,86.112 382.354,85.792 382.176,85.473 381.994,85.157 381.808,84.842 381.617,84.529 381.423,84.218 381.224,83.909 381.02,83.603 380.813,83.298 380.601,82.996 380.385,82.697 380.166,82.399 379.942,82.105 379.714,81.813 379.482,81.524 379.247,81.238 379.008,80.954 378.764,80.674 378.518,80.396 378.267,80.122 378.013,79.851 377.755,79.583 377.494,79.319 377.23,79.058 376.962,78.8 376.691,78.546 376.417,78.295 376.139,78.049 375.859,77.805 375.576,77.566 375.289,77.331 375,77.099 374.708,76.871 374.414,76.647 374.117,76.428 373.817,76.212 373.515,76 373.21,75.793 372.904,75.59 372.595,75.39 372.284,75.196 371.971,75.005 371.656,74.819 371.34,74.637 371.021,74.459 370.701,74.286 370.38,74.117 370.057,73.953 369.732,73.793 369.406,73.637 369.079,73.486 368.751,73.339 368.422,73.197 368.092,73.059 367.761,72.925 367.43,72.797 367.097,72.672 366.764,72.552 366.431,72.436 366.097,72.325 365.762,72.218 365.428,72.116 365.093,72.018 364.758,71.924 364.423,71.835 364.088,71.75 363.754,71.669 363.419,71.593 363.085,71.521 362.751,71.453 362.417,71.389 362.084,71.329 361.752,71.274 361.42,71.223 361.089,71.175 360.759,71.132 360.429,71.093 360.101,71.057 359.773,71.026 359.446,70.998 359.121,70.974 358.796,70.954 358.473,70.938 358.151,70.926 357.831,70.917 357.511,70.911 357.193,70.91 127.62,70.91 127.302,70.911 126.983,70.917 126.662,70.926 126.34,70.938 126.017,70.954 125.692,70.974 125.367,70.998 125.04,71.026 124.712,71.057 124.384,71.093 124.054,71.132 123.724,71.175 123.393,71.223 123.061,71.274 122.729,71.329 122.396,71.389 122.062,71.453 121.728,71.521 121.394,71.593 121.059,71.669 120.725,71.75 120.39,71.835 120.055,71.924 119.72,72.018 119.385,72.116 119.051,72.218 118.716,72.325 118.382,72.436 118.049,72.552 117.716,72.672 117.383,72.797 117.052,72.925 116.721,73.059 116.391,73.197 116.062,73.339 115.734,73.486 115.407,73.637 115.081,73.793 114.756,73.953 114.433,74.117 114.112,74.286 113.792,74.459 113.473,74.637 113.157,74.819 112.842,75.005 112.529,75.196 112.218,75.39 111.909,75.59 111.603,75.793 111.298,76 110.996,76.212 110.697,76.428 110.399,76.647 110.105,76.871 109.813,77.099 109.524,77.331 109.238,77.566 108.954,77.805 108.674,78.049 108.396,78.295 108.122,78.546 107.851,78.8 107.583,79.058 107.319,79.319 107.058,79.583 106.8,79.851 106.546,80.122 106.295,80.396 106.049,80.674 105.805,80.954 105.566,81.238 105.331,81.524 105.099,81.813 104.871,82.105 104.647,82.399 104.428,82.697 104.212,82.996 104,83.298 103.793,83.603 103.59,83.909 103.39,84.218 103.196,84.529 103.005,84.842 102.819,85.157 102.637,85.473 102.459,85.792 102.286,86.112 102.117,86.433 101.953,86.756 101.793,87.081 101.637,87.407 101.486,87.734 101.339,88.062 101.197,88.391 101.059,88.721 100.925,89.052 100.797,89.383 100.672,89.716 100.552,90.049 100.436,90.382 100.325,90.716 100.218,91.051 100.116,91.385 100.018,91.72 99.924,92.055 99.835,92.39 99.75,92.725 99.669,93.059 99.593,93.394 99.521,93.728 99.453,94.062 99.389,94.396 99.329,94.729 99.274,95.061 99.223,95.393 99.175,95.724 99.132,96.054 99.093,96.384 99.057,96.712 99.026,97.04 98.998,97.367 98.974,97.692 98.954,98.017 98.938,98.34 98.926,98.662 98.917,98.983 98.911,99.302 98.91,99.62 98.91,103.749 98.91,672.651 98.911,672.969 98.917,673.289 98.926,673.609 98.938,673.931 98.954,674.254 98.974,674.579 98.998,674.904 99.026,675.231 99.057,675.559 99.093,675.887 99.132,676.217 99.175,676.547 99.223,676.878 99.274,677.21 99.329,677.542 99.389,677.875 99.453,678.209 99.521,678.543 99.593,678.877 99.669,679.212 99.75,679.546 99.835,679.881 99.924,680.216 100.018,680.551 100.116,680.886 100.218,681.22 100.325,681.555 100.436,681.889 100.552,682.222 100.672,682.555 100.797,682.888 100.925,683.219 101.059,683.55 101.197,683.88 101.339,684.209 101.486,684.537 101.637,684.864 101.793,685.19 101.953,685.515 102.117,685.838 102.286,686.159 102.459,686.479 102.637,686.798 102.819,687.114 103.005,687.429 103.196,687.742 103.39,688.053 103.59,688.362 103.793,688.668 104,688.973 104.212,689.275 104.428,689.574 104.647,689.872 104.871,690.166 105.099,690.458 105.331,690.747 105.566,691.034 105.805,691.317 106.049,691.597 106.295,691.875 106.546,692.149 106.8,692.42 107.058,692.688 107.319,692.952 107.583,693.213 107.851,693.471 108.122,693.725 108.396,693.976 108.674,694.222 108.954,694.466 109.238,694.705 109.524,694.94 109.813,695.172 110.105,695.4 110.399,695.624 110.697,695.843 110.996,696.059 111.298,696.271 111.603,696.478 111.909,696.682 112.218,696.881 112.529,697.075 112.842,697.266 113.157,697.452 113.473,697.634 113.792,697.812 114.112,697.985 114.433,698.154 114.756,698.318 115.081,698.479 115.407,698.634 115.734,698.785 116.062,698.932 116.391,699.074 116.721,699.212 117.052,699.346 117.383,699.475 117.716,699.599 118.049,699.719 118.382,699.835 118.716,699.946 119.051,700.053 119.385,700.155 119.72,700.253 120.055,700.347 120.39,700.436 120.725,700.521 121.059,700.602 121.394,700.678 121.728,700.75 122.062,700.818 122.396,700.882 122.729,700.942 123.061,700.997 123.393,701.049 123.724,701.096 124.054,701.139 124.384,701.178 124.712,701.214 125.04,701.245 125.367,701.273 125.692,701.297 126.017,701.317 126.34,701.333 126.662,701.345 126.983,701.354 127.302,701.36 127.62,701.361 357.193,701.361 357.511,701.36 357.831,701.354 358.151,701.345 358.473,701.333 358.796,701.317 359.121,701.297 359.446,701.273 359.773,701.245 360.101,701.214 360.429,701.178 360.759,701.139 361.089,701.096 361.42,701.049 361.752,700.997 362.084,700.942 362.417,700.882 362.751,700.818 363.085,700.75 363.419,700.678 363.754,700.602 364.088,700.521 364.423,700.436 364.758,700.347 365.093,700.253 365.428,700.155 365.762,700.053 366.097,699.946 366.431,699.835 366.764,699.719 367.097,699.599 367.43,699.475 367.761,699.346 368.092,699.212 368.422,699.074 368.751,698.932 369.079,698.785 369.406,698.634 369.732,698.479 370.057,698.318 370.38,698.154 370.701,697.985 371.021,697.812 371.34,697.634 371.656,697.452 371.971,697.266 372.284,697.075 372.595,696.881 372.904,696.682 373.21,696.478 373.515,696.271 373.817,696.059 374.117,695.843 374.414,695.624 374.708,695.4 375,695.172 375.289,694.94 375.576,694.705 375.859,694.466 376.139,694.222 376.417,693.976 376.691,693.725 376.962,693.471 377.23,693.213 377.494,692.952 377.755,692.688 378.013,692.42 378.267,692.149 378.518,691.875 378.764,691.597 379.008,691.317 379.247,691.034 379.482,690.747 379.714,690.458 379.942,690.166 380.166,689.872 380.385,689.574 380.601,689.275 380.813,688.973 381.02,688.668 381.224,688.362 381.423,688.053 381.617,687.742 381.808,687.429 381.994,687.114 382.176,686.798 382.354,686.479 382.527,686.159 382.696,685.838 382.861,685.515 383.021,685.19 383.176,684.864 383.327,684.537 383.474,684.209 383.616,683.88 383.754,683.55 383.888,683.219 384.017,682.888 384.141,682.555 384.261,682.222 384.377,681.889 384.488,681.555 384.595,681.22 384.697,680.886 384.795,680.551 384.889,680.216 384.978,679.881 385.063,679.546 385.144,679.212 385.22,678.877 385.292,678.543 385.36,678.209 385.424,677.875 385.484,677.542 385.539,677.21 385.591,676.878 385.638,676.547 385.681,676.217 385.72,675.887 385.756,675.559 385.787,675.231 385.815,674.904 385.839,674.579 385.859,674.254 385.875,673.931 385.887,673.609 385.896,673.289 385.902,672.969 385.903,672.651 385.903,668.522 385.903,333.243 388.824,333.243 388.824,294.176 385.903,294.176 385.903,255.774 388.824,255.774 388.824,180.636 385.903,180.636 385.903,99.62 385.902,99.302 385.896,98.983 385.887,98.662 385.875,98.34 "
   id="polygon352"
   transform="translate(-97.285,-69.285)"
   style="stroke:#000000;stroke-opacity:1" />
</svg>
