<?xml version="1.0" encoding="UTF-8" standalone="no"?>
<svg
   xmlns:ns="&amp;#38;ns_sfw;"
   xmlns:dc="http://purl.org/dc/elements/1.1/"
   xmlns:cc="http://creativecommons.org/ns#"
   xmlns:rdf="http://www.w3.org/1999/02/22-rdf-syntax-ns#"
   xmlns:svg="http://www.w3.org/2000/svg"
   xmlns="http://www.w3.org/2000/svg"
   xmlns:sodipodi="http://sodipodi.sourceforge.net/DTD/sodipodi-0.dtd"
   xmlns:inkscape="http://www.inkscape.org/namespaces/inkscape"
   version="1.1"
   x="0px"
   y="0px"
   viewBox="0 0 295.742 639.302"
   enable-background="new 0 0 1000 800"
   xml:space="preserve"
   id="svg361"
   sodipodi:docname="s20_ultra.svg"
   inkscape:version="1.0.1 (3bc2e813f5, 2020-09-07)"
   width="295.742"
   height="639.302"><defs
   id="defs365">
	
	
	

	
	
	
	
	
	
	
	
	
	
	
	
	
	
	
	
	
	
	
	
	
	
	
	
	
	
	

	
	
	
	
	
	



		
			
	
		
			
	
		
			
	
		
			
	
		
			
	
		
			
	
		
			
	
		
			
	
		
			
	
		
			
	
		
			
	
		
			
	
		
			
	
		
			
	
		
			
	
		
			
	
		
			
	
		
			
	
		
			
	
		
			
	
		
			
	
		
			
	
		
			
	
		
			
	
		
			
	
		
			
	
		
			
	
		
			
	
		
			
	
		
			
	
		
			
	
		
			
	
		
			
	
		
	
		
	
		
	</defs><sodipodi:namedview
   pagecolor="#ffffff"
   bordercolor="#666666"
   borderopacity="1"
   objecttolerance="10"
   gridtolerance="10"
   guidetolerance="10"
   inkscape:pageopacity="0"
   inkscape:pageshadow="2"
   inkscape:window-width="1920"
   inkscape:window-height="1001"
   id="namedview363"
   showgrid="false"
   inkscape:zoom="1.04125"
   inkscape:cx="404.826"
   inkscape:cy="334.82936"
   inkscape:window-x="-9"
   inkscape:window-y="-9"
   inkscape:window-maximized="1"
   inkscape:current-layer="svg361"
   inkscape:document-rotation="0" />
<metadata
   id="metadata2">
	<ns:sfw>
		<ns:slices />
		<ns:sliceSourceBounds
   bottomLeftOrigin="true"
   height="11789.401"
   width="3212.295"
   x="-3241.446"
   y="-3017.527">
			</ns:sliceSourceBounds>
	</ns:sfw>
<rdf:RDF><cc:Work
     rdf:about=""><dc:format>image/svg+xml</dc:format><dc:type
       rdf:resource="http://purl.org/dc/dcmitype/StillImage" /><dc:title /></cc:Work></rdf:RDF></metadata>

<g
   id="N-DIMENSIONS"
   display="none"
   transform="translate(-95.174,-70.174)">
	<g
   display="inline"
   id="g128">
		<g
   id="g19">
			<g
   id="g17">
				<path
   fill="#00b9d2"
   d="m 127.925,115.173 c -0.66,-0.324 -1.164,-0.747 -1.513,-1.27 -0.348,-0.521 -0.534,-1.083 -0.558,-1.683 v -0.036 c 0,-0.096 0.036,-0.174 0.107,-0.234 0.072,-0.06 0.156,-0.09 0.253,-0.09 h 0.882 c 0.252,0 0.414,0.133 0.485,0.396 0.181,0.647 0.514,1.131 0.999,1.448 0.486,0.318 1.047,0.478 1.684,0.478 0.815,0 1.494,-0.249 2.034,-0.747 0.539,-0.498 0.81,-1.185 0.81,-2.061 0,-0.805 -0.271,-1.443 -0.81,-1.918 -0.54,-0.474 -1.219,-0.711 -2.034,-0.711 -0.433,0 -0.78,0.055 -1.044,0.162 -0.265,0.108 -0.534,0.265 -0.811,0.469 -0.156,0.12 -0.285,0.207 -0.387,0.261 -0.103,0.054 -0.213,0.081 -0.333,0.081 h -0.864 c -0.107,0 -0.204,-0.039 -0.288,-0.117 -0.084,-0.078 -0.12,-0.171 -0.107,-0.279 l 0.558,-5.994 c 0.036,-0.3 0.186,-0.45 0.45,-0.45 h 6.228 c 0.132,0 0.234,0.036 0.307,0.108 0.071,0.072 0.107,0.174 0.107,0.306 v 0.666 c 0,0.12 -0.039,0.216 -0.117,0.288 -0.078,0.072 -0.177,0.108 -0.297,0.108 h -5.184 l -0.324,3.618 c 0.576,-0.408 1.351,-0.612 2.322,-0.612 0.804,0 1.536,0.159 2.196,0.478 0.659,0.317 1.185,0.782 1.574,1.395 0.391,0.612 0.585,1.338 0.585,2.178 0,0.889 -0.194,1.653 -0.585,2.295 -0.39,0.643 -0.93,1.129 -1.619,1.458 -0.69,0.33 -1.479,0.495 -2.367,0.495 -0.9,0 -1.68,-0.162 -2.339,-0.486 z"
   id="path5" />
				<path
   fill="#00b9d2"
   d="m 140.074,115.362 c -0.071,-0.078 -0.107,-0.177 -0.107,-0.297 v -10.152 l -3.024,2.322 c -0.084,0.072 -0.174,0.108 -0.27,0.108 -0.108,0 -0.21,-0.061 -0.307,-0.181 l -0.432,-0.558 c -0.061,-0.084 -0.09,-0.168 -0.09,-0.252 0,-0.132 0.06,-0.24 0.18,-0.324 l 3.906,-3.024 c 0.132,-0.083 0.288,-0.126 0.468,-0.126 h 0.846 c 0.12,0 0.219,0.039 0.298,0.117 0.077,0.078 0.116,0.177 0.116,0.297 v 11.772 c 0,0.12 -0.039,0.219 -0.116,0.297 -0.079,0.078 -0.178,0.117 -0.298,0.117 h -0.882 c -0.12,0.001 -0.216,-0.038 -0.288,-0.116 z"
   id="path7" />
				<path
   fill="#00b9d2"
   d="m 147.724,115.362 c -0.071,-0.078 -0.107,-0.177 -0.107,-0.297 v -10.152 l -3.024,2.322 c -0.084,0.072 -0.174,0.108 -0.27,0.108 -0.108,0 -0.21,-0.061 -0.307,-0.181 l -0.432,-0.558 c -0.061,-0.084 -0.09,-0.168 -0.09,-0.252 0,-0.132 0.06,-0.24 0.18,-0.324 l 3.906,-3.024 c 0.132,-0.083 0.288,-0.126 0.468,-0.126 h 0.846 c 0.12,0 0.219,0.039 0.298,0.117 0.077,0.078 0.116,0.177 0.116,0.297 v 11.772 c 0,0.12 -0.039,0.219 -0.116,0.297 -0.079,0.078 -0.178,0.117 -0.298,0.117 h -0.882 c -0.12,0.001 -0.216,-0.038 -0.288,-0.116 z"
   id="path9" />
				<path
   fill="#00b9d2"
   d="m 156.607,118.791 c -0.078,-0.071 -0.117,-0.174 -0.117,-0.306 v -11.952 c 0,-0.132 0.039,-0.233 0.117,-0.306 0.077,-0.072 0.177,-0.108 0.297,-0.108 h 0.756 c 0.132,0 0.234,0.036 0.306,0.108 0.072,0.072 0.108,0.174 0.108,0.306 v 0.792 c 0.695,-0.924 1.686,-1.386 2.97,-1.386 1.26,0 2.205,0.399 2.835,1.197 0.63,0.798 0.963,1.815 0.999,3.051 0.012,0.132 0.019,0.336 0.019,0.612 0,0.275 -0.007,0.479 -0.019,0.611 -0.036,1.225 -0.369,2.238 -0.999,3.042 -0.63,0.805 -1.575,1.206 -2.835,1.206 -1.284,0 -2.256,-0.456 -2.916,-1.368 v 4.194 c 0,0.12 -0.039,0.219 -0.117,0.297 -0.078,0.078 -0.177,0.117 -0.297,0.117 h -0.81 c -0.12,0.001 -0.219,-0.035 -0.297,-0.107 z m 5.985,-5.346 c 0.396,-0.54 0.612,-1.248 0.648,-2.124 0.012,-0.119 0.018,-0.294 0.018,-0.521 0,-2.305 -0.852,-3.456 -2.556,-3.456 -0.84,0 -1.474,0.278 -1.899,0.837 -0.426,0.558 -0.65,1.215 -0.675,1.971 -0.012,0.132 -0.018,0.366 -0.018,0.702 0,0.336 0.006,0.57 0.018,0.702 0.024,0.731 0.255,1.365 0.693,1.898 0.438,0.534 1.064,0.802 1.881,0.802 0.864,-0.001 1.494,-0.271 1.89,-0.811 z"
   id="path11" />
				<path
   fill="#00b9d2"
   d="m 167.299,118.791 c -0.078,-0.071 -0.117,-0.174 -0.117,-0.306 v -11.952 c 0,-0.132 0.039,-0.233 0.117,-0.306 0.077,-0.072 0.177,-0.108 0.297,-0.108 h 0.756 c 0.132,0 0.234,0.036 0.306,0.108 0.072,0.072 0.108,0.174 0.108,0.306 v 0.792 c 0.695,-0.924 1.686,-1.386 2.97,-1.386 1.26,0 2.205,0.399 2.835,1.197 0.63,0.798 0.963,1.815 0.999,3.051 0.012,0.132 0.019,0.336 0.019,0.612 0,0.275 -0.007,0.479 -0.019,0.611 -0.036,1.225 -0.369,2.238 -0.999,3.042 -0.63,0.805 -1.575,1.206 -2.835,1.206 -1.284,0 -2.256,-0.456 -2.916,-1.368 v 4.194 c 0,0.12 -0.039,0.219 -0.117,0.297 -0.078,0.078 -0.177,0.117 -0.297,0.117 h -0.81 c -0.12,0.001 -0.22,-0.035 -0.297,-0.107 z m 5.984,-5.346 c 0.396,-0.54 0.612,-1.248 0.648,-2.124 0.012,-0.119 0.018,-0.294 0.018,-0.521 0,-2.305 -0.852,-3.456 -2.556,-3.456 -0.84,0 -1.474,0.278 -1.899,0.837 -0.426,0.558 -0.65,1.215 -0.675,1.971 -0.012,0.132 -0.018,0.366 -0.018,0.702 0,0.336 0.006,0.57 0.018,0.702 0.024,0.731 0.255,1.365 0.693,1.898 0.438,0.534 1.064,0.802 1.881,0.802 0.865,-0.001 1.495,-0.271 1.89,-0.811 z"
   id="path13" />
				<path
   fill="#00b9d2"
   d="m 177.829,104.238 c -0.078,-0.078 -0.117,-0.177 -0.117,-0.297 v -0.936 c 0,-0.12 0.039,-0.222 0.117,-0.306 0.078,-0.084 0.177,-0.126 0.297,-0.126 h 1.062 c 0.12,0 0.223,0.042 0.307,0.126 0.084,0.084 0.126,0.186 0.126,0.306 v 0.936 c 0,0.12 -0.042,0.219 -0.126,0.297 -0.084,0.079 -0.187,0.117 -0.307,0.117 h -1.062 c -0.12,0 -0.219,-0.039 -0.297,-0.117 z m 0.144,11.124 c -0.078,-0.078 -0.117,-0.177 -0.117,-0.297 v -8.532 c 0,-0.119 0.039,-0.219 0.117,-0.297 0.078,-0.078 0.177,-0.117 0.297,-0.117 h 0.792 c 0.12,0 0.219,0.039 0.297,0.117 0.078,0.078 0.117,0.178 0.117,0.297 v 8.532 c 0,0.12 -0.039,0.219 -0.117,0.297 -0.078,0.078 -0.177,0.117 -0.297,0.117 h -0.792 c -0.121,0 -0.219,-0.039 -0.297,-0.117 z"
   id="path15" />
			</g>
		</g>
		<g
   id="g64">
			<g
   id="MTEXT_31_">
				<g
   id="g47">
					<g
   id="g45">
						<g
   id="g43">
							<path
   fill="#00b9d2"
   d="m 247.021,374.074 c -0.702,-0.39 -1.236,-0.915 -1.603,-1.575 -0.366,-0.659 -0.549,-1.379 -0.549,-2.159 0,-1.032 0.414,-2.136 1.242,-3.312 l 3.438,-4.788 c 0.013,-0.012 0.046,-0.054 0.1,-0.126 0.054,-0.072 0.123,-0.128 0.207,-0.171 0.084,-0.042 0.18,-0.063 0.288,-0.063 h 0.882 c 0.108,0 0.194,0.039 0.261,0.117 0.067,0.078 0.1,0.171 0.1,0.279 0,0.06 -0.03,0.138 -0.091,0.234 l -2.628,3.672 c 0.312,-0.072 0.66,-0.108 1.044,-0.108 0.876,0 1.647,0.195 2.313,0.585 0.666,0.391 1.182,0.906 1.548,1.548 0.366,0.643 0.549,1.348 0.549,2.115 0,0.769 -0.183,1.485 -0.549,2.151 -0.366,0.666 -0.897,1.197 -1.593,1.593 -0.696,0.396 -1.519,0.594 -2.466,0.594 -0.961,-0.001 -1.791,-0.196 -2.493,-0.586 z m 3.932,-1.233 c 0.444,-0.216 0.798,-0.537 1.062,-0.963 0.264,-0.426 0.396,-0.939 0.396,-1.539 0,-0.588 -0.135,-1.096 -0.405,-1.521 -0.27,-0.426 -0.627,-0.75 -1.07,-0.972 -0.444,-0.222 -0.925,-0.333 -1.44,-0.333 -0.515,0 -0.996,0.111 -1.439,0.333 -0.444,0.222 -0.799,0.546 -1.062,0.972 -0.263,0.426 -0.396,0.934 -0.396,1.521 0,0.6 0.132,1.113 0.396,1.539 0.264,0.426 0.618,0.747 1.062,0.963 0.443,0.216 0.924,0.323 1.439,0.323 0.527,0.001 1.013,-0.107 1.457,-0.323 z"
   id="path21" />
							<path
   fill="#00b9d2"
   d="m 256.128,374.362 c -0.078,-0.078 -0.117,-0.177 -0.117,-0.297 v -1.242 c 0,-0.119 0.039,-0.222 0.117,-0.306 0.078,-0.084 0.177,-0.126 0.297,-0.126 h 1.242 c 0.12,0 0.219,0.042 0.297,0.126 0.078,0.084 0.117,0.187 0.117,0.306 v 1.242 c 0,0.12 -0.039,0.219 -0.117,0.297 -0.078,0.078 -0.177,0.117 -0.297,0.117 h -1.242 c -0.12,0 -0.219,-0.039 -0.297,-0.117 z"
   id="path23" />
							<path
   fill="#00b9d2"
   d="m 261.709,374.362 c -0.066,-0.078 -0.1,-0.171 -0.1,-0.279 0,-0.083 0.024,-0.161 0.072,-0.233 l 2.771,-3.853 c -0.287,0.072 -0.624,0.108 -1.008,0.108 -0.864,-0.012 -1.62,-0.213 -2.268,-0.603 -0.648,-0.391 -1.144,-0.9 -1.485,-1.53 -0.341,-0.63 -0.513,-1.305 -0.513,-2.025 0,-0.72 0.171,-1.403 0.513,-2.052 0.342,-0.648 0.853,-1.176 1.53,-1.584 0.678,-0.408 1.497,-0.612 2.457,-0.612 0.96,0 1.782,0.198 2.466,0.594 0.684,0.396 1.2,0.915 1.548,1.557 0.348,0.642 0.522,1.329 0.522,2.061 0,0.66 -0.117,1.242 -0.352,1.746 -0.233,0.504 -0.543,1.026 -0.927,1.566 l -3.492,4.896 c -0.084,0.108 -0.165,0.195 -0.243,0.262 -0.078,0.065 -0.188,0.099 -0.333,0.099 h -0.899 c -0.107,-0.001 -0.194,-0.04 -0.259,-0.118 z m 3.393,-6.021 c 0.432,-0.229 0.774,-0.549 1.026,-0.963 0.252,-0.414 0.378,-0.892 0.378,-1.432 0,-0.552 -0.126,-1.037 -0.378,-1.458 -0.252,-0.42 -0.595,-0.744 -1.026,-0.972 -0.432,-0.228 -0.906,-0.342 -1.422,-0.342 -0.504,0 -0.97,0.114 -1.396,0.342 -0.426,0.228 -0.765,0.552 -1.017,0.972 -0.252,0.421 -0.378,0.906 -0.378,1.458 0,0.54 0.126,1.018 0.378,1.432 0.252,0.414 0.588,0.734 1.008,0.963 0.42,0.228 0.888,0.342 1.404,0.342 0.516,0 0.991,-0.114 1.423,-0.342 z"
   id="path25" />
							<path
   fill="#00b9d2"
   d="m 270.204,365.011 c -0.054,-0.072 -0.069,-0.162 -0.045,-0.271 l 0.396,-2.52 c 0.048,-0.348 0.216,-0.522 0.504,-0.522 h 1.151 c 0.084,0 0.153,0.03 0.207,0.09 0.055,0.06 0.081,0.132 0.081,0.216 0,0.12 -0.018,0.216 -0.054,0.288 l -0.937,2.43 c -0.06,0.132 -0.126,0.231 -0.197,0.297 -0.072,0.066 -0.181,0.099 -0.324,0.099 h -0.558 c -0.095,0.001 -0.17,-0.035 -0.224,-0.107 z m 2.826,0 c -0.054,-0.072 -0.069,-0.162 -0.045,-0.271 l 0.396,-2.52 c 0.048,-0.348 0.217,-0.522 0.504,-0.522 h 1.152 c 0.084,0 0.153,0.03 0.207,0.09 0.054,0.06 0.081,0.132 0.081,0.216 0,0.12 -0.018,0.216 -0.054,0.288 l -0.937,2.43 c -0.06,0.132 -0.126,0.231 -0.197,0.297 -0.072,0.066 -0.181,0.099 -0.324,0.099 h -0.559 c -0.095,0.001 -0.17,-0.035 -0.224,-0.107 z"
   id="path27" />
							<path
   fill="#00b9d2"
   d="m 201.921,393.961 c -0.071,-0.078 -0.107,-0.177 -0.107,-0.297 v -10.152 l -3.024,2.322 c -0.084,0.072 -0.174,0.108 -0.27,0.108 -0.108,0 -0.21,-0.061 -0.307,-0.181 l -0.432,-0.558 c -0.061,-0.084 -0.09,-0.168 -0.09,-0.252 0,-0.132 0.06,-0.24 0.18,-0.324 l 3.906,-3.023 c 0.132,-0.084 0.288,-0.126 0.468,-0.126 h 0.846 c 0.12,0 0.219,0.039 0.298,0.116 0.077,0.078 0.116,0.178 0.116,0.298 v 11.771 c 0,0.12 -0.039,0.219 -0.116,0.297 -0.079,0.078 -0.178,0.117 -0.298,0.117 h -0.882 c -0.12,0.002 -0.216,-0.037 -0.288,-0.116 z"
   id="path29" />
							<path
   fill="#00b9d2"
   d="m 207.33,393.961 c -0.066,-0.078 -0.1,-0.171 -0.1,-0.279 l 0.036,-0.161 4.5,-10.53 h -5.94 c -0.12,0 -0.219,-0.039 -0.297,-0.117 -0.078,-0.078 -0.116,-0.177 -0.116,-0.297 v -0.666 c 0,-0.132 0.035,-0.237 0.107,-0.315 0.072,-0.077 0.174,-0.116 0.306,-0.116 h 7.345 c 0.132,0 0.233,0.039 0.306,0.116 0.072,0.078 0.108,0.184 0.108,0.315 v 0.612 c 0,0.216 -0.049,0.449 -0.145,0.702 l -4.446,10.403 c -0.06,0.133 -0.126,0.24 -0.197,0.324 -0.072,0.084 -0.175,0.126 -0.307,0.126 h -0.899 c -0.109,0.001 -0.195,-0.038 -0.261,-0.117 z"
   id="path31" />
							<path
   fill="#00b9d2"
   d="m 220.398,393.961 c -0.079,-0.078 -0.117,-0.177 -0.117,-0.297 v -2.628 h -5.851 c -0.12,0 -0.219,-0.039 -0.297,-0.117 -0.078,-0.078 -0.117,-0.177 -0.117,-0.297 v -0.666 c 0,-0.168 0.066,-0.348 0.198,-0.54 l 5.418,-7.632 c 0.061,-0.096 0.15,-0.171 0.271,-0.225 0.119,-0.055 0.252,-0.081 0.396,-0.081 h 1.225 c 0.132,0 0.233,0.035 0.306,0.107 0.073,0.072 0.107,0.174 0.107,0.307 v 7.632 h 1.639 c 0.119,0 0.219,0.039 0.297,0.117 0.078,0.078 0.117,0.177 0.117,0.297 v 0.684 c 0,0.12 -0.039,0.219 -0.117,0.297 -0.078,0.078 -0.178,0.117 -0.297,0.117 h -1.639 v 2.628 c 0,0.12 -0.039,0.219 -0.116,0.297 -0.078,0.078 -0.178,0.117 -0.297,0.117 h -0.828 c -0.121,0.001 -0.22,-0.038 -0.298,-0.117 z m -4.509,-4.4 h 4.41 v -6.265 z"
   id="path33" />
							<path
   fill="#00b9d2"
   d="m 225.636,393.961 c -0.078,-0.078 -0.117,-0.177 -0.117,-0.297 v -1.242 c 0,-0.119 0.039,-0.222 0.117,-0.306 0.078,-0.084 0.177,-0.126 0.297,-0.126 h 1.242 c 0.12,0 0.219,0.042 0.297,0.126 0.078,0.084 0.117,0.187 0.117,0.306 v 1.242 c 0,0.12 -0.039,0.219 -0.117,0.297 -0.078,0.078 -0.177,0.117 -0.297,0.117 h -1.242 c -0.121,0.001 -0.219,-0.038 -0.297,-0.117 z"
   id="path35" />
							<path
   fill="#00b9d2"
   d="m 235.446,393.961 c -0.079,-0.078 -0.117,-0.177 -0.117,-0.297 v -2.628 h -5.851 c -0.12,0 -0.219,-0.039 -0.297,-0.117 -0.078,-0.078 -0.117,-0.177 -0.117,-0.297 v -0.666 c 0,-0.168 0.066,-0.348 0.198,-0.54 l 5.418,-7.632 c 0.061,-0.096 0.15,-0.171 0.271,-0.225 0.119,-0.055 0.252,-0.081 0.396,-0.081 h 1.225 c 0.132,0 0.233,0.035 0.306,0.107 0.073,0.072 0.107,0.174 0.107,0.307 v 7.632 h 1.639 c 0.119,0 0.219,0.039 0.297,0.117 0.078,0.078 0.117,0.177 0.117,0.297 v 0.684 c 0,0.12 -0.039,0.219 -0.117,0.297 -0.078,0.078 -0.178,0.117 -0.297,0.117 h -1.639 v 2.628 c 0,0.12 -0.039,0.219 -0.116,0.297 -0.078,0.078 -0.178,0.117 -0.297,0.117 h -0.828 c -0.121,0.001 -0.221,-0.038 -0.298,-0.117 z m -4.509,-4.4 h 4.41 v -6.265 z"
   id="path37" />
							<path
   fill="#00b9d2"
   d="m 245.525,393.961 c -0.078,-0.078 -0.117,-0.177 -0.117,-0.297 v -8.532 c 0,-0.119 0.039,-0.219 0.117,-0.297 0.078,-0.078 0.177,-0.117 0.297,-0.117 h 0.756 c 0.12,0 0.217,0.039 0.288,0.117 0.072,0.078 0.108,0.178 0.108,0.297 v 0.612 c 0.648,-0.804 1.523,-1.206 2.628,-1.206 1.32,0 2.256,0.552 2.808,1.656 0.288,-0.504 0.699,-0.906 1.233,-1.206 0.534,-0.3 1.131,-0.45 1.791,-0.45 0.983,0 1.788,0.336 2.412,1.008 0.624,0.673 0.936,1.645 0.936,2.916 v 5.202 c 0,0.12 -0.039,0.219 -0.116,0.297 -0.078,0.078 -0.178,0.117 -0.298,0.117 h -0.773 c -0.12,0 -0.219,-0.039 -0.297,-0.117 -0.078,-0.078 -0.117,-0.177 -0.117,-0.297 v -5.04 c 0,-0.96 -0.198,-1.646 -0.594,-2.061 -0.396,-0.414 -0.918,-0.621 -1.566,-0.621 -0.576,0 -1.071,0.213 -1.485,0.639 -0.413,0.426 -0.62,1.107 -0.62,2.043 v 5.04 c 0,0.12 -0.039,0.219 -0.117,0.297 -0.078,0.078 -0.178,0.117 -0.297,0.117 h -0.792 c -0.12,0 -0.22,-0.039 -0.298,-0.117 -0.078,-0.078 -0.116,-0.177 -0.116,-0.297 v -5.04 c 0,-0.947 -0.207,-1.632 -0.621,-2.052 -0.414,-0.42 -0.927,-0.63 -1.539,-0.63 -0.576,0 -1.071,0.21 -1.485,0.63 -0.414,0.42 -0.621,1.098 -0.621,2.034 v 5.058 c 0,0.12 -0.039,0.219 -0.117,0.297 -0.078,0.078 -0.177,0.117 -0.297,0.117 h -0.792 c -0.122,0.001 -0.22,-0.038 -0.299,-0.117 z"
   id="path39" />
							<path
   fill="#00b9d2"
   d="m 261.51,393.961 c -0.078,-0.078 -0.117,-0.177 -0.117,-0.297 v -8.532 c 0,-0.119 0.039,-0.219 0.117,-0.297 0.078,-0.078 0.177,-0.117 0.297,-0.117 h 0.756 c 0.12,0 0.217,0.039 0.288,0.117 0.072,0.078 0.108,0.178 0.108,0.297 v 0.612 c 0.648,-0.804 1.523,-1.206 2.628,-1.206 1.32,0 2.256,0.552 2.808,1.656 0.288,-0.504 0.699,-0.906 1.233,-1.206 0.534,-0.3 1.131,-0.45 1.791,-0.45 0.983,0 1.788,0.336 2.412,1.008 0.624,0.673 0.936,1.645 0.936,2.916 v 5.202 c 0,0.12 -0.039,0.219 -0.116,0.297 -0.078,0.078 -0.178,0.117 -0.298,0.117 h -0.773 c -0.12,0 -0.219,-0.039 -0.297,-0.117 -0.078,-0.078 -0.117,-0.177 -0.117,-0.297 v -5.04 c 0,-0.96 -0.198,-1.646 -0.594,-2.061 -0.396,-0.414 -0.918,-0.621 -1.566,-0.621 -0.576,0 -1.071,0.213 -1.485,0.639 -0.413,0.426 -0.62,1.107 -0.62,2.043 v 5.04 c 0,0.12 -0.039,0.219 -0.117,0.297 -0.078,0.078 -0.178,0.117 -0.297,0.117 h -0.792 c -0.12,0 -0.22,-0.039 -0.298,-0.117 -0.078,-0.078 -0.116,-0.177 -0.116,-0.297 v -5.04 c 0,-0.947 -0.207,-1.632 -0.621,-2.052 -0.414,-0.42 -0.927,-0.63 -1.539,-0.63 -0.576,0 -1.071,0.21 -1.485,0.63 -0.414,0.42 -0.621,1.098 -0.621,2.034 v 5.058 c 0,0.12 -0.039,0.219 -0.117,0.297 -0.078,0.078 -0.177,0.117 -0.297,0.117 h -0.792 c -0.122,0.001 -0.221,-0.038 -0.299,-0.117 z"
   id="path41" />
						</g>
					</g>
				</g>
			</g>
			<g
   id="g62">
				<g
   id="POLYLINE_500_">
					
						<line
   fill="none"
   stroke="#00b9d2"
   stroke-width="2"
   stroke-linecap="round"
   stroke-linejoin="round"
   stroke-miterlimit="10"
   x1="121.717"
   y1="683.94299"
   x2="236.82201"
   y2="408.444"
   id="line50" />
				</g>
				<g
   id="POLYLINE_499_">
					
						<line
   fill="none"
   stroke="#00b9d2"
   stroke-width="2"
   stroke-linecap="round"
   stroke-linejoin="round"
   stroke-miterlimit="10"
   x1="260.96701"
   y1="349.60501"
   x2="364.397"
   y2="101.774"
   id="line53" />
				</g>
				<g
   id="POLYLINE_498_">
					
						<polyline
   fill="none"
   stroke="#00b9d2"
   stroke-width="2"
   stroke-linecap="round"
   stroke-linejoin="round"
   stroke-miterlimit="10"
   points="       118.55,675.519 121.717,683.943 130.14,680.775      "
   id="polyline56" />
				</g>
				<g
   id="POLYLINE_497_">
					
						<polyline
   fill="none"
   stroke="#00b9d2"
   stroke-width="2"
   stroke-linecap="round"
   stroke-linejoin="round"
   stroke-miterlimit="10"
   points="       367.564,110.197 364.397,101.774 355.973,104.941      "
   id="polyline59" />
				</g>
			</g>
		</g>
		<g
   id="g95">
			<g
   id="POLYLINE_496_">
				
					<polyline
   fill="none"
   stroke="#00b9d2"
   stroke-width="2"
   stroke-linecap="round"
   stroke-linejoin="round"
   stroke-miterlimit="10"
   points="      119.55,639.004 113.187,645.367 119.55,651.73     "
   id="polyline66" />
			</g>
			<g
   id="POLYLINE_495_">
				
					<line
   fill="none"
   stroke="#00b9d2"
   stroke-width="2"
   stroke-linecap="round"
   stroke-linejoin="round"
   stroke-miterlimit="10"
   x1="113.187"
   y1="645.367"
   x2="218.517"
   y2="645.367"
   id="line69" />
			</g>
			<g
   id="POLYLINE_494_">
				
					<line
   fill="none"
   stroke="#00b9d2"
   stroke-width="2"
   stroke-linecap="round"
   stroke-linejoin="round"
   stroke-miterlimit="10"
   x1="296"
   y1="645.367"
   x2="370.495"
   y2="645.367"
   id="line72" />
			</g>
			<g
   id="POLYLINE_493_">
				
					<polyline
   fill="none"
   stroke="#00b9d2"
   stroke-width="2"
   stroke-linecap="round"
   stroke-linejoin="round"
   stroke-miterlimit="10"
   points="      364.118,639.015 370.482,645.379 364.118,651.742     "
   id="polyline75" />
			</g>
			<g
   id="MTEXT_30_">
				<g
   id="g92">
					<g
   id="g90">
						<path
   fill="#00b9d2"
   d="m 229.552,651.226 c -0.072,-0.078 -0.108,-0.177 -0.108,-0.297 v -10.152 l -3.024,2.322 c -0.084,0.072 -0.174,0.108 -0.27,0.108 -0.108,0 -0.21,-0.061 -0.306,-0.181 l -0.432,-0.558 c -0.06,-0.084 -0.09,-0.168 -0.09,-0.252 0,-0.132 0.06,-0.24 0.18,-0.324 l 3.906,-3.023 c 0.132,-0.084 0.288,-0.126 0.468,-0.126 h 0.846 c 0.12,0 0.219,0.039 0.297,0.116 0.078,0.078 0.117,0.178 0.117,0.298 v 11.771 c 0,0.12 -0.039,0.219 -0.117,0.297 -0.078,0.078 -0.177,0.117 -0.297,0.117 h -0.882 c -0.12,10e-4 -0.216,-0.038 -0.288,-0.116 z"
   id="path78" />
						<path
   fill="#00b9d2"
   d="m 239.461,651.226 c -0.078,-0.078 -0.117,-0.177 -0.117,-0.297 v -2.628 h -5.85 c -0.12,0 -0.219,-0.039 -0.297,-0.117 -0.078,-0.078 -0.117,-0.177 -0.117,-0.297 v -0.666 c 0,-0.168 0.066,-0.348 0.198,-0.54 l 5.418,-7.632 c 0.06,-0.096 0.15,-0.171 0.27,-0.225 0.12,-0.055 0.252,-0.081 0.396,-0.081 h 1.224 c 0.132,0 0.234,0.035 0.306,0.107 0.072,0.072 0.108,0.174 0.108,0.307 v 7.632 h 1.638 c 0.12,0 0.219,0.039 0.297,0.117 0.078,0.078 0.117,0.177 0.117,0.297 v 0.684 c 0,0.12 -0.039,0.219 -0.117,0.297 -0.078,0.078 -0.177,0.117 -0.297,0.117 H 241 v 2.628 c 0,0.12 -0.039,0.219 -0.117,0.297 -0.078,0.078 -0.177,0.117 -0.297,0.117 h -0.828 c -0.12,0 -0.219,-0.039 -0.297,-0.117 z m -4.509,-4.4 h 4.41 v -6.265 z"
   id="path80" />
						<path
   fill="#00b9d2"
   d="m 250.585,651.226 c -0.078,-0.078 -0.117,-0.177 -0.117,-0.297 v -2.628 h -5.85 c -0.12,0 -0.219,-0.039 -0.297,-0.117 -0.078,-0.078 -0.117,-0.177 -0.117,-0.297 v -0.666 c 0,-0.168 0.066,-0.348 0.198,-0.54 l 5.418,-7.632 c 0.06,-0.096 0.15,-0.171 0.27,-0.225 0.12,-0.055 0.252,-0.081 0.396,-0.081 h 1.224 c 0.132,0 0.234,0.035 0.306,0.107 0.072,0.072 0.108,0.174 0.108,0.307 v 7.632 h 1.638 c 0.12,0 0.219,0.039 0.297,0.117 0.078,0.078 0.117,0.177 0.117,0.297 v 0.684 c 0,0.12 -0.039,0.219 -0.117,0.297 -0.078,0.078 -0.177,0.117 -0.297,0.117 h -1.638 v 2.628 c 0,0.12 -0.039,0.219 -0.117,0.297 -0.078,0.078 -0.177,0.117 -0.297,0.117 h -0.828 c -0.12,0 -0.219,-0.039 -0.297,-0.117 z m -4.509,-4.4 h 4.41 v -6.265 z"
   id="path82" />
						<path
   fill="#00b9d2"
   d="m 257.064,650.165 c -0.714,-0.906 -1.095,-2.091 -1.143,-3.556 l -0.018,-1.548 0.018,-1.602 c 0.036,-1.452 0.417,-2.631 1.143,-3.537 0.726,-0.906 1.857,-1.359 3.393,-1.359 1.548,0 2.685,0.453 3.411,1.359 0.726,0.906 1.107,2.085 1.143,3.537 0.012,0.336 0.018,0.87 0.018,1.602 0,0.708 -0.006,1.225 -0.018,1.548 -0.048,1.465 -0.429,2.649 -1.143,3.556 -0.714,0.906 -1.851,1.358 -3.411,1.358 -1.547,0 -2.679,-0.452 -3.393,-1.358 z m 5.481,-1.054 c 0.468,-0.611 0.714,-1.476 0.738,-2.592 0.012,-0.348 0.018,-0.846 0.018,-1.494 0,-0.659 -0.006,-1.151 -0.018,-1.476 -0.024,-1.104 -0.273,-1.965 -0.747,-2.583 -0.474,-0.618 -1.167,-0.927 -2.079,-0.927 -0.912,0 -1.602,0.309 -2.07,0.927 -0.468,0.618 -0.714,1.479 -0.738,2.583 l -0.018,1.476 0.018,1.494 c 0.024,1.116 0.27,1.98 0.738,2.592 0.468,0.612 1.158,0.918 2.07,0.918 0.924,0 1.621,-0.306 2.088,-0.918 z"
   id="path84" />
						<path
   fill="#00b9d2"
   d="m 272.076,654.655 c -0.078,-0.071 -0.117,-0.174 -0.117,-0.306 v -11.952 c 0,-0.132 0.039,-0.233 0.117,-0.306 0.078,-0.073 0.177,-0.108 0.297,-0.108 h 0.756 c 0.132,0 0.234,0.036 0.306,0.108 0.072,0.072 0.108,0.174 0.108,0.306 v 0.792 c 0.696,-0.924 1.686,-1.386 2.97,-1.386 1.26,0 2.205,0.399 2.835,1.197 0.63,0.798 0.963,1.815 0.999,3.051 0.012,0.132 0.018,0.336 0.018,0.612 0,0.275 -0.006,0.479 -0.018,0.611 -0.036,1.225 -0.369,2.238 -0.999,3.042 -0.63,0.805 -1.575,1.206 -2.835,1.206 -1.284,0 -2.256,-0.456 -2.916,-1.368 v 4.194 c 0,0.12 -0.039,0.219 -0.117,0.297 -0.078,0.078 -0.177,0.117 -0.297,0.117 h -0.81 c -0.12,0.001 -0.219,-0.035 -0.297,-0.107 z m 5.986,-5.346 c 0.396,-0.54 0.612,-1.248 0.648,-2.124 0.012,-0.119 0.018,-0.294 0.018,-0.521 0,-2.305 -0.853,-3.456 -2.556,-3.456 -0.84,0 -1.473,0.278 -1.899,0.837 -0.426,0.558 -0.651,1.215 -0.675,1.971 -0.012,0.132 -0.018,0.366 -0.018,0.702 0,0.336 0.006,0.57 0.018,0.702 0.024,0.731 0.255,1.365 0.693,1.898 0.438,0.534 1.064,0.802 1.881,0.802 0.863,0 1.494,-0.271 1.89,-0.811 z"
   id="path86" />
						<path
   fill="#00b9d2"
   d="m 281.679,651.235 c -0.072,-0.071 -0.108,-0.161 -0.108,-0.27 0,-0.109 0.042,-0.222 0.126,-0.342 l 3.132,-4.068 -2.934,-3.87 c -0.096,-0.132 -0.144,-0.239 -0.144,-0.324 0,-0.107 0.039,-0.197 0.117,-0.27 0.078,-0.073 0.165,-0.108 0.261,-0.108 h 0.864 c 0.18,0 0.336,0.097 0.468,0.288 l 2.43,3.15 2.43,-3.15 c 0.072,-0.096 0.141,-0.168 0.207,-0.216 0.066,-0.048 0.153,-0.072 0.261,-0.072 h 0.828 c 0.096,0 0.18,0.036 0.252,0.108 0.072,0.072 0.108,0.156 0.108,0.252 0,0.12 -0.042,0.234 -0.126,0.342 l -2.97,3.906 3.132,4.032 c 0.084,0.12 0.126,0.233 0.126,0.342 0,0.109 -0.036,0.198 -0.108,0.27 -0.072,0.072 -0.162,0.108 -0.27,0.108 h -0.882 c -0.18,0 -0.336,-0.09 -0.468,-0.27 l -2.574,-3.33 -2.574,3.33 c -0.072,0.084 -0.141,0.149 -0.207,0.197 -0.066,0.049 -0.153,0.072 -0.261,0.072 h -0.846 c -0.108,10e-4 -0.198,-0.035 -0.27,-0.107 z"
   id="path88" />
					</g>
				</g>
			</g>
		</g>
		<g
   id="g126">
			<g
   id="POLYLINE_492_">
				
					<polyline
   fill="none"
   stroke="#00b9d2"
   stroke-width="2"
   stroke-linecap="round"
   stroke-linejoin="round"
   stroke-miterlimit="10"
   points="      345.644,97.492 339.28,91.129 332.917,97.492     "
   id="polyline97" />
			</g>
			<g
   id="POLYLINE_491_">
				
					<line
   fill="none"
   stroke="#00b9d2"
   stroke-width="2"
   stroke-linecap="round"
   stroke-linejoin="round"
   stroke-miterlimit="10"
   x1="339.28"
   y1="91.128998"
   x2="339.28"
   y2="588.80701"
   id="line100" />
			</g>
			<g
   id="POLYLINE_490_">
				
					<line
   fill="none"
   stroke="#00b9d2"
   stroke-width="2"
   stroke-linecap="round"
   stroke-linejoin="round"
   stroke-miterlimit="10"
   x1="339.28"
   y1="621.80701"
   x2="339.28"
   y2="686.242"
   id="line103" />
			</g>
			<g
   id="POLYLINE_489_">
				
					<polyline
   fill="none"
   stroke="#00b9d2"
   stroke-width="2"
   stroke-linecap="round"
   stroke-linejoin="round"
   stroke-miterlimit="10"
   points="      345.632,679.865 339.269,686.229 332.905,679.865     "
   id="polyline106" />
			</g>
			<g
   id="MTEXT_28_">
				<g
   id="g123">
					<g
   id="g121">
						<path
   fill="#00b9d2"
   d="m 292.602,609.362 c -0.684,-0.306 -1.203,-0.704 -1.557,-1.196 -0.354,-0.492 -0.543,-1.002 -0.567,-1.53 0,-0.108 0.036,-0.195 0.108,-0.261 0.072,-0.066 0.162,-0.1 0.27,-0.1 h 0.81 c 0.132,0 0.24,0.027 0.324,0.081 0.083,0.054 0.15,0.159 0.198,0.315 0.156,0.611 0.495,1.044 1.017,1.296 0.522,0.252 1.137,0.378 1.845,0.378 0.864,0 1.551,-0.207 2.061,-0.621 0.51,-0.414 0.765,-1.005 0.765,-1.773 0,-1.464 -0.894,-2.195 -2.682,-2.195 h -1.692 c -0.12,0 -0.219,-0.039 -0.297,-0.117 -0.078,-0.078 -0.117,-0.177 -0.117,-0.297 v -0.468 c 0,-0.181 0.066,-0.336 0.198,-0.469 l 3.51,-3.888 h -5.328 c -0.12,0 -0.219,-0.036 -0.297,-0.108 -0.078,-0.071 -0.117,-0.168 -0.117,-0.287 v -0.648 c 0,-0.132 0.039,-0.237 0.117,-0.315 0.078,-0.077 0.177,-0.116 0.297,-0.116 h 7.128 c 0.132,0 0.237,0.039 0.315,0.116 0.078,0.078 0.117,0.184 0.117,0.315 v 0.594 c 0,0.133 -0.061,0.271 -0.18,0.414 l -3.51,3.942 h 0.288 c 1.224,0.036 2.193,0.354 2.907,0.954 0.714,0.6 1.071,1.476 1.071,2.628 0,0.792 -0.195,1.473 -0.585,2.043 -0.39,0.57 -0.933,1.008 -1.629,1.313 -0.696,0.307 -1.482,0.459 -2.358,0.459 -0.936,0 -1.746,-0.153 -2.43,-0.459 z"
   id="path109" />
						<path
   fill="#00b9d2"
   d="m 301.467,609.524 c -0.078,-0.078 -0.117,-0.177 -0.117,-0.297 v -0.54 c 0,-0.275 0.15,-0.54 0.45,-0.792 l 3.924,-3.906 c 0.888,-0.756 1.5,-1.374 1.836,-1.854 0.336,-0.48 0.504,-0.99 0.504,-1.53 0,-0.708 -0.198,-1.263 -0.594,-1.665 -0.396,-0.401 -0.972,-0.603 -1.728,-0.603 -0.72,0 -1.29,0.21 -1.71,0.63 -0.42,0.42 -0.678,0.984 -0.774,1.691 -0.024,0.133 -0.084,0.234 -0.18,0.307 -0.096,0.073 -0.192,0.107 -0.288,0.107 h -0.864 c -0.108,0 -0.198,-0.035 -0.27,-0.107 -0.072,-0.072 -0.108,-0.156 -0.108,-0.252 0.024,-0.636 0.195,-1.251 0.513,-1.846 0.318,-0.594 0.789,-1.079 1.413,-1.458 0.624,-0.378 1.38,-0.566 2.268,-0.566 1.344,0 2.355,0.351 3.033,1.053 0.678,0.702 1.017,1.593 1.017,2.673 0,0.756 -0.183,1.438 -0.549,2.043 -0.366,0.606 -0.939,1.245 -1.719,1.917 l -3.546,3.601 h 5.67 c 0.132,0 0.234,0.036 0.306,0.107 0.072,0.072 0.108,0.175 0.108,0.307 v 0.684 c 0,0.12 -0.04,0.219 -0.117,0.297 -0.078,0.078 -0.177,0.117 -0.297,0.117 h -7.884 c -0.12,-0.001 -0.219,-0.04 -0.297,-0.118 z"
   id="path111" />
						<path
   fill="#00b9d2"
   d="m 313.275,608.462 c -0.714,-0.906 -1.095,-2.091 -1.143,-3.556 l -0.018,-1.548 0.018,-1.602 c 0.036,-1.452 0.417,-2.631 1.143,-3.537 0.726,-0.906 1.857,-1.359 3.393,-1.359 1.548,0 2.685,0.453 3.411,1.359 0.726,0.906 1.107,2.085 1.143,3.537 0.012,0.336 0.018,0.87 0.018,1.602 0,0.708 -0.006,1.225 -0.018,1.548 -0.048,1.465 -0.429,2.649 -1.143,3.556 -0.714,0.906 -1.851,1.358 -3.411,1.358 -1.548,10e-4 -2.679,-0.451 -3.393,-1.358 z m 5.481,-1.053 c 0.468,-0.611 0.714,-1.476 0.738,-2.592 0.012,-0.348 0.018,-0.846 0.018,-1.494 0,-0.659 -0.006,-1.151 -0.018,-1.476 -0.024,-1.104 -0.273,-1.965 -0.747,-2.583 -0.474,-0.618 -1.167,-0.927 -2.079,-0.927 -0.912,0 -1.602,0.309 -2.07,0.927 -0.468,0.618 -0.714,1.479 -0.738,2.583 l -0.018,1.476 0.018,1.494 c 0.024,1.116 0.27,1.98 0.738,2.592 0.468,0.612 1.158,0.918 2.07,0.918 0.924,0 1.62,-0.306 2.088,-0.918 z"
   id="path113" />
						<path
   fill="#00b9d2"
   d="m 324.669,608.462 c -0.714,-0.906 -1.095,-2.091 -1.143,-3.556 l -0.018,-1.548 0.018,-1.602 c 0.036,-1.452 0.417,-2.631 1.143,-3.537 0.726,-0.906 1.857,-1.359 3.393,-1.359 1.548,0 2.685,0.453 3.411,1.359 0.726,0.906 1.107,2.085 1.143,3.537 0.012,0.336 0.018,0.87 0.018,1.602 0,0.708 -0.006,1.225 -0.018,1.548 -0.048,1.465 -0.429,2.649 -1.143,3.556 -0.714,0.906 -1.851,1.358 -3.411,1.358 -1.548,10e-4 -2.679,-0.451 -3.393,-1.358 z m 5.481,-1.053 c 0.468,-0.611 0.714,-1.476 0.738,-2.592 0.012,-0.348 0.018,-0.846 0.018,-1.494 0,-0.659 -0.006,-1.151 -0.018,-1.476 -0.024,-1.104 -0.273,-1.965 -0.747,-2.583 -0.474,-0.618 -1.167,-0.927 -2.079,-0.927 -0.912,0 -1.602,0.309 -2.07,0.927 -0.468,0.618 -0.714,1.479 -0.738,2.583 l -0.018,1.476 0.018,1.494 c 0.024,1.116 0.27,1.98 0.738,2.592 0.468,0.612 1.158,0.918 2.07,0.918 0.924,0 1.62,-0.306 2.088,-0.918 z"
   id="path115" />
						<path
   fill="#00b9d2"
   d="m 339.68,612.953 c -0.078,-0.071 -0.117,-0.174 -0.117,-0.306 v -11.952 c 0,-0.132 0.039,-0.233 0.117,-0.306 0.078,-0.073 0.177,-0.108 0.297,-0.108 h 0.756 c 0.132,0 0.234,0.036 0.306,0.108 0.072,0.072 0.108,0.174 0.108,0.306 v 0.792 c 0.696,-0.924 1.686,-1.386 2.97,-1.386 1.26,0 2.205,0.399 2.835,1.197 0.63,0.798 0.963,1.815 0.999,3.051 0.012,0.132 0.018,0.336 0.018,0.612 0,0.275 -0.006,0.479 -0.018,0.611 -0.036,1.225 -0.369,2.238 -0.999,3.042 -0.63,0.805 -1.575,1.206 -2.835,1.206 -1.284,0 -2.256,-0.456 -2.916,-1.368 v 4.194 c 0,0.12 -0.039,0.219 -0.117,0.297 -0.078,0.078 -0.177,0.117 -0.297,0.117 h -0.81 c -0.12,0.001 -0.219,-0.035 -0.297,-0.107 z m 5.986,-5.346 c 0.396,-0.54 0.612,-1.248 0.648,-2.124 0.012,-0.119 0.018,-0.294 0.018,-0.521 0,-2.305 -0.853,-3.456 -2.556,-3.456 -0.84,0 -1.473,0.278 -1.899,0.837 -0.426,0.558 -0.651,1.215 -0.675,1.971 -0.012,0.132 -0.018,0.366 -0.018,0.702 0,0.336 0.006,0.57 0.018,0.702 0.024,0.731 0.255,1.365 0.693,1.898 0.438,0.534 1.064,0.802 1.881,0.802 0.863,-10e-4 1.494,-0.271 1.89,-0.811 z"
   id="path117" />
						<path
   fill="#00b9d2"
   d="m 349.284,609.533 c -0.072,-0.071 -0.108,-0.161 -0.108,-0.27 0,-0.109 0.042,-0.222 0.126,-0.342 l 3.132,-4.068 -2.934,-3.87 c -0.096,-0.132 -0.144,-0.239 -0.144,-0.324 0,-0.107 0.039,-0.197 0.117,-0.27 0.078,-0.073 0.165,-0.108 0.261,-0.108 h 0.864 c 0.18,0 0.336,0.097 0.468,0.288 l 2.43,3.15 2.43,-3.15 c 0.072,-0.096 0.141,-0.168 0.207,-0.216 0.066,-0.048 0.153,-0.072 0.261,-0.072 h 0.828 c 0.096,0 0.18,0.036 0.252,0.108 0.072,0.072 0.108,0.156 0.108,0.252 0,0.12 -0.042,0.234 -0.126,0.342 l -2.97,3.906 3.132,4.032 c 0.084,0.12 0.126,0.233 0.126,0.342 0,0.109 -0.036,0.198 -0.108,0.27 -0.072,0.072 -0.162,0.108 -0.27,0.108 h -0.882 c -0.18,0 -0.336,-0.09 -0.468,-0.27 l -2.574,-3.33 -2.574,3.33 c -0.072,0.084 -0.141,0.149 -0.207,0.197 -0.066,0.049 -0.153,0.072 -0.261,0.072 h -0.846 c -0.108,10e-4 -0.198,-0.035 -0.27,-0.107 z"
   id="path119" />
					</g>
				</g>
			</g>
		</g>
	</g>
	<g
   display="inline"
   id="g246">
		<g
   id="g169">
			<g
   id="POLYLINE_543_">
				
					<polyline
   fill="none"
   stroke="#00b9d2"
   stroke-width="2"
   stroke-linecap="round"
   stroke-linejoin="round"
   stroke-miterlimit="10"
   points="      898.546,738.371 904.909,732.008 898.546,725.644     "
   id="polyline130" />
			</g>
			<g
   id="POLYLINE_528_">
				
					<line
   fill="none"
   stroke="#00b9d2"
   stroke-width="2"
   stroke-linecap="round"
   stroke-linejoin="round"
   stroke-miterlimit="10"
   x1="904.909"
   y1="732.008"
   x2="898.66901"
   y2="732.008"
   id="line133" />
			</g>
			<g
   id="POLYLINE_527_">
				
					<line
   fill="none"
   stroke="#00b9d2"
   stroke-width="2"
   stroke-linecap="round"
   stroke-linejoin="round"
   stroke-miterlimit="10"
   x1="898.66901"
   y1="732.008"
   x2="869.49701"
   y2="732.008"
   id="line136" />
			</g>
			<g
   id="POLYLINE_98_">
				
					<polyline
   fill="none"
   stroke="#00b9d2"
   stroke-width="2"
   stroke-linecap="round"
   stroke-linejoin="round"
   stroke-miterlimit="10"
   points="      875.874,738.359 869.51,731.996 875.874,725.633     "
   id="polyline139" />
			</g>
			<g
   id="MTEXT_75_">
				<g
   id="g166">
					<g
   id="g164">
						<g
   id="g162">
							<path
   fill="#00b9d2"
   d="m 784.386,763.977 c -0.087,-0.087 -0.13,-0.196 -0.13,-0.33 v -1.38 c 0,-0.133 0.043,-0.247 0.13,-0.34 0.087,-0.094 0.196,-0.141 0.33,-0.141 h 1.38 c 0.133,0 0.243,0.047 0.33,0.141 0.087,0.093 0.13,0.207 0.13,0.34 v 1.38 c 0,0.134 -0.043,0.243 -0.13,0.33 -0.087,0.087 -0.197,0.13 -0.33,0.13 h -1.38 c -0.134,0 -0.243,-0.043 -0.33,-0.13 z"
   id="path142" />
							<path
   fill="#00b9d2"
   d="m 791.116,763.797 c -0.761,-0.341 -1.337,-0.783 -1.73,-1.33 -0.393,-0.547 -0.604,-1.113 -0.63,-1.7 0,-0.12 0.04,-0.217 0.12,-0.29 0.08,-0.073 0.18,-0.11 0.3,-0.11 h 0.9 c 0.146,0 0.267,0.03 0.359,0.09 0.094,0.061 0.167,0.178 0.22,0.351 0.174,0.68 0.551,1.16 1.131,1.439 0.58,0.28 1.263,0.42 2.05,0.42 0.96,0 1.723,-0.229 2.29,-0.689 0.566,-0.46 0.85,-1.116 0.85,-1.97 0,-1.627 -0.993,-2.44 -2.979,-2.44 h -1.88 c -0.134,0 -0.244,-0.043 -0.33,-0.13 -0.087,-0.087 -0.131,-0.196 -0.131,-0.33 v -0.52 c 0,-0.2 0.073,-0.374 0.221,-0.521 l 3.899,-4.32 h -5.92 c -0.133,0 -0.243,-0.04 -0.33,-0.12 -0.087,-0.079 -0.13,-0.187 -0.13,-0.319 v -0.72 c 0,-0.147 0.043,-0.264 0.13,-0.351 0.087,-0.087 0.197,-0.13 0.33,-0.13 h 7.92 c 0.146,0 0.264,0.043 0.351,0.13 0.086,0.087 0.13,0.203 0.13,0.351 v 0.659 c 0,0.147 -0.067,0.301 -0.2,0.46 l -3.9,4.381 h 0.32 c 1.36,0.039 2.437,0.393 3.23,1.06 0.793,0.667 1.189,1.64 1.189,2.92 0,0.88 -0.217,1.637 -0.649,2.271 -0.434,0.633 -1.037,1.119 -1.811,1.46 -0.773,0.34 -1.646,0.51 -2.62,0.51 -1.041,-0.002 -1.94,-0.172 -2.7,-0.512 z"
   id="path144" />
							<path
   fill="#00b9d2"
   d="m 803.076,763.767 c -0.734,-0.36 -1.294,-0.83 -1.681,-1.41 -0.387,-0.58 -0.593,-1.203 -0.62,-1.87 v -0.04 c 0,-0.106 0.04,-0.193 0.12,-0.26 0.08,-0.067 0.173,-0.1 0.28,-0.1 h 0.979 c 0.28,0 0.46,0.146 0.54,0.439 0.2,0.72 0.57,1.257 1.11,1.61 0.54,0.353 1.163,0.529 1.87,0.529 0.906,0 1.66,-0.276 2.26,-0.829 0.601,-0.554 0.9,-1.317 0.9,-2.29 0,-0.894 -0.3,-1.604 -0.9,-2.131 -0.6,-0.526 -1.354,-0.79 -2.26,-0.79 -0.48,0 -0.867,0.061 -1.16,0.181 -0.293,0.12 -0.594,0.293 -0.9,0.52 -0.173,0.134 -0.316,0.23 -0.43,0.29 -0.113,0.061 -0.236,0.09 -0.37,0.09 h -0.96 c -0.12,0 -0.227,-0.043 -0.319,-0.13 -0.094,-0.086 -0.134,-0.189 -0.12,-0.31 l 0.62,-6.66 c 0.04,-0.333 0.206,-0.5 0.5,-0.5 h 6.92 c 0.146,0 0.26,0.04 0.34,0.12 0.08,0.08 0.12,0.193 0.12,0.34 v 0.74 c 0,0.133 -0.044,0.24 -0.13,0.319 -0.087,0.08 -0.197,0.12 -0.33,0.12 h -5.761 l -0.359,4.021 c 0.64,-0.453 1.5,-0.68 2.58,-0.68 0.893,0 1.706,0.177 2.439,0.529 0.733,0.354 1.316,0.87 1.75,1.55 0.434,0.681 0.65,1.487 0.65,2.421 0,0.986 -0.217,1.836 -0.65,2.55 -0.434,0.713 -1.033,1.253 -1.8,1.62 -0.767,0.366 -1.644,0.55 -2.63,0.55 -0.998,10e-4 -1.865,-0.18 -2.598,-0.539 z"
   id="path146" />
							<path
   fill="#00b9d2"
   d="m 812.905,753.587 c -0.06,-0.08 -0.076,-0.181 -0.05,-0.301 l 0.44,-2.8 c 0.053,-0.387 0.239,-0.58 0.56,-0.58 h 1.28 c 0.093,0 0.17,0.033 0.229,0.101 0.061,0.066 0.09,0.146 0.09,0.239 0,0.134 -0.02,0.24 -0.06,0.32 l -1.04,2.7 c -0.066,0.146 -0.14,0.257 -0.22,0.33 -0.08,0.073 -0.2,0.109 -0.36,0.109 h -0.62 c -0.105,0.002 -0.188,-0.038 -0.249,-0.118 z m 3.141,0 c -0.061,-0.08 -0.077,-0.181 -0.051,-0.301 l 0.44,-2.8 c 0.053,-0.387 0.24,-0.58 0.56,-0.58 h 1.28 c 0.094,0 0.17,0.033 0.23,0.101 0.06,0.066 0.09,0.146 0.09,0.239 0,0.134 -0.021,0.24 -0.061,0.32 l -1.04,2.7 c -0.066,0.146 -0.14,0.257 -0.22,0.33 -0.08,0.073 -0.2,0.109 -0.359,0.109 h -0.62 c -0.107,0.002 -0.19,-0.038 -0.249,-0.118 z"
   id="path148" />
							<path
   fill="#00b9d2"
   d="m 825.915,768.137 c -0.08,-0.087 -0.12,-0.197 -0.12,-0.33 v -21.16 c 0,-0.133 0.04,-0.243 0.12,-0.33 0.08,-0.087 0.187,-0.13 0.32,-0.13 h 0.74 c 0.133,0 0.243,0.043 0.329,0.13 0.087,0.087 0.131,0.197 0.131,0.33 v 21.16 c 0,0.133 -0.044,0.243 -0.131,0.33 -0.086,0.086 -0.196,0.13 -0.329,0.13 h -0.74 c -0.133,0 -0.24,-0.044 -0.32,-0.13 z"
   id="path150" />
							<path
   fill="#00b9d2"
   d="m 837.465,763.797 c -0.794,-0.341 -1.41,-0.83 -1.851,-1.471 -0.439,-0.64 -0.659,-1.387 -0.659,-2.239 0,-0.787 0.196,-1.477 0.59,-2.07 0.393,-0.594 0.923,-1.05 1.59,-1.37 -0.533,-0.307 -0.947,-0.71 -1.24,-1.21 -0.293,-0.5 -0.439,-1.09 -0.439,-1.771 0,-1.159 0.433,-2.076 1.3,-2.75 0.866,-0.673 2.007,-1.01 3.42,-1.01 1.413,0 2.55,0.334 3.41,1 0.859,0.667 1.29,1.587 1.29,2.76 0,0.667 -0.147,1.25 -0.44,1.75 -0.293,0.5 -0.7,0.91 -1.22,1.23 0.666,0.32 1.196,0.776 1.59,1.37 0.394,0.594 0.59,1.29 0.59,2.09 0,0.854 -0.22,1.597 -0.66,2.23 -0.439,0.633 -1.057,1.119 -1.85,1.46 -0.794,0.34 -1.697,0.51 -2.71,0.51 -1.015,10e-4 -1.918,-0.169 -2.711,-0.509 z m 5.08,-1.77 c 0.633,-0.479 0.95,-1.12 0.95,-1.92 0,-0.8 -0.317,-1.44 -0.95,-1.92 -0.634,-0.48 -1.424,-0.72 -2.37,-0.72 -0.96,0 -1.757,0.239 -2.39,0.72 -0.634,0.479 -0.95,1.12 -0.95,1.92 0,0.8 0.316,1.44 0.95,1.92 0.633,0.48 1.43,0.72 2.39,0.72 0.946,0 1.736,-0.24 2.37,-0.72 z m -0.311,-6.72 c 0.561,-0.4 0.841,-0.934 0.841,-1.601 0,-0.68 -0.277,-1.223 -0.83,-1.63 -0.554,-0.406 -1.244,-0.609 -2.07,-0.609 -0.84,0 -1.533,0.203 -2.08,0.609 -0.547,0.407 -0.82,0.95 -0.82,1.63 0,0.681 0.273,1.224 0.82,1.631 0.547,0.406 1.24,0.609 2.08,0.609 0.813,-0.026 1.5,-0.239 2.059,-0.639 z"
   id="path152" />
							<path
   fill="#00b9d2"
   d="m 847.805,763.977 c -0.087,-0.087 -0.131,-0.196 -0.131,-0.33 v -1.38 c 0,-0.133 0.044,-0.247 0.131,-0.34 0.086,-0.094 0.196,-0.141 0.329,-0.141 h 1.381 c 0.133,0 0.243,0.047 0.329,0.141 0.087,0.093 0.131,0.207 0.131,0.34 v 1.38 c 0,0.134 -0.044,0.243 -0.131,0.33 -0.086,0.087 -0.196,0.13 -0.329,0.13 h -1.381 c -0.133,0 -0.243,-0.043 -0.329,-0.13 z"
   id="path154" />
							<path
   fill="#00b9d2"
   d="m 854.744,763.797 c -0.793,-0.341 -1.409,-0.83 -1.85,-1.471 -0.44,-0.64 -0.66,-1.387 -0.66,-2.239 0,-0.787 0.196,-1.477 0.59,-2.07 0.394,-0.593 0.924,-1.05 1.59,-1.37 -0.533,-0.307 -0.946,-0.71 -1.239,-1.21 -0.294,-0.5 -0.44,-1.09 -0.44,-1.771 0,-1.159 0.434,-2.076 1.3,-2.75 0.867,-0.673 2.007,-1.01 3.42,-1.01 1.413,0 2.551,0.334 3.41,1 0.86,0.667 1.29,1.587 1.29,2.76 0,0.667 -0.146,1.25 -0.439,1.75 -0.294,0.5 -0.7,0.91 -1.221,1.23 0.667,0.32 1.197,0.776 1.591,1.37 0.393,0.594 0.59,1.29 0.59,2.09 0,0.854 -0.221,1.597 -0.66,2.23 -0.44,0.633 -1.057,1.119 -1.851,1.46 -0.793,0.34 -1.696,0.51 -2.71,0.51 -1.014,10e-4 -1.917,-0.169 -2.711,-0.509 z m 5.08,-1.77 c 0.634,-0.479 0.95,-1.12 0.95,-1.92 0,-0.8 -0.316,-1.44 -0.95,-1.92 -0.633,-0.48 -1.423,-0.72 -2.37,-0.72 -0.96,0 -1.757,0.239 -2.39,0.72 -0.634,0.479 -0.95,1.12 -0.95,1.92 0,0.8 0.316,1.44 0.95,1.92 0.633,0.48 1.43,0.72 2.39,0.72 0.947,0 1.737,-0.24 2.37,-0.72 z m -0.309,-6.72 c 0.56,-0.4 0.84,-0.934 0.84,-1.601 0,-0.68 -0.277,-1.223 -0.83,-1.63 -0.554,-0.406 -1.243,-0.609 -2.07,-0.609 -0.84,0 -1.533,0.203 -2.08,0.609 -0.547,0.407 -0.819,0.95 -0.819,1.63 0,0.681 0.272,1.224 0.819,1.631 0.547,0.406 1.24,0.609 2.08,0.609 0.813,-0.026 1.499,-0.239 2.06,-0.639 z"
   id="path156" />
							<path
   fill="#00b9d2"
   d="m 870.344,763.977 c -0.087,-0.087 -0.13,-0.196 -0.13,-0.33 v -9.48 c 0,-0.133 0.043,-0.243 0.13,-0.329 0.087,-0.087 0.197,-0.131 0.33,-0.131 h 0.84 c 0.134,0 0.24,0.044 0.32,0.131 0.08,0.086 0.12,0.196 0.12,0.329 v 0.681 c 0.72,-0.894 1.693,-1.34 2.92,-1.34 1.467,0 2.507,0.613 3.12,1.84 0.32,-0.561 0.776,-1.007 1.37,-1.34 0.593,-0.334 1.257,-0.5 1.99,-0.5 1.093,0 1.986,0.373 2.68,1.119 0.693,0.747 1.04,1.827 1.04,3.24 v 5.78 c 0,0.134 -0.044,0.243 -0.13,0.33 -0.087,0.087 -0.197,0.13 -0.33,0.13 h -0.86 c -0.133,0 -0.243,-0.043 -0.33,-0.13 -0.087,-0.087 -0.13,-0.196 -0.13,-0.33 v -5.6 c 0,-1.067 -0.22,-1.83 -0.66,-2.29 -0.439,-0.46 -1.02,-0.69 -1.739,-0.69 -0.641,0 -1.19,0.237 -1.65,0.71 -0.46,0.474 -0.69,1.23 -0.69,2.271 v 5.6 c 0,0.134 -0.043,0.243 -0.13,0.33 -0.087,0.087 -0.196,0.13 -0.33,0.13 h -0.88 c -0.133,0 -0.243,-0.043 -0.33,-0.13 -0.087,-0.087 -0.13,-0.196 -0.13,-0.33 v -5.6 c 0,-1.054 -0.229,-1.813 -0.689,-2.28 -0.46,-0.467 -1.03,-0.7 -1.71,-0.7 -0.641,0 -1.19,0.233 -1.65,0.7 -0.46,0.467 -0.69,1.22 -0.69,2.26 v 5.62 c 0,0.134 -0.043,0.243 -0.13,0.33 -0.087,0.087 -0.196,0.13 -0.33,0.13 h -0.88 c -0.135,-10e-4 -0.245,-0.044 -0.332,-0.131 z"
   id="path158" />
							<path
   fill="#00b9d2"
   d="m 888.104,763.977 c -0.087,-0.087 -0.13,-0.196 -0.13,-0.33 v -9.48 c 0,-0.133 0.043,-0.243 0.13,-0.329 0.087,-0.087 0.196,-0.131 0.33,-0.131 h 0.84 c 0.133,0 0.24,0.044 0.32,0.131 0.08,0.086 0.12,0.196 0.12,0.329 v 0.681 c 0.72,-0.894 1.692,-1.34 2.92,-1.34 1.466,0 2.506,0.613 3.119,1.84 0.32,-0.561 0.777,-1.007 1.37,-1.34 0.594,-0.334 1.257,-0.5 1.99,-0.5 1.093,0 1.986,0.373 2.68,1.119 0.693,0.747 1.04,1.827 1.04,3.24 v 5.78 c 0,0.134 -0.043,0.243 -0.13,0.33 -0.087,0.087 -0.196,0.13 -0.33,0.13 h -0.859 c -0.134,0 -0.244,-0.043 -0.33,-0.13 -0.087,-0.087 -0.13,-0.196 -0.13,-0.33 v -5.6 c 0,-1.067 -0.221,-1.83 -0.66,-2.29 -0.44,-0.46 -1.021,-0.69 -1.74,-0.69 -0.64,0 -1.189,0.237 -1.65,0.71 -0.46,0.474 -0.689,1.23 -0.689,2.271 v 5.6 c 0,0.134 -0.044,0.243 -0.13,0.33 -0.087,0.087 -0.197,0.13 -0.33,0.13 h -0.88 c -0.134,0 -0.244,-0.043 -0.33,-0.13 -0.087,-0.087 -0.13,-0.196 -0.13,-0.33 v -5.6 c 0,-1.054 -0.23,-1.813 -0.69,-2.28 -0.46,-0.467 -1.03,-0.7 -1.71,-0.7 -0.64,0 -1.189,0.233 -1.649,0.7 -0.461,0.467 -0.69,1.22 -0.69,2.26 v 5.62 c 0,0.134 -0.044,0.243 -0.13,0.33 -0.087,0.087 -0.197,0.13 -0.33,0.13 h -0.88 c -0.136,-10e-4 -0.246,-0.044 -0.332,-0.131 z"
   id="path160" />
						</g>
					</g>
				</g>
			</g>
		</g>
		<g
   id="g202">
			<g
   id="POLYLINE_97_">
				
					<polyline
   fill="none"
   stroke="#00b9d2"
   stroke-width="2"
   stroke-linecap="round"
   stroke-linejoin="round"
   stroke-miterlimit="10"
   points="      101.305,728.041 94.941,734.405 101.305,740.768     "
   id="polyline171" />
			</g>
			<g
   id="POLYLINE_96_">
				
					<line
   fill="none"
   stroke="#00b9d2"
   stroke-width="2"
   stroke-linecap="round"
   stroke-linejoin="round"
   stroke-miterlimit="10"
   x1="94.941002"
   y1="734.40503"
   x2="179.45799"
   y2="734.40503"
   id="line174" />
			</g>
			<g
   id="POLYLINE_79_">
				
					<line
   fill="none"
   stroke="#00b9d2"
   stroke-width="2"
   stroke-linecap="round"
   stroke-linejoin="round"
   stroke-miterlimit="10"
   x1="295"
   y1="734.40503"
   x2="382.888"
   y2="734.40503"
   id="line177" />
			</g>
			<g
   id="POLYLINE_77_">
				
					<polyline
   fill="none"
   stroke="#00b9d2"
   stroke-width="2"
   stroke-linecap="round"
   stroke-linejoin="round"
   stroke-miterlimit="10"
   points="      376.511,728.053 382.875,734.416 376.511,740.78     "
   id="polyline180" />
			</g>
			<g
   id="MTEXT_74_">
				<g
   id="g199">
					<g
   id="g197">
						<path
   fill="#00b9d2"
   d="m 191.033,741.071 c -0.76,-0.341 -1.337,-0.783 -1.73,-1.33 -0.394,-0.547 -0.604,-1.113 -0.63,-1.7 0,-0.12 0.04,-0.217 0.12,-0.29 0.08,-0.073 0.18,-0.11 0.3,-0.11 h 0.9 c 0.146,0 0.267,0.03 0.36,0.09 0.093,0.061 0.167,0.178 0.22,0.351 0.173,0.68 0.55,1.16 1.13,1.439 0.58,0.28 1.263,0.42 2.05,0.42 0.96,0 1.723,-0.229 2.29,-0.689 0.566,-0.46 0.85,-1.116 0.85,-1.97 0,-1.627 -0.994,-2.44 -2.98,-2.44 h -1.88 c -0.134,0 -0.244,-0.043 -0.33,-0.13 -0.087,-0.087 -0.13,-0.196 -0.13,-0.33 v -0.52 c 0,-0.2 0.073,-0.374 0.22,-0.521 l 3.9,-4.32 h -5.92 c -0.133,0 -0.243,-0.04 -0.33,-0.12 -0.087,-0.079 -0.13,-0.187 -0.13,-0.319 v -0.72 c 0,-0.147 0.043,-0.264 0.13,-0.351 0.087,-0.087 0.197,-0.13 0.33,-0.13 h 7.92 c 0.146,0 0.263,0.043 0.35,0.13 0.086,0.087 0.13,0.203 0.13,0.351 v 0.659 c 0,0.147 -0.067,0.301 -0.2,0.46 l -3.9,4.381 h 0.32 c 1.36,0.039 2.437,0.393 3.23,1.06 0.793,0.667 1.19,1.64 1.19,2.92 0,0.88 -0.217,1.637 -0.65,2.271 -0.434,0.633 -1.037,1.119 -1.81,1.46 -0.773,0.34 -1.647,0.51 -2.62,0.51 -1.04,-0.002 -1.94,-0.172 -2.7,-0.512 z"
   id="path183" />
						<path
   fill="#00b9d2"
   d="m 200.983,730.861 c -0.06,-0.08 -0.077,-0.181 -0.05,-0.301 l 0.44,-2.8 c 0.053,-0.387 0.24,-0.58 0.56,-0.58 h 1.28 c 0.093,0 0.17,0.033 0.23,0.101 0.06,0.066 0.09,0.146 0.09,0.239 0,0.134 -0.02,0.24 -0.06,0.32 l -1.04,2.7 c -0.067,0.146 -0.14,0.257 -0.22,0.33 -0.08,0.073 -0.2,0.109 -0.36,0.109 h -0.62 c -0.107,10e-4 -0.19,-0.039 -0.25,-0.118 z m 3.14,0 c -0.06,-0.08 -0.077,-0.181 -0.05,-0.301 l 0.44,-2.8 c 0.053,-0.387 0.24,-0.58 0.56,-0.58 h 1.28 c 0.093,0 0.17,0.033 0.23,0.101 0.06,0.066 0.09,0.146 0.09,0.239 0,0.134 -0.02,0.24 -0.06,0.32 l -1.04,2.7 c -0.067,0.146 -0.14,0.257 -0.22,0.33 -0.08,0.073 -0.2,0.109 -0.36,0.109 h -0.62 c -0.107,10e-4 -0.19,-0.039 -0.25,-0.118 z"
   id="path185" />
						<path
   fill="#00b9d2"
   d="m 213.993,745.411 c -0.08,-0.087 -0.12,-0.197 -0.12,-0.33 v -21.16 c 0,-0.133 0.04,-0.243 0.12,-0.33 0.08,-0.087 0.187,-0.13 0.32,-0.13 h 0.74 c 0.133,0 0.243,0.043 0.33,0.13 0.087,0.087 0.13,0.197 0.13,0.33 v 21.16 c 0,0.133 -0.043,0.243 -0.13,0.33 -0.086,0.086 -0.197,0.13 -0.33,0.13 h -0.74 c -0.134,0 -0.24,-0.044 -0.32,-0.13 z"
   id="path187" />
						<path
   fill="#00b9d2"
   d="m 224.622,741.25 c -0.073,-0.087 -0.11,-0.19 -0.11,-0.311 l 0.04,-0.18 5,-11.7 h -6.6 c -0.133,0 -0.244,-0.043 -0.33,-0.13 -0.087,-0.086 -0.13,-0.196 -0.13,-0.33 v -0.739 c 0,-0.147 0.04,-0.264 0.12,-0.351 0.08,-0.087 0.193,-0.13 0.34,-0.13 h 8.16 c 0.146,0 0.26,0.043 0.34,0.13 0.08,0.087 0.12,0.203 0.12,0.351 v 0.68 c 0,0.24 -0.054,0.5 -0.16,0.78 l -4.94,11.56 c -0.067,0.146 -0.14,0.267 -0.22,0.36 -0.08,0.093 -0.193,0.14 -0.34,0.14 h -1 c -0.12,0 -0.217,-0.043 -0.29,-0.13 z"
   id="path189" />
						<path
   fill="#00b9d2"
   d="m 234.862,740.93 c -0.78,-0.433 -1.374,-1.017 -1.78,-1.75 -0.406,-0.733 -0.61,-1.533 -0.61,-2.399 0,-1.146 0.46,-2.373 1.38,-3.681 l 3.82,-5.319 c 0.013,-0.014 0.05,-0.061 0.11,-0.141 0.06,-0.08 0.137,-0.143 0.23,-0.189 0.093,-0.046 0.2,-0.07 0.32,-0.07 h 0.98 c 0.12,0 0.217,0.043 0.29,0.13 0.073,0.087 0.11,0.19 0.11,0.311 0,0.066 -0.034,0.153 -0.1,0.26 l -2.92,4.08 c 0.346,-0.08 0.733,-0.12 1.16,-0.12 0.973,0 1.83,0.217 2.57,0.649 0.74,0.434 1.313,1.007 1.72,1.721 0.407,0.713 0.61,1.497 0.61,2.35 0,0.854 -0.203,1.65 -0.61,2.39 -0.407,0.74 -0.997,1.33 -1.77,1.771 -0.773,0.441 -1.687,0.66 -2.74,0.66 -1.067,-0.002 -1.99,-0.219 -2.77,-0.653 z m 4.37,-1.37 c 0.493,-0.239 0.886,-0.597 1.18,-1.069 0.293,-0.474 0.44,-1.044 0.44,-1.71 0,-0.653 -0.15,-1.217 -0.45,-1.69 -0.3,-0.473 -0.697,-0.833 -1.19,-1.08 -0.494,-0.246 -1.027,-0.37 -1.6,-0.37 -0.574,0 -1.107,0.124 -1.6,0.37 -0.494,0.247 -0.887,0.607 -1.18,1.08 -0.293,0.474 -0.44,1.037 -0.44,1.69 0,0.666 0.146,1.236 0.44,1.71 0.293,0.473 0.687,0.83 1.18,1.069 0.493,0.24 1.026,0.36 1.6,0.36 0.586,0 1.126,-0.12 1.62,-0.36 z"
   id="path191" />
						<path
   fill="#00b9d2"
   d="m 250.042,741.25 c -0.087,-0.087 -0.13,-0.196 -0.13,-0.33 v -9.48 c 0,-0.133 0.043,-0.243 0.13,-0.329 0.087,-0.087 0.197,-0.131 0.33,-0.131 h 0.84 c 0.133,0 0.24,0.044 0.32,0.131 0.08,0.086 0.12,0.196 0.12,0.329 v 0.681 c 0.72,-0.894 1.693,-1.34 2.92,-1.34 1.466,0 2.506,0.613 3.12,1.84 0.32,-0.561 0.777,-1.007 1.37,-1.34 0.593,-0.334 1.257,-0.5 1.99,-0.5 1.093,0 1.986,0.373 2.68,1.119 0.693,0.747 1.04,1.827 1.04,3.24 v 5.78 c 0,0.134 -0.043,0.243 -0.13,0.33 -0.087,0.087 -0.197,0.13 -0.33,0.13 h -0.86 c -0.133,0 -0.244,-0.043 -0.33,-0.13 -0.087,-0.087 -0.13,-0.196 -0.13,-0.33 v -5.6 c 0,-1.067 -0.22,-1.83 -0.66,-2.29 -0.44,-0.46 -1.02,-0.69 -1.74,-0.69 -0.64,0 -1.19,0.237 -1.65,0.71 -0.46,0.474 -0.69,1.23 -0.69,2.271 v 5.6 c 0,0.134 -0.043,0.243 -0.13,0.33 -0.087,0.087 -0.197,0.13 -0.33,0.13 h -0.88 c -0.133,0 -0.244,-0.043 -0.33,-0.13 -0.087,-0.087 -0.13,-0.196 -0.13,-0.33 v -5.6 c 0,-1.054 -0.23,-1.813 -0.69,-2.28 -0.46,-0.467 -1.03,-0.7 -1.71,-0.7 -0.64,0 -1.19,0.233 -1.65,0.7 -0.46,0.467 -0.69,1.22 -0.69,2.26 v 5.62 c 0,0.134 -0.043,0.243 -0.13,0.33 -0.087,0.087 -0.197,0.13 -0.33,0.13 h -0.88 c -0.134,-10e-4 -0.244,-0.044 -0.33,-0.131 z"
   id="path193" />
						<path
   fill="#00b9d2"
   d="m 267.801,741.25 c -0.087,-0.087 -0.13,-0.196 -0.13,-0.33 v -9.48 c 0,-0.133 0.043,-0.243 0.13,-0.329 0.087,-0.087 0.197,-0.131 0.33,-0.131 h 0.84 c 0.133,0 0.24,0.044 0.32,0.131 0.08,0.086 0.12,0.196 0.12,0.329 v 0.681 c 0.72,-0.894 1.693,-1.34 2.92,-1.34 1.466,0 2.506,0.613 3.12,1.84 0.32,-0.561 0.777,-1.007 1.37,-1.34 0.593,-0.334 1.257,-0.5 1.99,-0.5 1.093,0 1.986,0.373 2.68,1.119 0.693,0.747 1.04,1.827 1.04,3.24 v 5.78 c 0,0.134 -0.043,0.243 -0.13,0.33 -0.087,0.087 -0.197,0.13 -0.33,0.13 h -0.86 c -0.133,0 -0.244,-0.043 -0.33,-0.13 -0.087,-0.087 -0.13,-0.196 -0.13,-0.33 v -5.6 c 0,-1.067 -0.22,-1.83 -0.66,-2.29 -0.44,-0.46 -1.02,-0.69 -1.74,-0.69 -0.64,0 -1.19,0.237 -1.65,0.71 -0.46,0.474 -0.69,1.23 -0.69,2.271 v 5.6 c 0,0.134 -0.043,0.243 -0.13,0.33 -0.087,0.087 -0.197,0.13 -0.33,0.13 h -0.88 c -0.133,0 -0.244,-0.043 -0.33,-0.13 -0.087,-0.087 -0.13,-0.196 -0.13,-0.33 v -5.6 c 0,-1.054 -0.23,-1.813 -0.69,-2.28 -0.46,-0.467 -1.03,-0.7 -1.71,-0.7 -0.64,0 -1.19,0.233 -1.65,0.7 -0.46,0.467 -0.69,1.22 -0.69,2.26 v 5.62 c 0,0.134 -0.043,0.243 -0.13,0.33 -0.087,0.087 -0.197,0.13 -0.33,0.13 h -0.88 c -0.133,-10e-4 -0.243,-0.044 -0.33,-0.131 z"
   id="path195" />
					</g>
				</g>
			</g>
		</g>
		<g
   id="g244">
			<g
   id="POLYLINE_75_">
				
					<polyline
   fill="none"
   stroke="#00b9d2"
   stroke-width="2"
   stroke-linecap="round"
   stroke-linejoin="round"
   stroke-miterlimit="10"
   points="      942.784,78.3 936.421,71.937 930.057,78.3     "
   id="polyline204" />
			</g>
			<g
   id="POLYLINE_74_">
				
					<line
   fill="none"
   stroke="#00b9d2"
   stroke-width="2"
   stroke-linecap="round"
   stroke-linejoin="round"
   stroke-miterlimit="10"
   x1="936.42102"
   y1="72.120003"
   x2="936.42102"
   y2="704.88397"
   id="line207" />
			</g>
			<g
   id="POLYLINE_69_">
				
					<polyline
   fill="none"
   stroke="#00b9d2"
   stroke-width="2"
   stroke-linecap="round"
   stroke-linejoin="round"
   stroke-miterlimit="10"
   points="      942.772,698.507 936.409,704.871 930.046,698.507     "
   id="polyline210" />
			</g>
			<g
   id="MTEXT_13_">
				<g
   id="g241">
					<g
   id="g239">
						<path
   fill="#00b9d2"
   d="m 796.146,52.93 c -0.78,-0.433 -1.374,-1.017 -1.78,-1.75 -0.406,-0.733 -0.61,-1.533 -0.61,-2.399 0,-1.146 0.46,-2.373 1.38,-3.681 l 3.82,-5.319 c 0.013,-0.014 0.05,-0.061 0.11,-0.141 0.06,-0.08 0.137,-0.143 0.23,-0.189 0.093,-0.046 0.2,-0.07 0.32,-0.07 h 0.98 c 0.12,0 0.217,0.043 0.29,0.13 0.073,0.087 0.11,0.19 0.11,0.311 0,0.066 -0.034,0.153 -0.1,0.26 l -2.92,4.08 c 0.346,-0.08 0.733,-0.12 1.16,-0.12 0.973,0 1.83,0.217 2.57,0.649 0.74,0.434 1.313,1.007 1.72,1.721 0.407,0.713 0.61,1.497 0.61,2.35 0,0.854 -0.203,1.65 -0.61,2.39 -0.407,0.74 -0.997,1.33 -1.77,1.771 -0.773,0.441 -1.687,0.66 -2.74,0.66 -1.067,-0.002 -1.99,-0.219 -2.77,-0.653 z m 4.37,-1.37 c 0.493,-0.239 0.886,-0.597 1.18,-1.069 0.293,-0.474 0.44,-1.044 0.44,-1.71 0,-0.653 -0.15,-1.217 -0.45,-1.69 -0.3,-0.473 -0.697,-0.833 -1.19,-1.08 -0.494,-0.246 -1.027,-0.37 -1.6,-0.37 -0.574,0 -1.107,0.124 -1.6,0.37 -0.494,0.247 -0.887,0.607 -1.18,1.08 -0.293,0.474 -0.44,1.037 -0.44,1.69 0,0.666 0.146,1.236 0.44,1.71 0.293,0.473 0.687,0.83 1.18,1.069 0.493,0.24 1.026,0.36 1.6,0.36 0.586,0 1.126,-0.12 1.62,-0.36 z"
   id="path213" />
						<path
   fill="#00b9d2"
   d="m 806.266,53.25 c -0.087,-0.087 -0.13,-0.196 -0.13,-0.33 v -1.38 c 0,-0.133 0.043,-0.247 0.13,-0.34 0.086,-0.094 0.196,-0.141 0.33,-0.141 h 1.38 c 0.133,0 0.243,0.047 0.33,0.141 0.087,0.093 0.13,0.207 0.13,0.34 v 1.38 c 0,0.134 -0.043,0.243 -0.13,0.33 -0.086,0.087 -0.197,0.13 -0.33,0.13 h -1.38 c -0.134,0 -0.243,-0.043 -0.33,-0.13 z"
   id="path215" />
						<path
   fill="#00b9d2"
   d="m 812.996,53.041 c -0.734,-0.36 -1.293,-0.83 -1.68,-1.41 -0.387,-0.58 -0.593,-1.203 -0.62,-1.87 v -0.04 c 0,-0.106 0.04,-0.193 0.12,-0.26 0.08,-0.067 0.173,-0.1 0.28,-0.1 h 0.98 c 0.28,0 0.46,0.146 0.54,0.439 0.2,0.72 0.57,1.257 1.11,1.61 0.54,0.353 1.163,0.529 1.87,0.529 0.907,0 1.66,-0.276 2.26,-0.829 0.6,-0.554 0.9,-1.317 0.9,-2.29 0,-0.894 -0.3,-1.604 -0.9,-2.131 -0.6,-0.526 -1.354,-0.79 -2.26,-0.79 -0.48,0 -0.867,0.061 -1.16,0.181 -0.293,0.12 -0.594,0.293 -0.9,0.52 -0.173,0.134 -0.316,0.23 -0.43,0.29 -0.113,0.061 -0.237,0.09 -0.37,0.09 h -0.96 c -0.12,0 -0.227,-0.043 -0.32,-0.13 -0.094,-0.086 -0.134,-0.189 -0.12,-0.31 l 0.62,-6.66 c 0.04,-0.333 0.207,-0.5 0.5,-0.5 h 6.92 c 0.146,0 0.26,0.04 0.34,0.12 0.08,0.08 0.12,0.193 0.12,0.34 v 0.74 c 0,0.133 -0.043,0.24 -0.13,0.319 -0.087,0.08 -0.197,0.12 -0.33,0.12 h -5.76 l -0.36,4.021 c 0.64,-0.453 1.5,-0.68 2.58,-0.68 0.893,0 1.707,0.177 2.44,0.529 0.733,0.354 1.316,0.87 1.75,1.55 0.433,0.681 0.65,1.487 0.65,2.421 0,0.986 -0.217,1.836 -0.65,2.55 -0.434,0.713 -1.033,1.253 -1.8,1.62 -0.767,0.366 -1.644,0.55 -2.63,0.55 -1,0.001 -1.867,-0.18 -2.6,-0.539 z"
   id="path217" />
						<path
   fill="#00b9d2"
   d="m 824.326,53.25 c -0.073,-0.087 -0.11,-0.19 -0.11,-0.311 l 0.04,-0.18 5,-11.7 h -6.6 c -0.133,0 -0.244,-0.043 -0.33,-0.13 -0.087,-0.086 -0.13,-0.196 -0.13,-0.33 V 39.86 c 0,-0.147 0.04,-0.264 0.12,-0.351 0.08,-0.087 0.193,-0.13 0.34,-0.13 h 8.16 c 0.146,0 0.26,0.043 0.34,0.13 0.08,0.087 0.12,0.203 0.12,0.351 v 0.68 c 0,0.24 -0.054,0.5 -0.16,0.78 l -4.94,11.56 c -0.067,0.146 -0.14,0.267 -0.22,0.36 -0.08,0.093 -0.193,0.14 -0.34,0.14 h -1 c -0.12,0 -0.217,-0.043 -0.29,-0.13 z"
   id="path219" />
						<path
   fill="#00b9d2"
   d="m 833.025,42.861 c -0.06,-0.08 -0.077,-0.181 -0.05,-0.301 l 0.44,-2.8 c 0.053,-0.387 0.24,-0.58 0.56,-0.58 h 1.28 c 0.093,0 0.17,0.033 0.23,0.101 0.06,0.066 0.09,0.146 0.09,0.239 0,0.134 -0.02,0.24 -0.06,0.32 l -1.04,2.7 c -0.067,0.146 -0.14,0.257 -0.22,0.33 -0.08,0.073 -0.2,0.109 -0.36,0.109 h -0.62 c -0.107,10e-4 -0.19,-0.039 -0.25,-0.118 z m 3.141,0 c -0.06,-0.08 -0.077,-0.181 -0.05,-0.301 l 0.44,-2.8 c 0.053,-0.387 0.24,-0.58 0.56,-0.58 h 1.28 c 0.093,0 0.17,0.033 0.23,0.101 0.06,0.066 0.09,0.146 0.09,0.239 0,0.134 -0.02,0.24 -0.06,0.32 l -1.04,2.7 c -0.067,0.146 -0.14,0.257 -0.22,0.33 -0.08,0.073 -0.2,0.109 -0.36,0.109 h -0.62 c -0.107,10e-4 -0.19,-0.039 -0.25,-0.118 z"
   id="path221" />
						<path
   fill="#00b9d2"
   d="m 846.035,57.411 c -0.08,-0.087 -0.12,-0.197 -0.12,-0.33 V 35.92 c 0,-0.133 0.04,-0.243 0.12,-0.33 0.08,-0.087 0.187,-0.13 0.32,-0.13 h 0.74 c 0.133,0 0.243,0.043 0.33,0.13 0.087,0.087 0.13,0.197 0.13,0.33 v 21.16 c 0,0.133 -0.043,0.243 -0.13,0.33 -0.086,0.086 -0.197,0.13 -0.33,0.13 h -0.74 c -0.133,10e-4 -0.24,-0.043 -0.32,-0.129 z"
   id="path223" />
						<path
   fill="#00b9d2"
   d="m 859.155,53.25 c -0.08,-0.087 -0.12,-0.196 -0.12,-0.33 V 41.64 l -3.36,2.58 c -0.094,0.08 -0.194,0.12 -0.3,0.12 -0.12,0 -0.233,-0.066 -0.34,-0.2 l -0.48,-0.62 c -0.067,-0.093 -0.1,-0.187 -0.1,-0.279 0,-0.146 0.066,-0.267 0.2,-0.36 l 4.34,-3.36 c 0.146,-0.093 0.32,-0.14 0.52,-0.14 h 0.94 c 0.133,0 0.243,0.043 0.33,0.13 0.086,0.087 0.13,0.197 0.13,0.33 v 13.08 c 0,0.134 -0.043,0.243 -0.13,0.33 -0.087,0.087 -0.197,0.13 -0.33,0.13 h -0.98 c -0.134,-10e-4 -0.241,-0.044 -0.32,-0.131 z"
   id="path225" />
						<path
   fill="#00b9d2"
   d="m 865.824,52.93 c -0.78,-0.433 -1.374,-1.017 -1.78,-1.75 -0.406,-0.733 -0.61,-1.533 -0.61,-2.399 0,-1.146 0.46,-2.373 1.38,-3.681 l 3.82,-5.319 c 0.013,-0.014 0.05,-0.061 0.11,-0.141 0.06,-0.08 0.137,-0.143 0.23,-0.189 0.093,-0.046 0.2,-0.07 0.32,-0.07 h 0.98 c 0.12,0 0.217,0.043 0.29,0.13 0.073,0.087 0.11,0.19 0.11,0.311 0,0.066 -0.034,0.153 -0.1,0.26 l -2.92,4.08 c 0.346,-0.08 0.733,-0.12 1.16,-0.12 0.973,0 1.83,0.217 2.57,0.649 0.74,0.434 1.313,1.007 1.72,1.721 0.407,0.713 0.61,1.497 0.61,2.35 0,0.854 -0.203,1.65 -0.61,2.39 -0.407,0.74 -0.997,1.33 -1.77,1.771 -0.773,0.441 -1.687,0.66 -2.74,0.66 -1.067,-0.002 -1.99,-0.219 -2.77,-0.653 z m 4.37,-1.37 c 0.493,-0.239 0.886,-0.597 1.18,-1.069 0.293,-0.474 0.44,-1.044 0.44,-1.71 0,-0.653 -0.15,-1.217 -0.45,-1.69 -0.3,-0.473 -0.697,-0.833 -1.19,-1.08 -0.494,-0.246 -1.027,-0.37 -1.6,-0.37 -0.574,0 -1.107,0.124 -1.6,0.37 -0.494,0.247 -0.887,0.607 -1.18,1.08 -0.293,0.474 -0.44,1.037 -0.44,1.69 0,0.666 0.146,1.236 0.44,1.71 0.293,0.473 0.687,0.83 1.18,1.069 0.493,0.24 1.026,0.36 1.6,0.36 0.587,0 1.127,-0.12 1.62,-0.36 z"
   id="path227" />
						<path
   fill="#00b9d2"
   d="m 877.824,52.93 c -0.78,-0.433 -1.374,-1.017 -1.78,-1.75 -0.406,-0.733 -0.61,-1.533 -0.61,-2.399 0,-1.146 0.46,-2.373 1.38,-3.681 l 3.82,-5.319 c 0.013,-0.014 0.05,-0.061 0.11,-0.141 0.06,-0.08 0.137,-0.143 0.23,-0.189 0.093,-0.046 0.2,-0.07 0.32,-0.07 h 0.98 c 0.12,0 0.217,0.043 0.29,0.13 0.073,0.087 0.11,0.19 0.11,0.311 0,0.066 -0.034,0.153 -0.1,0.26 l -2.92,4.08 c 0.346,-0.08 0.733,-0.12 1.16,-0.12 0.973,0 1.83,0.217 2.57,0.649 0.74,0.434 1.313,1.007 1.72,1.721 0.407,0.713 0.61,1.497 0.61,2.35 0,0.854 -0.203,1.65 -0.61,2.39 -0.407,0.74 -0.997,1.33 -1.77,1.771 -0.773,0.441 -1.687,0.66 -2.74,0.66 -1.067,-0.002 -1.99,-0.219 -2.77,-0.653 z m 4.37,-1.37 c 0.493,-0.239 0.886,-0.597 1.18,-1.069 0.293,-0.474 0.44,-1.044 0.44,-1.71 0,-0.653 -0.15,-1.217 -0.45,-1.69 -0.3,-0.473 -0.697,-0.833 -1.19,-1.08 -0.494,-0.246 -1.027,-0.37 -1.6,-0.37 -0.574,0 -1.107,0.124 -1.6,0.37 -0.494,0.247 -0.887,0.607 -1.18,1.08 -0.293,0.474 -0.44,1.037 -0.44,1.69 0,0.666 0.146,1.236 0.44,1.71 0.293,0.473 0.687,0.83 1.18,1.069 0.493,0.24 1.026,0.36 1.6,0.36 0.587,0 1.127,-0.12 1.62,-0.36 z"
   id="path229" />
						<path
   fill="#00b9d2"
   d="m 887.944,53.25 c -0.087,-0.087 -0.13,-0.196 -0.13,-0.33 v -1.38 c 0,-0.133 0.043,-0.247 0.13,-0.34 0.086,-0.094 0.196,-0.141 0.33,-0.141 h 1.38 c 0.133,0 0.243,0.047 0.33,0.141 0.087,0.093 0.13,0.207 0.13,0.34 v 1.38 c 0,0.134 -0.043,0.243 -0.13,0.33 -0.086,0.087 -0.197,0.13 -0.33,0.13 h -1.38 c -0.134,0 -0.244,-0.043 -0.33,-0.13 z"
   id="path231" />
						<path
   fill="#00b9d2"
   d="m 894.144,53.25 c -0.073,-0.087 -0.11,-0.19 -0.11,-0.311 0,-0.093 0.026,-0.18 0.08,-0.26 l 3.08,-4.28 c -0.32,0.08 -0.693,0.12 -1.12,0.12 -0.96,-0.013 -1.8,-0.236 -2.52,-0.67 -0.72,-0.433 -1.27,-1 -1.65,-1.7 -0.38,-0.699 -0.57,-1.449 -0.57,-2.25 0,-0.8 0.19,-1.56 0.57,-2.279 0.38,-0.721 0.946,-1.307 1.7,-1.76 0.754,-0.453 1.663,-0.681 2.73,-0.681 1.067,0 1.98,0.22 2.74,0.66 0.76,0.44 1.333,1.017 1.72,1.73 0.386,0.713 0.58,1.477 0.58,2.29 0,0.733 -0.13,1.38 -0.39,1.939 -0.26,0.561 -0.604,1.14 -1.03,1.74 l -3.88,5.439 c -0.093,0.12 -0.184,0.217 -0.27,0.29 -0.087,0.074 -0.21,0.11 -0.37,0.11 h -1 c -0.121,0.003 -0.217,-0.04 -0.29,-0.127 z m 3.77,-6.69 c 0.48,-0.253 0.86,-0.609 1.14,-1.069 0.28,-0.46 0.42,-0.99 0.42,-1.591 0,-0.612 -0.14,-1.152 -0.42,-1.619 -0.28,-0.467 -0.66,-0.827 -1.14,-1.08 -0.48,-0.254 -1.007,-0.38 -1.58,-0.38 -0.56,0 -1.077,0.126 -1.55,0.38 -0.474,0.253 -0.85,0.613 -1.13,1.08 -0.28,0.467 -0.42,1.007 -0.42,1.619 0,0.601 0.14,1.131 0.42,1.591 0.28,0.46 0.653,0.816 1.12,1.069 0.466,0.254 0.986,0.38 1.56,0.38 0.574,0 1.1,-0.126 1.58,-0.38 z"
   id="path233" />
						<path
   fill="#00b9d2"
   d="m 908.923,53.25 c -0.087,-0.087 -0.13,-0.196 -0.13,-0.33 v -9.48 c 0,-0.133 0.043,-0.243 0.13,-0.329 0.087,-0.087 0.197,-0.131 0.33,-0.131 h 0.84 c 0.133,0 0.24,0.044 0.32,0.131 0.08,0.086 0.12,0.196 0.12,0.329 v 0.681 c 0.72,-0.894 1.693,-1.34 2.92,-1.34 1.466,0 2.506,0.613 3.12,1.84 0.32,-0.561 0.777,-1.007 1.37,-1.34 0.593,-0.334 1.257,-0.5 1.99,-0.5 1.093,0 1.986,0.373 2.68,1.119 0.693,0.747 1.04,1.827 1.04,3.24 v 5.78 c 0,0.134 -0.043,0.243 -0.13,0.33 -0.087,0.087 -0.197,0.13 -0.33,0.13 h -0.86 c -0.133,0 -0.244,-0.043 -0.33,-0.13 -0.087,-0.087 -0.13,-0.196 -0.13,-0.33 v -5.6 c 0,-1.067 -0.22,-1.83 -0.66,-2.29 -0.44,-0.46 -1.02,-0.69 -1.74,-0.69 -0.64,0 -1.19,0.237 -1.65,0.71 -0.46,0.474 -0.69,1.23 -0.69,2.271 v 5.6 c 0,0.134 -0.043,0.243 -0.13,0.33 -0.087,0.087 -0.197,0.13 -0.33,0.13 h -0.88 c -0.133,0 -0.244,-0.043 -0.33,-0.13 -0.087,-0.087 -0.13,-0.196 -0.13,-0.33 v -5.6 c 0,-1.054 -0.23,-1.813 -0.69,-2.28 -0.46,-0.467 -1.03,-0.7 -1.71,-0.7 -0.64,0 -1.19,0.233 -1.65,0.7 -0.46,0.467 -0.69,1.22 -0.69,2.26 v 5.62 c 0,0.134 -0.043,0.243 -0.13,0.33 -0.087,0.087 -0.197,0.13 -0.33,0.13 h -0.88 c -0.133,-10e-4 -0.243,-0.044 -0.33,-0.131 z"
   id="path235" />
						<path
   fill="#00b9d2"
   d="m 926.683,53.25 c -0.087,-0.087 -0.13,-0.196 -0.13,-0.33 v -9.48 c 0,-0.133 0.043,-0.243 0.13,-0.329 0.087,-0.087 0.197,-0.131 0.33,-0.131 h 0.84 c 0.133,0 0.24,0.044 0.32,0.131 0.08,0.086 0.12,0.196 0.12,0.329 v 0.681 c 0.72,-0.894 1.693,-1.34 2.92,-1.34 1.466,0 2.506,0.613 3.12,1.84 0.32,-0.561 0.777,-1.007 1.37,-1.34 0.593,-0.334 1.257,-0.5 1.99,-0.5 1.093,0 1.986,0.373 2.68,1.119 0.693,0.747 1.04,1.827 1.04,3.24 v 5.78 c 0,0.134 -0.043,0.243 -0.13,0.33 -0.087,0.087 -0.197,0.13 -0.33,0.13 h -0.86 c -0.133,0 -0.244,-0.043 -0.33,-0.13 -0.087,-0.087 -0.13,-0.196 -0.13,-0.33 v -5.6 c 0,-1.067 -0.22,-1.83 -0.66,-2.29 -0.44,-0.46 -1.02,-0.69 -1.74,-0.69 -0.64,0 -1.19,0.237 -1.65,0.71 -0.46,0.474 -0.69,1.23 -0.69,2.271 v 5.6 c 0,0.134 -0.043,0.243 -0.13,0.33 -0.087,0.087 -0.197,0.13 -0.33,0.13 h -0.88 c -0.133,0 -0.244,-0.043 -0.33,-0.13 -0.087,-0.087 -0.13,-0.196 -0.13,-0.33 v -5.6 c 0,-1.054 -0.23,-1.813 -0.69,-2.28 -0.46,-0.467 -1.03,-0.7 -1.71,-0.7 -0.64,0 -1.19,0.233 -1.65,0.7 -0.46,0.467 -0.69,1.22 -0.69,2.26 v 5.62 c 0,0.134 -0.043,0.243 -0.13,0.33 -0.087,0.087 -0.197,0.13 -0.33,0.13 h -0.88 c -0.133,-10e-4 -0.243,-0.044 -0.33,-0.131 z"
   id="path237" />
					</g>
				</g>
			</g>
		</g>
	</g>
</g>


<polygon
   fill="none"
   stroke="#00b9d2"
   stroke-width="2.75"
   stroke-linecap="round"
   stroke-linejoin="round"
   stroke-miterlimit="10"
   points="354.491,79.95 354.792,79.972 355.094,79.997 355.397,80.026 355.701,80.059 356.006,80.095 356.312,80.135 356.618,80.179 356.925,80.227 357.233,80.278 357.541,80.333 357.849,80.392 358.158,80.455 358.468,80.522 358.777,80.592 359.087,80.667 359.397,80.746 359.706,80.828 360.016,80.915 360.326,81.006 360.635,81.1 360.945,81.199 361.254,81.302 361.562,81.409 361.87,81.52 362.178,81.635 362.485,81.755 362.791,81.878 363.096,82.006 363.401,82.137 363.704,82.273 364.007,82.413 364.308,82.557 364.608,82.705 364.907,82.857 365.205,83.013 365.501,83.174 365.795,83.338 366.088,83.506 366.379,83.679 366.669,83.855 366.957,84.035 367.242,84.219 367.526,84.407 367.808,84.599 368.087,84.795 368.364,84.995 368.639,85.198 368.912,85.405 369.182,85.616 369.449,85.83 369.714,86.048 369.976,86.269 370.236,86.494 370.492,86.723 370.746,86.954 370.997,87.189 371.245,87.428 371.489,87.669 371.731,87.914 371.969,88.162 372.204,88.413 372.436,88.666 372.664,88.923 372.889,89.182 373.111,89.445 373.329,89.709 373.543,89.977 373.754,90.247 373.961,90.52 374.164,90.794 374.364,91.072 374.559,91.351 374.751,91.633 374.939,91.916 375.124,92.202 375.304,92.49 375.48,92.779 375.652,93.071 375.821,93.363 375.985,93.658 376.145,93.954 376.302,94.252 376.454,94.55 376.602,94.851 376.746,95.152 376.886,95.454 377.021,95.758 377.153,96.062 377.281,96.368 377.404,96.674 377.523,96.981 377.639,97.288 377.75,97.596 377.857,97.905 377.959,98.214 378.058,98.523 378.153,98.833 378.244,99.142 378.33,99.452 378.413,99.762 378.492,100.072 378.566,100.382 378.637,100.691 378.704,101 378.767,101.309 378.826,101.618 378.881,101.926 378.932,102.234 378.98,102.54 379.023,102.847 379.063,103.152 379.1,103.457 379.132,103.761 379.162,104.064 379.187,104.367 379.209,104.668 379.228,104.968 379.243,105.267 379.254,105.565 379.262,105.862 379.267,106.157 379.269,106.451 379.269,668.171 379.267,668.465 379.262,668.761 379.254,669.057 379.243,669.355 379.228,669.654 379.209,669.954 379.187,670.256 379.162,670.558 379.132,670.861 379.1,671.165 379.063,671.47 379.023,671.775 378.98,672.082 378.932,672.389 378.881,672.696 378.826,673.004 378.767,673.313 378.704,673.622 378.637,673.931 378.566,674.24 378.492,674.55 378.413,674.86 378.33,675.17 378.244,675.48 378.153,675.789 378.058,676.099 377.959,676.408 377.857,676.717 377.75,677.026 377.639,677.334 377.523,677.641 377.404,677.948 377.281,678.254 377.153,678.56 377.021,678.864 376.886,679.168 376.746,679.47 376.602,679.772 376.454,680.072 376.302,680.371 376.145,680.668 375.985,680.964 375.821,681.259 375.652,681.552 375.48,681.843 375.304,682.132 375.124,682.42 374.939,682.706 374.751,682.989 374.559,683.271 374.364,683.55 374.164,683.828 373.961,684.103 373.754,684.375 373.543,684.645 373.329,684.913 373.111,685.178 372.889,685.44 372.664,685.699 372.436,685.956 372.204,686.21 371.969,686.46 371.731,686.708 371.489,686.953 371.245,687.194 370.997,687.433 370.746,687.668 370.492,687.899 370.236,688.128 369.976,688.353 369.714,688.574 369.449,688.792 369.182,689.006 368.912,689.217 368.639,689.424 368.364,689.627 368.087,689.827 367.808,690.023 367.526,690.215 367.242,690.403 366.957,690.587 366.669,690.767 366.379,690.944 366.088,691.116 365.795,691.284 365.501,691.449 365.205,691.609 364.907,691.765 364.608,691.917 364.308,692.065 364.007,692.209 363.704,692.349 363.401,692.485 363.096,692.617 362.791,692.744 362.485,692.867 362.178,692.987 361.87,693.102 361.562,693.213 361.254,693.32 360.945,693.423 360.635,693.522 360.326,693.616 360.016,693.707 359.706,693.794 359.397,693.876 359.087,693.955 358.777,694.03 358.468,694.1 358.158,694.167 357.849,694.23 357.541,694.289 357.233,694.344 356.925,694.395 356.618,694.443 356.312,694.487 356.006,694.527 355.701,694.563 355.397,694.596 355.094,694.625 354.792,694.651 354.491,694.672 354.191,694.691 353.892,694.706 353.594,694.718 353.297,694.726 353.002,694.731 352.708,694.732 130.446,694.732 130.152,694.731 129.857,694.726 129.56,694.718 129.262,694.706 128.963,694.691 128.663,694.672 128.362,694.651 128.06,694.625 127.756,694.596 127.452,694.563 127.148,694.527 126.842,694.487 126.536,694.443 126.229,694.395 125.921,694.344 125.613,694.289 125.305,694.23 124.996,694.167 124.686,694.1 124.377,694.03 124.067,693.955 123.757,693.876 123.448,693.794 123.138,693.707 122.828,693.616 122.518,693.522 122.209,693.423 121.9,693.32 121.592,693.213 121.284,693.102 120.976,692.987 120.669,692.867 120.363,692.744 120.058,692.617 119.753,692.485 119.45,692.349 119.147,692.209 118.846,692.065 118.546,691.917 118.247,691.765 117.949,691.609 117.653,691.449 117.359,691.284 117.066,691.116 116.774,690.944 116.485,690.767 116.197,690.587 115.912,690.403 115.628,690.215 115.346,690.023 115.067,689.827 114.79,689.627 114.515,689.424 114.242,689.217 113.972,689.006 113.705,688.792 113.44,688.574 113.178,688.353 112.918,688.128 112.662,687.899 112.408,687.668 112.157,687.433 111.909,687.194 111.665,686.953 111.423,686.708 111.185,686.46 110.95,686.21 110.718,685.956 110.49,685.699 110.265,685.44 110.043,685.178 109.825,684.913 109.611,684.645 109.4,684.375 109.193,684.103 108.99,683.828 108.79,683.55 108.595,683.271 108.403,682.989 108.215,682.706 108.03,682.42 107.85,682.132 107.674,681.843 107.501,681.552 107.333,681.259 107.169,680.964 107.008,680.668 106.852,680.371 106.7,680.072 106.552,679.772 106.408,679.47 106.268,679.168 106.132,678.864 106.001,678.56 105.873,678.254 105.75,677.948 105.631,677.641 105.515,677.334 105.404,677.026 105.297,676.717 105.194,676.408 105.096,676.099 105.001,675.789 104.91,675.48 104.824,675.17 104.741,674.86 104.662,674.55 104.588,674.24 104.517,673.931 104.45,673.622 104.387,673.313 104.328,673.004 104.273,672.696 104.222,672.389 104.174,672.082 104.131,671.775 104.091,671.47 104.054,671.165 104.021,670.861 103.992,670.558 103.967,670.256 103.945,669.954 103.926,669.654 103.911,669.355 103.9,669.057 103.891,668.761 103.887,668.465 103.885,668.171 103.885,106.451 103.887,106.157 103.891,105.862 103.9,105.565 103.911,105.267 103.926,104.968 103.945,104.668 103.967,104.367 103.992,104.064 104.021,103.761 104.054,103.457 104.091,103.152 104.131,102.847 104.174,102.54 104.222,102.234 104.273,101.926 104.328,101.618 104.387,101.309 104.45,101 104.517,100.691 104.588,100.382 104.662,100.072 104.741,99.762 104.824,99.452 104.91,99.142 105.001,98.833 105.096,98.523 105.194,98.214 105.297,97.905 105.404,97.596 105.515,97.288 105.631,96.981 105.75,96.674 105.873,96.368 106.001,96.062 106.132,95.758 106.268,95.454 106.408,95.152 106.552,94.851 106.7,94.55 106.852,94.252 107.008,93.954 107.169,93.658 107.333,93.363 107.501,93.071 107.674,92.779 107.85,92.49 108.03,92.202 108.215,91.916 108.403,91.633 108.595,91.351 108.79,91.072 108.99,90.794 109.193,90.52 109.4,90.247 109.611,89.977 109.825,89.709 110.043,89.445 110.265,89.182 110.49,88.923 110.718,88.666 110.95,88.413 111.185,88.162 111.423,87.914 111.665,87.669 111.909,87.428 112.157,87.189 112.408,86.954 112.662,86.723 112.918,86.494 113.178,86.269 113.44,86.048 113.705,85.83 113.972,85.616 114.242,85.405 114.515,85.198 114.79,84.995 115.067,84.795 115.346,84.599 115.628,84.407 115.912,84.219 116.197,84.035 116.485,83.855 116.774,83.679 117.066,83.506 117.359,83.338 117.653,83.174 117.949,83.013 118.247,82.857 118.546,82.705 118.846,82.557 119.147,82.413 119.45,82.273 119.753,82.137 120.058,82.006 120.363,81.878 120.669,81.755 120.976,81.635 121.284,81.52 121.592,81.409 121.9,81.302 122.209,81.199 122.518,81.1 122.828,81.006 123.138,80.915 123.448,80.828 123.757,80.746 124.067,80.667 124.377,80.592 124.686,80.522 124.996,80.455 125.305,80.392 125.613,80.333 125.921,80.278 126.229,80.227 126.536,80.179 126.842,80.135 127.148,80.095 127.452,80.059 127.756,80.026 128.06,79.997 128.362,79.972 128.663,79.95 128.963,79.931 129.262,79.916 129.56,79.905 129.857,79.896 130.152,79.891 130.446,79.89 352.708,79.89 353.002,79.891 353.297,79.896 353.594,79.905 353.892,79.916 354.191,79.931 "
   id="polygon314"
   transform="translate(-95.174,-70.174)"
   style="stroke:#000000;stroke-opacity:1" /><rect
   x="291.259"
   y="234.38499"
   fill="none"
   stroke="#00b9d2"
   stroke-width="2.75"
   stroke-linecap="round"
   stroke-linejoin="round"
   stroke-miterlimit="10"
   width="2.858"
   height="40.396"
   id="rect317"
   style="stroke:#000000;stroke-opacity:1" /><rect
   x="291.259"
   y="121.266"
   fill="none"
   stroke="#00b9d2"
   stroke-width="2.75"
   stroke-linecap="round"
   stroke-linejoin="round"
   stroke-miterlimit="10"
   width="2.858"
   height="76.352997"
   id="rect320"
   style="stroke:#000000;stroke-opacity:1" /><path
   fill="none"
   stroke="#00b9d2"
   stroke-width="2.75"
   stroke-linecap="round"
   stroke-linejoin="round"
   stroke-miterlimit="10"
   d="m 153.477,22.099 c 0.01,-3.201 -2.202,-6.043 -5.308,-6.819 -4.421,-1.113 -8.715,2.199 -8.761,6.758 -0.033,4.61 4.29,8.005 8.761,6.881 3.105,-0.777 5.318,-3.619 5.308,-6.82 z"
   id="path323"
   style="stroke:#000000;stroke-opacity:1" /><polyline
   fill="none"
   stroke="#00b9d2"
   stroke-width="2.75"
   stroke-linecap="round"
   stroke-linejoin="round"
   stroke-miterlimit="10"
   points="    386.433,672.759 386.428,673.272 386.415,673.786 386.393,674.299 386.362,674.811 386.322,675.323 386.273,675.835     386.216,676.345 386.15,676.854 386.075,677.362 385.991,677.869 385.898,678.374 385.797,678.878 385.687,679.379     385.568,679.879 385.441,680.377 385.305,680.872 385.161,681.365 385.008,681.855 384.847,682.343 384.677,682.827     384.499,683.309 384.313,683.788 384.119,684.263 383.916,684.735 383.705,685.203 383.486,685.668 383.26,686.129     383.025,686.586 382.782,687.038 382.532,687.487 382.274,687.931 382.008,688.37 381.735,688.805 381.454,689.235     381.166,689.66 380.871,690.08 380.568,690.495 380.259,690.905 379.942,691.309 379.618,691.708 379.288,692.101 378.95,692.488     378.607,692.87 378.256,693.245 377.899,693.615 377.536,693.978 377.167,694.335 376.791,694.685 376.41,695.029     376.023,695.366 375.629,695.697 375.231,696.02 374.826,696.337 374.417,696.647 374.002,696.949 373.582,697.245     373.156,697.533 372.726,697.814 372.292,698.087 371.852,698.352 371.408,698.611 370.96,698.861 370.507,699.104     370.05,699.338 369.589,699.565 369.125,699.784 368.656,699.995 368.185,700.197 367.709,700.392 367.231,700.578     366.749,700.756 366.264,700.926 365.776,701.087 365.286,701.24 364.793,701.384 364.298,701.52 363.8,701.647 363.301,701.766     362.799,701.875 362.296,701.977 361.79,702.069 361.284,702.153 360.776,702.228 360.266,702.295 359.756,702.352     359.245,702.401 358.733,702.441 358.22,702.472 357.707,702.494 357.194,702.507 356.68,702.512 126.552,702.512     126.038,702.507 125.525,702.494 125.012,702.472 124.499,702.441 123.987,702.401 123.476,702.352 122.965,702.295     122.456,702.228 121.948,702.153 121.441,702.069 120.936,701.977 120.433,701.875 119.931,701.766 119.431,701.647     118.934,701.52 118.438,701.384 117.946,701.24 117.455,701.087 116.968,700.926 116.483,700.756 116.001,700.578     115.523,700.392 115.047,700.197 114.575,699.995 114.107,699.784 113.642,699.565 113.182,699.338 112.725,699.104     112.272,698.861 111.824,698.611 111.38,698.352 110.94,698.087 110.505,697.814 110.075,697.533 109.65,697.245 109.23,696.949     108.815,696.647 108.405,696.337 108.001,696.02 107.602,695.697 107.209,695.366 106.822,695.029 106.44,694.685     106.065,694.335 105.696,693.978 105.332,693.615 104.976,693.245 104.625,692.87 104.281,692.488 103.944,692.101     103.614,691.708 103.29,691.309 102.973,690.905 102.663,690.495 102.361,690.08 102.066,689.66 101.777,689.235 101.497,688.805     101.223,688.37 100.958,687.931 100.7,687.487 100.449,687.038 100.207,686.586 99.972,686.129 99.745,685.668 99.526,685.203     99.316,684.735 99.113,684.263 98.918,683.788 98.732,683.309 98.554,682.827 98.385,682.343 98.223,681.855 98.071,681.365     97.926,680.872 97.791,680.377 97.663,679.879 97.545,679.379 97.435,678.878 97.334,678.374 97.241,677.869 97.157,677.362     97.082,676.854 97.016,676.345 96.958,675.835 96.91,675.323 96.87,674.811 96.839,674.299 96.817,673.786 96.803,673.272     96.799,672.759   "
   id="polyline326"
   transform="translate(-95.174,-70.174)"
   style="stroke:#000000;stroke-opacity:1" /><polyline
   fill="none"
   stroke="#00b9d2"
   stroke-width="2.75"
   stroke-linecap="round"
   stroke-linejoin="round"
   stroke-miterlimit="10"
   points="    96.799,106.111 96.803,105.597 96.817,105.084 96.839,104.571 96.87,104.058 96.91,103.546 96.958,103.035 97.016,102.525     97.082,102.015 97.157,101.507 97.241,101.001 97.334,100.495 97.435,99.992 97.545,99.49 97.663,98.991 97.791,98.493     97.926,97.998 98.071,97.505 98.223,97.015 98.385,96.527 98.554,96.042 98.732,95.56 98.918,95.082 99.113,94.606 99.316,94.135     99.526,93.666 99.745,93.202 99.972,92.741 100.207,92.284 100.449,91.831 100.7,91.383 100.958,90.939 101.223,90.499     101.497,90.065 101.777,89.635 102.066,89.209 102.361,88.789 102.663,88.374 102.973,87.965 103.29,87.56 103.614,87.162     103.944,86.768 104.281,86.381 104.625,86 104.976,85.624 105.332,85.255 105.696,84.892 106.065,84.535 106.44,84.184     106.822,83.841 107.209,83.503 107.602,83.173 108.001,82.849 108.405,82.532 108.815,82.223 109.23,81.92 109.65,81.625     110.075,81.337 110.505,81.056 110.94,80.783 111.38,80.517 111.824,80.259 112.272,80.009 112.725,79.766 113.182,79.531     113.642,79.305 114.107,79.086 114.575,78.875 115.047,78.672 115.523,78.478 116.001,78.292 116.483,78.114 116.968,77.944     117.455,77.783 117.946,77.63 118.438,77.486 118.934,77.35 119.431,77.223 119.931,77.104 120.433,76.994 120.936,76.893     121.441,76.8 121.948,76.716 122.456,76.641 122.965,76.575 123.476,76.517 123.987,76.469 124.499,76.429 125.012,76.398     125.525,76.376 126.038,76.362 126.552,76.358 356.68,76.358 357.194,76.362 357.707,76.376 358.22,76.398 358.733,76.429     359.245,76.469 359.756,76.517 360.266,76.575 360.776,76.641 361.284,76.716 361.79,76.8 362.296,76.893 362.799,76.994     363.301,77.104 363.8,77.223 364.298,77.35 364.793,77.486 365.286,77.63 365.776,77.783 366.264,77.944 366.749,78.114     367.231,78.292 367.709,78.478 368.185,78.672 368.656,78.875 369.125,79.086 369.589,79.305 370.05,79.531 370.507,79.766     370.96,80.009 371.408,80.259 371.852,80.517 372.292,80.783 372.726,81.056 373.156,81.337 373.582,81.625 374.002,81.92     374.417,82.223 374.826,82.532 375.231,82.849 375.629,83.173 376.023,83.503 376.41,83.841 376.791,84.184 377.167,84.535     377.536,84.892 377.899,85.255 378.256,85.624 378.607,86 378.95,86.381 379.288,86.768 379.618,87.162 379.942,87.56     380.259,87.965 380.568,88.374 380.871,88.789 381.166,89.209 381.454,89.635 381.735,90.065 382.008,90.499 382.274,90.939     382.532,91.383 382.782,91.831 383.025,92.284 383.26,92.741 383.486,93.202 383.705,93.666 383.916,94.135 384.119,94.606     384.313,95.082 384.499,95.56 384.677,96.042 384.847,96.527 385.008,97.015 385.161,97.505 385.305,97.998 385.441,98.493     385.568,98.991 385.687,99.49 385.797,99.992 385.898,100.495 385.991,101.001 386.075,101.507 386.15,102.015 386.216,102.525     386.273,103.035 386.322,103.546 386.362,104.058 386.393,104.571 386.415,105.084 386.428,105.597 386.433,106.111   "
   id="polyline329"
   transform="translate(-95.174,-70.174)"
   style="stroke:#000000;stroke-opacity:1" /><polygon
   fill="none"
   stroke="#00b9d2"
   stroke-width="2.75"
   stroke-linecap="round"
   stroke-linejoin="round"
   stroke-miterlimit="10"
   points="123.476,707.691 122.965,707.634 122.456,707.567 121.948,707.492 121.441,707.408 120.936,707.316 120.433,707.215 119.931,707.105 119.431,706.986 118.934,706.859 118.438,706.723 117.946,706.579 117.455,706.426 116.968,706.265 116.483,706.095 116.001,705.917 115.523,705.731 115.047,705.536 114.575,705.334 114.107,705.123 113.642,704.904 113.182,704.677 112.725,704.443 112.272,704.2 111.824,703.95 111.38,703.692 110.94,703.426 110.505,703.153 110.075,702.872 109.65,702.584 109.23,702.289 108.815,701.986 108.405,701.676 108.001,701.359 107.602,701.036 107.209,700.705 106.822,700.368 106.44,700.024 106.065,699.674 105.696,699.317 105.332,698.954 104.976,698.584 104.625,698.209 104.281,697.828 103.944,697.44 103.614,697.047 103.29,696.648 102.973,696.244 102.663,695.834 102.361,695.419 102.066,694.999 101.777,694.574 101.497,694.144 101.223,693.709 100.958,693.27 100.7,692.826 100.449,692.377 100.207,691.925 99.972,691.468 99.745,691.007 99.526,690.542 99.316,690.074 99.113,689.602 98.918,689.127 98.732,688.648 98.554,688.167 98.385,687.682 98.223,687.194 98.071,686.704 97.926,686.211 97.791,685.716 97.663,685.218 97.545,684.718 97.435,684.217 97.334,683.713 97.241,683.208 97.157,682.701 97.082,682.193 97.016,681.684 96.958,681.174 96.91,680.662 96.87,680.15 96.839,679.638 96.817,679.125 96.803,678.611 96.799,678.098 96.799,101.552 96.803,101.038 96.817,100.525 96.839,100.012 96.87,99.499 96.91,98.987 96.958,98.476 97.016,97.965 97.082,97.456 97.157,96.948 97.241,96.441 97.334,95.936 97.435,95.433 97.545,94.931 97.663,94.431 97.791,93.934 97.926,93.438 98.071,92.946 98.223,92.455 98.385,91.968 98.554,91.483 98.732,91.001 98.918,90.523 99.113,90.047 99.316,89.575 99.526,89.107 99.745,88.642 99.972,88.182 100.207,87.725 100.449,87.272 100.7,86.824 100.958,86.38 101.223,85.94 101.497,85.505 101.777,85.075 102.066,84.65 102.361,84.23 102.663,83.815 102.973,83.405 103.29,83.001 103.614,82.602 103.944,82.209 104.281,81.822 104.625,81.44 104.976,81.065 105.332,80.696 105.696,80.332 106.065,79.976 106.44,79.625 106.822,79.281 107.209,78.944 107.602,78.614 108.001,78.29 108.405,77.973 108.815,77.663 109.23,77.361 109.65,77.066 110.075,76.777 110.505,76.497 110.94,76.223 111.38,75.958 111.824,75.7 112.272,75.449 112.725,75.207 113.182,74.972 113.642,74.745 114.107,74.526 114.575,74.316 115.047,74.113 115.523,73.918 116.001,73.732 116.483,73.554 116.968,73.385 117.455,73.223 117.946,73.071 118.438,72.926 118.934,72.791 119.431,72.663 119.931,72.545 120.433,72.435 120.936,72.334 121.441,72.241 121.948,72.157 122.456,72.082 122.965,72.016 123.476,71.958 123.987,71.91 124.499,71.87 125.012,71.839 125.525,71.817 126.038,71.803 126.552,71.799 356.68,71.799 357.194,71.803 357.707,71.817 358.22,71.839 358.733,71.87 359.245,71.91 359.756,71.958 360.266,72.016 360.776,72.082 361.284,72.157 361.79,72.241 362.296,72.334 362.799,72.435 363.301,72.545 363.8,72.663 364.298,72.791 364.793,72.926 365.286,73.071 365.776,73.223 366.264,73.385 366.749,73.554 367.231,73.732 367.709,73.918 368.185,74.113 368.656,74.316 369.125,74.526 369.589,74.745 370.05,74.972 370.507,75.207 370.96,75.449 371.408,75.7 371.852,75.958 372.292,76.223 372.726,76.497 373.156,76.777 373.582,77.066 374.002,77.361 374.417,77.663 374.826,77.973 375.231,78.29 375.629,78.614 376.023,78.944 376.41,79.281 376.791,79.625 377.167,79.976 377.536,80.332 377.899,80.696 378.256,81.065 378.607,81.44 378.95,81.822 379.288,82.209 379.618,82.602 379.942,83.001 380.259,83.405 380.568,83.815 380.871,84.23 381.166,84.65 381.454,85.075 381.735,85.505 382.008,85.94 382.274,86.38 382.532,86.824 382.782,87.272 383.025,87.725 383.26,88.182 383.486,88.642 383.705,89.107 383.916,89.575 384.119,90.047 384.313,90.523 384.499,91.001 384.677,91.483 384.847,91.968 385.008,92.455 385.161,92.946 385.305,93.438 385.441,93.934 385.568,94.431 385.687,94.931 385.797,95.433 385.898,95.936 385.991,96.441 386.075,96.948 386.15,97.456 386.216,97.965 386.273,98.476 386.322,98.987 386.362,99.499 386.393,100.012 386.415,100.525 386.428,101.038 386.433,101.552 386.433,678.098 386.428,678.611 386.415,679.125 386.393,679.638 386.362,680.15 386.322,680.662 386.273,681.174 386.216,681.684 386.15,682.193 386.075,682.701 385.991,683.208 385.898,683.713 385.797,684.217 385.687,684.718 385.568,685.218 385.441,685.716 385.305,686.211 385.161,686.704 385.008,687.194 384.847,687.682 384.677,688.167 384.499,688.648 384.313,689.127 384.119,689.602 383.916,690.074 383.705,690.542 383.486,691.007 383.26,691.468 383.025,691.925 382.782,692.377 382.532,692.826 382.274,693.27 382.008,693.709 381.735,694.144 381.454,694.574 381.166,694.999 380.871,695.419 380.568,695.834 380.259,696.244 379.942,696.648 379.618,697.047 379.288,697.44 378.95,697.828 378.607,698.209 378.256,698.584 377.899,698.954 377.536,699.317 377.167,699.674 376.791,700.024 376.41,700.368 376.023,700.705 375.629,701.036 375.231,701.359 374.826,701.676 374.417,701.986 374.002,702.289 373.582,702.584 373.156,702.872 372.726,703.153 372.292,703.426 371.852,703.692 371.408,703.95 370.96,704.2 370.507,704.443 370.05,704.677 369.589,704.904 369.125,705.123 368.656,705.334 368.185,705.536 367.709,705.731 367.231,705.917 366.749,706.095 366.264,706.265 365.776,706.426 365.286,706.579 364.793,706.723 364.298,706.859 363.8,706.986 363.301,707.105 362.799,707.215 362.296,707.316 361.79,707.408 361.284,707.492 360.776,707.567 360.266,707.634 359.756,707.691 359.245,707.74 358.733,707.78 358.22,707.811 357.707,707.833 357.194,707.846 356.68,707.851 126.552,707.851 126.038,707.846 125.525,707.833 125.012,707.811 124.499,707.78 123.987,707.74 "
   id="polygon332"
   transform="translate(-95.174,-70.174)"
   style="stroke:#000000;stroke-opacity:1" />
<polygon
   fill="none"
   stroke="#00b9d2"
   stroke-width="3.25"
   stroke-linecap="round"
   stroke-linejoin="round"
   stroke-miterlimit="10"
   points="386.387,99.89 386.366,99.554 386.341,99.217 386.313,98.878 386.28,98.539 386.243,98.198 386.203,97.857 386.158,97.514 386.109,97.171 386.055,96.827 385.998,96.483 385.936,96.138 385.87,95.792 385.8,95.446 385.725,95.1 385.646,94.753 385.562,94.406 385.474,94.059 385.382,93.712 385.284,93.365 385.183,93.018 385.077,92.671 384.966,92.325 384.851,91.979 384.731,91.633 384.607,91.288 384.478,90.944 384.344,90.6 384.206,90.257 384.063,89.915 383.915,89.574 383.763,89.234 383.607,88.895 383.445,88.557 383.279,88.221 383.109,87.886 382.934,87.553 382.755,87.221 382.57,86.891 382.382,86.563 382.189,86.237 381.991,85.913 381.789,85.591 381.583,85.271 381.372,84.953 381.157,84.637 380.938,84.324 380.715,84.014 380.487,83.706 380.255,83.401 380.019,83.098 379.779,82.798 379.535,82.502 379.287,82.208 379.035,81.917 378.779,81.63 378.519,81.346 378.256,81.065 377.989,80.787 377.719,80.513 377.444,80.243 377.167,79.976 376.886,79.712 376.602,79.453 376.314,79.197 376.024,78.945 375.73,78.697 375.433,78.453 375.134,78.213 374.831,77.977 374.526,77.745 374.218,77.517 373.907,77.294 373.594,77.074 373.279,76.859 372.961,76.649 372.641,76.442 372.319,76.24 371.995,76.043 371.668,75.85 371.34,75.661 371.01,75.477 370.679,75.298 370.345,75.123 370.011,74.952 369.674,74.786 369.337,74.625 368.998,74.468 368.658,74.316 368.317,74.169 367.975,74.026 367.632,73.888 367.288,73.754 366.944,73.625 366.599,73.501 366.253,73.381 365.907,73.266 365.56,73.155 365.214,73.049 364.867,72.947 364.52,72.85 364.173,72.758 363.826,72.67 363.479,72.586 363.132,72.507 362.786,72.432 362.44,72.362 362.094,72.295 361.749,72.234 361.404,72.176 361.061,72.123 360.717,72.074 360.375,72.029 360.034,71.988 359.693,71.952 359.353,71.919 359.015,71.891 358.678,71.866 358.341,71.845 358.006,71.828 357.673,71.815 357.34,71.806 357.01,71.801 356.68,71.799 126.552,71.799 126.222,71.801 125.891,71.806 125.559,71.815 125.225,71.828 124.89,71.845 124.554,71.866 124.217,71.891 123.878,71.919 123.539,71.952 123.198,71.988 122.857,72.029 122.514,72.074 122.171,72.123 121.827,72.176 121.483,72.234 121.138,72.295 120.792,72.362 120.446,72.432 120.1,72.507 119.753,72.586 119.406,72.67 119.059,72.758 118.712,72.85 118.365,72.947 118.018,73.049 117.671,73.155 117.325,73.266 116.979,73.381 116.633,73.501 116.288,73.625 115.944,73.754 115.6,73.888 115.257,74.026 114.915,74.169 114.574,74.316 114.234,74.468 113.895,74.625 113.557,74.786 113.221,74.952 112.886,75.123 112.553,75.298 112.221,75.477 111.891,75.661 111.563,75.85 111.237,76.043 110.913,76.24 110.591,76.442 110.271,76.649 109.953,76.859 109.637,77.074 109.324,77.294 109.014,77.517 108.706,77.745 108.401,77.977 108.098,78.213 107.798,78.453 107.502,78.697 107.208,78.945 106.917,79.197 106.63,79.453 106.346,79.712 106.065,79.976 105.787,80.243 105.513,80.513 105.243,80.787 104.976,81.065 104.712,81.346 104.453,81.63 104.197,81.917 103.945,82.208 103.697,82.502 103.453,82.798 103.213,83.098 102.977,83.401 102.745,83.706 102.517,84.014 102.294,84.324 102.074,84.637 101.859,84.953 101.649,85.271 101.442,85.591 101.24,85.913 101.043,86.237 100.85,86.563 100.661,86.891 100.477,87.221 100.298,87.553 100.123,87.886 99.952,88.221 99.786,88.557 99.625,88.895 99.468,89.234 99.316,89.574 99.169,89.915 99.026,90.257 98.888,90.6 98.754,90.944 98.625,91.288 98.501,91.633 98.381,91.979 98.266,92.325 98.155,92.671 98.049,93.018 97.947,93.365 97.85,93.712 97.758,94.059 97.67,94.406 97.586,94.753 97.507,95.1 97.432,95.446 97.362,95.792 97.295,96.138 97.234,96.483 97.176,96.827 97.123,97.171 97.074,97.514 97.029,97.857 96.988,98.198 96.952,98.539 96.919,98.878 96.891,99.217 96.866,99.554 96.845,99.89 96.828,100.225 96.815,100.559 96.806,100.891 96.801,101.222 96.799,101.552 96.799,106.111 96.799,678.098 96.801,678.427 96.806,678.758 96.815,679.09 96.828,679.424 96.845,679.759 96.866,680.095 96.891,680.433 96.919,680.771 96.952,681.111 96.988,681.451 97.029,681.793 97.074,682.135 97.123,682.478 97.176,682.822 97.234,683.167 97.295,683.512 97.362,683.857 97.432,684.203 97.507,684.55 97.586,684.896 97.67,685.243 97.758,685.59 97.85,685.937 97.947,686.284 98.049,686.631 98.155,686.978 98.266,687.325 98.381,687.671 98.501,688.016 98.625,688.361 98.754,688.706 98.888,689.05 99.026,689.393 99.169,689.735 99.316,690.076 99.468,690.416 99.625,690.754 99.786,691.092 99.952,691.428 100.123,691.763 100.298,692.096 100.477,692.428 100.661,692.758 100.85,693.086 101.043,693.412 101.24,693.737 101.442,694.059 101.649,694.379 101.859,694.697 102.074,695.012 102.294,695.325 102.517,695.636 102.745,695.944 102.977,696.249 103.213,696.551 103.453,696.851 103.697,697.148 103.945,697.441 104.197,697.732 104.453,698.019 104.712,698.304 104.976,698.585 105.243,698.862 105.513,699.136 105.787,699.407 106.065,699.674 106.346,699.937 106.63,700.197 106.917,700.452 107.208,700.704 107.502,700.952 107.798,701.196 108.098,701.437 108.401,701.673 108.706,701.904 109.014,702.132 109.324,702.356 109.637,702.575 109.953,702.79 110.271,703.001 110.591,703.207 110.913,703.409 111.237,703.607 111.563,703.8 111.891,703.988 112.221,704.172 112.553,704.352 112.886,704.527 113.221,704.697 113.557,704.863 113.895,705.024 114.234,705.181 114.574,705.333 114.915,705.481 115.257,705.623 115.6,705.762 115.944,705.895 116.288,706.024 116.633,706.149 116.979,706.268 117.325,706.384 117.671,706.494 118.018,706.601 118.365,706.702 118.712,706.799 119.059,706.892 119.406,706.98 119.753,707.063 120.1,707.143 120.446,707.217 120.792,707.288 121.138,707.354 121.483,707.416 121.827,707.473 122.171,707.526 122.514,707.575 122.857,707.62 123.198,707.661 123.539,707.698 123.878,707.73 124.217,707.759 124.554,707.784 124.89,707.804 125.225,707.821 125.559,707.834 125.891,707.843 126.222,707.849 126.552,707.851 356.68,707.851 357.01,707.849 357.34,707.843 357.673,707.834 358.006,707.821 358.341,707.804 358.678,707.784 359.015,707.759 359.353,707.73 359.693,707.698 360.034,707.661 360.375,707.62 360.717,707.575 361.061,707.526 361.404,707.473 361.749,707.416 362.094,707.354 362.44,707.288 362.786,707.217 363.132,707.143 363.479,707.063 363.826,706.98 364.173,706.892 364.52,706.799 364.867,706.702 365.214,706.601 365.56,706.494 365.907,706.384 366.253,706.268 366.599,706.149 366.944,706.024 367.288,705.895 367.632,705.762 367.975,705.623 368.317,705.481 368.658,705.333 368.998,705.181 369.337,705.024 369.674,704.863 370.011,704.697 370.345,704.527 370.679,704.352 371.01,704.172 371.34,703.988 371.668,703.8 371.995,703.607 372.319,703.409 372.641,703.207 372.961,703.001 373.279,702.79 373.594,702.575 373.907,702.356 374.218,702.132 374.526,701.904 374.831,701.673 375.134,701.437 375.433,701.196 375.73,700.952 376.024,700.704 376.314,700.452 376.602,700.197 376.886,699.937 377.167,699.674 377.444,699.407 377.719,699.136 377.989,698.862 378.256,698.585 378.519,698.304 378.779,698.019 379.035,697.732 379.287,697.441 379.535,697.148 379.779,696.851 380.019,696.551 380.255,696.249 380.487,695.944 380.715,695.636 380.938,695.325 381.157,695.012 381.372,694.697 381.583,694.379 381.789,694.059 381.991,693.737 382.189,693.412 382.382,693.086 382.57,692.758 382.755,692.428 382.934,692.096 383.109,691.763 383.279,691.428 383.445,691.092 383.607,690.754 383.763,690.416 383.915,690.076 384.063,689.735 384.206,689.393 384.344,689.05 384.478,688.706 384.607,688.361 384.731,688.016 384.851,687.671 384.966,687.325 385.077,686.978 385.183,686.631 385.284,686.284 385.382,685.937 385.474,685.59 385.562,685.243 385.646,684.896 385.725,684.55 385.8,684.203 385.87,683.857 385.936,683.512 385.998,683.167 386.055,682.822 386.109,682.478 386.158,682.135 386.203,681.793 386.243,681.451 386.28,681.111 386.313,680.771 386.341,680.433 386.366,680.095 386.387,679.759 386.403,679.424 386.416,679.09 386.426,678.758 386.431,678.427 386.433,678.098 386.433,672.759 386.433,344.954 389.291,344.954 389.291,304.559 386.433,304.559 386.433,267.794 389.291,267.794 389.291,191.44 386.433,191.44 386.433,101.552 386.431,101.222 386.426,100.891 386.416,100.559 386.403,100.225 "
   id="polygon354"
   transform="translate(-95.174,-70.174)"
   style="stroke:#000000;stroke-opacity:1" />
</svg>
